G04 #@! TF.GenerationSoftware,KiCad,Pcbnew,(5.1.2-1)-1*
G04 #@! TF.CreationDate,2019-06-08T16:08:17+01:00*
G04 #@! TF.ProjectId,A500 FastRAM,41353030-2046-4617-9374-52414d2e6b69,rev?*
G04 #@! TF.SameCoordinates,Original*
G04 #@! TF.FileFunction,Copper,L2,Inr*
G04 #@! TF.FilePolarity,Positive*
%FSLAX46Y46*%
G04 Gerber Fmt 4.6, Leading zero omitted, Abs format (unit mm)*
G04 Created by KiCad (PCBNEW (5.1.2-1)-1) date 2019-06-08 16:08:17*
%MOMM*%
%LPD*%
G04 APERTURE LIST*
%ADD10R,1.700000X1.700000*%
%ADD11O,1.700000X1.700000*%
%ADD12R,2.400000X1.600000*%
%ADD13O,2.400000X1.600000*%
%ADD14C,1.422400*%
%ADD15R,1.422400X1.422400*%
%ADD16C,0.800000*%
%ADD17C,0.600000*%
%ADD18C,0.381000*%
%ADD19C,0.250000*%
G04 APERTURE END LIST*
D10*
X145796000Y-37528500D03*
D11*
X143256000Y-37528500D03*
X140716000Y-37528500D03*
X138176000Y-37528500D03*
X135636000Y-37528500D03*
X133096000Y-37528500D03*
D10*
X133985000Y-153035000D03*
D11*
X136525000Y-153035000D03*
X139065000Y-153035000D03*
D12*
X99695000Y-73660000D03*
D13*
X99695000Y-76200000D03*
X99695000Y-78740000D03*
X99695000Y-81280000D03*
X99695000Y-83820000D03*
X99695000Y-86360000D03*
X99695000Y-88900000D03*
X99695000Y-91440000D03*
X99695000Y-93980000D03*
X99695000Y-96520000D03*
X99695000Y-99060000D03*
X99695000Y-101600000D03*
X99695000Y-104140000D03*
X99695000Y-106680000D03*
X99695000Y-109220000D03*
X99695000Y-111760000D03*
X99695000Y-114300000D03*
X99695000Y-116840000D03*
X99695000Y-119380000D03*
X99695000Y-121920000D03*
X99695000Y-124460000D03*
X99695000Y-127000000D03*
X99695000Y-129540000D03*
X99695000Y-132080000D03*
X99695000Y-134620000D03*
X99695000Y-137160000D03*
X99695000Y-139700000D03*
X99695000Y-142240000D03*
X99695000Y-144780000D03*
X99695000Y-147320000D03*
X99695000Y-149860000D03*
X99695000Y-152400000D03*
X125095000Y-152400000D03*
X125095000Y-149860000D03*
X125095000Y-147320000D03*
X125095000Y-144780000D03*
X125095000Y-142240000D03*
X125095000Y-139700000D03*
X125095000Y-137160000D03*
X125095000Y-134620000D03*
X125095000Y-132080000D03*
X125095000Y-129540000D03*
X125095000Y-127000000D03*
X125095000Y-124460000D03*
X125095000Y-121920000D03*
X125095000Y-119380000D03*
X125095000Y-116840000D03*
X125095000Y-114300000D03*
X125095000Y-111760000D03*
X125095000Y-109220000D03*
X125095000Y-106680000D03*
X125095000Y-104140000D03*
X125095000Y-101600000D03*
X125095000Y-99060000D03*
X125095000Y-96520000D03*
X125095000Y-93980000D03*
X125095000Y-91440000D03*
X125095000Y-88900000D03*
X125095000Y-86360000D03*
X125095000Y-83820000D03*
X125095000Y-81280000D03*
X125095000Y-78740000D03*
X125095000Y-76200000D03*
X125095000Y-73660000D03*
D14*
X114935000Y-43180000D03*
X112395000Y-43180000D03*
X109855000Y-43180000D03*
X107315000Y-43180000D03*
X117475000Y-43180000D03*
X120015000Y-43180000D03*
X122555000Y-43180000D03*
X125095000Y-43180000D03*
D15*
X114935000Y-40640000D03*
D14*
X112395000Y-40640000D03*
X109855000Y-40640000D03*
X107315000Y-40640000D03*
X104775000Y-40640000D03*
X117475000Y-40640000D03*
X120015000Y-40640000D03*
X122555000Y-40640000D03*
X104775000Y-43180000D03*
X104775000Y-45720000D03*
X104775000Y-48260000D03*
X104775000Y-50800000D03*
X104775000Y-53340000D03*
X104775000Y-55880000D03*
X104775000Y-58420000D03*
X104775000Y-60960000D03*
X102235000Y-43180000D03*
X102235000Y-45720000D03*
X102235000Y-48260000D03*
X102235000Y-50800000D03*
X102235000Y-53340000D03*
X102235000Y-55880000D03*
X102235000Y-58420000D03*
X102235000Y-60960000D03*
X102235000Y-63500000D03*
X104775000Y-63500000D03*
X107315000Y-63500000D03*
X109855000Y-63500000D03*
X112395000Y-63500000D03*
X114935000Y-63500000D03*
X117475000Y-63500000D03*
X120015000Y-63500000D03*
X122555000Y-63500000D03*
X127635000Y-63500000D03*
X104775000Y-66040000D03*
X107315000Y-66040000D03*
X109855000Y-66040000D03*
X112395000Y-66040000D03*
X114935000Y-66040000D03*
X117475000Y-66040000D03*
X120015000Y-66040000D03*
X122555000Y-66040000D03*
X125095000Y-66040000D03*
X125095000Y-63500000D03*
X125095000Y-60960000D03*
X125095000Y-58420000D03*
X125095000Y-55880000D03*
X125095000Y-53340000D03*
X125095000Y-50800000D03*
X125095000Y-48260000D03*
X125095000Y-45720000D03*
X125095000Y-40640000D03*
X127635000Y-60960000D03*
X127635000Y-58420000D03*
X127635000Y-55880000D03*
X127635000Y-53340000D03*
X127635000Y-50800000D03*
X127635000Y-48260000D03*
X127635000Y-45720000D03*
X127635000Y-43180000D03*
D16*
X133646900Y-101567000D03*
X108275400Y-118009100D03*
X108288500Y-105524100D03*
X147788900Y-76261900D03*
X138027400Y-76889800D03*
X148184600Y-107950000D03*
X148590000Y-123335300D03*
D17*
X141608400Y-89862600D03*
X145383700Y-83669600D03*
X136523400Y-88200000D03*
X138220700Y-71724000D03*
X153794300Y-51341000D03*
X115979200Y-52641800D03*
X153645800Y-134867600D03*
X153643500Y-107023700D03*
X153808100Y-77548300D03*
X140176000Y-93965000D03*
X140124700Y-67500500D03*
X150912400Y-76073800D03*
X149989100Y-44470400D03*
X153648000Y-132297500D03*
X150915300Y-103705300D03*
X114707600Y-54864600D03*
X140193400Y-64324400D03*
X141265300Y-83631900D03*
X153624400Y-75065800D03*
X153643000Y-46897000D03*
X153645200Y-131129100D03*
X153643500Y-103521000D03*
X135176600Y-51257900D03*
X150898600Y-102400300D03*
X150921400Y-129759800D03*
X151070500Y-74262300D03*
X150891600Y-44271500D03*
X135167100Y-54267400D03*
X153494900Y-72997500D03*
X150945000Y-43343800D03*
X153448900Y-127650200D03*
X153641100Y-99970900D03*
X140109100Y-55513000D03*
X121403000Y-78745900D03*
X140333600Y-52063500D03*
X139684400Y-53251400D03*
X140097000Y-56566000D03*
X150893600Y-142423700D03*
X150567700Y-113994200D03*
X148895400Y-94839900D03*
X135083700Y-56511000D03*
X134627500Y-58799600D03*
X130183600Y-61380300D03*
X135061900Y-69503400D03*
X134022200Y-67500500D03*
X135228500Y-90970400D03*
X133413400Y-63690500D03*
X134514800Y-91431300D03*
X113360100Y-146050000D03*
X138453100Y-78835200D03*
X109920000Y-84254200D03*
X108332300Y-139653900D03*
X132179000Y-91931500D03*
X134776200Y-88706000D03*
X160120300Y-128319800D03*
X158337000Y-100571900D03*
X134822400Y-87455300D03*
X158199900Y-72354100D03*
X157820600Y-46968900D03*
X159291000Y-73359300D03*
X134822400Y-86654900D03*
X159421400Y-46971800D03*
X160293300Y-129755400D03*
X159237600Y-101642900D03*
X128257400Y-83765400D03*
X160083000Y-131414800D03*
X158734400Y-102574700D03*
X158621000Y-47101900D03*
X158650200Y-74755500D03*
X159603000Y-76046500D03*
X134820200Y-80030100D03*
X160505600Y-132719100D03*
X160294900Y-105068900D03*
X159421400Y-48222500D03*
X159805700Y-78290300D03*
X157810900Y-96705900D03*
X160325400Y-49702100D03*
X160315200Y-134850200D03*
X160361700Y-50964700D03*
X159967300Y-83201000D03*
X159999000Y-81991800D03*
X160440000Y-52162700D03*
X109764500Y-93694800D03*
X142853100Y-91132900D03*
X159910200Y-80978900D03*
X114353400Y-93812700D03*
X142430000Y-93965000D03*
X148417600Y-57492600D03*
X150898900Y-139576400D03*
X150543100Y-111543600D03*
X148594300Y-84350300D03*
X141630000Y-91443000D03*
X139345000Y-62944300D03*
X150905900Y-137456900D03*
X150892100Y-110033700D03*
X150140700Y-54414300D03*
X150314200Y-83164800D03*
X138838800Y-68142900D03*
X140728200Y-86110500D03*
X149177000Y-54376300D03*
X149805300Y-78888000D03*
X149990400Y-109931700D03*
X138692700Y-61283700D03*
X145534600Y-89265400D03*
X137663400Y-131373800D03*
X115721900Y-119832200D03*
X137952800Y-82584500D03*
X137930700Y-84314700D03*
X141591600Y-89062200D03*
X113242300Y-88109400D03*
X160312300Y-86339600D03*
X159147600Y-67844900D03*
X143098700Y-80219700D03*
X163027300Y-114951000D03*
X160458500Y-142951400D03*
X151101500Y-144179900D03*
X142713600Y-83063200D03*
X154284500Y-60776000D03*
X153957600Y-83517800D03*
X150439200Y-87290600D03*
X145413000Y-85395000D03*
X150559000Y-114943400D03*
X145388800Y-84532300D03*
X160394500Y-57040800D03*
X160302400Y-113729500D03*
X160321700Y-141174600D03*
X160258600Y-84488000D03*
X147030200Y-83063200D03*
X138123400Y-79995500D03*
X102651300Y-71426300D03*
D16*
X139430200Y-127351700D03*
X139000000Y-140689100D03*
X119089100Y-107971300D03*
D17*
X157311500Y-70541800D03*
X143103700Y-70040500D03*
X157886700Y-95528800D03*
X160309200Y-151500200D03*
X160064000Y-124005500D03*
X150182500Y-65600100D03*
X150669600Y-89686700D03*
X160120400Y-122339300D03*
X159593600Y-140053600D03*
X159687900Y-93894700D03*
X160462500Y-66002800D03*
X143123200Y-66230500D03*
X153530800Y-95920800D03*
X152641400Y-69747500D03*
X159776000Y-144769500D03*
X162872200Y-119437900D03*
X163026800Y-91049400D03*
X140801500Y-58611000D03*
X160296300Y-62881000D03*
X160291600Y-145792300D03*
X163052400Y-117491000D03*
X163034100Y-89044500D03*
X160317700Y-60877800D03*
X143104400Y-54260200D03*
X163035300Y-92680300D03*
X139096700Y-57197700D03*
X160314700Y-64057000D03*
X160503200Y-149241900D03*
X163164400Y-120964100D03*
X160465000Y-146733000D03*
X163038000Y-118590000D03*
X160284400Y-61678200D03*
X143098100Y-57785000D03*
X163028200Y-90141700D03*
X153626000Y-147659500D03*
X150881000Y-91829500D03*
X136511600Y-84908200D03*
X153648400Y-91620800D03*
X155033200Y-84782400D03*
X136577500Y-83406000D03*
X97062200Y-49417100D03*
X132251500Y-116469600D03*
X132556400Y-130530000D03*
X132528600Y-134620000D03*
X107592300Y-140750200D03*
X107444400Y-142348300D03*
X137502500Y-132416700D03*
X138684400Y-137965900D03*
X137756700Y-73072800D03*
X132739900Y-118095800D03*
X116793300Y-102978100D03*
X115579700Y-67470400D03*
X117913800Y-129406500D03*
X109855500Y-57866900D03*
X106883300Y-126253600D03*
X103117800Y-122632600D03*
X132530500Y-132080000D03*
X116348600Y-147425300D03*
X137687200Y-135221600D03*
X135334700Y-146026900D03*
X135533400Y-129358700D03*
X113029900Y-127741000D03*
X111252700Y-111184500D03*
X111627200Y-123999900D03*
X112175200Y-98854400D03*
X111574600Y-113417300D03*
X115490200Y-107611000D03*
X111847400Y-97690800D03*
X113378900Y-102498600D03*
X132570300Y-128467000D03*
X111328000Y-105264200D03*
X131078600Y-117305700D03*
X112872400Y-100225000D03*
X110588200Y-93782800D03*
X110348700Y-120249500D03*
X112165100Y-96409000D03*
X116175100Y-99067900D03*
D18*
X125095000Y-101600000D02*
X126685800Y-101600000D01*
X126685800Y-101600000D02*
X126718800Y-101567000D01*
X126718800Y-101567000D02*
X133646900Y-101567000D01*
X125095000Y-48260000D02*
X107315000Y-48260000D01*
X107315000Y-48260000D02*
X104775000Y-50800000D01*
X127635000Y-48260000D02*
X125095000Y-48260000D01*
X104775000Y-50800000D02*
X102235000Y-50800000D01*
X102606500Y-111760000D02*
X108275400Y-117428900D01*
X108275400Y-117428900D02*
X108275400Y-118009100D01*
X102606500Y-111760000D02*
X102606500Y-111206100D01*
X102606500Y-111206100D02*
X108288500Y-105524100D01*
X101140500Y-111760000D02*
X102606500Y-111760000D01*
X108288500Y-105524100D02*
X112212600Y-101600000D01*
X112212600Y-101600000D02*
X123504200Y-101600000D01*
X99695000Y-111760000D02*
X101140500Y-111760000D01*
X125095000Y-101600000D02*
X123504200Y-101600000D01*
X148184600Y-107950000D02*
X148184600Y-122929900D01*
X148184600Y-122929900D02*
X148590000Y-123335300D01*
D19*
X115979200Y-52641800D02*
X117755800Y-54418400D01*
X117755800Y-54418400D02*
X130814800Y-54418400D01*
X130814800Y-54418400D02*
X134601400Y-50631800D01*
X134601400Y-50631800D02*
X153085100Y-50631800D01*
X153085100Y-50631800D02*
X153794300Y-51341000D01*
X115979200Y-52641800D02*
X106157600Y-62463400D01*
X106157600Y-62463400D02*
X104291100Y-62463400D01*
X104291100Y-62463400D02*
X103505000Y-63249500D01*
X103505000Y-63249500D02*
X103505000Y-69688300D01*
X103505000Y-69688300D02*
X101220300Y-71973000D01*
X101220300Y-71973000D02*
X101220300Y-73660000D01*
X99695000Y-73660000D02*
X101220300Y-73660000D01*
X153645800Y-134867600D02*
X154335000Y-134178400D01*
X154335000Y-134178400D02*
X154335000Y-107715200D01*
X154335000Y-107715200D02*
X153643500Y-107023700D01*
X114935000Y-63500000D02*
X116205000Y-64770000D01*
X116205000Y-64770000D02*
X116205000Y-66265300D01*
X116205000Y-66265300D02*
X118112900Y-68173200D01*
X118112900Y-68173200D02*
X137681900Y-68173200D01*
X137681900Y-68173200D02*
X138354600Y-67500500D01*
X138354600Y-67500500D02*
X140124700Y-67500500D01*
X101220300Y-76200000D02*
X108585000Y-68835300D01*
X108585000Y-68835300D02*
X108585000Y-60987200D01*
X108585000Y-60987200D02*
X114707600Y-54864600D01*
X114935000Y-43180000D02*
X116438400Y-41676600D01*
X116438400Y-41676600D02*
X117958900Y-41676600D01*
X117958900Y-41676600D02*
X118745000Y-40890500D01*
X118745000Y-40890500D02*
X118745000Y-40407700D01*
X118745000Y-40407700D02*
X120059200Y-39093500D01*
X120059200Y-39093500D02*
X129487000Y-39093500D01*
X129487000Y-39093500D02*
X131745700Y-41352200D01*
X131745700Y-41352200D02*
X146870900Y-41352200D01*
X146870900Y-41352200D02*
X149989100Y-44470400D01*
X99695000Y-76200000D02*
X101220300Y-76200000D01*
X117475000Y-66040000D02*
X118991200Y-67556200D01*
X118991200Y-67556200D02*
X132385000Y-67556200D01*
X132385000Y-67556200D02*
X135616800Y-64324400D01*
X135616800Y-64324400D02*
X140193400Y-64324400D01*
X111353200Y-44675200D02*
X144278500Y-44675200D01*
X144278500Y-44675200D02*
X146500300Y-46897000D01*
X146500300Y-46897000D02*
X153643000Y-46897000D01*
X98169700Y-78740000D02*
X98169700Y-50828800D01*
X98169700Y-50828800D02*
X102008500Y-46990000D01*
X102008500Y-46990000D02*
X109038400Y-46990000D01*
X109038400Y-46990000D02*
X111353200Y-44675200D01*
X111353200Y-44675200D02*
X111353200Y-41681800D01*
X111353200Y-41681800D02*
X112395000Y-40640000D01*
X153643500Y-103521000D02*
X152817100Y-104347400D01*
X152817100Y-104347400D02*
X152817100Y-130301000D01*
X152817100Y-130301000D02*
X153645200Y-131129100D01*
X99695000Y-78740000D02*
X98169700Y-78740000D01*
X117475000Y-63500000D02*
X123825000Y-57150000D01*
X123825000Y-57150000D02*
X129284500Y-57150000D01*
X129284500Y-57150000D02*
X135176600Y-51257900D01*
X150898600Y-102400300D02*
X151572700Y-103074400D01*
X151572700Y-103074400D02*
X151572700Y-129108500D01*
X151572700Y-129108500D02*
X150921400Y-129759800D01*
X101220300Y-81280000D02*
X111419900Y-71080400D01*
X111419900Y-71080400D02*
X147888600Y-71080400D01*
X147888600Y-71080400D02*
X151070500Y-74262300D01*
X112395000Y-43180000D02*
X113450300Y-42124700D01*
X113450300Y-42124700D02*
X113450300Y-40218200D01*
X113450300Y-40218200D02*
X115034800Y-38633700D01*
X115034800Y-38633700D02*
X129828200Y-38633700D01*
X129828200Y-38633700D02*
X132096400Y-40901900D01*
X132096400Y-40901900D02*
X147522000Y-40901900D01*
X147522000Y-40901900D02*
X150891600Y-44271500D01*
X99695000Y-81280000D02*
X101220300Y-81280000D01*
X120015000Y-66040000D02*
X121285000Y-64770000D01*
X121285000Y-64770000D02*
X121285000Y-63279500D01*
X121285000Y-63279500D02*
X124874500Y-59690000D01*
X124874500Y-59690000D02*
X129744500Y-59690000D01*
X129744500Y-59690000D02*
X135167100Y-54267400D01*
X153494900Y-72997500D02*
X151597500Y-74894900D01*
X151597500Y-74894900D02*
X146449100Y-74894900D01*
X146449100Y-74894900D02*
X145275000Y-73720800D01*
X145275000Y-73720800D02*
X137520200Y-73720800D01*
X137520200Y-73720800D02*
X136291400Y-72492000D01*
X136291400Y-72492000D02*
X112548300Y-72492000D01*
X112548300Y-72492000D02*
X101220300Y-83820000D01*
X99695000Y-83820000D02*
X101220300Y-83820000D01*
X109855000Y-40640000D02*
X112311700Y-38183300D01*
X112311700Y-38183300D02*
X130091500Y-38183300D01*
X130091500Y-38183300D02*
X132359800Y-40451600D01*
X132359800Y-40451600D02*
X148052800Y-40451600D01*
X148052800Y-40451600D02*
X150945000Y-43343800D01*
X122555000Y-66040000D02*
X123652300Y-64942700D01*
X123652300Y-64942700D02*
X129423100Y-64942700D01*
X129423100Y-64942700D02*
X140333600Y-54032200D01*
X140333600Y-54032200D02*
X140333600Y-52063500D01*
X122555000Y-63500000D02*
X124045700Y-62009300D01*
X124045700Y-62009300D02*
X130486200Y-62009300D01*
X130486200Y-62009300D02*
X139244100Y-53251400D01*
X139244100Y-53251400D02*
X139684400Y-53251400D01*
X125095000Y-66040000D02*
X129017200Y-66040000D01*
X129017200Y-66040000D02*
X138491100Y-56566100D01*
X138491100Y-56566100D02*
X140097000Y-56566100D01*
X140097000Y-56566100D02*
X140097000Y-56566000D01*
X150567700Y-113994200D02*
X149905900Y-114656000D01*
X149905900Y-114656000D02*
X149905900Y-141436000D01*
X149905900Y-141436000D02*
X150893600Y-142423700D01*
X143275200Y-100460100D02*
X148895400Y-94839900D01*
X101220300Y-93980000D02*
X108090700Y-100850400D01*
X108090700Y-100850400D02*
X123644400Y-100850400D01*
X123644400Y-100850400D02*
X124034700Y-100460100D01*
X124034700Y-100460100D02*
X143275200Y-100460100D01*
X143275200Y-100460100D02*
X148990800Y-106175700D01*
X148990800Y-106175700D02*
X148990800Y-112417300D01*
X148990800Y-112417300D02*
X150567700Y-113994200D01*
X99695000Y-93980000D02*
X101220300Y-93980000D01*
X134627500Y-58799600D02*
X130963700Y-62463400D01*
X130963700Y-62463400D02*
X126131600Y-62463400D01*
X126131600Y-62463400D02*
X125095000Y-63500000D01*
X127635000Y-60960000D02*
X129763300Y-60960000D01*
X129763300Y-60960000D02*
X130183600Y-61380300D01*
X138453100Y-78835200D02*
X131226100Y-78835200D01*
X131226100Y-78835200D02*
X130051300Y-80010000D01*
X130051300Y-80010000D02*
X114164200Y-80010000D01*
X114164200Y-80010000D02*
X109920000Y-84254200D01*
X108332300Y-139653900D02*
X113360100Y-144681700D01*
X113360100Y-144681700D02*
X113360100Y-146050000D01*
X98169700Y-109220000D02*
X98169700Y-124992200D01*
X98169700Y-124992200D02*
X98907500Y-125730000D01*
X98907500Y-125730000D02*
X100438300Y-125730000D01*
X100438300Y-125730000D02*
X108332300Y-133624000D01*
X108332300Y-133624000D02*
X108332300Y-139653900D01*
X109920000Y-84254200D02*
X101507800Y-84254200D01*
X101507800Y-84254200D02*
X100672000Y-85090000D01*
X100672000Y-85090000D02*
X98951600Y-85090000D01*
X98951600Y-85090000D02*
X98169700Y-85871900D01*
X98169700Y-85871900D02*
X98169700Y-109220000D01*
X99695000Y-109220000D02*
X98169700Y-109220000D01*
X127635000Y-45720000D02*
X143556600Y-45720000D01*
X143556600Y-45720000D02*
X145417200Y-47580600D01*
X145417200Y-47580600D02*
X157208900Y-47580600D01*
X157208900Y-47580600D02*
X157820600Y-46968900D01*
X158337000Y-100571900D02*
X156217400Y-100571900D01*
X156217400Y-100571900D02*
X148991900Y-93346400D01*
X148991900Y-93346400D02*
X148731300Y-93346400D01*
X148731300Y-93346400D02*
X143821800Y-88436900D01*
X143821800Y-88436900D02*
X143821800Y-88436800D01*
X143821800Y-88436800D02*
X137644600Y-88436800D01*
X137644600Y-88436800D02*
X136663100Y-87455300D01*
X136663100Y-87455300D02*
X134822400Y-87455300D01*
X125095000Y-45720000D02*
X126365000Y-46990000D01*
X126365000Y-46990000D02*
X144189700Y-46990000D01*
X144189700Y-46990000D02*
X145230800Y-48031100D01*
X145230800Y-48031100D02*
X158587600Y-48031100D01*
X158587600Y-48031100D02*
X159421400Y-47197300D01*
X159421400Y-47197300D02*
X159421400Y-46971800D01*
X134822400Y-86654900D02*
X136526700Y-86654900D01*
X136526700Y-86654900D02*
X137858200Y-87986400D01*
X137858200Y-87986400D02*
X145444600Y-87986400D01*
X145444600Y-87986400D02*
X150691600Y-93233400D01*
X150691600Y-93233400D02*
X151912500Y-93233400D01*
X151912500Y-93233400D02*
X159237600Y-100558500D01*
X159237600Y-100558500D02*
X159237600Y-101642900D01*
X160293300Y-129755400D02*
X160745700Y-129303000D01*
X160745700Y-129303000D02*
X160745700Y-117038400D01*
X160745700Y-117038400D02*
X160934700Y-116849400D01*
X160934700Y-116849400D02*
X160934700Y-103340000D01*
X160934700Y-103340000D02*
X159237600Y-101642900D01*
X158621000Y-47101900D02*
X158621000Y-46870800D01*
X158621000Y-46870800D02*
X158000200Y-46250000D01*
X158000200Y-46250000D02*
X153405700Y-46250000D01*
X153405700Y-46250000D02*
X153209100Y-46446600D01*
X153209100Y-46446600D02*
X148267100Y-46446600D01*
X148267100Y-46446600D02*
X145893100Y-44072600D01*
X145893100Y-44072600D02*
X128527600Y-44072600D01*
X128527600Y-44072600D02*
X127635000Y-43180000D01*
X158734400Y-102574700D02*
X157583300Y-102574700D01*
X157583300Y-102574700D02*
X148805300Y-93796700D01*
X148805300Y-93796700D02*
X148399900Y-93796700D01*
X148399900Y-93796700D02*
X147940600Y-93337400D01*
X147940600Y-93337400D02*
X127262900Y-93337400D01*
X127262900Y-93337400D02*
X126620300Y-93980000D01*
X158734400Y-102574700D02*
X158734400Y-130066200D01*
X158734400Y-130066200D02*
X160083000Y-131414800D01*
X125095000Y-93980000D02*
X126620300Y-93980000D01*
X134820200Y-80030100D02*
X135410900Y-80620800D01*
X135410900Y-80620800D02*
X139866600Y-80620800D01*
X139866600Y-80620800D02*
X140896500Y-79590900D01*
X140896500Y-79590900D02*
X156058600Y-79590900D01*
X156058600Y-79590900D02*
X159603000Y-76046500D01*
X160294900Y-105068900D02*
X159438700Y-105925100D01*
X159438700Y-105925100D02*
X159438700Y-129823500D01*
X159438700Y-129823500D02*
X160745700Y-131130500D01*
X160745700Y-131130500D02*
X160745700Y-132479000D01*
X160745700Y-132479000D02*
X160505600Y-132719100D01*
X160325400Y-49702100D02*
X160497200Y-49530300D01*
X160497200Y-49530300D02*
X160497200Y-46431100D01*
X160497200Y-46431100D02*
X159380300Y-45314200D01*
X159380300Y-45314200D02*
X153067700Y-45314200D01*
X153067700Y-45314200D02*
X152835900Y-45546000D01*
X152835900Y-45546000D02*
X148640300Y-45546000D01*
X148640300Y-45546000D02*
X145347100Y-42252800D01*
X145347100Y-42252800D02*
X130863900Y-42252800D01*
X130863900Y-42252800D02*
X130301100Y-41690000D01*
X130301100Y-41690000D02*
X126585000Y-41690000D01*
X126585000Y-41690000D02*
X125095000Y-43180000D01*
X157810900Y-96705900D02*
X161404000Y-100299000D01*
X161404000Y-100299000D02*
X161404000Y-117017000D01*
X161404000Y-117017000D02*
X161196000Y-117225000D01*
X161196000Y-117225000D02*
X161196000Y-133969400D01*
X161196000Y-133969400D02*
X160315200Y-134850200D01*
X125095000Y-88900000D02*
X131573300Y-88900000D01*
X131573300Y-88900000D02*
X134483200Y-85990100D01*
X134483200Y-85990100D02*
X136685500Y-85990100D01*
X136685500Y-85990100D02*
X137881500Y-87186100D01*
X137881500Y-87186100D02*
X145281300Y-87186100D01*
X145281300Y-87186100D02*
X150550000Y-92454800D01*
X150550000Y-92454800D02*
X152124200Y-92454800D01*
X152124200Y-92454800D02*
X156375300Y-96705900D01*
X156375300Y-96705900D02*
X157810900Y-96705900D01*
X160361700Y-50964700D02*
X161001100Y-50325300D01*
X161001100Y-50325300D02*
X161001100Y-46269200D01*
X161001100Y-46269200D02*
X159595800Y-44863900D01*
X159595800Y-44863900D02*
X152881100Y-44863900D01*
X152881100Y-44863900D02*
X152649300Y-45095700D01*
X152649300Y-45095700D02*
X149730100Y-45095700D01*
X149730100Y-45095700D02*
X146436900Y-41802500D01*
X146436900Y-41802500D02*
X131050500Y-41802500D01*
X131050500Y-41802500D02*
X128844900Y-39596900D01*
X128844900Y-39596900D02*
X123598100Y-39596900D01*
X123598100Y-39596900D02*
X122555000Y-40640000D01*
X125095000Y-86360000D02*
X129373500Y-86360000D01*
X129373500Y-86360000D02*
X132952800Y-82780700D01*
X132952800Y-82780700D02*
X136836600Y-82780700D01*
X136836600Y-82780700D02*
X137274300Y-83218400D01*
X137274300Y-83218400D02*
X139128200Y-83218400D01*
X139128200Y-83218400D02*
X139908900Y-82437700D01*
X139908900Y-82437700D02*
X159204000Y-82437700D01*
X159204000Y-82437700D02*
X159967300Y-83201000D01*
X160440000Y-52162700D02*
X159684500Y-51407200D01*
X159684500Y-51407200D02*
X159684500Y-49341300D01*
X159684500Y-49341300D02*
X160046800Y-48979000D01*
X160046800Y-48979000D02*
X160046800Y-46652700D01*
X160046800Y-46652700D02*
X159193800Y-45799700D01*
X159193800Y-45799700D02*
X153219100Y-45799700D01*
X153219100Y-45799700D02*
X153022500Y-45996300D01*
X153022500Y-45996300D02*
X148453700Y-45996300D01*
X148453700Y-45996300D02*
X146079700Y-43622300D01*
X146079700Y-43622300D02*
X129650000Y-43622300D01*
X129650000Y-43622300D02*
X128171000Y-42143300D01*
X128171000Y-42143300D02*
X127169500Y-42143300D01*
X127169500Y-42143300D02*
X126365000Y-42947800D01*
X126365000Y-42947800D02*
X126365000Y-43430500D01*
X126365000Y-43430500D02*
X125578900Y-44216600D01*
X125578900Y-44216600D02*
X123591600Y-44216600D01*
X123591600Y-44216600D02*
X122555000Y-43180000D01*
X125095000Y-83820000D02*
X126620300Y-83820000D01*
X126620300Y-83820000D02*
X128563200Y-81877100D01*
X128563200Y-81877100D02*
X159884300Y-81877100D01*
X159884300Y-81877100D02*
X159999000Y-81991800D01*
X109764500Y-93694800D02*
X110893900Y-92565400D01*
X110893900Y-92565400D02*
X141420600Y-92565400D01*
X141420600Y-92565400D02*
X142853100Y-91132900D01*
X126620300Y-81280000D02*
X159609100Y-81280000D01*
X159609100Y-81280000D02*
X159910200Y-80978900D01*
X125095000Y-81280000D02*
X126620300Y-81280000D01*
X142430000Y-93965000D02*
X141221300Y-95173700D01*
X141221300Y-95173700D02*
X115714400Y-95173700D01*
X115714400Y-95173700D02*
X114353400Y-93812700D01*
X139345000Y-62944300D02*
X136360000Y-62944300D01*
X136360000Y-62944300D02*
X132198500Y-67105800D01*
X132198500Y-67105800D02*
X119586000Y-67105800D01*
X119586000Y-67105800D02*
X118533100Y-66052900D01*
X118533100Y-66052900D02*
X118533100Y-65577600D01*
X118533100Y-65577600D02*
X117958900Y-65003400D01*
X117958900Y-65003400D02*
X117458000Y-65003400D01*
X117458000Y-65003400D02*
X116438400Y-63983800D01*
X116438400Y-63983800D02*
X116438400Y-63475800D01*
X116438400Y-63475800D02*
X115415000Y-62452400D01*
X115415000Y-62452400D02*
X113442600Y-62452400D01*
X113442600Y-62452400D02*
X112395000Y-63500000D01*
X114935000Y-66040000D02*
X115036800Y-66040000D01*
X115036800Y-66040000D02*
X117620400Y-68623600D01*
X117620400Y-68623600D02*
X138358100Y-68623600D01*
X138358100Y-68623600D02*
X138838800Y-68142900D01*
X126620300Y-73660000D02*
X127131500Y-74171200D01*
X127131500Y-74171200D02*
X144672500Y-74171200D01*
X144672500Y-74171200D02*
X149389300Y-78888000D01*
X149389300Y-78888000D02*
X149805300Y-78888000D01*
X125095000Y-73660000D02*
X126620300Y-73660000D01*
X115721900Y-119832200D02*
X119079700Y-123190000D01*
X119079700Y-123190000D02*
X126236200Y-123190000D01*
X126236200Y-123190000D02*
X134420000Y-131373800D01*
X134420000Y-131373800D02*
X137663400Y-131373800D01*
X101220300Y-86360000D02*
X102588300Y-84992000D01*
X102588300Y-84992000D02*
X129819400Y-84992000D01*
X129819400Y-84992000D02*
X132481000Y-82330400D01*
X132481000Y-82330400D02*
X137698700Y-82330400D01*
X137698700Y-82330400D02*
X137952800Y-82584500D01*
X99695000Y-86360000D02*
X101220300Y-86360000D01*
X137930700Y-84314700D02*
X137898900Y-84282900D01*
X137898900Y-84282900D02*
X135553400Y-84282900D01*
X135553400Y-84282900D02*
X132344100Y-87492200D01*
X132344100Y-87492200D02*
X113812300Y-87492200D01*
X113812300Y-87492200D02*
X113754100Y-87434000D01*
X113754100Y-87434000D02*
X102686300Y-87434000D01*
X102686300Y-87434000D02*
X101220300Y-88900000D01*
X99695000Y-88900000D02*
X101220300Y-88900000D01*
X141591600Y-89062200D02*
X135417800Y-89062200D01*
X135417800Y-89062200D02*
X134435500Y-90044500D01*
X134435500Y-90044500D02*
X115177400Y-90044500D01*
X115177400Y-90044500D02*
X113242300Y-88109400D01*
X113242300Y-88109400D02*
X109911700Y-91440000D01*
X109911700Y-91440000D02*
X101220300Y-91440000D01*
X99695000Y-91440000D02*
X101220300Y-91440000D01*
X163027300Y-114951000D02*
X163027300Y-99151900D01*
X163027300Y-99151900D02*
X159046400Y-95171000D01*
X159046400Y-95171000D02*
X159046400Y-87605500D01*
X159046400Y-87605500D02*
X160312300Y-86339600D01*
X160458500Y-142951400D02*
X161646300Y-141763600D01*
X161646300Y-141763600D02*
X161646300Y-117411600D01*
X161646300Y-117411600D02*
X163027300Y-116030600D01*
X163027300Y-116030600D02*
X163027300Y-114951000D01*
X160353200Y-80219700D02*
X160488800Y-80084100D01*
X160488800Y-80084100D02*
X160488800Y-69186100D01*
X160488800Y-69186100D02*
X159147600Y-67844900D01*
X143098700Y-80219700D02*
X160353200Y-80219700D01*
X160353200Y-80219700D02*
X160884000Y-80750500D01*
X160884000Y-80750500D02*
X160884000Y-85767900D01*
X160884000Y-85767900D02*
X160312300Y-86339600D01*
X145413000Y-85395000D02*
X148543600Y-85395000D01*
X148543600Y-85395000D02*
X150439200Y-87290600D01*
X160258600Y-84488000D02*
X159920100Y-84149500D01*
X159920100Y-84149500D02*
X150006600Y-84149500D01*
X150006600Y-84149500D02*
X148920300Y-83063200D01*
X148920300Y-83063200D02*
X147030200Y-83063200D01*
D18*
X127635000Y-53340000D02*
X126215200Y-51920200D01*
X126215200Y-51920200D02*
X101785000Y-51920200D01*
X101785000Y-51920200D02*
X101125000Y-51260200D01*
X101125000Y-51260200D02*
X101125000Y-49370000D01*
X101125000Y-49370000D02*
X102235000Y-48260000D01*
D19*
X143103700Y-70040500D02*
X143604900Y-70541700D01*
X143604900Y-70541700D02*
X157311500Y-70541700D01*
X157311500Y-70541700D02*
X157311500Y-70541800D01*
X159687900Y-93894700D02*
X161360400Y-92222200D01*
X161360400Y-92222200D02*
X161360400Y-67352200D01*
X161360400Y-67352200D02*
X160238700Y-66230500D01*
X160238700Y-66230500D02*
X160462500Y-66006700D01*
X160462500Y-66006700D02*
X160462500Y-66002800D01*
X160238700Y-66230500D02*
X143123200Y-66230500D01*
X160296300Y-62881000D02*
X145071500Y-62881000D01*
X145071500Y-62881000D02*
X140801500Y-58611000D01*
X163052400Y-117491000D02*
X162096700Y-118446700D01*
X162096700Y-118446700D02*
X162096700Y-143987200D01*
X162096700Y-143987200D02*
X160291600Y-145792300D01*
X143104400Y-54260200D02*
X144915900Y-56071700D01*
X144915900Y-56071700D02*
X155511600Y-56071700D01*
X155511600Y-56071700D02*
X160317700Y-60877800D01*
X163164400Y-120964100D02*
X163711600Y-120416900D01*
X163711600Y-120416900D02*
X163711600Y-93356600D01*
X163711600Y-93356600D02*
X163035300Y-92680300D01*
X163164400Y-120964100D02*
X163164400Y-146580700D01*
X163164400Y-146580700D02*
X160503200Y-149241900D01*
X160314700Y-64057000D02*
X162396700Y-66139000D01*
X162396700Y-66139000D02*
X162396700Y-92041700D01*
X162396700Y-92041700D02*
X163035300Y-92680300D01*
X139096700Y-57197700D02*
X139096700Y-57795300D01*
X139096700Y-57795300D02*
X145358400Y-64057000D01*
X145358400Y-64057000D02*
X160314700Y-64057000D01*
X143098100Y-57785000D02*
X146991200Y-61678100D01*
X146991200Y-61678100D02*
X160284400Y-61678100D01*
X160284400Y-61678100D02*
X160284400Y-61678200D01*
X136511600Y-84908200D02*
X138339200Y-86735800D01*
X138339200Y-86735800D02*
X145787300Y-86735800D01*
X145787300Y-86735800D02*
X150881000Y-91829500D01*
X151789100Y-88026500D02*
X155033200Y-84782400D01*
X136577500Y-83406000D02*
X136840200Y-83668700D01*
X136840200Y-83668700D02*
X139389200Y-83668700D01*
X139389200Y-83668700D02*
X141772100Y-86051600D01*
X141772100Y-86051600D02*
X147051600Y-86051600D01*
X147051600Y-86051600D02*
X149026500Y-88026500D01*
X149026500Y-88026500D02*
X151789100Y-88026500D01*
X151789100Y-88026500D02*
X151789100Y-89761500D01*
X151789100Y-89761500D02*
X153648400Y-91620800D01*
X104775000Y-43180000D02*
X103505000Y-44450000D01*
X103505000Y-44450000D02*
X102029300Y-44450000D01*
X102029300Y-44450000D02*
X97062200Y-49417100D01*
X99695000Y-119380000D02*
X101220300Y-119380000D01*
X101220300Y-119380000D02*
X101393500Y-119206800D01*
X101393500Y-119206800D02*
X115563600Y-119206800D01*
X115563600Y-119206800D02*
X116549300Y-118221100D01*
X116549300Y-118221100D02*
X131047700Y-118221100D01*
X131047700Y-118221100D02*
X132251500Y-117017300D01*
X132251500Y-117017300D02*
X132251500Y-116469600D01*
X101220300Y-121920000D02*
X113769700Y-121920000D01*
X113769700Y-121920000D02*
X117579700Y-125730000D01*
X117579700Y-125730000D02*
X127756400Y-125730000D01*
X127756400Y-125730000D02*
X132556400Y-130530000D01*
X99695000Y-121920000D02*
X101220300Y-121920000D01*
X132528600Y-134620000D02*
X131233800Y-133325200D01*
X131233800Y-133325200D02*
X110085500Y-133325200D01*
X110085500Y-133325200D02*
X101220300Y-124460000D01*
X99695000Y-124460000D02*
X101220300Y-124460000D01*
X107444400Y-142348300D02*
X107444400Y-140898100D01*
X107444400Y-140898100D02*
X107592300Y-140750200D01*
X132739900Y-118095800D02*
X132888500Y-117947200D01*
X132888500Y-117947200D02*
X132888500Y-116208300D01*
X132888500Y-116208300D02*
X127170200Y-110490000D01*
X127170200Y-110490000D02*
X124305200Y-110490000D01*
X124305200Y-110490000D02*
X116793300Y-102978100D01*
X104775000Y-58420000D02*
X109302400Y-58420000D01*
X109302400Y-58420000D02*
X109855500Y-57866900D01*
X132530500Y-132080000D02*
X131399300Y-130948800D01*
X131399300Y-130948800D02*
X113218200Y-130948800D01*
X113218200Y-130948800D02*
X104902000Y-122632600D01*
X104902000Y-122632600D02*
X103117800Y-122632600D01*
X137687200Y-135221600D02*
X134478800Y-138430000D01*
X134478800Y-138430000D02*
X124345900Y-138430000D01*
X124345900Y-138430000D02*
X116348600Y-146427300D01*
X116348600Y-146427300D02*
X116348600Y-147425300D01*
X111574600Y-113417300D02*
X115490100Y-109501800D01*
X115490100Y-109501800D02*
X115490100Y-107611000D01*
X115490100Y-107611000D02*
X115490200Y-107611000D01*
X132570300Y-128467000D02*
X133399600Y-127637700D01*
X133399600Y-127637700D02*
X133399600Y-115525700D01*
X133399600Y-115525700D02*
X125823900Y-107950000D01*
X125823900Y-107950000D02*
X122649600Y-107950000D01*
X122649600Y-107950000D02*
X117052400Y-102352800D01*
X117052400Y-102352800D02*
X113524700Y-102352800D01*
X113524700Y-102352800D02*
X113378900Y-102498600D01*
X111328000Y-105264200D02*
X114035300Y-105264200D01*
X114035300Y-105264200D02*
X124341100Y-115570000D01*
X124341100Y-115570000D02*
X129342900Y-115570000D01*
X129342900Y-115570000D02*
X131078600Y-117305700D01*
X110588200Y-93782800D02*
X110671900Y-93866500D01*
X110671900Y-93866500D02*
X110672000Y-93866500D01*
X110672000Y-93866500D02*
X110672000Y-95847100D01*
X110672000Y-95847100D02*
X111889400Y-97064500D01*
X111889400Y-97064500D02*
X112145700Y-97064500D01*
X112145700Y-97064500D02*
X112872400Y-97791200D01*
X112872400Y-97791200D02*
X112872400Y-100225000D01*
X112165100Y-96409000D02*
X113516200Y-96409000D01*
X113516200Y-96409000D02*
X116175100Y-99067900D01*
M02*
