G04 #@! TF.GenerationSoftware,KiCad,Pcbnew,(5.1.2-1)-1*
G04 #@! TF.CreationDate,2019-06-11T23:27:38+01:00*
G04 #@! TF.ProjectId,A500 FastRAM,41353030-2046-4617-9374-52414d2e6b69,rev?*
G04 #@! TF.SameCoordinates,Original*
G04 #@! TF.FileFunction,Legend,Top*
G04 #@! TF.FilePolarity,Positive*
%FSLAX46Y46*%
G04 Gerber Fmt 4.6, Leading zero omitted, Abs format (unit mm)*
G04 Created by KiCad (PCBNEW (5.1.2-1)-1) date 2019-06-11 23:27:38*
%MOMM*%
%LPD*%
G04 APERTURE LIST*
%ADD10C,0.125000*%
%ADD11C,0.150000*%
%ADD12C,0.120000*%
G04 APERTURE END LIST*
D10*
X168350605Y-105543333D02*
X168731558Y-105543333D01*
X168245843Y-105771904D02*
X168612510Y-104971904D01*
X168779177Y-105771904D01*
X169031558Y-104971904D02*
X169488700Y-104971904D01*
X169160129Y-105771904D02*
X169260129Y-104971904D01*
X169974415Y-105352857D02*
X169707748Y-105352857D01*
X169655367Y-105771904D02*
X169755367Y-104971904D01*
X170136319Y-104971904D01*
X170760129Y-105771904D02*
X170302986Y-105771904D01*
X170531558Y-105771904D02*
X170631558Y-104971904D01*
X170541081Y-105086190D01*
X170455367Y-105162380D01*
X170374415Y-105200476D01*
X171583938Y-104971904D02*
X171202986Y-104971904D01*
X171117272Y-105352857D01*
X171160129Y-105314761D01*
X171241081Y-105276666D01*
X171431558Y-105276666D01*
X171502986Y-105314761D01*
X171536319Y-105352857D01*
X171564891Y-105429047D01*
X171541081Y-105619523D01*
X171493462Y-105695714D01*
X171450605Y-105733809D01*
X171369653Y-105771904D01*
X171179177Y-105771904D01*
X171107748Y-105733809D01*
X171074415Y-105695714D01*
X172117272Y-104971904D02*
X172193462Y-104971904D01*
X172264891Y-105010000D01*
X172298224Y-105048095D01*
X172326796Y-105124285D01*
X172345843Y-105276666D01*
X172322034Y-105467142D01*
X172264891Y-105619523D01*
X172217272Y-105695714D01*
X172174415Y-105733809D01*
X172093462Y-105771904D01*
X172017272Y-105771904D01*
X171945843Y-105733809D01*
X171912510Y-105695714D01*
X171883938Y-105619523D01*
X171864891Y-105467142D01*
X171888700Y-105276666D01*
X171945843Y-105124285D01*
X171993462Y-105048095D01*
X172036319Y-105010000D01*
X172117272Y-104971904D01*
X172679177Y-105048095D02*
X172722034Y-105010000D01*
X172802986Y-104971904D01*
X172993462Y-104971904D01*
X173064891Y-105010000D01*
X173098224Y-105048095D01*
X173126796Y-105124285D01*
X173117272Y-105200476D01*
X173064891Y-105314761D01*
X172550605Y-105771904D01*
X173045843Y-105771904D01*
X173379177Y-105543333D02*
X173760129Y-105543333D01*
X173274415Y-105771904D02*
X173641081Y-104971904D01*
X173807748Y-105771904D01*
X174041081Y-105733809D02*
X174150605Y-105771904D01*
X174341081Y-105771904D01*
X174422034Y-105733809D01*
X174464891Y-105695714D01*
X174512510Y-105619523D01*
X174522034Y-105543333D01*
X174493462Y-105467142D01*
X174460129Y-105429047D01*
X174388700Y-105390952D01*
X174241081Y-105352857D01*
X174169653Y-105314761D01*
X174136319Y-105276666D01*
X174107748Y-105200476D01*
X174117272Y-105124285D01*
X174164891Y-105048095D01*
X174207748Y-105010000D01*
X174288700Y-104971904D01*
X174479177Y-104971904D01*
X174588700Y-105010000D01*
X174822034Y-104971904D02*
X174988700Y-105771904D01*
X175355367Y-104971904D01*
X173249177Y-101326904D02*
X172792034Y-101326904D01*
X173020605Y-101326904D02*
X173120605Y-100526904D01*
X173030129Y-100641190D01*
X172944415Y-100717380D01*
X172863462Y-100755476D01*
D11*
X197572380Y-82357842D02*
X197572380Y-81691175D01*
X198572380Y-82244747D01*
X197905714Y-80923318D02*
X198572380Y-81006651D01*
X197524761Y-81113794D02*
X198239047Y-81441175D01*
X198239047Y-80822127D01*
X198572380Y-80482842D02*
X197572380Y-80357842D01*
X198048571Y-80417366D02*
X198048571Y-79845937D01*
X198572380Y-79911413D02*
X197572380Y-79786413D01*
X198477142Y-78851889D02*
X198524761Y-78905461D01*
X198572380Y-79054270D01*
X198572380Y-79149508D01*
X198524761Y-79286413D01*
X198429523Y-79369747D01*
X198334285Y-79405461D01*
X198143809Y-79429270D01*
X198000952Y-79411413D01*
X197810476Y-79339985D01*
X197715238Y-79280461D01*
X197620000Y-79173318D01*
X197572380Y-79024508D01*
X197572380Y-78929270D01*
X197620000Y-78792366D01*
X197667619Y-78750699D01*
X197572380Y-78453080D02*
X197572380Y-77881651D01*
X198572380Y-78292366D02*
X197572380Y-78167366D01*
X198572380Y-77149508D02*
X198572380Y-77720937D01*
X198572380Y-77435223D02*
X197572380Y-77310223D01*
X197715238Y-77423318D01*
X197810476Y-77530461D01*
X197858095Y-77631651D01*
X197572380Y-76119747D02*
X197572380Y-76595937D01*
X198048571Y-76703080D01*
X198000952Y-76649508D01*
X197953333Y-76548318D01*
X197953333Y-76310223D01*
X198000952Y-76220937D01*
X198048571Y-76179270D01*
X198143809Y-76143556D01*
X198381904Y-76173318D01*
X198477142Y-76232842D01*
X198524761Y-76286413D01*
X198572380Y-76387604D01*
X198572380Y-76625699D01*
X198524761Y-76714985D01*
X198477142Y-76756651D01*
X197572380Y-75738794D02*
X197572380Y-75072127D01*
X198572380Y-75625699D01*
X197572380Y-61402842D02*
X197572380Y-60736175D01*
X198572380Y-61289747D01*
X197905714Y-59968318D02*
X198572380Y-60051651D01*
X197524761Y-60158794D02*
X198239047Y-60486175D01*
X198239047Y-59867127D01*
X198572380Y-59527842D02*
X197572380Y-59402842D01*
X198048571Y-59462366D02*
X198048571Y-58890937D01*
X198572380Y-58956413D02*
X197572380Y-58831413D01*
X198477142Y-57896889D02*
X198524761Y-57950461D01*
X198572380Y-58099270D01*
X198572380Y-58194508D01*
X198524761Y-58331413D01*
X198429523Y-58414747D01*
X198334285Y-58450461D01*
X198143809Y-58474270D01*
X198000952Y-58456413D01*
X197810476Y-58384985D01*
X197715238Y-58325461D01*
X197620000Y-58218318D01*
X197572380Y-58069508D01*
X197572380Y-57974270D01*
X197620000Y-57837366D01*
X197667619Y-57795699D01*
X197572380Y-57498080D02*
X197572380Y-56926651D01*
X198572380Y-57337366D02*
X197572380Y-57212366D01*
X198572380Y-56194508D02*
X198572380Y-56765937D01*
X198572380Y-56480223D02*
X197572380Y-56355223D01*
X197715238Y-56468318D01*
X197810476Y-56575461D01*
X197858095Y-56676651D01*
X197572380Y-55164747D02*
X197572380Y-55640937D01*
X198048571Y-55748080D01*
X198000952Y-55694508D01*
X197953333Y-55593318D01*
X197953333Y-55355223D01*
X198000952Y-55265937D01*
X198048571Y-55224270D01*
X198143809Y-55188556D01*
X198381904Y-55218318D01*
X198477142Y-55277842D01*
X198524761Y-55331413D01*
X198572380Y-55432604D01*
X198572380Y-55670699D01*
X198524761Y-55759985D01*
X198477142Y-55801651D01*
X197572380Y-54783794D02*
X197572380Y-54117127D01*
X198572380Y-54670699D01*
D10*
X197681904Y-42702775D02*
X197681904Y-42245632D01*
X198481904Y-42574203D02*
X197681904Y-42474203D01*
X198481904Y-42078965D02*
X197681904Y-41978965D01*
X197681904Y-41674203D01*
X197720000Y-41602775D01*
X197758095Y-41569441D01*
X197834285Y-41540870D01*
X197948571Y-41555156D01*
X198024761Y-41602775D01*
X198062857Y-41645632D01*
X198100952Y-41726584D01*
X198100952Y-42031346D01*
X198443809Y-41312299D02*
X198481904Y-41202775D01*
X198481904Y-41012299D01*
X198443809Y-40931346D01*
X198405714Y-40888489D01*
X198329523Y-40840870D01*
X198253333Y-40831346D01*
X198177142Y-40859918D01*
X198139047Y-40893251D01*
X198100952Y-40964680D01*
X198062857Y-41112299D01*
X198024761Y-41183727D01*
X197986666Y-41217061D01*
X197910476Y-41245632D01*
X197834285Y-41236108D01*
X197758095Y-41188489D01*
X197720000Y-41145632D01*
X197681904Y-41064680D01*
X197681904Y-40874203D01*
X197720000Y-40764680D01*
X197681904Y-40493251D02*
X197681904Y-39959918D01*
X198481904Y-40402775D01*
X197681904Y-39731346D02*
X197681904Y-39236108D01*
X197986666Y-39540870D01*
X197986666Y-39426584D01*
X198024761Y-39355156D01*
X198062857Y-39321822D01*
X198139047Y-39293251D01*
X198329523Y-39317061D01*
X198405714Y-39364680D01*
X198443809Y-39407537D01*
X198481904Y-39488489D01*
X198481904Y-39717061D01*
X198443809Y-39788489D01*
X198405714Y-39821822D01*
X197681904Y-38969441D02*
X197681904Y-38474203D01*
X197986666Y-38778965D01*
X197986666Y-38664680D01*
X198024761Y-38593251D01*
X198062857Y-38559918D01*
X198139047Y-38531346D01*
X198329523Y-38555156D01*
X198405714Y-38602775D01*
X198443809Y-38645632D01*
X198481904Y-38726584D01*
X198481904Y-38955156D01*
X198443809Y-39026584D01*
X198405714Y-39059918D01*
X197681904Y-38207537D02*
X197681904Y-37712299D01*
X197986666Y-38017061D01*
X197986666Y-37902775D01*
X198024761Y-37831346D01*
X198062857Y-37798013D01*
X198139047Y-37769441D01*
X198329523Y-37793251D01*
X198405714Y-37840870D01*
X198443809Y-37883727D01*
X198481904Y-37964680D01*
X198481904Y-38193251D01*
X198443809Y-38264680D01*
X198405714Y-38298013D01*
X198558095Y-36945632D02*
X198520000Y-37017061D01*
X198443809Y-37083727D01*
X198329523Y-37183727D01*
X198291428Y-37255156D01*
X198291428Y-37331346D01*
X198481904Y-37317061D02*
X198443809Y-37388489D01*
X198367619Y-37455156D01*
X198215238Y-37474203D01*
X197948571Y-37440870D01*
X197796190Y-37383727D01*
X197720000Y-37298013D01*
X197681904Y-37217061D01*
X197681904Y-37064680D01*
X197720000Y-36993251D01*
X197796190Y-36926584D01*
X197948571Y-36907537D01*
X198215238Y-36940870D01*
X198367619Y-36998013D01*
X198443809Y-37083727D01*
X198481904Y-37164680D01*
X198481904Y-37317061D01*
X198481904Y-36631346D02*
X197681904Y-36531346D01*
X197681904Y-36226584D01*
X197720000Y-36155156D01*
X197758095Y-36121822D01*
X197834285Y-36093251D01*
X197948571Y-36107537D01*
X198024761Y-36155156D01*
X198062857Y-36198013D01*
X198100952Y-36278965D01*
X198100952Y-36583727D01*
D11*
X130858571Y-117292380D02*
X130858571Y-116292380D01*
X130858571Y-116768571D02*
X131430000Y-116768571D01*
X131430000Y-117292380D02*
X131430000Y-116292380D01*
X132287142Y-117244761D02*
X132191904Y-117292380D01*
X132001428Y-117292380D01*
X131906190Y-117244761D01*
X131858571Y-117149523D01*
X131858571Y-116768571D01*
X131906190Y-116673333D01*
X132001428Y-116625714D01*
X132191904Y-116625714D01*
X132287142Y-116673333D01*
X132334761Y-116768571D01*
X132334761Y-116863809D01*
X131858571Y-116959047D01*
X132906190Y-117292380D02*
X132810952Y-117244761D01*
X132763333Y-117149523D01*
X132763333Y-116292380D01*
X133430000Y-117292380D02*
X133334761Y-117244761D01*
X133287142Y-117149523D01*
X133287142Y-116292380D01*
X133953809Y-117292380D02*
X133858571Y-117244761D01*
X133810952Y-117197142D01*
X133763333Y-117101904D01*
X133763333Y-116816190D01*
X133810952Y-116720952D01*
X133858571Y-116673333D01*
X133953809Y-116625714D01*
X134096666Y-116625714D01*
X134191904Y-116673333D01*
X134239523Y-116720952D01*
X134287142Y-116816190D01*
X134287142Y-117101904D01*
X134239523Y-117197142D01*
X134191904Y-117244761D01*
X134096666Y-117292380D01*
X133953809Y-117292380D01*
X136049047Y-117197142D02*
X136001428Y-117244761D01*
X135858571Y-117292380D01*
X135763333Y-117292380D01*
X135620476Y-117244761D01*
X135525238Y-117149523D01*
X135477619Y-117054285D01*
X135430000Y-116863809D01*
X135430000Y-116720952D01*
X135477619Y-116530476D01*
X135525238Y-116435238D01*
X135620476Y-116340000D01*
X135763333Y-116292380D01*
X135858571Y-116292380D01*
X136001428Y-116340000D01*
X136049047Y-116387619D01*
X136906190Y-117292380D02*
X136906190Y-116768571D01*
X136858571Y-116673333D01*
X136763333Y-116625714D01*
X136572857Y-116625714D01*
X136477619Y-116673333D01*
X136906190Y-117244761D02*
X136810952Y-117292380D01*
X136572857Y-117292380D01*
X136477619Y-117244761D01*
X136430000Y-117149523D01*
X136430000Y-117054285D01*
X136477619Y-116959047D01*
X136572857Y-116911428D01*
X136810952Y-116911428D01*
X136906190Y-116863809D01*
X137287142Y-116625714D02*
X137525238Y-117292380D01*
X137763333Y-116625714D01*
X138525238Y-117244761D02*
X138430000Y-117292380D01*
X138239523Y-117292380D01*
X138144285Y-117244761D01*
X138096666Y-117149523D01*
X138096666Y-116768571D01*
X138144285Y-116673333D01*
X138239523Y-116625714D01*
X138430000Y-116625714D01*
X138525238Y-116673333D01*
X138572857Y-116768571D01*
X138572857Y-116863809D01*
X138096666Y-116959047D01*
X139763333Y-117292380D02*
X139763333Y-116292380D01*
X140001428Y-116292380D01*
X140144285Y-116340000D01*
X140239523Y-116435238D01*
X140287142Y-116530476D01*
X140334761Y-116720952D01*
X140334761Y-116863809D01*
X140287142Y-117054285D01*
X140239523Y-117149523D01*
X140144285Y-117244761D01*
X140001428Y-117292380D01*
X139763333Y-117292380D01*
X140668095Y-116625714D02*
X140858571Y-117292380D01*
X141049047Y-116816190D01*
X141239523Y-117292380D01*
X141430000Y-116625714D01*
X142191904Y-117244761D02*
X142096666Y-117292380D01*
X141906190Y-117292380D01*
X141810952Y-117244761D01*
X141763333Y-117149523D01*
X141763333Y-116768571D01*
X141810952Y-116673333D01*
X141906190Y-116625714D01*
X142096666Y-116625714D01*
X142191904Y-116673333D01*
X142239523Y-116768571D01*
X142239523Y-116863809D01*
X141763333Y-116959047D01*
X142810952Y-117292380D02*
X142715714Y-117244761D01*
X142668095Y-117149523D01*
X142668095Y-116292380D01*
X143334761Y-117292380D02*
X143239523Y-117244761D01*
X143191904Y-117149523D01*
X143191904Y-116292380D01*
X144096666Y-117244761D02*
X144001428Y-117292380D01*
X143810952Y-117292380D01*
X143715714Y-117244761D01*
X143668095Y-117149523D01*
X143668095Y-116768571D01*
X143715714Y-116673333D01*
X143810952Y-116625714D01*
X144001428Y-116625714D01*
X144096666Y-116673333D01*
X144144285Y-116768571D01*
X144144285Y-116863809D01*
X143668095Y-116959047D01*
X144572857Y-117292380D02*
X144572857Y-116625714D01*
X144572857Y-116816190D02*
X144620476Y-116720952D01*
X144668095Y-116673333D01*
X144763333Y-116625714D01*
X144858571Y-116625714D01*
X145144285Y-117244761D02*
X145239523Y-117292380D01*
X145430000Y-117292380D01*
X145525238Y-117244761D01*
X145572857Y-117149523D01*
X145572857Y-117101904D01*
X145525238Y-117006666D01*
X145430000Y-116959047D01*
X145287142Y-116959047D01*
X145191904Y-116911428D01*
X145144285Y-116816190D01*
X145144285Y-116768571D01*
X145191904Y-116673333D01*
X145287142Y-116625714D01*
X145430000Y-116625714D01*
X145525238Y-116673333D01*
X146001428Y-117197142D02*
X146049047Y-117244761D01*
X146001428Y-117292380D01*
X145953809Y-117244761D01*
X146001428Y-117197142D01*
X146001428Y-117292380D01*
X146001428Y-116911428D02*
X145953809Y-116340000D01*
X146001428Y-116292380D01*
X146049047Y-116340000D01*
X146001428Y-116911428D01*
X146001428Y-116292380D01*
X204922380Y-115675461D02*
X203922380Y-115550461D01*
X203922380Y-115169508D01*
X203970000Y-115080223D01*
X204017619Y-115038556D01*
X204112857Y-115002842D01*
X204255714Y-115020699D01*
X204350952Y-115080223D01*
X204398571Y-115133794D01*
X204446190Y-115234985D01*
X204446190Y-115615937D01*
X204255714Y-114163556D02*
X204922380Y-114246889D01*
X204255714Y-114592127D02*
X204779523Y-114657604D01*
X204874761Y-114621889D01*
X204922380Y-114532604D01*
X204922380Y-114389747D01*
X204874761Y-114288556D01*
X204827142Y-114234985D01*
X204922380Y-113770699D02*
X203922380Y-113645699D01*
X204303333Y-113693318D02*
X204255714Y-113592127D01*
X204255714Y-113401651D01*
X204303333Y-113312366D01*
X204350952Y-113270699D01*
X204446190Y-113234985D01*
X204731904Y-113270699D01*
X204827142Y-113330223D01*
X204874761Y-113383794D01*
X204922380Y-113484985D01*
X204922380Y-113675461D01*
X204874761Y-113764747D01*
X204922380Y-112723080D02*
X204874761Y-112812366D01*
X204779523Y-112848080D01*
X203922380Y-112740937D01*
X204922380Y-112342127D02*
X204255714Y-112258794D01*
X203922380Y-112217127D02*
X203970000Y-112270699D01*
X204017619Y-112229032D01*
X203970000Y-112175461D01*
X203922380Y-112217127D01*
X204017619Y-112229032D01*
X204874761Y-111907604D02*
X204922380Y-111818318D01*
X204922380Y-111627842D01*
X204874761Y-111526651D01*
X204779523Y-111467127D01*
X204731904Y-111461175D01*
X204636666Y-111496889D01*
X204589047Y-111586175D01*
X204589047Y-111729032D01*
X204541428Y-111818318D01*
X204446190Y-111854032D01*
X204398571Y-111848080D01*
X204303333Y-111788556D01*
X204255714Y-111687366D01*
X204255714Y-111544508D01*
X204303333Y-111455223D01*
X204922380Y-111056413D02*
X203922380Y-110931413D01*
X204922380Y-110627842D02*
X204398571Y-110562366D01*
X204303333Y-110598080D01*
X204255714Y-110687366D01*
X204255714Y-110830223D01*
X204303333Y-110931413D01*
X204350952Y-110984985D01*
X204874761Y-109764747D02*
X204922380Y-109865937D01*
X204922380Y-110056413D01*
X204874761Y-110145699D01*
X204779523Y-110181413D01*
X204398571Y-110133794D01*
X204303333Y-110074270D01*
X204255714Y-109973080D01*
X204255714Y-109782604D01*
X204303333Y-109693318D01*
X204398571Y-109657604D01*
X204493809Y-109669508D01*
X204589047Y-110157604D01*
X204922380Y-108865937D02*
X203922380Y-108740937D01*
X204874761Y-108859985D02*
X204922380Y-108961175D01*
X204922380Y-109151651D01*
X204874761Y-109240937D01*
X204827142Y-109282604D01*
X204731904Y-109318318D01*
X204446190Y-109282604D01*
X204350952Y-109223080D01*
X204303333Y-109169508D01*
X204255714Y-109068318D01*
X204255714Y-108877842D01*
X204303333Y-108788556D01*
X204255714Y-107115937D02*
X204922380Y-107199270D01*
X204255714Y-107544508D02*
X204779523Y-107609985D01*
X204874761Y-107574270D01*
X204922380Y-107484985D01*
X204922380Y-107342127D01*
X204874761Y-107240937D01*
X204827142Y-107187366D01*
X204255714Y-106639747D02*
X204922380Y-106723080D01*
X204350952Y-106651651D02*
X204303333Y-106598080D01*
X204255714Y-106496889D01*
X204255714Y-106354032D01*
X204303333Y-106264747D01*
X204398571Y-106229032D01*
X204922380Y-106294508D01*
X204922380Y-105389747D02*
X203922380Y-105264747D01*
X204874761Y-105383794D02*
X204922380Y-105484985D01*
X204922380Y-105675461D01*
X204874761Y-105764747D01*
X204827142Y-105806413D01*
X204731904Y-105842127D01*
X204446190Y-105806413D01*
X204350952Y-105746889D01*
X204303333Y-105693318D01*
X204255714Y-105592127D01*
X204255714Y-105401651D01*
X204303333Y-105312366D01*
X204874761Y-104526651D02*
X204922380Y-104627842D01*
X204922380Y-104818318D01*
X204874761Y-104907604D01*
X204779523Y-104943318D01*
X204398571Y-104895699D01*
X204303333Y-104836175D01*
X204255714Y-104734985D01*
X204255714Y-104544508D01*
X204303333Y-104455223D01*
X204398571Y-104419508D01*
X204493809Y-104431413D01*
X204589047Y-104919508D01*
X204922380Y-104056413D02*
X204255714Y-103973080D01*
X204446190Y-103996889D02*
X204350952Y-103937366D01*
X204303333Y-103883794D01*
X204255714Y-103782604D01*
X204255714Y-103687366D01*
X204255714Y-102734985D02*
X204255714Y-102354032D01*
X203922380Y-102550461D02*
X204779523Y-102657604D01*
X204874761Y-102621889D01*
X204922380Y-102532604D01*
X204922380Y-102437366D01*
X204922380Y-102104032D02*
X203922380Y-101979032D01*
X204922380Y-101675461D02*
X204398571Y-101609985D01*
X204303333Y-101645699D01*
X204255714Y-101734985D01*
X204255714Y-101877842D01*
X204303333Y-101979032D01*
X204350952Y-102032604D01*
X204874761Y-100812366D02*
X204922380Y-100913556D01*
X204922380Y-101104032D01*
X204874761Y-101193318D01*
X204779523Y-101229032D01*
X204398571Y-101181413D01*
X204303333Y-101121889D01*
X204255714Y-101020699D01*
X204255714Y-100830223D01*
X204303333Y-100740937D01*
X204398571Y-100705223D01*
X204493809Y-100717127D01*
X204589047Y-101205223D01*
X203970000Y-98937366D02*
X203922380Y-99026651D01*
X203922380Y-99169508D01*
X203970000Y-99318318D01*
X204065238Y-99425461D01*
X204160476Y-99484985D01*
X204350952Y-99556413D01*
X204493809Y-99574270D01*
X204684285Y-99550461D01*
X204779523Y-99514747D01*
X204874761Y-99431413D01*
X204922380Y-99294508D01*
X204922380Y-99199270D01*
X204874761Y-99050461D01*
X204827142Y-98996889D01*
X204493809Y-98955223D01*
X204493809Y-99145699D01*
X204922380Y-98580223D02*
X203922380Y-98455223D01*
X204922380Y-98008794D01*
X203922380Y-97883794D01*
X203922380Y-97407604D02*
X204731904Y-97508794D01*
X204827142Y-97473080D01*
X204874761Y-97431413D01*
X204922380Y-97342127D01*
X204922380Y-97151651D01*
X204874761Y-97050461D01*
X204827142Y-96996889D01*
X204731904Y-96937366D01*
X203922380Y-96836175D01*
X203970000Y-95080223D02*
X203922380Y-95169508D01*
X203922380Y-95312366D01*
X203970000Y-95461175D01*
X204065238Y-95568318D01*
X204160476Y-95627842D01*
X204350952Y-95699270D01*
X204493809Y-95717127D01*
X204684285Y-95693318D01*
X204779523Y-95657604D01*
X204874761Y-95574270D01*
X204922380Y-95437366D01*
X204922380Y-95342127D01*
X204874761Y-95193318D01*
X204827142Y-95139747D01*
X204493809Y-95098080D01*
X204493809Y-95288556D01*
X204874761Y-94336175D02*
X204922380Y-94437366D01*
X204922380Y-94627842D01*
X204874761Y-94717127D01*
X204779523Y-94752842D01*
X204398571Y-94705223D01*
X204303333Y-94645699D01*
X204255714Y-94544508D01*
X204255714Y-94354032D01*
X204303333Y-94264747D01*
X204398571Y-94229032D01*
X204493809Y-94240937D01*
X204589047Y-94729032D01*
X204255714Y-93782604D02*
X204922380Y-93865937D01*
X204350952Y-93794508D02*
X204303333Y-93740937D01*
X204255714Y-93639747D01*
X204255714Y-93496889D01*
X204303333Y-93407604D01*
X204398571Y-93371889D01*
X204922380Y-93437366D01*
X204874761Y-92574270D02*
X204922380Y-92675461D01*
X204922380Y-92865937D01*
X204874761Y-92955223D01*
X204779523Y-92990937D01*
X204398571Y-92943318D01*
X204303333Y-92883794D01*
X204255714Y-92782604D01*
X204255714Y-92592127D01*
X204303333Y-92502842D01*
X204398571Y-92467127D01*
X204493809Y-92479032D01*
X204589047Y-92967127D01*
X204922380Y-92104032D02*
X204255714Y-92020699D01*
X204446190Y-92044508D02*
X204350952Y-91984985D01*
X204303333Y-91931413D01*
X204255714Y-91830223D01*
X204255714Y-91734985D01*
X204922380Y-91056413D02*
X204398571Y-90990937D01*
X204303333Y-91026651D01*
X204255714Y-91115937D01*
X204255714Y-91306413D01*
X204303333Y-91407604D01*
X204874761Y-91050461D02*
X204922380Y-91151651D01*
X204922380Y-91389747D01*
X204874761Y-91479032D01*
X204779523Y-91514747D01*
X204684285Y-91502842D01*
X204589047Y-91443318D01*
X204541428Y-91342127D01*
X204541428Y-91104032D01*
X204493809Y-91002842D01*
X204922380Y-90437366D02*
X204874761Y-90526651D01*
X204779523Y-90562366D01*
X203922380Y-90455223D01*
X204922380Y-89294508D02*
X203922380Y-89169508D01*
X203922380Y-88788556D01*
X203970000Y-88699270D01*
X204017619Y-88657604D01*
X204112857Y-88621889D01*
X204255714Y-88639747D01*
X204350952Y-88699270D01*
X204398571Y-88752842D01*
X204446190Y-88854032D01*
X204446190Y-89234985D01*
X204255714Y-87782604D02*
X204922380Y-87865937D01*
X204255714Y-88211175D02*
X204779523Y-88276651D01*
X204874761Y-88240937D01*
X204922380Y-88151651D01*
X204922380Y-88008794D01*
X204874761Y-87907604D01*
X204827142Y-87854032D01*
X204922380Y-87389747D02*
X203922380Y-87264747D01*
X204303333Y-87312366D02*
X204255714Y-87211175D01*
X204255714Y-87020699D01*
X204303333Y-86931413D01*
X204350952Y-86889747D01*
X204446190Y-86854032D01*
X204731904Y-86889747D01*
X204827142Y-86949270D01*
X204874761Y-87002842D01*
X204922380Y-87104032D01*
X204922380Y-87294508D01*
X204874761Y-87383794D01*
X204922380Y-86342127D02*
X204874761Y-86431413D01*
X204779523Y-86467127D01*
X203922380Y-86359985D01*
X204922380Y-85961175D02*
X204255714Y-85877842D01*
X203922380Y-85836175D02*
X203970000Y-85889747D01*
X204017619Y-85848080D01*
X203970000Y-85794508D01*
X203922380Y-85836175D01*
X204017619Y-85848080D01*
X204874761Y-85050461D02*
X204922380Y-85151651D01*
X204922380Y-85342127D01*
X204874761Y-85431413D01*
X204827142Y-85473080D01*
X204731904Y-85508794D01*
X204446190Y-85473080D01*
X204350952Y-85413556D01*
X204303333Y-85359985D01*
X204255714Y-85258794D01*
X204255714Y-85068318D01*
X204303333Y-84979032D01*
X204922380Y-83389747D02*
X204922380Y-83865937D01*
X203922380Y-83740937D01*
X204922380Y-83056413D02*
X204255714Y-82973080D01*
X203922380Y-82931413D02*
X203970000Y-82984985D01*
X204017619Y-82943318D01*
X203970000Y-82889747D01*
X203922380Y-82931413D01*
X204017619Y-82943318D01*
X204874761Y-82145699D02*
X204922380Y-82246889D01*
X204922380Y-82437366D01*
X204874761Y-82526651D01*
X204827142Y-82568318D01*
X204731904Y-82604032D01*
X204446190Y-82568318D01*
X204350952Y-82508794D01*
X204303333Y-82455223D01*
X204255714Y-82354032D01*
X204255714Y-82163556D01*
X204303333Y-82074270D01*
X204874761Y-81336175D02*
X204922380Y-81437366D01*
X204922380Y-81627842D01*
X204874761Y-81717127D01*
X204779523Y-81752842D01*
X204398571Y-81705223D01*
X204303333Y-81645699D01*
X204255714Y-81544508D01*
X204255714Y-81354032D01*
X204303333Y-81264747D01*
X204398571Y-81229032D01*
X204493809Y-81240937D01*
X204589047Y-81729032D01*
X204255714Y-80782604D02*
X204922380Y-80865937D01*
X204350952Y-80794508D02*
X204303333Y-80740937D01*
X204255714Y-80639747D01*
X204255714Y-80496889D01*
X204303333Y-80407604D01*
X204398571Y-80371889D01*
X204922380Y-80437366D01*
X204874761Y-80002842D02*
X204922380Y-79913556D01*
X204922380Y-79723080D01*
X204874761Y-79621889D01*
X204779523Y-79562366D01*
X204731904Y-79556413D01*
X204636666Y-79592127D01*
X204589047Y-79681413D01*
X204589047Y-79824270D01*
X204541428Y-79913556D01*
X204446190Y-79949270D01*
X204398571Y-79943318D01*
X204303333Y-79883794D01*
X204255714Y-79782604D01*
X204255714Y-79639747D01*
X204303333Y-79550461D01*
X204874761Y-78764747D02*
X204922380Y-78865937D01*
X204922380Y-79056413D01*
X204874761Y-79145699D01*
X204779523Y-79181413D01*
X204398571Y-79133794D01*
X204303333Y-79074270D01*
X204255714Y-78973080D01*
X204255714Y-78782604D01*
X204303333Y-78693318D01*
X204398571Y-78657604D01*
X204493809Y-78669508D01*
X204589047Y-79157604D01*
X204255714Y-77544508D02*
X204922380Y-77389747D01*
X204255714Y-77068318D01*
X204017619Y-76705223D02*
X203970000Y-76651651D01*
X203922380Y-76550461D01*
X203922380Y-76312366D01*
X203970000Y-76223080D01*
X204017619Y-76181413D01*
X204112857Y-76145699D01*
X204208095Y-76157604D01*
X204350952Y-76223080D01*
X204922380Y-76865937D01*
X204922380Y-76246889D01*
X148411681Y-33218333D02*
X148370014Y-33170714D01*
X148292633Y-33027857D01*
X148256919Y-32932619D01*
X148227157Y-32789761D01*
X148209300Y-32551666D01*
X148233110Y-32361190D01*
X148310491Y-32123095D01*
X148375967Y-31980238D01*
X148435491Y-31885000D01*
X148548586Y-31742142D01*
X148602157Y-31694523D01*
X149423586Y-32742142D02*
X149370014Y-32789761D01*
X149221205Y-32837380D01*
X149125967Y-32837380D01*
X148989062Y-32789761D01*
X148905729Y-32694523D01*
X148870014Y-32599285D01*
X148846205Y-32408809D01*
X148864062Y-32265952D01*
X148935491Y-32075476D01*
X148995014Y-31980238D01*
X149102157Y-31885000D01*
X149250967Y-31837380D01*
X149346205Y-31837380D01*
X149483110Y-31885000D01*
X149524776Y-31932619D01*
X149697395Y-33218333D02*
X149750967Y-33170714D01*
X149864062Y-33027857D01*
X149923586Y-32932619D01*
X149989062Y-32789761D01*
X150066443Y-32551666D01*
X150090252Y-32361190D01*
X150072395Y-32123095D01*
X150042633Y-31980238D01*
X150006919Y-31885000D01*
X149929538Y-31742142D01*
X149887872Y-31694523D01*
X151334300Y-31932619D02*
X151387872Y-31885000D01*
X151489062Y-31837380D01*
X151727157Y-31837380D01*
X151816443Y-31885000D01*
X151858110Y-31932619D01*
X151893824Y-32027857D01*
X151881919Y-32123095D01*
X151816443Y-32265952D01*
X151173586Y-32837380D01*
X151792633Y-32837380D01*
X152536681Y-31837380D02*
X152631919Y-31837380D01*
X152721205Y-31885000D01*
X152762872Y-31932619D01*
X152798586Y-32027857D01*
X152822395Y-32218333D01*
X152792633Y-32456428D01*
X152721205Y-32646904D01*
X152661681Y-32742142D01*
X152608110Y-32789761D01*
X152506919Y-32837380D01*
X152411681Y-32837380D01*
X152322395Y-32789761D01*
X152280729Y-32742142D01*
X152245014Y-32646904D01*
X152221205Y-32456428D01*
X152250967Y-32218333D01*
X152322395Y-32027857D01*
X152381919Y-31932619D01*
X152435491Y-31885000D01*
X152536681Y-31837380D01*
X153697395Y-32837380D02*
X153125967Y-32837380D01*
X153411681Y-32837380D02*
X153536681Y-31837380D01*
X153423586Y-31980238D01*
X153316443Y-32075476D01*
X153215252Y-32123095D01*
X154173586Y-32837380D02*
X154364062Y-32837380D01*
X154465252Y-32789761D01*
X154518824Y-32742142D01*
X154631919Y-32599285D01*
X154703348Y-32408809D01*
X154750967Y-32027857D01*
X154715252Y-31932619D01*
X154673586Y-31885000D01*
X154584300Y-31837380D01*
X154393824Y-31837380D01*
X154292633Y-31885000D01*
X154239062Y-31932619D01*
X154179538Y-32027857D01*
X154149776Y-32265952D01*
X154185491Y-32361190D01*
X154227157Y-32408809D01*
X154316443Y-32456428D01*
X154506919Y-32456428D01*
X154608110Y-32408809D01*
X154661681Y-32361190D01*
X154721205Y-32265952D01*
X155840252Y-32837380D02*
X155965252Y-31837380D01*
X156411681Y-32837380D02*
X156054538Y-32265952D01*
X156536681Y-31837380D02*
X155893824Y-32408809D01*
X157268824Y-32837380D02*
X157334300Y-32313571D01*
X157298586Y-32218333D01*
X157209300Y-32170714D01*
X157018824Y-32170714D01*
X156917633Y-32218333D01*
X157274776Y-32789761D02*
X157173586Y-32837380D01*
X156935491Y-32837380D01*
X156846205Y-32789761D01*
X156810491Y-32694523D01*
X156822395Y-32599285D01*
X156881919Y-32504047D01*
X156983110Y-32456428D01*
X157221205Y-32456428D01*
X157322395Y-32408809D01*
X157745014Y-32837380D02*
X157828348Y-32170714D01*
X157870014Y-31837380D02*
X157816443Y-31885000D01*
X157858110Y-31932619D01*
X157911681Y-31885000D01*
X157870014Y-31837380D01*
X157858110Y-31932619D01*
X159554538Y-32837380D02*
X159280729Y-32361190D01*
X158983110Y-32837380D02*
X159108110Y-31837380D01*
X159489062Y-31837380D01*
X159578348Y-31885000D01*
X159620014Y-31932619D01*
X159655729Y-32027857D01*
X159637872Y-32170714D01*
X159578348Y-32265952D01*
X159524776Y-32313571D01*
X159423586Y-32361190D01*
X159042633Y-32361190D01*
X160125967Y-32837380D02*
X160036681Y-32789761D01*
X159995014Y-32742142D01*
X159959300Y-32646904D01*
X159995014Y-32361190D01*
X160054538Y-32265952D01*
X160108110Y-32218333D01*
X160209300Y-32170714D01*
X160352157Y-32170714D01*
X160441443Y-32218333D01*
X160483110Y-32265952D01*
X160518824Y-32361190D01*
X160483110Y-32646904D01*
X160423586Y-32742142D01*
X160370014Y-32789761D01*
X160268824Y-32837380D01*
X160125967Y-32837380D01*
X160887872Y-32837380D02*
X161012872Y-31837380D01*
X160965252Y-32218333D02*
X161066443Y-32170714D01*
X161256919Y-32170714D01*
X161346205Y-32218333D01*
X161387872Y-32265952D01*
X161423586Y-32361190D01*
X161387872Y-32646904D01*
X161328348Y-32742142D01*
X161274776Y-32789761D01*
X161173586Y-32837380D01*
X160983110Y-32837380D01*
X160893824Y-32789761D01*
X161792633Y-32837380D02*
X161875967Y-32170714D01*
X161917633Y-31837380D02*
X161864062Y-31885000D01*
X161905729Y-31932619D01*
X161959300Y-31885000D01*
X161917633Y-31837380D01*
X161905729Y-31932619D01*
X162352157Y-32170714D02*
X162268824Y-32837380D01*
X162340252Y-32265952D02*
X162393824Y-32218333D01*
X162495014Y-32170714D01*
X162637872Y-32170714D01*
X162727157Y-32218333D01*
X162762872Y-32313571D01*
X162697395Y-32837380D01*
X163131919Y-32789761D02*
X163221205Y-32837380D01*
X163411681Y-32837380D01*
X163512872Y-32789761D01*
X163572395Y-32694523D01*
X163578348Y-32646904D01*
X163542633Y-32551666D01*
X163453348Y-32504047D01*
X163310491Y-32504047D01*
X163221205Y-32456428D01*
X163185491Y-32361190D01*
X163191443Y-32313571D01*
X163250967Y-32218333D01*
X163352157Y-32170714D01*
X163495014Y-32170714D01*
X163584300Y-32218333D01*
X164125967Y-32837380D02*
X164036681Y-32789761D01*
X163995014Y-32742142D01*
X163959300Y-32646904D01*
X163995014Y-32361190D01*
X164054538Y-32265952D01*
X164108110Y-32218333D01*
X164209300Y-32170714D01*
X164352157Y-32170714D01*
X164441443Y-32218333D01*
X164483110Y-32265952D01*
X164518824Y-32361190D01*
X164483110Y-32646904D01*
X164423586Y-32742142D01*
X164370014Y-32789761D01*
X164268824Y-32837380D01*
X164125967Y-32837380D01*
X164971205Y-32170714D02*
X164887872Y-32837380D01*
X164959300Y-32265952D02*
X165012872Y-32218333D01*
X165114062Y-32170714D01*
X165256919Y-32170714D01*
X165346205Y-32218333D01*
X165381919Y-32313571D01*
X165316443Y-32837380D01*
X121595252Y-32551666D02*
X122071443Y-32551666D01*
X121464300Y-32837380D02*
X121922633Y-31837380D01*
X122130967Y-32837380D01*
X123065491Y-31837380D02*
X122589300Y-31837380D01*
X122482157Y-32313571D01*
X122535729Y-32265952D01*
X122636919Y-32218333D01*
X122875014Y-32218333D01*
X122964300Y-32265952D01*
X123005967Y-32313571D01*
X123041681Y-32408809D01*
X123011919Y-32646904D01*
X122952395Y-32742142D01*
X122898824Y-32789761D01*
X122797633Y-32837380D01*
X122559538Y-32837380D01*
X122470252Y-32789761D01*
X122428586Y-32742142D01*
X123732157Y-31837380D02*
X123827395Y-31837380D01*
X123916681Y-31885000D01*
X123958348Y-31932619D01*
X123994062Y-32027857D01*
X124017872Y-32218333D01*
X123988110Y-32456428D01*
X123916681Y-32646904D01*
X123857157Y-32742142D01*
X123803586Y-32789761D01*
X123702395Y-32837380D01*
X123607157Y-32837380D01*
X123517872Y-32789761D01*
X123476205Y-32742142D01*
X123440491Y-32646904D01*
X123416681Y-32456428D01*
X123446443Y-32218333D01*
X123517872Y-32027857D01*
X123577395Y-31932619D01*
X123630967Y-31885000D01*
X123732157Y-31837380D01*
X124684538Y-31837380D02*
X124779776Y-31837380D01*
X124869062Y-31885000D01*
X124910729Y-31932619D01*
X124946443Y-32027857D01*
X124970252Y-32218333D01*
X124940491Y-32456428D01*
X124869062Y-32646904D01*
X124809538Y-32742142D01*
X124755967Y-32789761D01*
X124654776Y-32837380D01*
X124559538Y-32837380D01*
X124470252Y-32789761D01*
X124428586Y-32742142D01*
X124392872Y-32646904D01*
X124369062Y-32456428D01*
X124398824Y-32218333D01*
X124470252Y-32027857D01*
X124529776Y-31932619D01*
X124583348Y-31885000D01*
X124684538Y-31837380D01*
X126297633Y-32265952D02*
X126208348Y-32218333D01*
X126166681Y-32170714D01*
X126130967Y-32075476D01*
X126136919Y-32027857D01*
X126196443Y-31932619D01*
X126250014Y-31885000D01*
X126351205Y-31837380D01*
X126541681Y-31837380D01*
X126630967Y-31885000D01*
X126672633Y-31932619D01*
X126708348Y-32027857D01*
X126702395Y-32075476D01*
X126642872Y-32170714D01*
X126589300Y-32218333D01*
X126488110Y-32265952D01*
X126297633Y-32265952D01*
X126196443Y-32313571D01*
X126142872Y-32361190D01*
X126083348Y-32456428D01*
X126059538Y-32646904D01*
X126095252Y-32742142D01*
X126136919Y-32789761D01*
X126226205Y-32837380D01*
X126416681Y-32837380D01*
X126517872Y-32789761D01*
X126571443Y-32742142D01*
X126630967Y-32646904D01*
X126654776Y-32456428D01*
X126619062Y-32361190D01*
X126577395Y-32313571D01*
X126488110Y-32265952D01*
X127035729Y-32837380D02*
X127160729Y-31837380D01*
X127404776Y-32551666D01*
X127827395Y-31837380D01*
X127702395Y-32837380D01*
X128577395Y-32313571D02*
X128714300Y-32361190D01*
X128755967Y-32408809D01*
X128791681Y-32504047D01*
X128773824Y-32646904D01*
X128714300Y-32742142D01*
X128660729Y-32789761D01*
X128559538Y-32837380D01*
X128178586Y-32837380D01*
X128303586Y-31837380D01*
X128636919Y-31837380D01*
X128726205Y-31885000D01*
X128767872Y-31932619D01*
X128803586Y-32027857D01*
X128791681Y-32123095D01*
X128732157Y-32218333D01*
X128678586Y-32265952D01*
X128577395Y-32313571D01*
X128244062Y-32313571D01*
X130339300Y-32313571D02*
X130005967Y-32313571D01*
X129940491Y-32837380D02*
X130065491Y-31837380D01*
X130541681Y-31837380D01*
X130785729Y-32551666D02*
X131261919Y-32551666D01*
X130654776Y-32837380D02*
X131113110Y-31837380D01*
X131321443Y-32837380D01*
X131613110Y-32789761D02*
X131750014Y-32837380D01*
X131988110Y-32837380D01*
X132089300Y-32789761D01*
X132142872Y-32742142D01*
X132202395Y-32646904D01*
X132214300Y-32551666D01*
X132178586Y-32456428D01*
X132136919Y-32408809D01*
X132047633Y-32361190D01*
X131863110Y-32313571D01*
X131773824Y-32265952D01*
X131732157Y-32218333D01*
X131696443Y-32123095D01*
X131708348Y-32027857D01*
X131767872Y-31932619D01*
X131821443Y-31885000D01*
X131922633Y-31837380D01*
X132160729Y-31837380D01*
X132297633Y-31885000D01*
X132589300Y-31837380D02*
X133160729Y-31837380D01*
X132750014Y-32837380D02*
X132875014Y-31837380D01*
X133940491Y-32837380D02*
X133666681Y-32361190D01*
X133369062Y-32837380D02*
X133494062Y-31837380D01*
X133875014Y-31837380D01*
X133964300Y-31885000D01*
X134005967Y-31932619D01*
X134041681Y-32027857D01*
X134023824Y-32170714D01*
X133964300Y-32265952D01*
X133910729Y-32313571D01*
X133809538Y-32361190D01*
X133428586Y-32361190D01*
X134357157Y-32551666D02*
X134833348Y-32551666D01*
X134226205Y-32837380D02*
X134684538Y-31837380D01*
X134892872Y-32837380D01*
X135226205Y-32837380D02*
X135351205Y-31837380D01*
X135595252Y-32551666D01*
X136017872Y-31837380D01*
X135892872Y-32837380D01*
X137529776Y-32313571D02*
X137666681Y-32361190D01*
X137708348Y-32408809D01*
X137744062Y-32504047D01*
X137726205Y-32646904D01*
X137666681Y-32742142D01*
X137613110Y-32789761D01*
X137511919Y-32837380D01*
X137130967Y-32837380D01*
X137255967Y-31837380D01*
X137589300Y-31837380D01*
X137678586Y-31885000D01*
X137720252Y-31932619D01*
X137755967Y-32027857D01*
X137744062Y-32123095D01*
X137684538Y-32218333D01*
X137630967Y-32265952D01*
X137529776Y-32313571D01*
X137196443Y-32313571D01*
X138273824Y-32837380D02*
X138184538Y-32789761D01*
X138142872Y-32742142D01*
X138107157Y-32646904D01*
X138142872Y-32361190D01*
X138202395Y-32265952D01*
X138255967Y-32218333D01*
X138357157Y-32170714D01*
X138500014Y-32170714D01*
X138589300Y-32218333D01*
X138630967Y-32265952D01*
X138666681Y-32361190D01*
X138630967Y-32646904D01*
X138571443Y-32742142D01*
X138517872Y-32789761D01*
X138416681Y-32837380D01*
X138273824Y-32837380D01*
X139464300Y-32837380D02*
X139529776Y-32313571D01*
X139494062Y-32218333D01*
X139404776Y-32170714D01*
X139214300Y-32170714D01*
X139113110Y-32218333D01*
X139470252Y-32789761D02*
X139369062Y-32837380D01*
X139130967Y-32837380D01*
X139041681Y-32789761D01*
X139005967Y-32694523D01*
X139017872Y-32599285D01*
X139077395Y-32504047D01*
X139178586Y-32456428D01*
X139416681Y-32456428D01*
X139517872Y-32408809D01*
X139940491Y-32837380D02*
X140023824Y-32170714D01*
X140000014Y-32361190D02*
X140059538Y-32265952D01*
X140113110Y-32218333D01*
X140214300Y-32170714D01*
X140309538Y-32170714D01*
X140988110Y-32837380D02*
X141113110Y-31837380D01*
X140994062Y-32789761D02*
X140892872Y-32837380D01*
X140702395Y-32837380D01*
X140613110Y-32789761D01*
X140571443Y-32742142D01*
X140535729Y-32646904D01*
X140571443Y-32361190D01*
X140630967Y-32265952D01*
X140684538Y-32218333D01*
X140785729Y-32170714D01*
X140976205Y-32170714D01*
X141065491Y-32218333D01*
X142214300Y-32170714D02*
X142369062Y-32837380D01*
X142690491Y-32170714D01*
X143511919Y-32837380D02*
X142940491Y-32837380D01*
X143226205Y-32837380D02*
X143351205Y-31837380D01*
X143238110Y-31980238D01*
X143130967Y-32075476D01*
X143029776Y-32123095D01*
X143952395Y-32742142D02*
X143994062Y-32789761D01*
X143940491Y-32837380D01*
X143898824Y-32789761D01*
X143952395Y-32742142D01*
X143940491Y-32837380D01*
X144482157Y-31932619D02*
X144535729Y-31885000D01*
X144636919Y-31837380D01*
X144875014Y-31837380D01*
X144964300Y-31885000D01*
X145005967Y-31932619D01*
X145041681Y-32027857D01*
X145029776Y-32123095D01*
X144964300Y-32265952D01*
X144321443Y-32837380D01*
X144940491Y-32837380D01*
D12*
X156106000Y-108537000D02*
X153266000Y-108537000D01*
X153266000Y-108537000D02*
X153266000Y-112577000D01*
X153266000Y-112577000D02*
X156106000Y-112577000D01*
X156106000Y-112577000D02*
X156106000Y-108537000D01*
X154686000Y-107847000D02*
X154686000Y-108537000D01*
X154686000Y-113267000D02*
X154686000Y-112577000D01*
X157861000Y-103107000D02*
X157861000Y-102417000D01*
X157861000Y-97687000D02*
X157861000Y-98377000D01*
X159281000Y-102417000D02*
X159281000Y-98377000D01*
X156441000Y-102417000D02*
X159281000Y-102417000D01*
X156441000Y-98377000D02*
X156441000Y-102417000D01*
X159281000Y-98377000D02*
X156441000Y-98377000D01*
X154686000Y-103107000D02*
X154686000Y-102417000D01*
X154686000Y-97687000D02*
X154686000Y-98377000D01*
X156106000Y-102417000D02*
X156106000Y-98377000D01*
X153266000Y-102417000D02*
X156106000Y-102417000D01*
X153266000Y-98377000D02*
X153266000Y-102417000D01*
X156106000Y-98377000D02*
X153266000Y-98377000D01*
X159281000Y-108537000D02*
X156441000Y-108537000D01*
X156441000Y-108537000D02*
X156441000Y-112577000D01*
X156441000Y-112577000D02*
X159281000Y-112577000D01*
X159281000Y-112577000D02*
X159281000Y-108537000D01*
X157861000Y-107847000D02*
X157861000Y-108537000D01*
X157861000Y-113267000D02*
X157861000Y-112577000D01*
X153266000Y-86154000D02*
X156106000Y-86154000D01*
X156106000Y-86154000D02*
X156106000Y-82114000D01*
X156106000Y-82114000D02*
X153266000Y-82114000D01*
X153266000Y-82114000D02*
X153266000Y-86154000D01*
X154686000Y-86844000D02*
X154686000Y-86154000D01*
X154686000Y-81424000D02*
X154686000Y-82114000D01*
X185801000Y-81424000D02*
X185801000Y-82114000D01*
X185801000Y-86844000D02*
X185801000Y-86154000D01*
X184381000Y-82114000D02*
X184381000Y-86154000D01*
X187221000Y-82114000D02*
X184381000Y-82114000D01*
X187221000Y-86154000D02*
X187221000Y-82114000D01*
X184381000Y-86154000D02*
X187221000Y-86154000D01*
X187556000Y-86154000D02*
X190396000Y-86154000D01*
X190396000Y-86154000D02*
X190396000Y-82114000D01*
X190396000Y-82114000D02*
X187556000Y-82114000D01*
X187556000Y-82114000D02*
X187556000Y-86154000D01*
X188976000Y-86844000D02*
X188976000Y-86154000D01*
X188976000Y-81424000D02*
X188976000Y-82114000D01*
X154686000Y-67454000D02*
X154686000Y-68144000D01*
X154686000Y-72874000D02*
X154686000Y-72184000D01*
X153266000Y-68144000D02*
X153266000Y-72184000D01*
X156106000Y-68144000D02*
X153266000Y-68144000D01*
X156106000Y-72184000D02*
X156106000Y-68144000D01*
X153266000Y-72184000D02*
X156106000Y-72184000D01*
X184381000Y-72184000D02*
X187221000Y-72184000D01*
X187221000Y-72184000D02*
X187221000Y-68144000D01*
X187221000Y-68144000D02*
X184381000Y-68144000D01*
X184381000Y-68144000D02*
X184381000Y-72184000D01*
X185801000Y-72874000D02*
X185801000Y-72184000D01*
X185801000Y-67454000D02*
X185801000Y-68144000D01*
X188976000Y-67454000D02*
X188976000Y-68144000D01*
X188976000Y-72874000D02*
X188976000Y-72184000D01*
X187556000Y-68144000D02*
X187556000Y-72184000D01*
X190396000Y-68144000D02*
X187556000Y-68144000D01*
X190396000Y-72184000D02*
X190396000Y-68144000D01*
X187556000Y-72184000D02*
X190396000Y-72184000D01*
X153266000Y-58214000D02*
X156106000Y-58214000D01*
X156106000Y-58214000D02*
X156106000Y-54174000D01*
X156106000Y-54174000D02*
X153266000Y-54174000D01*
X153266000Y-54174000D02*
X153266000Y-58214000D01*
X154686000Y-58904000D02*
X154686000Y-58214000D01*
X154686000Y-53484000D02*
X154686000Y-54174000D01*
X185801000Y-53484000D02*
X185801000Y-54174000D01*
X185801000Y-58904000D02*
X185801000Y-58214000D01*
X184381000Y-54174000D02*
X184381000Y-58214000D01*
X187221000Y-54174000D02*
X184381000Y-54174000D01*
X187221000Y-58214000D02*
X187221000Y-54174000D01*
X184381000Y-58214000D02*
X187221000Y-58214000D01*
X187556000Y-58214000D02*
X190396000Y-58214000D01*
X190396000Y-58214000D02*
X190396000Y-54174000D01*
X190396000Y-54174000D02*
X187556000Y-54174000D01*
X187556000Y-54174000D02*
X187556000Y-58214000D01*
X188976000Y-58904000D02*
X188976000Y-58214000D01*
X188976000Y-53484000D02*
X188976000Y-54174000D01*
X154686000Y-39514000D02*
X154686000Y-40204000D01*
X154686000Y-44934000D02*
X154686000Y-44244000D01*
X153266000Y-40204000D02*
X153266000Y-44244000D01*
X156106000Y-40204000D02*
X153266000Y-40204000D01*
X156106000Y-44244000D02*
X156106000Y-40204000D01*
X153266000Y-44244000D02*
X156106000Y-44244000D01*
X184381000Y-44244000D02*
X187221000Y-44244000D01*
X187221000Y-44244000D02*
X187221000Y-40204000D01*
X187221000Y-40204000D02*
X184381000Y-40204000D01*
X184381000Y-40204000D02*
X184381000Y-44244000D01*
X185801000Y-44934000D02*
X185801000Y-44244000D01*
X185801000Y-39514000D02*
X185801000Y-40204000D01*
X188976000Y-39514000D02*
X188976000Y-40204000D01*
X188976000Y-44934000D02*
X188976000Y-44244000D01*
X187556000Y-40204000D02*
X187556000Y-44244000D01*
X190396000Y-40204000D02*
X187556000Y-40204000D01*
X190396000Y-44244000D02*
X190396000Y-40204000D01*
X187556000Y-44244000D02*
X190396000Y-44244000D01*
X193445000Y-117110000D02*
X193445000Y-96250000D01*
X193445000Y-96250000D02*
X202795000Y-96250000D01*
X202795000Y-96250000D02*
X202795000Y-117110000D01*
X202795000Y-117110000D02*
X193445000Y-117110000D01*
X203045000Y-117360000D02*
X203045000Y-114820000D01*
X203045000Y-117360000D02*
X200505000Y-117360000D01*
X183658000Y-87884000D02*
X157242000Y-87884000D01*
X183658000Y-80518000D02*
X183658000Y-87884000D01*
X157242000Y-80518000D02*
X183658000Y-80518000D01*
X157242000Y-87884000D02*
X157242000Y-80518000D01*
X157242000Y-73787000D02*
X157242000Y-66421000D01*
X157242000Y-66421000D02*
X183658000Y-66421000D01*
X183658000Y-66421000D02*
X183658000Y-73787000D01*
X183658000Y-73787000D02*
X157242000Y-73787000D01*
X183658000Y-59944000D02*
X157242000Y-59944000D01*
X183658000Y-52578000D02*
X183658000Y-59944000D01*
X157242000Y-52578000D02*
X183658000Y-52578000D01*
X157242000Y-59944000D02*
X157242000Y-52578000D01*
X184761000Y-113760000D02*
X184431000Y-113760000D01*
X184431000Y-113760000D02*
X184431000Y-107220000D01*
X184431000Y-107220000D02*
X184761000Y-107220000D01*
X186841000Y-113760000D02*
X187171000Y-113760000D01*
X187171000Y-113760000D02*
X187171000Y-107220000D01*
X187171000Y-107220000D02*
X186841000Y-107220000D01*
X187171000Y-97060000D02*
X186841000Y-97060000D01*
X187171000Y-103600000D02*
X187171000Y-97060000D01*
X186841000Y-103600000D02*
X187171000Y-103600000D01*
X184431000Y-97060000D02*
X184761000Y-97060000D01*
X184431000Y-103600000D02*
X184431000Y-97060000D01*
X184761000Y-103600000D02*
X184431000Y-103600000D01*
X187936000Y-108680000D02*
X187606000Y-108680000D01*
X187606000Y-108680000D02*
X187606000Y-102140000D01*
X187606000Y-102140000D02*
X187936000Y-102140000D01*
X190016000Y-108680000D02*
X190346000Y-108680000D01*
X190346000Y-108680000D02*
X190346000Y-102140000D01*
X190346000Y-102140000D02*
X190016000Y-102140000D01*
X183213000Y-31600000D02*
X183213000Y-34440000D01*
X183213000Y-34440000D02*
X187253000Y-34440000D01*
X187253000Y-34440000D02*
X187253000Y-31600000D01*
X187253000Y-31600000D02*
X183213000Y-31600000D01*
X182523000Y-33020000D02*
X183213000Y-33020000D01*
X187943000Y-33020000D02*
X187253000Y-33020000D01*
X170831000Y-93560000D02*
X160981000Y-93560000D01*
X160981000Y-93560000D02*
X159981000Y-94560000D01*
X159981000Y-94560000D02*
X159981000Y-117260000D01*
X159981000Y-117260000D02*
X183681000Y-117260000D01*
X183681000Y-117260000D02*
X183681000Y-93560000D01*
X183681000Y-93560000D02*
X172831000Y-93560000D01*
X197120000Y-89214000D02*
G75*
G02X199120000Y-89214000I1000000J0D01*
G01*
X199120000Y-89214000D02*
X200770000Y-89214000D01*
X200770000Y-89214000D02*
X200770000Y-68774000D01*
X200770000Y-68774000D02*
X195470000Y-68774000D01*
X195470000Y-68774000D02*
X195470000Y-89214000D01*
X195470000Y-89214000D02*
X197120000Y-89214000D01*
X200770000Y-47565000D02*
X199120000Y-47565000D01*
X200770000Y-68005000D02*
X200770000Y-47565000D01*
X195470000Y-68005000D02*
X200770000Y-68005000D01*
X195470000Y-47565000D02*
X195470000Y-68005000D01*
X197120000Y-47565000D02*
X195470000Y-47565000D01*
X199120000Y-47565000D02*
G75*
G02X197120000Y-47565000I-1000000J0D01*
G01*
X183658000Y-45974000D02*
X157242000Y-45974000D01*
X183658000Y-38608000D02*
X183658000Y-45974000D01*
X157242000Y-38608000D02*
X183658000Y-38608000D01*
X157242000Y-45974000D02*
X157242000Y-38608000D01*
X199120000Y-34230000D02*
G75*
G02X197120000Y-34230000I-1000000J0D01*
G01*
X197120000Y-34230000D02*
X195470000Y-34230000D01*
X195470000Y-34230000D02*
X195470000Y-44510000D01*
X195470000Y-44510000D02*
X200770000Y-44510000D01*
X200770000Y-44510000D02*
X200770000Y-34230000D01*
X200770000Y-34230000D02*
X199120000Y-34230000D01*
X146220000Y-34170000D02*
X120480000Y-34170000D01*
X146220000Y-115690000D02*
X146220000Y-34170000D01*
X120480000Y-115690000D02*
X146220000Y-115690000D01*
X120480000Y-34170000D02*
X120480000Y-115690000D01*
X143220000Y-34230000D02*
X134350000Y-34230000D01*
X143220000Y-115630000D02*
X143220000Y-34230000D01*
X123480000Y-115630000D02*
X143220000Y-115630000D01*
X123480000Y-34230000D02*
X123480000Y-115630000D01*
X132350000Y-34230000D02*
X123480000Y-34230000D01*
X134350000Y-34230000D02*
G75*
G02X132350000Y-34230000I-1000000J0D01*
G01*
X138795000Y-34230000D02*
G75*
G02X136795000Y-34230000I-1000000J0D01*
G01*
X136795000Y-34230000D02*
X127925000Y-34230000D01*
X127925000Y-34230000D02*
X127925000Y-115630000D01*
X127925000Y-115630000D02*
X147665000Y-115630000D01*
X147665000Y-115630000D02*
X147665000Y-34230000D01*
X147665000Y-34230000D02*
X138795000Y-34230000D01*
X124925000Y-34170000D02*
X124925000Y-115690000D01*
X124925000Y-115690000D02*
X150665000Y-115690000D01*
X150665000Y-115690000D02*
X150665000Y-34170000D01*
X150665000Y-34170000D02*
X124925000Y-34170000D01*
D11*
X155043142Y-110783666D02*
X155090761Y-110831285D01*
X155138380Y-110974142D01*
X155138380Y-111069380D01*
X155090761Y-111212238D01*
X154995523Y-111307476D01*
X154900285Y-111355095D01*
X154709809Y-111402714D01*
X154566952Y-111402714D01*
X154376476Y-111355095D01*
X154281238Y-111307476D01*
X154186000Y-111212238D01*
X154138380Y-111069380D01*
X154138380Y-110974142D01*
X154186000Y-110831285D01*
X154233619Y-110783666D01*
X155138380Y-109831285D02*
X155138380Y-110402714D01*
X155138380Y-110117000D02*
X154138380Y-110117000D01*
X154281238Y-110212238D01*
X154376476Y-110307476D01*
X154424095Y-110402714D01*
X158218142Y-100623666D02*
X158265761Y-100671285D01*
X158313380Y-100814142D01*
X158313380Y-100909380D01*
X158265761Y-101052238D01*
X158170523Y-101147476D01*
X158075285Y-101195095D01*
X157884809Y-101242714D01*
X157741952Y-101242714D01*
X157551476Y-101195095D01*
X157456238Y-101147476D01*
X157361000Y-101052238D01*
X157313380Y-100909380D01*
X157313380Y-100814142D01*
X157361000Y-100671285D01*
X157408619Y-100623666D01*
X157646714Y-99766523D02*
X158313380Y-99766523D01*
X157265761Y-100004619D02*
X157980047Y-100242714D01*
X157980047Y-99623666D01*
X155043142Y-100563666D02*
X155090761Y-100611285D01*
X155138380Y-100754142D01*
X155138380Y-100849380D01*
X155090761Y-100992238D01*
X154995523Y-101087476D01*
X154900285Y-101135095D01*
X154709809Y-101182714D01*
X154566952Y-101182714D01*
X154376476Y-101135095D01*
X154281238Y-101087476D01*
X154186000Y-100992238D01*
X154138380Y-100849380D01*
X154138380Y-100754142D01*
X154186000Y-100611285D01*
X154233619Y-100563666D01*
X154233619Y-100182714D02*
X154186000Y-100135095D01*
X154138380Y-100039857D01*
X154138380Y-99801761D01*
X154186000Y-99706523D01*
X154233619Y-99658904D01*
X154328857Y-99611285D01*
X154424095Y-99611285D01*
X154566952Y-99658904D01*
X155138380Y-100230333D01*
X155138380Y-99611285D01*
X158218142Y-110783666D02*
X158265761Y-110831285D01*
X158313380Y-110974142D01*
X158313380Y-111069380D01*
X158265761Y-111212238D01*
X158170523Y-111307476D01*
X158075285Y-111355095D01*
X157884809Y-111402714D01*
X157741952Y-111402714D01*
X157551476Y-111355095D01*
X157456238Y-111307476D01*
X157361000Y-111212238D01*
X157313380Y-111069380D01*
X157313380Y-110974142D01*
X157361000Y-110831285D01*
X157408619Y-110783666D01*
X157313380Y-110450333D02*
X157313380Y-109831285D01*
X157694333Y-110164619D01*
X157694333Y-110021761D01*
X157741952Y-109926523D01*
X157789571Y-109878904D01*
X157884809Y-109831285D01*
X158122904Y-109831285D01*
X158218142Y-109878904D01*
X158265761Y-109926523D01*
X158313380Y-110021761D01*
X158313380Y-110307476D01*
X158265761Y-110402714D01*
X158218142Y-110450333D01*
X155043142Y-84300666D02*
X155090761Y-84348285D01*
X155138380Y-84491142D01*
X155138380Y-84586380D01*
X155090761Y-84729238D01*
X154995523Y-84824476D01*
X154900285Y-84872095D01*
X154709809Y-84919714D01*
X154566952Y-84919714D01*
X154376476Y-84872095D01*
X154281238Y-84824476D01*
X154186000Y-84729238D01*
X154138380Y-84586380D01*
X154138380Y-84491142D01*
X154186000Y-84348285D01*
X154233619Y-84300666D01*
X154138380Y-83395904D02*
X154138380Y-83872095D01*
X154614571Y-83919714D01*
X154566952Y-83872095D01*
X154519333Y-83776857D01*
X154519333Y-83538761D01*
X154566952Y-83443523D01*
X154614571Y-83395904D01*
X154709809Y-83348285D01*
X154947904Y-83348285D01*
X155043142Y-83395904D01*
X155090761Y-83443523D01*
X155138380Y-83538761D01*
X155138380Y-83776857D01*
X155090761Y-83872095D01*
X155043142Y-83919714D01*
X186158142Y-84300666D02*
X186205761Y-84348285D01*
X186253380Y-84491142D01*
X186253380Y-84586380D01*
X186205761Y-84729238D01*
X186110523Y-84824476D01*
X186015285Y-84872095D01*
X185824809Y-84919714D01*
X185681952Y-84919714D01*
X185491476Y-84872095D01*
X185396238Y-84824476D01*
X185301000Y-84729238D01*
X185253380Y-84586380D01*
X185253380Y-84491142D01*
X185301000Y-84348285D01*
X185348619Y-84300666D01*
X185253380Y-83443523D02*
X185253380Y-83634000D01*
X185301000Y-83729238D01*
X185348619Y-83776857D01*
X185491476Y-83872095D01*
X185681952Y-83919714D01*
X186062904Y-83919714D01*
X186158142Y-83872095D01*
X186205761Y-83824476D01*
X186253380Y-83729238D01*
X186253380Y-83538761D01*
X186205761Y-83443523D01*
X186158142Y-83395904D01*
X186062904Y-83348285D01*
X185824809Y-83348285D01*
X185729571Y-83395904D01*
X185681952Y-83443523D01*
X185634333Y-83538761D01*
X185634333Y-83729238D01*
X185681952Y-83824476D01*
X185729571Y-83872095D01*
X185824809Y-83919714D01*
X189333142Y-84240666D02*
X189380761Y-84288285D01*
X189428380Y-84431142D01*
X189428380Y-84526380D01*
X189380761Y-84669238D01*
X189285523Y-84764476D01*
X189190285Y-84812095D01*
X188999809Y-84859714D01*
X188856952Y-84859714D01*
X188666476Y-84812095D01*
X188571238Y-84764476D01*
X188476000Y-84669238D01*
X188428380Y-84526380D01*
X188428380Y-84431142D01*
X188476000Y-84288285D01*
X188523619Y-84240666D01*
X188428380Y-83907333D02*
X188428380Y-83240666D01*
X189428380Y-83669238D01*
X155043142Y-70270666D02*
X155090761Y-70318285D01*
X155138380Y-70461142D01*
X155138380Y-70556380D01*
X155090761Y-70699238D01*
X154995523Y-70794476D01*
X154900285Y-70842095D01*
X154709809Y-70889714D01*
X154566952Y-70889714D01*
X154376476Y-70842095D01*
X154281238Y-70794476D01*
X154186000Y-70699238D01*
X154138380Y-70556380D01*
X154138380Y-70461142D01*
X154186000Y-70318285D01*
X154233619Y-70270666D01*
X154566952Y-69699238D02*
X154519333Y-69794476D01*
X154471714Y-69842095D01*
X154376476Y-69889714D01*
X154328857Y-69889714D01*
X154233619Y-69842095D01*
X154186000Y-69794476D01*
X154138380Y-69699238D01*
X154138380Y-69508761D01*
X154186000Y-69413523D01*
X154233619Y-69365904D01*
X154328857Y-69318285D01*
X154376476Y-69318285D01*
X154471714Y-69365904D01*
X154519333Y-69413523D01*
X154566952Y-69508761D01*
X154566952Y-69699238D01*
X154614571Y-69794476D01*
X154662190Y-69842095D01*
X154757428Y-69889714D01*
X154947904Y-69889714D01*
X155043142Y-69842095D01*
X155090761Y-69794476D01*
X155138380Y-69699238D01*
X155138380Y-69508761D01*
X155090761Y-69413523D01*
X155043142Y-69365904D01*
X154947904Y-69318285D01*
X154757428Y-69318285D01*
X154662190Y-69365904D01*
X154614571Y-69413523D01*
X154566952Y-69508761D01*
X186158142Y-70270666D02*
X186205761Y-70318285D01*
X186253380Y-70461142D01*
X186253380Y-70556380D01*
X186205761Y-70699238D01*
X186110523Y-70794476D01*
X186015285Y-70842095D01*
X185824809Y-70889714D01*
X185681952Y-70889714D01*
X185491476Y-70842095D01*
X185396238Y-70794476D01*
X185301000Y-70699238D01*
X185253380Y-70556380D01*
X185253380Y-70461142D01*
X185301000Y-70318285D01*
X185348619Y-70270666D01*
X186253380Y-69794476D02*
X186253380Y-69604000D01*
X186205761Y-69508761D01*
X186158142Y-69461142D01*
X186015285Y-69365904D01*
X185824809Y-69318285D01*
X185443857Y-69318285D01*
X185348619Y-69365904D01*
X185301000Y-69413523D01*
X185253380Y-69508761D01*
X185253380Y-69699238D01*
X185301000Y-69794476D01*
X185348619Y-69842095D01*
X185443857Y-69889714D01*
X185681952Y-69889714D01*
X185777190Y-69842095D01*
X185824809Y-69794476D01*
X185872428Y-69699238D01*
X185872428Y-69508761D01*
X185824809Y-69413523D01*
X185777190Y-69365904D01*
X185681952Y-69318285D01*
X189333142Y-70746857D02*
X189380761Y-70794476D01*
X189428380Y-70937333D01*
X189428380Y-71032571D01*
X189380761Y-71175428D01*
X189285523Y-71270666D01*
X189190285Y-71318285D01*
X188999809Y-71365904D01*
X188856952Y-71365904D01*
X188666476Y-71318285D01*
X188571238Y-71270666D01*
X188476000Y-71175428D01*
X188428380Y-71032571D01*
X188428380Y-70937333D01*
X188476000Y-70794476D01*
X188523619Y-70746857D01*
X189428380Y-69794476D02*
X189428380Y-70365904D01*
X189428380Y-70080190D02*
X188428380Y-70080190D01*
X188571238Y-70175428D01*
X188666476Y-70270666D01*
X188714095Y-70365904D01*
X188428380Y-69175428D02*
X188428380Y-69080190D01*
X188476000Y-68984952D01*
X188523619Y-68937333D01*
X188618857Y-68889714D01*
X188809333Y-68842095D01*
X189047428Y-68842095D01*
X189237904Y-68889714D01*
X189333142Y-68937333D01*
X189380761Y-68984952D01*
X189428380Y-69080190D01*
X189428380Y-69175428D01*
X189380761Y-69270666D01*
X189333142Y-69318285D01*
X189237904Y-69365904D01*
X189047428Y-69413523D01*
X188809333Y-69413523D01*
X188618857Y-69365904D01*
X188523619Y-69318285D01*
X188476000Y-69270666D01*
X188428380Y-69175428D01*
X155043142Y-56776857D02*
X155090761Y-56824476D01*
X155138380Y-56967333D01*
X155138380Y-57062571D01*
X155090761Y-57205428D01*
X154995523Y-57300666D01*
X154900285Y-57348285D01*
X154709809Y-57395904D01*
X154566952Y-57395904D01*
X154376476Y-57348285D01*
X154281238Y-57300666D01*
X154186000Y-57205428D01*
X154138380Y-57062571D01*
X154138380Y-56967333D01*
X154186000Y-56824476D01*
X154233619Y-56776857D01*
X155138380Y-55824476D02*
X155138380Y-56395904D01*
X155138380Y-56110190D02*
X154138380Y-56110190D01*
X154281238Y-56205428D01*
X154376476Y-56300666D01*
X154424095Y-56395904D01*
X155138380Y-54872095D02*
X155138380Y-55443523D01*
X155138380Y-55157809D02*
X154138380Y-55157809D01*
X154281238Y-55253047D01*
X154376476Y-55348285D01*
X154424095Y-55443523D01*
X186158142Y-56836857D02*
X186205761Y-56884476D01*
X186253380Y-57027333D01*
X186253380Y-57122571D01*
X186205761Y-57265428D01*
X186110523Y-57360666D01*
X186015285Y-57408285D01*
X185824809Y-57455904D01*
X185681952Y-57455904D01*
X185491476Y-57408285D01*
X185396238Y-57360666D01*
X185301000Y-57265428D01*
X185253380Y-57122571D01*
X185253380Y-57027333D01*
X185301000Y-56884476D01*
X185348619Y-56836857D01*
X186253380Y-55884476D02*
X186253380Y-56455904D01*
X186253380Y-56170190D02*
X185253380Y-56170190D01*
X185396238Y-56265428D01*
X185491476Y-56360666D01*
X185539095Y-56455904D01*
X185348619Y-55503523D02*
X185301000Y-55455904D01*
X185253380Y-55360666D01*
X185253380Y-55122571D01*
X185301000Y-55027333D01*
X185348619Y-54979714D01*
X185443857Y-54932095D01*
X185539095Y-54932095D01*
X185681952Y-54979714D01*
X186253380Y-55551142D01*
X186253380Y-54932095D01*
X189333142Y-56836857D02*
X189380761Y-56884476D01*
X189428380Y-57027333D01*
X189428380Y-57122571D01*
X189380761Y-57265428D01*
X189285523Y-57360666D01*
X189190285Y-57408285D01*
X188999809Y-57455904D01*
X188856952Y-57455904D01*
X188666476Y-57408285D01*
X188571238Y-57360666D01*
X188476000Y-57265428D01*
X188428380Y-57122571D01*
X188428380Y-57027333D01*
X188476000Y-56884476D01*
X188523619Y-56836857D01*
X189428380Y-55884476D02*
X189428380Y-56455904D01*
X189428380Y-56170190D02*
X188428380Y-56170190D01*
X188571238Y-56265428D01*
X188666476Y-56360666D01*
X188714095Y-56455904D01*
X188428380Y-55551142D02*
X188428380Y-54932095D01*
X188809333Y-55265428D01*
X188809333Y-55122571D01*
X188856952Y-55027333D01*
X188904571Y-54979714D01*
X188999809Y-54932095D01*
X189237904Y-54932095D01*
X189333142Y-54979714D01*
X189380761Y-55027333D01*
X189428380Y-55122571D01*
X189428380Y-55408285D01*
X189380761Y-55503523D01*
X189333142Y-55551142D01*
X155043142Y-42866857D02*
X155090761Y-42914476D01*
X155138380Y-43057333D01*
X155138380Y-43152571D01*
X155090761Y-43295428D01*
X154995523Y-43390666D01*
X154900285Y-43438285D01*
X154709809Y-43485904D01*
X154566952Y-43485904D01*
X154376476Y-43438285D01*
X154281238Y-43390666D01*
X154186000Y-43295428D01*
X154138380Y-43152571D01*
X154138380Y-43057333D01*
X154186000Y-42914476D01*
X154233619Y-42866857D01*
X155138380Y-41914476D02*
X155138380Y-42485904D01*
X155138380Y-42200190D02*
X154138380Y-42200190D01*
X154281238Y-42295428D01*
X154376476Y-42390666D01*
X154424095Y-42485904D01*
X154471714Y-41057333D02*
X155138380Y-41057333D01*
X154090761Y-41295428D02*
X154805047Y-41533523D01*
X154805047Y-40914476D01*
X186158142Y-42806857D02*
X186205761Y-42854476D01*
X186253380Y-42997333D01*
X186253380Y-43092571D01*
X186205761Y-43235428D01*
X186110523Y-43330666D01*
X186015285Y-43378285D01*
X185824809Y-43425904D01*
X185681952Y-43425904D01*
X185491476Y-43378285D01*
X185396238Y-43330666D01*
X185301000Y-43235428D01*
X185253380Y-43092571D01*
X185253380Y-42997333D01*
X185301000Y-42854476D01*
X185348619Y-42806857D01*
X186253380Y-41854476D02*
X186253380Y-42425904D01*
X186253380Y-42140190D02*
X185253380Y-42140190D01*
X185396238Y-42235428D01*
X185491476Y-42330666D01*
X185539095Y-42425904D01*
X185253380Y-40949714D02*
X185253380Y-41425904D01*
X185729571Y-41473523D01*
X185681952Y-41425904D01*
X185634333Y-41330666D01*
X185634333Y-41092571D01*
X185681952Y-40997333D01*
X185729571Y-40949714D01*
X185824809Y-40902095D01*
X186062904Y-40902095D01*
X186158142Y-40949714D01*
X186205761Y-40997333D01*
X186253380Y-41092571D01*
X186253380Y-41330666D01*
X186205761Y-41425904D01*
X186158142Y-41473523D01*
X189333142Y-42806857D02*
X189380761Y-42854476D01*
X189428380Y-42997333D01*
X189428380Y-43092571D01*
X189380761Y-43235428D01*
X189285523Y-43330666D01*
X189190285Y-43378285D01*
X188999809Y-43425904D01*
X188856952Y-43425904D01*
X188666476Y-43378285D01*
X188571238Y-43330666D01*
X188476000Y-43235428D01*
X188428380Y-43092571D01*
X188428380Y-42997333D01*
X188476000Y-42854476D01*
X188523619Y-42806857D01*
X189428380Y-41854476D02*
X189428380Y-42425904D01*
X189428380Y-42140190D02*
X188428380Y-42140190D01*
X188571238Y-42235428D01*
X188666476Y-42330666D01*
X188714095Y-42425904D01*
X188428380Y-40997333D02*
X188428380Y-41187809D01*
X188476000Y-41283047D01*
X188523619Y-41330666D01*
X188666476Y-41425904D01*
X188856952Y-41473523D01*
X189237904Y-41473523D01*
X189333142Y-41425904D01*
X189380761Y-41378285D01*
X189428380Y-41283047D01*
X189428380Y-41092571D01*
X189380761Y-40997333D01*
X189333142Y-40949714D01*
X189237904Y-40902095D01*
X188999809Y-40902095D01*
X188904571Y-40949714D01*
X188856952Y-40997333D01*
X188809333Y-41092571D01*
X188809333Y-41283047D01*
X188856952Y-41378285D01*
X188904571Y-41425904D01*
X188999809Y-41473523D01*
X197572380Y-95583333D02*
X198286666Y-95583333D01*
X198429523Y-95630952D01*
X198524761Y-95726190D01*
X198572380Y-95869047D01*
X198572380Y-95964285D01*
X198572380Y-94583333D02*
X198572380Y-95154761D01*
X198572380Y-94869047D02*
X197572380Y-94869047D01*
X197715238Y-94964285D01*
X197810476Y-95059523D01*
X197858095Y-95154761D01*
X169632380Y-84581904D02*
X170441904Y-84581904D01*
X170537142Y-84534285D01*
X170584761Y-84486666D01*
X170632380Y-84391428D01*
X170632380Y-84200952D01*
X170584761Y-84105714D01*
X170537142Y-84058095D01*
X170441904Y-84010476D01*
X169632380Y-84010476D01*
X169632380Y-83105714D02*
X169632380Y-83296190D01*
X169680000Y-83391428D01*
X169727619Y-83439047D01*
X169870476Y-83534285D01*
X170060952Y-83581904D01*
X170441904Y-83581904D01*
X170537142Y-83534285D01*
X170584761Y-83486666D01*
X170632380Y-83391428D01*
X170632380Y-83200952D01*
X170584761Y-83105714D01*
X170537142Y-83058095D01*
X170441904Y-83010476D01*
X170203809Y-83010476D01*
X170108571Y-83058095D01*
X170060952Y-83105714D01*
X170013333Y-83200952D01*
X170013333Y-83391428D01*
X170060952Y-83486666D01*
X170108571Y-83534285D01*
X170203809Y-83581904D01*
X169632380Y-70484904D02*
X170441904Y-70484904D01*
X170537142Y-70437285D01*
X170584761Y-70389666D01*
X170632380Y-70294428D01*
X170632380Y-70103952D01*
X170584761Y-70008714D01*
X170537142Y-69961095D01*
X170441904Y-69913476D01*
X169632380Y-69913476D01*
X169632380Y-69532523D02*
X169632380Y-68865857D01*
X170632380Y-69294428D01*
X169632380Y-56641904D02*
X170441904Y-56641904D01*
X170537142Y-56594285D01*
X170584761Y-56546666D01*
X170632380Y-56451428D01*
X170632380Y-56260952D01*
X170584761Y-56165714D01*
X170537142Y-56118095D01*
X170441904Y-56070476D01*
X169632380Y-56070476D01*
X170060952Y-55451428D02*
X170013333Y-55546666D01*
X169965714Y-55594285D01*
X169870476Y-55641904D01*
X169822857Y-55641904D01*
X169727619Y-55594285D01*
X169680000Y-55546666D01*
X169632380Y-55451428D01*
X169632380Y-55260952D01*
X169680000Y-55165714D01*
X169727619Y-55118095D01*
X169822857Y-55070476D01*
X169870476Y-55070476D01*
X169965714Y-55118095D01*
X170013333Y-55165714D01*
X170060952Y-55260952D01*
X170060952Y-55451428D01*
X170108571Y-55546666D01*
X170156190Y-55594285D01*
X170251428Y-55641904D01*
X170441904Y-55641904D01*
X170537142Y-55594285D01*
X170584761Y-55546666D01*
X170632380Y-55451428D01*
X170632380Y-55260952D01*
X170584761Y-55165714D01*
X170537142Y-55118095D01*
X170441904Y-55070476D01*
X170251428Y-55070476D01*
X170156190Y-55118095D01*
X170108571Y-55165714D01*
X170060952Y-55260952D01*
X186253380Y-110656666D02*
X185777190Y-110990000D01*
X186253380Y-111228095D02*
X185253380Y-111228095D01*
X185253380Y-110847142D01*
X185301000Y-110751904D01*
X185348619Y-110704285D01*
X185443857Y-110656666D01*
X185586714Y-110656666D01*
X185681952Y-110704285D01*
X185729571Y-110751904D01*
X185777190Y-110847142D01*
X185777190Y-111228095D01*
X186253380Y-109704285D02*
X186253380Y-110275714D01*
X186253380Y-109990000D02*
X185253380Y-109990000D01*
X185396238Y-110085238D01*
X185491476Y-110180476D01*
X185539095Y-110275714D01*
X186253380Y-100496666D02*
X185777190Y-100830000D01*
X186253380Y-101068095D02*
X185253380Y-101068095D01*
X185253380Y-100687142D01*
X185301000Y-100591904D01*
X185348619Y-100544285D01*
X185443857Y-100496666D01*
X185586714Y-100496666D01*
X185681952Y-100544285D01*
X185729571Y-100591904D01*
X185777190Y-100687142D01*
X185777190Y-101068095D01*
X185348619Y-100115714D02*
X185301000Y-100068095D01*
X185253380Y-99972857D01*
X185253380Y-99734761D01*
X185301000Y-99639523D01*
X185348619Y-99591904D01*
X185443857Y-99544285D01*
X185539095Y-99544285D01*
X185681952Y-99591904D01*
X186253380Y-100163333D01*
X186253380Y-99544285D01*
X189428380Y-105576666D02*
X188952190Y-105910000D01*
X189428380Y-106148095D02*
X188428380Y-106148095D01*
X188428380Y-105767142D01*
X188476000Y-105671904D01*
X188523619Y-105624285D01*
X188618857Y-105576666D01*
X188761714Y-105576666D01*
X188856952Y-105624285D01*
X188904571Y-105671904D01*
X188952190Y-105767142D01*
X188952190Y-106148095D01*
X188428380Y-105243333D02*
X188428380Y-104624285D01*
X188809333Y-104957619D01*
X188809333Y-104814761D01*
X188856952Y-104719523D01*
X188904571Y-104671904D01*
X188999809Y-104624285D01*
X189237904Y-104624285D01*
X189333142Y-104671904D01*
X189380761Y-104719523D01*
X189428380Y-104814761D01*
X189428380Y-105100476D01*
X189380761Y-105195714D01*
X189333142Y-105243333D01*
X184650142Y-33377142D02*
X184602523Y-33424761D01*
X184459666Y-33472380D01*
X184364428Y-33472380D01*
X184221571Y-33424761D01*
X184126333Y-33329523D01*
X184078714Y-33234285D01*
X184031095Y-33043809D01*
X184031095Y-32900952D01*
X184078714Y-32710476D01*
X184126333Y-32615238D01*
X184221571Y-32520000D01*
X184364428Y-32472380D01*
X184459666Y-32472380D01*
X184602523Y-32520000D01*
X184650142Y-32567619D01*
X185602523Y-33472380D02*
X185031095Y-33472380D01*
X185316809Y-33472380D02*
X185316809Y-32472380D01*
X185221571Y-32615238D01*
X185126333Y-32710476D01*
X185031095Y-32758095D01*
X186173952Y-32900952D02*
X186078714Y-32853333D01*
X186031095Y-32805714D01*
X185983476Y-32710476D01*
X185983476Y-32662857D01*
X186031095Y-32567619D01*
X186078714Y-32520000D01*
X186173952Y-32472380D01*
X186364428Y-32472380D01*
X186459666Y-32520000D01*
X186507285Y-32567619D01*
X186554904Y-32662857D01*
X186554904Y-32710476D01*
X186507285Y-32805714D01*
X186459666Y-32853333D01*
X186364428Y-32900952D01*
X186173952Y-32900952D01*
X186078714Y-32948571D01*
X186031095Y-32996190D01*
X185983476Y-33091428D01*
X185983476Y-33281904D01*
X186031095Y-33377142D01*
X186078714Y-33424761D01*
X186173952Y-33472380D01*
X186364428Y-33472380D01*
X186459666Y-33424761D01*
X186507285Y-33377142D01*
X186554904Y-33281904D01*
X186554904Y-33091428D01*
X186507285Y-32996190D01*
X186459666Y-32948571D01*
X186364428Y-32900952D01*
X171069095Y-92112380D02*
X171069095Y-92921904D01*
X171116714Y-93017142D01*
X171164333Y-93064761D01*
X171259571Y-93112380D01*
X171450047Y-93112380D01*
X171545285Y-93064761D01*
X171592904Y-93017142D01*
X171640523Y-92921904D01*
X171640523Y-92112380D01*
X172021476Y-92112380D02*
X172640523Y-92112380D01*
X172307190Y-92493333D01*
X172450047Y-92493333D01*
X172545285Y-92540952D01*
X172592904Y-92588571D01*
X172640523Y-92683809D01*
X172640523Y-92921904D01*
X172592904Y-93017142D01*
X172545285Y-93064761D01*
X172450047Y-93112380D01*
X172164333Y-93112380D01*
X172069095Y-93064761D01*
X172021476Y-93017142D01*
X197358095Y-89666380D02*
X197358095Y-90475904D01*
X197405714Y-90571142D01*
X197453333Y-90618761D01*
X197548571Y-90666380D01*
X197739047Y-90666380D01*
X197834285Y-90618761D01*
X197881904Y-90571142D01*
X197929523Y-90475904D01*
X197929523Y-89666380D01*
X198834285Y-89999714D02*
X198834285Y-90666380D01*
X198596190Y-89618761D02*
X198358095Y-90333047D01*
X198977142Y-90333047D01*
X197358095Y-46017380D02*
X197358095Y-46826904D01*
X197405714Y-46922142D01*
X197453333Y-46969761D01*
X197548571Y-47017380D01*
X197739047Y-47017380D01*
X197834285Y-46969761D01*
X197881904Y-46922142D01*
X197929523Y-46826904D01*
X197929523Y-46017380D01*
X198881904Y-46017380D02*
X198405714Y-46017380D01*
X198358095Y-46493571D01*
X198405714Y-46445952D01*
X198500952Y-46398333D01*
X198739047Y-46398333D01*
X198834285Y-46445952D01*
X198881904Y-46493571D01*
X198929523Y-46588809D01*
X198929523Y-46826904D01*
X198881904Y-46922142D01*
X198834285Y-46969761D01*
X198739047Y-47017380D01*
X198500952Y-47017380D01*
X198405714Y-46969761D01*
X198358095Y-46922142D01*
X169632380Y-42671904D02*
X170441904Y-42671904D01*
X170537142Y-42624285D01*
X170584761Y-42576666D01*
X170632380Y-42481428D01*
X170632380Y-42290952D01*
X170584761Y-42195714D01*
X170537142Y-42148095D01*
X170441904Y-42100476D01*
X169632380Y-42100476D01*
X170632380Y-41576666D02*
X170632380Y-41386190D01*
X170584761Y-41290952D01*
X170537142Y-41243333D01*
X170394285Y-41148095D01*
X170203809Y-41100476D01*
X169822857Y-41100476D01*
X169727619Y-41148095D01*
X169680000Y-41195714D01*
X169632380Y-41290952D01*
X169632380Y-41481428D01*
X169680000Y-41576666D01*
X169727619Y-41624285D01*
X169822857Y-41671904D01*
X170060952Y-41671904D01*
X170156190Y-41624285D01*
X170203809Y-41576666D01*
X170251428Y-41481428D01*
X170251428Y-41290952D01*
X170203809Y-41195714D01*
X170156190Y-41148095D01*
X170060952Y-41100476D01*
X196881904Y-32682380D02*
X196881904Y-33491904D01*
X196929523Y-33587142D01*
X196977142Y-33634761D01*
X197072380Y-33682380D01*
X197262857Y-33682380D01*
X197358095Y-33634761D01*
X197405714Y-33587142D01*
X197453333Y-33491904D01*
X197453333Y-32682380D01*
X198453333Y-33682380D02*
X197881904Y-33682380D01*
X198167619Y-33682380D02*
X198167619Y-32682380D01*
X198072380Y-32825238D01*
X197977142Y-32920476D01*
X197881904Y-32968095D01*
X199072380Y-32682380D02*
X199167619Y-32682380D01*
X199262857Y-32730000D01*
X199310476Y-32777619D01*
X199358095Y-32872857D01*
X199405714Y-33063333D01*
X199405714Y-33301428D01*
X199358095Y-33491904D01*
X199310476Y-33587142D01*
X199262857Y-33634761D01*
X199167619Y-33682380D01*
X199072380Y-33682380D01*
X198977142Y-33634761D01*
X198929523Y-33587142D01*
X198881904Y-33491904D01*
X198834285Y-33301428D01*
X198834285Y-33063333D01*
X198881904Y-32872857D01*
X198929523Y-32777619D01*
X198977142Y-32730000D01*
X199072380Y-32682380D01*
X132588095Y-36282380D02*
X132588095Y-37091904D01*
X132635714Y-37187142D01*
X132683333Y-37234761D01*
X132778571Y-37282380D01*
X132969047Y-37282380D01*
X133064285Y-37234761D01*
X133111904Y-37187142D01*
X133159523Y-37091904D01*
X133159523Y-36282380D01*
X134159523Y-37282380D02*
X133588095Y-37282380D01*
X133873809Y-37282380D02*
X133873809Y-36282380D01*
X133778571Y-36425238D01*
X133683333Y-36520476D01*
X133588095Y-36568095D01*
X137033095Y-36282380D02*
X137033095Y-37091904D01*
X137080714Y-37187142D01*
X137128333Y-37234761D01*
X137223571Y-37282380D01*
X137414047Y-37282380D01*
X137509285Y-37234761D01*
X137556904Y-37187142D01*
X137604523Y-37091904D01*
X137604523Y-36282380D01*
X138033095Y-36377619D02*
X138080714Y-36330000D01*
X138175952Y-36282380D01*
X138414047Y-36282380D01*
X138509285Y-36330000D01*
X138556904Y-36377619D01*
X138604523Y-36472857D01*
X138604523Y-36568095D01*
X138556904Y-36710952D01*
X137985476Y-37282380D01*
X138604523Y-37282380D01*
M02*
