G04 #@! TF.GenerationSoftware,KiCad,Pcbnew,(5.1.2-1)-1*
G04 #@! TF.CreationDate,2019-06-03T00:06:23+01:00*
G04 #@! TF.ProjectId,A500 FastRAM,41353030-2046-4617-9374-52414d2e6b69,rev?*
G04 #@! TF.SameCoordinates,Original*
G04 #@! TF.FileFunction,Copper,L2,Bot*
G04 #@! TF.FilePolarity,Positive*
%FSLAX46Y46*%
G04 Gerber Fmt 4.6, Leading zero omitted, Abs format (unit mm)*
G04 Created by KiCad (PCBNEW (5.1.2-1)-1) date 2019-06-03 00:06:23*
%MOMM*%
%LPD*%
G04 APERTURE LIST*
%ADD10R,2.400000X1.600000*%
%ADD11O,2.400000X1.600000*%
%ADD12C,1.422400*%
%ADD13R,1.422400X1.422400*%
%ADD14R,1.700000X1.700000*%
%ADD15O,1.700000X1.700000*%
%ADD16C,0.800000*%
%ADD17C,0.250000*%
G04 APERTURE END LIST*
D10*
X120650000Y-35560000D03*
D11*
X120650000Y-38100000D03*
X120650000Y-40640000D03*
X120650000Y-43180000D03*
X120650000Y-45720000D03*
X120650000Y-48260000D03*
X120650000Y-50800000D03*
X120650000Y-53340000D03*
X120650000Y-55880000D03*
X120650000Y-58420000D03*
X120650000Y-60960000D03*
X120650000Y-63500000D03*
X120650000Y-66040000D03*
X120650000Y-68580000D03*
X120650000Y-71120000D03*
X120650000Y-73660000D03*
X120650000Y-76200000D03*
X120650000Y-78740000D03*
X120650000Y-81280000D03*
X120650000Y-83820000D03*
X120650000Y-86360000D03*
X120650000Y-88900000D03*
X120650000Y-91440000D03*
X120650000Y-93980000D03*
X120650000Y-96520000D03*
X120650000Y-99060000D03*
X120650000Y-101600000D03*
X120650000Y-104140000D03*
X120650000Y-106680000D03*
X120650000Y-109220000D03*
X120650000Y-111760000D03*
X120650000Y-114300000D03*
X146050000Y-114300000D03*
X146050000Y-111760000D03*
X146050000Y-109220000D03*
X146050000Y-106680000D03*
X146050000Y-104140000D03*
X146050000Y-101600000D03*
X146050000Y-99060000D03*
X146050000Y-96520000D03*
X146050000Y-93980000D03*
X146050000Y-91440000D03*
X146050000Y-88900000D03*
X146050000Y-86360000D03*
X146050000Y-83820000D03*
X146050000Y-81280000D03*
X146050000Y-78740000D03*
X146050000Y-76200000D03*
X146050000Y-73660000D03*
X146050000Y-71120000D03*
X146050000Y-68580000D03*
X146050000Y-66040000D03*
X146050000Y-63500000D03*
X146050000Y-60960000D03*
X146050000Y-58420000D03*
X146050000Y-55880000D03*
X146050000Y-53340000D03*
X146050000Y-50800000D03*
X146050000Y-48260000D03*
X146050000Y-45720000D03*
X146050000Y-43180000D03*
X146050000Y-40640000D03*
X146050000Y-38100000D03*
X146050000Y-35560000D03*
D12*
X163830000Y-40640000D03*
X161290000Y-40640000D03*
X158750000Y-40640000D03*
X156210000Y-40640000D03*
X166370000Y-40640000D03*
X168910000Y-40640000D03*
X171450000Y-40640000D03*
X173990000Y-40640000D03*
D13*
X163830000Y-38100000D03*
D12*
X161290000Y-38100000D03*
X158750000Y-38100000D03*
X156210000Y-38100000D03*
X153670000Y-38100000D03*
X166370000Y-38100000D03*
X168910000Y-38100000D03*
X171450000Y-38100000D03*
X153670000Y-40640000D03*
X153670000Y-43180000D03*
X153670000Y-45720000D03*
X153670000Y-48260000D03*
X153670000Y-50800000D03*
X153670000Y-53340000D03*
X153670000Y-55880000D03*
X153670000Y-58420000D03*
X151130000Y-40640000D03*
X151130000Y-43180000D03*
X151130000Y-45720000D03*
X151130000Y-48260000D03*
X151130000Y-50800000D03*
X151130000Y-53340000D03*
X151130000Y-55880000D03*
X151130000Y-58420000D03*
X151130000Y-60960000D03*
X153670000Y-60960000D03*
X156210000Y-60960000D03*
X158750000Y-60960000D03*
X161290000Y-60960000D03*
X163830000Y-60960000D03*
X166370000Y-60960000D03*
X168910000Y-60960000D03*
X171450000Y-60960000D03*
X176530000Y-60960000D03*
X153670000Y-63500000D03*
X156210000Y-63500000D03*
X158750000Y-63500000D03*
X161290000Y-63500000D03*
X163830000Y-63500000D03*
X166370000Y-63500000D03*
X168910000Y-63500000D03*
X171450000Y-63500000D03*
X173990000Y-63500000D03*
X173990000Y-60960000D03*
X173990000Y-58420000D03*
X173990000Y-55880000D03*
X173990000Y-53340000D03*
X173990000Y-50800000D03*
X173990000Y-48260000D03*
X173990000Y-45720000D03*
X173990000Y-43180000D03*
X173990000Y-38100000D03*
X176530000Y-58420000D03*
X176530000Y-55880000D03*
X176530000Y-53340000D03*
X176530000Y-50800000D03*
X176530000Y-48260000D03*
X176530000Y-45720000D03*
X176530000Y-43180000D03*
X176530000Y-40640000D03*
D14*
X184150000Y-33020000D03*
D15*
X186690000Y-33020000D03*
X189230000Y-33020000D03*
X191770000Y-33020000D03*
X194310000Y-33020000D03*
X196850000Y-33020000D03*
D16*
X190228800Y-87785600D03*
X190395400Y-77763000D03*
X185279600Y-42850000D03*
X178638600Y-65674400D03*
X175941600Y-71919300D03*
X168932400Y-86166900D03*
X172983500Y-77712100D03*
X191124100Y-72146500D03*
X168582000Y-48230500D03*
X193211700Y-47743500D03*
X192645800Y-57918400D03*
X163145500Y-71293000D03*
X154261400Y-80725700D03*
X180152900Y-49342400D03*
X143507300Y-65509500D03*
X157609000Y-77640900D03*
X170712500Y-72214700D03*
X194450700Y-96099300D03*
X177605100Y-96909700D03*
X171380600Y-97268800D03*
X166855100Y-77623000D03*
X192807900Y-70472200D03*
X193571700Y-43740600D03*
X191489500Y-77893700D03*
X192107400Y-45615600D03*
X190942600Y-41250000D03*
X184886700Y-44968600D03*
X185020700Y-40450000D03*
X123544200Y-74571400D03*
X190743600Y-63002900D03*
X190687100Y-51594300D03*
X165122900Y-66321500D03*
X190159300Y-76157000D03*
X180092500Y-36459100D03*
X167913200Y-76965300D03*
X184236500Y-76828100D03*
X187554300Y-58411000D03*
X189012000Y-51942500D03*
X134648400Y-55141200D03*
X201055400Y-70783700D03*
X167934400Y-74026200D03*
X171655800Y-70068300D03*
X159817500Y-69816200D03*
X155760200Y-72440500D03*
X132481600Y-56827900D03*
X189925400Y-73355400D03*
X189925400Y-71415200D03*
X189885400Y-68662100D03*
X162220200Y-72468600D03*
X148404500Y-85184300D03*
X130554700Y-81188900D03*
X137939500Y-70270400D03*
X128413300Y-60744200D03*
X158382500Y-76182000D03*
X200058600Y-68508500D03*
X200396300Y-72342500D03*
X169592700Y-57977800D03*
X200929700Y-59055000D03*
X200995900Y-64320000D03*
X198480900Y-71296900D03*
X172976100Y-68121700D03*
X170896500Y-65065900D03*
X175337000Y-63110600D03*
X190772500Y-64136100D03*
X187965200Y-51824600D03*
X165661400Y-68558700D03*
X158822200Y-83454900D03*
X178589700Y-63330300D03*
X177847900Y-60378900D03*
X161748300Y-34591100D03*
X151311000Y-63194000D03*
X149997500Y-62010100D03*
X179070000Y-43973700D03*
X181483100Y-73545900D03*
X177120100Y-75262200D03*
X181240300Y-74996600D03*
X158837800Y-75087400D03*
X166933600Y-66627000D03*
X181664100Y-66577000D03*
X181383300Y-75997000D03*
X180986300Y-78645200D03*
X176699000Y-78581000D03*
X143399400Y-47581600D03*
X176074300Y-80181900D03*
X182380500Y-80350300D03*
X180752200Y-81685100D03*
X171057400Y-81804500D03*
X176257600Y-81391000D03*
X142545700Y-77640500D03*
X148504400Y-73398100D03*
X182876200Y-83105500D03*
X180001300Y-38384500D03*
X167486000Y-55839700D03*
X142400200Y-79129400D03*
X148740700Y-75504600D03*
X172947000Y-82820000D03*
X178566300Y-38118900D03*
X181425500Y-83335700D03*
X178798600Y-58139500D03*
X178746700Y-53588100D03*
X180835100Y-80232000D03*
X190883100Y-45758200D03*
X196201300Y-80923000D03*
X163504100Y-80547400D03*
X172661600Y-70811100D03*
X177172000Y-80113400D03*
X149656800Y-80092000D03*
X159123400Y-70577100D03*
X180132200Y-69883200D03*
X192439100Y-56918000D03*
X192211300Y-47702700D03*
X155334400Y-36335000D03*
X162901800Y-34740000D03*
X142619100Y-37956700D03*
X190819400Y-44486900D03*
X194692100Y-87336200D03*
X194692100Y-37674700D03*
X153119200Y-88698100D03*
X196384000Y-44450000D03*
X168179700Y-86829000D03*
X179197000Y-56620700D03*
X185567300Y-55194300D03*
X183066600Y-87900000D03*
X125621300Y-72364100D03*
X152886400Y-67166900D03*
X179294300Y-55489200D03*
X196052800Y-49508600D03*
X196878800Y-55721900D03*
X187018900Y-95411400D03*
X194997200Y-94798800D03*
X189307900Y-66414000D03*
X163332900Y-95411800D03*
X172994400Y-95401900D03*
X186687700Y-61506600D03*
X185532800Y-93885700D03*
X190271800Y-93772000D03*
X190984900Y-94885000D03*
X191136700Y-61463300D03*
X184626000Y-95312400D03*
X186629700Y-63799800D03*
X191438300Y-91576600D03*
X194508100Y-91241900D03*
X176235000Y-91866400D03*
X163586300Y-91709400D03*
X193908100Y-66695500D03*
X183106900Y-91705400D03*
X195417600Y-88782100D03*
X197220900Y-61595000D03*
X196926700Y-92487200D03*
X196154800Y-63781400D03*
X198163100Y-89805000D03*
X198823800Y-66343200D03*
X186211200Y-90980100D03*
X186602000Y-43968200D03*
X186466200Y-45722400D03*
X180832600Y-93134200D03*
X162882500Y-92482200D03*
X167930200Y-93134200D03*
X142813900Y-62100900D03*
X143569800Y-61420300D03*
X144343900Y-67165300D03*
X150725100Y-66524000D03*
D17*
X191124100Y-72146500D02*
X191124100Y-66647500D01*
X191124100Y-66647500D02*
X192645800Y-65125800D01*
X192645800Y-65125800D02*
X192645800Y-57918400D01*
X190395400Y-77763000D02*
X191124100Y-77034300D01*
X191124100Y-77034300D02*
X191124100Y-72146500D01*
X192729300Y-46493400D02*
X190592400Y-46493400D01*
X190592400Y-46493400D02*
X189216000Y-45117000D01*
X189216000Y-45117000D02*
X189216000Y-44798600D01*
X189216000Y-44798600D02*
X187154700Y-42737300D01*
X187154700Y-42737300D02*
X185392300Y-42737300D01*
X185392300Y-42737300D02*
X185279600Y-42850000D01*
X190395400Y-77763000D02*
X190228800Y-77929600D01*
X190228800Y-77929600D02*
X190228800Y-87785600D01*
X157609000Y-77640900D02*
X158073800Y-77640900D01*
X158073800Y-77640900D02*
X163145500Y-72569200D01*
X163145500Y-72569200D02*
X163145500Y-71293000D01*
X194310000Y-34195300D02*
X192845800Y-35659500D01*
X192845800Y-35659500D02*
X192845800Y-46376900D01*
X192845800Y-46376900D02*
X192729300Y-46493400D01*
X193211700Y-47743500D02*
X193211700Y-46975800D01*
X193211700Y-46975800D02*
X192729300Y-46493400D01*
X175941600Y-71919300D02*
X178638600Y-69222300D01*
X178638600Y-69222300D02*
X178638600Y-65674400D01*
X172983500Y-77712100D02*
X172983500Y-74877400D01*
X172983500Y-74877400D02*
X175941600Y-71919300D01*
X168932400Y-86166900D02*
X168932400Y-81763200D01*
X168932400Y-81763200D02*
X172983500Y-77712100D01*
X176530000Y-45720000D02*
X180152400Y-49342400D01*
X180152400Y-49342400D02*
X180152900Y-49342400D01*
X192645800Y-57918400D02*
X193211700Y-57352500D01*
X193211700Y-57352500D02*
X193211700Y-47743500D01*
X168582000Y-48230500D02*
X153699500Y-48230500D01*
X153699500Y-48230500D02*
X153670000Y-48260000D01*
X194310000Y-33020000D02*
X194310000Y-34195300D01*
X157609000Y-77640900D02*
X157346200Y-77640900D01*
X157346200Y-77640900D02*
X154261400Y-80725700D01*
X146050000Y-63500000D02*
X144524700Y-63500000D01*
X173990000Y-45720000D02*
X176530000Y-45720000D01*
X144524700Y-63500000D02*
X144524700Y-64492100D01*
X144524700Y-64492100D02*
X143507300Y-65509500D01*
X194450700Y-96099300D02*
X194722500Y-96099300D01*
X194722500Y-96099300D02*
X195722500Y-95099300D01*
X195722500Y-95099300D02*
X195722500Y-94439000D01*
X195722500Y-94439000D02*
X194989500Y-93706000D01*
X194989500Y-93706000D02*
X192509700Y-93706000D01*
X192509700Y-93706000D02*
X190706200Y-91902500D01*
X190706200Y-91902500D02*
X190706200Y-88334000D01*
X190706200Y-88334000D02*
X191489500Y-87550700D01*
X191489500Y-87550700D02*
X191489500Y-77893700D01*
X192807900Y-70472200D02*
X192807900Y-66769700D01*
X192807900Y-66769700D02*
X193937100Y-65640500D01*
X193937100Y-65640500D02*
X193937100Y-44106000D01*
X193937100Y-44106000D02*
X193571700Y-43740600D01*
X166855100Y-77623000D02*
X166855100Y-76983700D01*
X166855100Y-76983700D02*
X170712500Y-73126300D01*
X170712500Y-73126300D02*
X170712500Y-72214700D01*
X171380600Y-97268800D02*
X164141500Y-97268800D01*
X164141500Y-97268800D02*
X162157200Y-95284500D01*
X162157200Y-95284500D02*
X162157200Y-86349000D01*
X162157200Y-86349000D02*
X166855100Y-81651100D01*
X166855100Y-81651100D02*
X166855100Y-77623000D01*
X194450700Y-96099300D02*
X193640300Y-96909700D01*
X193640300Y-96909700D02*
X177605100Y-96909700D01*
X192807900Y-70472200D02*
X192807900Y-76575300D01*
X192807900Y-76575300D02*
X191489500Y-77893700D01*
X177605100Y-96909700D02*
X171739700Y-96909700D01*
X171739700Y-96909700D02*
X171380600Y-97268800D01*
X193571700Y-43740600D02*
X193571700Y-37473600D01*
X193571700Y-37473600D02*
X196850000Y-34195300D01*
X196850000Y-33020000D02*
X196850000Y-34195300D01*
X192107400Y-45615600D02*
X192191400Y-45531600D01*
X192191400Y-45531600D02*
X192191400Y-34616700D01*
X192191400Y-34616700D02*
X191770000Y-34195300D01*
X191770000Y-33020000D02*
X191770000Y-34195300D01*
X189230000Y-34195300D02*
X190942600Y-35907900D01*
X190942600Y-35907900D02*
X190942600Y-41250000D01*
X189230000Y-33020000D02*
X189230000Y-34195300D01*
X184150000Y-34195300D02*
X184295300Y-34340600D01*
X184295300Y-34340600D02*
X184295300Y-44377200D01*
X184295300Y-44377200D02*
X184886700Y-44968600D01*
X184150000Y-33020000D02*
X184150000Y-34195300D01*
X186690000Y-34195300D02*
X185020700Y-35864600D01*
X185020700Y-35864600D02*
X185020700Y-40450000D01*
X186690000Y-33020000D02*
X186690000Y-34195300D01*
X120650000Y-35560000D02*
X119124700Y-35560000D01*
X119124700Y-35560000D02*
X118670300Y-36014400D01*
X118670300Y-36014400D02*
X118670300Y-73725800D01*
X118670300Y-73725800D02*
X119785900Y-74841400D01*
X119785900Y-74841400D02*
X123274200Y-74841400D01*
X123274200Y-74841400D02*
X123544200Y-74571400D01*
X165122900Y-66321500D02*
X165122900Y-66462000D01*
X165122900Y-66462000D02*
X149166900Y-82418000D01*
X149166900Y-82418000D02*
X145402700Y-82418000D01*
X145402700Y-82418000D02*
X142680300Y-85140400D01*
X142680300Y-85140400D02*
X142680300Y-105472500D01*
X142680300Y-105472500D02*
X145302400Y-108094600D01*
X145302400Y-108094600D02*
X147160700Y-108094600D01*
X147160700Y-108094600D02*
X148080800Y-109014700D01*
X148080800Y-109014700D02*
X148080800Y-113794500D01*
X148080800Y-113794500D02*
X147575300Y-114300000D01*
X190687100Y-51594300D02*
X190411400Y-51870000D01*
X190411400Y-51870000D02*
X190411400Y-62670700D01*
X190411400Y-62670700D02*
X190743600Y-63002900D01*
X146050000Y-114300000D02*
X147575300Y-114300000D01*
X184541100Y-45741200D02*
X184541100Y-76523500D01*
X184541100Y-76523500D02*
X184236500Y-76828100D01*
X180092500Y-36459100D02*
X183845000Y-40211600D01*
X183845000Y-40211600D02*
X183845000Y-45045100D01*
X183845000Y-45045100D02*
X184541100Y-45741200D01*
X184541100Y-45741200D02*
X185209700Y-45741200D01*
X185209700Y-45741200D02*
X185667500Y-45283400D01*
X185667500Y-45283400D02*
X185667500Y-43867300D01*
X185667500Y-43867300D02*
X186303300Y-43231500D01*
X186303300Y-43231500D02*
X186932600Y-43231500D01*
X186932600Y-43231500D02*
X188606400Y-44905300D01*
X188606400Y-44905300D02*
X188606400Y-46949700D01*
X188606400Y-46949700D02*
X191655400Y-49998700D01*
X191655400Y-49998700D02*
X191655400Y-58237000D01*
X191655400Y-58237000D02*
X191959800Y-58541400D01*
X191959800Y-58541400D02*
X191959800Y-65100300D01*
X191959800Y-65100300D02*
X189150600Y-67909500D01*
X189150600Y-67909500D02*
X189150600Y-75148300D01*
X189150600Y-75148300D02*
X190159300Y-76157000D01*
X184236500Y-76828100D02*
X184236500Y-82785200D01*
X184236500Y-82785200D02*
X179467400Y-87554300D01*
X179467400Y-87554300D02*
X167879300Y-87554300D01*
X167879300Y-87554300D02*
X167454400Y-87129400D01*
X167454400Y-87129400D02*
X167454400Y-86528600D01*
X167454400Y-86528600D02*
X167683800Y-86299200D01*
X167683800Y-86299200D02*
X167683800Y-77194700D01*
X167683800Y-77194700D02*
X167913200Y-76965300D01*
X189012000Y-51942500D02*
X189012000Y-56953300D01*
X189012000Y-56953300D02*
X187554300Y-58411000D01*
X166370000Y-63500000D02*
X166281800Y-63500000D01*
X166281800Y-63500000D02*
X161181500Y-68600300D01*
X161181500Y-68600300D02*
X158516300Y-68600300D01*
X158516300Y-68600300D02*
X154647600Y-72469000D01*
X154647600Y-72469000D02*
X154647600Y-72587400D01*
X154647600Y-72587400D02*
X147225000Y-80010000D01*
X147225000Y-80010000D02*
X145295900Y-80010000D01*
X145295900Y-80010000D02*
X142229900Y-83076000D01*
X142229900Y-83076000D02*
X142229900Y-109465200D01*
X142229900Y-109465200D02*
X144524700Y-111760000D01*
X146050000Y-111760000D02*
X144524700Y-111760000D01*
X122175300Y-40640000D02*
X134648400Y-53113100D01*
X134648400Y-53113100D02*
X134648400Y-55141200D01*
X120650000Y-40640000D02*
X122175300Y-40640000D01*
X146050000Y-109220000D02*
X147575300Y-109220000D01*
X201055400Y-70783700D02*
X201133000Y-70861300D01*
X201133000Y-70861300D02*
X201133000Y-94300100D01*
X201133000Y-94300100D02*
X194282400Y-101150700D01*
X194282400Y-101150700D02*
X153004600Y-101150700D01*
X153004600Y-101150700D02*
X148623500Y-105531800D01*
X148623500Y-105531800D02*
X148623500Y-113888700D01*
X148623500Y-113888700D02*
X147071000Y-115441200D01*
X147071000Y-115441200D02*
X145195200Y-115441200D01*
X145195200Y-115441200D02*
X144497200Y-114743200D01*
X144497200Y-114743200D02*
X144497200Y-113788400D01*
X144497200Y-113788400D02*
X145255600Y-113030000D01*
X145255600Y-113030000D02*
X146809000Y-113030000D01*
X146809000Y-113030000D02*
X147575300Y-112263700D01*
X147575300Y-112263700D02*
X147575300Y-109220000D01*
X189925400Y-71415200D02*
X189925400Y-73355400D01*
X167934400Y-74026200D02*
X167934400Y-73330200D01*
X167934400Y-73330200D02*
X171196300Y-70068300D01*
X171196300Y-70068300D02*
X171655800Y-70068300D01*
X155760200Y-72440500D02*
X158384500Y-69816200D01*
X158384500Y-69816200D02*
X159817500Y-69816200D01*
X189925400Y-71415200D02*
X189885400Y-71375200D01*
X189885400Y-71375200D02*
X189885400Y-68662100D01*
X120650000Y-43180000D02*
X122175300Y-43180000D01*
X122175300Y-43180000D02*
X132481600Y-53486300D01*
X132481600Y-53486300D02*
X132481600Y-56827900D01*
X146050000Y-106680000D02*
X144524700Y-106680000D01*
X168910000Y-63500000D02*
X168910000Y-63624600D01*
X168910000Y-63624600D02*
X147444600Y-85090000D01*
X147444600Y-85090000D02*
X145295900Y-85090000D01*
X145295900Y-85090000D02*
X143130700Y-87255200D01*
X143130700Y-87255200D02*
X143130700Y-105286000D01*
X143130700Y-105286000D02*
X144524700Y-106680000D01*
X130554700Y-81188900D02*
X130554700Y-78625100D01*
X130554700Y-78625100D02*
X137939500Y-71240300D01*
X137939500Y-71240300D02*
X137939500Y-70270400D01*
X158382500Y-76182000D02*
X158774700Y-76182000D01*
X158774700Y-76182000D02*
X162220200Y-72736500D01*
X162220200Y-72736500D02*
X162220200Y-72468600D01*
X148404500Y-85184300D02*
X157406800Y-76182000D01*
X157406800Y-76182000D02*
X158382500Y-76182000D01*
X120650000Y-45720000D02*
X122175300Y-45720000D01*
X122175300Y-45720000D02*
X122175300Y-54506200D01*
X122175300Y-54506200D02*
X128413300Y-60744200D01*
X200396300Y-72342500D02*
X200396300Y-94371500D01*
X200396300Y-94371500D02*
X194517800Y-100250000D01*
X194517800Y-100250000D02*
X151465300Y-100250000D01*
X151465300Y-100250000D02*
X147575300Y-104140000D01*
X200058600Y-68508500D02*
X200330100Y-68780000D01*
X200330100Y-68780000D02*
X200330100Y-72276300D01*
X200330100Y-72276300D02*
X200396300Y-72342500D01*
X168910000Y-60960000D02*
X169592700Y-60277300D01*
X169592700Y-60277300D02*
X169592700Y-57977800D01*
X146050000Y-104140000D02*
X147575300Y-104140000D01*
X171450000Y-63500000D02*
X171630100Y-63680100D01*
X171630100Y-63680100D02*
X171630100Y-66176000D01*
X171630100Y-66176000D02*
X164946700Y-72859400D01*
X164946700Y-72859400D02*
X164946700Y-73335400D01*
X164946700Y-73335400D02*
X148112100Y-90170000D01*
X148112100Y-90170000D02*
X145273800Y-90170000D01*
X145273800Y-90170000D02*
X144059100Y-91384700D01*
X144059100Y-91384700D02*
X144059100Y-96698300D01*
X144059100Y-96698300D02*
X145076900Y-97716100D01*
X145076900Y-97716100D02*
X146748100Y-97716100D01*
X146748100Y-97716100D02*
X147575300Y-98543300D01*
X147575300Y-98543300D02*
X147575300Y-99349400D01*
X147575300Y-99349400D02*
X194144600Y-99349400D01*
X194144600Y-99349400D02*
X199338700Y-94155300D01*
X199338700Y-94155300D02*
X199338700Y-89150100D01*
X199338700Y-89150100D02*
X199206300Y-89017700D01*
X199206300Y-89017700D02*
X199206300Y-70934400D01*
X199206300Y-70934400D02*
X198838600Y-70566700D01*
X198838600Y-70566700D02*
X198838600Y-67588800D01*
X198838600Y-67588800D02*
X199778600Y-66648800D01*
X199778600Y-66648800D02*
X199778600Y-60206100D01*
X199778600Y-60206100D02*
X200929700Y-59055000D01*
X147575300Y-101600000D02*
X147575300Y-99349400D01*
X146050000Y-101600000D02*
X147575300Y-101600000D01*
X171450000Y-60960000D02*
X170020700Y-62389300D01*
X170020700Y-62389300D02*
X170020700Y-66511600D01*
X170020700Y-66511600D02*
X164046100Y-72486200D01*
X164046100Y-72486200D02*
X164046100Y-72942400D01*
X164046100Y-72942400D02*
X149358500Y-87630000D01*
X149358500Y-87630000D02*
X145300200Y-87630000D01*
X145300200Y-87630000D02*
X143581100Y-89349100D01*
X143581100Y-89349100D02*
X143581100Y-97353700D01*
X143581100Y-97353700D02*
X145287400Y-99060000D01*
X144524700Y-99060000D02*
X144524700Y-102092600D01*
X144524700Y-102092600D02*
X145157500Y-102725400D01*
X145157500Y-102725400D02*
X147231100Y-102725400D01*
X147231100Y-102725400D02*
X150156800Y-99799700D01*
X150156800Y-99799700D02*
X194331200Y-99799700D01*
X194331200Y-99799700D02*
X199789000Y-94341900D01*
X199789000Y-94341900D02*
X199789000Y-88963500D01*
X199789000Y-88963500D02*
X199656600Y-88831100D01*
X199656600Y-88831100D02*
X199656600Y-70382600D01*
X199656600Y-70382600D02*
X199288900Y-70014900D01*
X199288900Y-70014900D02*
X199288900Y-67775400D01*
X199288900Y-67775400D02*
X200995900Y-66068400D01*
X200995900Y-66068400D02*
X200995900Y-64320000D01*
X145287400Y-99060000D02*
X144524700Y-99060000D01*
X146050000Y-99060000D02*
X145287400Y-99060000D01*
X173990000Y-63500000D02*
X173990000Y-65089900D01*
X173990000Y-65089900D02*
X165847300Y-73232600D01*
X165847300Y-73232600D02*
X165847300Y-73819700D01*
X165847300Y-73819700D02*
X146812400Y-92854600D01*
X146812400Y-92854600D02*
X145143800Y-92854600D01*
X145143800Y-92854600D02*
X144524700Y-93473700D01*
X144524700Y-93473700D02*
X144524700Y-96520000D01*
X146050000Y-96520000D02*
X159938800Y-96520000D01*
X159938800Y-96520000D02*
X162317900Y-98899100D01*
X162317900Y-98899100D02*
X193950500Y-98899100D01*
X193950500Y-98899100D02*
X198888400Y-93961200D01*
X198888400Y-93961200D02*
X198888400Y-89336700D01*
X198888400Y-89336700D02*
X198480900Y-88929200D01*
X198480900Y-88929200D02*
X198480900Y-71296900D01*
X146050000Y-96520000D02*
X144524700Y-96520000D01*
X172976100Y-68121700D02*
X171869100Y-68121700D01*
X171869100Y-68121700D02*
X166297600Y-73693200D01*
X166297600Y-73693200D02*
X166297600Y-74056100D01*
X166297600Y-74056100D02*
X147575300Y-92778400D01*
X147575300Y-92778400D02*
X147575300Y-93980000D01*
X146050000Y-93980000D02*
X147575300Y-93980000D01*
X176530000Y-60960000D02*
X176530000Y-64567800D01*
X176530000Y-64567800D02*
X172976100Y-68121700D01*
X173990000Y-60960000D02*
X172546500Y-62403500D01*
X172546500Y-62403500D02*
X172546500Y-65896500D01*
X172546500Y-65896500D02*
X165397000Y-73046000D01*
X165397000Y-73046000D02*
X165397000Y-73618300D01*
X165397000Y-73618300D02*
X147575300Y-91440000D01*
X146050000Y-91440000D02*
X147575300Y-91440000D01*
X170896500Y-65065900D02*
X170896500Y-66272700D01*
X170896500Y-66272700D02*
X164496400Y-72672800D01*
X164496400Y-72672800D02*
X164496400Y-73129000D01*
X164496400Y-73129000D02*
X148725400Y-88900000D01*
X148725400Y-88900000D02*
X146050000Y-88900000D01*
X176530000Y-58420000D02*
X175337000Y-59613000D01*
X175337000Y-59613000D02*
X175337000Y-63110600D01*
X165661400Y-68558700D02*
X165661400Y-70234000D01*
X165661400Y-70234000D02*
X163595800Y-72299600D01*
X163595800Y-72299600D02*
X163595800Y-72755800D01*
X163595800Y-72755800D02*
X149991600Y-86360000D01*
X149991600Y-86360000D02*
X146050000Y-86360000D01*
X190772500Y-64136100D02*
X186826800Y-60190400D01*
X186826800Y-60190400D02*
X186826800Y-58044700D01*
X186826800Y-58044700D02*
X187965200Y-56906300D01*
X187965200Y-56906300D02*
X187965200Y-51824600D01*
X178589700Y-63330300D02*
X178589700Y-63544800D01*
X178589700Y-63544800D02*
X173195300Y-68939200D01*
X173195300Y-68939200D02*
X171688500Y-68939200D01*
X171688500Y-68939200D02*
X166907200Y-73720500D01*
X166907200Y-73720500D02*
X166907200Y-75369900D01*
X166907200Y-75369900D02*
X158822200Y-83454900D01*
X176530000Y-55880000D02*
X178021500Y-57371500D01*
X178021500Y-57371500D02*
X178021500Y-59308800D01*
X178021500Y-59308800D02*
X178589700Y-59877000D01*
X178589700Y-59877000D02*
X178589700Y-63330300D01*
X173990000Y-55880000D02*
X170339400Y-59530600D01*
X170339400Y-59530600D02*
X170339400Y-61021900D01*
X170339400Y-61021900D02*
X168897900Y-62463400D01*
X168897900Y-62463400D02*
X168426100Y-62463400D01*
X168426100Y-62463400D02*
X167578200Y-63311300D01*
X167578200Y-63311300D02*
X167578200Y-63758500D01*
X167578200Y-63758500D02*
X165740500Y-65596200D01*
X165740500Y-65596200D02*
X164822500Y-65596200D01*
X164822500Y-65596200D02*
X164397600Y-66021100D01*
X164397600Y-66021100D02*
X164397600Y-66439700D01*
X164397600Y-66439700D02*
X149557300Y-81280000D01*
X149557300Y-81280000D02*
X147575300Y-81280000D01*
X173990000Y-55880000D02*
X175260000Y-57150000D01*
X175260000Y-57150000D02*
X176799500Y-57150000D01*
X176799500Y-57150000D02*
X177571100Y-57921600D01*
X177571100Y-57921600D02*
X177571100Y-60102100D01*
X177571100Y-60102100D02*
X177847900Y-60378900D01*
X146050000Y-81280000D02*
X147575300Y-81280000D01*
X145183400Y-46860500D02*
X144056000Y-45733100D01*
X144056000Y-45733100D02*
X144056000Y-35542500D01*
X144056000Y-35542500D02*
X145176800Y-34421700D01*
X145176800Y-34421700D02*
X161578900Y-34421700D01*
X161578900Y-34421700D02*
X161748300Y-34591100D01*
X145183400Y-46860500D02*
X148180800Y-46860500D01*
X148180800Y-46860500D02*
X150357900Y-44683400D01*
X150357900Y-44683400D02*
X152633400Y-44683400D01*
X152633400Y-44683400D02*
X153670000Y-45720000D01*
X122175300Y-71120000D02*
X139001800Y-54293500D01*
X139001800Y-54293500D02*
X139001900Y-54293500D01*
X139001900Y-54293500D02*
X139001900Y-53042000D01*
X139001900Y-53042000D02*
X145183400Y-46860500D01*
X120650000Y-71120000D02*
X122175300Y-71120000D01*
X176530000Y-53340000D02*
X175260000Y-54610000D01*
X175260000Y-54610000D02*
X171934800Y-54610000D01*
X171934800Y-54610000D02*
X167640000Y-58904800D01*
X167640000Y-58904800D02*
X167640000Y-61218100D01*
X167640000Y-61218100D02*
X166861500Y-61996600D01*
X166861500Y-61996600D02*
X166394300Y-61996600D01*
X166394300Y-61996600D02*
X165259200Y-63131700D01*
X165259200Y-63131700D02*
X165259200Y-63547100D01*
X165259200Y-63547100D02*
X161535200Y-67271100D01*
X161535200Y-67271100D02*
X159208600Y-67271100D01*
X159208600Y-67271100D02*
X154197300Y-72282400D01*
X154197300Y-72282400D02*
X154197300Y-72400800D01*
X154197300Y-72400800D02*
X147858100Y-78740000D01*
X147858100Y-78740000D02*
X147575300Y-78740000D01*
X146050000Y-78740000D02*
X147575300Y-78740000D01*
X173990000Y-53340000D02*
X172492800Y-53340000D01*
X172492800Y-53340000D02*
X165100000Y-60732800D01*
X165100000Y-60732800D02*
X165100000Y-61206800D01*
X165100000Y-61206800D02*
X164310200Y-61996600D01*
X164310200Y-61996600D02*
X163854300Y-61996600D01*
X163854300Y-61996600D02*
X162560000Y-63290900D01*
X162560000Y-63290900D02*
X162560000Y-63781900D01*
X162560000Y-63781900D02*
X159971400Y-66370500D01*
X159971400Y-66370500D02*
X158835400Y-66370500D01*
X158835400Y-66370500D02*
X153296700Y-71909200D01*
X153296700Y-71909200D02*
X153296700Y-72027600D01*
X153296700Y-72027600D02*
X149081900Y-76242400D01*
X149081900Y-76242400D02*
X147617700Y-76242400D01*
X147617700Y-76242400D02*
X147575300Y-76200000D01*
X146050000Y-76200000D02*
X147575300Y-76200000D01*
X173990000Y-50800000D02*
X167389800Y-50800000D01*
X167389800Y-50800000D02*
X157246600Y-60943200D01*
X157246600Y-60943200D02*
X157246600Y-61443900D01*
X157246600Y-61443900D02*
X156308500Y-62382000D01*
X156308500Y-62382000D02*
X153298800Y-62382000D01*
X153298800Y-62382000D02*
X152613600Y-63067200D01*
X152613600Y-63067200D02*
X152613600Y-63609900D01*
X152613600Y-63609900D02*
X150743300Y-65480200D01*
X150743300Y-65480200D02*
X150743200Y-65480200D01*
X150743200Y-65480200D02*
X149999800Y-66223600D01*
X149999800Y-66223600D02*
X149999800Y-68695500D01*
X149999800Y-68695500D02*
X147575300Y-71120000D01*
X146050000Y-71120000D02*
X147575300Y-71120000D01*
X151311000Y-63194000D02*
X151311000Y-63424300D01*
X151311000Y-63424300D02*
X146155300Y-68580000D01*
X146155300Y-68580000D02*
X146050000Y-68580000D01*
X146050000Y-66040000D02*
X146175700Y-66040000D01*
X146175700Y-66040000D02*
X149997500Y-62218200D01*
X149997500Y-62218200D02*
X149997500Y-62010100D01*
X179070000Y-43973700D02*
X178276300Y-43180000D01*
X178276300Y-43180000D02*
X176530000Y-43180000D01*
X173990000Y-43180000D02*
X175260000Y-41910000D01*
X175260000Y-41910000D02*
X175260000Y-40346800D01*
X175260000Y-40346800D02*
X176003500Y-39603300D01*
X176003500Y-39603300D02*
X177004500Y-39603300D01*
X177004500Y-39603300D02*
X180572400Y-43171200D01*
X180572400Y-43171200D02*
X180572400Y-47001000D01*
X180572400Y-47001000D02*
X181839300Y-48267900D01*
X181839300Y-48267900D02*
X181839300Y-73189700D01*
X181839300Y-73189700D02*
X181483100Y-73545900D01*
X180757800Y-74724400D02*
X177657900Y-74724400D01*
X177657900Y-74724400D02*
X177120100Y-75262200D01*
X181240300Y-74996600D02*
X181030000Y-74996600D01*
X181030000Y-74996600D02*
X180757800Y-74724400D01*
X181389000Y-66577000D02*
X181389000Y-72614300D01*
X181389000Y-72614300D02*
X180757800Y-73245500D01*
X180757800Y-73245500D02*
X180757800Y-74724400D01*
X176530000Y-40640000D02*
X176762100Y-40640000D01*
X176762100Y-40640000D02*
X179795300Y-43673200D01*
X179795300Y-43673200D02*
X179795300Y-46860800D01*
X179795300Y-46860800D02*
X181389000Y-48454500D01*
X181389000Y-48454500D02*
X181389000Y-66577000D01*
X181389000Y-66577000D02*
X181664100Y-66577000D01*
X158837800Y-75087400D02*
X158837800Y-74333800D01*
X158837800Y-74333800D02*
X166544600Y-66627000D01*
X166544600Y-66627000D02*
X166933600Y-66627000D01*
X173990000Y-38100000D02*
X176138100Y-38100000D01*
X176138100Y-38100000D02*
X181077200Y-43039100D01*
X181077200Y-43039100D02*
X181077200Y-46635100D01*
X181077200Y-46635100D02*
X182289600Y-47847500D01*
X182289600Y-47847500D02*
X182289600Y-75090700D01*
X182289600Y-75090700D02*
X181383300Y-75997000D01*
X173990000Y-40640000D02*
X172951400Y-41678600D01*
X172951400Y-41678600D02*
X172951400Y-43620300D01*
X172951400Y-43620300D02*
X173621800Y-44290700D01*
X173621800Y-44290700D02*
X176588300Y-44290700D01*
X176588300Y-44290700D02*
X180938700Y-48641100D01*
X180938700Y-48641100D02*
X180938700Y-70417900D01*
X180938700Y-70417900D02*
X176394800Y-74961800D01*
X176394800Y-74961800D02*
X176394800Y-78276800D01*
X176394800Y-78276800D02*
X176699000Y-78581000D01*
X180986300Y-78645200D02*
X176763200Y-78645200D01*
X176763200Y-78645200D02*
X176699000Y-78581000D01*
X171450000Y-38100000D02*
X172945800Y-36604200D01*
X172945800Y-36604200D02*
X176004000Y-36604200D01*
X176004000Y-36604200D02*
X182269000Y-42869200D01*
X182269000Y-42869200D02*
X182269000Y-45868000D01*
X182269000Y-45868000D02*
X183190200Y-46789200D01*
X183190200Y-46789200D02*
X183190200Y-75523300D01*
X183190200Y-75523300D02*
X182559000Y-76154500D01*
X182559000Y-76154500D02*
X182559000Y-80171800D01*
X182559000Y-80171800D02*
X182380500Y-80350300D01*
X171450000Y-38100000D02*
X167215800Y-33865800D01*
X167215800Y-33865800D02*
X145075900Y-33865800D01*
X145075900Y-33865800D02*
X143399400Y-35542300D01*
X143399400Y-35542300D02*
X143399400Y-47581600D01*
X182380500Y-80350300D02*
X181771000Y-80959800D01*
X181771000Y-80959800D02*
X176852200Y-80959800D01*
X176852200Y-80959800D02*
X176074300Y-80181900D01*
X176257600Y-81391000D02*
X176551700Y-81685100D01*
X176551700Y-81685100D02*
X180752200Y-81685100D01*
X176257600Y-81391000D02*
X176010400Y-81391000D01*
X176010400Y-81391000D02*
X175234200Y-80614800D01*
X175234200Y-80614800D02*
X175234200Y-73977100D01*
X175234200Y-73977100D02*
X179363900Y-69847400D01*
X179363900Y-69847400D02*
X179363900Y-64670500D01*
X179363900Y-64670500D02*
X180035200Y-63999200D01*
X180035200Y-63999200D02*
X180035200Y-52821800D01*
X180035200Y-52821800D02*
X176510000Y-49296600D01*
X176510000Y-49296600D02*
X173537400Y-49296600D01*
X173537400Y-49296600D02*
X171450000Y-47209200D01*
X171450000Y-47209200D02*
X171450000Y-44224800D01*
X146050000Y-45720000D02*
X147575300Y-45720000D01*
X171450000Y-44224800D02*
X149070500Y-44224800D01*
X149070500Y-44224800D02*
X147575300Y-45720000D01*
X171450000Y-44224800D02*
X171450000Y-40640000D01*
X175234200Y-80614800D02*
X172247100Y-80614800D01*
X172247100Y-80614800D02*
X171057400Y-81804500D01*
X120650000Y-106680000D02*
X122175300Y-106680000D01*
X142545700Y-77640500D02*
X123809000Y-96377200D01*
X123809000Y-96377200D02*
X123809000Y-105046300D01*
X123809000Y-105046300D02*
X122175300Y-106680000D01*
X158750000Y-60960000D02*
X157480000Y-62230000D01*
X157480000Y-62230000D02*
X157480000Y-64422500D01*
X157480000Y-64422500D02*
X148504400Y-73398100D01*
X180001300Y-38384500D02*
X183394600Y-41777800D01*
X183394600Y-41777800D02*
X183394600Y-45594800D01*
X183394600Y-45594800D02*
X184090800Y-46291000D01*
X184090800Y-46291000D02*
X184090800Y-75896500D01*
X184090800Y-75896500D02*
X183459600Y-76527700D01*
X183459600Y-76527700D02*
X183459600Y-77128400D01*
X183459600Y-77128400D02*
X183572100Y-77240900D01*
X183572100Y-77240900D02*
X183572100Y-82409600D01*
X183572100Y-82409600D02*
X182876200Y-83105500D01*
X146050000Y-43180000D02*
X144524700Y-43180000D01*
X168910000Y-38100000D02*
X167873400Y-37063400D01*
X167873400Y-37063400D02*
X147213600Y-37063400D01*
X147213600Y-37063400D02*
X147096900Y-36946700D01*
X147096900Y-36946700D02*
X145179200Y-36946700D01*
X145179200Y-36946700D02*
X144524700Y-37601200D01*
X144524700Y-37601200D02*
X144524700Y-43180000D01*
X161290000Y-63500000D02*
X161069000Y-63500000D01*
X161069000Y-63500000D02*
X149064400Y-75504600D01*
X149064400Y-75504600D02*
X148740700Y-75504600D01*
X122175300Y-109220000D02*
X124409000Y-106986300D01*
X124409000Y-106986300D02*
X124409000Y-97120600D01*
X124409000Y-97120600D02*
X142400200Y-79129400D01*
X167486000Y-55839700D02*
X167428800Y-55839700D01*
X167428800Y-55839700D02*
X162726300Y-60542200D01*
X162726300Y-60542200D02*
X162726300Y-62063700D01*
X162726300Y-62063700D02*
X161290000Y-63500000D01*
X120650000Y-109220000D02*
X122175300Y-109220000D01*
X178566300Y-38118900D02*
X182944300Y-42496900D01*
X182944300Y-42496900D02*
X182944300Y-45906400D01*
X182944300Y-45906400D02*
X183640500Y-46602600D01*
X183640500Y-46602600D02*
X183640500Y-75709900D01*
X183640500Y-75709900D02*
X183009300Y-76341100D01*
X183009300Y-76341100D02*
X183009300Y-77315100D01*
X183009300Y-77315100D02*
X183121800Y-77427600D01*
X183121800Y-77427600D02*
X183121800Y-81123700D01*
X183121800Y-81123700D02*
X181425500Y-82820000D01*
X181425500Y-82820000D02*
X172947000Y-82820000D01*
X181425500Y-82820000D02*
X181425500Y-83335700D01*
X146050000Y-40640000D02*
X147575300Y-40640000D01*
X168910000Y-40640000D02*
X167873500Y-39603500D01*
X167873500Y-39603500D02*
X148611800Y-39603500D01*
X148611800Y-39603500D02*
X147575300Y-40640000D01*
X178464400Y-53654900D02*
X178464400Y-56913900D01*
X178464400Y-56913900D02*
X178798600Y-57248100D01*
X178798600Y-57248100D02*
X178798600Y-58139500D01*
X178464400Y-53654900D02*
X177067600Y-52258100D01*
X177067600Y-52258100D02*
X169991900Y-52258100D01*
X169991900Y-52258100D02*
X161290000Y-60960000D01*
X178746700Y-53588100D02*
X178531200Y-53588100D01*
X178531200Y-53588100D02*
X178464400Y-53654900D01*
X122175300Y-111760000D02*
X126496300Y-107439000D01*
X126496300Y-107439000D02*
X126496300Y-96059100D01*
X126496300Y-96059100D02*
X143252500Y-79302900D01*
X143252500Y-79302900D02*
X143252500Y-77959500D01*
X143252500Y-77959500D02*
X143271000Y-77941000D01*
X143271000Y-77941000D02*
X143271000Y-76985400D01*
X143271000Y-76985400D02*
X145326400Y-74930000D01*
X145326400Y-74930000D02*
X147870700Y-74930000D01*
X147870700Y-74930000D02*
X148538200Y-74262500D01*
X148538200Y-74262500D02*
X149467600Y-74262500D01*
X149467600Y-74262500D02*
X160020000Y-63710100D01*
X160020000Y-63710100D02*
X160020000Y-62230000D01*
X160020000Y-62230000D02*
X161290000Y-60960000D01*
X120650000Y-111760000D02*
X122175300Y-111760000D01*
X166370000Y-38100000D02*
X167412400Y-39142400D01*
X167412400Y-39142400D02*
X171915200Y-39142400D01*
X171915200Y-39142400D02*
X172720000Y-38337600D01*
X172720000Y-38337600D02*
X172720000Y-37902200D01*
X172720000Y-37902200D02*
X173567600Y-37054600D01*
X173567600Y-37054600D02*
X175817500Y-37054600D01*
X175817500Y-37054600D02*
X181818700Y-43055800D01*
X181818700Y-43055800D02*
X181818700Y-46739700D01*
X181818700Y-46739700D02*
X182739900Y-47660900D01*
X182739900Y-47660900D02*
X182739900Y-75336700D01*
X182739900Y-75336700D02*
X182108700Y-75967900D01*
X182108700Y-75967900D02*
X182108700Y-78958400D01*
X182108700Y-78958400D02*
X180835100Y-80232000D01*
X147575300Y-38100000D02*
X148611800Y-39136500D01*
X148611800Y-39136500D02*
X165333500Y-39136500D01*
X165333500Y-39136500D02*
X166370000Y-38100000D01*
X146050000Y-38100000D02*
X147575300Y-38100000D01*
X133644600Y-104600400D02*
X144948000Y-115903800D01*
X144948000Y-115903800D02*
X147256600Y-115903800D01*
X147256600Y-115903800D02*
X149484700Y-113675700D01*
X149484700Y-113675700D02*
X149484700Y-105307500D01*
X149484700Y-105307500D02*
X152966200Y-101826000D01*
X152966200Y-101826000D02*
X194272400Y-101826000D01*
X194272400Y-101826000D02*
X201795900Y-94302500D01*
X201795900Y-94302500D02*
X201795900Y-36219200D01*
X201795900Y-36219200D02*
X197399400Y-31822700D01*
X197399400Y-31822700D02*
X191242000Y-31822700D01*
X191242000Y-31822700D02*
X190590000Y-32474700D01*
X190590000Y-32474700D02*
X190590000Y-34495000D01*
X190590000Y-34495000D02*
X191687500Y-35592500D01*
X191687500Y-35592500D02*
X191687500Y-44953800D01*
X191687500Y-44953800D02*
X190883100Y-45758200D01*
X163830000Y-63500000D02*
X160509200Y-66820800D01*
X160509200Y-66820800D02*
X159022000Y-66820800D01*
X159022000Y-66820800D02*
X153747000Y-72095800D01*
X153747000Y-72095800D02*
X153747000Y-72214200D01*
X153747000Y-72214200D02*
X148425300Y-77535900D01*
X148425300Y-77535900D02*
X145248700Y-77535900D01*
X145248700Y-77535900D02*
X143702900Y-79081700D01*
X143702900Y-79081700D02*
X143702900Y-79753100D01*
X143702900Y-79753100D02*
X133644600Y-89811400D01*
X133644600Y-89811400D02*
X133644600Y-104600400D01*
X122175300Y-114300000D02*
X131874900Y-104600400D01*
X131874900Y-104600400D02*
X133644600Y-104600400D01*
X120650000Y-114300000D02*
X122175300Y-114300000D01*
X163504100Y-80547400D02*
X161706800Y-82344700D01*
X161706800Y-82344700D02*
X161706800Y-95478300D01*
X161706800Y-95478300D02*
X164222600Y-97994100D01*
X164222600Y-97994100D02*
X193581700Y-97994100D01*
X193581700Y-97994100D02*
X196201300Y-95374500D01*
X196201300Y-95374500D02*
X196201300Y-80923000D01*
X180132200Y-69883200D02*
X175944500Y-74070900D01*
X175944500Y-74070900D02*
X175944500Y-78885900D01*
X175944500Y-78885900D02*
X177172000Y-80113400D01*
X166370000Y-40640000D02*
X167406600Y-41676600D01*
X167406600Y-41676600D02*
X169352500Y-41676600D01*
X169352500Y-41676600D02*
X170184800Y-40844300D01*
X170184800Y-40844300D02*
X170184800Y-40377100D01*
X170184800Y-40377100D02*
X170963300Y-39598600D01*
X170963300Y-39598600D02*
X171917900Y-39598600D01*
X171917900Y-39598600D02*
X172501000Y-40181700D01*
X172501000Y-40181700D02*
X172501000Y-45699100D01*
X172501000Y-45699100D02*
X173791900Y-46990000D01*
X173791900Y-46990000D02*
X176776900Y-46990000D01*
X176776900Y-46990000D02*
X178515400Y-48728500D01*
X178515400Y-48728500D02*
X178515400Y-49889600D01*
X178515400Y-49889600D02*
X180488400Y-51862600D01*
X180488400Y-51862600D02*
X180488400Y-69527000D01*
X180488400Y-69527000D02*
X180132200Y-69883200D01*
X172661600Y-70811100D02*
X171090400Y-70811100D01*
X171090400Y-70811100D02*
X169987200Y-71914300D01*
X169987200Y-71914300D02*
X169987200Y-73192900D01*
X169987200Y-73192900D02*
X163504100Y-79676000D01*
X163504100Y-79676000D02*
X163504100Y-80547400D01*
X149656800Y-80092000D02*
X159123400Y-70625400D01*
X159123400Y-70625400D02*
X159123400Y-70577100D01*
X192439100Y-56918000D02*
X192439100Y-47930500D01*
X192439100Y-47930500D02*
X192211300Y-47702700D01*
X162901800Y-34740000D02*
X161306900Y-36334900D01*
X161306900Y-36334900D02*
X155334400Y-36334900D01*
X155334400Y-36334900D02*
X155334400Y-36335000D01*
X190819400Y-44486900D02*
X187960000Y-41627500D01*
X187960000Y-41627500D02*
X187960000Y-32588300D01*
X187960000Y-32588300D02*
X187171500Y-31799800D01*
X187171500Y-31799800D02*
X146476700Y-31799800D01*
X146476700Y-31799800D02*
X142619100Y-35657400D01*
X142619100Y-35657400D02*
X142619100Y-37956700D01*
X194692100Y-87336200D02*
X194692100Y-37674700D01*
X153119200Y-88698100D02*
X162869900Y-98448800D01*
X162869900Y-98448800D02*
X193763900Y-98448800D01*
X193763900Y-98448800D02*
X197709900Y-94502800D01*
X197709900Y-94502800D02*
X197709900Y-90808200D01*
X197709900Y-90808200D02*
X197403300Y-90501600D01*
X197403300Y-90501600D02*
X197403300Y-72518700D01*
X197403300Y-72518700D02*
X197283700Y-72399100D01*
X197283700Y-72399100D02*
X197283700Y-67179000D01*
X197283700Y-67179000D02*
X197946200Y-66516500D01*
X197946200Y-66516500D02*
X197946200Y-46012200D01*
X197946200Y-46012200D02*
X196384000Y-44450000D01*
X168179700Y-86829000D02*
X168179700Y-78655500D01*
X168179700Y-78655500D02*
X175960000Y-70875200D01*
X175960000Y-70875200D02*
X175960000Y-67318400D01*
X175960000Y-67318400D02*
X179523900Y-63754500D01*
X179523900Y-63754500D02*
X179523900Y-56947600D01*
X179523900Y-56947600D02*
X179197000Y-56620700D01*
X185567300Y-55194300D02*
X184991500Y-55770100D01*
X184991500Y-55770100D02*
X184991500Y-85975100D01*
X184991500Y-85975100D02*
X183066600Y-87900000D01*
X120650000Y-78740000D02*
X122175300Y-78740000D01*
X122175300Y-78740000D02*
X122175300Y-77755700D01*
X122175300Y-77755700D02*
X145176400Y-54754600D01*
X145176400Y-54754600D02*
X149715400Y-54754600D01*
X149715400Y-54754600D02*
X151130000Y-53340000D01*
X176530000Y-50800000D02*
X177049900Y-50800000D01*
X177049900Y-50800000D02*
X179472100Y-53222200D01*
X179472100Y-53222200D02*
X179472100Y-55311400D01*
X179472100Y-55311400D02*
X179294300Y-55489200D01*
X125621300Y-72266300D02*
X125621300Y-72364100D01*
X151130000Y-45720000D02*
X147320000Y-49530000D01*
X147320000Y-49530000D02*
X145328200Y-49530000D01*
X145328200Y-49530000D02*
X125621300Y-69236900D01*
X125621300Y-69236900D02*
X125621300Y-72266300D01*
X125621300Y-72266300D02*
X119796100Y-72266300D01*
X119796100Y-72266300D02*
X119124700Y-71594900D01*
X119124700Y-71594900D02*
X119124700Y-68580000D01*
X146050000Y-73660000D02*
X147575300Y-73660000D01*
X147575300Y-73660000D02*
X147575300Y-72478000D01*
X147575300Y-72478000D02*
X152886400Y-67166900D01*
X120650000Y-68580000D02*
X119124700Y-68580000D01*
X176530000Y-50800000D02*
X175493400Y-49763400D01*
X175493400Y-49763400D02*
X172387900Y-49763400D01*
X172387900Y-49763400D02*
X169847900Y-47223400D01*
X169847900Y-47223400D02*
X152633400Y-47223400D01*
X152633400Y-47223400D02*
X151130000Y-45720000D01*
X196878800Y-55721900D02*
X196878800Y-50334600D01*
X196878800Y-50334600D02*
X196052800Y-49508600D01*
X189307900Y-66414000D02*
X188700300Y-67021600D01*
X188700300Y-67021600D02*
X188700300Y-90533700D01*
X188700300Y-90533700D02*
X192338700Y-94172100D01*
X192338700Y-94172100D02*
X192338700Y-94584200D01*
X172994400Y-95411800D02*
X173641000Y-96058400D01*
X173641000Y-96058400D02*
X186371900Y-96058400D01*
X186371900Y-96058400D02*
X187018900Y-95411400D01*
X172994400Y-95411800D02*
X172994400Y-95401900D01*
X163332900Y-95411800D02*
X172994400Y-95411800D01*
X192338700Y-94584200D02*
X191312500Y-95610400D01*
X191312500Y-95610400D02*
X187217900Y-95610400D01*
X187217900Y-95610400D02*
X187018900Y-95411400D01*
X192338700Y-94584200D02*
X194782600Y-94584200D01*
X194782600Y-94584200D02*
X194997200Y-94798800D01*
X187434400Y-92079900D02*
X187338600Y-92079900D01*
X187338600Y-92079900D02*
X185532800Y-93885700D01*
X190271800Y-93772000D02*
X189126500Y-93772000D01*
X189126500Y-93772000D02*
X187434400Y-92079900D01*
X186687700Y-61506600D02*
X187434400Y-62253300D01*
X187434400Y-62253300D02*
X187434400Y-92079900D01*
X191136700Y-61463300D02*
X191508600Y-61835200D01*
X191508600Y-61835200D02*
X191508600Y-64470900D01*
X191508600Y-64470900D02*
X190290800Y-65688700D01*
X190290800Y-65688700D02*
X189007500Y-65688700D01*
X189007500Y-65688700D02*
X188250000Y-66446200D01*
X188250000Y-66446200D02*
X188250000Y-90720300D01*
X188250000Y-90720300D02*
X190997100Y-93467400D01*
X190997100Y-93467400D02*
X190997100Y-94872800D01*
X190997100Y-94872800D02*
X190984900Y-94885000D01*
X186629700Y-63799800D02*
X186984100Y-64154200D01*
X186984100Y-64154200D02*
X186984100Y-91408700D01*
X186984100Y-91408700D02*
X184626000Y-93766800D01*
X184626000Y-93766800D02*
X184626000Y-95312400D01*
X193908100Y-91241900D02*
X194508100Y-91241900D01*
X193908100Y-66695500D02*
X193908100Y-91241900D01*
X193908100Y-91241900D02*
X191773000Y-91241900D01*
X191773000Y-91241900D02*
X191438300Y-91576600D01*
X176235000Y-91866400D02*
X182945900Y-91866400D01*
X182945900Y-91866400D02*
X183106900Y-91705400D01*
X163586300Y-91709400D02*
X163743300Y-91866400D01*
X163743300Y-91866400D02*
X176235000Y-91866400D01*
X195417600Y-88782100D02*
X195417600Y-63398300D01*
X195417600Y-63398300D02*
X197220900Y-61595000D01*
X196926700Y-92487200D02*
X196926700Y-73492500D01*
X196926700Y-73492500D02*
X196154800Y-72720600D01*
X196154800Y-72720600D02*
X196154800Y-63781400D01*
X198163100Y-89805000D02*
X197991400Y-89633300D01*
X197991400Y-89633300D02*
X197991400Y-72151700D01*
X197991400Y-72151700D02*
X197752700Y-71913000D01*
X197752700Y-71913000D02*
X197752700Y-67414300D01*
X197752700Y-67414300D02*
X198823800Y-66343200D01*
X186211200Y-90980100D02*
X185898200Y-90667100D01*
X185898200Y-90667100D02*
X185898200Y-58204200D01*
X185898200Y-58204200D02*
X187204100Y-56898300D01*
X187204100Y-56898300D02*
X187204100Y-44570300D01*
X187204100Y-44570300D02*
X186602000Y-43968200D01*
X186466200Y-45722400D02*
X186466200Y-55884300D01*
X186466200Y-55884300D02*
X185447800Y-56902700D01*
X185447800Y-56902700D02*
X185447800Y-90416200D01*
X185447800Y-90416200D02*
X182729800Y-93134200D01*
X182729800Y-93134200D02*
X180832600Y-93134200D01*
X167930200Y-93134200D02*
X180832600Y-93134200D01*
X167930200Y-93134200D02*
X163534500Y-93134200D01*
X163534500Y-93134200D02*
X162882500Y-92482200D01*
X122175300Y-76200000D02*
X122941400Y-76200000D01*
X122941400Y-76200000D02*
X126346900Y-72794500D01*
X126346900Y-72794500D02*
X126346900Y-71051600D01*
X126346900Y-71051600D02*
X145473100Y-51925400D01*
X145473100Y-51925400D02*
X152544600Y-51925400D01*
X152544600Y-51925400D02*
X153670000Y-50800000D01*
X120650000Y-76200000D02*
X122175300Y-76200000D01*
X153670000Y-53340000D02*
X152400000Y-54610000D01*
X152400000Y-54610000D02*
X150762700Y-54610000D01*
X150762700Y-54610000D02*
X148222700Y-57150000D01*
X148222700Y-57150000D02*
X145242400Y-57150000D01*
X145242400Y-57150000D02*
X122175300Y-80217100D01*
X122175300Y-80217100D02*
X122175300Y-81280000D01*
X120650000Y-81280000D02*
X122175300Y-81280000D01*
X120650000Y-83820000D02*
X122175300Y-83820000D01*
X151130000Y-55880000D02*
X147320000Y-59690000D01*
X147320000Y-59690000D02*
X144187600Y-59690000D01*
X144187600Y-59690000D02*
X122967300Y-80910300D01*
X122967300Y-80910300D02*
X122967300Y-83028000D01*
X122967300Y-83028000D02*
X122175300Y-83820000D01*
X120650000Y-86360000D02*
X133585800Y-73424200D01*
X133585800Y-73424200D02*
X133585800Y-71329000D01*
X133585800Y-71329000D02*
X142813900Y-62100900D01*
X120650000Y-88900000D02*
X122315300Y-87234700D01*
X122315300Y-87234700D02*
X122315300Y-85590700D01*
X122315300Y-85590700D02*
X134777600Y-73128400D01*
X134777600Y-73128400D02*
X134777600Y-71659600D01*
X134777600Y-71659600D02*
X143569800Y-62867400D01*
X143569800Y-62867400D02*
X143569800Y-61420300D01*
X153670000Y-58420000D02*
X152171600Y-59918400D01*
X152171600Y-59918400D02*
X150657900Y-59918400D01*
X150657900Y-59918400D02*
X148356400Y-62219900D01*
X148356400Y-62219900D02*
X148356400Y-63195900D01*
X148356400Y-63195900D02*
X146926900Y-64625400D01*
X146926900Y-64625400D02*
X145469100Y-64625400D01*
X145469100Y-64625400D02*
X132795600Y-77298900D01*
X132795600Y-77298900D02*
X132795600Y-80819700D01*
X132795600Y-80819700D02*
X122175300Y-91440000D01*
X120650000Y-91440000D02*
X122175300Y-91440000D01*
X151130000Y-60960000D02*
X151130000Y-61903600D01*
X151130000Y-61903600D02*
X149231600Y-63802000D01*
X149231600Y-63802000D02*
X149231600Y-64863200D01*
X149231600Y-64863200D02*
X146929400Y-67165400D01*
X146929400Y-67165400D02*
X145442200Y-67165400D01*
X145442200Y-67165400D02*
X134371600Y-78236000D01*
X134371600Y-78236000D02*
X134371600Y-80522100D01*
X134371600Y-80522100D02*
X120913700Y-93980000D01*
X120913700Y-93980000D02*
X120650000Y-93980000D01*
X153670000Y-63500000D02*
X153670000Y-63579100D01*
X153670000Y-63579100D02*
X150725100Y-66524000D01*
X120650000Y-96520000D02*
X119124700Y-96520000D01*
X119124700Y-96520000D02*
X119124700Y-93479900D01*
X119124700Y-93479900D02*
X119894600Y-92710000D01*
X119894600Y-92710000D02*
X121542200Y-92710000D01*
X121542200Y-92710000D02*
X133921200Y-80331000D01*
X133921200Y-80331000D02*
X133921200Y-77588000D01*
X133921200Y-77588000D02*
X144343900Y-67165300D01*
X153670000Y-60960000D02*
X152163300Y-62466700D01*
X152163300Y-62466700D02*
X152163300Y-63423300D01*
X152163300Y-63423300D02*
X152163200Y-63423300D01*
X152163200Y-63423300D02*
X149549500Y-66037000D01*
X149549500Y-66037000D02*
X149549500Y-67122600D01*
X149549500Y-67122600D02*
X146822100Y-69850000D01*
X146822100Y-69850000D02*
X145328400Y-69850000D01*
X145328400Y-69850000D02*
X140907800Y-74270600D01*
X140907800Y-74270600D02*
X140907800Y-75240400D01*
X140907800Y-75240400D02*
X122175300Y-93972900D01*
X122175300Y-93972900D02*
X122175300Y-99060000D01*
X120650000Y-99060000D02*
X122175300Y-99060000D01*
X156210000Y-63500000D02*
X155527600Y-63500000D01*
X155527600Y-63500000D02*
X152161100Y-66866500D01*
X152161100Y-66866500D02*
X152161100Y-67200300D01*
X152161100Y-67200300D02*
X146971400Y-72390000D01*
X146971400Y-72390000D02*
X145303700Y-72390000D01*
X145303700Y-72390000D02*
X122890300Y-94803400D01*
X122890300Y-94803400D02*
X122890300Y-100885000D01*
X122890300Y-100885000D02*
X122175300Y-101600000D01*
X120650000Y-101600000D02*
X122175300Y-101600000D01*
X119124700Y-104140000D02*
X118625700Y-103641000D01*
X118625700Y-103641000D02*
X118625700Y-91467600D01*
X118625700Y-91467600D02*
X119923300Y-90170000D01*
X119923300Y-90170000D02*
X121435700Y-90170000D01*
X121435700Y-90170000D02*
X122765600Y-88840100D01*
X122765600Y-88840100D02*
X122765600Y-85777300D01*
X122765600Y-85777300D02*
X135678200Y-72864700D01*
X135678200Y-72864700D02*
X135678200Y-71429800D01*
X135678200Y-71429800D02*
X144869800Y-62238200D01*
X144869800Y-62238200D02*
X147357700Y-62238200D01*
X147357700Y-62238200D02*
X150133600Y-59462300D01*
X150133600Y-59462300D02*
X151659400Y-59462300D01*
X151659400Y-59462300D02*
X152400000Y-58721700D01*
X152400000Y-58721700D02*
X152400000Y-58169500D01*
X152400000Y-58169500D02*
X153186100Y-57383400D01*
X153186100Y-57383400D02*
X154179200Y-57383400D01*
X154179200Y-57383400D02*
X156210000Y-59414200D01*
X156210000Y-59414200D02*
X156210000Y-60960000D01*
X120650000Y-104140000D02*
X119124700Y-104140000D01*
M02*
