G04 #@! TF.GenerationSoftware,KiCad,Pcbnew,(5.1.2-1)-1*
G04 #@! TF.CreationDate,2019-06-03T00:06:23+01:00*
G04 #@! TF.ProjectId,A500 FastRAM,41353030-2046-4617-9374-52414d2e6b69,rev?*
G04 #@! TF.SameCoordinates,Original*
G04 #@! TF.FileFunction,Legend,Top*
G04 #@! TF.FilePolarity,Positive*
%FSLAX46Y46*%
G04 Gerber Fmt 4.6, Leading zero omitted, Abs format (unit mm)*
G04 Created by KiCad (PCBNEW (5.1.2-1)-1) date 2019-06-03 00:06:23*
%MOMM*%
%LPD*%
G04 APERTURE LIST*
%ADD10C,0.150000*%
%ADD11C,0.075000*%
%ADD12C,0.125000*%
%ADD13C,0.120000*%
G04 APERTURE END LIST*
D10*
X158639523Y-51252380D02*
X158639523Y-50252380D01*
X158972857Y-50966666D01*
X159306190Y-50252380D01*
X159306190Y-51252380D01*
X160353809Y-51157142D02*
X160306190Y-51204761D01*
X160163333Y-51252380D01*
X160068095Y-51252380D01*
X159925238Y-51204761D01*
X159830000Y-51109523D01*
X159782380Y-51014285D01*
X159734761Y-50823809D01*
X159734761Y-50680952D01*
X159782380Y-50490476D01*
X159830000Y-50395238D01*
X159925238Y-50300000D01*
X160068095Y-50252380D01*
X160163333Y-50252380D01*
X160306190Y-50300000D01*
X160353809Y-50347619D01*
X161210952Y-50252380D02*
X161020476Y-50252380D01*
X160925238Y-50300000D01*
X160877619Y-50347619D01*
X160782380Y-50490476D01*
X160734761Y-50680952D01*
X160734761Y-51061904D01*
X160782380Y-51157142D01*
X160830000Y-51204761D01*
X160925238Y-51252380D01*
X161115714Y-51252380D01*
X161210952Y-51204761D01*
X161258571Y-51157142D01*
X161306190Y-51061904D01*
X161306190Y-50823809D01*
X161258571Y-50728571D01*
X161210952Y-50680952D01*
X161115714Y-50633333D01*
X160925238Y-50633333D01*
X160830000Y-50680952D01*
X160782380Y-50728571D01*
X160734761Y-50823809D01*
X161877619Y-50680952D02*
X161782380Y-50633333D01*
X161734761Y-50585714D01*
X161687142Y-50490476D01*
X161687142Y-50442857D01*
X161734761Y-50347619D01*
X161782380Y-50300000D01*
X161877619Y-50252380D01*
X162068095Y-50252380D01*
X162163333Y-50300000D01*
X162210952Y-50347619D01*
X162258571Y-50442857D01*
X162258571Y-50490476D01*
X162210952Y-50585714D01*
X162163333Y-50633333D01*
X162068095Y-50680952D01*
X161877619Y-50680952D01*
X161782380Y-50728571D01*
X161734761Y-50776190D01*
X161687142Y-50871428D01*
X161687142Y-51061904D01*
X161734761Y-51157142D01*
X161782380Y-51204761D01*
X161877619Y-51252380D01*
X162068095Y-51252380D01*
X162163333Y-51204761D01*
X162210952Y-51157142D01*
X162258571Y-51061904D01*
X162258571Y-50871428D01*
X162210952Y-50776190D01*
X162163333Y-50728571D01*
X162068095Y-50680952D01*
X162687142Y-51252380D02*
X162687142Y-50252380D01*
X162687142Y-50728571D02*
X163258571Y-50728571D01*
X163258571Y-51252380D02*
X163258571Y-50252380D01*
X164306190Y-51157142D02*
X164258571Y-51204761D01*
X164115714Y-51252380D01*
X164020476Y-51252380D01*
X163877619Y-51204761D01*
X163782380Y-51109523D01*
X163734761Y-51014285D01*
X163687142Y-50823809D01*
X163687142Y-50680952D01*
X163734761Y-50490476D01*
X163782380Y-50395238D01*
X163877619Y-50300000D01*
X164020476Y-50252380D01*
X164115714Y-50252380D01*
X164258571Y-50300000D01*
X164306190Y-50347619D01*
X164925238Y-50252380D02*
X165020476Y-50252380D01*
X165115714Y-50300000D01*
X165163333Y-50347619D01*
X165210952Y-50442857D01*
X165258571Y-50633333D01*
X165258571Y-50871428D01*
X165210952Y-51061904D01*
X165163333Y-51157142D01*
X165115714Y-51204761D01*
X165020476Y-51252380D01*
X164925238Y-51252380D01*
X164830000Y-51204761D01*
X164782380Y-51157142D01*
X164734761Y-51061904D01*
X164687142Y-50871428D01*
X164687142Y-50633333D01*
X164734761Y-50442857D01*
X164782380Y-50347619D01*
X164830000Y-50300000D01*
X164925238Y-50252380D01*
X165877619Y-50252380D02*
X165972857Y-50252380D01*
X166068095Y-50300000D01*
X166115714Y-50347619D01*
X166163333Y-50442857D01*
X166210952Y-50633333D01*
X166210952Y-50871428D01*
X166163333Y-51061904D01*
X166115714Y-51157142D01*
X166068095Y-51204761D01*
X165972857Y-51252380D01*
X165877619Y-51252380D01*
X165782380Y-51204761D01*
X165734761Y-51157142D01*
X165687142Y-51061904D01*
X165639523Y-50871428D01*
X165639523Y-50633333D01*
X165687142Y-50442857D01*
X165734761Y-50347619D01*
X165782380Y-50300000D01*
X165877619Y-50252380D01*
X166830000Y-50252380D02*
X166925238Y-50252380D01*
X167020476Y-50300000D01*
X167068095Y-50347619D01*
X167115714Y-50442857D01*
X167163333Y-50633333D01*
X167163333Y-50871428D01*
X167115714Y-51061904D01*
X167068095Y-51157142D01*
X167020476Y-51204761D01*
X166925238Y-51252380D01*
X166830000Y-51252380D01*
X166734761Y-51204761D01*
X166687142Y-51157142D01*
X166639523Y-51061904D01*
X166591904Y-50871428D01*
X166591904Y-50633333D01*
X166639523Y-50442857D01*
X166687142Y-50347619D01*
X166734761Y-50300000D01*
X166830000Y-50252380D01*
X167925238Y-50728571D02*
X167591904Y-50728571D01*
X167591904Y-51252380D02*
X167591904Y-50252380D01*
X168068095Y-50252380D01*
X168449047Y-51252380D02*
X168449047Y-50252380D01*
X169020476Y-51252380D01*
X169020476Y-50252380D01*
D11*
X185144285Y-44550000D02*
X185430000Y-44550000D01*
X185087142Y-44721428D02*
X185287142Y-44121428D01*
X185487142Y-44721428D01*
X185601428Y-44121428D02*
X185944285Y-44121428D01*
X185772857Y-44721428D02*
X185772857Y-44121428D01*
X186344285Y-44407142D02*
X186144285Y-44407142D01*
X186144285Y-44721428D02*
X186144285Y-44121428D01*
X186430000Y-44121428D01*
X186972857Y-44721428D02*
X186630000Y-44721428D01*
X186801428Y-44721428D02*
X186801428Y-44121428D01*
X186744285Y-44207142D01*
X186687142Y-44264285D01*
X186630000Y-44292857D01*
X187515714Y-44121428D02*
X187230000Y-44121428D01*
X187201428Y-44407142D01*
X187230000Y-44378571D01*
X187287142Y-44350000D01*
X187430000Y-44350000D01*
X187487142Y-44378571D01*
X187515714Y-44407142D01*
X187544285Y-44464285D01*
X187544285Y-44607142D01*
X187515714Y-44664285D01*
X187487142Y-44692857D01*
X187430000Y-44721428D01*
X187287142Y-44721428D01*
X187230000Y-44692857D01*
X187201428Y-44664285D01*
X187915714Y-44121428D02*
X187972857Y-44121428D01*
X188030000Y-44150000D01*
X188058571Y-44178571D01*
X188087142Y-44235714D01*
X188115714Y-44350000D01*
X188115714Y-44492857D01*
X188087142Y-44607142D01*
X188058571Y-44664285D01*
X188030000Y-44692857D01*
X187972857Y-44721428D01*
X187915714Y-44721428D01*
X187858571Y-44692857D01*
X187830000Y-44664285D01*
X187801428Y-44607142D01*
X187772857Y-44492857D01*
X187772857Y-44350000D01*
X187801428Y-44235714D01*
X187830000Y-44178571D01*
X187858571Y-44150000D01*
X187915714Y-44121428D01*
X188344285Y-44178571D02*
X188372857Y-44150000D01*
X188430000Y-44121428D01*
X188572857Y-44121428D01*
X188630000Y-44150000D01*
X188658571Y-44178571D01*
X188687142Y-44235714D01*
X188687142Y-44292857D01*
X188658571Y-44378571D01*
X188315714Y-44721428D01*
X188687142Y-44721428D01*
X188915714Y-44550000D02*
X189201428Y-44550000D01*
X188858571Y-44721428D02*
X189058571Y-44121428D01*
X189258571Y-44721428D01*
X189430000Y-44692857D02*
X189515714Y-44721428D01*
X189658571Y-44721428D01*
X189715714Y-44692857D01*
X189744285Y-44664285D01*
X189772857Y-44607142D01*
X189772857Y-44550000D01*
X189744285Y-44492857D01*
X189715714Y-44464285D01*
X189658571Y-44435714D01*
X189544285Y-44407142D01*
X189487142Y-44378571D01*
X189458571Y-44350000D01*
X189430000Y-44292857D01*
X189430000Y-44235714D01*
X189458571Y-44178571D01*
X189487142Y-44150000D01*
X189544285Y-44121428D01*
X189687142Y-44121428D01*
X189772857Y-44150000D01*
X190030000Y-44492857D02*
X190487142Y-44492857D01*
X190715714Y-44121428D02*
X191115714Y-44121428D01*
X190858571Y-44721428D01*
X191315714Y-44550000D02*
X191601428Y-44550000D01*
X191258571Y-44721428D02*
X191458571Y-44121428D01*
X191658571Y-44721428D01*
X191801428Y-44121428D02*
X192201428Y-44721428D01*
X192201428Y-44121428D02*
X191801428Y-44721428D01*
X192687142Y-44321428D02*
X192687142Y-44721428D01*
X192544285Y-44092857D02*
X192401428Y-44521428D01*
X192772857Y-44521428D01*
X193258571Y-44321428D02*
X193258571Y-44721428D01*
X193115714Y-44092857D02*
X192972857Y-44521428D01*
X193344285Y-44521428D01*
D12*
X196411904Y-63854680D02*
X196411904Y-63321346D01*
X197211904Y-63764203D01*
X196678571Y-62707061D02*
X197211904Y-62773727D01*
X196373809Y-62859441D02*
X196945238Y-63121346D01*
X196945238Y-62626108D01*
X197211904Y-62354680D02*
X196411904Y-62254680D01*
X196792857Y-62302299D02*
X196792857Y-61845156D01*
X197211904Y-61897537D02*
X196411904Y-61797537D01*
X197135714Y-61049918D02*
X197173809Y-61092775D01*
X197211904Y-61211822D01*
X197211904Y-61288013D01*
X197173809Y-61397537D01*
X197097619Y-61464203D01*
X197021428Y-61492775D01*
X196869047Y-61511822D01*
X196754761Y-61497537D01*
X196602380Y-61440394D01*
X196526190Y-61392775D01*
X196450000Y-61307061D01*
X196411904Y-61188013D01*
X196411904Y-61111822D01*
X196450000Y-61002299D01*
X196488095Y-60968965D01*
X196411904Y-60730870D02*
X196411904Y-60273727D01*
X197211904Y-60602299D02*
X196411904Y-60502299D01*
X197211904Y-59688013D02*
X197211904Y-60145156D01*
X197211904Y-59916584D02*
X196411904Y-59816584D01*
X196526190Y-59907061D01*
X196602380Y-59992775D01*
X196640476Y-60073727D01*
X196411904Y-58864203D02*
X196411904Y-59245156D01*
X196792857Y-59330870D01*
X196754761Y-59288013D01*
X196716666Y-59207061D01*
X196716666Y-59016584D01*
X196754761Y-58945156D01*
X196792857Y-58911822D01*
X196869047Y-58883251D01*
X197059523Y-58907061D01*
X197135714Y-58954680D01*
X197173809Y-58997537D01*
X197211904Y-59078489D01*
X197211904Y-59268965D01*
X197173809Y-59340394D01*
X197135714Y-59373727D01*
X196411904Y-58559441D02*
X196411904Y-58026108D01*
X197211904Y-58468965D01*
X186251904Y-63854680D02*
X186251904Y-63321346D01*
X187051904Y-63764203D01*
X186518571Y-62707061D02*
X187051904Y-62773727D01*
X186213809Y-62859441D02*
X186785238Y-63121346D01*
X186785238Y-62626108D01*
X187051904Y-62354680D02*
X186251904Y-62254680D01*
X186632857Y-62302299D02*
X186632857Y-61845156D01*
X187051904Y-61897537D02*
X186251904Y-61797537D01*
X186975714Y-61049918D02*
X187013809Y-61092775D01*
X187051904Y-61211822D01*
X187051904Y-61288013D01*
X187013809Y-61397537D01*
X186937619Y-61464203D01*
X186861428Y-61492775D01*
X186709047Y-61511822D01*
X186594761Y-61497537D01*
X186442380Y-61440394D01*
X186366190Y-61392775D01*
X186290000Y-61307061D01*
X186251904Y-61188013D01*
X186251904Y-61111822D01*
X186290000Y-61002299D01*
X186328095Y-60968965D01*
X186251904Y-60730870D02*
X186251904Y-60273727D01*
X187051904Y-60602299D02*
X186251904Y-60502299D01*
X187051904Y-59688013D02*
X187051904Y-60145156D01*
X187051904Y-59916584D02*
X186251904Y-59816584D01*
X186366190Y-59907061D01*
X186442380Y-59992775D01*
X186480476Y-60073727D01*
X186251904Y-58864203D02*
X186251904Y-59245156D01*
X186632857Y-59330870D01*
X186594761Y-59288013D01*
X186556666Y-59207061D01*
X186556666Y-59016584D01*
X186594761Y-58945156D01*
X186632857Y-58911822D01*
X186709047Y-58883251D01*
X186899523Y-58907061D01*
X186975714Y-58954680D01*
X187013809Y-58997537D01*
X187051904Y-59078489D01*
X187051904Y-59268965D01*
X187013809Y-59340394D01*
X186975714Y-59373727D01*
X186251904Y-58559441D02*
X186251904Y-58026108D01*
X187051904Y-58468965D01*
D11*
X130851941Y-77141428D02*
X131194799Y-77141428D01*
X130948370Y-77741428D02*
X131023370Y-77141428D01*
X131319799Y-77741428D02*
X131394799Y-77141428D01*
X131623370Y-77141428D01*
X131676941Y-77170000D01*
X131701941Y-77198571D01*
X131723370Y-77255714D01*
X131712656Y-77341428D01*
X131676941Y-77398571D01*
X131644799Y-77427142D01*
X131584084Y-77455714D01*
X131355513Y-77455714D01*
X131894799Y-77712857D02*
X131976941Y-77741428D01*
X132119799Y-77741428D01*
X132180513Y-77712857D01*
X132212656Y-77684285D01*
X132248370Y-77627142D01*
X132255513Y-77570000D01*
X132234084Y-77512857D01*
X132209084Y-77484285D01*
X132155513Y-77455714D01*
X132044799Y-77427142D01*
X131991227Y-77398571D01*
X131966227Y-77370000D01*
X131944799Y-77312857D01*
X131951941Y-77255714D01*
X131987656Y-77198571D01*
X132019799Y-77170000D01*
X132080513Y-77141428D01*
X132223370Y-77141428D01*
X132305513Y-77170000D01*
X132509084Y-77141428D02*
X132909084Y-77141428D01*
X132576941Y-77741428D01*
X133080513Y-77141428D02*
X133451941Y-77141428D01*
X133223370Y-77370000D01*
X133309084Y-77370000D01*
X133362656Y-77398571D01*
X133387656Y-77427142D01*
X133409084Y-77484285D01*
X133391227Y-77627142D01*
X133355513Y-77684285D01*
X133323370Y-77712857D01*
X133262656Y-77741428D01*
X133091227Y-77741428D01*
X133037656Y-77712857D01*
X133012656Y-77684285D01*
X133651941Y-77141428D02*
X134023370Y-77141428D01*
X133794799Y-77370000D01*
X133880513Y-77370000D01*
X133934084Y-77398571D01*
X133959084Y-77427142D01*
X133980513Y-77484285D01*
X133962656Y-77627142D01*
X133926941Y-77684285D01*
X133894799Y-77712857D01*
X133834084Y-77741428D01*
X133662656Y-77741428D01*
X133609084Y-77712857D01*
X133584084Y-77684285D01*
X134223370Y-77141428D02*
X134594799Y-77141428D01*
X134366227Y-77370000D01*
X134451941Y-77370000D01*
X134505513Y-77398571D01*
X134530513Y-77427142D01*
X134551941Y-77484285D01*
X134534084Y-77627142D01*
X134498370Y-77684285D01*
X134466227Y-77712857D01*
X134405513Y-77741428D01*
X134234084Y-77741428D01*
X134180513Y-77712857D01*
X134155513Y-77684285D01*
X135169799Y-77798571D02*
X135116227Y-77770000D01*
X135066227Y-77712857D01*
X134991227Y-77627142D01*
X134937656Y-77598571D01*
X134880513Y-77598571D01*
X134891227Y-77741428D02*
X134837656Y-77712857D01*
X134787656Y-77655714D01*
X134773370Y-77541428D01*
X134798370Y-77341428D01*
X134841227Y-77227142D01*
X134905513Y-77170000D01*
X134966227Y-77141428D01*
X135080513Y-77141428D01*
X135134084Y-77170000D01*
X135184084Y-77227142D01*
X135198370Y-77341428D01*
X135173370Y-77541428D01*
X135130513Y-77655714D01*
X135066227Y-77712857D01*
X135005513Y-77741428D01*
X134891227Y-77741428D01*
X135405513Y-77741428D02*
X135480513Y-77141428D01*
X135623370Y-77141428D01*
X135705513Y-77170000D01*
X135755513Y-77227142D01*
X135776941Y-77284285D01*
X135791227Y-77398571D01*
X135780513Y-77484285D01*
X135737656Y-77598571D01*
X135701941Y-77655714D01*
X135637656Y-77712857D01*
X135548370Y-77741428D01*
X135405513Y-77741428D01*
D10*
X125778571Y-117292380D02*
X125778571Y-116292380D01*
X125778571Y-116768571D02*
X126350000Y-116768571D01*
X126350000Y-117292380D02*
X126350000Y-116292380D01*
X127207142Y-117244761D02*
X127111904Y-117292380D01*
X126921428Y-117292380D01*
X126826190Y-117244761D01*
X126778571Y-117149523D01*
X126778571Y-116768571D01*
X126826190Y-116673333D01*
X126921428Y-116625714D01*
X127111904Y-116625714D01*
X127207142Y-116673333D01*
X127254761Y-116768571D01*
X127254761Y-116863809D01*
X126778571Y-116959047D01*
X127826190Y-117292380D02*
X127730952Y-117244761D01*
X127683333Y-117149523D01*
X127683333Y-116292380D01*
X128350000Y-117292380D02*
X128254761Y-117244761D01*
X128207142Y-117149523D01*
X128207142Y-116292380D01*
X128873809Y-117292380D02*
X128778571Y-117244761D01*
X128730952Y-117197142D01*
X128683333Y-117101904D01*
X128683333Y-116816190D01*
X128730952Y-116720952D01*
X128778571Y-116673333D01*
X128873809Y-116625714D01*
X129016666Y-116625714D01*
X129111904Y-116673333D01*
X129159523Y-116720952D01*
X129207142Y-116816190D01*
X129207142Y-117101904D01*
X129159523Y-117197142D01*
X129111904Y-117244761D01*
X129016666Y-117292380D01*
X128873809Y-117292380D01*
X130969047Y-117197142D02*
X130921428Y-117244761D01*
X130778571Y-117292380D01*
X130683333Y-117292380D01*
X130540476Y-117244761D01*
X130445238Y-117149523D01*
X130397619Y-117054285D01*
X130350000Y-116863809D01*
X130350000Y-116720952D01*
X130397619Y-116530476D01*
X130445238Y-116435238D01*
X130540476Y-116340000D01*
X130683333Y-116292380D01*
X130778571Y-116292380D01*
X130921428Y-116340000D01*
X130969047Y-116387619D01*
X131826190Y-117292380D02*
X131826190Y-116768571D01*
X131778571Y-116673333D01*
X131683333Y-116625714D01*
X131492857Y-116625714D01*
X131397619Y-116673333D01*
X131826190Y-117244761D02*
X131730952Y-117292380D01*
X131492857Y-117292380D01*
X131397619Y-117244761D01*
X131350000Y-117149523D01*
X131350000Y-117054285D01*
X131397619Y-116959047D01*
X131492857Y-116911428D01*
X131730952Y-116911428D01*
X131826190Y-116863809D01*
X132207142Y-116625714D02*
X132445238Y-117292380D01*
X132683333Y-116625714D01*
X133445238Y-117244761D02*
X133350000Y-117292380D01*
X133159523Y-117292380D01*
X133064285Y-117244761D01*
X133016666Y-117149523D01*
X133016666Y-116768571D01*
X133064285Y-116673333D01*
X133159523Y-116625714D01*
X133350000Y-116625714D01*
X133445238Y-116673333D01*
X133492857Y-116768571D01*
X133492857Y-116863809D01*
X133016666Y-116959047D01*
X134683333Y-117292380D02*
X134683333Y-116292380D01*
X134921428Y-116292380D01*
X135064285Y-116340000D01*
X135159523Y-116435238D01*
X135207142Y-116530476D01*
X135254761Y-116720952D01*
X135254761Y-116863809D01*
X135207142Y-117054285D01*
X135159523Y-117149523D01*
X135064285Y-117244761D01*
X134921428Y-117292380D01*
X134683333Y-117292380D01*
X135588095Y-116625714D02*
X135778571Y-117292380D01*
X135969047Y-116816190D01*
X136159523Y-117292380D01*
X136350000Y-116625714D01*
X137111904Y-117244761D02*
X137016666Y-117292380D01*
X136826190Y-117292380D01*
X136730952Y-117244761D01*
X136683333Y-117149523D01*
X136683333Y-116768571D01*
X136730952Y-116673333D01*
X136826190Y-116625714D01*
X137016666Y-116625714D01*
X137111904Y-116673333D01*
X137159523Y-116768571D01*
X137159523Y-116863809D01*
X136683333Y-116959047D01*
X137730952Y-117292380D02*
X137635714Y-117244761D01*
X137588095Y-117149523D01*
X137588095Y-116292380D01*
X138254761Y-117292380D02*
X138159523Y-117244761D01*
X138111904Y-117149523D01*
X138111904Y-116292380D01*
X139016666Y-117244761D02*
X138921428Y-117292380D01*
X138730952Y-117292380D01*
X138635714Y-117244761D01*
X138588095Y-117149523D01*
X138588095Y-116768571D01*
X138635714Y-116673333D01*
X138730952Y-116625714D01*
X138921428Y-116625714D01*
X139016666Y-116673333D01*
X139064285Y-116768571D01*
X139064285Y-116863809D01*
X138588095Y-116959047D01*
X139492857Y-117292380D02*
X139492857Y-116625714D01*
X139492857Y-116816190D02*
X139540476Y-116720952D01*
X139588095Y-116673333D01*
X139683333Y-116625714D01*
X139778571Y-116625714D01*
X140064285Y-117244761D02*
X140159523Y-117292380D01*
X140350000Y-117292380D01*
X140445238Y-117244761D01*
X140492857Y-117149523D01*
X140492857Y-117101904D01*
X140445238Y-117006666D01*
X140350000Y-116959047D01*
X140207142Y-116959047D01*
X140111904Y-116911428D01*
X140064285Y-116816190D01*
X140064285Y-116768571D01*
X140111904Y-116673333D01*
X140207142Y-116625714D01*
X140350000Y-116625714D01*
X140445238Y-116673333D01*
X140921428Y-117197142D02*
X140969047Y-117244761D01*
X140921428Y-117292380D01*
X140873809Y-117244761D01*
X140921428Y-117197142D01*
X140921428Y-117292380D01*
X140921428Y-116911428D02*
X140873809Y-116340000D01*
X140921428Y-116292380D01*
X140969047Y-116340000D01*
X140921428Y-116911428D01*
X140921428Y-116292380D01*
X159279538Y-69032380D02*
X159404538Y-68032380D01*
X159785491Y-68032380D01*
X159874776Y-68080000D01*
X159916443Y-68127619D01*
X159952157Y-68222857D01*
X159934300Y-68365714D01*
X159874776Y-68460952D01*
X159821205Y-68508571D01*
X159720014Y-68556190D01*
X159339062Y-68556190D01*
X160791443Y-68365714D02*
X160708110Y-69032380D01*
X160362872Y-68365714D02*
X160297395Y-68889523D01*
X160333110Y-68984761D01*
X160422395Y-69032380D01*
X160565252Y-69032380D01*
X160666443Y-68984761D01*
X160720014Y-68937142D01*
X161184300Y-69032380D02*
X161309300Y-68032380D01*
X161261681Y-68413333D02*
X161362872Y-68365714D01*
X161553348Y-68365714D01*
X161642633Y-68413333D01*
X161684300Y-68460952D01*
X161720014Y-68556190D01*
X161684300Y-68841904D01*
X161624776Y-68937142D01*
X161571205Y-68984761D01*
X161470014Y-69032380D01*
X161279538Y-69032380D01*
X161190252Y-68984761D01*
X162231919Y-69032380D02*
X162142633Y-68984761D01*
X162106919Y-68889523D01*
X162214062Y-68032380D01*
X162612872Y-69032380D02*
X162696205Y-68365714D01*
X162737872Y-68032380D02*
X162684300Y-68080000D01*
X162725967Y-68127619D01*
X162779538Y-68080000D01*
X162737872Y-68032380D01*
X162725967Y-68127619D01*
X163047395Y-68984761D02*
X163136681Y-69032380D01*
X163327157Y-69032380D01*
X163428348Y-68984761D01*
X163487872Y-68889523D01*
X163493824Y-68841904D01*
X163458110Y-68746666D01*
X163368824Y-68699047D01*
X163225967Y-68699047D01*
X163136681Y-68651428D01*
X163100967Y-68556190D01*
X163106919Y-68508571D01*
X163166443Y-68413333D01*
X163267633Y-68365714D01*
X163410491Y-68365714D01*
X163499776Y-68413333D01*
X163898586Y-69032380D02*
X164023586Y-68032380D01*
X164327157Y-69032380D02*
X164392633Y-68508571D01*
X164356919Y-68413333D01*
X164267633Y-68365714D01*
X164124776Y-68365714D01*
X164023586Y-68413333D01*
X163970014Y-68460952D01*
X165190252Y-68984761D02*
X165089062Y-69032380D01*
X164898586Y-69032380D01*
X164809300Y-68984761D01*
X164773586Y-68889523D01*
X164821205Y-68508571D01*
X164880729Y-68413333D01*
X164981919Y-68365714D01*
X165172395Y-68365714D01*
X165261681Y-68413333D01*
X165297395Y-68508571D01*
X165285491Y-68603809D01*
X164797395Y-68699047D01*
X166089062Y-69032380D02*
X166214062Y-68032380D01*
X166095014Y-68984761D02*
X165993824Y-69032380D01*
X165803348Y-69032380D01*
X165714062Y-68984761D01*
X165672395Y-68937142D01*
X165636681Y-68841904D01*
X165672395Y-68556190D01*
X165731919Y-68460952D01*
X165785491Y-68413333D01*
X165886681Y-68365714D01*
X166077157Y-68365714D01*
X166166443Y-68413333D01*
X167839062Y-68365714D02*
X167755729Y-69032380D01*
X167410491Y-68365714D02*
X167345014Y-68889523D01*
X167380729Y-68984761D01*
X167470014Y-69032380D01*
X167612872Y-69032380D01*
X167714062Y-68984761D01*
X167767633Y-68937142D01*
X168315252Y-68365714D02*
X168231919Y-69032380D01*
X168303348Y-68460952D02*
X168356919Y-68413333D01*
X168458110Y-68365714D01*
X168600967Y-68365714D01*
X168690252Y-68413333D01*
X168725967Y-68508571D01*
X168660491Y-69032380D01*
X169565252Y-69032380D02*
X169690252Y-68032380D01*
X169571205Y-68984761D02*
X169470014Y-69032380D01*
X169279538Y-69032380D01*
X169190252Y-68984761D01*
X169148586Y-68937142D01*
X169112872Y-68841904D01*
X169148586Y-68556190D01*
X169208110Y-68460952D01*
X169261681Y-68413333D01*
X169362872Y-68365714D01*
X169553348Y-68365714D01*
X169642633Y-68413333D01*
X170428348Y-68984761D02*
X170327157Y-69032380D01*
X170136681Y-69032380D01*
X170047395Y-68984761D01*
X170011681Y-68889523D01*
X170059300Y-68508571D01*
X170118824Y-68413333D01*
X170220014Y-68365714D01*
X170410491Y-68365714D01*
X170499776Y-68413333D01*
X170535491Y-68508571D01*
X170523586Y-68603809D01*
X170035491Y-68699047D01*
X170898586Y-69032380D02*
X170981919Y-68365714D01*
X170958110Y-68556190D02*
X171017633Y-68460952D01*
X171071205Y-68413333D01*
X171172395Y-68365714D01*
X171267633Y-68365714D01*
X172220014Y-68365714D02*
X172600967Y-68365714D01*
X172404538Y-68032380D02*
X172297395Y-68889523D01*
X172333110Y-68984761D01*
X172422395Y-69032380D01*
X172517633Y-69032380D01*
X172850967Y-69032380D02*
X172975967Y-68032380D01*
X173279538Y-69032380D02*
X173345014Y-68508571D01*
X173309300Y-68413333D01*
X173220014Y-68365714D01*
X173077157Y-68365714D01*
X172975967Y-68413333D01*
X172922395Y-68460952D01*
X174142633Y-68984761D02*
X174041443Y-69032380D01*
X173850967Y-69032380D01*
X173761681Y-68984761D01*
X173725967Y-68889523D01*
X173773586Y-68508571D01*
X173833110Y-68413333D01*
X173934300Y-68365714D01*
X174124776Y-68365714D01*
X174214062Y-68413333D01*
X174249776Y-68508571D01*
X174237872Y-68603809D01*
X173749776Y-68699047D01*
X176017633Y-68080000D02*
X175928348Y-68032380D01*
X175785491Y-68032380D01*
X175636681Y-68080000D01*
X175529538Y-68175238D01*
X175470014Y-68270476D01*
X175398586Y-68460952D01*
X175380729Y-68603809D01*
X175404538Y-68794285D01*
X175440252Y-68889523D01*
X175523586Y-68984761D01*
X175660491Y-69032380D01*
X175755729Y-69032380D01*
X175904538Y-68984761D01*
X175958110Y-68937142D01*
X175999776Y-68603809D01*
X175809300Y-68603809D01*
X176374776Y-69032380D02*
X176499776Y-68032380D01*
X176946205Y-69032380D01*
X177071205Y-68032380D01*
X177547395Y-68032380D02*
X177446205Y-68841904D01*
X177481919Y-68937142D01*
X177523586Y-68984761D01*
X177612872Y-69032380D01*
X177803348Y-69032380D01*
X177904538Y-68984761D01*
X177958110Y-68937142D01*
X178017633Y-68841904D01*
X178118824Y-68032380D01*
X179874776Y-68080000D02*
X179785491Y-68032380D01*
X179642633Y-68032380D01*
X179493824Y-68080000D01*
X179386681Y-68175238D01*
X179327157Y-68270476D01*
X179255729Y-68460952D01*
X179237872Y-68603809D01*
X179261681Y-68794285D01*
X179297395Y-68889523D01*
X179380729Y-68984761D01*
X179517633Y-69032380D01*
X179612872Y-69032380D01*
X179761681Y-68984761D01*
X179815252Y-68937142D01*
X179856919Y-68603809D01*
X179666443Y-68603809D01*
X180618824Y-68984761D02*
X180517633Y-69032380D01*
X180327157Y-69032380D01*
X180237872Y-68984761D01*
X180202157Y-68889523D01*
X180249776Y-68508571D01*
X180309300Y-68413333D01*
X180410491Y-68365714D01*
X180600967Y-68365714D01*
X180690252Y-68413333D01*
X180725967Y-68508571D01*
X180714062Y-68603809D01*
X180225967Y-68699047D01*
X181172395Y-68365714D02*
X181089062Y-69032380D01*
X181160491Y-68460952D02*
X181214062Y-68413333D01*
X181315252Y-68365714D01*
X181458110Y-68365714D01*
X181547395Y-68413333D01*
X181583110Y-68508571D01*
X181517633Y-69032380D01*
X182380729Y-68984761D02*
X182279538Y-69032380D01*
X182089062Y-69032380D01*
X181999776Y-68984761D01*
X181964062Y-68889523D01*
X182011681Y-68508571D01*
X182071205Y-68413333D01*
X182172395Y-68365714D01*
X182362872Y-68365714D01*
X182452157Y-68413333D01*
X182487872Y-68508571D01*
X182475967Y-68603809D01*
X181987872Y-68699047D01*
X182850967Y-69032380D02*
X182934300Y-68365714D01*
X182910491Y-68556190D02*
X182970014Y-68460952D01*
X183023586Y-68413333D01*
X183124776Y-68365714D01*
X183220014Y-68365714D01*
X183898586Y-69032380D02*
X183964062Y-68508571D01*
X183928348Y-68413333D01*
X183839062Y-68365714D01*
X183648586Y-68365714D01*
X183547395Y-68413333D01*
X183904538Y-68984761D02*
X183803348Y-69032380D01*
X183565252Y-69032380D01*
X183475967Y-68984761D01*
X183440252Y-68889523D01*
X183452157Y-68794285D01*
X183511681Y-68699047D01*
X183612872Y-68651428D01*
X183850967Y-68651428D01*
X183952157Y-68603809D01*
X184517633Y-69032380D02*
X184428348Y-68984761D01*
X184392633Y-68889523D01*
X184499776Y-68032380D01*
X185660491Y-69032380D02*
X185785491Y-68032380D01*
X186166443Y-68032380D01*
X186255729Y-68080000D01*
X186297395Y-68127619D01*
X186333110Y-68222857D01*
X186315252Y-68365714D01*
X186255729Y-68460952D01*
X186202157Y-68508571D01*
X186100967Y-68556190D01*
X185720014Y-68556190D01*
X187172395Y-68365714D02*
X187089062Y-69032380D01*
X186743824Y-68365714D02*
X186678348Y-68889523D01*
X186714062Y-68984761D01*
X186803348Y-69032380D01*
X186946205Y-69032380D01*
X187047395Y-68984761D01*
X187100967Y-68937142D01*
X187565252Y-69032380D02*
X187690252Y-68032380D01*
X187642633Y-68413333D02*
X187743824Y-68365714D01*
X187934300Y-68365714D01*
X188023586Y-68413333D01*
X188065252Y-68460952D01*
X188100967Y-68556190D01*
X188065252Y-68841904D01*
X188005729Y-68937142D01*
X187952157Y-68984761D01*
X187850967Y-69032380D01*
X187660491Y-69032380D01*
X187571205Y-68984761D01*
X188612872Y-69032380D02*
X188523586Y-68984761D01*
X188487872Y-68889523D01*
X188595014Y-68032380D01*
X188993824Y-69032380D02*
X189077157Y-68365714D01*
X189118824Y-68032380D02*
X189065252Y-68080000D01*
X189106919Y-68127619D01*
X189160491Y-68080000D01*
X189118824Y-68032380D01*
X189106919Y-68127619D01*
X189904538Y-68984761D02*
X189803348Y-69032380D01*
X189612872Y-69032380D01*
X189523586Y-68984761D01*
X189481919Y-68937142D01*
X189446205Y-68841904D01*
X189481919Y-68556190D01*
X189541443Y-68460952D01*
X189595014Y-68413333D01*
X189696205Y-68365714D01*
X189886681Y-68365714D01*
X189975967Y-68413333D01*
X191565252Y-69032380D02*
X191089062Y-69032380D01*
X191214062Y-68032380D01*
X191898586Y-69032380D02*
X191981919Y-68365714D01*
X192023586Y-68032380D02*
X191970014Y-68080000D01*
X192011681Y-68127619D01*
X192065252Y-68080000D01*
X192023586Y-68032380D01*
X192011681Y-68127619D01*
X192809300Y-68984761D02*
X192708110Y-69032380D01*
X192517633Y-69032380D01*
X192428348Y-68984761D01*
X192386681Y-68937142D01*
X192350967Y-68841904D01*
X192386681Y-68556190D01*
X192446205Y-68460952D01*
X192499776Y-68413333D01*
X192600967Y-68365714D01*
X192791443Y-68365714D01*
X192880729Y-68413333D01*
X193618824Y-68984761D02*
X193517633Y-69032380D01*
X193327157Y-69032380D01*
X193237872Y-68984761D01*
X193202157Y-68889523D01*
X193249776Y-68508571D01*
X193309300Y-68413333D01*
X193410491Y-68365714D01*
X193600967Y-68365714D01*
X193690252Y-68413333D01*
X193725967Y-68508571D01*
X193714062Y-68603809D01*
X193225967Y-68699047D01*
X194172395Y-68365714D02*
X194089062Y-69032380D01*
X194160491Y-68460952D02*
X194214062Y-68413333D01*
X194315252Y-68365714D01*
X194458110Y-68365714D01*
X194547395Y-68413333D01*
X194583110Y-68508571D01*
X194517633Y-69032380D01*
X194952157Y-68984761D02*
X195041443Y-69032380D01*
X195231919Y-69032380D01*
X195333110Y-68984761D01*
X195392633Y-68889523D01*
X195398586Y-68841904D01*
X195362872Y-68746666D01*
X195273586Y-68699047D01*
X195130729Y-68699047D01*
X195041443Y-68651428D01*
X195005729Y-68556190D01*
X195011681Y-68508571D01*
X195071205Y-68413333D01*
X195172395Y-68365714D01*
X195315252Y-68365714D01*
X195404538Y-68413333D01*
X196190252Y-68984761D02*
X196089062Y-69032380D01*
X195898586Y-69032380D01*
X195809300Y-68984761D01*
X195773586Y-68889523D01*
X195821205Y-68508571D01*
X195880729Y-68413333D01*
X195981919Y-68365714D01*
X196172395Y-68365714D01*
X196261681Y-68413333D01*
X196297395Y-68508571D01*
X196285491Y-68603809D01*
X195797395Y-68699047D01*
X197410491Y-68365714D02*
X197565252Y-69032380D01*
X197886681Y-68365714D01*
X198249776Y-68127619D02*
X198303348Y-68080000D01*
X198404538Y-68032380D01*
X198642633Y-68032380D01*
X198731919Y-68080000D01*
X198773586Y-68127619D01*
X198809300Y-68222857D01*
X198797395Y-68318095D01*
X198731919Y-68460952D01*
X198089062Y-69032380D01*
X198708110Y-69032380D01*
X147776681Y-33218333D02*
X147735014Y-33170714D01*
X147657633Y-33027857D01*
X147621919Y-32932619D01*
X147592157Y-32789761D01*
X147574300Y-32551666D01*
X147598110Y-32361190D01*
X147675491Y-32123095D01*
X147740967Y-31980238D01*
X147800491Y-31885000D01*
X147913586Y-31742142D01*
X147967157Y-31694523D01*
X148788586Y-32742142D02*
X148735014Y-32789761D01*
X148586205Y-32837380D01*
X148490967Y-32837380D01*
X148354062Y-32789761D01*
X148270729Y-32694523D01*
X148235014Y-32599285D01*
X148211205Y-32408809D01*
X148229062Y-32265952D01*
X148300491Y-32075476D01*
X148360014Y-31980238D01*
X148467157Y-31885000D01*
X148615967Y-31837380D01*
X148711205Y-31837380D01*
X148848110Y-31885000D01*
X148889776Y-31932619D01*
X149062395Y-33218333D02*
X149115967Y-33170714D01*
X149229062Y-33027857D01*
X149288586Y-32932619D01*
X149354062Y-32789761D01*
X149431443Y-32551666D01*
X149455252Y-32361190D01*
X149437395Y-32123095D01*
X149407633Y-31980238D01*
X149371919Y-31885000D01*
X149294538Y-31742142D01*
X149252872Y-31694523D01*
X150699300Y-31932619D02*
X150752872Y-31885000D01*
X150854062Y-31837380D01*
X151092157Y-31837380D01*
X151181443Y-31885000D01*
X151223110Y-31932619D01*
X151258824Y-32027857D01*
X151246919Y-32123095D01*
X151181443Y-32265952D01*
X150538586Y-32837380D01*
X151157633Y-32837380D01*
X151901681Y-31837380D02*
X151996919Y-31837380D01*
X152086205Y-31885000D01*
X152127872Y-31932619D01*
X152163586Y-32027857D01*
X152187395Y-32218333D01*
X152157633Y-32456428D01*
X152086205Y-32646904D01*
X152026681Y-32742142D01*
X151973110Y-32789761D01*
X151871919Y-32837380D01*
X151776681Y-32837380D01*
X151687395Y-32789761D01*
X151645729Y-32742142D01*
X151610014Y-32646904D01*
X151586205Y-32456428D01*
X151615967Y-32218333D01*
X151687395Y-32027857D01*
X151746919Y-31932619D01*
X151800491Y-31885000D01*
X151901681Y-31837380D01*
X153062395Y-32837380D02*
X152490967Y-32837380D01*
X152776681Y-32837380D02*
X152901681Y-31837380D01*
X152788586Y-31980238D01*
X152681443Y-32075476D01*
X152580252Y-32123095D01*
X153538586Y-32837380D02*
X153729062Y-32837380D01*
X153830252Y-32789761D01*
X153883824Y-32742142D01*
X153996919Y-32599285D01*
X154068348Y-32408809D01*
X154115967Y-32027857D01*
X154080252Y-31932619D01*
X154038586Y-31885000D01*
X153949300Y-31837380D01*
X153758824Y-31837380D01*
X153657633Y-31885000D01*
X153604062Y-31932619D01*
X153544538Y-32027857D01*
X153514776Y-32265952D01*
X153550491Y-32361190D01*
X153592157Y-32408809D01*
X153681443Y-32456428D01*
X153871919Y-32456428D01*
X153973110Y-32408809D01*
X154026681Y-32361190D01*
X154086205Y-32265952D01*
X155205252Y-32837380D02*
X155330252Y-31837380D01*
X155776681Y-32837380D02*
X155419538Y-32265952D01*
X155901681Y-31837380D02*
X155258824Y-32408809D01*
X156633824Y-32837380D02*
X156699300Y-32313571D01*
X156663586Y-32218333D01*
X156574300Y-32170714D01*
X156383824Y-32170714D01*
X156282633Y-32218333D01*
X156639776Y-32789761D02*
X156538586Y-32837380D01*
X156300491Y-32837380D01*
X156211205Y-32789761D01*
X156175491Y-32694523D01*
X156187395Y-32599285D01*
X156246919Y-32504047D01*
X156348110Y-32456428D01*
X156586205Y-32456428D01*
X156687395Y-32408809D01*
X157110014Y-32837380D02*
X157193348Y-32170714D01*
X157235014Y-31837380D02*
X157181443Y-31885000D01*
X157223110Y-31932619D01*
X157276681Y-31885000D01*
X157235014Y-31837380D01*
X157223110Y-31932619D01*
X158919538Y-32837380D02*
X158645729Y-32361190D01*
X158348110Y-32837380D02*
X158473110Y-31837380D01*
X158854062Y-31837380D01*
X158943348Y-31885000D01*
X158985014Y-31932619D01*
X159020729Y-32027857D01*
X159002872Y-32170714D01*
X158943348Y-32265952D01*
X158889776Y-32313571D01*
X158788586Y-32361190D01*
X158407633Y-32361190D01*
X159490967Y-32837380D02*
X159401681Y-32789761D01*
X159360014Y-32742142D01*
X159324300Y-32646904D01*
X159360014Y-32361190D01*
X159419538Y-32265952D01*
X159473110Y-32218333D01*
X159574300Y-32170714D01*
X159717157Y-32170714D01*
X159806443Y-32218333D01*
X159848110Y-32265952D01*
X159883824Y-32361190D01*
X159848110Y-32646904D01*
X159788586Y-32742142D01*
X159735014Y-32789761D01*
X159633824Y-32837380D01*
X159490967Y-32837380D01*
X160252872Y-32837380D02*
X160377872Y-31837380D01*
X160330252Y-32218333D02*
X160431443Y-32170714D01*
X160621919Y-32170714D01*
X160711205Y-32218333D01*
X160752872Y-32265952D01*
X160788586Y-32361190D01*
X160752872Y-32646904D01*
X160693348Y-32742142D01*
X160639776Y-32789761D01*
X160538586Y-32837380D01*
X160348110Y-32837380D01*
X160258824Y-32789761D01*
X161157633Y-32837380D02*
X161240967Y-32170714D01*
X161282633Y-31837380D02*
X161229062Y-31885000D01*
X161270729Y-31932619D01*
X161324300Y-31885000D01*
X161282633Y-31837380D01*
X161270729Y-31932619D01*
X161717157Y-32170714D02*
X161633824Y-32837380D01*
X161705252Y-32265952D02*
X161758824Y-32218333D01*
X161860014Y-32170714D01*
X162002872Y-32170714D01*
X162092157Y-32218333D01*
X162127872Y-32313571D01*
X162062395Y-32837380D01*
X162496919Y-32789761D02*
X162586205Y-32837380D01*
X162776681Y-32837380D01*
X162877872Y-32789761D01*
X162937395Y-32694523D01*
X162943348Y-32646904D01*
X162907633Y-32551666D01*
X162818348Y-32504047D01*
X162675491Y-32504047D01*
X162586205Y-32456428D01*
X162550491Y-32361190D01*
X162556443Y-32313571D01*
X162615967Y-32218333D01*
X162717157Y-32170714D01*
X162860014Y-32170714D01*
X162949300Y-32218333D01*
X163490967Y-32837380D02*
X163401681Y-32789761D01*
X163360014Y-32742142D01*
X163324300Y-32646904D01*
X163360014Y-32361190D01*
X163419538Y-32265952D01*
X163473110Y-32218333D01*
X163574300Y-32170714D01*
X163717157Y-32170714D01*
X163806443Y-32218333D01*
X163848110Y-32265952D01*
X163883824Y-32361190D01*
X163848110Y-32646904D01*
X163788586Y-32742142D01*
X163735014Y-32789761D01*
X163633824Y-32837380D01*
X163490967Y-32837380D01*
X164336205Y-32170714D02*
X164252872Y-32837380D01*
X164324300Y-32265952D02*
X164377872Y-32218333D01*
X164479062Y-32170714D01*
X164621919Y-32170714D01*
X164711205Y-32218333D01*
X164746919Y-32313571D01*
X164681443Y-32837380D01*
X122309538Y-32551666D02*
X122785729Y-32551666D01*
X122178586Y-32837380D02*
X122636919Y-31837380D01*
X122845252Y-32837380D01*
X123779776Y-31837380D02*
X123303586Y-31837380D01*
X123196443Y-32313571D01*
X123250014Y-32265952D01*
X123351205Y-32218333D01*
X123589300Y-32218333D01*
X123678586Y-32265952D01*
X123720252Y-32313571D01*
X123755967Y-32408809D01*
X123726205Y-32646904D01*
X123666681Y-32742142D01*
X123613110Y-32789761D01*
X123511919Y-32837380D01*
X123273824Y-32837380D01*
X123184538Y-32789761D01*
X123142872Y-32742142D01*
X124446443Y-31837380D02*
X124541681Y-31837380D01*
X124630967Y-31885000D01*
X124672633Y-31932619D01*
X124708348Y-32027857D01*
X124732157Y-32218333D01*
X124702395Y-32456428D01*
X124630967Y-32646904D01*
X124571443Y-32742142D01*
X124517872Y-32789761D01*
X124416681Y-32837380D01*
X124321443Y-32837380D01*
X124232157Y-32789761D01*
X124190491Y-32742142D01*
X124154776Y-32646904D01*
X124130967Y-32456428D01*
X124160729Y-32218333D01*
X124232157Y-32027857D01*
X124291681Y-31932619D01*
X124345252Y-31885000D01*
X124446443Y-31837380D01*
X125398824Y-31837380D02*
X125494062Y-31837380D01*
X125583348Y-31885000D01*
X125625014Y-31932619D01*
X125660729Y-32027857D01*
X125684538Y-32218333D01*
X125654776Y-32456428D01*
X125583348Y-32646904D01*
X125523824Y-32742142D01*
X125470252Y-32789761D01*
X125369062Y-32837380D01*
X125273824Y-32837380D01*
X125184538Y-32789761D01*
X125142872Y-32742142D01*
X125107157Y-32646904D01*
X125083348Y-32456428D01*
X125113110Y-32218333D01*
X125184538Y-32027857D01*
X125244062Y-31932619D01*
X125297633Y-31885000D01*
X125398824Y-31837380D01*
X127011919Y-32265952D02*
X126922633Y-32218333D01*
X126880967Y-32170714D01*
X126845252Y-32075476D01*
X126851205Y-32027857D01*
X126910729Y-31932619D01*
X126964300Y-31885000D01*
X127065491Y-31837380D01*
X127255967Y-31837380D01*
X127345252Y-31885000D01*
X127386919Y-31932619D01*
X127422633Y-32027857D01*
X127416681Y-32075476D01*
X127357157Y-32170714D01*
X127303586Y-32218333D01*
X127202395Y-32265952D01*
X127011919Y-32265952D01*
X126910729Y-32313571D01*
X126857157Y-32361190D01*
X126797633Y-32456428D01*
X126773824Y-32646904D01*
X126809538Y-32742142D01*
X126851205Y-32789761D01*
X126940491Y-32837380D01*
X127130967Y-32837380D01*
X127232157Y-32789761D01*
X127285729Y-32742142D01*
X127345252Y-32646904D01*
X127369062Y-32456428D01*
X127333348Y-32361190D01*
X127291681Y-32313571D01*
X127202395Y-32265952D01*
X127750014Y-32837380D02*
X127875014Y-31837380D01*
X128119062Y-32551666D01*
X128541681Y-31837380D01*
X128416681Y-32837380D01*
X129291681Y-32313571D02*
X129428586Y-32361190D01*
X129470252Y-32408809D01*
X129505967Y-32504047D01*
X129488110Y-32646904D01*
X129428586Y-32742142D01*
X129375014Y-32789761D01*
X129273824Y-32837380D01*
X128892872Y-32837380D01*
X129017872Y-31837380D01*
X129351205Y-31837380D01*
X129440491Y-31885000D01*
X129482157Y-31932619D01*
X129517872Y-32027857D01*
X129505967Y-32123095D01*
X129446443Y-32218333D01*
X129392872Y-32265952D01*
X129291681Y-32313571D01*
X128958348Y-32313571D01*
X131053586Y-32313571D02*
X130720252Y-32313571D01*
X130654776Y-32837380D02*
X130779776Y-31837380D01*
X131255967Y-31837380D01*
X131500014Y-32551666D02*
X131976205Y-32551666D01*
X131369062Y-32837380D02*
X131827395Y-31837380D01*
X132035729Y-32837380D01*
X132327395Y-32789761D02*
X132464300Y-32837380D01*
X132702395Y-32837380D01*
X132803586Y-32789761D01*
X132857157Y-32742142D01*
X132916681Y-32646904D01*
X132928586Y-32551666D01*
X132892872Y-32456428D01*
X132851205Y-32408809D01*
X132761919Y-32361190D01*
X132577395Y-32313571D01*
X132488110Y-32265952D01*
X132446443Y-32218333D01*
X132410729Y-32123095D01*
X132422633Y-32027857D01*
X132482157Y-31932619D01*
X132535729Y-31885000D01*
X132636919Y-31837380D01*
X132875014Y-31837380D01*
X133011919Y-31885000D01*
X133303586Y-31837380D02*
X133875014Y-31837380D01*
X133464300Y-32837380D02*
X133589300Y-31837380D01*
X134654776Y-32837380D02*
X134380967Y-32361190D01*
X134083348Y-32837380D02*
X134208348Y-31837380D01*
X134589300Y-31837380D01*
X134678586Y-31885000D01*
X134720252Y-31932619D01*
X134755967Y-32027857D01*
X134738110Y-32170714D01*
X134678586Y-32265952D01*
X134625014Y-32313571D01*
X134523824Y-32361190D01*
X134142872Y-32361190D01*
X135071443Y-32551666D02*
X135547633Y-32551666D01*
X134940491Y-32837380D02*
X135398824Y-31837380D01*
X135607157Y-32837380D01*
X135940491Y-32837380D02*
X136065491Y-31837380D01*
X136309538Y-32551666D01*
X136732157Y-31837380D01*
X136607157Y-32837380D01*
X138244062Y-32313571D02*
X138380967Y-32361190D01*
X138422633Y-32408809D01*
X138458348Y-32504047D01*
X138440491Y-32646904D01*
X138380967Y-32742142D01*
X138327395Y-32789761D01*
X138226205Y-32837380D01*
X137845252Y-32837380D01*
X137970252Y-31837380D01*
X138303586Y-31837380D01*
X138392872Y-31885000D01*
X138434538Y-31932619D01*
X138470252Y-32027857D01*
X138458348Y-32123095D01*
X138398824Y-32218333D01*
X138345252Y-32265952D01*
X138244062Y-32313571D01*
X137910729Y-32313571D01*
X138988110Y-32837380D02*
X138898824Y-32789761D01*
X138857157Y-32742142D01*
X138821443Y-32646904D01*
X138857157Y-32361190D01*
X138916681Y-32265952D01*
X138970252Y-32218333D01*
X139071443Y-32170714D01*
X139214300Y-32170714D01*
X139303586Y-32218333D01*
X139345252Y-32265952D01*
X139380967Y-32361190D01*
X139345252Y-32646904D01*
X139285729Y-32742142D01*
X139232157Y-32789761D01*
X139130967Y-32837380D01*
X138988110Y-32837380D01*
X140178586Y-32837380D02*
X140244062Y-32313571D01*
X140208348Y-32218333D01*
X140119062Y-32170714D01*
X139928586Y-32170714D01*
X139827395Y-32218333D01*
X140184538Y-32789761D02*
X140083348Y-32837380D01*
X139845252Y-32837380D01*
X139755967Y-32789761D01*
X139720252Y-32694523D01*
X139732157Y-32599285D01*
X139791681Y-32504047D01*
X139892872Y-32456428D01*
X140130967Y-32456428D01*
X140232157Y-32408809D01*
X140654776Y-32837380D02*
X140738110Y-32170714D01*
X140714300Y-32361190D02*
X140773824Y-32265952D01*
X140827395Y-32218333D01*
X140928586Y-32170714D01*
X141023824Y-32170714D01*
X141702395Y-32837380D02*
X141827395Y-31837380D01*
X141708348Y-32789761D02*
X141607157Y-32837380D01*
X141416681Y-32837380D01*
X141327395Y-32789761D01*
X141285729Y-32742142D01*
X141250014Y-32646904D01*
X141285729Y-32361190D01*
X141345252Y-32265952D01*
X141398824Y-32218333D01*
X141500014Y-32170714D01*
X141690491Y-32170714D01*
X141779776Y-32218333D01*
X142928586Y-32170714D02*
X143083348Y-32837380D01*
X143404776Y-32170714D01*
X143767872Y-31932619D02*
X143821443Y-31885000D01*
X143922633Y-31837380D01*
X144160729Y-31837380D01*
X144250014Y-31885000D01*
X144291681Y-31932619D01*
X144327395Y-32027857D01*
X144315491Y-32123095D01*
X144250014Y-32265952D01*
X143607157Y-32837380D01*
X144226205Y-32837380D01*
D13*
X152146000Y-97298000D02*
X152146000Y-70882000D01*
X159512000Y-97298000D02*
X152146000Y-97298000D01*
X159512000Y-70882000D02*
X159512000Y-97298000D01*
X152146000Y-70882000D02*
X159512000Y-70882000D01*
X166116000Y-70882000D02*
X173482000Y-70882000D01*
X173482000Y-70882000D02*
X173482000Y-97298000D01*
X173482000Y-97298000D02*
X166116000Y-97298000D01*
X166116000Y-97298000D02*
X166116000Y-70882000D01*
X180086000Y-97298000D02*
X180086000Y-70882000D01*
X187452000Y-97298000D02*
X180086000Y-97298000D01*
X187452000Y-70882000D02*
X187452000Y-97298000D01*
X180086000Y-70882000D02*
X187452000Y-70882000D01*
X194056000Y-97298000D02*
X194056000Y-70882000D01*
X201422000Y-97298000D02*
X194056000Y-97298000D01*
X201422000Y-70882000D02*
X201422000Y-97298000D01*
X194056000Y-70882000D02*
X201422000Y-70882000D01*
X121920000Y-34290000D02*
X144780000Y-34290000D01*
X144780000Y-34290000D02*
X144780000Y-115570000D01*
X144780000Y-115570000D02*
X121920000Y-115570000D01*
X121920000Y-115570000D02*
X121920000Y-34290000D01*
X162830000Y-35175000D02*
X149205000Y-35175000D01*
X149205000Y-35175000D02*
X148205000Y-36175000D01*
X148205000Y-36175000D02*
X148205000Y-66425000D01*
X148205000Y-66425000D02*
X179455000Y-66425000D01*
X179455000Y-66425000D02*
X179455000Y-35175000D01*
X179455000Y-35175000D02*
X164830000Y-35175000D01*
X153002064Y-67670000D02*
X151797936Y-67670000D01*
X153002064Y-69490000D02*
X151797936Y-69490000D01*
X201327936Y-45360000D02*
X202532064Y-45360000D01*
X201327936Y-43540000D02*
X202532064Y-43540000D01*
X202532064Y-46080000D02*
X201327936Y-46080000D01*
X202532064Y-47900000D02*
X201327936Y-47900000D01*
X201327936Y-48620000D02*
X202532064Y-48620000D01*
X201327936Y-50440000D02*
X202532064Y-50440000D01*
X151797936Y-98277000D02*
X153002064Y-98277000D01*
X151797936Y-100097000D02*
X153002064Y-100097000D01*
X158782936Y-100097000D02*
X159987064Y-100097000D01*
X158782936Y-98277000D02*
X159987064Y-98277000D01*
X155353936Y-101198000D02*
X156558064Y-101198000D01*
X155353936Y-103018000D02*
X156558064Y-103018000D01*
X165767936Y-98277000D02*
X166972064Y-98277000D01*
X165767936Y-100097000D02*
X166972064Y-100097000D01*
X172625936Y-100097000D02*
X173830064Y-100097000D01*
X172625936Y-98277000D02*
X173830064Y-98277000D01*
X169196936Y-101198000D02*
X170401064Y-101198000D01*
X169196936Y-103018000D02*
X170401064Y-103018000D01*
X179737936Y-100097000D02*
X180942064Y-100097000D01*
X179737936Y-98277000D02*
X180942064Y-98277000D01*
X186722936Y-98277000D02*
X187927064Y-98277000D01*
X186722936Y-100097000D02*
X187927064Y-100097000D01*
X183293936Y-103018000D02*
X184498064Y-103018000D01*
X183293936Y-101198000D02*
X184498064Y-101198000D01*
X193707936Y-98277000D02*
X194912064Y-98277000D01*
X193707936Y-100097000D02*
X194912064Y-100097000D01*
X200692936Y-100097000D02*
X201897064Y-100097000D01*
X200692936Y-98277000D02*
X201897064Y-98277000D01*
X197136936Y-101198000D02*
X198341064Y-101198000D01*
X197136936Y-103018000D02*
X198341064Y-103018000D01*
X133952064Y-80920000D02*
X132747936Y-80920000D01*
X133952064Y-79100000D02*
X132747936Y-79100000D01*
X202532064Y-42820000D02*
X201327936Y-42820000D01*
X202532064Y-41000000D02*
X201327936Y-41000000D01*
X202532064Y-38460000D02*
X201327936Y-38460000D01*
X202532064Y-40280000D02*
X201327936Y-40280000D01*
X202532064Y-37740000D02*
X201327936Y-37740000D01*
X202532064Y-35920000D02*
X201327936Y-35920000D01*
X133350000Y-76220000D02*
X135300000Y-76220000D01*
X133350000Y-76220000D02*
X131400000Y-76220000D01*
X133350000Y-71100000D02*
X135300000Y-71100000D01*
X133350000Y-71100000D02*
X129900000Y-71100000D01*
X186690000Y-66020000D02*
X188640000Y-66020000D01*
X186690000Y-66020000D02*
X184740000Y-66020000D01*
X186690000Y-55900000D02*
X188640000Y-55900000D01*
X186690000Y-55900000D02*
X183240000Y-55900000D01*
X196850000Y-55900000D02*
X193400000Y-55900000D01*
X196850000Y-55900000D02*
X198800000Y-55900000D01*
X196850000Y-66020000D02*
X194900000Y-66020000D01*
X196850000Y-66020000D02*
X198800000Y-66020000D01*
D10*
X184055000Y-39275000D02*
X184055000Y-39850000D01*
X194405000Y-39275000D02*
X194405000Y-39950000D01*
X194405000Y-49625000D02*
X194405000Y-48950000D01*
X184055000Y-49625000D02*
X184055000Y-48950000D01*
X184055000Y-39275000D02*
X184730000Y-39275000D01*
X184055000Y-49625000D02*
X184730000Y-49625000D01*
X194405000Y-49625000D02*
X193730000Y-49625000D01*
X194405000Y-39275000D02*
X193730000Y-39275000D01*
X184055000Y-39850000D02*
X182780000Y-39850000D01*
D13*
X198180000Y-34350000D02*
X198180000Y-31690000D01*
X185420000Y-34350000D02*
X198180000Y-34350000D01*
X185420000Y-31690000D02*
X198180000Y-31690000D01*
X185420000Y-34350000D02*
X185420000Y-31690000D01*
X184150000Y-34350000D02*
X182820000Y-34350000D01*
X182820000Y-34350000D02*
X182820000Y-33020000D01*
D10*
X155448095Y-83272380D02*
X155448095Y-84081904D01*
X155495714Y-84177142D01*
X155543333Y-84224761D01*
X155638571Y-84272380D01*
X155829047Y-84272380D01*
X155924285Y-84224761D01*
X155971904Y-84177142D01*
X156019523Y-84081904D01*
X156019523Y-83272380D01*
X156924285Y-83272380D02*
X156733809Y-83272380D01*
X156638571Y-83320000D01*
X156590952Y-83367619D01*
X156495714Y-83510476D01*
X156448095Y-83700952D01*
X156448095Y-84081904D01*
X156495714Y-84177142D01*
X156543333Y-84224761D01*
X156638571Y-84272380D01*
X156829047Y-84272380D01*
X156924285Y-84224761D01*
X156971904Y-84177142D01*
X157019523Y-84081904D01*
X157019523Y-83843809D01*
X156971904Y-83748571D01*
X156924285Y-83700952D01*
X156829047Y-83653333D01*
X156638571Y-83653333D01*
X156543333Y-83700952D01*
X156495714Y-83748571D01*
X156448095Y-83843809D01*
X169418095Y-83272380D02*
X169418095Y-84081904D01*
X169465714Y-84177142D01*
X169513333Y-84224761D01*
X169608571Y-84272380D01*
X169799047Y-84272380D01*
X169894285Y-84224761D01*
X169941904Y-84177142D01*
X169989523Y-84081904D01*
X169989523Y-83272380D01*
X170370476Y-83272380D02*
X171037142Y-83272380D01*
X170608571Y-84272380D01*
X183388095Y-83272380D02*
X183388095Y-84081904D01*
X183435714Y-84177142D01*
X183483333Y-84224761D01*
X183578571Y-84272380D01*
X183769047Y-84272380D01*
X183864285Y-84224761D01*
X183911904Y-84177142D01*
X183959523Y-84081904D01*
X183959523Y-83272380D01*
X184578571Y-83700952D02*
X184483333Y-83653333D01*
X184435714Y-83605714D01*
X184388095Y-83510476D01*
X184388095Y-83462857D01*
X184435714Y-83367619D01*
X184483333Y-83320000D01*
X184578571Y-83272380D01*
X184769047Y-83272380D01*
X184864285Y-83320000D01*
X184911904Y-83367619D01*
X184959523Y-83462857D01*
X184959523Y-83510476D01*
X184911904Y-83605714D01*
X184864285Y-83653333D01*
X184769047Y-83700952D01*
X184578571Y-83700952D01*
X184483333Y-83748571D01*
X184435714Y-83796190D01*
X184388095Y-83891428D01*
X184388095Y-84081904D01*
X184435714Y-84177142D01*
X184483333Y-84224761D01*
X184578571Y-84272380D01*
X184769047Y-84272380D01*
X184864285Y-84224761D01*
X184911904Y-84177142D01*
X184959523Y-84081904D01*
X184959523Y-83891428D01*
X184911904Y-83796190D01*
X184864285Y-83748571D01*
X184769047Y-83700952D01*
X197358095Y-83272380D02*
X197358095Y-84081904D01*
X197405714Y-84177142D01*
X197453333Y-84224761D01*
X197548571Y-84272380D01*
X197739047Y-84272380D01*
X197834285Y-84224761D01*
X197881904Y-84177142D01*
X197929523Y-84081904D01*
X197929523Y-83272380D01*
X198453333Y-84272380D02*
X198643809Y-84272380D01*
X198739047Y-84224761D01*
X198786666Y-84177142D01*
X198881904Y-84034285D01*
X198929523Y-83843809D01*
X198929523Y-83462857D01*
X198881904Y-83367619D01*
X198834285Y-83320000D01*
X198739047Y-83272380D01*
X198548571Y-83272380D01*
X198453333Y-83320000D01*
X198405714Y-83367619D01*
X198358095Y-83462857D01*
X198358095Y-83700952D01*
X198405714Y-83796190D01*
X198453333Y-83843809D01*
X198548571Y-83891428D01*
X198739047Y-83891428D01*
X198834285Y-83843809D01*
X198881904Y-83796190D01*
X198929523Y-83700952D01*
X122642380Y-79476889D02*
X123451904Y-79578080D01*
X123547142Y-79542366D01*
X123594761Y-79500699D01*
X123642380Y-79411413D01*
X123642380Y-79220937D01*
X123594761Y-79119747D01*
X123547142Y-79066175D01*
X123451904Y-79006651D01*
X122642380Y-78905461D01*
X123642380Y-78030461D02*
X123642380Y-78601889D01*
X123642380Y-78316175D02*
X122642380Y-78191175D01*
X122785238Y-78304270D01*
X122880476Y-78411413D01*
X122928095Y-78512604D01*
X122642380Y-75610699D02*
X122642380Y-75801175D01*
X122690000Y-75902366D01*
X122737619Y-75955937D01*
X122880476Y-76069032D01*
X123070952Y-76140461D01*
X123451904Y-76188080D01*
X123547142Y-76152366D01*
X123594761Y-76110699D01*
X123642380Y-76021413D01*
X123642380Y-75830937D01*
X123594761Y-75729747D01*
X123547142Y-75676175D01*
X123451904Y-75616651D01*
X123213809Y-75586889D01*
X123118571Y-75622604D01*
X123070952Y-75664270D01*
X123023333Y-75753556D01*
X123023333Y-75944032D01*
X123070952Y-76045223D01*
X123118571Y-76098794D01*
X123213809Y-76158318D01*
X123070952Y-74997604D02*
X123023333Y-75086889D01*
X122975714Y-75128556D01*
X122880476Y-75164270D01*
X122832857Y-75158318D01*
X122737619Y-75098794D01*
X122690000Y-75045223D01*
X122642380Y-74944032D01*
X122642380Y-74753556D01*
X122690000Y-74664270D01*
X122737619Y-74622604D01*
X122832857Y-74586889D01*
X122880476Y-74592842D01*
X122975714Y-74652366D01*
X123023333Y-74705937D01*
X123070952Y-74807127D01*
X123070952Y-74997604D01*
X123118571Y-75098794D01*
X123166190Y-75152366D01*
X123261428Y-75211889D01*
X123451904Y-75235699D01*
X123547142Y-75199985D01*
X123594761Y-75158318D01*
X123642380Y-75069032D01*
X123642380Y-74878556D01*
X123594761Y-74777366D01*
X123547142Y-74723794D01*
X123451904Y-74664270D01*
X123261428Y-74640461D01*
X123166190Y-74676175D01*
X123118571Y-74717842D01*
X123070952Y-74807127D01*
X122642380Y-73944032D02*
X122642380Y-73848794D01*
X122690000Y-73759508D01*
X122737619Y-73717842D01*
X122832857Y-73682127D01*
X123023333Y-73658318D01*
X123261428Y-73688080D01*
X123451904Y-73759508D01*
X123547142Y-73819032D01*
X123594761Y-73872604D01*
X123642380Y-73973794D01*
X123642380Y-74069032D01*
X123594761Y-74158318D01*
X123547142Y-74199985D01*
X123451904Y-74235699D01*
X123261428Y-74259508D01*
X123023333Y-74229747D01*
X122832857Y-74158318D01*
X122737619Y-74098794D01*
X122690000Y-74045223D01*
X122642380Y-73944032D01*
X122642380Y-72991651D02*
X122642380Y-72896413D01*
X122690000Y-72807127D01*
X122737619Y-72765461D01*
X122832857Y-72729747D01*
X123023333Y-72705937D01*
X123261428Y-72735699D01*
X123451904Y-72807127D01*
X123547142Y-72866651D01*
X123594761Y-72920223D01*
X123642380Y-73021413D01*
X123642380Y-73116651D01*
X123594761Y-73205937D01*
X123547142Y-73247604D01*
X123451904Y-73283318D01*
X123261428Y-73307127D01*
X123023333Y-73277366D01*
X122832857Y-73205937D01*
X122737619Y-73146413D01*
X122690000Y-73092842D01*
X122642380Y-72991651D01*
X122642380Y-72039270D02*
X122642380Y-71944032D01*
X122690000Y-71854747D01*
X122737619Y-71813080D01*
X122832857Y-71777366D01*
X123023333Y-71753556D01*
X123261428Y-71783318D01*
X123451904Y-71854747D01*
X123547142Y-71914270D01*
X123594761Y-71967842D01*
X123642380Y-72069032D01*
X123642380Y-72164270D01*
X123594761Y-72253556D01*
X123547142Y-72295223D01*
X123451904Y-72330937D01*
X123261428Y-72354747D01*
X123023333Y-72324985D01*
X122832857Y-72253556D01*
X122737619Y-72194032D01*
X122690000Y-72140461D01*
X122642380Y-72039270D01*
X123118571Y-70241651D02*
X123166190Y-70104747D01*
X123213809Y-70063080D01*
X123309047Y-70027366D01*
X123451904Y-70045223D01*
X123547142Y-70104747D01*
X123594761Y-70158318D01*
X123642380Y-70259508D01*
X123642380Y-70640461D01*
X122642380Y-70515461D01*
X122642380Y-70182127D01*
X122690000Y-70092842D01*
X122737619Y-70051175D01*
X122832857Y-70015461D01*
X122928095Y-70027366D01*
X123023333Y-70086889D01*
X123070952Y-70140461D01*
X123118571Y-70241651D01*
X123118571Y-70574985D01*
X123642380Y-69497604D02*
X123594761Y-69586889D01*
X123547142Y-69628556D01*
X123451904Y-69664270D01*
X123166190Y-69628556D01*
X123070952Y-69569032D01*
X123023333Y-69515461D01*
X122975714Y-69414270D01*
X122975714Y-69271413D01*
X123023333Y-69182127D01*
X123070952Y-69140461D01*
X123166190Y-69104747D01*
X123451904Y-69140461D01*
X123547142Y-69199985D01*
X123594761Y-69253556D01*
X123642380Y-69354747D01*
X123642380Y-69497604D01*
X123642380Y-68307127D02*
X123118571Y-68241651D01*
X123023333Y-68277366D01*
X122975714Y-68366651D01*
X122975714Y-68557127D01*
X123023333Y-68658318D01*
X123594761Y-68301175D02*
X123642380Y-68402366D01*
X123642380Y-68640461D01*
X123594761Y-68729747D01*
X123499523Y-68765461D01*
X123404285Y-68753556D01*
X123309047Y-68694032D01*
X123261428Y-68592842D01*
X123261428Y-68354747D01*
X123213809Y-68253556D01*
X123642380Y-67830937D02*
X122975714Y-67747604D01*
X123166190Y-67771413D02*
X123070952Y-67711889D01*
X123023333Y-67658318D01*
X122975714Y-67557127D01*
X122975714Y-67461889D01*
X123642380Y-66783318D02*
X122642380Y-66658318D01*
X123594761Y-66777366D02*
X123642380Y-66878556D01*
X123642380Y-67069032D01*
X123594761Y-67158318D01*
X123547142Y-67199985D01*
X123451904Y-67235699D01*
X123166190Y-67199985D01*
X123070952Y-67140461D01*
X123023333Y-67086889D01*
X122975714Y-66985699D01*
X122975714Y-66795223D01*
X123023333Y-66705937D01*
X123594761Y-66348794D02*
X123642380Y-66259508D01*
X123642380Y-66069032D01*
X123594761Y-65967842D01*
X123499523Y-65908318D01*
X123451904Y-65902366D01*
X123356666Y-65938080D01*
X123309047Y-66027366D01*
X123309047Y-66170223D01*
X123261428Y-66259508D01*
X123166190Y-66295223D01*
X123118571Y-66289270D01*
X123023333Y-66229747D01*
X122975714Y-66128556D01*
X122975714Y-65985699D01*
X123023333Y-65896413D01*
X123642380Y-65497604D02*
X122975714Y-65414270D01*
X122642380Y-65372604D02*
X122690000Y-65426175D01*
X122737619Y-65384508D01*
X122690000Y-65330937D01*
X122642380Y-65372604D01*
X122737619Y-65384508D01*
X123642380Y-64592842D02*
X122642380Y-64467842D01*
X123594761Y-64586889D02*
X123642380Y-64688080D01*
X123642380Y-64878556D01*
X123594761Y-64967842D01*
X123547142Y-65009508D01*
X123451904Y-65045223D01*
X123166190Y-65009508D01*
X123070952Y-64949985D01*
X123023333Y-64896413D01*
X122975714Y-64795223D01*
X122975714Y-64604747D01*
X123023333Y-64515461D01*
X123594761Y-63729747D02*
X123642380Y-63830937D01*
X123642380Y-64021413D01*
X123594761Y-64110699D01*
X123499523Y-64146413D01*
X123118571Y-64098794D01*
X123023333Y-64039270D01*
X122975714Y-63938080D01*
X122975714Y-63747604D01*
X123023333Y-63658318D01*
X123118571Y-63622604D01*
X123213809Y-63634508D01*
X123309047Y-64122604D01*
X123375729Y-36012380D02*
X122804300Y-36012380D01*
X123090014Y-36012380D02*
X123215014Y-35012380D01*
X123101919Y-35155238D01*
X122994776Y-35250476D01*
X122893586Y-35298095D01*
X143249300Y-35012380D02*
X143058824Y-35012380D01*
X142957633Y-35060000D01*
X142904062Y-35107619D01*
X142790967Y-35250476D01*
X142719538Y-35440952D01*
X142671919Y-35821904D01*
X142707633Y-35917142D01*
X142749300Y-35964761D01*
X142838586Y-36012380D01*
X143029062Y-36012380D01*
X143130252Y-35964761D01*
X143183824Y-35917142D01*
X143243348Y-35821904D01*
X143273110Y-35583809D01*
X143237395Y-35488571D01*
X143195729Y-35440952D01*
X143106443Y-35393333D01*
X142915967Y-35393333D01*
X142814776Y-35440952D01*
X142761205Y-35488571D01*
X142701681Y-35583809D01*
X144160014Y-35345714D02*
X144076681Y-36012380D01*
X143969538Y-34964761D02*
X143642157Y-35679047D01*
X144261205Y-35679047D01*
X163068095Y-33727380D02*
X163068095Y-34536904D01*
X163115714Y-34632142D01*
X163163333Y-34679761D01*
X163258571Y-34727380D01*
X163449047Y-34727380D01*
X163544285Y-34679761D01*
X163591904Y-34632142D01*
X163639523Y-34536904D01*
X163639523Y-33727380D01*
X164068095Y-33822619D02*
X164115714Y-33775000D01*
X164210952Y-33727380D01*
X164449047Y-33727380D01*
X164544285Y-33775000D01*
X164591904Y-33822619D01*
X164639523Y-33917857D01*
X164639523Y-34013095D01*
X164591904Y-34155952D01*
X164020476Y-34727380D01*
X164639523Y-34727380D01*
D11*
X152614285Y-68680000D02*
X152642857Y-68708571D01*
X152671428Y-68794285D01*
X152671428Y-68851428D01*
X152642857Y-68937142D01*
X152585714Y-68994285D01*
X152528571Y-69022857D01*
X152414285Y-69051428D01*
X152328571Y-69051428D01*
X152214285Y-69022857D01*
X152157142Y-68994285D01*
X152100000Y-68937142D01*
X152071428Y-68851428D01*
X152071428Y-68794285D01*
X152100000Y-68708571D01*
X152128571Y-68680000D01*
X152671428Y-68108571D02*
X152671428Y-68451428D01*
X152671428Y-68280000D02*
X152071428Y-68280000D01*
X152157142Y-68337142D01*
X152214285Y-68394285D01*
X152242857Y-68451428D01*
X202144285Y-44550000D02*
X202172857Y-44578571D01*
X202201428Y-44664285D01*
X202201428Y-44721428D01*
X202172857Y-44807142D01*
X202115714Y-44864285D01*
X202058571Y-44892857D01*
X201944285Y-44921428D01*
X201858571Y-44921428D01*
X201744285Y-44892857D01*
X201687142Y-44864285D01*
X201630000Y-44807142D01*
X201601428Y-44721428D01*
X201601428Y-44664285D01*
X201630000Y-44578571D01*
X201658571Y-44550000D01*
X201658571Y-44321428D02*
X201630000Y-44292857D01*
X201601428Y-44235714D01*
X201601428Y-44092857D01*
X201630000Y-44035714D01*
X201658571Y-44007142D01*
X201715714Y-43978571D01*
X201772857Y-43978571D01*
X201858571Y-44007142D01*
X202201428Y-44350000D01*
X202201428Y-43978571D01*
X202144285Y-47090000D02*
X202172857Y-47118571D01*
X202201428Y-47204285D01*
X202201428Y-47261428D01*
X202172857Y-47347142D01*
X202115714Y-47404285D01*
X202058571Y-47432857D01*
X201944285Y-47461428D01*
X201858571Y-47461428D01*
X201744285Y-47432857D01*
X201687142Y-47404285D01*
X201630000Y-47347142D01*
X201601428Y-47261428D01*
X201601428Y-47204285D01*
X201630000Y-47118571D01*
X201658571Y-47090000D01*
X201601428Y-46890000D02*
X201601428Y-46518571D01*
X201830000Y-46718571D01*
X201830000Y-46632857D01*
X201858571Y-46575714D01*
X201887142Y-46547142D01*
X201944285Y-46518571D01*
X202087142Y-46518571D01*
X202144285Y-46547142D01*
X202172857Y-46575714D01*
X202201428Y-46632857D01*
X202201428Y-46804285D01*
X202172857Y-46861428D01*
X202144285Y-46890000D01*
X202144285Y-49630000D02*
X202172857Y-49658571D01*
X202201428Y-49744285D01*
X202201428Y-49801428D01*
X202172857Y-49887142D01*
X202115714Y-49944285D01*
X202058571Y-49972857D01*
X201944285Y-50001428D01*
X201858571Y-50001428D01*
X201744285Y-49972857D01*
X201687142Y-49944285D01*
X201630000Y-49887142D01*
X201601428Y-49801428D01*
X201601428Y-49744285D01*
X201630000Y-49658571D01*
X201658571Y-49630000D01*
X201801428Y-49115714D02*
X202201428Y-49115714D01*
X201572857Y-49258571D02*
X202001428Y-49401428D01*
X202001428Y-49030000D01*
X152677785Y-99287000D02*
X152706357Y-99315571D01*
X152734928Y-99401285D01*
X152734928Y-99458428D01*
X152706357Y-99544142D01*
X152649214Y-99601285D01*
X152592071Y-99629857D01*
X152477785Y-99658428D01*
X152392071Y-99658428D01*
X152277785Y-99629857D01*
X152220642Y-99601285D01*
X152163500Y-99544142D01*
X152134928Y-99458428D01*
X152134928Y-99401285D01*
X152163500Y-99315571D01*
X152192071Y-99287000D01*
X152134928Y-98744142D02*
X152134928Y-99029857D01*
X152420642Y-99058428D01*
X152392071Y-99029857D01*
X152363500Y-98972714D01*
X152363500Y-98829857D01*
X152392071Y-98772714D01*
X152420642Y-98744142D01*
X152477785Y-98715571D01*
X152620642Y-98715571D01*
X152677785Y-98744142D01*
X152706357Y-98772714D01*
X152734928Y-98829857D01*
X152734928Y-98972714D01*
X152706357Y-99029857D01*
X152677785Y-99058428D01*
X159662785Y-99287000D02*
X159691357Y-99315571D01*
X159719928Y-99401285D01*
X159719928Y-99458428D01*
X159691357Y-99544142D01*
X159634214Y-99601285D01*
X159577071Y-99629857D01*
X159462785Y-99658428D01*
X159377071Y-99658428D01*
X159262785Y-99629857D01*
X159205642Y-99601285D01*
X159148500Y-99544142D01*
X159119928Y-99458428D01*
X159119928Y-99401285D01*
X159148500Y-99315571D01*
X159177071Y-99287000D01*
X159119928Y-98772714D02*
X159119928Y-98887000D01*
X159148500Y-98944142D01*
X159177071Y-98972714D01*
X159262785Y-99029857D01*
X159377071Y-99058428D01*
X159605642Y-99058428D01*
X159662785Y-99029857D01*
X159691357Y-99001285D01*
X159719928Y-98944142D01*
X159719928Y-98829857D01*
X159691357Y-98772714D01*
X159662785Y-98744142D01*
X159605642Y-98715571D01*
X159462785Y-98715571D01*
X159405642Y-98744142D01*
X159377071Y-98772714D01*
X159348500Y-98829857D01*
X159348500Y-98944142D01*
X159377071Y-99001285D01*
X159405642Y-99029857D01*
X159462785Y-99058428D01*
X156233785Y-102208000D02*
X156262357Y-102236571D01*
X156290928Y-102322285D01*
X156290928Y-102379428D01*
X156262357Y-102465142D01*
X156205214Y-102522285D01*
X156148071Y-102550857D01*
X156033785Y-102579428D01*
X155948071Y-102579428D01*
X155833785Y-102550857D01*
X155776642Y-102522285D01*
X155719500Y-102465142D01*
X155690928Y-102379428D01*
X155690928Y-102322285D01*
X155719500Y-102236571D01*
X155748071Y-102208000D01*
X155690928Y-102008000D02*
X155690928Y-101608000D01*
X156290928Y-101865142D01*
X166584285Y-99287000D02*
X166612857Y-99315571D01*
X166641428Y-99401285D01*
X166641428Y-99458428D01*
X166612857Y-99544142D01*
X166555714Y-99601285D01*
X166498571Y-99629857D01*
X166384285Y-99658428D01*
X166298571Y-99658428D01*
X166184285Y-99629857D01*
X166127142Y-99601285D01*
X166070000Y-99544142D01*
X166041428Y-99458428D01*
X166041428Y-99401285D01*
X166070000Y-99315571D01*
X166098571Y-99287000D01*
X166298571Y-98944142D02*
X166270000Y-99001285D01*
X166241428Y-99029857D01*
X166184285Y-99058428D01*
X166155714Y-99058428D01*
X166098571Y-99029857D01*
X166070000Y-99001285D01*
X166041428Y-98944142D01*
X166041428Y-98829857D01*
X166070000Y-98772714D01*
X166098571Y-98744142D01*
X166155714Y-98715571D01*
X166184285Y-98715571D01*
X166241428Y-98744142D01*
X166270000Y-98772714D01*
X166298571Y-98829857D01*
X166298571Y-98944142D01*
X166327142Y-99001285D01*
X166355714Y-99029857D01*
X166412857Y-99058428D01*
X166527142Y-99058428D01*
X166584285Y-99029857D01*
X166612857Y-99001285D01*
X166641428Y-98944142D01*
X166641428Y-98829857D01*
X166612857Y-98772714D01*
X166584285Y-98744142D01*
X166527142Y-98715571D01*
X166412857Y-98715571D01*
X166355714Y-98744142D01*
X166327142Y-98772714D01*
X166298571Y-98829857D01*
X173442285Y-99287000D02*
X173470857Y-99315571D01*
X173499428Y-99401285D01*
X173499428Y-99458428D01*
X173470857Y-99544142D01*
X173413714Y-99601285D01*
X173356571Y-99629857D01*
X173242285Y-99658428D01*
X173156571Y-99658428D01*
X173042285Y-99629857D01*
X172985142Y-99601285D01*
X172928000Y-99544142D01*
X172899428Y-99458428D01*
X172899428Y-99401285D01*
X172928000Y-99315571D01*
X172956571Y-99287000D01*
X173499428Y-99001285D02*
X173499428Y-98887000D01*
X173470857Y-98829857D01*
X173442285Y-98801285D01*
X173356571Y-98744142D01*
X173242285Y-98715571D01*
X173013714Y-98715571D01*
X172956571Y-98744142D01*
X172928000Y-98772714D01*
X172899428Y-98829857D01*
X172899428Y-98944142D01*
X172928000Y-99001285D01*
X172956571Y-99029857D01*
X173013714Y-99058428D01*
X173156571Y-99058428D01*
X173213714Y-99029857D01*
X173242285Y-99001285D01*
X173270857Y-98944142D01*
X173270857Y-98829857D01*
X173242285Y-98772714D01*
X173213714Y-98744142D01*
X173156571Y-98715571D01*
X170013285Y-102493714D02*
X170041857Y-102522285D01*
X170070428Y-102608000D01*
X170070428Y-102665142D01*
X170041857Y-102750857D01*
X169984714Y-102808000D01*
X169927571Y-102836571D01*
X169813285Y-102865142D01*
X169727571Y-102865142D01*
X169613285Y-102836571D01*
X169556142Y-102808000D01*
X169499000Y-102750857D01*
X169470428Y-102665142D01*
X169470428Y-102608000D01*
X169499000Y-102522285D01*
X169527571Y-102493714D01*
X170070428Y-101922285D02*
X170070428Y-102265142D01*
X170070428Y-102093714D02*
X169470428Y-102093714D01*
X169556142Y-102150857D01*
X169613285Y-102208000D01*
X169641857Y-102265142D01*
X169470428Y-101550857D02*
X169470428Y-101493714D01*
X169499000Y-101436571D01*
X169527571Y-101408000D01*
X169584714Y-101379428D01*
X169699000Y-101350857D01*
X169841857Y-101350857D01*
X169956142Y-101379428D01*
X170013285Y-101408000D01*
X170041857Y-101436571D01*
X170070428Y-101493714D01*
X170070428Y-101550857D01*
X170041857Y-101608000D01*
X170013285Y-101636571D01*
X169956142Y-101665142D01*
X169841857Y-101693714D01*
X169699000Y-101693714D01*
X169584714Y-101665142D01*
X169527571Y-101636571D01*
X169499000Y-101608000D01*
X169470428Y-101550857D01*
X180554285Y-99572714D02*
X180582857Y-99601285D01*
X180611428Y-99687000D01*
X180611428Y-99744142D01*
X180582857Y-99829857D01*
X180525714Y-99887000D01*
X180468571Y-99915571D01*
X180354285Y-99944142D01*
X180268571Y-99944142D01*
X180154285Y-99915571D01*
X180097142Y-99887000D01*
X180040000Y-99829857D01*
X180011428Y-99744142D01*
X180011428Y-99687000D01*
X180040000Y-99601285D01*
X180068571Y-99572714D01*
X180611428Y-99001285D02*
X180611428Y-99344142D01*
X180611428Y-99172714D02*
X180011428Y-99172714D01*
X180097142Y-99229857D01*
X180154285Y-99287000D01*
X180182857Y-99344142D01*
X180611428Y-98429857D02*
X180611428Y-98772714D01*
X180611428Y-98601285D02*
X180011428Y-98601285D01*
X180097142Y-98658428D01*
X180154285Y-98715571D01*
X180182857Y-98772714D01*
X187539285Y-99572714D02*
X187567857Y-99601285D01*
X187596428Y-99687000D01*
X187596428Y-99744142D01*
X187567857Y-99829857D01*
X187510714Y-99887000D01*
X187453571Y-99915571D01*
X187339285Y-99944142D01*
X187253571Y-99944142D01*
X187139285Y-99915571D01*
X187082142Y-99887000D01*
X187025000Y-99829857D01*
X186996428Y-99744142D01*
X186996428Y-99687000D01*
X187025000Y-99601285D01*
X187053571Y-99572714D01*
X187596428Y-99001285D02*
X187596428Y-99344142D01*
X187596428Y-99172714D02*
X186996428Y-99172714D01*
X187082142Y-99229857D01*
X187139285Y-99287000D01*
X187167857Y-99344142D01*
X187053571Y-98772714D02*
X187025000Y-98744142D01*
X186996428Y-98687000D01*
X186996428Y-98544142D01*
X187025000Y-98487000D01*
X187053571Y-98458428D01*
X187110714Y-98429857D01*
X187167857Y-98429857D01*
X187253571Y-98458428D01*
X187596428Y-98801285D01*
X187596428Y-98429857D01*
X184110285Y-102493714D02*
X184138857Y-102522285D01*
X184167428Y-102608000D01*
X184167428Y-102665142D01*
X184138857Y-102750857D01*
X184081714Y-102808000D01*
X184024571Y-102836571D01*
X183910285Y-102865142D01*
X183824571Y-102865142D01*
X183710285Y-102836571D01*
X183653142Y-102808000D01*
X183596000Y-102750857D01*
X183567428Y-102665142D01*
X183567428Y-102608000D01*
X183596000Y-102522285D01*
X183624571Y-102493714D01*
X184167428Y-101922285D02*
X184167428Y-102265142D01*
X184167428Y-102093714D02*
X183567428Y-102093714D01*
X183653142Y-102150857D01*
X183710285Y-102208000D01*
X183738857Y-102265142D01*
X183567428Y-101722285D02*
X183567428Y-101350857D01*
X183796000Y-101550857D01*
X183796000Y-101465142D01*
X183824571Y-101408000D01*
X183853142Y-101379428D01*
X183910285Y-101350857D01*
X184053142Y-101350857D01*
X184110285Y-101379428D01*
X184138857Y-101408000D01*
X184167428Y-101465142D01*
X184167428Y-101636571D01*
X184138857Y-101693714D01*
X184110285Y-101722285D01*
X194524285Y-99572714D02*
X194552857Y-99601285D01*
X194581428Y-99687000D01*
X194581428Y-99744142D01*
X194552857Y-99829857D01*
X194495714Y-99887000D01*
X194438571Y-99915571D01*
X194324285Y-99944142D01*
X194238571Y-99944142D01*
X194124285Y-99915571D01*
X194067142Y-99887000D01*
X194010000Y-99829857D01*
X193981428Y-99744142D01*
X193981428Y-99687000D01*
X194010000Y-99601285D01*
X194038571Y-99572714D01*
X194581428Y-99001285D02*
X194581428Y-99344142D01*
X194581428Y-99172714D02*
X193981428Y-99172714D01*
X194067142Y-99229857D01*
X194124285Y-99287000D01*
X194152857Y-99344142D01*
X194181428Y-98487000D02*
X194581428Y-98487000D01*
X193952857Y-98629857D02*
X194381428Y-98772714D01*
X194381428Y-98401285D01*
X201509285Y-99572714D02*
X201537857Y-99601285D01*
X201566428Y-99687000D01*
X201566428Y-99744142D01*
X201537857Y-99829857D01*
X201480714Y-99887000D01*
X201423571Y-99915571D01*
X201309285Y-99944142D01*
X201223571Y-99944142D01*
X201109285Y-99915571D01*
X201052142Y-99887000D01*
X200995000Y-99829857D01*
X200966428Y-99744142D01*
X200966428Y-99687000D01*
X200995000Y-99601285D01*
X201023571Y-99572714D01*
X201566428Y-99001285D02*
X201566428Y-99344142D01*
X201566428Y-99172714D02*
X200966428Y-99172714D01*
X201052142Y-99229857D01*
X201109285Y-99287000D01*
X201137857Y-99344142D01*
X200966428Y-98458428D02*
X200966428Y-98744142D01*
X201252142Y-98772714D01*
X201223571Y-98744142D01*
X201195000Y-98687000D01*
X201195000Y-98544142D01*
X201223571Y-98487000D01*
X201252142Y-98458428D01*
X201309285Y-98429857D01*
X201452142Y-98429857D01*
X201509285Y-98458428D01*
X201537857Y-98487000D01*
X201566428Y-98544142D01*
X201566428Y-98687000D01*
X201537857Y-98744142D01*
X201509285Y-98772714D01*
X197953285Y-102493714D02*
X197981857Y-102522285D01*
X198010428Y-102608000D01*
X198010428Y-102665142D01*
X197981857Y-102750857D01*
X197924714Y-102808000D01*
X197867571Y-102836571D01*
X197753285Y-102865142D01*
X197667571Y-102865142D01*
X197553285Y-102836571D01*
X197496142Y-102808000D01*
X197439000Y-102750857D01*
X197410428Y-102665142D01*
X197410428Y-102608000D01*
X197439000Y-102522285D01*
X197467571Y-102493714D01*
X198010428Y-101922285D02*
X198010428Y-102265142D01*
X198010428Y-102093714D02*
X197410428Y-102093714D01*
X197496142Y-102150857D01*
X197553285Y-102208000D01*
X197581857Y-102265142D01*
X197410428Y-101408000D02*
X197410428Y-101522285D01*
X197439000Y-101579428D01*
X197467571Y-101608000D01*
X197553285Y-101665142D01*
X197667571Y-101693714D01*
X197896142Y-101693714D01*
X197953285Y-101665142D01*
X197981857Y-101636571D01*
X198010428Y-101579428D01*
X198010428Y-101465142D01*
X197981857Y-101408000D01*
X197953285Y-101379428D01*
X197896142Y-101350857D01*
X197753285Y-101350857D01*
X197696142Y-101379428D01*
X197667571Y-101408000D01*
X197639000Y-101465142D01*
X197639000Y-101579428D01*
X197667571Y-101636571D01*
X197696142Y-101665142D01*
X197753285Y-101693714D01*
X133564285Y-80395714D02*
X133592857Y-80424285D01*
X133621428Y-80510000D01*
X133621428Y-80567142D01*
X133592857Y-80652857D01*
X133535714Y-80710000D01*
X133478571Y-80738571D01*
X133364285Y-80767142D01*
X133278571Y-80767142D01*
X133164285Y-80738571D01*
X133107142Y-80710000D01*
X133050000Y-80652857D01*
X133021428Y-80567142D01*
X133021428Y-80510000D01*
X133050000Y-80424285D01*
X133078571Y-80395714D01*
X133621428Y-79824285D02*
X133621428Y-80167142D01*
X133621428Y-79995714D02*
X133021428Y-79995714D01*
X133107142Y-80052857D01*
X133164285Y-80110000D01*
X133192857Y-80167142D01*
X133278571Y-79481428D02*
X133250000Y-79538571D01*
X133221428Y-79567142D01*
X133164285Y-79595714D01*
X133135714Y-79595714D01*
X133078571Y-79567142D01*
X133050000Y-79538571D01*
X133021428Y-79481428D01*
X133021428Y-79367142D01*
X133050000Y-79310000D01*
X133078571Y-79281428D01*
X133135714Y-79252857D01*
X133164285Y-79252857D01*
X133221428Y-79281428D01*
X133250000Y-79310000D01*
X133278571Y-79367142D01*
X133278571Y-79481428D01*
X133307142Y-79538571D01*
X133335714Y-79567142D01*
X133392857Y-79595714D01*
X133507142Y-79595714D01*
X133564285Y-79567142D01*
X133592857Y-79538571D01*
X133621428Y-79481428D01*
X133621428Y-79367142D01*
X133592857Y-79310000D01*
X133564285Y-79281428D01*
X133507142Y-79252857D01*
X133392857Y-79252857D01*
X133335714Y-79281428D01*
X133307142Y-79310000D01*
X133278571Y-79367142D01*
X202201428Y-42010000D02*
X201915714Y-42210000D01*
X202201428Y-42352857D02*
X201601428Y-42352857D01*
X201601428Y-42124285D01*
X201630000Y-42067142D01*
X201658571Y-42038571D01*
X201715714Y-42010000D01*
X201801428Y-42010000D01*
X201858571Y-42038571D01*
X201887142Y-42067142D01*
X201915714Y-42124285D01*
X201915714Y-42352857D01*
X202201428Y-41438571D02*
X202201428Y-41781428D01*
X202201428Y-41610000D02*
X201601428Y-41610000D01*
X201687142Y-41667142D01*
X201744285Y-41724285D01*
X201772857Y-41781428D01*
X202201428Y-39470000D02*
X201915714Y-39670000D01*
X202201428Y-39812857D02*
X201601428Y-39812857D01*
X201601428Y-39584285D01*
X201630000Y-39527142D01*
X201658571Y-39498571D01*
X201715714Y-39470000D01*
X201801428Y-39470000D01*
X201858571Y-39498571D01*
X201887142Y-39527142D01*
X201915714Y-39584285D01*
X201915714Y-39812857D01*
X201658571Y-39241428D02*
X201630000Y-39212857D01*
X201601428Y-39155714D01*
X201601428Y-39012857D01*
X201630000Y-38955714D01*
X201658571Y-38927142D01*
X201715714Y-38898571D01*
X201772857Y-38898571D01*
X201858571Y-38927142D01*
X202201428Y-39270000D01*
X202201428Y-38898571D01*
X202201428Y-36930000D02*
X201915714Y-37130000D01*
X202201428Y-37272857D02*
X201601428Y-37272857D01*
X201601428Y-37044285D01*
X201630000Y-36987142D01*
X201658571Y-36958571D01*
X201715714Y-36930000D01*
X201801428Y-36930000D01*
X201858571Y-36958571D01*
X201887142Y-36987142D01*
X201915714Y-37044285D01*
X201915714Y-37272857D01*
X201601428Y-36730000D02*
X201601428Y-36358571D01*
X201830000Y-36558571D01*
X201830000Y-36472857D01*
X201858571Y-36415714D01*
X201887142Y-36387142D01*
X201944285Y-36358571D01*
X202087142Y-36358571D01*
X202144285Y-36387142D01*
X202172857Y-36415714D01*
X202201428Y-36472857D01*
X202201428Y-36644285D01*
X202172857Y-36701428D01*
X202144285Y-36730000D01*
D10*
X132111904Y-69712380D02*
X132111904Y-70521904D01*
X132159523Y-70617142D01*
X132207142Y-70664761D01*
X132302380Y-70712380D01*
X132492857Y-70712380D01*
X132588095Y-70664761D01*
X132635714Y-70617142D01*
X132683333Y-70521904D01*
X132683333Y-69712380D01*
X133683333Y-70712380D02*
X133111904Y-70712380D01*
X133397619Y-70712380D02*
X133397619Y-69712380D01*
X133302380Y-69855238D01*
X133207142Y-69950476D01*
X133111904Y-69998095D01*
X134302380Y-69712380D02*
X134397619Y-69712380D01*
X134492857Y-69760000D01*
X134540476Y-69807619D01*
X134588095Y-69902857D01*
X134635714Y-70093333D01*
X134635714Y-70331428D01*
X134588095Y-70521904D01*
X134540476Y-70617142D01*
X134492857Y-70664761D01*
X134397619Y-70712380D01*
X134302380Y-70712380D01*
X134207142Y-70664761D01*
X134159523Y-70617142D01*
X134111904Y-70521904D01*
X134064285Y-70331428D01*
X134064285Y-70093333D01*
X134111904Y-69902857D01*
X134159523Y-69807619D01*
X134207142Y-69760000D01*
X134302380Y-69712380D01*
X185928095Y-54512380D02*
X185928095Y-55321904D01*
X185975714Y-55417142D01*
X186023333Y-55464761D01*
X186118571Y-55512380D01*
X186309047Y-55512380D01*
X186404285Y-55464761D01*
X186451904Y-55417142D01*
X186499523Y-55321904D01*
X186499523Y-54512380D01*
X187404285Y-54845714D02*
X187404285Y-55512380D01*
X187166190Y-54464761D02*
X186928095Y-55179047D01*
X187547142Y-55179047D01*
X196088095Y-54512380D02*
X196088095Y-55321904D01*
X196135714Y-55417142D01*
X196183333Y-55464761D01*
X196278571Y-55512380D01*
X196469047Y-55512380D01*
X196564285Y-55464761D01*
X196611904Y-55417142D01*
X196659523Y-55321904D01*
X196659523Y-54512380D01*
X197611904Y-54512380D02*
X197135714Y-54512380D01*
X197088095Y-54988571D01*
X197135714Y-54940952D01*
X197230952Y-54893333D01*
X197469047Y-54893333D01*
X197564285Y-54940952D01*
X197611904Y-54988571D01*
X197659523Y-55083809D01*
X197659523Y-55321904D01*
X197611904Y-55417142D01*
X197564285Y-55464761D01*
X197469047Y-55512380D01*
X197230952Y-55512380D01*
X197135714Y-55464761D01*
X197088095Y-55417142D01*
X188468095Y-36452380D02*
X188468095Y-37261904D01*
X188515714Y-37357142D01*
X188563333Y-37404761D01*
X188658571Y-37452380D01*
X188849047Y-37452380D01*
X188944285Y-37404761D01*
X188991904Y-37357142D01*
X189039523Y-37261904D01*
X189039523Y-36452380D01*
X189420476Y-36452380D02*
X190039523Y-36452380D01*
X189706190Y-36833333D01*
X189849047Y-36833333D01*
X189944285Y-36880952D01*
X189991904Y-36928571D01*
X190039523Y-37023809D01*
X190039523Y-37261904D01*
X189991904Y-37357142D01*
X189944285Y-37404761D01*
X189849047Y-37452380D01*
X189563333Y-37452380D01*
X189468095Y-37404761D01*
X189420476Y-37357142D01*
X181272380Y-33353333D02*
X181986666Y-33353333D01*
X182129523Y-33400952D01*
X182224761Y-33496190D01*
X182272380Y-33639047D01*
X182272380Y-33734285D01*
X182272380Y-32353333D02*
X182272380Y-32924761D01*
X182272380Y-32639047D02*
X181272380Y-32639047D01*
X181415238Y-32734285D01*
X181510476Y-32829523D01*
X181558095Y-32924761D01*
M02*
