G04 #@! TF.GenerationSoftware,KiCad,Pcbnew,(5.1.2-1)-1*
G04 #@! TF.CreationDate,2019-06-08T18:38:44+01:00*
G04 #@! TF.ProjectId,A500 FastRAM,41353030-2046-4617-9374-52414d2e6b69,rev?*
G04 #@! TF.SameCoordinates,Original*
G04 #@! TF.FileFunction,Copper,L2,Inr*
G04 #@! TF.FilePolarity,Positive*
%FSLAX46Y46*%
G04 Gerber Fmt 4.6, Leading zero omitted, Abs format (unit mm)*
G04 Created by KiCad (PCBNEW (5.1.2-1)-1) date 2019-06-08 18:38:44*
%MOMM*%
%LPD*%
G04 APERTURE LIST*
%ADD10R,1.700000X1.700000*%
%ADD11O,1.700000X1.700000*%
%ADD12R,2.400000X1.600000*%
%ADD13O,2.400000X1.600000*%
%ADD14C,1.422400*%
%ADD15R,1.422400X1.422400*%
%ADD16C,0.800000*%
%ADD17C,0.600000*%
%ADD18C,0.381000*%
%ADD19C,0.250000*%
G04 APERTURE END LIST*
D10*
X145796000Y-37528500D03*
D11*
X143256000Y-37528500D03*
X140716000Y-37528500D03*
X138176000Y-37528500D03*
X135636000Y-37528500D03*
X133096000Y-37528500D03*
D10*
X133985000Y-153035000D03*
D11*
X136525000Y-153035000D03*
X139065000Y-153035000D03*
D12*
X99695000Y-73660000D03*
D13*
X99695000Y-76200000D03*
X99695000Y-78740000D03*
X99695000Y-81280000D03*
X99695000Y-83820000D03*
X99695000Y-86360000D03*
X99695000Y-88900000D03*
X99695000Y-91440000D03*
X99695000Y-93980000D03*
X99695000Y-96520000D03*
X99695000Y-99060000D03*
X99695000Y-101600000D03*
X99695000Y-104140000D03*
X99695000Y-106680000D03*
X99695000Y-109220000D03*
X99695000Y-111760000D03*
X99695000Y-114300000D03*
X99695000Y-116840000D03*
X99695000Y-119380000D03*
X99695000Y-121920000D03*
X99695000Y-124460000D03*
X99695000Y-127000000D03*
X99695000Y-129540000D03*
X99695000Y-132080000D03*
X99695000Y-134620000D03*
X99695000Y-137160000D03*
X99695000Y-139700000D03*
X99695000Y-142240000D03*
X99695000Y-144780000D03*
X99695000Y-147320000D03*
X99695000Y-149860000D03*
X99695000Y-152400000D03*
X125095000Y-152400000D03*
X125095000Y-149860000D03*
X125095000Y-147320000D03*
X125095000Y-144780000D03*
X125095000Y-142240000D03*
X125095000Y-139700000D03*
X125095000Y-137160000D03*
X125095000Y-134620000D03*
X125095000Y-132080000D03*
X125095000Y-129540000D03*
X125095000Y-127000000D03*
X125095000Y-124460000D03*
X125095000Y-121920000D03*
X125095000Y-119380000D03*
X125095000Y-116840000D03*
X125095000Y-114300000D03*
X125095000Y-111760000D03*
X125095000Y-109220000D03*
X125095000Y-106680000D03*
X125095000Y-104140000D03*
X125095000Y-101600000D03*
X125095000Y-99060000D03*
X125095000Y-96520000D03*
X125095000Y-93980000D03*
X125095000Y-91440000D03*
X125095000Y-88900000D03*
X125095000Y-86360000D03*
X125095000Y-83820000D03*
X125095000Y-81280000D03*
X125095000Y-78740000D03*
X125095000Y-76200000D03*
X125095000Y-73660000D03*
D14*
X114935000Y-43180000D03*
X112395000Y-43180000D03*
X109855000Y-43180000D03*
X107315000Y-43180000D03*
X117475000Y-43180000D03*
X120015000Y-43180000D03*
X122555000Y-43180000D03*
X125095000Y-43180000D03*
D15*
X114935000Y-40640000D03*
D14*
X112395000Y-40640000D03*
X109855000Y-40640000D03*
X107315000Y-40640000D03*
X104775000Y-40640000D03*
X117475000Y-40640000D03*
X120015000Y-40640000D03*
X122555000Y-40640000D03*
X104775000Y-43180000D03*
X104775000Y-45720000D03*
X104775000Y-48260000D03*
X104775000Y-50800000D03*
X104775000Y-53340000D03*
X104775000Y-55880000D03*
X104775000Y-58420000D03*
X104775000Y-60960000D03*
X102235000Y-43180000D03*
X102235000Y-45720000D03*
X102235000Y-48260000D03*
X102235000Y-50800000D03*
X102235000Y-53340000D03*
X102235000Y-55880000D03*
X102235000Y-58420000D03*
X102235000Y-60960000D03*
X102235000Y-63500000D03*
X104775000Y-63500000D03*
X107315000Y-63500000D03*
X109855000Y-63500000D03*
X112395000Y-63500000D03*
X114935000Y-63500000D03*
X117475000Y-63500000D03*
X120015000Y-63500000D03*
X122555000Y-63500000D03*
X127635000Y-63500000D03*
X104775000Y-66040000D03*
X107315000Y-66040000D03*
X109855000Y-66040000D03*
X112395000Y-66040000D03*
X114935000Y-66040000D03*
X117475000Y-66040000D03*
X120015000Y-66040000D03*
X122555000Y-66040000D03*
X125095000Y-66040000D03*
X125095000Y-63500000D03*
X125095000Y-60960000D03*
X125095000Y-58420000D03*
X125095000Y-55880000D03*
X125095000Y-53340000D03*
X125095000Y-50800000D03*
X125095000Y-48260000D03*
X125095000Y-45720000D03*
X125095000Y-40640000D03*
X127635000Y-60960000D03*
X127635000Y-58420000D03*
X127635000Y-55880000D03*
X127635000Y-53340000D03*
X127635000Y-50800000D03*
X127635000Y-48260000D03*
X127635000Y-45720000D03*
X127635000Y-43180000D03*
D16*
X111923000Y-99766300D03*
X148750900Y-47333800D03*
X138915300Y-48652000D03*
X147927000Y-98687200D03*
X144472200Y-101119400D03*
D17*
X142864600Y-88568600D03*
X143551500Y-78255500D03*
X144394400Y-82202400D03*
X134104200Y-87795000D03*
X134105000Y-82995000D03*
X153715500Y-134770000D03*
X150553600Y-105887700D03*
X150594000Y-50362100D03*
X150914000Y-78946200D03*
X139923700Y-91419100D03*
X139676500Y-71391100D03*
X153460000Y-75581500D03*
X150899100Y-47662100D03*
X138929000Y-70504600D03*
X139122100Y-91118500D03*
X153692600Y-132096000D03*
X154129100Y-103247000D03*
X153809000Y-74677900D03*
X150069800Y-44644000D03*
X135289100Y-50748300D03*
X154365000Y-73019100D03*
X150944100Y-44591200D03*
X110445500Y-49091300D03*
X138337200Y-64968600D03*
X109952900Y-77762800D03*
X152834600Y-126337700D03*
X150811400Y-100981000D03*
X150775000Y-73702800D03*
X139495800Y-59283600D03*
X140101600Y-51532900D03*
X140092800Y-53251100D03*
X140118900Y-57549000D03*
X150358900Y-86290100D03*
X149820300Y-114333100D03*
X150896900Y-142461200D03*
X150471700Y-59117400D03*
X145682000Y-89451500D03*
X135176900Y-55245000D03*
X135383700Y-52066800D03*
X140239600Y-64398300D03*
X136899600Y-113889900D03*
X139676500Y-69692200D03*
X137038300Y-91443600D03*
X134844400Y-89321000D03*
X135170000Y-67463500D03*
X133871800Y-63294600D03*
X133281100Y-95906200D03*
X113391100Y-146050000D03*
X107711300Y-140061900D03*
X132992500Y-93913800D03*
X129769100Y-55776600D03*
X131496900Y-91510100D03*
X129767900Y-57226500D03*
X131421200Y-90131400D03*
X130383000Y-87262900D03*
X131429300Y-86908400D03*
X129649700Y-90465200D03*
X157616700Y-85058000D03*
X163766900Y-101307100D03*
X163038000Y-44902600D03*
X163262000Y-126183700D03*
X157616000Y-72986400D03*
X159529100Y-102324700D03*
X163031200Y-129738000D03*
X162859700Y-45741500D03*
X163030700Y-46583400D03*
X158696000Y-77554400D03*
X159919500Y-103121100D03*
X131101300Y-84131400D03*
X162839900Y-131462500D03*
X160321900Y-135505100D03*
X133072600Y-81987000D03*
X159285400Y-78240500D03*
X163025000Y-47484800D03*
X160344600Y-104243900D03*
X163026700Y-135830300D03*
X163392500Y-106215500D03*
X163043500Y-51245000D03*
X163903800Y-78469900D03*
X162868900Y-52075200D03*
X163151500Y-79168300D03*
X163026200Y-137026700D03*
X164133600Y-112340100D03*
X162162300Y-70312900D03*
X163030100Y-109538300D03*
X160302500Y-138446000D03*
X109242900Y-94256500D03*
X143054700Y-93967600D03*
X163038000Y-53831400D03*
X162947700Y-82051600D03*
X163035200Y-139489800D03*
X163038000Y-110338700D03*
X112008900Y-92428900D03*
X142388600Y-91408000D03*
X150915600Y-139417600D03*
X150818100Y-111773900D03*
X149904200Y-56530400D03*
X149662300Y-84730900D03*
X138472800Y-62381700D03*
X140586100Y-96384700D03*
X153647500Y-138341300D03*
X150637500Y-110505900D03*
X151106800Y-53366200D03*
X150908700Y-82394600D03*
X134884400Y-65633400D03*
X116348600Y-97464200D03*
X140586100Y-95584300D03*
X153628800Y-137142200D03*
X150917500Y-108520500D03*
X151097400Y-52106400D03*
X153511500Y-79438400D03*
X138275100Y-61297900D03*
X142064200Y-88883800D03*
X137654900Y-130191500D03*
X116189600Y-125675800D03*
X106304400Y-89471600D03*
X138935300Y-79957600D03*
X140796000Y-87023200D03*
X105966600Y-87499700D03*
X163055500Y-143087800D03*
X142680800Y-80025300D03*
X163038000Y-58140300D03*
X165323900Y-84479500D03*
X150878700Y-144165500D03*
X142519700Y-84316200D03*
X149823700Y-61209500D03*
X145404000Y-87050800D03*
X150281900Y-87104300D03*
X145415600Y-85453100D03*
X150479500Y-114958400D03*
X146749100Y-84882200D03*
X162891500Y-57156000D03*
X163034000Y-142147300D03*
X164031200Y-81108300D03*
X146910900Y-82902200D03*
X164318100Y-113615800D03*
X102014100Y-90150000D03*
X138086200Y-82618500D03*
D16*
X117619100Y-111704700D03*
D17*
X160255800Y-69672800D03*
X143091500Y-69932700D03*
X163137800Y-124918000D03*
X160186100Y-95171700D03*
X160508300Y-151772500D03*
X147856700Y-66101800D03*
X138146300Y-66057900D03*
X149277700Y-98438300D03*
X150918000Y-150240400D03*
X151088900Y-123186000D03*
X156540400Y-69119300D03*
X145702400Y-67200200D03*
X163122500Y-123864100D03*
X160670400Y-97761500D03*
X150489000Y-66970900D03*
X153635300Y-124933200D03*
X153655100Y-151328000D03*
X153689700Y-95267100D03*
X138145300Y-68569800D03*
X160303000Y-147543700D03*
X163087300Y-120522200D03*
X157098100Y-62881000D03*
X137744800Y-59572700D03*
X157576000Y-91456000D03*
X160263300Y-89105200D03*
X160319600Y-60385500D03*
X143084200Y-54260200D03*
X164889200Y-108088300D03*
X160320900Y-92758900D03*
X163346000Y-123049100D03*
X160278900Y-63969900D03*
X138534400Y-53815500D03*
X160465700Y-62226900D03*
X141816000Y-58600900D03*
X160288200Y-90415100D03*
X163307000Y-119335600D03*
X150489900Y-63516000D03*
X150907000Y-147533500D03*
X150657400Y-118989100D03*
X149382700Y-91883200D03*
X135002600Y-86721900D03*
X150925500Y-121875500D03*
X151040800Y-149213200D03*
X149277700Y-97494800D03*
X149981400Y-65042600D03*
X135596600Y-75549100D03*
X106144700Y-106496700D03*
X132572500Y-117283500D03*
X132682300Y-130273100D03*
X132546300Y-133523300D03*
X132569900Y-142800100D03*
X117623100Y-78831100D03*
X137658200Y-79909800D03*
X137729400Y-132723800D03*
X139693600Y-137992000D03*
X140273700Y-83082000D03*
X105417700Y-52230200D03*
X132531300Y-119151000D03*
X136915400Y-74419400D03*
X132473000Y-135442000D03*
X119353000Y-77105700D03*
X107075100Y-133059000D03*
X132610300Y-131575600D03*
X103089800Y-118156600D03*
X116348600Y-147425300D03*
X137513700Y-135634600D03*
X135949100Y-141961500D03*
X135678600Y-134082200D03*
X112840700Y-127478100D03*
X111399700Y-111437000D03*
X112503800Y-123504300D03*
X112634300Y-88667700D03*
X111216700Y-116206600D03*
X116222700Y-109425700D03*
X111857000Y-98122600D03*
X130641900Y-115541300D03*
X111307000Y-105283000D03*
X123119400Y-110512400D03*
X113585800Y-100329200D03*
X109054800Y-95071800D03*
X106317400Y-140705500D03*
X108604600Y-142916500D03*
X116348600Y-99508400D03*
X111213000Y-89528700D03*
X111870700Y-114508100D03*
D18*
X111923000Y-101600000D02*
X123504200Y-101600000D01*
X101285800Y-111760000D02*
X101897900Y-111760000D01*
X101897900Y-111760000D02*
X111923000Y-101734900D01*
X111923000Y-101734900D02*
X111923000Y-101600000D01*
X111923000Y-101600000D02*
X111923000Y-99766300D01*
X127635000Y-48260000D02*
X128026900Y-48651900D01*
X128026900Y-48651900D02*
X138915300Y-48651900D01*
X138915300Y-48651900D02*
X138915300Y-48652000D01*
X104775000Y-50800000D02*
X102235000Y-50800000D01*
X125095000Y-48260000D02*
X107315000Y-48260000D01*
X107315000Y-48260000D02*
X104775000Y-50800000D01*
X99695000Y-111760000D02*
X101285800Y-111760000D01*
X127635000Y-48260000D02*
X125095000Y-48260000D01*
X125095000Y-101600000D02*
X123504200Y-101600000D01*
D19*
X134104200Y-87795000D02*
X140952700Y-87795000D01*
X140952700Y-87795000D02*
X144394400Y-84353300D01*
X144394400Y-84353300D02*
X144394400Y-82202400D01*
X150553600Y-105887700D02*
X152122900Y-107457000D01*
X152122900Y-107457000D02*
X152122900Y-133177400D01*
X152122900Y-133177400D02*
X153715500Y-134770000D01*
X113898500Y-40640000D02*
X112862000Y-41676500D01*
X112862000Y-41676500D02*
X112378000Y-41676500D01*
X112378000Y-41676500D02*
X111125000Y-42929500D01*
X111125000Y-42929500D02*
X111125000Y-43382600D01*
X111125000Y-43382600D02*
X109898400Y-44609200D01*
X109898400Y-44609200D02*
X108372900Y-44609200D01*
X108372900Y-44609200D02*
X105992100Y-46990000D01*
X105992100Y-46990000D02*
X102038300Y-46990000D01*
X102038300Y-46990000D02*
X99695000Y-49333300D01*
X99695000Y-49333300D02*
X99695000Y-73660000D01*
X114935000Y-40640000D02*
X113898500Y-40640000D01*
X114935000Y-63500000D02*
X116434500Y-64999500D01*
X116434500Y-64999500D02*
X116434500Y-66481200D01*
X116434500Y-66481200D02*
X121344400Y-71391100D01*
X121344400Y-71391100D02*
X139676500Y-71391100D01*
X114935000Y-43180000D02*
X116205000Y-44450000D01*
X116205000Y-44450000D02*
X146939600Y-44450000D01*
X146939600Y-44450000D02*
X150151700Y-47662100D01*
X150151700Y-47662100D02*
X150899100Y-47662100D01*
X99695000Y-76200000D02*
X101220300Y-76200000D01*
X101220300Y-76200000D02*
X101220300Y-68373500D01*
X101220300Y-68373500D02*
X101198300Y-68351500D01*
X101198300Y-68351500D02*
X101198300Y-50368600D01*
X101198300Y-50368600D02*
X102036900Y-49530000D01*
X102036900Y-49530000D02*
X105049200Y-49530000D01*
X105049200Y-49530000D02*
X108836500Y-45742700D01*
X108836500Y-45742700D02*
X112372300Y-45742700D01*
X112372300Y-45742700D02*
X114935000Y-43180000D01*
X117475000Y-66040000D02*
X121939600Y-70504600D01*
X121939600Y-70504600D02*
X138929000Y-70504600D01*
X150069800Y-44644000D02*
X144526400Y-39100600D01*
X144526400Y-39100600D02*
X113934400Y-39100600D01*
X113934400Y-39100600D02*
X112395000Y-40640000D01*
X117475000Y-63500000D02*
X117475000Y-62009300D01*
X117475000Y-62009300D02*
X125011400Y-54472900D01*
X125011400Y-54472900D02*
X131564500Y-54472900D01*
X131564500Y-54472900D02*
X135289100Y-50748300D01*
X112395000Y-43180000D02*
X113803800Y-41771200D01*
X113803800Y-41771200D02*
X115700800Y-41771200D01*
X115700800Y-41771200D02*
X116045700Y-41426300D01*
X116045700Y-41426300D02*
X116045700Y-40514800D01*
X116045700Y-40514800D02*
X116957100Y-39603400D01*
X116957100Y-39603400D02*
X144092100Y-39603400D01*
X144092100Y-39603400D02*
X149803900Y-45315200D01*
X149803900Y-45315200D02*
X150289400Y-45315200D01*
X150289400Y-45315200D02*
X150944100Y-44660500D01*
X150944100Y-44660500D02*
X150944100Y-44591200D01*
X99695000Y-81280000D02*
X101220300Y-81280000D01*
X110445500Y-49091300D02*
X110445500Y-49167600D01*
X110445500Y-49167600D02*
X104769700Y-54843400D01*
X104769700Y-54843400D02*
X104295300Y-54843400D01*
X104295300Y-54843400D02*
X103738500Y-55400200D01*
X103738500Y-55400200D02*
X103738500Y-78761800D01*
X103738500Y-78761800D02*
X101220300Y-81280000D01*
X120015000Y-66040000D02*
X121061500Y-67086500D01*
X121061500Y-67086500D02*
X134275100Y-67086500D01*
X134275100Y-67086500D02*
X134880600Y-66481000D01*
X134880600Y-66481000D02*
X136824800Y-66481000D01*
X136824800Y-66481000D02*
X138337200Y-64968600D01*
X109952900Y-77762800D02*
X119830200Y-77762800D01*
X119830200Y-77762800D02*
X119994700Y-77598300D01*
X119994700Y-77598300D02*
X135291800Y-77598300D01*
X135291800Y-77598300D02*
X139187300Y-73702800D01*
X139187300Y-73702800D02*
X150775000Y-73702800D01*
X101220300Y-83820000D02*
X107277500Y-77762800D01*
X107277500Y-77762800D02*
X109952900Y-77762800D01*
X152834600Y-126337700D02*
X152834600Y-103004200D01*
X152834600Y-103004200D02*
X150811400Y-100981000D01*
X99695000Y-83820000D02*
X101220300Y-83820000D01*
X140101600Y-51532900D02*
X136869200Y-51532900D01*
X136869200Y-51532900D02*
X131874300Y-56527800D01*
X131874300Y-56527800D02*
X129418800Y-56527800D01*
X129418800Y-56527800D02*
X129018700Y-56927900D01*
X129018700Y-56927900D02*
X124474900Y-56927900D01*
X124474900Y-56927900D02*
X121480900Y-59921900D01*
X121480900Y-59921900D02*
X121480900Y-64965900D01*
X121480900Y-64965900D02*
X122555000Y-66040000D01*
X122555000Y-63500000D02*
X122555000Y-59484700D01*
X122555000Y-59484700D02*
X124661400Y-57378300D01*
X124661400Y-57378300D02*
X129035400Y-57378300D01*
X129035400Y-57378300D02*
X129517100Y-57860000D01*
X129517100Y-57860000D02*
X131291800Y-57860000D01*
X131291800Y-57860000D02*
X135965700Y-53186100D01*
X135965700Y-53186100D02*
X140027800Y-53186100D01*
X140027800Y-53186100D02*
X140092800Y-53251100D01*
X140118900Y-57549000D02*
X137030000Y-57549000D01*
X137030000Y-57549000D02*
X134870700Y-59708300D01*
X134870700Y-59708300D02*
X124823300Y-59708300D01*
X124823300Y-59708300D02*
X124044700Y-60486900D01*
X124044700Y-60486900D02*
X124044700Y-64989700D01*
X124044700Y-64989700D02*
X125095000Y-66040000D01*
X145682000Y-89451500D02*
X148872900Y-89451500D01*
X148872900Y-89451500D02*
X150907300Y-87417100D01*
X150907300Y-87417100D02*
X150907300Y-86838500D01*
X150907300Y-86838500D02*
X150358900Y-86290100D01*
X101220300Y-93980000D02*
X105025800Y-90174500D01*
X105025800Y-90174500D02*
X129056100Y-90174500D01*
X129056100Y-90174500D02*
X129724500Y-89506100D01*
X129724500Y-89506100D02*
X134145200Y-89506100D01*
X134145200Y-89506100D02*
X134585400Y-89946300D01*
X134585400Y-89946300D02*
X145187200Y-89946300D01*
X145187200Y-89946300D02*
X145682000Y-89451500D01*
X99695000Y-93980000D02*
X101220300Y-93980000D01*
X127635000Y-60960000D02*
X135950900Y-60960000D01*
X135950900Y-60960000D02*
X139389200Y-64398300D01*
X139389200Y-64398300D02*
X140239600Y-64398300D01*
X126620300Y-124460000D02*
X126620300Y-124169200D01*
X126620300Y-124169200D02*
X136899600Y-113889900D01*
X125095000Y-60960000D02*
X126589400Y-62454400D01*
X126589400Y-62454400D02*
X136731400Y-62454400D01*
X136731400Y-62454400D02*
X139676500Y-65399500D01*
X139676500Y-65399500D02*
X139676500Y-69692200D01*
X125095000Y-124460000D02*
X126620300Y-124460000D01*
X107711300Y-140061900D02*
X107711300Y-132810800D01*
X107711300Y-132810800D02*
X100630500Y-125730000D01*
X100630500Y-125730000D02*
X98917900Y-125730000D01*
X98917900Y-125730000D02*
X97564600Y-124376700D01*
X97564600Y-124376700D02*
X97564600Y-106799700D01*
X97564600Y-106799700D02*
X98849100Y-105515200D01*
X98849100Y-105515200D02*
X100525300Y-105515200D01*
X100525300Y-105515200D02*
X101220300Y-106210200D01*
X101220300Y-106210200D02*
X101220300Y-109220000D01*
X107711300Y-140061900D02*
X113391100Y-145741700D01*
X113391100Y-145741700D02*
X113391100Y-146050000D01*
X99695000Y-109220000D02*
X101220300Y-109220000D01*
X127635000Y-45720000D02*
X145542600Y-45720000D01*
X145542600Y-45720000D02*
X148166100Y-48343500D01*
X148166100Y-48343500D02*
X159373400Y-48343500D01*
X159373400Y-48343500D02*
X162814300Y-44902600D01*
X162814300Y-44902600D02*
X163038000Y-44902600D01*
X129649700Y-90465200D02*
X129941200Y-90756700D01*
X129941200Y-90756700D02*
X131680300Y-90756700D01*
X131680300Y-90756700D02*
X131971800Y-90465200D01*
X131971800Y-90465200D02*
X152209500Y-90465200D01*
X152209500Y-90465200D02*
X157616700Y-85058000D01*
X157616700Y-85058000D02*
X163547800Y-90989100D01*
X163547800Y-90989100D02*
X163547800Y-101088000D01*
X163547800Y-101088000D02*
X163766900Y-101307100D01*
X157616000Y-72986400D02*
X157836900Y-72986400D01*
X157836900Y-72986400D02*
X161091000Y-69732300D01*
X161091000Y-69732300D02*
X161091000Y-48882100D01*
X161091000Y-48882100D02*
X161002700Y-48793800D01*
X158906700Y-102947100D02*
X158906700Y-104524700D01*
X158906700Y-104524700D02*
X163709500Y-109327500D01*
X163709500Y-109327500D02*
X163709500Y-110606100D01*
X163709500Y-110606100D02*
X162011700Y-112303900D01*
X162011700Y-112303900D02*
X162011700Y-128718500D01*
X162011700Y-128718500D02*
X163031200Y-129738000D01*
X162859700Y-45741500D02*
X161002700Y-47598500D01*
X161002700Y-47598500D02*
X161002700Y-48793800D01*
X125095000Y-45720000D02*
X126566400Y-47191400D01*
X126566400Y-47191400D02*
X145368900Y-47191400D01*
X145368900Y-47191400D02*
X146971300Y-48793800D01*
X146971300Y-48793800D02*
X161002700Y-48793800D01*
X125095000Y-96520000D02*
X131782700Y-96520000D01*
X131782700Y-96520000D02*
X133313300Y-94989400D01*
X133313300Y-94989400D02*
X133438200Y-94989400D01*
X133438200Y-94989400D02*
X133483900Y-94943700D01*
X133483900Y-94943700D02*
X150903300Y-94943700D01*
X150903300Y-94943700D02*
X158906700Y-102947100D01*
X159529100Y-102324700D02*
X158906700Y-102947100D01*
X127635000Y-43180000D02*
X146306500Y-43180000D01*
X146306500Y-43180000D02*
X149376200Y-46249700D01*
X149376200Y-46249700D02*
X160548000Y-46249700D01*
X160548000Y-46249700D02*
X162520500Y-44277200D01*
X162520500Y-44277200D02*
X163344000Y-44277200D01*
X163344000Y-44277200D02*
X163663400Y-44596600D01*
X163663400Y-44596600D02*
X163663400Y-45950700D01*
X163663400Y-45950700D02*
X163030700Y-46583400D01*
X160117800Y-103121100D02*
X161433400Y-104436700D01*
X161433400Y-104436700D02*
X161433400Y-106414500D01*
X161433400Y-106414500D02*
X164173600Y-109154700D01*
X164173600Y-109154700D02*
X164173600Y-110778900D01*
X164173600Y-110778900D02*
X162462000Y-112490500D01*
X162462000Y-112490500D02*
X162462000Y-126898200D01*
X162462000Y-126898200D02*
X163657500Y-128093700D01*
X163657500Y-128093700D02*
X163657500Y-130644900D01*
X163657500Y-130644900D02*
X162839900Y-131462500D01*
X160117800Y-103121100D02*
X159919500Y-103121100D01*
X160117800Y-103121100D02*
X160184700Y-103054200D01*
X160184700Y-103054200D02*
X160184700Y-100829400D01*
X160184700Y-100829400D02*
X152643800Y-93288500D01*
X152643800Y-93288500D02*
X127311800Y-93288500D01*
X127311800Y-93288500D02*
X126620300Y-93980000D01*
X125095000Y-93980000D02*
X126620300Y-93980000D01*
X133072600Y-81987000D02*
X141603600Y-81987000D01*
X141603600Y-81987000D02*
X145350100Y-78240500D01*
X145350100Y-78240500D02*
X159285400Y-78240500D01*
X126620300Y-88900000D02*
X126996800Y-88523500D01*
X126996800Y-88523500D02*
X141461000Y-88523500D01*
X141461000Y-88523500D02*
X141461000Y-88523400D01*
X141461000Y-88523400D02*
X145882800Y-84101600D01*
X145882800Y-84101600D02*
X162468300Y-84101600D01*
X162468300Y-84101600D02*
X164173100Y-85806400D01*
X164173100Y-85806400D02*
X164173100Y-100828900D01*
X164173100Y-100828900D02*
X164392200Y-101048000D01*
X164392200Y-101048000D02*
X164392200Y-105215800D01*
X164392200Y-105215800D02*
X163392500Y-106215500D01*
X162468300Y-84101600D02*
X164656500Y-81913400D01*
X164656500Y-81913400D02*
X164656500Y-79222600D01*
X164656500Y-79222600D02*
X163903800Y-78469900D01*
X125095000Y-88900000D02*
X126620300Y-88900000D01*
X126620300Y-86360000D02*
X127433900Y-85546400D01*
X127433900Y-85546400D02*
X139405800Y-85546400D01*
X139405800Y-85546400D02*
X143718000Y-81234200D01*
X143718000Y-81234200D02*
X161085600Y-81234200D01*
X161085600Y-81234200D02*
X163151500Y-79168300D01*
X164133600Y-112340100D02*
X165521200Y-110952500D01*
X165521200Y-110952500D02*
X165521200Y-101540100D01*
X165521200Y-101540100D02*
X164698500Y-100717400D01*
X164698500Y-100717400D02*
X164698500Y-83021900D01*
X164698500Y-83021900D02*
X165149100Y-82571300D01*
X165149100Y-82571300D02*
X165149100Y-78830800D01*
X165149100Y-78830800D02*
X164150000Y-77831700D01*
X164150000Y-77831700D02*
X163606300Y-77831700D01*
X163606300Y-77831700D02*
X163151500Y-78286500D01*
X163151500Y-78286500D02*
X163151500Y-79168300D01*
X125095000Y-86360000D02*
X126620300Y-86360000D01*
X163030100Y-109538300D02*
X162913200Y-109538300D01*
X162913200Y-109538300D02*
X159642600Y-112808900D01*
X159642600Y-112808900D02*
X159642600Y-137786100D01*
X159642600Y-137786100D02*
X160302500Y-138446000D01*
X126620300Y-83820000D02*
X126620300Y-83819900D01*
X126620300Y-83819900D02*
X130355400Y-83819900D01*
X130355400Y-83819900D02*
X132859500Y-81315800D01*
X132859500Y-81315800D02*
X136823200Y-81315800D01*
X136823200Y-81315800D02*
X136984800Y-81477400D01*
X136984800Y-81477400D02*
X138300100Y-81477400D01*
X138300100Y-81477400D02*
X142889800Y-76887700D01*
X142889800Y-76887700D02*
X155587500Y-76887700D01*
X155587500Y-76887700D02*
X162162300Y-70312900D01*
X125095000Y-83820000D02*
X126620300Y-83820000D01*
X109242900Y-94256500D02*
X110098100Y-95111700D01*
X110098100Y-95111700D02*
X132367400Y-95111700D01*
X132367400Y-95111700D02*
X132940000Y-94539100D01*
X132940000Y-94539100D02*
X133251600Y-94539100D01*
X133251600Y-94539100D02*
X133823100Y-93967600D01*
X133823100Y-93967600D02*
X143054700Y-93967600D01*
X126620300Y-81280000D02*
X127485100Y-80415200D01*
X127485100Y-80415200D02*
X137196400Y-80415200D01*
X137196400Y-80415200D02*
X137358000Y-80576800D01*
X137358000Y-80576800D02*
X137876100Y-80576800D01*
X137876100Y-80576800D02*
X138283500Y-80169400D01*
X138283500Y-80169400D02*
X138283500Y-79725100D01*
X138283500Y-79725100D02*
X141571200Y-76437400D01*
X141571200Y-76437400D02*
X155094500Y-76437400D01*
X155094500Y-76437400D02*
X161541300Y-69990600D01*
X161541300Y-69990600D02*
X161541300Y-55328100D01*
X161541300Y-55328100D02*
X163038000Y-53831400D01*
X163038000Y-110338700D02*
X161561400Y-111815300D01*
X161561400Y-111815300D02*
X161561400Y-138016000D01*
X161561400Y-138016000D02*
X163035200Y-139489800D01*
X163038000Y-53831400D02*
X164117300Y-52752100D01*
X164117300Y-52752100D02*
X164117300Y-44296000D01*
X164117300Y-44296000D02*
X163641500Y-43820200D01*
X163641500Y-43820200D02*
X152602000Y-43820200D01*
X152602000Y-43820200D02*
X150656700Y-45765500D01*
X150656700Y-45765500D02*
X149528900Y-45765500D01*
X149528900Y-45765500D02*
X145768200Y-42004800D01*
X145768200Y-42004800D02*
X121379800Y-42004800D01*
X121379800Y-42004800D02*
X120015000Y-40640000D01*
X125095000Y-81280000D02*
X126620300Y-81280000D01*
X112008900Y-92428900D02*
X112149400Y-92569400D01*
X112149400Y-92569400D02*
X141227200Y-92569400D01*
X141227200Y-92569400D02*
X142388600Y-91408000D01*
X99695000Y-149860000D02*
X110819500Y-149860000D01*
X110819500Y-149860000D02*
X122226700Y-138452800D01*
X122226700Y-138452800D02*
X130409100Y-138452800D01*
X130409100Y-138452800D02*
X140586100Y-128275800D01*
X140586100Y-128275800D02*
X140586100Y-96384700D01*
X116348600Y-97464200D02*
X116531400Y-97647000D01*
X116531400Y-97647000D02*
X138414900Y-97647000D01*
X138414900Y-97647000D02*
X140477600Y-95584300D01*
X140477600Y-95584300D02*
X140586100Y-95584300D01*
X137654900Y-130191500D02*
X133139200Y-125675800D01*
X133139200Y-125675800D02*
X116189600Y-125675800D01*
X101220300Y-88900000D02*
X107570300Y-82550000D01*
X107570300Y-82550000D02*
X130956800Y-82550000D01*
X130956800Y-82550000D02*
X132641300Y-80865500D01*
X132641300Y-80865500D02*
X137009800Y-80865500D01*
X137009800Y-80865500D02*
X137171400Y-81027100D01*
X137171400Y-81027100D02*
X138062700Y-81027100D01*
X138062700Y-81027100D02*
X138935300Y-80154500D01*
X138935300Y-80154500D02*
X138935300Y-79957600D01*
X99695000Y-88900000D02*
X101220300Y-88900000D01*
X105966600Y-87499700D02*
X127911100Y-87499700D01*
X127911100Y-87499700D02*
X129341300Y-86069500D01*
X129341300Y-86069500D02*
X139842300Y-86069500D01*
X139842300Y-86069500D02*
X140796000Y-87023200D01*
X101220300Y-91440000D02*
X102026300Y-91440000D01*
X102026300Y-91440000D02*
X105966600Y-87499700D01*
X99695000Y-91440000D02*
X101220300Y-91440000D01*
X165323900Y-84479500D02*
X165603000Y-84200400D01*
X165603000Y-84200400D02*
X165603000Y-78647800D01*
X165603000Y-78647800D02*
X163875900Y-76920700D01*
X163875900Y-76920700D02*
X163038000Y-76920700D01*
X163038000Y-76920700D02*
X158439200Y-76920700D01*
X158439200Y-76920700D02*
X157989000Y-77370900D01*
X157989000Y-77370900D02*
X145335200Y-77370900D01*
X145335200Y-77370900D02*
X142680800Y-80025300D01*
X163038000Y-76920700D02*
X163038000Y-58140300D01*
X145415600Y-85453100D02*
X147066800Y-87104300D01*
X147066800Y-87104300D02*
X150281900Y-87104300D01*
X164031200Y-81108300D02*
X162028300Y-81108300D01*
X162028300Y-81108300D02*
X161386200Y-81750400D01*
X161386200Y-81750400D02*
X148062700Y-81750400D01*
X148062700Y-81750400D02*
X146910900Y-82902200D01*
X138086200Y-82618500D02*
X135608700Y-85096000D01*
X135608700Y-85096000D02*
X107068100Y-85096000D01*
X107068100Y-85096000D02*
X102014100Y-90150000D01*
D18*
X117619100Y-111704700D02*
X116293800Y-113030000D01*
X116293800Y-113030000D02*
X98829400Y-113030000D01*
X98829400Y-113030000D02*
X98080500Y-112281100D01*
X98080500Y-112281100D02*
X98080500Y-108294500D01*
X98080500Y-108294500D02*
X99695000Y-106680000D01*
X117619100Y-111704700D02*
X117674400Y-111760000D01*
X117674400Y-111760000D02*
X123504200Y-111760000D01*
X125095000Y-111760000D02*
X123504200Y-111760000D01*
D19*
X143091500Y-69932700D02*
X159995900Y-69932700D01*
X159995900Y-69932700D02*
X160255800Y-69672800D01*
X151088900Y-123186000D02*
X151563500Y-122711400D01*
X151563500Y-122711400D02*
X151563500Y-110547500D01*
X151563500Y-110547500D02*
X149277700Y-108261700D01*
X149277700Y-108261700D02*
X149277700Y-98438300D01*
X145702400Y-67200200D02*
X147621500Y-69119300D01*
X147621500Y-69119300D02*
X156540400Y-69119300D01*
X153655100Y-151328000D02*
X154371100Y-150612000D01*
X154371100Y-150612000D02*
X154371100Y-125669000D01*
X154371100Y-125669000D02*
X153635300Y-124933200D01*
X163087300Y-120522200D02*
X164128900Y-121563800D01*
X164128900Y-121563800D02*
X164128900Y-143717800D01*
X164128900Y-143717800D02*
X160303000Y-147543700D01*
X137744800Y-59572700D02*
X141053100Y-62881000D01*
X141053100Y-62881000D02*
X157098100Y-62881000D01*
X164889200Y-108088300D02*
X164381000Y-108088300D01*
X164381000Y-108088300D02*
X162767200Y-106474500D01*
X162767200Y-106474500D02*
X162767200Y-91609100D01*
X162767200Y-91609100D02*
X160263300Y-89105200D01*
X160319600Y-60385500D02*
X149209500Y-60385500D01*
X149209500Y-60385500D02*
X143084200Y-54260200D01*
X138534400Y-53815500D02*
X146906100Y-62187200D01*
X146906100Y-62187200D02*
X158496200Y-62187200D01*
X158496200Y-62187200D02*
X160278900Y-63969900D01*
X160288200Y-90415100D02*
X161883800Y-92010700D01*
X161883800Y-92010700D02*
X161883800Y-106228000D01*
X161883800Y-106228000D02*
X164666900Y-109011100D01*
X164666900Y-109011100D02*
X164666900Y-110922500D01*
X164666900Y-110922500D02*
X163307000Y-112282400D01*
X163307000Y-112282400D02*
X163307000Y-119335600D01*
X149981400Y-65042600D02*
X146975700Y-65042600D01*
X146975700Y-65042600D02*
X137540700Y-74477600D01*
X137540700Y-74477600D02*
X137540700Y-74678500D01*
X137540700Y-74678500D02*
X136670100Y-75549100D01*
X136670100Y-75549100D02*
X135596600Y-75549100D01*
X149277700Y-97494800D02*
X148652400Y-98120100D01*
X148652400Y-98120100D02*
X148652400Y-119602400D01*
X148652400Y-119602400D02*
X150925500Y-121875500D01*
X151040800Y-149213200D02*
X151542100Y-148711900D01*
X151542100Y-148711900D02*
X151542100Y-136099500D01*
X151542100Y-136099500D02*
X150463500Y-135020900D01*
X150463500Y-135020900D02*
X150463500Y-122337500D01*
X150463500Y-122337500D02*
X150925500Y-121875500D01*
X101220300Y-96520000D02*
X101220300Y-101572300D01*
X101220300Y-101572300D02*
X106144700Y-106496700D01*
X99695000Y-96520000D02*
X101220300Y-96520000D01*
X99695000Y-101600000D02*
X98169700Y-101600000D01*
X102235000Y-45720000D02*
X98169700Y-49785300D01*
X98169700Y-49785300D02*
X98169700Y-101600000D01*
X132572500Y-117283500D02*
X131888500Y-117967500D01*
X131888500Y-117967500D02*
X103785100Y-117967500D01*
X103785100Y-117967500D02*
X103348900Y-117531300D01*
X103348900Y-117531300D02*
X102830700Y-117531300D01*
X102830700Y-117531300D02*
X101220300Y-119141700D01*
X101220300Y-119141700D02*
X101220300Y-119380000D01*
X99695000Y-119380000D02*
X101220300Y-119380000D01*
X101220300Y-124460000D02*
X107678800Y-130918500D01*
X107678800Y-130918500D02*
X129941500Y-130918500D01*
X129941500Y-130918500D02*
X132546300Y-133523300D01*
X99695000Y-124460000D02*
X101220300Y-124460000D01*
X132569900Y-142800100D02*
X136525000Y-146755200D01*
X136525000Y-146755200D02*
X136525000Y-153035000D01*
X117623100Y-78831100D02*
X118701800Y-79909800D01*
X118701800Y-79909800D02*
X137658200Y-79909800D01*
X104775000Y-55880000D02*
X111358400Y-62463400D01*
X111358400Y-62463400D02*
X111358400Y-63983800D01*
X111358400Y-63983800D02*
X112378000Y-65003400D01*
X112378000Y-65003400D02*
X112878900Y-65003400D01*
X112878900Y-65003400D02*
X113665000Y-65789500D01*
X113665000Y-65789500D02*
X113665000Y-66274700D01*
X113665000Y-66274700D02*
X119419000Y-72028700D01*
X119419000Y-72028700D02*
X134524700Y-72028700D01*
X134524700Y-72028700D02*
X136915400Y-74419400D01*
X104775000Y-58420000D02*
X108744000Y-62389000D01*
X108744000Y-62389000D02*
X108744000Y-66496700D01*
X108744000Y-66496700D02*
X119353000Y-77105700D01*
X102235000Y-43180000D02*
X97114200Y-48300800D01*
X97114200Y-48300800D02*
X97114200Y-126427900D01*
X97114200Y-126427900D02*
X98956300Y-128270000D01*
X98956300Y-128270000D02*
X102286100Y-128270000D01*
X102286100Y-128270000D02*
X107075100Y-133059000D01*
X103089800Y-118156600D02*
X111234400Y-126301200D01*
X111234400Y-126301200D02*
X120173400Y-126301200D01*
X120173400Y-126301200D02*
X122142200Y-128270000D01*
X122142200Y-128270000D02*
X129304700Y-128270000D01*
X129304700Y-128270000D02*
X132610300Y-131575600D01*
X116348600Y-147425300D02*
X122803900Y-140970000D01*
X122803900Y-140970000D02*
X132178300Y-140970000D01*
X132178300Y-140970000D02*
X137513700Y-135634600D01*
X130641900Y-115541300D02*
X130641900Y-105119700D01*
X130641900Y-105119700D02*
X125938500Y-100416300D01*
X125938500Y-100416300D02*
X114601000Y-100416300D01*
X114601000Y-100416300D02*
X112629900Y-98445200D01*
X112629900Y-98445200D02*
X112179500Y-98445200D01*
X112179500Y-98445200D02*
X112179500Y-98445100D01*
X112179500Y-98445100D02*
X111857000Y-98122600D01*
X123119400Y-110512400D02*
X117890000Y-105283000D01*
X117890000Y-105283000D02*
X111307000Y-105283000D01*
X113585800Y-100329200D02*
X112258400Y-99001800D01*
X112258400Y-99001800D02*
X111843900Y-99001800D01*
X111843900Y-99001800D02*
X109054800Y-96212700D01*
X109054800Y-96212700D02*
X109054800Y-95071800D01*
X106317400Y-140705500D02*
X108528400Y-142916500D01*
X108528400Y-142916500D02*
X108604600Y-142916500D01*
M02*
