M48
; DRILL file {KiCad (5.1.2-1)-1} date Saturday, 08 June 2019 at 16:08:21
; FORMAT={3:3/ absolute / metric / suppress leading zeros}
; #@! TF.CreationDate,2019-06-08T16:08:21+01:00
; #@! TF.GenerationSoftware,Kicad,Pcbnew,(5.1.2-1)-1
FMAT,2
METRIC,TZ
T1C0.300
T2C0.400
T3C0.762
T4C0.800
T5C1.000
%
G90
G05
T1
X97062Y-49417
X102651Y-71426
X103118Y-122633
X106883Y-126254
X107444Y-142348
X107592Y-140750
X108332Y-139654
X109765Y-93695
X109856Y-57867
X109920Y-84254
X110349Y-120249
X110588Y-93783
X111253Y-111185
X111328Y-105264
X111575Y-113417
X111627Y-124000
X111847Y-97691
X112165Y-96409
X112175Y-98854
X112872Y-100225
X113030Y-127741
X113242Y-88109
X113360Y-146050
X113379Y-102499
X114353Y-93813
X114708Y-54865
X115490Y-107611
X115580Y-67470
X115722Y-119832
X115979Y-52642
X116175Y-99068
X116349Y-147425
X116793Y-102978
X117914Y-129407
X121403Y-78746
X128257Y-83765
X130184Y-61380
X131079Y-117306
X132179Y-91932
X132251Y-116470
X132529Y-134620
X132531Y-132080
X132556Y-130530
X132570Y-128467
X132740Y-118096
X133413Y-63690
X134022Y-67501
X134515Y-91431
X134628Y-58800
X134776Y-88706
X134820Y-80030
X134822Y-86655
X134822Y-87455
X135062Y-69503
X135084Y-56511
X135167Y-54267
X135177Y-51258
X135229Y-90970
X135335Y-146027
X135533Y-129359
X136512Y-84908
X136523Y-88200
X136577Y-83406
X137503Y-132417
X137663Y-131374
X137687Y-135222
X137757Y-73073
X137931Y-84315
X137953Y-82584
X138123Y-79996
X138221Y-71724
X138453Y-78835
X138684Y-137966
X138693Y-61284
X138839Y-68143
X139097Y-57198
X139345Y-62944
X139684Y-53251
X140097Y-56566
X140109Y-55513
X140125Y-67501
X140176Y-93965
X140193Y-64324
X140334Y-52064
X140728Y-86111
X140802Y-58611
X141265Y-83632
X141592Y-89062
X141608Y-89863
X141630Y-91443
X142430Y-93965
X142714Y-83063
X142853Y-91133
X143098Y-57785
X143099Y-80220
X143104Y-70041
X143104Y-54260
X143123Y-66231
X145384Y-83670
X145389Y-84532
X145413Y-85395
X145535Y-89265
X147030Y-83063
X148418Y-57493
X148594Y-84350
X148895Y-94840
X149177Y-54376
X149805Y-78888
X149989Y-44470
X149990Y-109932
X150141Y-54414
X150183Y-65600
X150314Y-83165
X150439Y-87291
X150543Y-111544
X150559Y-114943
X150568Y-113994
X150670Y-89687
X150881Y-91829
X150892Y-44272
X150892Y-110034
X150894Y-142424
X150899Y-102400
X150899Y-139576
X150906Y-137457
X150912Y-76074
X150915Y-103705
X150921Y-129760
X150945Y-43344
X151071Y-74262
X151101Y-144180
X152641Y-69748
X153449Y-127650
X153495Y-72998
X153531Y-95921
X153624Y-75066
X153626Y-147659
X153641Y-99971
X153643Y-46897
X153644Y-103521
X153644Y-107024
X153645Y-131129
X153646Y-134868
X153648Y-132298
X153648Y-91621
X153794Y-51341
X153808Y-77548
X153958Y-83518
X154284Y-60776
X155033Y-84782
X157312Y-70542
X157811Y-96706
X157821Y-46969
X157887Y-95529
X158200Y-72354
X158337Y-100572
X158621Y-47102
X158650Y-74756
X158734Y-102575
X159148Y-67845
X159238Y-101643
X159291Y-73359
X159421Y-46972
X159421Y-48223
X159594Y-140054
X159603Y-76047
X159688Y-93895
X159776Y-144770
X159806Y-78290
X159910Y-80979
X159967Y-83201
X159999Y-81992
X160064Y-124006
X160083Y-131415
X160120Y-128320
X160120Y-122339
X160259Y-84488
X160284Y-61678
X160292Y-145792
X160293Y-129755
X160295Y-105069
X160296Y-62881
X160302Y-113730
X160309Y-151500
X160312Y-86340
X160315Y-64057
X160315Y-134850
X160318Y-60878
X160322Y-141175
X160325Y-49702
X160362Y-50965
X160395Y-57041
X160440Y-52163
X160459Y-142951
X160463Y-66003
X160465Y-146733
X160503Y-149242
X160506Y-132719
X162872Y-119438
X163027Y-91049
X163027Y-114951
X163028Y-90142
X163034Y-89044
X163035Y-92680
X163038Y-118590
X163052Y-117491
X163164Y-120964
T2
X108275Y-118009
X108289Y-105524
X119089Y-107971
X133647Y-101567
X138027Y-76890
X139000Y-140689
X139430Y-127352
X147789Y-76262
X148185Y-107950
X148590Y-123335
T3
X99695Y-73660
X99695Y-76200
X99695Y-78740
X99695Y-81280
X99695Y-83820
X99695Y-86360
X99695Y-88900
X99695Y-91440
X99695Y-93980
X99695Y-96520
X99695Y-99060
X99695Y-101600
X99695Y-104140
X99695Y-106680
X99695Y-109220
X99695Y-111760
X99695Y-114300
X99695Y-116840
X99695Y-119380
X99695Y-121920
X99695Y-124460
X99695Y-127000
X99695Y-129540
X99695Y-132080
X99695Y-134620
X99695Y-137160
X99695Y-139700
X99695Y-142240
X99695Y-144780
X99695Y-147320
X99695Y-149860
X99695Y-152400
X125095Y-73660
X125095Y-76200
X125095Y-78740
X125095Y-81280
X125095Y-83820
X125095Y-86360
X125095Y-88900
X125095Y-91440
X125095Y-93980
X125095Y-96520
X125095Y-99060
X125095Y-101600
X125095Y-104140
X125095Y-106680
X125095Y-109220
X125095Y-111760
X125095Y-114300
X125095Y-116840
X125095Y-119380
X125095Y-121920
X125095Y-124460
X125095Y-127000
X125095Y-129540
X125095Y-132080
X125095Y-134620
X125095Y-137160
X125095Y-139700
X125095Y-142240
X125095Y-144780
X125095Y-147320
X125095Y-149860
X125095Y-152400
T4
X102235Y-43180
X102235Y-45720
X102235Y-48260
X102235Y-50800
X102235Y-53340
X102235Y-55880
X102235Y-58420
X102235Y-60960
X102235Y-63500
X104775Y-40640
X104775Y-43180
X104775Y-45720
X104775Y-48260
X104775Y-50800
X104775Y-53340
X104775Y-55880
X104775Y-58420
X104775Y-60960
X104775Y-63500
X104775Y-66040
X107315Y-40640
X107315Y-43180
X107315Y-63500
X107315Y-66040
X109855Y-40640
X109855Y-43180
X109855Y-63500
X109855Y-66040
X112395Y-40640
X112395Y-43180
X112395Y-63500
X112395Y-66040
X114935Y-40640
X114935Y-43180
X114935Y-63500
X114935Y-66040
X117475Y-40640
X117475Y-43180
X117475Y-63500
X117475Y-66040
X120015Y-40640
X120015Y-43180
X120015Y-63500
X120015Y-66040
X122555Y-40640
X122555Y-43180
X122555Y-63500
X122555Y-66040
X125095Y-40640
X125095Y-43180
X125095Y-45720
X125095Y-48260
X125095Y-50800
X125095Y-53340
X125095Y-55880
X125095Y-58420
X125095Y-60960
X125095Y-63500
X125095Y-66040
X127635Y-43180
X127635Y-45720
X127635Y-48260
X127635Y-50800
X127635Y-53340
X127635Y-55880
X127635Y-58420
X127635Y-60960
X127635Y-63500
T5
X133096Y-37529
X135636Y-37529
X138176Y-37529
X140716Y-37529
X143256Y-37529
X145796Y-37529
X133985Y-153035
X136525Y-153035
X139065Y-153035
T0
M30
