M48
; DRILL file {KiCad (5.1.2-1)-1} date Saturday, 08 June 2019 at 18:38:49
; FORMAT={3:3/ absolute / metric / suppress leading zeros}
; #@! TF.CreationDate,2019-06-08T18:38:49+01:00
; #@! TF.GenerationSoftware,Kicad,Pcbnew,(5.1.2-1)-1
FMAT,2
METRIC,TZ
T1C0.300
T2C0.400
T3C0.762
T4C0.800
T5C1.000
%
G90
G05
T1
X102014Y-90150
X103090Y-118157
X105418Y-52230
X105967Y-87500
X106145Y-106497
X106304Y-89472
X106317Y-140706
X107075Y-133059
X107711Y-140062
X108605Y-142917
X109055Y-95072
X109243Y-94257
X109953Y-77763
X110446Y-49091
X111213Y-89529
X111217Y-116207
X111307Y-105283
X111400Y-111437
X111857Y-98123
X111871Y-114508
X112009Y-92429
X112504Y-123504
X112634Y-88668
X112841Y-127478
X113391Y-146050
X113586Y-100329
X116190Y-125676
X116223Y-109426
X116349Y-97464
X116349Y-99508
X116349Y-147425
X117623Y-78831
X119353Y-77106
X123119Y-110512
X129650Y-90465
X129768Y-57227
X129769Y-55777
X130383Y-87263
X130642Y-115541
X131101Y-84131
X131421Y-90131
X131429Y-86908
X131497Y-91510
X132473Y-135442
X132531Y-119151
X132546Y-133523
X132570Y-142800
X132573Y-117283
X132610Y-131576
X132682Y-130273
X132993Y-93914
X133073Y-81987
X133281Y-95906
X133872Y-63295
X134104Y-87795
X134105Y-82995
X134844Y-89321
X134884Y-65633
X135003Y-86722
X135170Y-67464
X135177Y-55245
X135289Y-50748
X135384Y-52067
X135597Y-75549
X135679Y-134082
X135949Y-141962
X136900Y-113890
X136915Y-74419
X137038Y-91444
X137514Y-135635
X137655Y-130192
X137658Y-79910
X137729Y-132724
X137745Y-59573
X138086Y-82618
X138145Y-68570
X138146Y-66058
X138275Y-61298
X138337Y-64969
X138473Y-62382
X138534Y-53815
X138929Y-70505
X138935Y-79958
X139122Y-91118
X139496Y-59284
X139677Y-69692
X139677Y-71391
X139694Y-137992
X139924Y-91419
X140093Y-53251
X140102Y-51533
X140119Y-57549
X140240Y-64398
X140274Y-83082
X140586Y-95584
X140586Y-96385
X140796Y-87023
X141816Y-58601
X142064Y-88884
X142389Y-91408
X142520Y-84316
X142681Y-80025
X142865Y-88569
X143055Y-93968
X143084Y-54260
X143092Y-69933
X143552Y-78256
X144394Y-82202
X145404Y-87051
X145416Y-85453
X145682Y-89452
X145702Y-67200
X146749Y-84882
X146911Y-82902
X147857Y-66102
X149278Y-97495
X149278Y-98438
X149383Y-91883
X149662Y-84731
X149820Y-114333
X149824Y-61210
X149904Y-56530
X149981Y-65043
X150070Y-44644
X150282Y-87104
X150359Y-86290
X150472Y-59117
X150480Y-114958
X150489Y-66971
X150490Y-63516
X150554Y-105888
X150594Y-50362
X150638Y-110506
X150657Y-118989
X150775Y-73703
X150811Y-100981
X150818Y-111774
X150879Y-144165
X150897Y-142461
X150899Y-47662
X150907Y-147534
X150909Y-82395
X150914Y-78946
X150916Y-139418
X150918Y-108521
X150918Y-150240
X150926Y-121876
X150944Y-44591
X151041Y-149213
X151089Y-123186
X151097Y-52106
X151107Y-53366
X152835Y-126338
X153460Y-75582
X153511Y-79438
X153629Y-137142
X153635Y-124933
X153648Y-138341
X153655Y-151328
X153690Y-95267
X153693Y-132096
X153716Y-134770
X153809Y-74678
X154129Y-103247
X154365Y-73019
X156540Y-69119
X157098Y-62881
X157576Y-91456
X157616Y-72986
X157617Y-85058
X158696Y-77554
X159285Y-78241
X159529Y-102325
X159920Y-103121
X160186Y-95172
X160256Y-69673
X160263Y-89105
X160279Y-63970
X160288Y-90415
X160302Y-138446
X160303Y-147544
X160320Y-60386
X160321Y-92759
X160322Y-135505
X160345Y-104244
X160466Y-62227
X160508Y-151773
X160670Y-97762
X162162Y-70313
X162840Y-131463
X162860Y-45742
X162869Y-52075
X162891Y-57156
X162948Y-82052
X163025Y-47485
X163026Y-137027
X163027Y-135830
X163030Y-109538
X163031Y-46583
X163031Y-129738
X163034Y-142147
X163035Y-139490
X163038Y-44903
X163038Y-53831
X163038Y-58140
X163038Y-110339
X163044Y-51245
X163056Y-143088
X163087Y-120522
X163123Y-123864
X163138Y-124918
X163151Y-79168
X163262Y-126184
X163307Y-119336
X163346Y-123049
X163392Y-106216
X163767Y-101307
X163904Y-78470
X164031Y-81108
X164134Y-112340
X164318Y-113616
X164889Y-108088
X165324Y-84480
T2
X111923Y-99766
X117619Y-111705
X138915Y-48652
X144472Y-101119
X147927Y-98687
X148751Y-47334
T3
X99695Y-73660
X99695Y-76200
X99695Y-78740
X99695Y-81280
X99695Y-83820
X99695Y-86360
X99695Y-88900
X99695Y-91440
X99695Y-93980
X99695Y-96520
X99695Y-99060
X99695Y-101600
X99695Y-104140
X99695Y-106680
X99695Y-109220
X99695Y-111760
X99695Y-114300
X99695Y-116840
X99695Y-119380
X99695Y-121920
X99695Y-124460
X99695Y-127000
X99695Y-129540
X99695Y-132080
X99695Y-134620
X99695Y-137160
X99695Y-139700
X99695Y-142240
X99695Y-144780
X99695Y-147320
X99695Y-149860
X99695Y-152400
X125095Y-73660
X125095Y-76200
X125095Y-78740
X125095Y-81280
X125095Y-83820
X125095Y-86360
X125095Y-88900
X125095Y-91440
X125095Y-93980
X125095Y-96520
X125095Y-99060
X125095Y-101600
X125095Y-104140
X125095Y-106680
X125095Y-109220
X125095Y-111760
X125095Y-114300
X125095Y-116840
X125095Y-119380
X125095Y-121920
X125095Y-124460
X125095Y-127000
X125095Y-129540
X125095Y-132080
X125095Y-134620
X125095Y-137160
X125095Y-139700
X125095Y-142240
X125095Y-144780
X125095Y-147320
X125095Y-149860
X125095Y-152400
T4
X102235Y-43180
X102235Y-45720
X102235Y-48260
X102235Y-50800
X102235Y-53340
X102235Y-55880
X102235Y-58420
X102235Y-60960
X102235Y-63500
X104775Y-40640
X104775Y-43180
X104775Y-45720
X104775Y-48260
X104775Y-50800
X104775Y-53340
X104775Y-55880
X104775Y-58420
X104775Y-60960
X104775Y-63500
X104775Y-66040
X107315Y-40640
X107315Y-43180
X107315Y-63500
X107315Y-66040
X109855Y-40640
X109855Y-43180
X109855Y-63500
X109855Y-66040
X112395Y-40640
X112395Y-43180
X112395Y-63500
X112395Y-66040
X114935Y-40640
X114935Y-43180
X114935Y-63500
X114935Y-66040
X117475Y-40640
X117475Y-43180
X117475Y-63500
X117475Y-66040
X120015Y-40640
X120015Y-43180
X120015Y-63500
X120015Y-66040
X122555Y-40640
X122555Y-43180
X122555Y-63500
X122555Y-66040
X125095Y-40640
X125095Y-43180
X125095Y-45720
X125095Y-48260
X125095Y-50800
X125095Y-53340
X125095Y-55880
X125095Y-58420
X125095Y-60960
X125095Y-63500
X125095Y-66040
X127635Y-43180
X127635Y-45720
X127635Y-48260
X127635Y-50800
X127635Y-53340
X127635Y-55880
X127635Y-58420
X127635Y-60960
X127635Y-63500
T5
X133096Y-37529
X135636Y-37529
X138176Y-37529
X140716Y-37529
X143256Y-37529
X145796Y-37529
X133985Y-153035
X136525Y-153035
X139065Y-153035
T0
M30
