G04 #@! TF.GenerationSoftware,KiCad,Pcbnew,(5.1.2-1)-1*
G04 #@! TF.CreationDate,2019-06-08T18:38:44+01:00*
G04 #@! TF.ProjectId,A500 FastRAM,41353030-2046-4617-9374-52414d2e6b69,rev?*
G04 #@! TF.SameCoordinates,Original*
G04 #@! TF.FileFunction,Soldermask,Bot*
G04 #@! TF.FilePolarity,Negative*
%FSLAX46Y46*%
G04 Gerber Fmt 4.6, Leading zero omitted, Abs format (unit mm)*
G04 Created by KiCad (PCBNEW (5.1.2-1)-1) date 2019-06-08 18:38:44*
%MOMM*%
%LPD*%
G04 APERTURE LIST*
%ADD10C,0.100000*%
G04 APERTURE END LIST*
D10*
G36*
X139175443Y-152140519D02*
G01*
X139241627Y-152147037D01*
X139411466Y-152198557D01*
X139567991Y-152282222D01*
X139603729Y-152311552D01*
X139705186Y-152394814D01*
X139788448Y-152496271D01*
X139817778Y-152532009D01*
X139901443Y-152688534D01*
X139952963Y-152858373D01*
X139970359Y-153035000D01*
X139952963Y-153211627D01*
X139901443Y-153381466D01*
X139817778Y-153537991D01*
X139788448Y-153573729D01*
X139705186Y-153675186D01*
X139603729Y-153758448D01*
X139567991Y-153787778D01*
X139411466Y-153871443D01*
X139241627Y-153922963D01*
X139175442Y-153929482D01*
X139109260Y-153936000D01*
X139020740Y-153936000D01*
X138954558Y-153929482D01*
X138888373Y-153922963D01*
X138718534Y-153871443D01*
X138562009Y-153787778D01*
X138526271Y-153758448D01*
X138424814Y-153675186D01*
X138341552Y-153573729D01*
X138312222Y-153537991D01*
X138228557Y-153381466D01*
X138177037Y-153211627D01*
X138159641Y-153035000D01*
X138177037Y-152858373D01*
X138228557Y-152688534D01*
X138312222Y-152532009D01*
X138341552Y-152496271D01*
X138424814Y-152394814D01*
X138526271Y-152311552D01*
X138562009Y-152282222D01*
X138718534Y-152198557D01*
X138888373Y-152147037D01*
X138954557Y-152140519D01*
X139020740Y-152134000D01*
X139109260Y-152134000D01*
X139175443Y-152140519D01*
X139175443Y-152140519D01*
G37*
G36*
X136635443Y-152140519D02*
G01*
X136701627Y-152147037D01*
X136871466Y-152198557D01*
X137027991Y-152282222D01*
X137063729Y-152311552D01*
X137165186Y-152394814D01*
X137248448Y-152496271D01*
X137277778Y-152532009D01*
X137361443Y-152688534D01*
X137412963Y-152858373D01*
X137430359Y-153035000D01*
X137412963Y-153211627D01*
X137361443Y-153381466D01*
X137277778Y-153537991D01*
X137248448Y-153573729D01*
X137165186Y-153675186D01*
X137063729Y-153758448D01*
X137027991Y-153787778D01*
X136871466Y-153871443D01*
X136701627Y-153922963D01*
X136635442Y-153929482D01*
X136569260Y-153936000D01*
X136480740Y-153936000D01*
X136414558Y-153929482D01*
X136348373Y-153922963D01*
X136178534Y-153871443D01*
X136022009Y-153787778D01*
X135986271Y-153758448D01*
X135884814Y-153675186D01*
X135801552Y-153573729D01*
X135772222Y-153537991D01*
X135688557Y-153381466D01*
X135637037Y-153211627D01*
X135619641Y-153035000D01*
X135637037Y-152858373D01*
X135688557Y-152688534D01*
X135772222Y-152532009D01*
X135801552Y-152496271D01*
X135884814Y-152394814D01*
X135986271Y-152311552D01*
X136022009Y-152282222D01*
X136178534Y-152198557D01*
X136348373Y-152147037D01*
X136414557Y-152140519D01*
X136480740Y-152134000D01*
X136569260Y-152134000D01*
X136635443Y-152140519D01*
X136635443Y-152140519D01*
G37*
G36*
X134886000Y-153936000D02*
G01*
X133084000Y-153936000D01*
X133084000Y-152134000D01*
X134886000Y-152134000D01*
X134886000Y-153936000D01*
X134886000Y-153936000D01*
G37*
G36*
X125661823Y-151561313D02*
G01*
X125822242Y-151609976D01*
X125954906Y-151680886D01*
X125970078Y-151688996D01*
X126099659Y-151795341D01*
X126206004Y-151924922D01*
X126206005Y-151924924D01*
X126285024Y-152072758D01*
X126333687Y-152233177D01*
X126350117Y-152400000D01*
X126333687Y-152566823D01*
X126285024Y-152727242D01*
X126214933Y-152858373D01*
X126206004Y-152875078D01*
X126099659Y-153004659D01*
X125970078Y-153111004D01*
X125970076Y-153111005D01*
X125822242Y-153190024D01*
X125661823Y-153238687D01*
X125536804Y-153251000D01*
X124653196Y-153251000D01*
X124528177Y-153238687D01*
X124367758Y-153190024D01*
X124219924Y-153111005D01*
X124219922Y-153111004D01*
X124090341Y-153004659D01*
X123983996Y-152875078D01*
X123975067Y-152858373D01*
X123904976Y-152727242D01*
X123856313Y-152566823D01*
X123839883Y-152400000D01*
X123856313Y-152233177D01*
X123904976Y-152072758D01*
X123983995Y-151924924D01*
X123983996Y-151924922D01*
X124090341Y-151795341D01*
X124219922Y-151688996D01*
X124235094Y-151680886D01*
X124367758Y-151609976D01*
X124528177Y-151561313D01*
X124653196Y-151549000D01*
X125536804Y-151549000D01*
X125661823Y-151561313D01*
X125661823Y-151561313D01*
G37*
G36*
X100261823Y-151561313D02*
G01*
X100422242Y-151609976D01*
X100554906Y-151680886D01*
X100570078Y-151688996D01*
X100699659Y-151795341D01*
X100806004Y-151924922D01*
X100806005Y-151924924D01*
X100885024Y-152072758D01*
X100933687Y-152233177D01*
X100950117Y-152400000D01*
X100933687Y-152566823D01*
X100885024Y-152727242D01*
X100814933Y-152858373D01*
X100806004Y-152875078D01*
X100699659Y-153004659D01*
X100570078Y-153111004D01*
X100570076Y-153111005D01*
X100422242Y-153190024D01*
X100261823Y-153238687D01*
X100136804Y-153251000D01*
X99253196Y-153251000D01*
X99128177Y-153238687D01*
X98967758Y-153190024D01*
X98819924Y-153111005D01*
X98819922Y-153111004D01*
X98690341Y-153004659D01*
X98583996Y-152875078D01*
X98575067Y-152858373D01*
X98504976Y-152727242D01*
X98456313Y-152566823D01*
X98439883Y-152400000D01*
X98456313Y-152233177D01*
X98504976Y-152072758D01*
X98583995Y-151924924D01*
X98583996Y-151924922D01*
X98690341Y-151795341D01*
X98819922Y-151688996D01*
X98835094Y-151680886D01*
X98967758Y-151609976D01*
X99128177Y-151561313D01*
X99253196Y-151549000D01*
X100136804Y-151549000D01*
X100261823Y-151561313D01*
X100261823Y-151561313D01*
G37*
G36*
X100261823Y-149021313D02*
G01*
X100422242Y-149069976D01*
X100554906Y-149140886D01*
X100570078Y-149148996D01*
X100699659Y-149255341D01*
X100806004Y-149384922D01*
X100806005Y-149384924D01*
X100885024Y-149532758D01*
X100933687Y-149693177D01*
X100950117Y-149860000D01*
X100933687Y-150026823D01*
X100885024Y-150187242D01*
X100814114Y-150319906D01*
X100806004Y-150335078D01*
X100699659Y-150464659D01*
X100570078Y-150571004D01*
X100570076Y-150571005D01*
X100422242Y-150650024D01*
X100261823Y-150698687D01*
X100136804Y-150711000D01*
X99253196Y-150711000D01*
X99128177Y-150698687D01*
X98967758Y-150650024D01*
X98819924Y-150571005D01*
X98819922Y-150571004D01*
X98690341Y-150464659D01*
X98583996Y-150335078D01*
X98575886Y-150319906D01*
X98504976Y-150187242D01*
X98456313Y-150026823D01*
X98439883Y-149860000D01*
X98456313Y-149693177D01*
X98504976Y-149532758D01*
X98583995Y-149384924D01*
X98583996Y-149384922D01*
X98690341Y-149255341D01*
X98819922Y-149148996D01*
X98835094Y-149140886D01*
X98967758Y-149069976D01*
X99128177Y-149021313D01*
X99253196Y-149009000D01*
X100136804Y-149009000D01*
X100261823Y-149021313D01*
X100261823Y-149021313D01*
G37*
G36*
X125661823Y-149021313D02*
G01*
X125822242Y-149069976D01*
X125954906Y-149140886D01*
X125970078Y-149148996D01*
X126099659Y-149255341D01*
X126206004Y-149384922D01*
X126206005Y-149384924D01*
X126285024Y-149532758D01*
X126333687Y-149693177D01*
X126350117Y-149860000D01*
X126333687Y-150026823D01*
X126285024Y-150187242D01*
X126214114Y-150319906D01*
X126206004Y-150335078D01*
X126099659Y-150464659D01*
X125970078Y-150571004D01*
X125970076Y-150571005D01*
X125822242Y-150650024D01*
X125661823Y-150698687D01*
X125536804Y-150711000D01*
X124653196Y-150711000D01*
X124528177Y-150698687D01*
X124367758Y-150650024D01*
X124219924Y-150571005D01*
X124219922Y-150571004D01*
X124090341Y-150464659D01*
X123983996Y-150335078D01*
X123975886Y-150319906D01*
X123904976Y-150187242D01*
X123856313Y-150026823D01*
X123839883Y-149860000D01*
X123856313Y-149693177D01*
X123904976Y-149532758D01*
X123983995Y-149384924D01*
X123983996Y-149384922D01*
X124090341Y-149255341D01*
X124219922Y-149148996D01*
X124235094Y-149140886D01*
X124367758Y-149069976D01*
X124528177Y-149021313D01*
X124653196Y-149009000D01*
X125536804Y-149009000D01*
X125661823Y-149021313D01*
X125661823Y-149021313D01*
G37*
G36*
X125661823Y-146481313D02*
G01*
X125822242Y-146529976D01*
X125954906Y-146600886D01*
X125970078Y-146608996D01*
X126099659Y-146715341D01*
X126206004Y-146844922D01*
X126206005Y-146844924D01*
X126285024Y-146992758D01*
X126333687Y-147153177D01*
X126350117Y-147320000D01*
X126333687Y-147486823D01*
X126285024Y-147647242D01*
X126214114Y-147779906D01*
X126206004Y-147795078D01*
X126099659Y-147924659D01*
X125970078Y-148031004D01*
X125970076Y-148031005D01*
X125822242Y-148110024D01*
X125661823Y-148158687D01*
X125536804Y-148171000D01*
X124653196Y-148171000D01*
X124528177Y-148158687D01*
X124367758Y-148110024D01*
X124219924Y-148031005D01*
X124219922Y-148031004D01*
X124090341Y-147924659D01*
X123983996Y-147795078D01*
X123975886Y-147779906D01*
X123904976Y-147647242D01*
X123856313Y-147486823D01*
X123839883Y-147320000D01*
X123856313Y-147153177D01*
X123904976Y-146992758D01*
X123983995Y-146844924D01*
X123983996Y-146844922D01*
X124090341Y-146715341D01*
X124219922Y-146608996D01*
X124235094Y-146600886D01*
X124367758Y-146529976D01*
X124528177Y-146481313D01*
X124653196Y-146469000D01*
X125536804Y-146469000D01*
X125661823Y-146481313D01*
X125661823Y-146481313D01*
G37*
G36*
X100261823Y-146481313D02*
G01*
X100422242Y-146529976D01*
X100554906Y-146600886D01*
X100570078Y-146608996D01*
X100699659Y-146715341D01*
X100806004Y-146844922D01*
X100806005Y-146844924D01*
X100885024Y-146992758D01*
X100933687Y-147153177D01*
X100950117Y-147320000D01*
X100933687Y-147486823D01*
X100885024Y-147647242D01*
X100814114Y-147779906D01*
X100806004Y-147795078D01*
X100699659Y-147924659D01*
X100570078Y-148031004D01*
X100570076Y-148031005D01*
X100422242Y-148110024D01*
X100261823Y-148158687D01*
X100136804Y-148171000D01*
X99253196Y-148171000D01*
X99128177Y-148158687D01*
X98967758Y-148110024D01*
X98819924Y-148031005D01*
X98819922Y-148031004D01*
X98690341Y-147924659D01*
X98583996Y-147795078D01*
X98575886Y-147779906D01*
X98504976Y-147647242D01*
X98456313Y-147486823D01*
X98439883Y-147320000D01*
X98456313Y-147153177D01*
X98504976Y-146992758D01*
X98583995Y-146844924D01*
X98583996Y-146844922D01*
X98690341Y-146715341D01*
X98819922Y-146608996D01*
X98835094Y-146600886D01*
X98967758Y-146529976D01*
X99128177Y-146481313D01*
X99253196Y-146469000D01*
X100136804Y-146469000D01*
X100261823Y-146481313D01*
X100261823Y-146481313D01*
G37*
G36*
X100261823Y-143941313D02*
G01*
X100422242Y-143989976D01*
X100554906Y-144060886D01*
X100570078Y-144068996D01*
X100699659Y-144175341D01*
X100806004Y-144304922D01*
X100806005Y-144304924D01*
X100885024Y-144452758D01*
X100933687Y-144613177D01*
X100950117Y-144780000D01*
X100933687Y-144946823D01*
X100885024Y-145107242D01*
X100814114Y-145239906D01*
X100806004Y-145255078D01*
X100699659Y-145384659D01*
X100570078Y-145491004D01*
X100570076Y-145491005D01*
X100422242Y-145570024D01*
X100261823Y-145618687D01*
X100136804Y-145631000D01*
X99253196Y-145631000D01*
X99128177Y-145618687D01*
X98967758Y-145570024D01*
X98819924Y-145491005D01*
X98819922Y-145491004D01*
X98690341Y-145384659D01*
X98583996Y-145255078D01*
X98575886Y-145239906D01*
X98504976Y-145107242D01*
X98456313Y-144946823D01*
X98439883Y-144780000D01*
X98456313Y-144613177D01*
X98504976Y-144452758D01*
X98583995Y-144304924D01*
X98583996Y-144304922D01*
X98690341Y-144175341D01*
X98819922Y-144068996D01*
X98835094Y-144060886D01*
X98967758Y-143989976D01*
X99128177Y-143941313D01*
X99253196Y-143929000D01*
X100136804Y-143929000D01*
X100261823Y-143941313D01*
X100261823Y-143941313D01*
G37*
G36*
X125661823Y-143941313D02*
G01*
X125822242Y-143989976D01*
X125954906Y-144060886D01*
X125970078Y-144068996D01*
X126099659Y-144175341D01*
X126206004Y-144304922D01*
X126206005Y-144304924D01*
X126285024Y-144452758D01*
X126333687Y-144613177D01*
X126350117Y-144780000D01*
X126333687Y-144946823D01*
X126285024Y-145107242D01*
X126214114Y-145239906D01*
X126206004Y-145255078D01*
X126099659Y-145384659D01*
X125970078Y-145491004D01*
X125970076Y-145491005D01*
X125822242Y-145570024D01*
X125661823Y-145618687D01*
X125536804Y-145631000D01*
X124653196Y-145631000D01*
X124528177Y-145618687D01*
X124367758Y-145570024D01*
X124219924Y-145491005D01*
X124219922Y-145491004D01*
X124090341Y-145384659D01*
X123983996Y-145255078D01*
X123975886Y-145239906D01*
X123904976Y-145107242D01*
X123856313Y-144946823D01*
X123839883Y-144780000D01*
X123856313Y-144613177D01*
X123904976Y-144452758D01*
X123983995Y-144304924D01*
X123983996Y-144304922D01*
X124090341Y-144175341D01*
X124219922Y-144068996D01*
X124235094Y-144060886D01*
X124367758Y-143989976D01*
X124528177Y-143941313D01*
X124653196Y-143929000D01*
X125536804Y-143929000D01*
X125661823Y-143941313D01*
X125661823Y-143941313D01*
G37*
G36*
X125661823Y-141401313D02*
G01*
X125822242Y-141449976D01*
X125954906Y-141520886D01*
X125970078Y-141528996D01*
X126099659Y-141635341D01*
X126206004Y-141764922D01*
X126206005Y-141764924D01*
X126285024Y-141912758D01*
X126333687Y-142073177D01*
X126350117Y-142240000D01*
X126333687Y-142406823D01*
X126285024Y-142567242D01*
X126214114Y-142699906D01*
X126206004Y-142715078D01*
X126099659Y-142844659D01*
X125970078Y-142951004D01*
X125970076Y-142951005D01*
X125822242Y-143030024D01*
X125661823Y-143078687D01*
X125536804Y-143091000D01*
X124653196Y-143091000D01*
X124528177Y-143078687D01*
X124367758Y-143030024D01*
X124219924Y-142951005D01*
X124219922Y-142951004D01*
X124090341Y-142844659D01*
X123983996Y-142715078D01*
X123975886Y-142699906D01*
X123904976Y-142567242D01*
X123856313Y-142406823D01*
X123839883Y-142240000D01*
X123856313Y-142073177D01*
X123904976Y-141912758D01*
X123983995Y-141764924D01*
X123983996Y-141764922D01*
X124090341Y-141635341D01*
X124219922Y-141528996D01*
X124235094Y-141520886D01*
X124367758Y-141449976D01*
X124528177Y-141401313D01*
X124653196Y-141389000D01*
X125536804Y-141389000D01*
X125661823Y-141401313D01*
X125661823Y-141401313D01*
G37*
G36*
X100261823Y-141401313D02*
G01*
X100422242Y-141449976D01*
X100554906Y-141520886D01*
X100570078Y-141528996D01*
X100699659Y-141635341D01*
X100806004Y-141764922D01*
X100806005Y-141764924D01*
X100885024Y-141912758D01*
X100933687Y-142073177D01*
X100950117Y-142240000D01*
X100933687Y-142406823D01*
X100885024Y-142567242D01*
X100814114Y-142699906D01*
X100806004Y-142715078D01*
X100699659Y-142844659D01*
X100570078Y-142951004D01*
X100570076Y-142951005D01*
X100422242Y-143030024D01*
X100261823Y-143078687D01*
X100136804Y-143091000D01*
X99253196Y-143091000D01*
X99128177Y-143078687D01*
X98967758Y-143030024D01*
X98819924Y-142951005D01*
X98819922Y-142951004D01*
X98690341Y-142844659D01*
X98583996Y-142715078D01*
X98575886Y-142699906D01*
X98504976Y-142567242D01*
X98456313Y-142406823D01*
X98439883Y-142240000D01*
X98456313Y-142073177D01*
X98504976Y-141912758D01*
X98583995Y-141764924D01*
X98583996Y-141764922D01*
X98690341Y-141635341D01*
X98819922Y-141528996D01*
X98835094Y-141520886D01*
X98967758Y-141449976D01*
X99128177Y-141401313D01*
X99253196Y-141389000D01*
X100136804Y-141389000D01*
X100261823Y-141401313D01*
X100261823Y-141401313D01*
G37*
G36*
X125661823Y-138861313D02*
G01*
X125822242Y-138909976D01*
X125954906Y-138980886D01*
X125970078Y-138988996D01*
X126099659Y-139095341D01*
X126206004Y-139224922D01*
X126206005Y-139224924D01*
X126285024Y-139372758D01*
X126333687Y-139533177D01*
X126350117Y-139700000D01*
X126333687Y-139866823D01*
X126285024Y-140027242D01*
X126214114Y-140159906D01*
X126206004Y-140175078D01*
X126099659Y-140304659D01*
X125970078Y-140411004D01*
X125970076Y-140411005D01*
X125822242Y-140490024D01*
X125661823Y-140538687D01*
X125536804Y-140551000D01*
X124653196Y-140551000D01*
X124528177Y-140538687D01*
X124367758Y-140490024D01*
X124219924Y-140411005D01*
X124219922Y-140411004D01*
X124090341Y-140304659D01*
X123983996Y-140175078D01*
X123975886Y-140159906D01*
X123904976Y-140027242D01*
X123856313Y-139866823D01*
X123839883Y-139700000D01*
X123856313Y-139533177D01*
X123904976Y-139372758D01*
X123983995Y-139224924D01*
X123983996Y-139224922D01*
X124090341Y-139095341D01*
X124219922Y-138988996D01*
X124235094Y-138980886D01*
X124367758Y-138909976D01*
X124528177Y-138861313D01*
X124653196Y-138849000D01*
X125536804Y-138849000D01*
X125661823Y-138861313D01*
X125661823Y-138861313D01*
G37*
G36*
X100261823Y-138861313D02*
G01*
X100422242Y-138909976D01*
X100554906Y-138980886D01*
X100570078Y-138988996D01*
X100699659Y-139095341D01*
X100806004Y-139224922D01*
X100806005Y-139224924D01*
X100885024Y-139372758D01*
X100933687Y-139533177D01*
X100950117Y-139700000D01*
X100933687Y-139866823D01*
X100885024Y-140027242D01*
X100814114Y-140159906D01*
X100806004Y-140175078D01*
X100699659Y-140304659D01*
X100570078Y-140411004D01*
X100570076Y-140411005D01*
X100422242Y-140490024D01*
X100261823Y-140538687D01*
X100136804Y-140551000D01*
X99253196Y-140551000D01*
X99128177Y-140538687D01*
X98967758Y-140490024D01*
X98819924Y-140411005D01*
X98819922Y-140411004D01*
X98690341Y-140304659D01*
X98583996Y-140175078D01*
X98575886Y-140159906D01*
X98504976Y-140027242D01*
X98456313Y-139866823D01*
X98439883Y-139700000D01*
X98456313Y-139533177D01*
X98504976Y-139372758D01*
X98583995Y-139224924D01*
X98583996Y-139224922D01*
X98690341Y-139095341D01*
X98819922Y-138988996D01*
X98835094Y-138980886D01*
X98967758Y-138909976D01*
X99128177Y-138861313D01*
X99253196Y-138849000D01*
X100136804Y-138849000D01*
X100261823Y-138861313D01*
X100261823Y-138861313D01*
G37*
G36*
X125661823Y-136321313D02*
G01*
X125822242Y-136369976D01*
X125954906Y-136440886D01*
X125970078Y-136448996D01*
X126099659Y-136555341D01*
X126206004Y-136684922D01*
X126206005Y-136684924D01*
X126285024Y-136832758D01*
X126333687Y-136993177D01*
X126350117Y-137160000D01*
X126333687Y-137326823D01*
X126285024Y-137487242D01*
X126214114Y-137619906D01*
X126206004Y-137635078D01*
X126099659Y-137764659D01*
X125970078Y-137871004D01*
X125970076Y-137871005D01*
X125822242Y-137950024D01*
X125661823Y-137998687D01*
X125536804Y-138011000D01*
X124653196Y-138011000D01*
X124528177Y-137998687D01*
X124367758Y-137950024D01*
X124219924Y-137871005D01*
X124219922Y-137871004D01*
X124090341Y-137764659D01*
X123983996Y-137635078D01*
X123975886Y-137619906D01*
X123904976Y-137487242D01*
X123856313Y-137326823D01*
X123839883Y-137160000D01*
X123856313Y-136993177D01*
X123904976Y-136832758D01*
X123983995Y-136684924D01*
X123983996Y-136684922D01*
X124090341Y-136555341D01*
X124219922Y-136448996D01*
X124235094Y-136440886D01*
X124367758Y-136369976D01*
X124528177Y-136321313D01*
X124653196Y-136309000D01*
X125536804Y-136309000D01*
X125661823Y-136321313D01*
X125661823Y-136321313D01*
G37*
G36*
X100261823Y-136321313D02*
G01*
X100422242Y-136369976D01*
X100554906Y-136440886D01*
X100570078Y-136448996D01*
X100699659Y-136555341D01*
X100806004Y-136684922D01*
X100806005Y-136684924D01*
X100885024Y-136832758D01*
X100933687Y-136993177D01*
X100950117Y-137160000D01*
X100933687Y-137326823D01*
X100885024Y-137487242D01*
X100814114Y-137619906D01*
X100806004Y-137635078D01*
X100699659Y-137764659D01*
X100570078Y-137871004D01*
X100570076Y-137871005D01*
X100422242Y-137950024D01*
X100261823Y-137998687D01*
X100136804Y-138011000D01*
X99253196Y-138011000D01*
X99128177Y-137998687D01*
X98967758Y-137950024D01*
X98819924Y-137871005D01*
X98819922Y-137871004D01*
X98690341Y-137764659D01*
X98583996Y-137635078D01*
X98575886Y-137619906D01*
X98504976Y-137487242D01*
X98456313Y-137326823D01*
X98439883Y-137160000D01*
X98456313Y-136993177D01*
X98504976Y-136832758D01*
X98583995Y-136684924D01*
X98583996Y-136684922D01*
X98690341Y-136555341D01*
X98819922Y-136448996D01*
X98835094Y-136440886D01*
X98967758Y-136369976D01*
X99128177Y-136321313D01*
X99253196Y-136309000D01*
X100136804Y-136309000D01*
X100261823Y-136321313D01*
X100261823Y-136321313D01*
G37*
G36*
X125661823Y-133781313D02*
G01*
X125822242Y-133829976D01*
X125954906Y-133900886D01*
X125970078Y-133908996D01*
X126099659Y-134015341D01*
X126206004Y-134144922D01*
X126206005Y-134144924D01*
X126285024Y-134292758D01*
X126333687Y-134453177D01*
X126350117Y-134620000D01*
X126333687Y-134786823D01*
X126285024Y-134947242D01*
X126214114Y-135079906D01*
X126206004Y-135095078D01*
X126099659Y-135224659D01*
X125970078Y-135331004D01*
X125970076Y-135331005D01*
X125822242Y-135410024D01*
X125661823Y-135458687D01*
X125536804Y-135471000D01*
X124653196Y-135471000D01*
X124528177Y-135458687D01*
X124367758Y-135410024D01*
X124219924Y-135331005D01*
X124219922Y-135331004D01*
X124090341Y-135224659D01*
X123983996Y-135095078D01*
X123975886Y-135079906D01*
X123904976Y-134947242D01*
X123856313Y-134786823D01*
X123839883Y-134620000D01*
X123856313Y-134453177D01*
X123904976Y-134292758D01*
X123983995Y-134144924D01*
X123983996Y-134144922D01*
X124090341Y-134015341D01*
X124219922Y-133908996D01*
X124235094Y-133900886D01*
X124367758Y-133829976D01*
X124528177Y-133781313D01*
X124653196Y-133769000D01*
X125536804Y-133769000D01*
X125661823Y-133781313D01*
X125661823Y-133781313D01*
G37*
G36*
X100261823Y-133781313D02*
G01*
X100422242Y-133829976D01*
X100554906Y-133900886D01*
X100570078Y-133908996D01*
X100699659Y-134015341D01*
X100806004Y-134144922D01*
X100806005Y-134144924D01*
X100885024Y-134292758D01*
X100933687Y-134453177D01*
X100950117Y-134620000D01*
X100933687Y-134786823D01*
X100885024Y-134947242D01*
X100814114Y-135079906D01*
X100806004Y-135095078D01*
X100699659Y-135224659D01*
X100570078Y-135331004D01*
X100570076Y-135331005D01*
X100422242Y-135410024D01*
X100261823Y-135458687D01*
X100136804Y-135471000D01*
X99253196Y-135471000D01*
X99128177Y-135458687D01*
X98967758Y-135410024D01*
X98819924Y-135331005D01*
X98819922Y-135331004D01*
X98690341Y-135224659D01*
X98583996Y-135095078D01*
X98575886Y-135079906D01*
X98504976Y-134947242D01*
X98456313Y-134786823D01*
X98439883Y-134620000D01*
X98456313Y-134453177D01*
X98504976Y-134292758D01*
X98583995Y-134144924D01*
X98583996Y-134144922D01*
X98690341Y-134015341D01*
X98819922Y-133908996D01*
X98835094Y-133900886D01*
X98967758Y-133829976D01*
X99128177Y-133781313D01*
X99253196Y-133769000D01*
X100136804Y-133769000D01*
X100261823Y-133781313D01*
X100261823Y-133781313D01*
G37*
G36*
X125661823Y-131241313D02*
G01*
X125822242Y-131289976D01*
X125954906Y-131360886D01*
X125970078Y-131368996D01*
X126099659Y-131475341D01*
X126206004Y-131604922D01*
X126206005Y-131604924D01*
X126285024Y-131752758D01*
X126333687Y-131913177D01*
X126350117Y-132080000D01*
X126333687Y-132246823D01*
X126285024Y-132407242D01*
X126214114Y-132539906D01*
X126206004Y-132555078D01*
X126099659Y-132684659D01*
X125970078Y-132791004D01*
X125970076Y-132791005D01*
X125822242Y-132870024D01*
X125661823Y-132918687D01*
X125536804Y-132931000D01*
X124653196Y-132931000D01*
X124528177Y-132918687D01*
X124367758Y-132870024D01*
X124219924Y-132791005D01*
X124219922Y-132791004D01*
X124090341Y-132684659D01*
X123983996Y-132555078D01*
X123975886Y-132539906D01*
X123904976Y-132407242D01*
X123856313Y-132246823D01*
X123839883Y-132080000D01*
X123856313Y-131913177D01*
X123904976Y-131752758D01*
X123983995Y-131604924D01*
X123983996Y-131604922D01*
X124090341Y-131475341D01*
X124219922Y-131368996D01*
X124235094Y-131360886D01*
X124367758Y-131289976D01*
X124528177Y-131241313D01*
X124653196Y-131229000D01*
X125536804Y-131229000D01*
X125661823Y-131241313D01*
X125661823Y-131241313D01*
G37*
G36*
X100261823Y-131241313D02*
G01*
X100422242Y-131289976D01*
X100554906Y-131360886D01*
X100570078Y-131368996D01*
X100699659Y-131475341D01*
X100806004Y-131604922D01*
X100806005Y-131604924D01*
X100885024Y-131752758D01*
X100933687Y-131913177D01*
X100950117Y-132080000D01*
X100933687Y-132246823D01*
X100885024Y-132407242D01*
X100814114Y-132539906D01*
X100806004Y-132555078D01*
X100699659Y-132684659D01*
X100570078Y-132791004D01*
X100570076Y-132791005D01*
X100422242Y-132870024D01*
X100261823Y-132918687D01*
X100136804Y-132931000D01*
X99253196Y-132931000D01*
X99128177Y-132918687D01*
X98967758Y-132870024D01*
X98819924Y-132791005D01*
X98819922Y-132791004D01*
X98690341Y-132684659D01*
X98583996Y-132555078D01*
X98575886Y-132539906D01*
X98504976Y-132407242D01*
X98456313Y-132246823D01*
X98439883Y-132080000D01*
X98456313Y-131913177D01*
X98504976Y-131752758D01*
X98583995Y-131604924D01*
X98583996Y-131604922D01*
X98690341Y-131475341D01*
X98819922Y-131368996D01*
X98835094Y-131360886D01*
X98967758Y-131289976D01*
X99128177Y-131241313D01*
X99253196Y-131229000D01*
X100136804Y-131229000D01*
X100261823Y-131241313D01*
X100261823Y-131241313D01*
G37*
G36*
X100261823Y-128701313D02*
G01*
X100422242Y-128749976D01*
X100554906Y-128820886D01*
X100570078Y-128828996D01*
X100699659Y-128935341D01*
X100806004Y-129064922D01*
X100806005Y-129064924D01*
X100885024Y-129212758D01*
X100933687Y-129373177D01*
X100950117Y-129540000D01*
X100933687Y-129706823D01*
X100885024Y-129867242D01*
X100814114Y-129999906D01*
X100806004Y-130015078D01*
X100699659Y-130144659D01*
X100570078Y-130251004D01*
X100570076Y-130251005D01*
X100422242Y-130330024D01*
X100261823Y-130378687D01*
X100136804Y-130391000D01*
X99253196Y-130391000D01*
X99128177Y-130378687D01*
X98967758Y-130330024D01*
X98819924Y-130251005D01*
X98819922Y-130251004D01*
X98690341Y-130144659D01*
X98583996Y-130015078D01*
X98575886Y-129999906D01*
X98504976Y-129867242D01*
X98456313Y-129706823D01*
X98439883Y-129540000D01*
X98456313Y-129373177D01*
X98504976Y-129212758D01*
X98583995Y-129064924D01*
X98583996Y-129064922D01*
X98690341Y-128935341D01*
X98819922Y-128828996D01*
X98835094Y-128820886D01*
X98967758Y-128749976D01*
X99128177Y-128701313D01*
X99253196Y-128689000D01*
X100136804Y-128689000D01*
X100261823Y-128701313D01*
X100261823Y-128701313D01*
G37*
G36*
X125661823Y-128701313D02*
G01*
X125822242Y-128749976D01*
X125954906Y-128820886D01*
X125970078Y-128828996D01*
X126099659Y-128935341D01*
X126206004Y-129064922D01*
X126206005Y-129064924D01*
X126285024Y-129212758D01*
X126333687Y-129373177D01*
X126350117Y-129540000D01*
X126333687Y-129706823D01*
X126285024Y-129867242D01*
X126214114Y-129999906D01*
X126206004Y-130015078D01*
X126099659Y-130144659D01*
X125970078Y-130251004D01*
X125970076Y-130251005D01*
X125822242Y-130330024D01*
X125661823Y-130378687D01*
X125536804Y-130391000D01*
X124653196Y-130391000D01*
X124528177Y-130378687D01*
X124367758Y-130330024D01*
X124219924Y-130251005D01*
X124219922Y-130251004D01*
X124090341Y-130144659D01*
X123983996Y-130015078D01*
X123975886Y-129999906D01*
X123904976Y-129867242D01*
X123856313Y-129706823D01*
X123839883Y-129540000D01*
X123856313Y-129373177D01*
X123904976Y-129212758D01*
X123983995Y-129064924D01*
X123983996Y-129064922D01*
X124090341Y-128935341D01*
X124219922Y-128828996D01*
X124235094Y-128820886D01*
X124367758Y-128749976D01*
X124528177Y-128701313D01*
X124653196Y-128689000D01*
X125536804Y-128689000D01*
X125661823Y-128701313D01*
X125661823Y-128701313D01*
G37*
G36*
X125661823Y-126161313D02*
G01*
X125822242Y-126209976D01*
X125954906Y-126280886D01*
X125970078Y-126288996D01*
X126099659Y-126395341D01*
X126206004Y-126524922D01*
X126206005Y-126524924D01*
X126285024Y-126672758D01*
X126333687Y-126833177D01*
X126350117Y-127000000D01*
X126333687Y-127166823D01*
X126285024Y-127327242D01*
X126214114Y-127459906D01*
X126206004Y-127475078D01*
X126099659Y-127604659D01*
X125970078Y-127711004D01*
X125970076Y-127711005D01*
X125822242Y-127790024D01*
X125661823Y-127838687D01*
X125536804Y-127851000D01*
X124653196Y-127851000D01*
X124528177Y-127838687D01*
X124367758Y-127790024D01*
X124219924Y-127711005D01*
X124219922Y-127711004D01*
X124090341Y-127604659D01*
X123983996Y-127475078D01*
X123975886Y-127459906D01*
X123904976Y-127327242D01*
X123856313Y-127166823D01*
X123839883Y-127000000D01*
X123856313Y-126833177D01*
X123904976Y-126672758D01*
X123983995Y-126524924D01*
X123983996Y-126524922D01*
X124090341Y-126395341D01*
X124219922Y-126288996D01*
X124235094Y-126280886D01*
X124367758Y-126209976D01*
X124528177Y-126161313D01*
X124653196Y-126149000D01*
X125536804Y-126149000D01*
X125661823Y-126161313D01*
X125661823Y-126161313D01*
G37*
G36*
X100261823Y-126161313D02*
G01*
X100422242Y-126209976D01*
X100554906Y-126280886D01*
X100570078Y-126288996D01*
X100699659Y-126395341D01*
X100806004Y-126524922D01*
X100806005Y-126524924D01*
X100885024Y-126672758D01*
X100933687Y-126833177D01*
X100950117Y-127000000D01*
X100933687Y-127166823D01*
X100885024Y-127327242D01*
X100814114Y-127459906D01*
X100806004Y-127475078D01*
X100699659Y-127604659D01*
X100570078Y-127711004D01*
X100570076Y-127711005D01*
X100422242Y-127790024D01*
X100261823Y-127838687D01*
X100136804Y-127851000D01*
X99253196Y-127851000D01*
X99128177Y-127838687D01*
X98967758Y-127790024D01*
X98819924Y-127711005D01*
X98819922Y-127711004D01*
X98690341Y-127604659D01*
X98583996Y-127475078D01*
X98575886Y-127459906D01*
X98504976Y-127327242D01*
X98456313Y-127166823D01*
X98439883Y-127000000D01*
X98456313Y-126833177D01*
X98504976Y-126672758D01*
X98583995Y-126524924D01*
X98583996Y-126524922D01*
X98690341Y-126395341D01*
X98819922Y-126288996D01*
X98835094Y-126280886D01*
X98967758Y-126209976D01*
X99128177Y-126161313D01*
X99253196Y-126149000D01*
X100136804Y-126149000D01*
X100261823Y-126161313D01*
X100261823Y-126161313D01*
G37*
G36*
X125661823Y-123621313D02*
G01*
X125822242Y-123669976D01*
X125954906Y-123740886D01*
X125970078Y-123748996D01*
X126099659Y-123855341D01*
X126206004Y-123984922D01*
X126206005Y-123984924D01*
X126285024Y-124132758D01*
X126333687Y-124293177D01*
X126350117Y-124460000D01*
X126333687Y-124626823D01*
X126285024Y-124787242D01*
X126214114Y-124919906D01*
X126206004Y-124935078D01*
X126099659Y-125064659D01*
X125970078Y-125171004D01*
X125970076Y-125171005D01*
X125822242Y-125250024D01*
X125661823Y-125298687D01*
X125536804Y-125311000D01*
X124653196Y-125311000D01*
X124528177Y-125298687D01*
X124367758Y-125250024D01*
X124219924Y-125171005D01*
X124219922Y-125171004D01*
X124090341Y-125064659D01*
X123983996Y-124935078D01*
X123975886Y-124919906D01*
X123904976Y-124787242D01*
X123856313Y-124626823D01*
X123839883Y-124460000D01*
X123856313Y-124293177D01*
X123904976Y-124132758D01*
X123983995Y-123984924D01*
X123983996Y-123984922D01*
X124090341Y-123855341D01*
X124219922Y-123748996D01*
X124235094Y-123740886D01*
X124367758Y-123669976D01*
X124528177Y-123621313D01*
X124653196Y-123609000D01*
X125536804Y-123609000D01*
X125661823Y-123621313D01*
X125661823Y-123621313D01*
G37*
G36*
X100261823Y-123621313D02*
G01*
X100422242Y-123669976D01*
X100554906Y-123740886D01*
X100570078Y-123748996D01*
X100699659Y-123855341D01*
X100806004Y-123984922D01*
X100806005Y-123984924D01*
X100885024Y-124132758D01*
X100933687Y-124293177D01*
X100950117Y-124460000D01*
X100933687Y-124626823D01*
X100885024Y-124787242D01*
X100814114Y-124919906D01*
X100806004Y-124935078D01*
X100699659Y-125064659D01*
X100570078Y-125171004D01*
X100570076Y-125171005D01*
X100422242Y-125250024D01*
X100261823Y-125298687D01*
X100136804Y-125311000D01*
X99253196Y-125311000D01*
X99128177Y-125298687D01*
X98967758Y-125250024D01*
X98819924Y-125171005D01*
X98819922Y-125171004D01*
X98690341Y-125064659D01*
X98583996Y-124935078D01*
X98575886Y-124919906D01*
X98504976Y-124787242D01*
X98456313Y-124626823D01*
X98439883Y-124460000D01*
X98456313Y-124293177D01*
X98504976Y-124132758D01*
X98583995Y-123984924D01*
X98583996Y-123984922D01*
X98690341Y-123855341D01*
X98819922Y-123748996D01*
X98835094Y-123740886D01*
X98967758Y-123669976D01*
X99128177Y-123621313D01*
X99253196Y-123609000D01*
X100136804Y-123609000D01*
X100261823Y-123621313D01*
X100261823Y-123621313D01*
G37*
G36*
X100261823Y-121081313D02*
G01*
X100422242Y-121129976D01*
X100554906Y-121200886D01*
X100570078Y-121208996D01*
X100699659Y-121315341D01*
X100806004Y-121444922D01*
X100806005Y-121444924D01*
X100885024Y-121592758D01*
X100933687Y-121753177D01*
X100950117Y-121920000D01*
X100933687Y-122086823D01*
X100885024Y-122247242D01*
X100814114Y-122379906D01*
X100806004Y-122395078D01*
X100699659Y-122524659D01*
X100570078Y-122631004D01*
X100570076Y-122631005D01*
X100422242Y-122710024D01*
X100261823Y-122758687D01*
X100136804Y-122771000D01*
X99253196Y-122771000D01*
X99128177Y-122758687D01*
X98967758Y-122710024D01*
X98819924Y-122631005D01*
X98819922Y-122631004D01*
X98690341Y-122524659D01*
X98583996Y-122395078D01*
X98575886Y-122379906D01*
X98504976Y-122247242D01*
X98456313Y-122086823D01*
X98439883Y-121920000D01*
X98456313Y-121753177D01*
X98504976Y-121592758D01*
X98583995Y-121444924D01*
X98583996Y-121444922D01*
X98690341Y-121315341D01*
X98819922Y-121208996D01*
X98835094Y-121200886D01*
X98967758Y-121129976D01*
X99128177Y-121081313D01*
X99253196Y-121069000D01*
X100136804Y-121069000D01*
X100261823Y-121081313D01*
X100261823Y-121081313D01*
G37*
G36*
X125661823Y-121081313D02*
G01*
X125822242Y-121129976D01*
X125954906Y-121200886D01*
X125970078Y-121208996D01*
X126099659Y-121315341D01*
X126206004Y-121444922D01*
X126206005Y-121444924D01*
X126285024Y-121592758D01*
X126333687Y-121753177D01*
X126350117Y-121920000D01*
X126333687Y-122086823D01*
X126285024Y-122247242D01*
X126214114Y-122379906D01*
X126206004Y-122395078D01*
X126099659Y-122524659D01*
X125970078Y-122631004D01*
X125970076Y-122631005D01*
X125822242Y-122710024D01*
X125661823Y-122758687D01*
X125536804Y-122771000D01*
X124653196Y-122771000D01*
X124528177Y-122758687D01*
X124367758Y-122710024D01*
X124219924Y-122631005D01*
X124219922Y-122631004D01*
X124090341Y-122524659D01*
X123983996Y-122395078D01*
X123975886Y-122379906D01*
X123904976Y-122247242D01*
X123856313Y-122086823D01*
X123839883Y-121920000D01*
X123856313Y-121753177D01*
X123904976Y-121592758D01*
X123983995Y-121444924D01*
X123983996Y-121444922D01*
X124090341Y-121315341D01*
X124219922Y-121208996D01*
X124235094Y-121200886D01*
X124367758Y-121129976D01*
X124528177Y-121081313D01*
X124653196Y-121069000D01*
X125536804Y-121069000D01*
X125661823Y-121081313D01*
X125661823Y-121081313D01*
G37*
G36*
X100261823Y-118541313D02*
G01*
X100422242Y-118589976D01*
X100554906Y-118660886D01*
X100570078Y-118668996D01*
X100699659Y-118775341D01*
X100806004Y-118904922D01*
X100806005Y-118904924D01*
X100885024Y-119052758D01*
X100933687Y-119213177D01*
X100950117Y-119380000D01*
X100933687Y-119546823D01*
X100885024Y-119707242D01*
X100814114Y-119839906D01*
X100806004Y-119855078D01*
X100699659Y-119984659D01*
X100570078Y-120091004D01*
X100570076Y-120091005D01*
X100422242Y-120170024D01*
X100261823Y-120218687D01*
X100136804Y-120231000D01*
X99253196Y-120231000D01*
X99128177Y-120218687D01*
X98967758Y-120170024D01*
X98819924Y-120091005D01*
X98819922Y-120091004D01*
X98690341Y-119984659D01*
X98583996Y-119855078D01*
X98575886Y-119839906D01*
X98504976Y-119707242D01*
X98456313Y-119546823D01*
X98439883Y-119380000D01*
X98456313Y-119213177D01*
X98504976Y-119052758D01*
X98583995Y-118904924D01*
X98583996Y-118904922D01*
X98690341Y-118775341D01*
X98819922Y-118668996D01*
X98835094Y-118660886D01*
X98967758Y-118589976D01*
X99128177Y-118541313D01*
X99253196Y-118529000D01*
X100136804Y-118529000D01*
X100261823Y-118541313D01*
X100261823Y-118541313D01*
G37*
G36*
X125661823Y-118541313D02*
G01*
X125822242Y-118589976D01*
X125954906Y-118660886D01*
X125970078Y-118668996D01*
X126099659Y-118775341D01*
X126206004Y-118904922D01*
X126206005Y-118904924D01*
X126285024Y-119052758D01*
X126333687Y-119213177D01*
X126350117Y-119380000D01*
X126333687Y-119546823D01*
X126285024Y-119707242D01*
X126214114Y-119839906D01*
X126206004Y-119855078D01*
X126099659Y-119984659D01*
X125970078Y-120091004D01*
X125970076Y-120091005D01*
X125822242Y-120170024D01*
X125661823Y-120218687D01*
X125536804Y-120231000D01*
X124653196Y-120231000D01*
X124528177Y-120218687D01*
X124367758Y-120170024D01*
X124219924Y-120091005D01*
X124219922Y-120091004D01*
X124090341Y-119984659D01*
X123983996Y-119855078D01*
X123975886Y-119839906D01*
X123904976Y-119707242D01*
X123856313Y-119546823D01*
X123839883Y-119380000D01*
X123856313Y-119213177D01*
X123904976Y-119052758D01*
X123983995Y-118904924D01*
X123983996Y-118904922D01*
X124090341Y-118775341D01*
X124219922Y-118668996D01*
X124235094Y-118660886D01*
X124367758Y-118589976D01*
X124528177Y-118541313D01*
X124653196Y-118529000D01*
X125536804Y-118529000D01*
X125661823Y-118541313D01*
X125661823Y-118541313D01*
G37*
G36*
X100261823Y-116001313D02*
G01*
X100422242Y-116049976D01*
X100554906Y-116120886D01*
X100570078Y-116128996D01*
X100699659Y-116235341D01*
X100806004Y-116364922D01*
X100806005Y-116364924D01*
X100885024Y-116512758D01*
X100933687Y-116673177D01*
X100950117Y-116840000D01*
X100933687Y-117006823D01*
X100885024Y-117167242D01*
X100814114Y-117299906D01*
X100806004Y-117315078D01*
X100699659Y-117444659D01*
X100570078Y-117551004D01*
X100570076Y-117551005D01*
X100422242Y-117630024D01*
X100261823Y-117678687D01*
X100136804Y-117691000D01*
X99253196Y-117691000D01*
X99128177Y-117678687D01*
X98967758Y-117630024D01*
X98819924Y-117551005D01*
X98819922Y-117551004D01*
X98690341Y-117444659D01*
X98583996Y-117315078D01*
X98575886Y-117299906D01*
X98504976Y-117167242D01*
X98456313Y-117006823D01*
X98439883Y-116840000D01*
X98456313Y-116673177D01*
X98504976Y-116512758D01*
X98583995Y-116364924D01*
X98583996Y-116364922D01*
X98690341Y-116235341D01*
X98819922Y-116128996D01*
X98835094Y-116120886D01*
X98967758Y-116049976D01*
X99128177Y-116001313D01*
X99253196Y-115989000D01*
X100136804Y-115989000D01*
X100261823Y-116001313D01*
X100261823Y-116001313D01*
G37*
G36*
X125661823Y-116001313D02*
G01*
X125822242Y-116049976D01*
X125954906Y-116120886D01*
X125970078Y-116128996D01*
X126099659Y-116235341D01*
X126206004Y-116364922D01*
X126206005Y-116364924D01*
X126285024Y-116512758D01*
X126333687Y-116673177D01*
X126350117Y-116840000D01*
X126333687Y-117006823D01*
X126285024Y-117167242D01*
X126214114Y-117299906D01*
X126206004Y-117315078D01*
X126099659Y-117444659D01*
X125970078Y-117551004D01*
X125970076Y-117551005D01*
X125822242Y-117630024D01*
X125661823Y-117678687D01*
X125536804Y-117691000D01*
X124653196Y-117691000D01*
X124528177Y-117678687D01*
X124367758Y-117630024D01*
X124219924Y-117551005D01*
X124219922Y-117551004D01*
X124090341Y-117444659D01*
X123983996Y-117315078D01*
X123975886Y-117299906D01*
X123904976Y-117167242D01*
X123856313Y-117006823D01*
X123839883Y-116840000D01*
X123856313Y-116673177D01*
X123904976Y-116512758D01*
X123983995Y-116364924D01*
X123983996Y-116364922D01*
X124090341Y-116235341D01*
X124219922Y-116128996D01*
X124235094Y-116120886D01*
X124367758Y-116049976D01*
X124528177Y-116001313D01*
X124653196Y-115989000D01*
X125536804Y-115989000D01*
X125661823Y-116001313D01*
X125661823Y-116001313D01*
G37*
G36*
X100261823Y-113461313D02*
G01*
X100422242Y-113509976D01*
X100554906Y-113580886D01*
X100570078Y-113588996D01*
X100699659Y-113695341D01*
X100806004Y-113824922D01*
X100806005Y-113824924D01*
X100885024Y-113972758D01*
X100933687Y-114133177D01*
X100950117Y-114300000D01*
X100933687Y-114466823D01*
X100885024Y-114627242D01*
X100814114Y-114759906D01*
X100806004Y-114775078D01*
X100699659Y-114904659D01*
X100570078Y-115011004D01*
X100570076Y-115011005D01*
X100422242Y-115090024D01*
X100261823Y-115138687D01*
X100136804Y-115151000D01*
X99253196Y-115151000D01*
X99128177Y-115138687D01*
X98967758Y-115090024D01*
X98819924Y-115011005D01*
X98819922Y-115011004D01*
X98690341Y-114904659D01*
X98583996Y-114775078D01*
X98575886Y-114759906D01*
X98504976Y-114627242D01*
X98456313Y-114466823D01*
X98439883Y-114300000D01*
X98456313Y-114133177D01*
X98504976Y-113972758D01*
X98583995Y-113824924D01*
X98583996Y-113824922D01*
X98690341Y-113695341D01*
X98819922Y-113588996D01*
X98835094Y-113580886D01*
X98967758Y-113509976D01*
X99128177Y-113461313D01*
X99253196Y-113449000D01*
X100136804Y-113449000D01*
X100261823Y-113461313D01*
X100261823Y-113461313D01*
G37*
G36*
X125661823Y-113461313D02*
G01*
X125822242Y-113509976D01*
X125954906Y-113580886D01*
X125970078Y-113588996D01*
X126099659Y-113695341D01*
X126206004Y-113824922D01*
X126206005Y-113824924D01*
X126285024Y-113972758D01*
X126333687Y-114133177D01*
X126350117Y-114300000D01*
X126333687Y-114466823D01*
X126285024Y-114627242D01*
X126214114Y-114759906D01*
X126206004Y-114775078D01*
X126099659Y-114904659D01*
X125970078Y-115011004D01*
X125970076Y-115011005D01*
X125822242Y-115090024D01*
X125661823Y-115138687D01*
X125536804Y-115151000D01*
X124653196Y-115151000D01*
X124528177Y-115138687D01*
X124367758Y-115090024D01*
X124219924Y-115011005D01*
X124219922Y-115011004D01*
X124090341Y-114904659D01*
X123983996Y-114775078D01*
X123975886Y-114759906D01*
X123904976Y-114627242D01*
X123856313Y-114466823D01*
X123839883Y-114300000D01*
X123856313Y-114133177D01*
X123904976Y-113972758D01*
X123983995Y-113824924D01*
X123983996Y-113824922D01*
X124090341Y-113695341D01*
X124219922Y-113588996D01*
X124235094Y-113580886D01*
X124367758Y-113509976D01*
X124528177Y-113461313D01*
X124653196Y-113449000D01*
X125536804Y-113449000D01*
X125661823Y-113461313D01*
X125661823Y-113461313D01*
G37*
G36*
X100261823Y-110921313D02*
G01*
X100422242Y-110969976D01*
X100554906Y-111040886D01*
X100570078Y-111048996D01*
X100699659Y-111155341D01*
X100806004Y-111284922D01*
X100806005Y-111284924D01*
X100885024Y-111432758D01*
X100933687Y-111593177D01*
X100950117Y-111760000D01*
X100933687Y-111926823D01*
X100885024Y-112087242D01*
X100814114Y-112219906D01*
X100806004Y-112235078D01*
X100699659Y-112364659D01*
X100570078Y-112471004D01*
X100570076Y-112471005D01*
X100422242Y-112550024D01*
X100261823Y-112598687D01*
X100136804Y-112611000D01*
X99253196Y-112611000D01*
X99128177Y-112598687D01*
X98967758Y-112550024D01*
X98819924Y-112471005D01*
X98819922Y-112471004D01*
X98690341Y-112364659D01*
X98583996Y-112235078D01*
X98575886Y-112219906D01*
X98504976Y-112087242D01*
X98456313Y-111926823D01*
X98439883Y-111760000D01*
X98456313Y-111593177D01*
X98504976Y-111432758D01*
X98583995Y-111284924D01*
X98583996Y-111284922D01*
X98690341Y-111155341D01*
X98819922Y-111048996D01*
X98835094Y-111040886D01*
X98967758Y-110969976D01*
X99128177Y-110921313D01*
X99253196Y-110909000D01*
X100136804Y-110909000D01*
X100261823Y-110921313D01*
X100261823Y-110921313D01*
G37*
G36*
X125661823Y-110921313D02*
G01*
X125822242Y-110969976D01*
X125954906Y-111040886D01*
X125970078Y-111048996D01*
X126099659Y-111155341D01*
X126206004Y-111284922D01*
X126206005Y-111284924D01*
X126285024Y-111432758D01*
X126333687Y-111593177D01*
X126350117Y-111760000D01*
X126333687Y-111926823D01*
X126285024Y-112087242D01*
X126214114Y-112219906D01*
X126206004Y-112235078D01*
X126099659Y-112364659D01*
X125970078Y-112471004D01*
X125970076Y-112471005D01*
X125822242Y-112550024D01*
X125661823Y-112598687D01*
X125536804Y-112611000D01*
X124653196Y-112611000D01*
X124528177Y-112598687D01*
X124367758Y-112550024D01*
X124219924Y-112471005D01*
X124219922Y-112471004D01*
X124090341Y-112364659D01*
X123983996Y-112235078D01*
X123975886Y-112219906D01*
X123904976Y-112087242D01*
X123856313Y-111926823D01*
X123839883Y-111760000D01*
X123856313Y-111593177D01*
X123904976Y-111432758D01*
X123983995Y-111284924D01*
X123983996Y-111284922D01*
X124090341Y-111155341D01*
X124219922Y-111048996D01*
X124235094Y-111040886D01*
X124367758Y-110969976D01*
X124528177Y-110921313D01*
X124653196Y-110909000D01*
X125536804Y-110909000D01*
X125661823Y-110921313D01*
X125661823Y-110921313D01*
G37*
G36*
X100261823Y-108381313D02*
G01*
X100422242Y-108429976D01*
X100554906Y-108500886D01*
X100570078Y-108508996D01*
X100699659Y-108615341D01*
X100806004Y-108744922D01*
X100806005Y-108744924D01*
X100885024Y-108892758D01*
X100933687Y-109053177D01*
X100950117Y-109220000D01*
X100933687Y-109386823D01*
X100885024Y-109547242D01*
X100814114Y-109679906D01*
X100806004Y-109695078D01*
X100699659Y-109824659D01*
X100570078Y-109931004D01*
X100570076Y-109931005D01*
X100422242Y-110010024D01*
X100261823Y-110058687D01*
X100136804Y-110071000D01*
X99253196Y-110071000D01*
X99128177Y-110058687D01*
X98967758Y-110010024D01*
X98819924Y-109931005D01*
X98819922Y-109931004D01*
X98690341Y-109824659D01*
X98583996Y-109695078D01*
X98575886Y-109679906D01*
X98504976Y-109547242D01*
X98456313Y-109386823D01*
X98439883Y-109220000D01*
X98456313Y-109053177D01*
X98504976Y-108892758D01*
X98583995Y-108744924D01*
X98583996Y-108744922D01*
X98690341Y-108615341D01*
X98819922Y-108508996D01*
X98835094Y-108500886D01*
X98967758Y-108429976D01*
X99128177Y-108381313D01*
X99253196Y-108369000D01*
X100136804Y-108369000D01*
X100261823Y-108381313D01*
X100261823Y-108381313D01*
G37*
G36*
X125661823Y-108381313D02*
G01*
X125822242Y-108429976D01*
X125954906Y-108500886D01*
X125970078Y-108508996D01*
X126099659Y-108615341D01*
X126206004Y-108744922D01*
X126206005Y-108744924D01*
X126285024Y-108892758D01*
X126333687Y-109053177D01*
X126350117Y-109220000D01*
X126333687Y-109386823D01*
X126285024Y-109547242D01*
X126214114Y-109679906D01*
X126206004Y-109695078D01*
X126099659Y-109824659D01*
X125970078Y-109931004D01*
X125970076Y-109931005D01*
X125822242Y-110010024D01*
X125661823Y-110058687D01*
X125536804Y-110071000D01*
X124653196Y-110071000D01*
X124528177Y-110058687D01*
X124367758Y-110010024D01*
X124219924Y-109931005D01*
X124219922Y-109931004D01*
X124090341Y-109824659D01*
X123983996Y-109695078D01*
X123975886Y-109679906D01*
X123904976Y-109547242D01*
X123856313Y-109386823D01*
X123839883Y-109220000D01*
X123856313Y-109053177D01*
X123904976Y-108892758D01*
X123983995Y-108744924D01*
X123983996Y-108744922D01*
X124090341Y-108615341D01*
X124219922Y-108508996D01*
X124235094Y-108500886D01*
X124367758Y-108429976D01*
X124528177Y-108381313D01*
X124653196Y-108369000D01*
X125536804Y-108369000D01*
X125661823Y-108381313D01*
X125661823Y-108381313D01*
G37*
G36*
X125661823Y-105841313D02*
G01*
X125822242Y-105889976D01*
X125954906Y-105960886D01*
X125970078Y-105968996D01*
X126099659Y-106075341D01*
X126206004Y-106204922D01*
X126206005Y-106204924D01*
X126285024Y-106352758D01*
X126333687Y-106513177D01*
X126350117Y-106680000D01*
X126333687Y-106846823D01*
X126285024Y-107007242D01*
X126214114Y-107139906D01*
X126206004Y-107155078D01*
X126099659Y-107284659D01*
X125970078Y-107391004D01*
X125970076Y-107391005D01*
X125822242Y-107470024D01*
X125661823Y-107518687D01*
X125536804Y-107531000D01*
X124653196Y-107531000D01*
X124528177Y-107518687D01*
X124367758Y-107470024D01*
X124219924Y-107391005D01*
X124219922Y-107391004D01*
X124090341Y-107284659D01*
X123983996Y-107155078D01*
X123975886Y-107139906D01*
X123904976Y-107007242D01*
X123856313Y-106846823D01*
X123839883Y-106680000D01*
X123856313Y-106513177D01*
X123904976Y-106352758D01*
X123983995Y-106204924D01*
X123983996Y-106204922D01*
X124090341Y-106075341D01*
X124219922Y-105968996D01*
X124235094Y-105960886D01*
X124367758Y-105889976D01*
X124528177Y-105841313D01*
X124653196Y-105829000D01*
X125536804Y-105829000D01*
X125661823Y-105841313D01*
X125661823Y-105841313D01*
G37*
G36*
X100261823Y-105841313D02*
G01*
X100422242Y-105889976D01*
X100554906Y-105960886D01*
X100570078Y-105968996D01*
X100699659Y-106075341D01*
X100806004Y-106204922D01*
X100806005Y-106204924D01*
X100885024Y-106352758D01*
X100933687Y-106513177D01*
X100950117Y-106680000D01*
X100933687Y-106846823D01*
X100885024Y-107007242D01*
X100814114Y-107139906D01*
X100806004Y-107155078D01*
X100699659Y-107284659D01*
X100570078Y-107391004D01*
X100570076Y-107391005D01*
X100422242Y-107470024D01*
X100261823Y-107518687D01*
X100136804Y-107531000D01*
X99253196Y-107531000D01*
X99128177Y-107518687D01*
X98967758Y-107470024D01*
X98819924Y-107391005D01*
X98819922Y-107391004D01*
X98690341Y-107284659D01*
X98583996Y-107155078D01*
X98575886Y-107139906D01*
X98504976Y-107007242D01*
X98456313Y-106846823D01*
X98439883Y-106680000D01*
X98456313Y-106513177D01*
X98504976Y-106352758D01*
X98583995Y-106204924D01*
X98583996Y-106204922D01*
X98690341Y-106075341D01*
X98819922Y-105968996D01*
X98835094Y-105960886D01*
X98967758Y-105889976D01*
X99128177Y-105841313D01*
X99253196Y-105829000D01*
X100136804Y-105829000D01*
X100261823Y-105841313D01*
X100261823Y-105841313D01*
G37*
G36*
X100261823Y-103301313D02*
G01*
X100422242Y-103349976D01*
X100554906Y-103420886D01*
X100570078Y-103428996D01*
X100699659Y-103535341D01*
X100806004Y-103664922D01*
X100806005Y-103664924D01*
X100885024Y-103812758D01*
X100933687Y-103973177D01*
X100950117Y-104140000D01*
X100933687Y-104306823D01*
X100885024Y-104467242D01*
X100814114Y-104599906D01*
X100806004Y-104615078D01*
X100699659Y-104744659D01*
X100570078Y-104851004D01*
X100570076Y-104851005D01*
X100422242Y-104930024D01*
X100261823Y-104978687D01*
X100136804Y-104991000D01*
X99253196Y-104991000D01*
X99128177Y-104978687D01*
X98967758Y-104930024D01*
X98819924Y-104851005D01*
X98819922Y-104851004D01*
X98690341Y-104744659D01*
X98583996Y-104615078D01*
X98575886Y-104599906D01*
X98504976Y-104467242D01*
X98456313Y-104306823D01*
X98439883Y-104140000D01*
X98456313Y-103973177D01*
X98504976Y-103812758D01*
X98583995Y-103664924D01*
X98583996Y-103664922D01*
X98690341Y-103535341D01*
X98819922Y-103428996D01*
X98835094Y-103420886D01*
X98967758Y-103349976D01*
X99128177Y-103301313D01*
X99253196Y-103289000D01*
X100136804Y-103289000D01*
X100261823Y-103301313D01*
X100261823Y-103301313D01*
G37*
G36*
X125661823Y-103301313D02*
G01*
X125822242Y-103349976D01*
X125954906Y-103420886D01*
X125970078Y-103428996D01*
X126099659Y-103535341D01*
X126206004Y-103664922D01*
X126206005Y-103664924D01*
X126285024Y-103812758D01*
X126333687Y-103973177D01*
X126350117Y-104140000D01*
X126333687Y-104306823D01*
X126285024Y-104467242D01*
X126214114Y-104599906D01*
X126206004Y-104615078D01*
X126099659Y-104744659D01*
X125970078Y-104851004D01*
X125970076Y-104851005D01*
X125822242Y-104930024D01*
X125661823Y-104978687D01*
X125536804Y-104991000D01*
X124653196Y-104991000D01*
X124528177Y-104978687D01*
X124367758Y-104930024D01*
X124219924Y-104851005D01*
X124219922Y-104851004D01*
X124090341Y-104744659D01*
X123983996Y-104615078D01*
X123975886Y-104599906D01*
X123904976Y-104467242D01*
X123856313Y-104306823D01*
X123839883Y-104140000D01*
X123856313Y-103973177D01*
X123904976Y-103812758D01*
X123983995Y-103664924D01*
X123983996Y-103664922D01*
X124090341Y-103535341D01*
X124219922Y-103428996D01*
X124235094Y-103420886D01*
X124367758Y-103349976D01*
X124528177Y-103301313D01*
X124653196Y-103289000D01*
X125536804Y-103289000D01*
X125661823Y-103301313D01*
X125661823Y-103301313D01*
G37*
G36*
X100261823Y-100761313D02*
G01*
X100422242Y-100809976D01*
X100554906Y-100880886D01*
X100570078Y-100888996D01*
X100699659Y-100995341D01*
X100806004Y-101124922D01*
X100806005Y-101124924D01*
X100885024Y-101272758D01*
X100933687Y-101433177D01*
X100950117Y-101600000D01*
X100933687Y-101766823D01*
X100885024Y-101927242D01*
X100814114Y-102059906D01*
X100806004Y-102075078D01*
X100699659Y-102204659D01*
X100570078Y-102311004D01*
X100570076Y-102311005D01*
X100422242Y-102390024D01*
X100261823Y-102438687D01*
X100136804Y-102451000D01*
X99253196Y-102451000D01*
X99128177Y-102438687D01*
X98967758Y-102390024D01*
X98819924Y-102311005D01*
X98819922Y-102311004D01*
X98690341Y-102204659D01*
X98583996Y-102075078D01*
X98575886Y-102059906D01*
X98504976Y-101927242D01*
X98456313Y-101766823D01*
X98439883Y-101600000D01*
X98456313Y-101433177D01*
X98504976Y-101272758D01*
X98583995Y-101124924D01*
X98583996Y-101124922D01*
X98690341Y-100995341D01*
X98819922Y-100888996D01*
X98835094Y-100880886D01*
X98967758Y-100809976D01*
X99128177Y-100761313D01*
X99253196Y-100749000D01*
X100136804Y-100749000D01*
X100261823Y-100761313D01*
X100261823Y-100761313D01*
G37*
G36*
X125661823Y-100761313D02*
G01*
X125822242Y-100809976D01*
X125954906Y-100880886D01*
X125970078Y-100888996D01*
X126099659Y-100995341D01*
X126206004Y-101124922D01*
X126206005Y-101124924D01*
X126285024Y-101272758D01*
X126333687Y-101433177D01*
X126350117Y-101600000D01*
X126333687Y-101766823D01*
X126285024Y-101927242D01*
X126214114Y-102059906D01*
X126206004Y-102075078D01*
X126099659Y-102204659D01*
X125970078Y-102311004D01*
X125970076Y-102311005D01*
X125822242Y-102390024D01*
X125661823Y-102438687D01*
X125536804Y-102451000D01*
X124653196Y-102451000D01*
X124528177Y-102438687D01*
X124367758Y-102390024D01*
X124219924Y-102311005D01*
X124219922Y-102311004D01*
X124090341Y-102204659D01*
X123983996Y-102075078D01*
X123975886Y-102059906D01*
X123904976Y-101927242D01*
X123856313Y-101766823D01*
X123839883Y-101600000D01*
X123856313Y-101433177D01*
X123904976Y-101272758D01*
X123983995Y-101124924D01*
X123983996Y-101124922D01*
X124090341Y-100995341D01*
X124219922Y-100888996D01*
X124235094Y-100880886D01*
X124367758Y-100809976D01*
X124528177Y-100761313D01*
X124653196Y-100749000D01*
X125536804Y-100749000D01*
X125661823Y-100761313D01*
X125661823Y-100761313D01*
G37*
G36*
X100261823Y-98221313D02*
G01*
X100422242Y-98269976D01*
X100554906Y-98340886D01*
X100570078Y-98348996D01*
X100699659Y-98455341D01*
X100806004Y-98584922D01*
X100806005Y-98584924D01*
X100885024Y-98732758D01*
X100933687Y-98893177D01*
X100950117Y-99060000D01*
X100933687Y-99226823D01*
X100885024Y-99387242D01*
X100814114Y-99519906D01*
X100806004Y-99535078D01*
X100699659Y-99664659D01*
X100570078Y-99771004D01*
X100570076Y-99771005D01*
X100422242Y-99850024D01*
X100261823Y-99898687D01*
X100136804Y-99911000D01*
X99253196Y-99911000D01*
X99128177Y-99898687D01*
X98967758Y-99850024D01*
X98819924Y-99771005D01*
X98819922Y-99771004D01*
X98690341Y-99664659D01*
X98583996Y-99535078D01*
X98575886Y-99519906D01*
X98504976Y-99387242D01*
X98456313Y-99226823D01*
X98439883Y-99060000D01*
X98456313Y-98893177D01*
X98504976Y-98732758D01*
X98583995Y-98584924D01*
X98583996Y-98584922D01*
X98690341Y-98455341D01*
X98819922Y-98348996D01*
X98835094Y-98340886D01*
X98967758Y-98269976D01*
X99128177Y-98221313D01*
X99253196Y-98209000D01*
X100136804Y-98209000D01*
X100261823Y-98221313D01*
X100261823Y-98221313D01*
G37*
G36*
X125661823Y-98221313D02*
G01*
X125822242Y-98269976D01*
X125954906Y-98340886D01*
X125970078Y-98348996D01*
X126099659Y-98455341D01*
X126206004Y-98584922D01*
X126206005Y-98584924D01*
X126285024Y-98732758D01*
X126333687Y-98893177D01*
X126350117Y-99060000D01*
X126333687Y-99226823D01*
X126285024Y-99387242D01*
X126214114Y-99519906D01*
X126206004Y-99535078D01*
X126099659Y-99664659D01*
X125970078Y-99771004D01*
X125970076Y-99771005D01*
X125822242Y-99850024D01*
X125661823Y-99898687D01*
X125536804Y-99911000D01*
X124653196Y-99911000D01*
X124528177Y-99898687D01*
X124367758Y-99850024D01*
X124219924Y-99771005D01*
X124219922Y-99771004D01*
X124090341Y-99664659D01*
X123983996Y-99535078D01*
X123975886Y-99519906D01*
X123904976Y-99387242D01*
X123856313Y-99226823D01*
X123839883Y-99060000D01*
X123856313Y-98893177D01*
X123904976Y-98732758D01*
X123983995Y-98584924D01*
X123983996Y-98584922D01*
X124090341Y-98455341D01*
X124219922Y-98348996D01*
X124235094Y-98340886D01*
X124367758Y-98269976D01*
X124528177Y-98221313D01*
X124653196Y-98209000D01*
X125536804Y-98209000D01*
X125661823Y-98221313D01*
X125661823Y-98221313D01*
G37*
G36*
X100261823Y-95681313D02*
G01*
X100422242Y-95729976D01*
X100554906Y-95800886D01*
X100570078Y-95808996D01*
X100699659Y-95915341D01*
X100806004Y-96044922D01*
X100806005Y-96044924D01*
X100885024Y-96192758D01*
X100933687Y-96353177D01*
X100950117Y-96520000D01*
X100933687Y-96686823D01*
X100885024Y-96847242D01*
X100814114Y-96979906D01*
X100806004Y-96995078D01*
X100699659Y-97124659D01*
X100570078Y-97231004D01*
X100570076Y-97231005D01*
X100422242Y-97310024D01*
X100261823Y-97358687D01*
X100136804Y-97371000D01*
X99253196Y-97371000D01*
X99128177Y-97358687D01*
X98967758Y-97310024D01*
X98819924Y-97231005D01*
X98819922Y-97231004D01*
X98690341Y-97124659D01*
X98583996Y-96995078D01*
X98575886Y-96979906D01*
X98504976Y-96847242D01*
X98456313Y-96686823D01*
X98439883Y-96520000D01*
X98456313Y-96353177D01*
X98504976Y-96192758D01*
X98583995Y-96044924D01*
X98583996Y-96044922D01*
X98690341Y-95915341D01*
X98819922Y-95808996D01*
X98835094Y-95800886D01*
X98967758Y-95729976D01*
X99128177Y-95681313D01*
X99253196Y-95669000D01*
X100136804Y-95669000D01*
X100261823Y-95681313D01*
X100261823Y-95681313D01*
G37*
G36*
X125661823Y-95681313D02*
G01*
X125822242Y-95729976D01*
X125954906Y-95800886D01*
X125970078Y-95808996D01*
X126099659Y-95915341D01*
X126206004Y-96044922D01*
X126206005Y-96044924D01*
X126285024Y-96192758D01*
X126333687Y-96353177D01*
X126350117Y-96520000D01*
X126333687Y-96686823D01*
X126285024Y-96847242D01*
X126214114Y-96979906D01*
X126206004Y-96995078D01*
X126099659Y-97124659D01*
X125970078Y-97231004D01*
X125970076Y-97231005D01*
X125822242Y-97310024D01*
X125661823Y-97358687D01*
X125536804Y-97371000D01*
X124653196Y-97371000D01*
X124528177Y-97358687D01*
X124367758Y-97310024D01*
X124219924Y-97231005D01*
X124219922Y-97231004D01*
X124090341Y-97124659D01*
X123983996Y-96995078D01*
X123975886Y-96979906D01*
X123904976Y-96847242D01*
X123856313Y-96686823D01*
X123839883Y-96520000D01*
X123856313Y-96353177D01*
X123904976Y-96192758D01*
X123983995Y-96044924D01*
X123983996Y-96044922D01*
X124090341Y-95915341D01*
X124219922Y-95808996D01*
X124235094Y-95800886D01*
X124367758Y-95729976D01*
X124528177Y-95681313D01*
X124653196Y-95669000D01*
X125536804Y-95669000D01*
X125661823Y-95681313D01*
X125661823Y-95681313D01*
G37*
G36*
X100261823Y-93141313D02*
G01*
X100422242Y-93189976D01*
X100554906Y-93260886D01*
X100570078Y-93268996D01*
X100699659Y-93375341D01*
X100806004Y-93504922D01*
X100806005Y-93504924D01*
X100885024Y-93652758D01*
X100933687Y-93813177D01*
X100950117Y-93980000D01*
X100933687Y-94146823D01*
X100885024Y-94307242D01*
X100814114Y-94439906D01*
X100806004Y-94455078D01*
X100699659Y-94584659D01*
X100570078Y-94691004D01*
X100570076Y-94691005D01*
X100422242Y-94770024D01*
X100261823Y-94818687D01*
X100136804Y-94831000D01*
X99253196Y-94831000D01*
X99128177Y-94818687D01*
X98967758Y-94770024D01*
X98819924Y-94691005D01*
X98819922Y-94691004D01*
X98690341Y-94584659D01*
X98583996Y-94455078D01*
X98575886Y-94439906D01*
X98504976Y-94307242D01*
X98456313Y-94146823D01*
X98439883Y-93980000D01*
X98456313Y-93813177D01*
X98504976Y-93652758D01*
X98583995Y-93504924D01*
X98583996Y-93504922D01*
X98690341Y-93375341D01*
X98819922Y-93268996D01*
X98835094Y-93260886D01*
X98967758Y-93189976D01*
X99128177Y-93141313D01*
X99253196Y-93129000D01*
X100136804Y-93129000D01*
X100261823Y-93141313D01*
X100261823Y-93141313D01*
G37*
G36*
X125661823Y-93141313D02*
G01*
X125822242Y-93189976D01*
X125954906Y-93260886D01*
X125970078Y-93268996D01*
X126099659Y-93375341D01*
X126206004Y-93504922D01*
X126206005Y-93504924D01*
X126285024Y-93652758D01*
X126333687Y-93813177D01*
X126350117Y-93980000D01*
X126333687Y-94146823D01*
X126285024Y-94307242D01*
X126214114Y-94439906D01*
X126206004Y-94455078D01*
X126099659Y-94584659D01*
X125970078Y-94691004D01*
X125970076Y-94691005D01*
X125822242Y-94770024D01*
X125661823Y-94818687D01*
X125536804Y-94831000D01*
X124653196Y-94831000D01*
X124528177Y-94818687D01*
X124367758Y-94770024D01*
X124219924Y-94691005D01*
X124219922Y-94691004D01*
X124090341Y-94584659D01*
X123983996Y-94455078D01*
X123975886Y-94439906D01*
X123904976Y-94307242D01*
X123856313Y-94146823D01*
X123839883Y-93980000D01*
X123856313Y-93813177D01*
X123904976Y-93652758D01*
X123983995Y-93504924D01*
X123983996Y-93504922D01*
X124090341Y-93375341D01*
X124219922Y-93268996D01*
X124235094Y-93260886D01*
X124367758Y-93189976D01*
X124528177Y-93141313D01*
X124653196Y-93129000D01*
X125536804Y-93129000D01*
X125661823Y-93141313D01*
X125661823Y-93141313D01*
G37*
G36*
X125661823Y-90601313D02*
G01*
X125822242Y-90649976D01*
X125954906Y-90720886D01*
X125970078Y-90728996D01*
X126099659Y-90835341D01*
X126206004Y-90964922D01*
X126206005Y-90964924D01*
X126285024Y-91112758D01*
X126333687Y-91273177D01*
X126350117Y-91440000D01*
X126333687Y-91606823D01*
X126285024Y-91767242D01*
X126214114Y-91899906D01*
X126206004Y-91915078D01*
X126099659Y-92044659D01*
X125970078Y-92151004D01*
X125970076Y-92151005D01*
X125822242Y-92230024D01*
X125661823Y-92278687D01*
X125536804Y-92291000D01*
X124653196Y-92291000D01*
X124528177Y-92278687D01*
X124367758Y-92230024D01*
X124219924Y-92151005D01*
X124219922Y-92151004D01*
X124090341Y-92044659D01*
X123983996Y-91915078D01*
X123975886Y-91899906D01*
X123904976Y-91767242D01*
X123856313Y-91606823D01*
X123839883Y-91440000D01*
X123856313Y-91273177D01*
X123904976Y-91112758D01*
X123983995Y-90964924D01*
X123983996Y-90964922D01*
X124090341Y-90835341D01*
X124219922Y-90728996D01*
X124235094Y-90720886D01*
X124367758Y-90649976D01*
X124528177Y-90601313D01*
X124653196Y-90589000D01*
X125536804Y-90589000D01*
X125661823Y-90601313D01*
X125661823Y-90601313D01*
G37*
G36*
X100261823Y-90601313D02*
G01*
X100422242Y-90649976D01*
X100554906Y-90720886D01*
X100570078Y-90728996D01*
X100699659Y-90835341D01*
X100806004Y-90964922D01*
X100806005Y-90964924D01*
X100885024Y-91112758D01*
X100933687Y-91273177D01*
X100950117Y-91440000D01*
X100933687Y-91606823D01*
X100885024Y-91767242D01*
X100814114Y-91899906D01*
X100806004Y-91915078D01*
X100699659Y-92044659D01*
X100570078Y-92151004D01*
X100570076Y-92151005D01*
X100422242Y-92230024D01*
X100261823Y-92278687D01*
X100136804Y-92291000D01*
X99253196Y-92291000D01*
X99128177Y-92278687D01*
X98967758Y-92230024D01*
X98819924Y-92151005D01*
X98819922Y-92151004D01*
X98690341Y-92044659D01*
X98583996Y-91915078D01*
X98575886Y-91899906D01*
X98504976Y-91767242D01*
X98456313Y-91606823D01*
X98439883Y-91440000D01*
X98456313Y-91273177D01*
X98504976Y-91112758D01*
X98583995Y-90964924D01*
X98583996Y-90964922D01*
X98690341Y-90835341D01*
X98819922Y-90728996D01*
X98835094Y-90720886D01*
X98967758Y-90649976D01*
X99128177Y-90601313D01*
X99253196Y-90589000D01*
X100136804Y-90589000D01*
X100261823Y-90601313D01*
X100261823Y-90601313D01*
G37*
G36*
X125661823Y-88061313D02*
G01*
X125822242Y-88109976D01*
X125954906Y-88180886D01*
X125970078Y-88188996D01*
X126099659Y-88295341D01*
X126206004Y-88424922D01*
X126206005Y-88424924D01*
X126285024Y-88572758D01*
X126333687Y-88733177D01*
X126350117Y-88900000D01*
X126333687Y-89066823D01*
X126285024Y-89227242D01*
X126214114Y-89359906D01*
X126206004Y-89375078D01*
X126099659Y-89504659D01*
X125970078Y-89611004D01*
X125970076Y-89611005D01*
X125822242Y-89690024D01*
X125661823Y-89738687D01*
X125536804Y-89751000D01*
X124653196Y-89751000D01*
X124528177Y-89738687D01*
X124367758Y-89690024D01*
X124219924Y-89611005D01*
X124219922Y-89611004D01*
X124090341Y-89504659D01*
X123983996Y-89375078D01*
X123975886Y-89359906D01*
X123904976Y-89227242D01*
X123856313Y-89066823D01*
X123839883Y-88900000D01*
X123856313Y-88733177D01*
X123904976Y-88572758D01*
X123983995Y-88424924D01*
X123983996Y-88424922D01*
X124090341Y-88295341D01*
X124219922Y-88188996D01*
X124235094Y-88180886D01*
X124367758Y-88109976D01*
X124528177Y-88061313D01*
X124653196Y-88049000D01*
X125536804Y-88049000D01*
X125661823Y-88061313D01*
X125661823Y-88061313D01*
G37*
G36*
X100261823Y-88061313D02*
G01*
X100422242Y-88109976D01*
X100554906Y-88180886D01*
X100570078Y-88188996D01*
X100699659Y-88295341D01*
X100806004Y-88424922D01*
X100806005Y-88424924D01*
X100885024Y-88572758D01*
X100933687Y-88733177D01*
X100950117Y-88900000D01*
X100933687Y-89066823D01*
X100885024Y-89227242D01*
X100814114Y-89359906D01*
X100806004Y-89375078D01*
X100699659Y-89504659D01*
X100570078Y-89611004D01*
X100570076Y-89611005D01*
X100422242Y-89690024D01*
X100261823Y-89738687D01*
X100136804Y-89751000D01*
X99253196Y-89751000D01*
X99128177Y-89738687D01*
X98967758Y-89690024D01*
X98819924Y-89611005D01*
X98819922Y-89611004D01*
X98690341Y-89504659D01*
X98583996Y-89375078D01*
X98575886Y-89359906D01*
X98504976Y-89227242D01*
X98456313Y-89066823D01*
X98439883Y-88900000D01*
X98456313Y-88733177D01*
X98504976Y-88572758D01*
X98583995Y-88424924D01*
X98583996Y-88424922D01*
X98690341Y-88295341D01*
X98819922Y-88188996D01*
X98835094Y-88180886D01*
X98967758Y-88109976D01*
X99128177Y-88061313D01*
X99253196Y-88049000D01*
X100136804Y-88049000D01*
X100261823Y-88061313D01*
X100261823Y-88061313D01*
G37*
G36*
X100261823Y-85521313D02*
G01*
X100422242Y-85569976D01*
X100554906Y-85640886D01*
X100570078Y-85648996D01*
X100699659Y-85755341D01*
X100806004Y-85884922D01*
X100806005Y-85884924D01*
X100885024Y-86032758D01*
X100933687Y-86193177D01*
X100950117Y-86360000D01*
X100933687Y-86526823D01*
X100885024Y-86687242D01*
X100814114Y-86819906D01*
X100806004Y-86835078D01*
X100699659Y-86964659D01*
X100570078Y-87071004D01*
X100570076Y-87071005D01*
X100422242Y-87150024D01*
X100261823Y-87198687D01*
X100136804Y-87211000D01*
X99253196Y-87211000D01*
X99128177Y-87198687D01*
X98967758Y-87150024D01*
X98819924Y-87071005D01*
X98819922Y-87071004D01*
X98690341Y-86964659D01*
X98583996Y-86835078D01*
X98575886Y-86819906D01*
X98504976Y-86687242D01*
X98456313Y-86526823D01*
X98439883Y-86360000D01*
X98456313Y-86193177D01*
X98504976Y-86032758D01*
X98583995Y-85884924D01*
X98583996Y-85884922D01*
X98690341Y-85755341D01*
X98819922Y-85648996D01*
X98835094Y-85640886D01*
X98967758Y-85569976D01*
X99128177Y-85521313D01*
X99253196Y-85509000D01*
X100136804Y-85509000D01*
X100261823Y-85521313D01*
X100261823Y-85521313D01*
G37*
G36*
X125661823Y-85521313D02*
G01*
X125822242Y-85569976D01*
X125954906Y-85640886D01*
X125970078Y-85648996D01*
X126099659Y-85755341D01*
X126206004Y-85884922D01*
X126206005Y-85884924D01*
X126285024Y-86032758D01*
X126333687Y-86193177D01*
X126350117Y-86360000D01*
X126333687Y-86526823D01*
X126285024Y-86687242D01*
X126214114Y-86819906D01*
X126206004Y-86835078D01*
X126099659Y-86964659D01*
X125970078Y-87071004D01*
X125970076Y-87071005D01*
X125822242Y-87150024D01*
X125661823Y-87198687D01*
X125536804Y-87211000D01*
X124653196Y-87211000D01*
X124528177Y-87198687D01*
X124367758Y-87150024D01*
X124219924Y-87071005D01*
X124219922Y-87071004D01*
X124090341Y-86964659D01*
X123983996Y-86835078D01*
X123975886Y-86819906D01*
X123904976Y-86687242D01*
X123856313Y-86526823D01*
X123839883Y-86360000D01*
X123856313Y-86193177D01*
X123904976Y-86032758D01*
X123983995Y-85884924D01*
X123983996Y-85884922D01*
X124090341Y-85755341D01*
X124219922Y-85648996D01*
X124235094Y-85640886D01*
X124367758Y-85569976D01*
X124528177Y-85521313D01*
X124653196Y-85509000D01*
X125536804Y-85509000D01*
X125661823Y-85521313D01*
X125661823Y-85521313D01*
G37*
G36*
X125661823Y-82981313D02*
G01*
X125822242Y-83029976D01*
X125954906Y-83100886D01*
X125970078Y-83108996D01*
X126099659Y-83215341D01*
X126206004Y-83344922D01*
X126206005Y-83344924D01*
X126285024Y-83492758D01*
X126333687Y-83653177D01*
X126350117Y-83820000D01*
X126333687Y-83986823D01*
X126285024Y-84147242D01*
X126214114Y-84279906D01*
X126206004Y-84295078D01*
X126099659Y-84424659D01*
X125970078Y-84531004D01*
X125970076Y-84531005D01*
X125822242Y-84610024D01*
X125661823Y-84658687D01*
X125536804Y-84671000D01*
X124653196Y-84671000D01*
X124528177Y-84658687D01*
X124367758Y-84610024D01*
X124219924Y-84531005D01*
X124219922Y-84531004D01*
X124090341Y-84424659D01*
X123983996Y-84295078D01*
X123975886Y-84279906D01*
X123904976Y-84147242D01*
X123856313Y-83986823D01*
X123839883Y-83820000D01*
X123856313Y-83653177D01*
X123904976Y-83492758D01*
X123983995Y-83344924D01*
X123983996Y-83344922D01*
X124090341Y-83215341D01*
X124219922Y-83108996D01*
X124235094Y-83100886D01*
X124367758Y-83029976D01*
X124528177Y-82981313D01*
X124653196Y-82969000D01*
X125536804Y-82969000D01*
X125661823Y-82981313D01*
X125661823Y-82981313D01*
G37*
G36*
X100261823Y-82981313D02*
G01*
X100422242Y-83029976D01*
X100554906Y-83100886D01*
X100570078Y-83108996D01*
X100699659Y-83215341D01*
X100806004Y-83344922D01*
X100806005Y-83344924D01*
X100885024Y-83492758D01*
X100933687Y-83653177D01*
X100950117Y-83820000D01*
X100933687Y-83986823D01*
X100885024Y-84147242D01*
X100814114Y-84279906D01*
X100806004Y-84295078D01*
X100699659Y-84424659D01*
X100570078Y-84531004D01*
X100570076Y-84531005D01*
X100422242Y-84610024D01*
X100261823Y-84658687D01*
X100136804Y-84671000D01*
X99253196Y-84671000D01*
X99128177Y-84658687D01*
X98967758Y-84610024D01*
X98819924Y-84531005D01*
X98819922Y-84531004D01*
X98690341Y-84424659D01*
X98583996Y-84295078D01*
X98575886Y-84279906D01*
X98504976Y-84147242D01*
X98456313Y-83986823D01*
X98439883Y-83820000D01*
X98456313Y-83653177D01*
X98504976Y-83492758D01*
X98583995Y-83344924D01*
X98583996Y-83344922D01*
X98690341Y-83215341D01*
X98819922Y-83108996D01*
X98835094Y-83100886D01*
X98967758Y-83029976D01*
X99128177Y-82981313D01*
X99253196Y-82969000D01*
X100136804Y-82969000D01*
X100261823Y-82981313D01*
X100261823Y-82981313D01*
G37*
G36*
X125661823Y-80441313D02*
G01*
X125822242Y-80489976D01*
X125954906Y-80560886D01*
X125970078Y-80568996D01*
X126099659Y-80675341D01*
X126206004Y-80804922D01*
X126206005Y-80804924D01*
X126285024Y-80952758D01*
X126333687Y-81113177D01*
X126350117Y-81280000D01*
X126333687Y-81446823D01*
X126285024Y-81607242D01*
X126214114Y-81739906D01*
X126206004Y-81755078D01*
X126099659Y-81884659D01*
X125970078Y-81991004D01*
X125970076Y-81991005D01*
X125822242Y-82070024D01*
X125661823Y-82118687D01*
X125536804Y-82131000D01*
X124653196Y-82131000D01*
X124528177Y-82118687D01*
X124367758Y-82070024D01*
X124219924Y-81991005D01*
X124219922Y-81991004D01*
X124090341Y-81884659D01*
X123983996Y-81755078D01*
X123975886Y-81739906D01*
X123904976Y-81607242D01*
X123856313Y-81446823D01*
X123839883Y-81280000D01*
X123856313Y-81113177D01*
X123904976Y-80952758D01*
X123983995Y-80804924D01*
X123983996Y-80804922D01*
X124090341Y-80675341D01*
X124219922Y-80568996D01*
X124235094Y-80560886D01*
X124367758Y-80489976D01*
X124528177Y-80441313D01*
X124653196Y-80429000D01*
X125536804Y-80429000D01*
X125661823Y-80441313D01*
X125661823Y-80441313D01*
G37*
G36*
X100261823Y-80441313D02*
G01*
X100422242Y-80489976D01*
X100554906Y-80560886D01*
X100570078Y-80568996D01*
X100699659Y-80675341D01*
X100806004Y-80804922D01*
X100806005Y-80804924D01*
X100885024Y-80952758D01*
X100933687Y-81113177D01*
X100950117Y-81280000D01*
X100933687Y-81446823D01*
X100885024Y-81607242D01*
X100814114Y-81739906D01*
X100806004Y-81755078D01*
X100699659Y-81884659D01*
X100570078Y-81991004D01*
X100570076Y-81991005D01*
X100422242Y-82070024D01*
X100261823Y-82118687D01*
X100136804Y-82131000D01*
X99253196Y-82131000D01*
X99128177Y-82118687D01*
X98967758Y-82070024D01*
X98819924Y-81991005D01*
X98819922Y-81991004D01*
X98690341Y-81884659D01*
X98583996Y-81755078D01*
X98575886Y-81739906D01*
X98504976Y-81607242D01*
X98456313Y-81446823D01*
X98439883Y-81280000D01*
X98456313Y-81113177D01*
X98504976Y-80952758D01*
X98583995Y-80804924D01*
X98583996Y-80804922D01*
X98690341Y-80675341D01*
X98819922Y-80568996D01*
X98835094Y-80560886D01*
X98967758Y-80489976D01*
X99128177Y-80441313D01*
X99253196Y-80429000D01*
X100136804Y-80429000D01*
X100261823Y-80441313D01*
X100261823Y-80441313D01*
G37*
G36*
X125661823Y-77901313D02*
G01*
X125822242Y-77949976D01*
X125954906Y-78020886D01*
X125970078Y-78028996D01*
X126099659Y-78135341D01*
X126206004Y-78264922D01*
X126206005Y-78264924D01*
X126285024Y-78412758D01*
X126333687Y-78573177D01*
X126350117Y-78740000D01*
X126333687Y-78906823D01*
X126285024Y-79067242D01*
X126214114Y-79199906D01*
X126206004Y-79215078D01*
X126099659Y-79344659D01*
X125970078Y-79451004D01*
X125970076Y-79451005D01*
X125822242Y-79530024D01*
X125661823Y-79578687D01*
X125536804Y-79591000D01*
X124653196Y-79591000D01*
X124528177Y-79578687D01*
X124367758Y-79530024D01*
X124219924Y-79451005D01*
X124219922Y-79451004D01*
X124090341Y-79344659D01*
X123983996Y-79215078D01*
X123975886Y-79199906D01*
X123904976Y-79067242D01*
X123856313Y-78906823D01*
X123839883Y-78740000D01*
X123856313Y-78573177D01*
X123904976Y-78412758D01*
X123983995Y-78264924D01*
X123983996Y-78264922D01*
X124090341Y-78135341D01*
X124219922Y-78028996D01*
X124235094Y-78020886D01*
X124367758Y-77949976D01*
X124528177Y-77901313D01*
X124653196Y-77889000D01*
X125536804Y-77889000D01*
X125661823Y-77901313D01*
X125661823Y-77901313D01*
G37*
G36*
X100261823Y-77901313D02*
G01*
X100422242Y-77949976D01*
X100554906Y-78020886D01*
X100570078Y-78028996D01*
X100699659Y-78135341D01*
X100806004Y-78264922D01*
X100806005Y-78264924D01*
X100885024Y-78412758D01*
X100933687Y-78573177D01*
X100950117Y-78740000D01*
X100933687Y-78906823D01*
X100885024Y-79067242D01*
X100814114Y-79199906D01*
X100806004Y-79215078D01*
X100699659Y-79344659D01*
X100570078Y-79451004D01*
X100570076Y-79451005D01*
X100422242Y-79530024D01*
X100261823Y-79578687D01*
X100136804Y-79591000D01*
X99253196Y-79591000D01*
X99128177Y-79578687D01*
X98967758Y-79530024D01*
X98819924Y-79451005D01*
X98819922Y-79451004D01*
X98690341Y-79344659D01*
X98583996Y-79215078D01*
X98575886Y-79199906D01*
X98504976Y-79067242D01*
X98456313Y-78906823D01*
X98439883Y-78740000D01*
X98456313Y-78573177D01*
X98504976Y-78412758D01*
X98583995Y-78264924D01*
X98583996Y-78264922D01*
X98690341Y-78135341D01*
X98819922Y-78028996D01*
X98835094Y-78020886D01*
X98967758Y-77949976D01*
X99128177Y-77901313D01*
X99253196Y-77889000D01*
X100136804Y-77889000D01*
X100261823Y-77901313D01*
X100261823Y-77901313D01*
G37*
G36*
X100261823Y-75361313D02*
G01*
X100422242Y-75409976D01*
X100554906Y-75480886D01*
X100570078Y-75488996D01*
X100699659Y-75595341D01*
X100806004Y-75724922D01*
X100806005Y-75724924D01*
X100885024Y-75872758D01*
X100933687Y-76033177D01*
X100950117Y-76200000D01*
X100933687Y-76366823D01*
X100885024Y-76527242D01*
X100814114Y-76659906D01*
X100806004Y-76675078D01*
X100699659Y-76804659D01*
X100570078Y-76911004D01*
X100570076Y-76911005D01*
X100422242Y-76990024D01*
X100261823Y-77038687D01*
X100136804Y-77051000D01*
X99253196Y-77051000D01*
X99128177Y-77038687D01*
X98967758Y-76990024D01*
X98819924Y-76911005D01*
X98819922Y-76911004D01*
X98690341Y-76804659D01*
X98583996Y-76675078D01*
X98575886Y-76659906D01*
X98504976Y-76527242D01*
X98456313Y-76366823D01*
X98439883Y-76200000D01*
X98456313Y-76033177D01*
X98504976Y-75872758D01*
X98583995Y-75724924D01*
X98583996Y-75724922D01*
X98690341Y-75595341D01*
X98819922Y-75488996D01*
X98835094Y-75480886D01*
X98967758Y-75409976D01*
X99128177Y-75361313D01*
X99253196Y-75349000D01*
X100136804Y-75349000D01*
X100261823Y-75361313D01*
X100261823Y-75361313D01*
G37*
G36*
X125661823Y-75361313D02*
G01*
X125822242Y-75409976D01*
X125954906Y-75480886D01*
X125970078Y-75488996D01*
X126099659Y-75595341D01*
X126206004Y-75724922D01*
X126206005Y-75724924D01*
X126285024Y-75872758D01*
X126333687Y-76033177D01*
X126350117Y-76200000D01*
X126333687Y-76366823D01*
X126285024Y-76527242D01*
X126214114Y-76659906D01*
X126206004Y-76675078D01*
X126099659Y-76804659D01*
X125970078Y-76911004D01*
X125970076Y-76911005D01*
X125822242Y-76990024D01*
X125661823Y-77038687D01*
X125536804Y-77051000D01*
X124653196Y-77051000D01*
X124528177Y-77038687D01*
X124367758Y-76990024D01*
X124219924Y-76911005D01*
X124219922Y-76911004D01*
X124090341Y-76804659D01*
X123983996Y-76675078D01*
X123975886Y-76659906D01*
X123904976Y-76527242D01*
X123856313Y-76366823D01*
X123839883Y-76200000D01*
X123856313Y-76033177D01*
X123904976Y-75872758D01*
X123983995Y-75724924D01*
X123983996Y-75724922D01*
X124090341Y-75595341D01*
X124219922Y-75488996D01*
X124235094Y-75480886D01*
X124367758Y-75409976D01*
X124528177Y-75361313D01*
X124653196Y-75349000D01*
X125536804Y-75349000D01*
X125661823Y-75361313D01*
X125661823Y-75361313D01*
G37*
G36*
X125661823Y-72821313D02*
G01*
X125822242Y-72869976D01*
X125954906Y-72940886D01*
X125970078Y-72948996D01*
X126099659Y-73055341D01*
X126206004Y-73184922D01*
X126206005Y-73184924D01*
X126285024Y-73332758D01*
X126333687Y-73493177D01*
X126350117Y-73660000D01*
X126333687Y-73826823D01*
X126285024Y-73987242D01*
X126214114Y-74119906D01*
X126206004Y-74135078D01*
X126099659Y-74264659D01*
X125970078Y-74371004D01*
X125970076Y-74371005D01*
X125822242Y-74450024D01*
X125661823Y-74498687D01*
X125536804Y-74511000D01*
X124653196Y-74511000D01*
X124528177Y-74498687D01*
X124367758Y-74450024D01*
X124219924Y-74371005D01*
X124219922Y-74371004D01*
X124090341Y-74264659D01*
X123983996Y-74135078D01*
X123975886Y-74119906D01*
X123904976Y-73987242D01*
X123856313Y-73826823D01*
X123839883Y-73660000D01*
X123856313Y-73493177D01*
X123904976Y-73332758D01*
X123983995Y-73184924D01*
X123983996Y-73184922D01*
X124090341Y-73055341D01*
X124219922Y-72948996D01*
X124235094Y-72940886D01*
X124367758Y-72869976D01*
X124528177Y-72821313D01*
X124653196Y-72809000D01*
X125536804Y-72809000D01*
X125661823Y-72821313D01*
X125661823Y-72821313D01*
G37*
G36*
X100946000Y-74511000D02*
G01*
X98444000Y-74511000D01*
X98444000Y-72809000D01*
X100946000Y-72809000D01*
X100946000Y-74511000D01*
X100946000Y-74511000D01*
G37*
G36*
X115157325Y-65307090D02*
G01*
X115296038Y-65364547D01*
X115420872Y-65447958D01*
X115527042Y-65554128D01*
X115610453Y-65678962D01*
X115667910Y-65817675D01*
X115697200Y-65964929D01*
X115697200Y-66115071D01*
X115667910Y-66262325D01*
X115610453Y-66401038D01*
X115527042Y-66525872D01*
X115420872Y-66632042D01*
X115296038Y-66715453D01*
X115157325Y-66772910D01*
X115010071Y-66802200D01*
X114859929Y-66802200D01*
X114712675Y-66772910D01*
X114573962Y-66715453D01*
X114449128Y-66632042D01*
X114342958Y-66525872D01*
X114259547Y-66401038D01*
X114202090Y-66262325D01*
X114172800Y-66115071D01*
X114172800Y-65964929D01*
X114202090Y-65817675D01*
X114259547Y-65678962D01*
X114342958Y-65554128D01*
X114449128Y-65447958D01*
X114573962Y-65364547D01*
X114712675Y-65307090D01*
X114859929Y-65277800D01*
X115010071Y-65277800D01*
X115157325Y-65307090D01*
X115157325Y-65307090D01*
G37*
G36*
X112617325Y-65307090D02*
G01*
X112756038Y-65364547D01*
X112880872Y-65447958D01*
X112987042Y-65554128D01*
X113070453Y-65678962D01*
X113127910Y-65817675D01*
X113157200Y-65964929D01*
X113157200Y-66115071D01*
X113127910Y-66262325D01*
X113070453Y-66401038D01*
X112987042Y-66525872D01*
X112880872Y-66632042D01*
X112756038Y-66715453D01*
X112617325Y-66772910D01*
X112470071Y-66802200D01*
X112319929Y-66802200D01*
X112172675Y-66772910D01*
X112033962Y-66715453D01*
X111909128Y-66632042D01*
X111802958Y-66525872D01*
X111719547Y-66401038D01*
X111662090Y-66262325D01*
X111632800Y-66115071D01*
X111632800Y-65964929D01*
X111662090Y-65817675D01*
X111719547Y-65678962D01*
X111802958Y-65554128D01*
X111909128Y-65447958D01*
X112033962Y-65364547D01*
X112172675Y-65307090D01*
X112319929Y-65277800D01*
X112470071Y-65277800D01*
X112617325Y-65307090D01*
X112617325Y-65307090D01*
G37*
G36*
X110077325Y-65307090D02*
G01*
X110216038Y-65364547D01*
X110340872Y-65447958D01*
X110447042Y-65554128D01*
X110530453Y-65678962D01*
X110587910Y-65817675D01*
X110617200Y-65964929D01*
X110617200Y-66115071D01*
X110587910Y-66262325D01*
X110530453Y-66401038D01*
X110447042Y-66525872D01*
X110340872Y-66632042D01*
X110216038Y-66715453D01*
X110077325Y-66772910D01*
X109930071Y-66802200D01*
X109779929Y-66802200D01*
X109632675Y-66772910D01*
X109493962Y-66715453D01*
X109369128Y-66632042D01*
X109262958Y-66525872D01*
X109179547Y-66401038D01*
X109122090Y-66262325D01*
X109092800Y-66115071D01*
X109092800Y-65964929D01*
X109122090Y-65817675D01*
X109179547Y-65678962D01*
X109262958Y-65554128D01*
X109369128Y-65447958D01*
X109493962Y-65364547D01*
X109632675Y-65307090D01*
X109779929Y-65277800D01*
X109930071Y-65277800D01*
X110077325Y-65307090D01*
X110077325Y-65307090D01*
G37*
G36*
X107537325Y-65307090D02*
G01*
X107676038Y-65364547D01*
X107800872Y-65447958D01*
X107907042Y-65554128D01*
X107990453Y-65678962D01*
X108047910Y-65817675D01*
X108077200Y-65964929D01*
X108077200Y-66115071D01*
X108047910Y-66262325D01*
X107990453Y-66401038D01*
X107907042Y-66525872D01*
X107800872Y-66632042D01*
X107676038Y-66715453D01*
X107537325Y-66772910D01*
X107390071Y-66802200D01*
X107239929Y-66802200D01*
X107092675Y-66772910D01*
X106953962Y-66715453D01*
X106829128Y-66632042D01*
X106722958Y-66525872D01*
X106639547Y-66401038D01*
X106582090Y-66262325D01*
X106552800Y-66115071D01*
X106552800Y-65964929D01*
X106582090Y-65817675D01*
X106639547Y-65678962D01*
X106722958Y-65554128D01*
X106829128Y-65447958D01*
X106953962Y-65364547D01*
X107092675Y-65307090D01*
X107239929Y-65277800D01*
X107390071Y-65277800D01*
X107537325Y-65307090D01*
X107537325Y-65307090D01*
G37*
G36*
X104997325Y-65307090D02*
G01*
X105136038Y-65364547D01*
X105260872Y-65447958D01*
X105367042Y-65554128D01*
X105450453Y-65678962D01*
X105507910Y-65817675D01*
X105537200Y-65964929D01*
X105537200Y-66115071D01*
X105507910Y-66262325D01*
X105450453Y-66401038D01*
X105367042Y-66525872D01*
X105260872Y-66632042D01*
X105136038Y-66715453D01*
X104997325Y-66772910D01*
X104850071Y-66802200D01*
X104699929Y-66802200D01*
X104552675Y-66772910D01*
X104413962Y-66715453D01*
X104289128Y-66632042D01*
X104182958Y-66525872D01*
X104099547Y-66401038D01*
X104042090Y-66262325D01*
X104012800Y-66115071D01*
X104012800Y-65964929D01*
X104042090Y-65817675D01*
X104099547Y-65678962D01*
X104182958Y-65554128D01*
X104289128Y-65447958D01*
X104413962Y-65364547D01*
X104552675Y-65307090D01*
X104699929Y-65277800D01*
X104850071Y-65277800D01*
X104997325Y-65307090D01*
X104997325Y-65307090D01*
G37*
G36*
X117697325Y-65307090D02*
G01*
X117836038Y-65364547D01*
X117960872Y-65447958D01*
X118067042Y-65554128D01*
X118150453Y-65678962D01*
X118207910Y-65817675D01*
X118237200Y-65964929D01*
X118237200Y-66115071D01*
X118207910Y-66262325D01*
X118150453Y-66401038D01*
X118067042Y-66525872D01*
X117960872Y-66632042D01*
X117836038Y-66715453D01*
X117697325Y-66772910D01*
X117550071Y-66802200D01*
X117399929Y-66802200D01*
X117252675Y-66772910D01*
X117113962Y-66715453D01*
X116989128Y-66632042D01*
X116882958Y-66525872D01*
X116799547Y-66401038D01*
X116742090Y-66262325D01*
X116712800Y-66115071D01*
X116712800Y-65964929D01*
X116742090Y-65817675D01*
X116799547Y-65678962D01*
X116882958Y-65554128D01*
X116989128Y-65447958D01*
X117113962Y-65364547D01*
X117252675Y-65307090D01*
X117399929Y-65277800D01*
X117550071Y-65277800D01*
X117697325Y-65307090D01*
X117697325Y-65307090D01*
G37*
G36*
X120237325Y-65307090D02*
G01*
X120376038Y-65364547D01*
X120500872Y-65447958D01*
X120607042Y-65554128D01*
X120690453Y-65678962D01*
X120747910Y-65817675D01*
X120777200Y-65964929D01*
X120777200Y-66115071D01*
X120747910Y-66262325D01*
X120690453Y-66401038D01*
X120607042Y-66525872D01*
X120500872Y-66632042D01*
X120376038Y-66715453D01*
X120237325Y-66772910D01*
X120090071Y-66802200D01*
X119939929Y-66802200D01*
X119792675Y-66772910D01*
X119653962Y-66715453D01*
X119529128Y-66632042D01*
X119422958Y-66525872D01*
X119339547Y-66401038D01*
X119282090Y-66262325D01*
X119252800Y-66115071D01*
X119252800Y-65964929D01*
X119282090Y-65817675D01*
X119339547Y-65678962D01*
X119422958Y-65554128D01*
X119529128Y-65447958D01*
X119653962Y-65364547D01*
X119792675Y-65307090D01*
X119939929Y-65277800D01*
X120090071Y-65277800D01*
X120237325Y-65307090D01*
X120237325Y-65307090D01*
G37*
G36*
X122777325Y-65307090D02*
G01*
X122916038Y-65364547D01*
X123040872Y-65447958D01*
X123147042Y-65554128D01*
X123230453Y-65678962D01*
X123287910Y-65817675D01*
X123317200Y-65964929D01*
X123317200Y-66115071D01*
X123287910Y-66262325D01*
X123230453Y-66401038D01*
X123147042Y-66525872D01*
X123040872Y-66632042D01*
X122916038Y-66715453D01*
X122777325Y-66772910D01*
X122630071Y-66802200D01*
X122479929Y-66802200D01*
X122332675Y-66772910D01*
X122193962Y-66715453D01*
X122069128Y-66632042D01*
X121962958Y-66525872D01*
X121879547Y-66401038D01*
X121822090Y-66262325D01*
X121792800Y-66115071D01*
X121792800Y-65964929D01*
X121822090Y-65817675D01*
X121879547Y-65678962D01*
X121962958Y-65554128D01*
X122069128Y-65447958D01*
X122193962Y-65364547D01*
X122332675Y-65307090D01*
X122479929Y-65277800D01*
X122630071Y-65277800D01*
X122777325Y-65307090D01*
X122777325Y-65307090D01*
G37*
G36*
X125317325Y-65307090D02*
G01*
X125456038Y-65364547D01*
X125580872Y-65447958D01*
X125687042Y-65554128D01*
X125770453Y-65678962D01*
X125827910Y-65817675D01*
X125857200Y-65964929D01*
X125857200Y-66115071D01*
X125827910Y-66262325D01*
X125770453Y-66401038D01*
X125687042Y-66525872D01*
X125580872Y-66632042D01*
X125456038Y-66715453D01*
X125317325Y-66772910D01*
X125170071Y-66802200D01*
X125019929Y-66802200D01*
X124872675Y-66772910D01*
X124733962Y-66715453D01*
X124609128Y-66632042D01*
X124502958Y-66525872D01*
X124419547Y-66401038D01*
X124362090Y-66262325D01*
X124332800Y-66115071D01*
X124332800Y-65964929D01*
X124362090Y-65817675D01*
X124419547Y-65678962D01*
X124502958Y-65554128D01*
X124609128Y-65447958D01*
X124733962Y-65364547D01*
X124872675Y-65307090D01*
X125019929Y-65277800D01*
X125170071Y-65277800D01*
X125317325Y-65307090D01*
X125317325Y-65307090D01*
G37*
G36*
X127857325Y-62767090D02*
G01*
X127996038Y-62824547D01*
X128120872Y-62907958D01*
X128227042Y-63014128D01*
X128310453Y-63138962D01*
X128367910Y-63277675D01*
X128397200Y-63424929D01*
X128397200Y-63575071D01*
X128367910Y-63722325D01*
X128310453Y-63861038D01*
X128227042Y-63985872D01*
X128120872Y-64092042D01*
X127996038Y-64175453D01*
X127857325Y-64232910D01*
X127710071Y-64262200D01*
X127559929Y-64262200D01*
X127412675Y-64232910D01*
X127273962Y-64175453D01*
X127149128Y-64092042D01*
X127042958Y-63985872D01*
X126959547Y-63861038D01*
X126902090Y-63722325D01*
X126872800Y-63575071D01*
X126872800Y-63424929D01*
X126902090Y-63277675D01*
X126959547Y-63138962D01*
X127042958Y-63014128D01*
X127149128Y-62907958D01*
X127273962Y-62824547D01*
X127412675Y-62767090D01*
X127559929Y-62737800D01*
X127710071Y-62737800D01*
X127857325Y-62767090D01*
X127857325Y-62767090D01*
G37*
G36*
X122777325Y-62767090D02*
G01*
X122916038Y-62824547D01*
X123040872Y-62907958D01*
X123147042Y-63014128D01*
X123230453Y-63138962D01*
X123287910Y-63277675D01*
X123317200Y-63424929D01*
X123317200Y-63575071D01*
X123287910Y-63722325D01*
X123230453Y-63861038D01*
X123147042Y-63985872D01*
X123040872Y-64092042D01*
X122916038Y-64175453D01*
X122777325Y-64232910D01*
X122630071Y-64262200D01*
X122479929Y-64262200D01*
X122332675Y-64232910D01*
X122193962Y-64175453D01*
X122069128Y-64092042D01*
X121962958Y-63985872D01*
X121879547Y-63861038D01*
X121822090Y-63722325D01*
X121792800Y-63575071D01*
X121792800Y-63424929D01*
X121822090Y-63277675D01*
X121879547Y-63138962D01*
X121962958Y-63014128D01*
X122069128Y-62907958D01*
X122193962Y-62824547D01*
X122332675Y-62767090D01*
X122479929Y-62737800D01*
X122630071Y-62737800D01*
X122777325Y-62767090D01*
X122777325Y-62767090D01*
G37*
G36*
X104997325Y-62767090D02*
G01*
X105136038Y-62824547D01*
X105260872Y-62907958D01*
X105367042Y-63014128D01*
X105450453Y-63138962D01*
X105507910Y-63277675D01*
X105537200Y-63424929D01*
X105537200Y-63575071D01*
X105507910Y-63722325D01*
X105450453Y-63861038D01*
X105367042Y-63985872D01*
X105260872Y-64092042D01*
X105136038Y-64175453D01*
X104997325Y-64232910D01*
X104850071Y-64262200D01*
X104699929Y-64262200D01*
X104552675Y-64232910D01*
X104413962Y-64175453D01*
X104289128Y-64092042D01*
X104182958Y-63985872D01*
X104099547Y-63861038D01*
X104042090Y-63722325D01*
X104012800Y-63575071D01*
X104012800Y-63424929D01*
X104042090Y-63277675D01*
X104099547Y-63138962D01*
X104182958Y-63014128D01*
X104289128Y-62907958D01*
X104413962Y-62824547D01*
X104552675Y-62767090D01*
X104699929Y-62737800D01*
X104850071Y-62737800D01*
X104997325Y-62767090D01*
X104997325Y-62767090D01*
G37*
G36*
X102457325Y-62767090D02*
G01*
X102596038Y-62824547D01*
X102720872Y-62907958D01*
X102827042Y-63014128D01*
X102910453Y-63138962D01*
X102967910Y-63277675D01*
X102997200Y-63424929D01*
X102997200Y-63575071D01*
X102967910Y-63722325D01*
X102910453Y-63861038D01*
X102827042Y-63985872D01*
X102720872Y-64092042D01*
X102596038Y-64175453D01*
X102457325Y-64232910D01*
X102310071Y-64262200D01*
X102159929Y-64262200D01*
X102012675Y-64232910D01*
X101873962Y-64175453D01*
X101749128Y-64092042D01*
X101642958Y-63985872D01*
X101559547Y-63861038D01*
X101502090Y-63722325D01*
X101472800Y-63575071D01*
X101472800Y-63424929D01*
X101502090Y-63277675D01*
X101559547Y-63138962D01*
X101642958Y-63014128D01*
X101749128Y-62907958D01*
X101873962Y-62824547D01*
X102012675Y-62767090D01*
X102159929Y-62737800D01*
X102310071Y-62737800D01*
X102457325Y-62767090D01*
X102457325Y-62767090D01*
G37*
G36*
X107537325Y-62767090D02*
G01*
X107676038Y-62824547D01*
X107800872Y-62907958D01*
X107907042Y-63014128D01*
X107990453Y-63138962D01*
X108047910Y-63277675D01*
X108077200Y-63424929D01*
X108077200Y-63575071D01*
X108047910Y-63722325D01*
X107990453Y-63861038D01*
X107907042Y-63985872D01*
X107800872Y-64092042D01*
X107676038Y-64175453D01*
X107537325Y-64232910D01*
X107390071Y-64262200D01*
X107239929Y-64262200D01*
X107092675Y-64232910D01*
X106953962Y-64175453D01*
X106829128Y-64092042D01*
X106722958Y-63985872D01*
X106639547Y-63861038D01*
X106582090Y-63722325D01*
X106552800Y-63575071D01*
X106552800Y-63424929D01*
X106582090Y-63277675D01*
X106639547Y-63138962D01*
X106722958Y-63014128D01*
X106829128Y-62907958D01*
X106953962Y-62824547D01*
X107092675Y-62767090D01*
X107239929Y-62737800D01*
X107390071Y-62737800D01*
X107537325Y-62767090D01*
X107537325Y-62767090D01*
G37*
G36*
X120237325Y-62767090D02*
G01*
X120376038Y-62824547D01*
X120500872Y-62907958D01*
X120607042Y-63014128D01*
X120690453Y-63138962D01*
X120747910Y-63277675D01*
X120777200Y-63424929D01*
X120777200Y-63575071D01*
X120747910Y-63722325D01*
X120690453Y-63861038D01*
X120607042Y-63985872D01*
X120500872Y-64092042D01*
X120376038Y-64175453D01*
X120237325Y-64232910D01*
X120090071Y-64262200D01*
X119939929Y-64262200D01*
X119792675Y-64232910D01*
X119653962Y-64175453D01*
X119529128Y-64092042D01*
X119422958Y-63985872D01*
X119339547Y-63861038D01*
X119282090Y-63722325D01*
X119252800Y-63575071D01*
X119252800Y-63424929D01*
X119282090Y-63277675D01*
X119339547Y-63138962D01*
X119422958Y-63014128D01*
X119529128Y-62907958D01*
X119653962Y-62824547D01*
X119792675Y-62767090D01*
X119939929Y-62737800D01*
X120090071Y-62737800D01*
X120237325Y-62767090D01*
X120237325Y-62767090D01*
G37*
G36*
X110077325Y-62767090D02*
G01*
X110216038Y-62824547D01*
X110340872Y-62907958D01*
X110447042Y-63014128D01*
X110530453Y-63138962D01*
X110587910Y-63277675D01*
X110617200Y-63424929D01*
X110617200Y-63575071D01*
X110587910Y-63722325D01*
X110530453Y-63861038D01*
X110447042Y-63985872D01*
X110340872Y-64092042D01*
X110216038Y-64175453D01*
X110077325Y-64232910D01*
X109930071Y-64262200D01*
X109779929Y-64262200D01*
X109632675Y-64232910D01*
X109493962Y-64175453D01*
X109369128Y-64092042D01*
X109262958Y-63985872D01*
X109179547Y-63861038D01*
X109122090Y-63722325D01*
X109092800Y-63575071D01*
X109092800Y-63424929D01*
X109122090Y-63277675D01*
X109179547Y-63138962D01*
X109262958Y-63014128D01*
X109369128Y-62907958D01*
X109493962Y-62824547D01*
X109632675Y-62767090D01*
X109779929Y-62737800D01*
X109930071Y-62737800D01*
X110077325Y-62767090D01*
X110077325Y-62767090D01*
G37*
G36*
X112617325Y-62767090D02*
G01*
X112756038Y-62824547D01*
X112880872Y-62907958D01*
X112987042Y-63014128D01*
X113070453Y-63138962D01*
X113127910Y-63277675D01*
X113157200Y-63424929D01*
X113157200Y-63575071D01*
X113127910Y-63722325D01*
X113070453Y-63861038D01*
X112987042Y-63985872D01*
X112880872Y-64092042D01*
X112756038Y-64175453D01*
X112617325Y-64232910D01*
X112470071Y-64262200D01*
X112319929Y-64262200D01*
X112172675Y-64232910D01*
X112033962Y-64175453D01*
X111909128Y-64092042D01*
X111802958Y-63985872D01*
X111719547Y-63861038D01*
X111662090Y-63722325D01*
X111632800Y-63575071D01*
X111632800Y-63424929D01*
X111662090Y-63277675D01*
X111719547Y-63138962D01*
X111802958Y-63014128D01*
X111909128Y-62907958D01*
X112033962Y-62824547D01*
X112172675Y-62767090D01*
X112319929Y-62737800D01*
X112470071Y-62737800D01*
X112617325Y-62767090D01*
X112617325Y-62767090D01*
G37*
G36*
X125317325Y-62767090D02*
G01*
X125456038Y-62824547D01*
X125580872Y-62907958D01*
X125687042Y-63014128D01*
X125770453Y-63138962D01*
X125827910Y-63277675D01*
X125857200Y-63424929D01*
X125857200Y-63575071D01*
X125827910Y-63722325D01*
X125770453Y-63861038D01*
X125687042Y-63985872D01*
X125580872Y-64092042D01*
X125456038Y-64175453D01*
X125317325Y-64232910D01*
X125170071Y-64262200D01*
X125019929Y-64262200D01*
X124872675Y-64232910D01*
X124733962Y-64175453D01*
X124609128Y-64092042D01*
X124502958Y-63985872D01*
X124419547Y-63861038D01*
X124362090Y-63722325D01*
X124332800Y-63575071D01*
X124332800Y-63424929D01*
X124362090Y-63277675D01*
X124419547Y-63138962D01*
X124502958Y-63014128D01*
X124609128Y-62907958D01*
X124733962Y-62824547D01*
X124872675Y-62767090D01*
X125019929Y-62737800D01*
X125170071Y-62737800D01*
X125317325Y-62767090D01*
X125317325Y-62767090D01*
G37*
G36*
X115157325Y-62767090D02*
G01*
X115296038Y-62824547D01*
X115420872Y-62907958D01*
X115527042Y-63014128D01*
X115610453Y-63138962D01*
X115667910Y-63277675D01*
X115697200Y-63424929D01*
X115697200Y-63575071D01*
X115667910Y-63722325D01*
X115610453Y-63861038D01*
X115527042Y-63985872D01*
X115420872Y-64092042D01*
X115296038Y-64175453D01*
X115157325Y-64232910D01*
X115010071Y-64262200D01*
X114859929Y-64262200D01*
X114712675Y-64232910D01*
X114573962Y-64175453D01*
X114449128Y-64092042D01*
X114342958Y-63985872D01*
X114259547Y-63861038D01*
X114202090Y-63722325D01*
X114172800Y-63575071D01*
X114172800Y-63424929D01*
X114202090Y-63277675D01*
X114259547Y-63138962D01*
X114342958Y-63014128D01*
X114449128Y-62907958D01*
X114573962Y-62824547D01*
X114712675Y-62767090D01*
X114859929Y-62737800D01*
X115010071Y-62737800D01*
X115157325Y-62767090D01*
X115157325Y-62767090D01*
G37*
G36*
X117697325Y-62767090D02*
G01*
X117836038Y-62824547D01*
X117960872Y-62907958D01*
X118067042Y-63014128D01*
X118150453Y-63138962D01*
X118207910Y-63277675D01*
X118237200Y-63424929D01*
X118237200Y-63575071D01*
X118207910Y-63722325D01*
X118150453Y-63861038D01*
X118067042Y-63985872D01*
X117960872Y-64092042D01*
X117836038Y-64175453D01*
X117697325Y-64232910D01*
X117550071Y-64262200D01*
X117399929Y-64262200D01*
X117252675Y-64232910D01*
X117113962Y-64175453D01*
X116989128Y-64092042D01*
X116882958Y-63985872D01*
X116799547Y-63861038D01*
X116742090Y-63722325D01*
X116712800Y-63575071D01*
X116712800Y-63424929D01*
X116742090Y-63277675D01*
X116799547Y-63138962D01*
X116882958Y-63014128D01*
X116989128Y-62907958D01*
X117113962Y-62824547D01*
X117252675Y-62767090D01*
X117399929Y-62737800D01*
X117550071Y-62737800D01*
X117697325Y-62767090D01*
X117697325Y-62767090D01*
G37*
G36*
X102457325Y-60227090D02*
G01*
X102596038Y-60284547D01*
X102720872Y-60367958D01*
X102827042Y-60474128D01*
X102910453Y-60598962D01*
X102967910Y-60737675D01*
X102997200Y-60884929D01*
X102997200Y-61035071D01*
X102967910Y-61182325D01*
X102910453Y-61321038D01*
X102827042Y-61445872D01*
X102720872Y-61552042D01*
X102596038Y-61635453D01*
X102457325Y-61692910D01*
X102310071Y-61722200D01*
X102159929Y-61722200D01*
X102012675Y-61692910D01*
X101873962Y-61635453D01*
X101749128Y-61552042D01*
X101642958Y-61445872D01*
X101559547Y-61321038D01*
X101502090Y-61182325D01*
X101472800Y-61035071D01*
X101472800Y-60884929D01*
X101502090Y-60737675D01*
X101559547Y-60598962D01*
X101642958Y-60474128D01*
X101749128Y-60367958D01*
X101873962Y-60284547D01*
X102012675Y-60227090D01*
X102159929Y-60197800D01*
X102310071Y-60197800D01*
X102457325Y-60227090D01*
X102457325Y-60227090D01*
G37*
G36*
X125317325Y-60227090D02*
G01*
X125456038Y-60284547D01*
X125580872Y-60367958D01*
X125687042Y-60474128D01*
X125770453Y-60598962D01*
X125827910Y-60737675D01*
X125857200Y-60884929D01*
X125857200Y-61035071D01*
X125827910Y-61182325D01*
X125770453Y-61321038D01*
X125687042Y-61445872D01*
X125580872Y-61552042D01*
X125456038Y-61635453D01*
X125317325Y-61692910D01*
X125170071Y-61722200D01*
X125019929Y-61722200D01*
X124872675Y-61692910D01*
X124733962Y-61635453D01*
X124609128Y-61552042D01*
X124502958Y-61445872D01*
X124419547Y-61321038D01*
X124362090Y-61182325D01*
X124332800Y-61035071D01*
X124332800Y-60884929D01*
X124362090Y-60737675D01*
X124419547Y-60598962D01*
X124502958Y-60474128D01*
X124609128Y-60367958D01*
X124733962Y-60284547D01*
X124872675Y-60227090D01*
X125019929Y-60197800D01*
X125170071Y-60197800D01*
X125317325Y-60227090D01*
X125317325Y-60227090D01*
G37*
G36*
X127857325Y-60227090D02*
G01*
X127996038Y-60284547D01*
X128120872Y-60367958D01*
X128227042Y-60474128D01*
X128310453Y-60598962D01*
X128367910Y-60737675D01*
X128397200Y-60884929D01*
X128397200Y-61035071D01*
X128367910Y-61182325D01*
X128310453Y-61321038D01*
X128227042Y-61445872D01*
X128120872Y-61552042D01*
X127996038Y-61635453D01*
X127857325Y-61692910D01*
X127710071Y-61722200D01*
X127559929Y-61722200D01*
X127412675Y-61692910D01*
X127273962Y-61635453D01*
X127149128Y-61552042D01*
X127042958Y-61445872D01*
X126959547Y-61321038D01*
X126902090Y-61182325D01*
X126872800Y-61035071D01*
X126872800Y-60884929D01*
X126902090Y-60737675D01*
X126959547Y-60598962D01*
X127042958Y-60474128D01*
X127149128Y-60367958D01*
X127273962Y-60284547D01*
X127412675Y-60227090D01*
X127559929Y-60197800D01*
X127710071Y-60197800D01*
X127857325Y-60227090D01*
X127857325Y-60227090D01*
G37*
G36*
X104997325Y-60227090D02*
G01*
X105136038Y-60284547D01*
X105260872Y-60367958D01*
X105367042Y-60474128D01*
X105450453Y-60598962D01*
X105507910Y-60737675D01*
X105537200Y-60884929D01*
X105537200Y-61035071D01*
X105507910Y-61182325D01*
X105450453Y-61321038D01*
X105367042Y-61445872D01*
X105260872Y-61552042D01*
X105136038Y-61635453D01*
X104997325Y-61692910D01*
X104850071Y-61722200D01*
X104699929Y-61722200D01*
X104552675Y-61692910D01*
X104413962Y-61635453D01*
X104289128Y-61552042D01*
X104182958Y-61445872D01*
X104099547Y-61321038D01*
X104042090Y-61182325D01*
X104012800Y-61035071D01*
X104012800Y-60884929D01*
X104042090Y-60737675D01*
X104099547Y-60598962D01*
X104182958Y-60474128D01*
X104289128Y-60367958D01*
X104413962Y-60284547D01*
X104552675Y-60227090D01*
X104699929Y-60197800D01*
X104850071Y-60197800D01*
X104997325Y-60227090D01*
X104997325Y-60227090D01*
G37*
G36*
X102457325Y-57687090D02*
G01*
X102596038Y-57744547D01*
X102720872Y-57827958D01*
X102827042Y-57934128D01*
X102910453Y-58058962D01*
X102967910Y-58197675D01*
X102997200Y-58344929D01*
X102997200Y-58495071D01*
X102967910Y-58642325D01*
X102910453Y-58781038D01*
X102827042Y-58905872D01*
X102720872Y-59012042D01*
X102596038Y-59095453D01*
X102457325Y-59152910D01*
X102310071Y-59182200D01*
X102159929Y-59182200D01*
X102012675Y-59152910D01*
X101873962Y-59095453D01*
X101749128Y-59012042D01*
X101642958Y-58905872D01*
X101559547Y-58781038D01*
X101502090Y-58642325D01*
X101472800Y-58495071D01*
X101472800Y-58344929D01*
X101502090Y-58197675D01*
X101559547Y-58058962D01*
X101642958Y-57934128D01*
X101749128Y-57827958D01*
X101873962Y-57744547D01*
X102012675Y-57687090D01*
X102159929Y-57657800D01*
X102310071Y-57657800D01*
X102457325Y-57687090D01*
X102457325Y-57687090D01*
G37*
G36*
X104997325Y-57687090D02*
G01*
X105136038Y-57744547D01*
X105260872Y-57827958D01*
X105367042Y-57934128D01*
X105450453Y-58058962D01*
X105507910Y-58197675D01*
X105537200Y-58344929D01*
X105537200Y-58495071D01*
X105507910Y-58642325D01*
X105450453Y-58781038D01*
X105367042Y-58905872D01*
X105260872Y-59012042D01*
X105136038Y-59095453D01*
X104997325Y-59152910D01*
X104850071Y-59182200D01*
X104699929Y-59182200D01*
X104552675Y-59152910D01*
X104413962Y-59095453D01*
X104289128Y-59012042D01*
X104182958Y-58905872D01*
X104099547Y-58781038D01*
X104042090Y-58642325D01*
X104012800Y-58495071D01*
X104012800Y-58344929D01*
X104042090Y-58197675D01*
X104099547Y-58058962D01*
X104182958Y-57934128D01*
X104289128Y-57827958D01*
X104413962Y-57744547D01*
X104552675Y-57687090D01*
X104699929Y-57657800D01*
X104850071Y-57657800D01*
X104997325Y-57687090D01*
X104997325Y-57687090D01*
G37*
G36*
X125317325Y-57687090D02*
G01*
X125456038Y-57744547D01*
X125580872Y-57827958D01*
X125687042Y-57934128D01*
X125770453Y-58058962D01*
X125827910Y-58197675D01*
X125857200Y-58344929D01*
X125857200Y-58495071D01*
X125827910Y-58642325D01*
X125770453Y-58781038D01*
X125687042Y-58905872D01*
X125580872Y-59012042D01*
X125456038Y-59095453D01*
X125317325Y-59152910D01*
X125170071Y-59182200D01*
X125019929Y-59182200D01*
X124872675Y-59152910D01*
X124733962Y-59095453D01*
X124609128Y-59012042D01*
X124502958Y-58905872D01*
X124419547Y-58781038D01*
X124362090Y-58642325D01*
X124332800Y-58495071D01*
X124332800Y-58344929D01*
X124362090Y-58197675D01*
X124419547Y-58058962D01*
X124502958Y-57934128D01*
X124609128Y-57827958D01*
X124733962Y-57744547D01*
X124872675Y-57687090D01*
X125019929Y-57657800D01*
X125170071Y-57657800D01*
X125317325Y-57687090D01*
X125317325Y-57687090D01*
G37*
G36*
X127857325Y-57687090D02*
G01*
X127996038Y-57744547D01*
X128120872Y-57827958D01*
X128227042Y-57934128D01*
X128310453Y-58058962D01*
X128367910Y-58197675D01*
X128397200Y-58344929D01*
X128397200Y-58495071D01*
X128367910Y-58642325D01*
X128310453Y-58781038D01*
X128227042Y-58905872D01*
X128120872Y-59012042D01*
X127996038Y-59095453D01*
X127857325Y-59152910D01*
X127710071Y-59182200D01*
X127559929Y-59182200D01*
X127412675Y-59152910D01*
X127273962Y-59095453D01*
X127149128Y-59012042D01*
X127042958Y-58905872D01*
X126959547Y-58781038D01*
X126902090Y-58642325D01*
X126872800Y-58495071D01*
X126872800Y-58344929D01*
X126902090Y-58197675D01*
X126959547Y-58058962D01*
X127042958Y-57934128D01*
X127149128Y-57827958D01*
X127273962Y-57744547D01*
X127412675Y-57687090D01*
X127559929Y-57657800D01*
X127710071Y-57657800D01*
X127857325Y-57687090D01*
X127857325Y-57687090D01*
G37*
G36*
X127857325Y-55147090D02*
G01*
X127996038Y-55204547D01*
X128120872Y-55287958D01*
X128227042Y-55394128D01*
X128310453Y-55518962D01*
X128367910Y-55657675D01*
X128397200Y-55804929D01*
X128397200Y-55955071D01*
X128367910Y-56102325D01*
X128310453Y-56241038D01*
X128227042Y-56365872D01*
X128120872Y-56472042D01*
X127996038Y-56555453D01*
X127857325Y-56612910D01*
X127710071Y-56642200D01*
X127559929Y-56642200D01*
X127412675Y-56612910D01*
X127273962Y-56555453D01*
X127149128Y-56472042D01*
X127042958Y-56365872D01*
X126959547Y-56241038D01*
X126902090Y-56102325D01*
X126872800Y-55955071D01*
X126872800Y-55804929D01*
X126902090Y-55657675D01*
X126959547Y-55518962D01*
X127042958Y-55394128D01*
X127149128Y-55287958D01*
X127273962Y-55204547D01*
X127412675Y-55147090D01*
X127559929Y-55117800D01*
X127710071Y-55117800D01*
X127857325Y-55147090D01*
X127857325Y-55147090D01*
G37*
G36*
X125317325Y-55147090D02*
G01*
X125456038Y-55204547D01*
X125580872Y-55287958D01*
X125687042Y-55394128D01*
X125770453Y-55518962D01*
X125827910Y-55657675D01*
X125857200Y-55804929D01*
X125857200Y-55955071D01*
X125827910Y-56102325D01*
X125770453Y-56241038D01*
X125687042Y-56365872D01*
X125580872Y-56472042D01*
X125456038Y-56555453D01*
X125317325Y-56612910D01*
X125170071Y-56642200D01*
X125019929Y-56642200D01*
X124872675Y-56612910D01*
X124733962Y-56555453D01*
X124609128Y-56472042D01*
X124502958Y-56365872D01*
X124419547Y-56241038D01*
X124362090Y-56102325D01*
X124332800Y-55955071D01*
X124332800Y-55804929D01*
X124362090Y-55657675D01*
X124419547Y-55518962D01*
X124502958Y-55394128D01*
X124609128Y-55287958D01*
X124733962Y-55204547D01*
X124872675Y-55147090D01*
X125019929Y-55117800D01*
X125170071Y-55117800D01*
X125317325Y-55147090D01*
X125317325Y-55147090D01*
G37*
G36*
X104997325Y-55147090D02*
G01*
X105136038Y-55204547D01*
X105260872Y-55287958D01*
X105367042Y-55394128D01*
X105450453Y-55518962D01*
X105507910Y-55657675D01*
X105537200Y-55804929D01*
X105537200Y-55955071D01*
X105507910Y-56102325D01*
X105450453Y-56241038D01*
X105367042Y-56365872D01*
X105260872Y-56472042D01*
X105136038Y-56555453D01*
X104997325Y-56612910D01*
X104850071Y-56642200D01*
X104699929Y-56642200D01*
X104552675Y-56612910D01*
X104413962Y-56555453D01*
X104289128Y-56472042D01*
X104182958Y-56365872D01*
X104099547Y-56241038D01*
X104042090Y-56102325D01*
X104012800Y-55955071D01*
X104012800Y-55804929D01*
X104042090Y-55657675D01*
X104099547Y-55518962D01*
X104182958Y-55394128D01*
X104289128Y-55287958D01*
X104413962Y-55204547D01*
X104552675Y-55147090D01*
X104699929Y-55117800D01*
X104850071Y-55117800D01*
X104997325Y-55147090D01*
X104997325Y-55147090D01*
G37*
G36*
X102457325Y-55147090D02*
G01*
X102596038Y-55204547D01*
X102720872Y-55287958D01*
X102827042Y-55394128D01*
X102910453Y-55518962D01*
X102967910Y-55657675D01*
X102997200Y-55804929D01*
X102997200Y-55955071D01*
X102967910Y-56102325D01*
X102910453Y-56241038D01*
X102827042Y-56365872D01*
X102720872Y-56472042D01*
X102596038Y-56555453D01*
X102457325Y-56612910D01*
X102310071Y-56642200D01*
X102159929Y-56642200D01*
X102012675Y-56612910D01*
X101873962Y-56555453D01*
X101749128Y-56472042D01*
X101642958Y-56365872D01*
X101559547Y-56241038D01*
X101502090Y-56102325D01*
X101472800Y-55955071D01*
X101472800Y-55804929D01*
X101502090Y-55657675D01*
X101559547Y-55518962D01*
X101642958Y-55394128D01*
X101749128Y-55287958D01*
X101873962Y-55204547D01*
X102012675Y-55147090D01*
X102159929Y-55117800D01*
X102310071Y-55117800D01*
X102457325Y-55147090D01*
X102457325Y-55147090D01*
G37*
G36*
X127857325Y-52607090D02*
G01*
X127996038Y-52664547D01*
X128120872Y-52747958D01*
X128227042Y-52854128D01*
X128310453Y-52978962D01*
X128367910Y-53117675D01*
X128397200Y-53264929D01*
X128397200Y-53415071D01*
X128367910Y-53562325D01*
X128310453Y-53701038D01*
X128227042Y-53825872D01*
X128120872Y-53932042D01*
X127996038Y-54015453D01*
X127857325Y-54072910D01*
X127710071Y-54102200D01*
X127559929Y-54102200D01*
X127412675Y-54072910D01*
X127273962Y-54015453D01*
X127149128Y-53932042D01*
X127042958Y-53825872D01*
X126959547Y-53701038D01*
X126902090Y-53562325D01*
X126872800Y-53415071D01*
X126872800Y-53264929D01*
X126902090Y-53117675D01*
X126959547Y-52978962D01*
X127042958Y-52854128D01*
X127149128Y-52747958D01*
X127273962Y-52664547D01*
X127412675Y-52607090D01*
X127559929Y-52577800D01*
X127710071Y-52577800D01*
X127857325Y-52607090D01*
X127857325Y-52607090D01*
G37*
G36*
X125317325Y-52607090D02*
G01*
X125456038Y-52664547D01*
X125580872Y-52747958D01*
X125687042Y-52854128D01*
X125770453Y-52978962D01*
X125827910Y-53117675D01*
X125857200Y-53264929D01*
X125857200Y-53415071D01*
X125827910Y-53562325D01*
X125770453Y-53701038D01*
X125687042Y-53825872D01*
X125580872Y-53932042D01*
X125456038Y-54015453D01*
X125317325Y-54072910D01*
X125170071Y-54102200D01*
X125019929Y-54102200D01*
X124872675Y-54072910D01*
X124733962Y-54015453D01*
X124609128Y-53932042D01*
X124502958Y-53825872D01*
X124419547Y-53701038D01*
X124362090Y-53562325D01*
X124332800Y-53415071D01*
X124332800Y-53264929D01*
X124362090Y-53117675D01*
X124419547Y-52978962D01*
X124502958Y-52854128D01*
X124609128Y-52747958D01*
X124733962Y-52664547D01*
X124872675Y-52607090D01*
X125019929Y-52577800D01*
X125170071Y-52577800D01*
X125317325Y-52607090D01*
X125317325Y-52607090D01*
G37*
G36*
X104997325Y-52607090D02*
G01*
X105136038Y-52664547D01*
X105260872Y-52747958D01*
X105367042Y-52854128D01*
X105450453Y-52978962D01*
X105507910Y-53117675D01*
X105537200Y-53264929D01*
X105537200Y-53415071D01*
X105507910Y-53562325D01*
X105450453Y-53701038D01*
X105367042Y-53825872D01*
X105260872Y-53932042D01*
X105136038Y-54015453D01*
X104997325Y-54072910D01*
X104850071Y-54102200D01*
X104699929Y-54102200D01*
X104552675Y-54072910D01*
X104413962Y-54015453D01*
X104289128Y-53932042D01*
X104182958Y-53825872D01*
X104099547Y-53701038D01*
X104042090Y-53562325D01*
X104012800Y-53415071D01*
X104012800Y-53264929D01*
X104042090Y-53117675D01*
X104099547Y-52978962D01*
X104182958Y-52854128D01*
X104289128Y-52747958D01*
X104413962Y-52664547D01*
X104552675Y-52607090D01*
X104699929Y-52577800D01*
X104850071Y-52577800D01*
X104997325Y-52607090D01*
X104997325Y-52607090D01*
G37*
G36*
X102457325Y-52607090D02*
G01*
X102596038Y-52664547D01*
X102720872Y-52747958D01*
X102827042Y-52854128D01*
X102910453Y-52978962D01*
X102967910Y-53117675D01*
X102997200Y-53264929D01*
X102997200Y-53415071D01*
X102967910Y-53562325D01*
X102910453Y-53701038D01*
X102827042Y-53825872D01*
X102720872Y-53932042D01*
X102596038Y-54015453D01*
X102457325Y-54072910D01*
X102310071Y-54102200D01*
X102159929Y-54102200D01*
X102012675Y-54072910D01*
X101873962Y-54015453D01*
X101749128Y-53932042D01*
X101642958Y-53825872D01*
X101559547Y-53701038D01*
X101502090Y-53562325D01*
X101472800Y-53415071D01*
X101472800Y-53264929D01*
X101502090Y-53117675D01*
X101559547Y-52978962D01*
X101642958Y-52854128D01*
X101749128Y-52747958D01*
X101873962Y-52664547D01*
X102012675Y-52607090D01*
X102159929Y-52577800D01*
X102310071Y-52577800D01*
X102457325Y-52607090D01*
X102457325Y-52607090D01*
G37*
G36*
X127857325Y-50067090D02*
G01*
X127996038Y-50124547D01*
X128120872Y-50207958D01*
X128227042Y-50314128D01*
X128310453Y-50438962D01*
X128367910Y-50577675D01*
X128397200Y-50724929D01*
X128397200Y-50875071D01*
X128367910Y-51022325D01*
X128310453Y-51161038D01*
X128227042Y-51285872D01*
X128120872Y-51392042D01*
X127996038Y-51475453D01*
X127857325Y-51532910D01*
X127710071Y-51562200D01*
X127559929Y-51562200D01*
X127412675Y-51532910D01*
X127273962Y-51475453D01*
X127149128Y-51392042D01*
X127042958Y-51285872D01*
X126959547Y-51161038D01*
X126902090Y-51022325D01*
X126872800Y-50875071D01*
X126872800Y-50724929D01*
X126902090Y-50577675D01*
X126959547Y-50438962D01*
X127042958Y-50314128D01*
X127149128Y-50207958D01*
X127273962Y-50124547D01*
X127412675Y-50067090D01*
X127559929Y-50037800D01*
X127710071Y-50037800D01*
X127857325Y-50067090D01*
X127857325Y-50067090D01*
G37*
G36*
X125317325Y-50067090D02*
G01*
X125456038Y-50124547D01*
X125580872Y-50207958D01*
X125687042Y-50314128D01*
X125770453Y-50438962D01*
X125827910Y-50577675D01*
X125857200Y-50724929D01*
X125857200Y-50875071D01*
X125827910Y-51022325D01*
X125770453Y-51161038D01*
X125687042Y-51285872D01*
X125580872Y-51392042D01*
X125456038Y-51475453D01*
X125317325Y-51532910D01*
X125170071Y-51562200D01*
X125019929Y-51562200D01*
X124872675Y-51532910D01*
X124733962Y-51475453D01*
X124609128Y-51392042D01*
X124502958Y-51285872D01*
X124419547Y-51161038D01*
X124362090Y-51022325D01*
X124332800Y-50875071D01*
X124332800Y-50724929D01*
X124362090Y-50577675D01*
X124419547Y-50438962D01*
X124502958Y-50314128D01*
X124609128Y-50207958D01*
X124733962Y-50124547D01*
X124872675Y-50067090D01*
X125019929Y-50037800D01*
X125170071Y-50037800D01*
X125317325Y-50067090D01*
X125317325Y-50067090D01*
G37*
G36*
X104997325Y-50067090D02*
G01*
X105136038Y-50124547D01*
X105260872Y-50207958D01*
X105367042Y-50314128D01*
X105450453Y-50438962D01*
X105507910Y-50577675D01*
X105537200Y-50724929D01*
X105537200Y-50875071D01*
X105507910Y-51022325D01*
X105450453Y-51161038D01*
X105367042Y-51285872D01*
X105260872Y-51392042D01*
X105136038Y-51475453D01*
X104997325Y-51532910D01*
X104850071Y-51562200D01*
X104699929Y-51562200D01*
X104552675Y-51532910D01*
X104413962Y-51475453D01*
X104289128Y-51392042D01*
X104182958Y-51285872D01*
X104099547Y-51161038D01*
X104042090Y-51022325D01*
X104012800Y-50875071D01*
X104012800Y-50724929D01*
X104042090Y-50577675D01*
X104099547Y-50438962D01*
X104182958Y-50314128D01*
X104289128Y-50207958D01*
X104413962Y-50124547D01*
X104552675Y-50067090D01*
X104699929Y-50037800D01*
X104850071Y-50037800D01*
X104997325Y-50067090D01*
X104997325Y-50067090D01*
G37*
G36*
X102457325Y-50067090D02*
G01*
X102596038Y-50124547D01*
X102720872Y-50207958D01*
X102827042Y-50314128D01*
X102910453Y-50438962D01*
X102967910Y-50577675D01*
X102997200Y-50724929D01*
X102997200Y-50875071D01*
X102967910Y-51022325D01*
X102910453Y-51161038D01*
X102827042Y-51285872D01*
X102720872Y-51392042D01*
X102596038Y-51475453D01*
X102457325Y-51532910D01*
X102310071Y-51562200D01*
X102159929Y-51562200D01*
X102012675Y-51532910D01*
X101873962Y-51475453D01*
X101749128Y-51392042D01*
X101642958Y-51285872D01*
X101559547Y-51161038D01*
X101502090Y-51022325D01*
X101472800Y-50875071D01*
X101472800Y-50724929D01*
X101502090Y-50577675D01*
X101559547Y-50438962D01*
X101642958Y-50314128D01*
X101749128Y-50207958D01*
X101873962Y-50124547D01*
X102012675Y-50067090D01*
X102159929Y-50037800D01*
X102310071Y-50037800D01*
X102457325Y-50067090D01*
X102457325Y-50067090D01*
G37*
G36*
X125317325Y-47527090D02*
G01*
X125456038Y-47584547D01*
X125580872Y-47667958D01*
X125687042Y-47774128D01*
X125770453Y-47898962D01*
X125827910Y-48037675D01*
X125857200Y-48184929D01*
X125857200Y-48335071D01*
X125827910Y-48482325D01*
X125770453Y-48621038D01*
X125687042Y-48745872D01*
X125580872Y-48852042D01*
X125456038Y-48935453D01*
X125317325Y-48992910D01*
X125170071Y-49022200D01*
X125019929Y-49022200D01*
X124872675Y-48992910D01*
X124733962Y-48935453D01*
X124609128Y-48852042D01*
X124502958Y-48745872D01*
X124419547Y-48621038D01*
X124362090Y-48482325D01*
X124332800Y-48335071D01*
X124332800Y-48184929D01*
X124362090Y-48037675D01*
X124419547Y-47898962D01*
X124502958Y-47774128D01*
X124609128Y-47667958D01*
X124733962Y-47584547D01*
X124872675Y-47527090D01*
X125019929Y-47497800D01*
X125170071Y-47497800D01*
X125317325Y-47527090D01*
X125317325Y-47527090D01*
G37*
G36*
X127857325Y-47527090D02*
G01*
X127996038Y-47584547D01*
X128120872Y-47667958D01*
X128227042Y-47774128D01*
X128310453Y-47898962D01*
X128367910Y-48037675D01*
X128397200Y-48184929D01*
X128397200Y-48335071D01*
X128367910Y-48482325D01*
X128310453Y-48621038D01*
X128227042Y-48745872D01*
X128120872Y-48852042D01*
X127996038Y-48935453D01*
X127857325Y-48992910D01*
X127710071Y-49022200D01*
X127559929Y-49022200D01*
X127412675Y-48992910D01*
X127273962Y-48935453D01*
X127149128Y-48852042D01*
X127042958Y-48745872D01*
X126959547Y-48621038D01*
X126902090Y-48482325D01*
X126872800Y-48335071D01*
X126872800Y-48184929D01*
X126902090Y-48037675D01*
X126959547Y-47898962D01*
X127042958Y-47774128D01*
X127149128Y-47667958D01*
X127273962Y-47584547D01*
X127412675Y-47527090D01*
X127559929Y-47497800D01*
X127710071Y-47497800D01*
X127857325Y-47527090D01*
X127857325Y-47527090D01*
G37*
G36*
X104997325Y-47527090D02*
G01*
X105136038Y-47584547D01*
X105260872Y-47667958D01*
X105367042Y-47774128D01*
X105450453Y-47898962D01*
X105507910Y-48037675D01*
X105537200Y-48184929D01*
X105537200Y-48335071D01*
X105507910Y-48482325D01*
X105450453Y-48621038D01*
X105367042Y-48745872D01*
X105260872Y-48852042D01*
X105136038Y-48935453D01*
X104997325Y-48992910D01*
X104850071Y-49022200D01*
X104699929Y-49022200D01*
X104552675Y-48992910D01*
X104413962Y-48935453D01*
X104289128Y-48852042D01*
X104182958Y-48745872D01*
X104099547Y-48621038D01*
X104042090Y-48482325D01*
X104012800Y-48335071D01*
X104012800Y-48184929D01*
X104042090Y-48037675D01*
X104099547Y-47898962D01*
X104182958Y-47774128D01*
X104289128Y-47667958D01*
X104413962Y-47584547D01*
X104552675Y-47527090D01*
X104699929Y-47497800D01*
X104850071Y-47497800D01*
X104997325Y-47527090D01*
X104997325Y-47527090D01*
G37*
G36*
X102457325Y-47527090D02*
G01*
X102596038Y-47584547D01*
X102720872Y-47667958D01*
X102827042Y-47774128D01*
X102910453Y-47898962D01*
X102967910Y-48037675D01*
X102997200Y-48184929D01*
X102997200Y-48335071D01*
X102967910Y-48482325D01*
X102910453Y-48621038D01*
X102827042Y-48745872D01*
X102720872Y-48852042D01*
X102596038Y-48935453D01*
X102457325Y-48992910D01*
X102310071Y-49022200D01*
X102159929Y-49022200D01*
X102012675Y-48992910D01*
X101873962Y-48935453D01*
X101749128Y-48852042D01*
X101642958Y-48745872D01*
X101559547Y-48621038D01*
X101502090Y-48482325D01*
X101472800Y-48335071D01*
X101472800Y-48184929D01*
X101502090Y-48037675D01*
X101559547Y-47898962D01*
X101642958Y-47774128D01*
X101749128Y-47667958D01*
X101873962Y-47584547D01*
X102012675Y-47527090D01*
X102159929Y-47497800D01*
X102310071Y-47497800D01*
X102457325Y-47527090D01*
X102457325Y-47527090D01*
G37*
G36*
X102457325Y-44987090D02*
G01*
X102596038Y-45044547D01*
X102720872Y-45127958D01*
X102827042Y-45234128D01*
X102910453Y-45358962D01*
X102967910Y-45497675D01*
X102997200Y-45644929D01*
X102997200Y-45795071D01*
X102967910Y-45942325D01*
X102910453Y-46081038D01*
X102827042Y-46205872D01*
X102720872Y-46312042D01*
X102596038Y-46395453D01*
X102457325Y-46452910D01*
X102310071Y-46482200D01*
X102159929Y-46482200D01*
X102012675Y-46452910D01*
X101873962Y-46395453D01*
X101749128Y-46312042D01*
X101642958Y-46205872D01*
X101559547Y-46081038D01*
X101502090Y-45942325D01*
X101472800Y-45795071D01*
X101472800Y-45644929D01*
X101502090Y-45497675D01*
X101559547Y-45358962D01*
X101642958Y-45234128D01*
X101749128Y-45127958D01*
X101873962Y-45044547D01*
X102012675Y-44987090D01*
X102159929Y-44957800D01*
X102310071Y-44957800D01*
X102457325Y-44987090D01*
X102457325Y-44987090D01*
G37*
G36*
X125317325Y-44987090D02*
G01*
X125456038Y-45044547D01*
X125580872Y-45127958D01*
X125687042Y-45234128D01*
X125770453Y-45358962D01*
X125827910Y-45497675D01*
X125857200Y-45644929D01*
X125857200Y-45795071D01*
X125827910Y-45942325D01*
X125770453Y-46081038D01*
X125687042Y-46205872D01*
X125580872Y-46312042D01*
X125456038Y-46395453D01*
X125317325Y-46452910D01*
X125170071Y-46482200D01*
X125019929Y-46482200D01*
X124872675Y-46452910D01*
X124733962Y-46395453D01*
X124609128Y-46312042D01*
X124502958Y-46205872D01*
X124419547Y-46081038D01*
X124362090Y-45942325D01*
X124332800Y-45795071D01*
X124332800Y-45644929D01*
X124362090Y-45497675D01*
X124419547Y-45358962D01*
X124502958Y-45234128D01*
X124609128Y-45127958D01*
X124733962Y-45044547D01*
X124872675Y-44987090D01*
X125019929Y-44957800D01*
X125170071Y-44957800D01*
X125317325Y-44987090D01*
X125317325Y-44987090D01*
G37*
G36*
X127857325Y-44987090D02*
G01*
X127996038Y-45044547D01*
X128120872Y-45127958D01*
X128227042Y-45234128D01*
X128310453Y-45358962D01*
X128367910Y-45497675D01*
X128397200Y-45644929D01*
X128397200Y-45795071D01*
X128367910Y-45942325D01*
X128310453Y-46081038D01*
X128227042Y-46205872D01*
X128120872Y-46312042D01*
X127996038Y-46395453D01*
X127857325Y-46452910D01*
X127710071Y-46482200D01*
X127559929Y-46482200D01*
X127412675Y-46452910D01*
X127273962Y-46395453D01*
X127149128Y-46312042D01*
X127042958Y-46205872D01*
X126959547Y-46081038D01*
X126902090Y-45942325D01*
X126872800Y-45795071D01*
X126872800Y-45644929D01*
X126902090Y-45497675D01*
X126959547Y-45358962D01*
X127042958Y-45234128D01*
X127149128Y-45127958D01*
X127273962Y-45044547D01*
X127412675Y-44987090D01*
X127559929Y-44957800D01*
X127710071Y-44957800D01*
X127857325Y-44987090D01*
X127857325Y-44987090D01*
G37*
G36*
X104997325Y-44987090D02*
G01*
X105136038Y-45044547D01*
X105260872Y-45127958D01*
X105367042Y-45234128D01*
X105450453Y-45358962D01*
X105507910Y-45497675D01*
X105537200Y-45644929D01*
X105537200Y-45795071D01*
X105507910Y-45942325D01*
X105450453Y-46081038D01*
X105367042Y-46205872D01*
X105260872Y-46312042D01*
X105136038Y-46395453D01*
X104997325Y-46452910D01*
X104850071Y-46482200D01*
X104699929Y-46482200D01*
X104552675Y-46452910D01*
X104413962Y-46395453D01*
X104289128Y-46312042D01*
X104182958Y-46205872D01*
X104099547Y-46081038D01*
X104042090Y-45942325D01*
X104012800Y-45795071D01*
X104012800Y-45644929D01*
X104042090Y-45497675D01*
X104099547Y-45358962D01*
X104182958Y-45234128D01*
X104289128Y-45127958D01*
X104413962Y-45044547D01*
X104552675Y-44987090D01*
X104699929Y-44957800D01*
X104850071Y-44957800D01*
X104997325Y-44987090D01*
X104997325Y-44987090D01*
G37*
G36*
X104997325Y-42447090D02*
G01*
X105136038Y-42504547D01*
X105260872Y-42587958D01*
X105367042Y-42694128D01*
X105450453Y-42818962D01*
X105507910Y-42957675D01*
X105537200Y-43104929D01*
X105537200Y-43255071D01*
X105507910Y-43402325D01*
X105450453Y-43541038D01*
X105367042Y-43665872D01*
X105260872Y-43772042D01*
X105136038Y-43855453D01*
X104997325Y-43912910D01*
X104850071Y-43942200D01*
X104699929Y-43942200D01*
X104552675Y-43912910D01*
X104413962Y-43855453D01*
X104289128Y-43772042D01*
X104182958Y-43665872D01*
X104099547Y-43541038D01*
X104042090Y-43402325D01*
X104012800Y-43255071D01*
X104012800Y-43104929D01*
X104042090Y-42957675D01*
X104099547Y-42818962D01*
X104182958Y-42694128D01*
X104289128Y-42587958D01*
X104413962Y-42504547D01*
X104552675Y-42447090D01*
X104699929Y-42417800D01*
X104850071Y-42417800D01*
X104997325Y-42447090D01*
X104997325Y-42447090D01*
G37*
G36*
X122777325Y-42447090D02*
G01*
X122916038Y-42504547D01*
X123040872Y-42587958D01*
X123147042Y-42694128D01*
X123230453Y-42818962D01*
X123287910Y-42957675D01*
X123317200Y-43104929D01*
X123317200Y-43255071D01*
X123287910Y-43402325D01*
X123230453Y-43541038D01*
X123147042Y-43665872D01*
X123040872Y-43772042D01*
X122916038Y-43855453D01*
X122777325Y-43912910D01*
X122630071Y-43942200D01*
X122479929Y-43942200D01*
X122332675Y-43912910D01*
X122193962Y-43855453D01*
X122069128Y-43772042D01*
X121962958Y-43665872D01*
X121879547Y-43541038D01*
X121822090Y-43402325D01*
X121792800Y-43255071D01*
X121792800Y-43104929D01*
X121822090Y-42957675D01*
X121879547Y-42818962D01*
X121962958Y-42694128D01*
X122069128Y-42587958D01*
X122193962Y-42504547D01*
X122332675Y-42447090D01*
X122479929Y-42417800D01*
X122630071Y-42417800D01*
X122777325Y-42447090D01*
X122777325Y-42447090D01*
G37*
G36*
X107537325Y-42447090D02*
G01*
X107676038Y-42504547D01*
X107800872Y-42587958D01*
X107907042Y-42694128D01*
X107990453Y-42818962D01*
X108047910Y-42957675D01*
X108077200Y-43104929D01*
X108077200Y-43255071D01*
X108047910Y-43402325D01*
X107990453Y-43541038D01*
X107907042Y-43665872D01*
X107800872Y-43772042D01*
X107676038Y-43855453D01*
X107537325Y-43912910D01*
X107390071Y-43942200D01*
X107239929Y-43942200D01*
X107092675Y-43912910D01*
X106953962Y-43855453D01*
X106829128Y-43772042D01*
X106722958Y-43665872D01*
X106639547Y-43541038D01*
X106582090Y-43402325D01*
X106552800Y-43255071D01*
X106552800Y-43104929D01*
X106582090Y-42957675D01*
X106639547Y-42818962D01*
X106722958Y-42694128D01*
X106829128Y-42587958D01*
X106953962Y-42504547D01*
X107092675Y-42447090D01*
X107239929Y-42417800D01*
X107390071Y-42417800D01*
X107537325Y-42447090D01*
X107537325Y-42447090D01*
G37*
G36*
X110077325Y-42447090D02*
G01*
X110216038Y-42504547D01*
X110340872Y-42587958D01*
X110447042Y-42694128D01*
X110530453Y-42818962D01*
X110587910Y-42957675D01*
X110617200Y-43104929D01*
X110617200Y-43255071D01*
X110587910Y-43402325D01*
X110530453Y-43541038D01*
X110447042Y-43665872D01*
X110340872Y-43772042D01*
X110216038Y-43855453D01*
X110077325Y-43912910D01*
X109930071Y-43942200D01*
X109779929Y-43942200D01*
X109632675Y-43912910D01*
X109493962Y-43855453D01*
X109369128Y-43772042D01*
X109262958Y-43665872D01*
X109179547Y-43541038D01*
X109122090Y-43402325D01*
X109092800Y-43255071D01*
X109092800Y-43104929D01*
X109122090Y-42957675D01*
X109179547Y-42818962D01*
X109262958Y-42694128D01*
X109369128Y-42587958D01*
X109493962Y-42504547D01*
X109632675Y-42447090D01*
X109779929Y-42417800D01*
X109930071Y-42417800D01*
X110077325Y-42447090D01*
X110077325Y-42447090D01*
G37*
G36*
X112617325Y-42447090D02*
G01*
X112756038Y-42504547D01*
X112880872Y-42587958D01*
X112987042Y-42694128D01*
X113070453Y-42818962D01*
X113127910Y-42957675D01*
X113157200Y-43104929D01*
X113157200Y-43255071D01*
X113127910Y-43402325D01*
X113070453Y-43541038D01*
X112987042Y-43665872D01*
X112880872Y-43772042D01*
X112756038Y-43855453D01*
X112617325Y-43912910D01*
X112470071Y-43942200D01*
X112319929Y-43942200D01*
X112172675Y-43912910D01*
X112033962Y-43855453D01*
X111909128Y-43772042D01*
X111802958Y-43665872D01*
X111719547Y-43541038D01*
X111662090Y-43402325D01*
X111632800Y-43255071D01*
X111632800Y-43104929D01*
X111662090Y-42957675D01*
X111719547Y-42818962D01*
X111802958Y-42694128D01*
X111909128Y-42587958D01*
X112033962Y-42504547D01*
X112172675Y-42447090D01*
X112319929Y-42417800D01*
X112470071Y-42417800D01*
X112617325Y-42447090D01*
X112617325Y-42447090D01*
G37*
G36*
X115157325Y-42447090D02*
G01*
X115296038Y-42504547D01*
X115420872Y-42587958D01*
X115527042Y-42694128D01*
X115610453Y-42818962D01*
X115667910Y-42957675D01*
X115697200Y-43104929D01*
X115697200Y-43255071D01*
X115667910Y-43402325D01*
X115610453Y-43541038D01*
X115527042Y-43665872D01*
X115420872Y-43772042D01*
X115296038Y-43855453D01*
X115157325Y-43912910D01*
X115010071Y-43942200D01*
X114859929Y-43942200D01*
X114712675Y-43912910D01*
X114573962Y-43855453D01*
X114449128Y-43772042D01*
X114342958Y-43665872D01*
X114259547Y-43541038D01*
X114202090Y-43402325D01*
X114172800Y-43255071D01*
X114172800Y-43104929D01*
X114202090Y-42957675D01*
X114259547Y-42818962D01*
X114342958Y-42694128D01*
X114449128Y-42587958D01*
X114573962Y-42504547D01*
X114712675Y-42447090D01*
X114859929Y-42417800D01*
X115010071Y-42417800D01*
X115157325Y-42447090D01*
X115157325Y-42447090D01*
G37*
G36*
X127857325Y-42447090D02*
G01*
X127996038Y-42504547D01*
X128120872Y-42587958D01*
X128227042Y-42694128D01*
X128310453Y-42818962D01*
X128367910Y-42957675D01*
X128397200Y-43104929D01*
X128397200Y-43255071D01*
X128367910Y-43402325D01*
X128310453Y-43541038D01*
X128227042Y-43665872D01*
X128120872Y-43772042D01*
X127996038Y-43855453D01*
X127857325Y-43912910D01*
X127710071Y-43942200D01*
X127559929Y-43942200D01*
X127412675Y-43912910D01*
X127273962Y-43855453D01*
X127149128Y-43772042D01*
X127042958Y-43665872D01*
X126959547Y-43541038D01*
X126902090Y-43402325D01*
X126872800Y-43255071D01*
X126872800Y-43104929D01*
X126902090Y-42957675D01*
X126959547Y-42818962D01*
X127042958Y-42694128D01*
X127149128Y-42587958D01*
X127273962Y-42504547D01*
X127412675Y-42447090D01*
X127559929Y-42417800D01*
X127710071Y-42417800D01*
X127857325Y-42447090D01*
X127857325Y-42447090D01*
G37*
G36*
X102457325Y-42447090D02*
G01*
X102596038Y-42504547D01*
X102720872Y-42587958D01*
X102827042Y-42694128D01*
X102910453Y-42818962D01*
X102967910Y-42957675D01*
X102997200Y-43104929D01*
X102997200Y-43255071D01*
X102967910Y-43402325D01*
X102910453Y-43541038D01*
X102827042Y-43665872D01*
X102720872Y-43772042D01*
X102596038Y-43855453D01*
X102457325Y-43912910D01*
X102310071Y-43942200D01*
X102159929Y-43942200D01*
X102012675Y-43912910D01*
X101873962Y-43855453D01*
X101749128Y-43772042D01*
X101642958Y-43665872D01*
X101559547Y-43541038D01*
X101502090Y-43402325D01*
X101472800Y-43255071D01*
X101472800Y-43104929D01*
X101502090Y-42957675D01*
X101559547Y-42818962D01*
X101642958Y-42694128D01*
X101749128Y-42587958D01*
X101873962Y-42504547D01*
X102012675Y-42447090D01*
X102159929Y-42417800D01*
X102310071Y-42417800D01*
X102457325Y-42447090D01*
X102457325Y-42447090D01*
G37*
G36*
X117697325Y-42447090D02*
G01*
X117836038Y-42504547D01*
X117960872Y-42587958D01*
X118067042Y-42694128D01*
X118150453Y-42818962D01*
X118207910Y-42957675D01*
X118237200Y-43104929D01*
X118237200Y-43255071D01*
X118207910Y-43402325D01*
X118150453Y-43541038D01*
X118067042Y-43665872D01*
X117960872Y-43772042D01*
X117836038Y-43855453D01*
X117697325Y-43912910D01*
X117550071Y-43942200D01*
X117399929Y-43942200D01*
X117252675Y-43912910D01*
X117113962Y-43855453D01*
X116989128Y-43772042D01*
X116882958Y-43665872D01*
X116799547Y-43541038D01*
X116742090Y-43402325D01*
X116712800Y-43255071D01*
X116712800Y-43104929D01*
X116742090Y-42957675D01*
X116799547Y-42818962D01*
X116882958Y-42694128D01*
X116989128Y-42587958D01*
X117113962Y-42504547D01*
X117252675Y-42447090D01*
X117399929Y-42417800D01*
X117550071Y-42417800D01*
X117697325Y-42447090D01*
X117697325Y-42447090D01*
G37*
G36*
X125317325Y-42447090D02*
G01*
X125456038Y-42504547D01*
X125580872Y-42587958D01*
X125687042Y-42694128D01*
X125770453Y-42818962D01*
X125827910Y-42957675D01*
X125857200Y-43104929D01*
X125857200Y-43255071D01*
X125827910Y-43402325D01*
X125770453Y-43541038D01*
X125687042Y-43665872D01*
X125580872Y-43772042D01*
X125456038Y-43855453D01*
X125317325Y-43912910D01*
X125170071Y-43942200D01*
X125019929Y-43942200D01*
X124872675Y-43912910D01*
X124733962Y-43855453D01*
X124609128Y-43772042D01*
X124502958Y-43665872D01*
X124419547Y-43541038D01*
X124362090Y-43402325D01*
X124332800Y-43255071D01*
X124332800Y-43104929D01*
X124362090Y-42957675D01*
X124419547Y-42818962D01*
X124502958Y-42694128D01*
X124609128Y-42587958D01*
X124733962Y-42504547D01*
X124872675Y-42447090D01*
X125019929Y-42417800D01*
X125170071Y-42417800D01*
X125317325Y-42447090D01*
X125317325Y-42447090D01*
G37*
G36*
X120237325Y-42447090D02*
G01*
X120376038Y-42504547D01*
X120500872Y-42587958D01*
X120607042Y-42694128D01*
X120690453Y-42818962D01*
X120747910Y-42957675D01*
X120777200Y-43104929D01*
X120777200Y-43255071D01*
X120747910Y-43402325D01*
X120690453Y-43541038D01*
X120607042Y-43665872D01*
X120500872Y-43772042D01*
X120376038Y-43855453D01*
X120237325Y-43912910D01*
X120090071Y-43942200D01*
X119939929Y-43942200D01*
X119792675Y-43912910D01*
X119653962Y-43855453D01*
X119529128Y-43772042D01*
X119422958Y-43665872D01*
X119339547Y-43541038D01*
X119282090Y-43402325D01*
X119252800Y-43255071D01*
X119252800Y-43104929D01*
X119282090Y-42957675D01*
X119339547Y-42818962D01*
X119422958Y-42694128D01*
X119529128Y-42587958D01*
X119653962Y-42504547D01*
X119792675Y-42447090D01*
X119939929Y-42417800D01*
X120090071Y-42417800D01*
X120237325Y-42447090D01*
X120237325Y-42447090D01*
G37*
G36*
X115697200Y-41402200D02*
G01*
X114172800Y-41402200D01*
X114172800Y-39877800D01*
X115697200Y-39877800D01*
X115697200Y-41402200D01*
X115697200Y-41402200D01*
G37*
G36*
X112617325Y-39907090D02*
G01*
X112756038Y-39964547D01*
X112880872Y-40047958D01*
X112987042Y-40154128D01*
X113070453Y-40278962D01*
X113127910Y-40417675D01*
X113157200Y-40564929D01*
X113157200Y-40715071D01*
X113127910Y-40862325D01*
X113070453Y-41001038D01*
X112987042Y-41125872D01*
X112880872Y-41232042D01*
X112756038Y-41315453D01*
X112617325Y-41372910D01*
X112470071Y-41402200D01*
X112319929Y-41402200D01*
X112172675Y-41372910D01*
X112033962Y-41315453D01*
X111909128Y-41232042D01*
X111802958Y-41125872D01*
X111719547Y-41001038D01*
X111662090Y-40862325D01*
X111632800Y-40715071D01*
X111632800Y-40564929D01*
X111662090Y-40417675D01*
X111719547Y-40278962D01*
X111802958Y-40154128D01*
X111909128Y-40047958D01*
X112033962Y-39964547D01*
X112172675Y-39907090D01*
X112319929Y-39877800D01*
X112470071Y-39877800D01*
X112617325Y-39907090D01*
X112617325Y-39907090D01*
G37*
G36*
X110077325Y-39907090D02*
G01*
X110216038Y-39964547D01*
X110340872Y-40047958D01*
X110447042Y-40154128D01*
X110530453Y-40278962D01*
X110587910Y-40417675D01*
X110617200Y-40564929D01*
X110617200Y-40715071D01*
X110587910Y-40862325D01*
X110530453Y-41001038D01*
X110447042Y-41125872D01*
X110340872Y-41232042D01*
X110216038Y-41315453D01*
X110077325Y-41372910D01*
X109930071Y-41402200D01*
X109779929Y-41402200D01*
X109632675Y-41372910D01*
X109493962Y-41315453D01*
X109369128Y-41232042D01*
X109262958Y-41125872D01*
X109179547Y-41001038D01*
X109122090Y-40862325D01*
X109092800Y-40715071D01*
X109092800Y-40564929D01*
X109122090Y-40417675D01*
X109179547Y-40278962D01*
X109262958Y-40154128D01*
X109369128Y-40047958D01*
X109493962Y-39964547D01*
X109632675Y-39907090D01*
X109779929Y-39877800D01*
X109930071Y-39877800D01*
X110077325Y-39907090D01*
X110077325Y-39907090D01*
G37*
G36*
X107537325Y-39907090D02*
G01*
X107676038Y-39964547D01*
X107800872Y-40047958D01*
X107907042Y-40154128D01*
X107990453Y-40278962D01*
X108047910Y-40417675D01*
X108077200Y-40564929D01*
X108077200Y-40715071D01*
X108047910Y-40862325D01*
X107990453Y-41001038D01*
X107907042Y-41125872D01*
X107800872Y-41232042D01*
X107676038Y-41315453D01*
X107537325Y-41372910D01*
X107390071Y-41402200D01*
X107239929Y-41402200D01*
X107092675Y-41372910D01*
X106953962Y-41315453D01*
X106829128Y-41232042D01*
X106722958Y-41125872D01*
X106639547Y-41001038D01*
X106582090Y-40862325D01*
X106552800Y-40715071D01*
X106552800Y-40564929D01*
X106582090Y-40417675D01*
X106639547Y-40278962D01*
X106722958Y-40154128D01*
X106829128Y-40047958D01*
X106953962Y-39964547D01*
X107092675Y-39907090D01*
X107239929Y-39877800D01*
X107390071Y-39877800D01*
X107537325Y-39907090D01*
X107537325Y-39907090D01*
G37*
G36*
X125317325Y-39907090D02*
G01*
X125456038Y-39964547D01*
X125580872Y-40047958D01*
X125687042Y-40154128D01*
X125770453Y-40278962D01*
X125827910Y-40417675D01*
X125857200Y-40564929D01*
X125857200Y-40715071D01*
X125827910Y-40862325D01*
X125770453Y-41001038D01*
X125687042Y-41125872D01*
X125580872Y-41232042D01*
X125456038Y-41315453D01*
X125317325Y-41372910D01*
X125170071Y-41402200D01*
X125019929Y-41402200D01*
X124872675Y-41372910D01*
X124733962Y-41315453D01*
X124609128Y-41232042D01*
X124502958Y-41125872D01*
X124419547Y-41001038D01*
X124362090Y-40862325D01*
X124332800Y-40715071D01*
X124332800Y-40564929D01*
X124362090Y-40417675D01*
X124419547Y-40278962D01*
X124502958Y-40154128D01*
X124609128Y-40047958D01*
X124733962Y-39964547D01*
X124872675Y-39907090D01*
X125019929Y-39877800D01*
X125170071Y-39877800D01*
X125317325Y-39907090D01*
X125317325Y-39907090D01*
G37*
G36*
X104997325Y-39907090D02*
G01*
X105136038Y-39964547D01*
X105260872Y-40047958D01*
X105367042Y-40154128D01*
X105450453Y-40278962D01*
X105507910Y-40417675D01*
X105537200Y-40564929D01*
X105537200Y-40715071D01*
X105507910Y-40862325D01*
X105450453Y-41001038D01*
X105367042Y-41125872D01*
X105260872Y-41232042D01*
X105136038Y-41315453D01*
X104997325Y-41372910D01*
X104850071Y-41402200D01*
X104699929Y-41402200D01*
X104552675Y-41372910D01*
X104413962Y-41315453D01*
X104289128Y-41232042D01*
X104182958Y-41125872D01*
X104099547Y-41001038D01*
X104042090Y-40862325D01*
X104012800Y-40715071D01*
X104012800Y-40564929D01*
X104042090Y-40417675D01*
X104099547Y-40278962D01*
X104182958Y-40154128D01*
X104289128Y-40047958D01*
X104413962Y-39964547D01*
X104552675Y-39907090D01*
X104699929Y-39877800D01*
X104850071Y-39877800D01*
X104997325Y-39907090D01*
X104997325Y-39907090D01*
G37*
G36*
X117697325Y-39907090D02*
G01*
X117836038Y-39964547D01*
X117960872Y-40047958D01*
X118067042Y-40154128D01*
X118150453Y-40278962D01*
X118207910Y-40417675D01*
X118237200Y-40564929D01*
X118237200Y-40715071D01*
X118207910Y-40862325D01*
X118150453Y-41001038D01*
X118067042Y-41125872D01*
X117960872Y-41232042D01*
X117836038Y-41315453D01*
X117697325Y-41372910D01*
X117550071Y-41402200D01*
X117399929Y-41402200D01*
X117252675Y-41372910D01*
X117113962Y-41315453D01*
X116989128Y-41232042D01*
X116882958Y-41125872D01*
X116799547Y-41001038D01*
X116742090Y-40862325D01*
X116712800Y-40715071D01*
X116712800Y-40564929D01*
X116742090Y-40417675D01*
X116799547Y-40278962D01*
X116882958Y-40154128D01*
X116989128Y-40047958D01*
X117113962Y-39964547D01*
X117252675Y-39907090D01*
X117399929Y-39877800D01*
X117550071Y-39877800D01*
X117697325Y-39907090D01*
X117697325Y-39907090D01*
G37*
G36*
X120237325Y-39907090D02*
G01*
X120376038Y-39964547D01*
X120500872Y-40047958D01*
X120607042Y-40154128D01*
X120690453Y-40278962D01*
X120747910Y-40417675D01*
X120777200Y-40564929D01*
X120777200Y-40715071D01*
X120747910Y-40862325D01*
X120690453Y-41001038D01*
X120607042Y-41125872D01*
X120500872Y-41232042D01*
X120376038Y-41315453D01*
X120237325Y-41372910D01*
X120090071Y-41402200D01*
X119939929Y-41402200D01*
X119792675Y-41372910D01*
X119653962Y-41315453D01*
X119529128Y-41232042D01*
X119422958Y-41125872D01*
X119339547Y-41001038D01*
X119282090Y-40862325D01*
X119252800Y-40715071D01*
X119252800Y-40564929D01*
X119282090Y-40417675D01*
X119339547Y-40278962D01*
X119422958Y-40154128D01*
X119529128Y-40047958D01*
X119653962Y-39964547D01*
X119792675Y-39907090D01*
X119939929Y-39877800D01*
X120090071Y-39877800D01*
X120237325Y-39907090D01*
X120237325Y-39907090D01*
G37*
G36*
X122777325Y-39907090D02*
G01*
X122916038Y-39964547D01*
X123040872Y-40047958D01*
X123147042Y-40154128D01*
X123230453Y-40278962D01*
X123287910Y-40417675D01*
X123317200Y-40564929D01*
X123317200Y-40715071D01*
X123287910Y-40862325D01*
X123230453Y-41001038D01*
X123147042Y-41125872D01*
X123040872Y-41232042D01*
X122916038Y-41315453D01*
X122777325Y-41372910D01*
X122630071Y-41402200D01*
X122479929Y-41402200D01*
X122332675Y-41372910D01*
X122193962Y-41315453D01*
X122069128Y-41232042D01*
X121962958Y-41125872D01*
X121879547Y-41001038D01*
X121822090Y-40862325D01*
X121792800Y-40715071D01*
X121792800Y-40564929D01*
X121822090Y-40417675D01*
X121879547Y-40278962D01*
X121962958Y-40154128D01*
X122069128Y-40047958D01*
X122193962Y-39964547D01*
X122332675Y-39907090D01*
X122479929Y-39877800D01*
X122630071Y-39877800D01*
X122777325Y-39907090D01*
X122777325Y-39907090D01*
G37*
G36*
X146697000Y-38429500D02*
G01*
X144895000Y-38429500D01*
X144895000Y-36627500D01*
X146697000Y-36627500D01*
X146697000Y-38429500D01*
X146697000Y-38429500D01*
G37*
G36*
X143366442Y-36634018D02*
G01*
X143432627Y-36640537D01*
X143602466Y-36692057D01*
X143758991Y-36775722D01*
X143794729Y-36805052D01*
X143896186Y-36888314D01*
X143979448Y-36989771D01*
X144008778Y-37025509D01*
X144092443Y-37182034D01*
X144143963Y-37351873D01*
X144161359Y-37528500D01*
X144143963Y-37705127D01*
X144092443Y-37874966D01*
X144008778Y-38031491D01*
X143979448Y-38067229D01*
X143896186Y-38168686D01*
X143794729Y-38251948D01*
X143758991Y-38281278D01*
X143602466Y-38364943D01*
X143432627Y-38416463D01*
X143366443Y-38422981D01*
X143300260Y-38429500D01*
X143211740Y-38429500D01*
X143145557Y-38422981D01*
X143079373Y-38416463D01*
X142909534Y-38364943D01*
X142753009Y-38281278D01*
X142717271Y-38251948D01*
X142615814Y-38168686D01*
X142532552Y-38067229D01*
X142503222Y-38031491D01*
X142419557Y-37874966D01*
X142368037Y-37705127D01*
X142350641Y-37528500D01*
X142368037Y-37351873D01*
X142419557Y-37182034D01*
X142503222Y-37025509D01*
X142532552Y-36989771D01*
X142615814Y-36888314D01*
X142717271Y-36805052D01*
X142753009Y-36775722D01*
X142909534Y-36692057D01*
X143079373Y-36640537D01*
X143145558Y-36634018D01*
X143211740Y-36627500D01*
X143300260Y-36627500D01*
X143366442Y-36634018D01*
X143366442Y-36634018D01*
G37*
G36*
X140826442Y-36634018D02*
G01*
X140892627Y-36640537D01*
X141062466Y-36692057D01*
X141218991Y-36775722D01*
X141254729Y-36805052D01*
X141356186Y-36888314D01*
X141439448Y-36989771D01*
X141468778Y-37025509D01*
X141552443Y-37182034D01*
X141603963Y-37351873D01*
X141621359Y-37528500D01*
X141603963Y-37705127D01*
X141552443Y-37874966D01*
X141468778Y-38031491D01*
X141439448Y-38067229D01*
X141356186Y-38168686D01*
X141254729Y-38251948D01*
X141218991Y-38281278D01*
X141062466Y-38364943D01*
X140892627Y-38416463D01*
X140826443Y-38422981D01*
X140760260Y-38429500D01*
X140671740Y-38429500D01*
X140605557Y-38422981D01*
X140539373Y-38416463D01*
X140369534Y-38364943D01*
X140213009Y-38281278D01*
X140177271Y-38251948D01*
X140075814Y-38168686D01*
X139992552Y-38067229D01*
X139963222Y-38031491D01*
X139879557Y-37874966D01*
X139828037Y-37705127D01*
X139810641Y-37528500D01*
X139828037Y-37351873D01*
X139879557Y-37182034D01*
X139963222Y-37025509D01*
X139992552Y-36989771D01*
X140075814Y-36888314D01*
X140177271Y-36805052D01*
X140213009Y-36775722D01*
X140369534Y-36692057D01*
X140539373Y-36640537D01*
X140605558Y-36634018D01*
X140671740Y-36627500D01*
X140760260Y-36627500D01*
X140826442Y-36634018D01*
X140826442Y-36634018D01*
G37*
G36*
X138286442Y-36634018D02*
G01*
X138352627Y-36640537D01*
X138522466Y-36692057D01*
X138678991Y-36775722D01*
X138714729Y-36805052D01*
X138816186Y-36888314D01*
X138899448Y-36989771D01*
X138928778Y-37025509D01*
X139012443Y-37182034D01*
X139063963Y-37351873D01*
X139081359Y-37528500D01*
X139063963Y-37705127D01*
X139012443Y-37874966D01*
X138928778Y-38031491D01*
X138899448Y-38067229D01*
X138816186Y-38168686D01*
X138714729Y-38251948D01*
X138678991Y-38281278D01*
X138522466Y-38364943D01*
X138352627Y-38416463D01*
X138286443Y-38422981D01*
X138220260Y-38429500D01*
X138131740Y-38429500D01*
X138065557Y-38422981D01*
X137999373Y-38416463D01*
X137829534Y-38364943D01*
X137673009Y-38281278D01*
X137637271Y-38251948D01*
X137535814Y-38168686D01*
X137452552Y-38067229D01*
X137423222Y-38031491D01*
X137339557Y-37874966D01*
X137288037Y-37705127D01*
X137270641Y-37528500D01*
X137288037Y-37351873D01*
X137339557Y-37182034D01*
X137423222Y-37025509D01*
X137452552Y-36989771D01*
X137535814Y-36888314D01*
X137637271Y-36805052D01*
X137673009Y-36775722D01*
X137829534Y-36692057D01*
X137999373Y-36640537D01*
X138065558Y-36634018D01*
X138131740Y-36627500D01*
X138220260Y-36627500D01*
X138286442Y-36634018D01*
X138286442Y-36634018D01*
G37*
G36*
X135746442Y-36634018D02*
G01*
X135812627Y-36640537D01*
X135982466Y-36692057D01*
X136138991Y-36775722D01*
X136174729Y-36805052D01*
X136276186Y-36888314D01*
X136359448Y-36989771D01*
X136388778Y-37025509D01*
X136472443Y-37182034D01*
X136523963Y-37351873D01*
X136541359Y-37528500D01*
X136523963Y-37705127D01*
X136472443Y-37874966D01*
X136388778Y-38031491D01*
X136359448Y-38067229D01*
X136276186Y-38168686D01*
X136174729Y-38251948D01*
X136138991Y-38281278D01*
X135982466Y-38364943D01*
X135812627Y-38416463D01*
X135746443Y-38422981D01*
X135680260Y-38429500D01*
X135591740Y-38429500D01*
X135525557Y-38422981D01*
X135459373Y-38416463D01*
X135289534Y-38364943D01*
X135133009Y-38281278D01*
X135097271Y-38251948D01*
X134995814Y-38168686D01*
X134912552Y-38067229D01*
X134883222Y-38031491D01*
X134799557Y-37874966D01*
X134748037Y-37705127D01*
X134730641Y-37528500D01*
X134748037Y-37351873D01*
X134799557Y-37182034D01*
X134883222Y-37025509D01*
X134912552Y-36989771D01*
X134995814Y-36888314D01*
X135097271Y-36805052D01*
X135133009Y-36775722D01*
X135289534Y-36692057D01*
X135459373Y-36640537D01*
X135525558Y-36634018D01*
X135591740Y-36627500D01*
X135680260Y-36627500D01*
X135746442Y-36634018D01*
X135746442Y-36634018D01*
G37*
G36*
X133206442Y-36634018D02*
G01*
X133272627Y-36640537D01*
X133442466Y-36692057D01*
X133598991Y-36775722D01*
X133634729Y-36805052D01*
X133736186Y-36888314D01*
X133819448Y-36989771D01*
X133848778Y-37025509D01*
X133932443Y-37182034D01*
X133983963Y-37351873D01*
X134001359Y-37528500D01*
X133983963Y-37705127D01*
X133932443Y-37874966D01*
X133848778Y-38031491D01*
X133819448Y-38067229D01*
X133736186Y-38168686D01*
X133634729Y-38251948D01*
X133598991Y-38281278D01*
X133442466Y-38364943D01*
X133272627Y-38416463D01*
X133206443Y-38422981D01*
X133140260Y-38429500D01*
X133051740Y-38429500D01*
X132985557Y-38422981D01*
X132919373Y-38416463D01*
X132749534Y-38364943D01*
X132593009Y-38281278D01*
X132557271Y-38251948D01*
X132455814Y-38168686D01*
X132372552Y-38067229D01*
X132343222Y-38031491D01*
X132259557Y-37874966D01*
X132208037Y-37705127D01*
X132190641Y-37528500D01*
X132208037Y-37351873D01*
X132259557Y-37182034D01*
X132343222Y-37025509D01*
X132372552Y-36989771D01*
X132455814Y-36888314D01*
X132557271Y-36805052D01*
X132593009Y-36775722D01*
X132749534Y-36692057D01*
X132919373Y-36640537D01*
X132985558Y-36634018D01*
X133051740Y-36627500D01*
X133140260Y-36627500D01*
X133206442Y-36634018D01*
X133206442Y-36634018D01*
G37*
M02*
