G04 #@! TF.GenerationSoftware,KiCad,Pcbnew,(5.1.2-1)-1*
G04 #@! TF.CreationDate,2019-06-08T18:38:44+01:00*
G04 #@! TF.ProjectId,A500 FastRAM,41353030-2046-4617-9374-52414d2e6b69,rev?*
G04 #@! TF.SameCoordinates,Original*
G04 #@! TF.FileFunction,Copper,L3,Inr*
G04 #@! TF.FilePolarity,Positive*
%FSLAX46Y46*%
G04 Gerber Fmt 4.6, Leading zero omitted, Abs format (unit mm)*
G04 Created by KiCad (PCBNEW (5.1.2-1)-1) date 2019-06-08 18:38:44*
%MOMM*%
%LPD*%
G04 APERTURE LIST*
%ADD10R,1.700000X1.700000*%
%ADD11O,1.700000X1.700000*%
%ADD12R,2.400000X1.600000*%
%ADD13O,2.400000X1.600000*%
%ADD14C,1.422400*%
%ADD15R,1.422400X1.422400*%
%ADD16C,0.800000*%
%ADD17C,0.600000*%
%ADD18C,0.381000*%
%ADD19C,0.250000*%
G04 APERTURE END LIST*
D10*
X145796000Y-37528500D03*
D11*
X143256000Y-37528500D03*
X140716000Y-37528500D03*
X138176000Y-37528500D03*
X135636000Y-37528500D03*
X133096000Y-37528500D03*
D10*
X133985000Y-153035000D03*
D11*
X136525000Y-153035000D03*
X139065000Y-153035000D03*
D12*
X99695000Y-73660000D03*
D13*
X99695000Y-76200000D03*
X99695000Y-78740000D03*
X99695000Y-81280000D03*
X99695000Y-83820000D03*
X99695000Y-86360000D03*
X99695000Y-88900000D03*
X99695000Y-91440000D03*
X99695000Y-93980000D03*
X99695000Y-96520000D03*
X99695000Y-99060000D03*
X99695000Y-101600000D03*
X99695000Y-104140000D03*
X99695000Y-106680000D03*
X99695000Y-109220000D03*
X99695000Y-111760000D03*
X99695000Y-114300000D03*
X99695000Y-116840000D03*
X99695000Y-119380000D03*
X99695000Y-121920000D03*
X99695000Y-124460000D03*
X99695000Y-127000000D03*
X99695000Y-129540000D03*
X99695000Y-132080000D03*
X99695000Y-134620000D03*
X99695000Y-137160000D03*
X99695000Y-139700000D03*
X99695000Y-142240000D03*
X99695000Y-144780000D03*
X99695000Y-147320000D03*
X99695000Y-149860000D03*
X99695000Y-152400000D03*
X125095000Y-152400000D03*
X125095000Y-149860000D03*
X125095000Y-147320000D03*
X125095000Y-144780000D03*
X125095000Y-142240000D03*
X125095000Y-139700000D03*
X125095000Y-137160000D03*
X125095000Y-134620000D03*
X125095000Y-132080000D03*
X125095000Y-129540000D03*
X125095000Y-127000000D03*
X125095000Y-124460000D03*
X125095000Y-121920000D03*
X125095000Y-119380000D03*
X125095000Y-116840000D03*
X125095000Y-114300000D03*
X125095000Y-111760000D03*
X125095000Y-109220000D03*
X125095000Y-106680000D03*
X125095000Y-104140000D03*
X125095000Y-101600000D03*
X125095000Y-99060000D03*
X125095000Y-96520000D03*
X125095000Y-93980000D03*
X125095000Y-91440000D03*
X125095000Y-88900000D03*
X125095000Y-86360000D03*
X125095000Y-83820000D03*
X125095000Y-81280000D03*
X125095000Y-78740000D03*
X125095000Y-76200000D03*
X125095000Y-73660000D03*
D14*
X114935000Y-43180000D03*
X112395000Y-43180000D03*
X109855000Y-43180000D03*
X107315000Y-43180000D03*
X117475000Y-43180000D03*
X120015000Y-43180000D03*
X122555000Y-43180000D03*
X125095000Y-43180000D03*
D15*
X114935000Y-40640000D03*
D14*
X112395000Y-40640000D03*
X109855000Y-40640000D03*
X107315000Y-40640000D03*
X104775000Y-40640000D03*
X117475000Y-40640000D03*
X120015000Y-40640000D03*
X122555000Y-40640000D03*
X104775000Y-43180000D03*
X104775000Y-45720000D03*
X104775000Y-48260000D03*
X104775000Y-50800000D03*
X104775000Y-53340000D03*
X104775000Y-55880000D03*
X104775000Y-58420000D03*
X104775000Y-60960000D03*
X102235000Y-43180000D03*
X102235000Y-45720000D03*
X102235000Y-48260000D03*
X102235000Y-50800000D03*
X102235000Y-53340000D03*
X102235000Y-55880000D03*
X102235000Y-58420000D03*
X102235000Y-60960000D03*
X102235000Y-63500000D03*
X104775000Y-63500000D03*
X107315000Y-63500000D03*
X109855000Y-63500000D03*
X112395000Y-63500000D03*
X114935000Y-63500000D03*
X117475000Y-63500000D03*
X120015000Y-63500000D03*
X122555000Y-63500000D03*
X127635000Y-63500000D03*
X104775000Y-66040000D03*
X107315000Y-66040000D03*
X109855000Y-66040000D03*
X112395000Y-66040000D03*
X114935000Y-66040000D03*
X117475000Y-66040000D03*
X120015000Y-66040000D03*
X122555000Y-66040000D03*
X125095000Y-66040000D03*
X125095000Y-63500000D03*
X125095000Y-60960000D03*
X125095000Y-58420000D03*
X125095000Y-55880000D03*
X125095000Y-53340000D03*
X125095000Y-50800000D03*
X125095000Y-48260000D03*
X125095000Y-45720000D03*
X125095000Y-40640000D03*
X127635000Y-60960000D03*
X127635000Y-58420000D03*
X127635000Y-55880000D03*
X127635000Y-53340000D03*
X127635000Y-50800000D03*
X127635000Y-48260000D03*
X127635000Y-45720000D03*
X127635000Y-43180000D03*
D16*
X111923000Y-99766300D03*
X148750900Y-47333800D03*
X138915300Y-48652000D03*
X147927000Y-98687200D03*
X144472200Y-101119400D03*
D17*
X142864600Y-88568600D03*
X143551500Y-78255500D03*
X144394400Y-82202400D03*
X134104200Y-87795000D03*
X134105000Y-82995000D03*
X153715500Y-134770000D03*
X150553600Y-105887700D03*
X150594000Y-50362100D03*
X150914000Y-78946200D03*
X139923700Y-91419100D03*
X139676500Y-71391100D03*
X153460000Y-75581500D03*
X150899100Y-47662100D03*
X138929000Y-70504600D03*
X139122100Y-91118500D03*
X153692600Y-132096000D03*
X154129100Y-103247000D03*
X153809000Y-74677900D03*
X150069800Y-44644000D03*
X135289100Y-50748300D03*
X154365000Y-73019100D03*
X150944100Y-44591200D03*
X110445500Y-49091300D03*
X138337200Y-64968600D03*
X109952900Y-77762800D03*
X152834600Y-126337700D03*
X150811400Y-100981000D03*
X150775000Y-73702800D03*
X139495800Y-59283600D03*
X140101600Y-51532900D03*
X140092800Y-53251100D03*
X140118900Y-57549000D03*
X150358900Y-86290100D03*
X149820300Y-114333100D03*
X150896900Y-142461200D03*
X150471700Y-59117400D03*
X145682000Y-89451500D03*
X135176900Y-55245000D03*
X135383700Y-52066800D03*
X140239600Y-64398300D03*
X136899600Y-113889900D03*
X139676500Y-69692200D03*
X137038300Y-91443600D03*
X134844400Y-89321000D03*
X135170000Y-67463500D03*
X133871800Y-63294600D03*
X133281100Y-95906200D03*
X113391100Y-146050000D03*
X107711300Y-140061900D03*
X132992500Y-93913800D03*
X129769100Y-55776600D03*
X131496900Y-91510100D03*
X129767900Y-57226500D03*
X131421200Y-90131400D03*
X130383000Y-87262900D03*
X131429300Y-86908400D03*
X129649700Y-90465200D03*
X157616700Y-85058000D03*
X163766900Y-101307100D03*
X163038000Y-44902600D03*
X163262000Y-126183700D03*
X157616000Y-72986400D03*
X159529100Y-102324700D03*
X163031200Y-129738000D03*
X162859700Y-45741500D03*
X163030700Y-46583400D03*
X158696000Y-77554400D03*
X159919500Y-103121100D03*
X131101300Y-84131400D03*
X162839900Y-131462500D03*
X160321900Y-135505100D03*
X133072600Y-81987000D03*
X159285400Y-78240500D03*
X163025000Y-47484800D03*
X160344600Y-104243900D03*
X163026700Y-135830300D03*
X163392500Y-106215500D03*
X163043500Y-51245000D03*
X163903800Y-78469900D03*
X162868900Y-52075200D03*
X163151500Y-79168300D03*
X163026200Y-137026700D03*
X164133600Y-112340100D03*
X162162300Y-70312900D03*
X163030100Y-109538300D03*
X160302500Y-138446000D03*
X109242900Y-94256500D03*
X143054700Y-93967600D03*
X163038000Y-53831400D03*
X162947700Y-82051600D03*
X163035200Y-139489800D03*
X163038000Y-110338700D03*
X112008900Y-92428900D03*
X142388600Y-91408000D03*
X150915600Y-139417600D03*
X150818100Y-111773900D03*
X149904200Y-56530400D03*
X149662300Y-84730900D03*
X138472800Y-62381700D03*
X140586100Y-96384700D03*
X153647500Y-138341300D03*
X150637500Y-110505900D03*
X151106800Y-53366200D03*
X150908700Y-82394600D03*
X134884400Y-65633400D03*
X116348600Y-97464200D03*
X140586100Y-95584300D03*
X153628800Y-137142200D03*
X150917500Y-108520500D03*
X151097400Y-52106400D03*
X153511500Y-79438400D03*
X138275100Y-61297900D03*
X142064200Y-88883800D03*
X137654900Y-130191500D03*
X116189600Y-125675800D03*
X106304400Y-89471600D03*
X138935300Y-79957600D03*
X140796000Y-87023200D03*
X105966600Y-87499700D03*
X163055500Y-143087800D03*
X142680800Y-80025300D03*
X163038000Y-58140300D03*
X165323900Y-84479500D03*
X150878700Y-144165500D03*
X142519700Y-84316200D03*
X149823700Y-61209500D03*
X145404000Y-87050800D03*
X150281900Y-87104300D03*
X145415600Y-85453100D03*
X150479500Y-114958400D03*
X146749100Y-84882200D03*
X162891500Y-57156000D03*
X163034000Y-142147300D03*
X164031200Y-81108300D03*
X146910900Y-82902200D03*
X164318100Y-113615800D03*
X102014100Y-90150000D03*
X138086200Y-82618500D03*
D16*
X117619100Y-111704700D03*
D17*
X160255800Y-69672800D03*
X143091500Y-69932700D03*
X163137800Y-124918000D03*
X160186100Y-95171700D03*
X160508300Y-151772500D03*
X147856700Y-66101800D03*
X138146300Y-66057900D03*
X149277700Y-98438300D03*
X150918000Y-150240400D03*
X151088900Y-123186000D03*
X156540400Y-69119300D03*
X145702400Y-67200200D03*
X163122500Y-123864100D03*
X160670400Y-97761500D03*
X150489000Y-66970900D03*
X153635300Y-124933200D03*
X153655100Y-151328000D03*
X153689700Y-95267100D03*
X138145300Y-68569800D03*
X160303000Y-147543700D03*
X163087300Y-120522200D03*
X157098100Y-62881000D03*
X137744800Y-59572700D03*
X157576000Y-91456000D03*
X160263300Y-89105200D03*
X160319600Y-60385500D03*
X143084200Y-54260200D03*
X164889200Y-108088300D03*
X160320900Y-92758900D03*
X163346000Y-123049100D03*
X160278900Y-63969900D03*
X138534400Y-53815500D03*
X160465700Y-62226900D03*
X141816000Y-58600900D03*
X160288200Y-90415100D03*
X163307000Y-119335600D03*
X150489900Y-63516000D03*
X150907000Y-147533500D03*
X150657400Y-118989100D03*
X149382700Y-91883200D03*
X135002600Y-86721900D03*
X150925500Y-121875500D03*
X151040800Y-149213200D03*
X149277700Y-97494800D03*
X149981400Y-65042600D03*
X135596600Y-75549100D03*
X106144700Y-106496700D03*
X132572500Y-117283500D03*
X132682300Y-130273100D03*
X132546300Y-133523300D03*
X132569900Y-142800100D03*
X117623100Y-78831100D03*
X137658200Y-79909800D03*
X137729400Y-132723800D03*
X139693600Y-137992000D03*
X140273700Y-83082000D03*
X105417700Y-52230200D03*
X132531300Y-119151000D03*
X136915400Y-74419400D03*
X132473000Y-135442000D03*
X119353000Y-77105700D03*
X107075100Y-133059000D03*
X132610300Y-131575600D03*
X103089800Y-118156600D03*
X116348600Y-147425300D03*
X137513700Y-135634600D03*
X135949100Y-141961500D03*
X135678600Y-134082200D03*
X112840700Y-127478100D03*
X111399700Y-111437000D03*
X112503800Y-123504300D03*
X112634300Y-88667700D03*
X111216700Y-116206600D03*
X116222700Y-109425700D03*
X111857000Y-98122600D03*
X130641900Y-115541300D03*
X111307000Y-105283000D03*
X123119400Y-110512400D03*
X113585800Y-100329200D03*
X109054800Y-95071800D03*
X106317400Y-140705500D03*
X108604600Y-142916500D03*
X116348600Y-99508400D03*
X111213000Y-89528700D03*
X111870700Y-114508100D03*
D18*
X135636000Y-37528500D02*
X135636000Y-40259000D01*
X135636000Y-40259000D02*
X127635000Y-48260000D01*
D19*
X138176000Y-38703800D02*
X141095300Y-41623100D01*
X141095300Y-41623100D02*
X141095300Y-59401300D01*
X141095300Y-59401300D02*
X141894400Y-60200400D01*
X141894400Y-60200400D02*
X141894400Y-85120700D01*
X141894400Y-85120700D02*
X142864600Y-86090900D01*
X142864600Y-86090900D02*
X142864600Y-88568600D01*
X138176000Y-37528500D02*
X138176000Y-38703800D01*
X143551500Y-78255500D02*
X143717700Y-78089300D01*
X143717700Y-78089300D02*
X143717700Y-41705500D01*
X143717700Y-41705500D02*
X140716000Y-38703800D01*
X140716000Y-37528500D02*
X140716000Y-38703800D01*
X144394400Y-82202400D02*
X144394400Y-40105400D01*
X144394400Y-40105400D02*
X145796000Y-38703800D01*
X145796000Y-37528500D02*
X145796000Y-38703800D01*
X134105000Y-82995000D02*
X134148200Y-82951800D01*
X134148200Y-82951800D02*
X134148200Y-65386200D01*
X134148200Y-65386200D02*
X134497100Y-65037300D01*
X134497100Y-65037300D02*
X134497100Y-48142000D01*
X134497100Y-48142000D02*
X137000600Y-45638500D01*
X137000600Y-45638500D02*
X137000600Y-36970700D01*
X137000600Y-36970700D02*
X137638300Y-36333000D01*
X137638300Y-36333000D02*
X141252500Y-36333000D01*
X141252500Y-36333000D02*
X142080700Y-37161200D01*
X142080700Y-37161200D02*
X142080700Y-37528500D01*
X143256000Y-37528500D02*
X142080700Y-37528500D01*
X150914000Y-78946200D02*
X150238100Y-79622100D01*
X150238100Y-79622100D02*
X150238100Y-83084200D01*
X150238100Y-83084200D02*
X151439900Y-84286000D01*
X151439900Y-84286000D02*
X151439900Y-105001400D01*
X151439900Y-105001400D02*
X150553600Y-105887700D01*
X150914000Y-78946200D02*
X151565500Y-78294700D01*
X151565500Y-78294700D02*
X151565500Y-55546800D01*
X151565500Y-55546800D02*
X150472000Y-54453300D01*
X150472000Y-54453300D02*
X150472000Y-50484100D01*
X150472000Y-50484100D02*
X150594000Y-50362100D01*
X139676500Y-71391100D02*
X140036300Y-71750900D01*
X140036300Y-71750900D02*
X140036300Y-82347900D01*
X140036300Y-82347900D02*
X139633800Y-82750400D01*
X139633800Y-82750400D02*
X139633800Y-87869400D01*
X139633800Y-87869400D02*
X139923700Y-88159300D01*
X139923700Y-88159300D02*
X139923700Y-91419100D01*
X126620300Y-152400000D02*
X139060100Y-139960200D01*
X139060100Y-139960200D02*
X139060100Y-92282700D01*
X139060100Y-92282700D02*
X139923700Y-91419100D01*
X125095000Y-152400000D02*
X126620300Y-152400000D01*
X150899100Y-47662100D02*
X153183300Y-49946300D01*
X153183300Y-49946300D02*
X153183300Y-75304800D01*
X153183300Y-75304800D02*
X153460000Y-75581500D01*
X139122100Y-91118500D02*
X139161800Y-91078800D01*
X139161800Y-91078800D02*
X139161800Y-82240100D01*
X139161800Y-82240100D02*
X139563200Y-81838700D01*
X139563200Y-81838700D02*
X139563200Y-72202500D01*
X139563200Y-72202500D02*
X138929000Y-71568300D01*
X138929000Y-71568300D02*
X138929000Y-70504600D01*
X125095000Y-149860000D02*
X126620300Y-149860000D01*
X126620300Y-149860000D02*
X134595400Y-141884900D01*
X134595400Y-141884900D02*
X134595400Y-134264900D01*
X134595400Y-134264900D02*
X135405800Y-133454500D01*
X135405800Y-133454500D02*
X137907800Y-133454500D01*
X137907800Y-133454500D02*
X138354800Y-133007500D01*
X138354800Y-133007500D02*
X138354800Y-91885800D01*
X138354800Y-91885800D02*
X139122100Y-91118500D01*
X150069800Y-44644000D02*
X153739700Y-48313900D01*
X153739700Y-48313900D02*
X153739700Y-74608600D01*
X153739700Y-74608600D02*
X153809000Y-74677900D01*
X153692600Y-132096000D02*
X154260600Y-131528000D01*
X154260600Y-131528000D02*
X154260600Y-103378500D01*
X154260600Y-103378500D02*
X154129100Y-103247000D01*
X154129100Y-103247000D02*
X154321200Y-103054900D01*
X154321200Y-103054900D02*
X154321200Y-75190100D01*
X154321200Y-75190100D02*
X153809000Y-74677900D01*
X125095000Y-147320000D02*
X123569700Y-147320000D01*
X117475000Y-63500000D02*
X118519500Y-64544500D01*
X118519500Y-64544500D02*
X118519500Y-142269800D01*
X118519500Y-142269800D02*
X123569700Y-147320000D01*
X150944100Y-44591200D02*
X154365000Y-48012100D01*
X154365000Y-48012100D02*
X154365000Y-73019100D01*
X112395000Y-43180000D02*
X112395000Y-47141800D01*
X112395000Y-47141800D02*
X110445500Y-49091300D01*
X126620300Y-144780000D02*
X134145100Y-137255200D01*
X134145100Y-137255200D02*
X134145100Y-134078300D01*
X134145100Y-134078300D02*
X135716800Y-132506600D01*
X135716800Y-132506600D02*
X135716800Y-95258400D01*
X135716800Y-95258400D02*
X135869300Y-95105900D01*
X135869300Y-95105900D02*
X135869300Y-91091200D01*
X135869300Y-91091200D02*
X136985400Y-89975100D01*
X136985400Y-89975100D02*
X136985400Y-79102200D01*
X136985400Y-79102200D02*
X137991000Y-78096600D01*
X137991000Y-78096600D02*
X137991000Y-71087800D01*
X137991000Y-71087800D02*
X137822200Y-70919000D01*
X137822200Y-70919000D02*
X137822200Y-69867800D01*
X137822200Y-69867800D02*
X138788900Y-68901100D01*
X138788900Y-68901100D02*
X138788900Y-65420300D01*
X138788900Y-65420300D02*
X138337200Y-64968600D01*
X125095000Y-144780000D02*
X126620300Y-144780000D01*
X150811400Y-100981000D02*
X150989500Y-100802900D01*
X150989500Y-100802900D02*
X150989500Y-84857400D01*
X150989500Y-84857400D02*
X149787800Y-83655700D01*
X149787800Y-83655700D02*
X149787800Y-74690000D01*
X149787800Y-74690000D02*
X150775000Y-73702800D01*
X109855000Y-40640000D02*
X108766900Y-41728100D01*
X108766900Y-41728100D02*
X108766900Y-57366500D01*
X108766900Y-57366500D02*
X110905200Y-59504800D01*
X110905200Y-59504800D02*
X110905200Y-76810500D01*
X110905200Y-76810500D02*
X109952900Y-77762800D01*
X126620300Y-142240000D02*
X133694800Y-135165500D01*
X133694800Y-135165500D02*
X133694800Y-133891700D01*
X133694800Y-133891700D02*
X135266500Y-132320000D01*
X135266500Y-132320000D02*
X135266500Y-95071800D01*
X135266500Y-95071800D02*
X135419000Y-94919300D01*
X135419000Y-94919300D02*
X135419000Y-90904500D01*
X135419000Y-90904500D02*
X135419100Y-90904500D01*
X135419100Y-90904500D02*
X136535100Y-89788500D01*
X136535100Y-89788500D02*
X136535100Y-78719400D01*
X136535100Y-78719400D02*
X137540700Y-77713800D01*
X137540700Y-77713800D02*
X137540700Y-74160300D01*
X137540700Y-74160300D02*
X137371900Y-73991500D01*
X137371900Y-73991500D02*
X137371900Y-61305000D01*
X137371900Y-61305000D02*
X139393300Y-59283600D01*
X139393300Y-59283600D02*
X139495800Y-59283600D01*
X125095000Y-142240000D02*
X126620300Y-142240000D01*
X122555000Y-66040000D02*
X122555000Y-67698100D01*
X122555000Y-67698100D02*
X127553500Y-72696600D01*
X127553500Y-72696600D02*
X127553500Y-82336600D01*
X127553500Y-82336600D02*
X127323900Y-82566200D01*
X127323900Y-82566200D02*
X127323900Y-83608200D01*
X127323900Y-83608200D02*
X125706700Y-85225400D01*
X125706700Y-85225400D02*
X124237400Y-85225400D01*
X124237400Y-85225400D02*
X120652300Y-88810500D01*
X120652300Y-88810500D02*
X120652300Y-136782600D01*
X120652300Y-136782600D02*
X123569700Y-139700000D01*
X125095000Y-139700000D02*
X123569700Y-139700000D01*
X126620300Y-137160000D02*
X130489200Y-133291100D01*
X130489200Y-133291100D02*
X130489200Y-117241300D01*
X130489200Y-117241300D02*
X134365900Y-113364600D01*
X134365900Y-113364600D02*
X134365900Y-94698600D01*
X134365900Y-94698600D02*
X134518400Y-94546100D01*
X134518400Y-94546100D02*
X134518400Y-90419100D01*
X134518400Y-90419100D02*
X134991200Y-89946300D01*
X134991200Y-89946300D02*
X135103500Y-89946300D01*
X135103500Y-89946300D02*
X135634500Y-89415300D01*
X135634500Y-89415300D02*
X135634500Y-78269900D01*
X135634500Y-78269900D02*
X136222000Y-77682400D01*
X136222000Y-77682400D02*
X136222000Y-57121900D01*
X136222000Y-57121900D02*
X140092800Y-53251100D01*
X125095000Y-137160000D02*
X126620300Y-137160000D01*
X125095000Y-66040000D02*
X128454100Y-69399100D01*
X128454100Y-69399100D02*
X128454100Y-82709800D01*
X128454100Y-82709800D02*
X128224500Y-82939400D01*
X128224500Y-82939400D02*
X128224500Y-85229500D01*
X128224500Y-85229500D02*
X125824000Y-87630000D01*
X125824000Y-87630000D02*
X124320100Y-87630000D01*
X124320100Y-87630000D02*
X121136000Y-90814100D01*
X121136000Y-90814100D02*
X121136000Y-132186300D01*
X121136000Y-132186300D02*
X123569700Y-134620000D01*
X125095000Y-134620000D02*
X123569700Y-134620000D01*
X149382700Y-114400200D02*
X149753200Y-114400200D01*
X149753200Y-114400200D02*
X149820300Y-114333100D01*
X146086700Y-89451500D02*
X146086700Y-111104200D01*
X146086700Y-111104200D02*
X149382700Y-114400200D01*
X149382700Y-114400200D02*
X149382700Y-140947000D01*
X149382700Y-140947000D02*
X150896900Y-142461200D01*
X146086700Y-89451500D02*
X146086700Y-67700300D01*
X146086700Y-67700300D02*
X146327700Y-67459300D01*
X146327700Y-67459300D02*
X146327700Y-65676600D01*
X146327700Y-65676600D02*
X150471700Y-61532600D01*
X150471700Y-61532600D02*
X150471700Y-59117400D01*
X104775000Y-40640000D02*
X102593000Y-40640000D01*
X102593000Y-40640000D02*
X97555400Y-45677600D01*
X97555400Y-45677600D02*
X97555400Y-93365700D01*
X97555400Y-93365700D02*
X98169700Y-93980000D01*
X145682000Y-89451500D02*
X146086700Y-89451500D01*
X99695000Y-93980000D02*
X98169700Y-93980000D01*
X127635000Y-63500000D02*
X128904500Y-64769500D01*
X128904500Y-64769500D02*
X128904500Y-82896300D01*
X128904500Y-82896300D02*
X128674800Y-83126000D01*
X128674800Y-83126000D02*
X128674800Y-85465000D01*
X128674800Y-85465000D02*
X127116300Y-87023500D01*
X127116300Y-87023500D02*
X127116300Y-88924100D01*
X127116300Y-88924100D02*
X125870400Y-90170000D01*
X125870400Y-90170000D02*
X124360500Y-90170000D01*
X124360500Y-90170000D02*
X121586300Y-92944200D01*
X121586300Y-92944200D02*
X121586300Y-130096600D01*
X121586300Y-130096600D02*
X123569700Y-132080000D01*
X125095000Y-132080000D02*
X123569700Y-132080000D01*
X125095000Y-63500000D02*
X126166700Y-62428300D01*
X126166700Y-62428300D02*
X128073900Y-62428300D01*
X128073900Y-62428300D02*
X129354900Y-63709300D01*
X129354900Y-63709300D02*
X129354900Y-83082800D01*
X129354900Y-83082800D02*
X129125100Y-83312600D01*
X129125100Y-83312600D02*
X129125100Y-85676100D01*
X129125100Y-85676100D02*
X127830400Y-86970800D01*
X127830400Y-86970800D02*
X127830400Y-90724400D01*
X127830400Y-90724400D02*
X125844800Y-92710000D01*
X125844800Y-92710000D02*
X124351600Y-92710000D01*
X124351600Y-92710000D02*
X122036600Y-95025000D01*
X122036600Y-95025000D02*
X122036600Y-128006900D01*
X122036600Y-128006900D02*
X123569700Y-129540000D01*
X125095000Y-129540000D02*
X123569700Y-129540000D01*
X127635000Y-60960000D02*
X129805300Y-63130300D01*
X129805300Y-63130300D02*
X129805300Y-83269300D01*
X129805300Y-83269300D02*
X129575400Y-83499200D01*
X129575400Y-83499200D02*
X129575400Y-85862700D01*
X129575400Y-85862700D02*
X128574000Y-86864100D01*
X128574000Y-86864100D02*
X128574000Y-92564500D01*
X128574000Y-92564500D02*
X125888500Y-95250000D01*
X125888500Y-95250000D02*
X124366700Y-95250000D01*
X124366700Y-95250000D02*
X122487100Y-97129600D01*
X122487100Y-97129600D02*
X122487100Y-125917400D01*
X122487100Y-125917400D02*
X123569700Y-127000000D01*
X125095000Y-127000000D02*
X123569700Y-127000000D01*
X137038300Y-91443600D02*
X138711500Y-89770400D01*
X138711500Y-89770400D02*
X138711500Y-82359400D01*
X138711500Y-82359400D02*
X138310000Y-81957900D01*
X138310000Y-81957900D02*
X138310000Y-79698600D01*
X138310000Y-79698600D02*
X138441300Y-79567300D01*
X138441300Y-79567300D02*
X138441300Y-70901200D01*
X138441300Y-70901200D02*
X138303700Y-70763600D01*
X138303700Y-70763600D02*
X138303700Y-70245600D01*
X138303700Y-70245600D02*
X138857100Y-69692200D01*
X138857100Y-69692200D02*
X139676500Y-69692200D01*
X136899600Y-113889900D02*
X136899600Y-91582300D01*
X136899600Y-91582300D02*
X137038300Y-91443600D01*
X126620300Y-121920000D02*
X126620300Y-120473300D01*
X126620300Y-120473300D02*
X133915600Y-113178000D01*
X133915600Y-113178000D02*
X133915600Y-94512000D01*
X133915600Y-94512000D02*
X134068100Y-94359500D01*
X134068100Y-94359500D02*
X134068100Y-90097300D01*
X134068100Y-90097300D02*
X134844400Y-89321000D01*
X135170000Y-67463500D02*
X134793700Y-67839800D01*
X134793700Y-67839800D02*
X134793700Y-86046500D01*
X134793700Y-86046500D02*
X134377300Y-86462900D01*
X134377300Y-86462900D02*
X134377300Y-86998200D01*
X134377300Y-86998200D02*
X134844400Y-87465300D01*
X134844400Y-87465300D02*
X134844400Y-89321000D01*
X125095000Y-121920000D02*
X126620300Y-121920000D01*
X133281100Y-95906200D02*
X133281100Y-94509600D01*
X133281100Y-94509600D02*
X133617800Y-94172900D01*
X133617800Y-94172900D02*
X133617800Y-93654700D01*
X133617800Y-93654700D02*
X133464600Y-93501500D01*
X133464600Y-93501500D02*
X133464600Y-82479400D01*
X133464600Y-82479400D02*
X133697900Y-82246100D01*
X133697900Y-82246100D02*
X133697900Y-63468500D01*
X133697900Y-63468500D02*
X133871800Y-63294600D01*
X126620300Y-119380000D02*
X126620300Y-117854700D01*
X126620300Y-117854700D02*
X133281100Y-111193900D01*
X133281100Y-111193900D02*
X133281100Y-95906200D01*
X125095000Y-119380000D02*
X126620300Y-119380000D01*
X132744900Y-93913800D02*
X132744900Y-82543600D01*
X132744900Y-82543600D02*
X132447300Y-82246000D01*
X132447300Y-82246000D02*
X132447300Y-58454800D01*
X132447300Y-58454800D02*
X129769100Y-55776600D01*
X126620300Y-116840000D02*
X132394300Y-111066000D01*
X132394300Y-111066000D02*
X132394300Y-94837000D01*
X132394300Y-94837000D02*
X132744900Y-94486400D01*
X132744900Y-94486400D02*
X132744900Y-93913800D01*
X132744900Y-93913800D02*
X132992500Y-93913800D01*
X125095000Y-116840000D02*
X126620300Y-116840000D01*
X131496900Y-91510100D02*
X131314000Y-91693000D01*
X131314000Y-91693000D02*
X131314000Y-102491400D01*
X131314000Y-102491400D02*
X125929300Y-107876100D01*
X125929300Y-107876100D02*
X123569700Y-107876100D01*
X125095000Y-55880000D02*
X126598400Y-57383400D01*
X126598400Y-57383400D02*
X126598400Y-58903800D01*
X126598400Y-58903800D02*
X127384600Y-59690000D01*
X127384600Y-59690000D02*
X127867300Y-59690000D01*
X127867300Y-59690000D02*
X130291400Y-62114100D01*
X130291400Y-62114100D02*
X130291400Y-83420100D01*
X130291400Y-83420100D02*
X130025700Y-83685800D01*
X130025700Y-83685800D02*
X130025700Y-86524400D01*
X130025700Y-86524400D02*
X129024400Y-87525700D01*
X129024400Y-87525700D02*
X129024400Y-97161900D01*
X129024400Y-97161900D02*
X125856300Y-100330000D01*
X125856300Y-100330000D02*
X124327300Y-100330000D01*
X124327300Y-100330000D02*
X123119400Y-101537900D01*
X123119400Y-101537900D02*
X123119400Y-107425800D01*
X123119400Y-107425800D02*
X123569700Y-107876100D01*
X123569700Y-114300000D02*
X123569700Y-110946500D01*
X123569700Y-110946500D02*
X123744700Y-110771500D01*
X123744700Y-110771500D02*
X123744700Y-110253300D01*
X123744700Y-110253300D02*
X123569700Y-110078300D01*
X123569700Y-110078300D02*
X123569700Y-107876100D01*
X125095000Y-114300000D02*
X123569700Y-114300000D01*
X131421200Y-90131400D02*
X132231800Y-89320800D01*
X132231800Y-89320800D02*
X132231800Y-83046300D01*
X132231800Y-83046300D02*
X131951700Y-82766200D01*
X131951700Y-82766200D02*
X131951700Y-59410300D01*
X131951700Y-59410300D02*
X129767900Y-57226500D01*
X131421200Y-90131400D02*
X132169200Y-90879400D01*
X132169200Y-90879400D02*
X132169200Y-94106900D01*
X132169200Y-94106900D02*
X131943900Y-94332200D01*
X131943900Y-94332200D02*
X131943900Y-103896400D01*
X131943900Y-103896400D02*
X126620300Y-109220000D01*
X125095000Y-109220000D02*
X126620300Y-109220000D01*
X127635000Y-50800000D02*
X128676100Y-51841100D01*
X128676100Y-51841100D02*
X128676100Y-57791500D01*
X128676100Y-57791500D02*
X130773200Y-59888600D01*
X130773200Y-59888600D02*
X130773200Y-83575200D01*
X130773200Y-83575200D02*
X130476000Y-83872400D01*
X130476000Y-83872400D02*
X130476000Y-87169900D01*
X130476000Y-87169900D02*
X130383000Y-87262900D01*
X130383000Y-87262900D02*
X130275000Y-87370900D01*
X130275000Y-87370900D02*
X130275000Y-98453500D01*
X130275000Y-98453500D02*
X126003100Y-102725400D01*
X126003100Y-102725400D02*
X124505100Y-102725400D01*
X124505100Y-102725400D02*
X123569700Y-103660800D01*
X123569700Y-103660800D02*
X123569700Y-106680000D01*
X125095000Y-106680000D02*
X123569700Y-106680000D01*
X125095000Y-50800000D02*
X126171500Y-49723500D01*
X126171500Y-49723500D02*
X128091000Y-49723500D01*
X128091000Y-49723500D02*
X129126600Y-50759100D01*
X129126600Y-50759100D02*
X129126600Y-57605100D01*
X129126600Y-57605100D02*
X131276300Y-59754800D01*
X131276300Y-59754800D02*
X131276300Y-82953000D01*
X131276300Y-82953000D02*
X131726600Y-83403300D01*
X131726600Y-83403300D02*
X131726600Y-86611100D01*
X131726600Y-86611100D02*
X131429300Y-86908400D01*
X131429300Y-86908400D02*
X131429300Y-87103900D01*
X131429300Y-87103900D02*
X130744600Y-87788600D01*
X130744600Y-87788600D02*
X130744600Y-100015700D01*
X130744600Y-100015700D02*
X126620300Y-104140000D01*
X125095000Y-104140000D02*
X126620300Y-104140000D01*
X163038000Y-44902600D02*
X162814300Y-44902600D01*
X162814300Y-44902600D02*
X158261300Y-49455600D01*
X158261300Y-49455600D02*
X158261300Y-73506700D01*
X158261300Y-73506700D02*
X157616700Y-74151300D01*
X157616700Y-74151300D02*
X157616700Y-85058000D01*
X157616000Y-72986400D02*
X156983000Y-73619400D01*
X156983000Y-73619400D02*
X156983000Y-88708300D01*
X156983000Y-88708300D02*
X158410300Y-90135600D01*
X158410300Y-90135600D02*
X158410300Y-101205900D01*
X158410300Y-101205900D02*
X159529100Y-102324700D01*
X163030700Y-46583400D02*
X158714500Y-50899600D01*
X158714500Y-50899600D02*
X158714500Y-77535900D01*
X158714500Y-77535900D02*
X158696000Y-77554400D01*
X159919500Y-103121100D02*
X160168500Y-102872100D01*
X160168500Y-102872100D02*
X160168500Y-100099800D01*
X160168500Y-100099800D02*
X159071700Y-99003000D01*
X159071700Y-99003000D02*
X159071700Y-89941500D01*
X159071700Y-89941500D02*
X158635400Y-89505200D01*
X158635400Y-89505200D02*
X158635400Y-77615000D01*
X158635400Y-77615000D02*
X158696000Y-77554400D01*
X159285400Y-78240500D02*
X159354200Y-78171700D01*
X159354200Y-78171700D02*
X159354200Y-70636000D01*
X159354200Y-70636000D02*
X159164800Y-70446600D01*
X159164800Y-70446600D02*
X159164800Y-51345000D01*
X159164800Y-51345000D02*
X163025000Y-47484800D01*
X160344600Y-104243900D02*
X160344600Y-135482400D01*
X160344600Y-135482400D02*
X160321900Y-135505100D01*
X159285400Y-78240500D02*
X159522000Y-78477100D01*
X159522000Y-78477100D02*
X159522000Y-98816400D01*
X159522000Y-98816400D02*
X160623300Y-99917700D01*
X160623300Y-99917700D02*
X160623300Y-103965200D01*
X160623300Y-103965200D02*
X160344600Y-104243900D01*
X163392500Y-106215500D02*
X163708200Y-106531200D01*
X163708200Y-106531200D02*
X163708200Y-111669900D01*
X163708200Y-111669900D02*
X163241700Y-112136400D01*
X163241700Y-112136400D02*
X163241700Y-117713300D01*
X163241700Y-117713300D02*
X163971400Y-118443000D01*
X163971400Y-118443000D02*
X163971400Y-134885600D01*
X163971400Y-134885600D02*
X163026700Y-135830300D01*
X163903800Y-78469900D02*
X164129400Y-78244300D01*
X164129400Y-78244300D02*
X164129400Y-52330900D01*
X164129400Y-52330900D02*
X163043500Y-51245000D01*
X163026200Y-137026700D02*
X164478000Y-135574900D01*
X164478000Y-135574900D02*
X164478000Y-118087400D01*
X164478000Y-118087400D02*
X163692800Y-117302200D01*
X163692800Y-117302200D02*
X163692800Y-112780900D01*
X163692800Y-112780900D02*
X164133600Y-112340100D01*
X122555000Y-40640000D02*
X123591600Y-41676600D01*
X123591600Y-41676600D02*
X123591600Y-67847800D01*
X123591600Y-67847800D02*
X128003800Y-72260000D01*
X128003800Y-72260000D02*
X128003800Y-82523200D01*
X128003800Y-82523200D02*
X127774200Y-82752800D01*
X127774200Y-82752800D02*
X127774200Y-83840000D01*
X127774200Y-83840000D02*
X125254200Y-86360000D01*
X125254200Y-86360000D02*
X125095000Y-86360000D01*
X163151500Y-79168300D02*
X163252800Y-79067000D01*
X163252800Y-79067000D02*
X163252800Y-68636100D01*
X163252800Y-68636100D02*
X163671200Y-68217700D01*
X163671200Y-68217700D02*
X163671200Y-52877500D01*
X163671200Y-52877500D02*
X162868900Y-52075200D01*
X162162300Y-70312900D02*
X162075900Y-70399300D01*
X162075900Y-70399300D02*
X162075900Y-80081000D01*
X162075900Y-80081000D02*
X163591300Y-81596400D01*
X163591300Y-81596400D02*
X163591300Y-88679200D01*
X163591300Y-88679200D02*
X163030100Y-89240400D01*
X163030100Y-89240400D02*
X163030100Y-105693600D01*
X163030100Y-105693600D02*
X162767200Y-105956500D01*
X162767200Y-105956500D02*
X162767200Y-109275400D01*
X162767200Y-109275400D02*
X163030100Y-109538300D01*
X122555000Y-43180000D02*
X121507600Y-44227400D01*
X121507600Y-44227400D02*
X121507600Y-67287600D01*
X121507600Y-67287600D02*
X127103200Y-72883200D01*
X127103200Y-72883200D02*
X127103200Y-81811800D01*
X127103200Y-81811800D02*
X125095000Y-83820000D01*
X109040800Y-94149200D02*
X108150700Y-95039300D01*
X108150700Y-95039300D02*
X108150700Y-134983000D01*
X108150700Y-134983000D02*
X107700400Y-135433300D01*
X107700400Y-135433300D02*
X107700400Y-137663000D01*
X107700400Y-137663000D02*
X104130300Y-141233100D01*
X104130300Y-141233100D02*
X104130300Y-141870000D01*
X104130300Y-141870000D02*
X101220300Y-144780000D01*
X109242900Y-94256500D02*
X109148000Y-94256500D01*
X109148000Y-94256500D02*
X109040800Y-94149200D01*
X109040800Y-94149200D02*
X108766700Y-93875200D01*
X108766700Y-93875200D02*
X108766700Y-64588300D01*
X108766700Y-64588300D02*
X109855000Y-63500000D01*
X99695000Y-144780000D02*
X101220300Y-144780000D01*
X162691200Y-82051600D02*
X162503100Y-82239700D01*
X162503100Y-82239700D02*
X162503100Y-105583700D01*
X162503100Y-105583700D02*
X162316900Y-105769900D01*
X162316900Y-105769900D02*
X162316900Y-109709400D01*
X162316900Y-109709400D02*
X162946200Y-110338700D01*
X162946200Y-110338700D02*
X163038000Y-110338700D01*
X163038000Y-53831400D02*
X161477200Y-55392200D01*
X161477200Y-55392200D02*
X161477200Y-80837600D01*
X161477200Y-80837600D02*
X162691200Y-82051600D01*
X162691200Y-82051600D02*
X162947700Y-82051600D01*
X99695000Y-147320000D02*
X101220300Y-147320000D01*
X112008900Y-92428900D02*
X109738700Y-94699100D01*
X109738700Y-94699100D02*
X109738700Y-136261600D01*
X109738700Y-136261600D02*
X104635200Y-141365100D01*
X104635200Y-141365100D02*
X104635200Y-143905100D01*
X104635200Y-143905100D02*
X101220300Y-147320000D01*
X112395000Y-66040000D02*
X112008900Y-66426100D01*
X112008900Y-66426100D02*
X112008900Y-92428900D01*
X150915600Y-139417600D02*
X150295800Y-138797800D01*
X150295800Y-138797800D02*
X150295800Y-121277900D01*
X150295800Y-121277900D02*
X151555100Y-120018600D01*
X151555100Y-120018600D02*
X151555100Y-112510900D01*
X151555100Y-112510900D02*
X150818100Y-111773900D01*
X149581100Y-84730900D02*
X149337500Y-84487300D01*
X149337500Y-84487300D02*
X149337500Y-69080000D01*
X149337500Y-69080000D02*
X151115200Y-67302300D01*
X151115200Y-67302300D02*
X151115200Y-57741400D01*
X151115200Y-57741400D02*
X149904200Y-56530400D01*
X149581100Y-84730900D02*
X149662300Y-84730900D01*
X149581100Y-84730900D02*
X149581100Y-89698000D01*
X149581100Y-89698000D02*
X150435000Y-90551900D01*
X150435000Y-90551900D02*
X150435000Y-99619000D01*
X150435000Y-99619000D02*
X149820300Y-100233700D01*
X149820300Y-100233700D02*
X149820300Y-110776100D01*
X149820300Y-110776100D02*
X150818100Y-111773900D01*
X138472800Y-62381700D02*
X138472800Y-63599100D01*
X138472800Y-63599100D02*
X140919400Y-66045700D01*
X140919400Y-66045700D02*
X140919400Y-85792700D01*
X140919400Y-85792700D02*
X141425900Y-86299200D01*
X141425900Y-86299200D02*
X141425900Y-95628900D01*
X141425900Y-95628900D02*
X140670100Y-96384700D01*
X140670100Y-96384700D02*
X140586100Y-96384700D01*
X150637500Y-110505900D02*
X150292100Y-110160500D01*
X150292100Y-110160500D02*
X150292100Y-107033600D01*
X150292100Y-107033600D02*
X151913100Y-105412600D01*
X151913100Y-105412600D02*
X151913100Y-83399000D01*
X151913100Y-83399000D02*
X150908700Y-82394600D01*
X150908700Y-82394600D02*
X152015800Y-81287500D01*
X152015800Y-81287500D02*
X152015800Y-54275200D01*
X152015800Y-54275200D02*
X151106800Y-53366200D01*
X150637500Y-110505900D02*
X152203700Y-112072100D01*
X152203700Y-112072100D02*
X152203700Y-126591100D01*
X152203700Y-126591100D02*
X152609400Y-126996800D01*
X152609400Y-126996800D02*
X152609400Y-137303200D01*
X152609400Y-137303200D02*
X153647500Y-138341300D01*
X117475000Y-40640000D02*
X118970100Y-42135100D01*
X118970100Y-42135100D02*
X118970100Y-44922100D01*
X118970100Y-44922100D02*
X121057100Y-47009100D01*
X121057100Y-47009100D02*
X121057100Y-67474000D01*
X121057100Y-67474000D02*
X126620300Y-73037200D01*
X126620300Y-73037200D02*
X126620300Y-76200000D01*
X125095000Y-76200000D02*
X126620300Y-76200000D01*
X114935000Y-97464200D02*
X114935000Y-138685300D01*
X114935000Y-138685300D02*
X101220300Y-152400000D01*
X114935000Y-66040000D02*
X114935000Y-97464200D01*
X116348600Y-97464200D02*
X114935000Y-97464200D01*
X99695000Y-152400000D02*
X101220300Y-152400000D01*
X152921900Y-79915700D02*
X152466100Y-79459900D01*
X152466100Y-79459900D02*
X152466100Y-53475100D01*
X152466100Y-53475100D02*
X151097400Y-52106400D01*
X152921900Y-79915700D02*
X153034200Y-79915700D01*
X153034200Y-79915700D02*
X153511500Y-79438400D01*
X150917500Y-108520500D02*
X153010000Y-110613000D01*
X153010000Y-110613000D02*
X153010000Y-125628800D01*
X153010000Y-125628800D02*
X153010100Y-125628800D01*
X153010100Y-125628800D02*
X153459900Y-126078600D01*
X153459900Y-126078600D02*
X153459900Y-126596800D01*
X153459900Y-126596800D02*
X153059800Y-126996900D01*
X153059800Y-126996900D02*
X153059800Y-136573200D01*
X153059800Y-136573200D02*
X153628800Y-137142200D01*
X152921900Y-79915700D02*
X152921900Y-106516100D01*
X152921900Y-106516100D02*
X150917500Y-108520500D01*
X117475000Y-43180000D02*
X117475000Y-44289200D01*
X117475000Y-44289200D02*
X118970100Y-45784300D01*
X118970100Y-45784300D02*
X118970100Y-69060400D01*
X118970100Y-69060400D02*
X123569700Y-73660000D01*
X125095000Y-73660000D02*
X123569700Y-73660000D01*
X138275100Y-61297900D02*
X141444100Y-64466900D01*
X141444100Y-64466900D02*
X141444100Y-85680500D01*
X141444100Y-85680500D02*
X142064200Y-86300600D01*
X142064200Y-86300600D02*
X142064200Y-88883800D01*
X107315000Y-40640000D02*
X106220000Y-41735000D01*
X106220000Y-41735000D02*
X102134900Y-41735000D01*
X102134900Y-41735000D02*
X98005700Y-45864200D01*
X98005700Y-45864200D02*
X98005700Y-88736000D01*
X98005700Y-88736000D02*
X98169700Y-88900000D01*
X99695000Y-88900000D02*
X98169700Y-88900000D01*
X107315000Y-43180000D02*
X107315000Y-51234000D01*
X107315000Y-51234000D02*
X105828000Y-52721000D01*
X105828000Y-52721000D02*
X105828000Y-87361100D01*
X105828000Y-87361100D02*
X105966600Y-87499700D01*
X163055500Y-143087800D02*
X165555100Y-140588200D01*
X165555100Y-140588200D02*
X165555100Y-84710700D01*
X165555100Y-84710700D02*
X165323900Y-84479500D01*
X142519700Y-84316200D02*
X143692300Y-85488800D01*
X143692300Y-85488800D02*
X143692300Y-136979100D01*
X143692300Y-136979100D02*
X150878700Y-144165500D01*
X145404000Y-87050800D02*
X144745500Y-86392300D01*
X144745500Y-86392300D02*
X144745500Y-85102000D01*
X144745500Y-85102000D02*
X145072300Y-84775200D01*
X145072300Y-84775200D02*
X145072300Y-65960900D01*
X145072300Y-65960900D02*
X149823700Y-61209500D01*
X150479500Y-114958400D02*
X150479500Y-114101000D01*
X150479500Y-114101000D02*
X146749100Y-110370600D01*
X146749100Y-110370600D02*
X146749100Y-84882200D01*
X164318100Y-113615800D02*
X164758900Y-113175000D01*
X164758900Y-113175000D02*
X164758900Y-111829000D01*
X164758900Y-111829000D02*
X164263900Y-111334000D01*
X164263900Y-111334000D02*
X164263900Y-106588500D01*
X164263900Y-106588500D02*
X164409900Y-106442500D01*
X164409900Y-106442500D02*
X164409900Y-81487000D01*
X164409900Y-81487000D02*
X164031200Y-81108300D01*
X163034000Y-142147300D02*
X164928300Y-140253000D01*
X164928300Y-140253000D02*
X164928300Y-114226000D01*
X164928300Y-114226000D02*
X164318100Y-113615800D01*
X162891500Y-57156000D02*
X162393400Y-57654100D01*
X162393400Y-57654100D02*
X162393400Y-58484000D01*
X162393400Y-58484000D02*
X162802400Y-58893000D01*
X162802400Y-58893000D02*
X162802400Y-78633100D01*
X162802400Y-78633100D02*
X162526200Y-78909300D01*
X162526200Y-78909300D02*
X162526200Y-79603300D01*
X162526200Y-79603300D02*
X164031200Y-81108300D01*
X102120900Y-90150000D02*
X102014100Y-90150000D01*
X102235000Y-55880000D02*
X99356600Y-58758400D01*
X99356600Y-58758400D02*
X99356600Y-69020400D01*
X99356600Y-69020400D02*
X102120900Y-71784700D01*
X102120900Y-71784700D02*
X102120900Y-90150000D01*
X102120900Y-90150000D02*
X102120900Y-108793000D01*
X102120900Y-108793000D02*
X100423900Y-110490000D01*
X100423900Y-110490000D02*
X98970900Y-110490000D01*
X98970900Y-110490000D02*
X98169700Y-111291200D01*
X98169700Y-111291200D02*
X98169700Y-116840000D01*
X99695000Y-116840000D02*
X98169700Y-116840000D01*
X160186100Y-95171700D02*
X160036500Y-95321300D01*
X160036500Y-95321300D02*
X160036500Y-98693900D01*
X160036500Y-98693900D02*
X161073700Y-99731100D01*
X161073700Y-99731100D02*
X161073700Y-105102400D01*
X161073700Y-105102400D02*
X160966000Y-105210100D01*
X160966000Y-105210100D02*
X160966000Y-122746200D01*
X160966000Y-122746200D02*
X163137800Y-124918000D01*
X163137800Y-124918000D02*
X162058900Y-125996900D01*
X162058900Y-125996900D02*
X162058900Y-150221900D01*
X162058900Y-150221900D02*
X160508300Y-151772500D01*
X147856700Y-66101800D02*
X147856700Y-97017300D01*
X147856700Y-97017300D02*
X149277700Y-98438300D01*
X151088900Y-123186000D02*
X151088900Y-126161600D01*
X151088900Y-126161600D02*
X152016000Y-127088700D01*
X152016000Y-127088700D02*
X152016000Y-149142400D01*
X152016000Y-149142400D02*
X150918000Y-150240400D01*
X160670400Y-97761500D02*
X161552100Y-98643200D01*
X161552100Y-98643200D02*
X161552100Y-105260900D01*
X161552100Y-105260900D02*
X161416300Y-105396700D01*
X161416300Y-105396700D02*
X161416300Y-122157900D01*
X161416300Y-122157900D02*
X163122500Y-123864100D01*
X153635300Y-124933200D02*
X153503700Y-124801600D01*
X153503700Y-124801600D02*
X153503700Y-95453100D01*
X153503700Y-95453100D02*
X153689700Y-95267100D01*
X157098100Y-62881000D02*
X157175500Y-62958400D01*
X157175500Y-62958400D02*
X157175500Y-72542600D01*
X157175500Y-72542600D02*
X156532700Y-73185400D01*
X156532700Y-73185400D02*
X156532700Y-90412700D01*
X156532700Y-90412700D02*
X157576000Y-91456000D01*
X160263300Y-89105200D02*
X160263300Y-70683300D01*
X160263300Y-70683300D02*
X159620800Y-70040800D01*
X159620800Y-70040800D02*
X159620800Y-61084300D01*
X159620800Y-61084300D02*
X160319600Y-60385500D01*
X160891400Y-92734700D02*
X160345100Y-92734700D01*
X160345100Y-92734700D02*
X160320900Y-92758900D01*
X160891400Y-92734700D02*
X162002400Y-93845700D01*
X162002400Y-93845700D02*
X162002400Y-105447500D01*
X162002400Y-105447500D02*
X161866600Y-105583300D01*
X161866600Y-105583300D02*
X161866600Y-121569700D01*
X161866600Y-121569700D02*
X163346000Y-123049100D01*
X160278900Y-63969900D02*
X160921600Y-64612600D01*
X160921600Y-64612600D02*
X160921600Y-92704500D01*
X160921600Y-92704500D02*
X160891400Y-92734700D01*
X150657400Y-118989100D02*
X151104800Y-118541700D01*
X151104800Y-118541700D02*
X151104800Y-114013100D01*
X151104800Y-114013100D02*
X149289300Y-112197600D01*
X149289300Y-112197600D02*
X149289300Y-100127800D01*
X149289300Y-100127800D02*
X149970800Y-99446300D01*
X149970800Y-99446300D02*
X149970800Y-92471300D01*
X149970800Y-92471300D02*
X149382700Y-91883200D01*
X150489900Y-63516000D02*
X150614000Y-63640100D01*
X150614000Y-63640100D02*
X150614000Y-65310400D01*
X150614000Y-65310400D02*
X148887200Y-67037200D01*
X148887200Y-67037200D02*
X148887200Y-91387700D01*
X148887200Y-91387700D02*
X149382700Y-91883200D01*
X150657400Y-118989100D02*
X149845400Y-119801100D01*
X149845400Y-119801100D02*
X149845400Y-139589300D01*
X149845400Y-139589300D02*
X151530500Y-141274400D01*
X151530500Y-141274400D02*
X151530500Y-146910000D01*
X151530500Y-146910000D02*
X150907000Y-147533500D01*
X149981400Y-65042600D02*
X148436900Y-66587100D01*
X148436900Y-66587100D02*
X148436900Y-96654000D01*
X148436900Y-96654000D02*
X149277700Y-97494800D01*
X104775000Y-43180000D02*
X103664400Y-44290600D01*
X103664400Y-44290600D02*
X103664400Y-45780900D01*
X103664400Y-45780900D02*
X102455300Y-46990000D01*
X102455300Y-46990000D02*
X102026900Y-46990000D01*
X102026900Y-46990000D02*
X98456000Y-50560900D01*
X98456000Y-50560900D02*
X98456000Y-69393600D01*
X98456000Y-69393600D02*
X101220300Y-72157900D01*
X101220300Y-72157900D02*
X101220300Y-89420800D01*
X101220300Y-89420800D02*
X100938500Y-89702600D01*
X100938500Y-89702600D02*
X100938500Y-90597400D01*
X100938500Y-90597400D02*
X101220300Y-90879200D01*
X101220300Y-90879200D02*
X101220300Y-99060000D01*
X99695000Y-99060000D02*
X101220300Y-99060000D01*
X104775000Y-45720000D02*
X103271600Y-47223400D01*
X103271600Y-47223400D02*
X103271600Y-48743900D01*
X103271600Y-48743900D02*
X102485500Y-49530000D01*
X102485500Y-49530000D02*
X102002700Y-49530000D01*
X102002700Y-49530000D02*
X98906300Y-52626400D01*
X98906300Y-52626400D02*
X98906300Y-69207000D01*
X98906300Y-69207000D02*
X101670600Y-71971300D01*
X101670600Y-71971300D02*
X101670600Y-89609200D01*
X101670600Y-89609200D02*
X101388800Y-89891000D01*
X101388800Y-89891000D02*
X101388800Y-90410800D01*
X101388800Y-90410800D02*
X101670600Y-90692600D01*
X101670600Y-90692600D02*
X101670600Y-103689700D01*
X101670600Y-103689700D02*
X101220300Y-104140000D01*
X99695000Y-104140000D02*
X101220300Y-104140000D01*
X104775000Y-53340000D02*
X103271600Y-54843400D01*
X103271600Y-54843400D02*
X103271600Y-56363900D01*
X103271600Y-56363900D02*
X102485500Y-57150000D01*
X102485500Y-57150000D02*
X102017800Y-57150000D01*
X102017800Y-57150000D02*
X99806900Y-59360900D01*
X99806900Y-59360900D02*
X99806900Y-68813700D01*
X99806900Y-68813700D02*
X102639500Y-71646300D01*
X102639500Y-71646300D02*
X102639500Y-112880800D01*
X102639500Y-112880800D02*
X101220300Y-114300000D01*
X99695000Y-114300000D02*
X101220300Y-114300000D01*
X102235000Y-60960000D02*
X100747300Y-62447700D01*
X100747300Y-62447700D02*
X100747300Y-67843400D01*
X100747300Y-67843400D02*
X103540100Y-70636200D01*
X103540100Y-70636200D02*
X103540100Y-107324000D01*
X103540100Y-107324000D02*
X103715100Y-107499000D01*
X103715100Y-107499000D02*
X103715100Y-124505200D01*
X103715100Y-124505200D02*
X101220300Y-127000000D01*
X99695000Y-127000000D02*
X101220300Y-127000000D01*
X104775000Y-60960000D02*
X103505000Y-62230000D01*
X103505000Y-62230000D02*
X101968000Y-62230000D01*
X101968000Y-62230000D02*
X101197700Y-63000300D01*
X101197700Y-63000300D02*
X101197700Y-67656900D01*
X101197700Y-67656900D02*
X103990400Y-70449600D01*
X103990400Y-70449600D02*
X103990400Y-107137400D01*
X103990400Y-107137400D02*
X104165400Y-107312400D01*
X104165400Y-107312400D02*
X104165400Y-126594900D01*
X104165400Y-126594900D02*
X101220300Y-129540000D01*
X99695000Y-129540000D02*
X101220300Y-129540000D01*
X102235000Y-63500000D02*
X102235000Y-68057300D01*
X102235000Y-68057300D02*
X104440700Y-70263000D01*
X104440700Y-70263000D02*
X104440700Y-106950800D01*
X104440700Y-106950800D02*
X104615700Y-107125800D01*
X104615700Y-107125800D02*
X104615700Y-127159300D01*
X104615700Y-127159300D02*
X99695000Y-132080000D01*
X104775000Y-66040000D02*
X105341300Y-66606300D01*
X105341300Y-66606300D02*
X105341300Y-106577600D01*
X105341300Y-106577600D02*
X105533800Y-106770100D01*
X105533800Y-106770100D02*
X105533800Y-130306500D01*
X105533800Y-130306500D02*
X101220300Y-134620000D01*
X99695000Y-134620000D02*
X101220300Y-134620000D01*
X104775000Y-63500000D02*
X103713300Y-64561700D01*
X103713300Y-64561700D02*
X103713300Y-68898700D01*
X103713300Y-68898700D02*
X104891000Y-70076400D01*
X104891000Y-70076400D02*
X104891000Y-106764200D01*
X104891000Y-106764200D02*
X105066100Y-106939300D01*
X105066100Y-106939300D02*
X105066100Y-128707800D01*
X105066100Y-128707800D02*
X100320500Y-133453400D01*
X100320500Y-133453400D02*
X98803800Y-133453400D01*
X98803800Y-133453400D02*
X98169700Y-134087500D01*
X98169700Y-134087500D02*
X98169700Y-137160000D01*
X99695000Y-137160000D02*
X98169700Y-137160000D01*
X101220300Y-139700000D02*
X104130200Y-136790100D01*
X104130200Y-136790100D02*
X104130200Y-135042000D01*
X104130200Y-135042000D02*
X107403800Y-131768400D01*
X107403800Y-131768400D02*
X107403800Y-66128800D01*
X107403800Y-66128800D02*
X107315000Y-66040000D01*
X99695000Y-139700000D02*
X101220300Y-139700000D01*
X99695000Y-142240000D02*
X98169700Y-142240000D01*
X107315000Y-63500000D02*
X106278400Y-64536600D01*
X106278400Y-64536600D02*
X106278400Y-77392800D01*
X106278400Y-77392800D02*
X106929800Y-78044200D01*
X106929800Y-78044200D02*
X106929800Y-129547400D01*
X106929800Y-129547400D02*
X103229500Y-133247700D01*
X103229500Y-133247700D02*
X103229500Y-135624400D01*
X103229500Y-135624400D02*
X100320500Y-138533400D01*
X100320500Y-138533400D02*
X98803800Y-138533400D01*
X98803800Y-138533400D02*
X98169700Y-139167500D01*
X98169700Y-139167500D02*
X98169700Y-142240000D01*
X137729400Y-132723800D02*
X136264800Y-131259200D01*
X136264800Y-131259200D02*
X136264800Y-95347300D01*
X136264800Y-95347300D02*
X136319600Y-95292500D01*
X136319600Y-95292500D02*
X136319600Y-91277800D01*
X136319600Y-91277800D02*
X137460900Y-90136500D01*
X137460900Y-90136500D02*
X137460900Y-80107100D01*
X137460900Y-80107100D02*
X137658200Y-79909800D01*
X109855000Y-43180000D02*
X109762500Y-43272500D01*
X109762500Y-43272500D02*
X109762500Y-54596500D01*
X109762500Y-54596500D02*
X116205000Y-61039000D01*
X116205000Y-61039000D02*
X116205000Y-77413000D01*
X116205000Y-77413000D02*
X117623100Y-78831100D01*
X140273700Y-83082000D02*
X140123900Y-83231800D01*
X140123900Y-83231800D02*
X140123900Y-87722600D01*
X140123900Y-87722600D02*
X140566500Y-88165200D01*
X140566500Y-88165200D02*
X140566500Y-93034100D01*
X140566500Y-93034100D02*
X139693600Y-93907000D01*
X139693600Y-93907000D02*
X139693600Y-137992000D01*
X104775000Y-48260000D02*
X103722000Y-49313000D01*
X103722000Y-49313000D02*
X103722000Y-51267400D01*
X103722000Y-51267400D02*
X104684800Y-52230200D01*
X104684800Y-52230200D02*
X105417700Y-52230200D01*
X132531300Y-119151000D02*
X134816200Y-116866100D01*
X134816200Y-116866100D02*
X134816200Y-94885200D01*
X134816200Y-94885200D02*
X134968700Y-94732700D01*
X134968700Y-94732700D02*
X134968700Y-90605700D01*
X134968700Y-90605700D02*
X135177800Y-90396600D01*
X135177800Y-90396600D02*
X135290100Y-90396600D01*
X135290100Y-90396600D02*
X136084800Y-89601900D01*
X136084800Y-89601900D02*
X136084800Y-78456500D01*
X136084800Y-78456500D02*
X136915400Y-77625900D01*
X136915400Y-77625900D02*
X136915400Y-74419400D01*
X132473000Y-135442000D02*
X127086800Y-140828200D01*
X127086800Y-140828200D02*
X124046500Y-140828200D01*
X124046500Y-140828200D02*
X119353000Y-136134700D01*
X119353000Y-136134700D02*
X119353000Y-77105700D01*
X102235000Y-58420000D02*
X100279100Y-60375900D01*
X100279100Y-60375900D02*
X100279100Y-68012100D01*
X100279100Y-68012100D02*
X103089800Y-70822800D01*
X103089800Y-70822800D02*
X103089800Y-118156600D01*
X135678600Y-134082200D02*
X135678600Y-141691000D01*
X135678600Y-141691000D02*
X135949100Y-141961500D01*
X111399700Y-111437000D02*
X111208700Y-111628000D01*
X111208700Y-111628000D02*
X111208700Y-114730400D01*
X111208700Y-114730400D02*
X111848600Y-115370300D01*
X111848600Y-115370300D02*
X111848600Y-126486000D01*
X111848600Y-126486000D02*
X112840700Y-127478100D01*
X112503800Y-123504300D02*
X112708700Y-123299400D01*
X112708700Y-123299400D02*
X112708700Y-88742100D01*
X112708700Y-88742100D02*
X112634300Y-88667700D01*
M02*
