G04 #@! TF.GenerationSoftware,KiCad,Pcbnew,(5.1.2-1)-1*
G04 #@! TF.CreationDate,2019-06-12T21:47:26+01:00*
G04 #@! TF.ProjectId,A500 FastRAM,41353030-2046-4617-9374-52414d2e6b69,rev?*
G04 #@! TF.SameCoordinates,Original*
G04 #@! TF.FileFunction,Copper,L3,Inr*
G04 #@! TF.FilePolarity,Positive*
%FSLAX46Y46*%
G04 Gerber Fmt 4.6, Leading zero omitted, Abs format (unit mm)*
G04 Created by KiCad (PCBNEW (5.1.2-1)-1) date 2019-06-12 21:47:26*
%MOMM*%
%LPD*%
G04 APERTURE LIST*
%ADD10R,1.700000X1.700000*%
%ADD11O,1.700000X1.700000*%
%ADD12C,1.422400*%
%ADD13R,1.422400X1.422400*%
%ADD14R,2.400000X1.600000*%
%ADD15O,2.400000X1.600000*%
%ADD16C,0.800000*%
%ADD17C,0.600000*%
%ADD18C,0.381000*%
%ADD19C,0.200000*%
G04 APERTURE END LIST*
D10*
X145034000Y-36131500D03*
D11*
X142494000Y-36131500D03*
X139954000Y-36131500D03*
X137414000Y-36131500D03*
X134874000Y-36131500D03*
X132334000Y-36131500D03*
D10*
X132715000Y-153035000D03*
D11*
X135255000Y-153035000D03*
X137795000Y-153035000D03*
D12*
X113030000Y-43180000D03*
X110490000Y-43180000D03*
X107950000Y-43180000D03*
X105410000Y-43180000D03*
X115570000Y-43180000D03*
X118110000Y-43180000D03*
X120650000Y-43180000D03*
X123190000Y-43180000D03*
D13*
X113030000Y-40640000D03*
D12*
X110490000Y-40640000D03*
X107950000Y-40640000D03*
X105410000Y-40640000D03*
X102870000Y-40640000D03*
X115570000Y-40640000D03*
X118110000Y-40640000D03*
X120650000Y-40640000D03*
X102870000Y-43180000D03*
X102870000Y-45720000D03*
X102870000Y-48260000D03*
X102870000Y-50800000D03*
X102870000Y-53340000D03*
X102870000Y-55880000D03*
X102870000Y-58420000D03*
X102870000Y-60960000D03*
X100330000Y-43180000D03*
X100330000Y-45720000D03*
X100330000Y-48260000D03*
X100330000Y-50800000D03*
X100330000Y-53340000D03*
X100330000Y-55880000D03*
X100330000Y-58420000D03*
X100330000Y-60960000D03*
X100330000Y-63500000D03*
X102870000Y-63500000D03*
X105410000Y-63500000D03*
X107950000Y-63500000D03*
X110490000Y-63500000D03*
X113030000Y-63500000D03*
X115570000Y-63500000D03*
X118110000Y-63500000D03*
X120650000Y-63500000D03*
X125730000Y-63500000D03*
X102870000Y-66040000D03*
X105410000Y-66040000D03*
X107950000Y-66040000D03*
X110490000Y-66040000D03*
X113030000Y-66040000D03*
X115570000Y-66040000D03*
X118110000Y-66040000D03*
X120650000Y-66040000D03*
X123190000Y-66040000D03*
X123190000Y-63500000D03*
X123190000Y-60960000D03*
X123190000Y-58420000D03*
X123190000Y-55880000D03*
X123190000Y-53340000D03*
X123190000Y-50800000D03*
X123190000Y-48260000D03*
X123190000Y-45720000D03*
X123190000Y-40640000D03*
X125730000Y-60960000D03*
X125730000Y-58420000D03*
X125730000Y-55880000D03*
X125730000Y-53340000D03*
X125730000Y-50800000D03*
X125730000Y-48260000D03*
X125730000Y-45720000D03*
X125730000Y-43180000D03*
D14*
X100330000Y-73025000D03*
D15*
X123190000Y-151765000D03*
X100330000Y-75565000D03*
X123190000Y-149225000D03*
X100330000Y-78105000D03*
X123190000Y-146685000D03*
X100330000Y-80645000D03*
X123190000Y-144145000D03*
X100330000Y-83185000D03*
X123190000Y-141605000D03*
X100330000Y-85725000D03*
X123190000Y-139065000D03*
X100330000Y-88265000D03*
X123190000Y-136525000D03*
X100330000Y-90805000D03*
X123190000Y-133985000D03*
X100330000Y-93345000D03*
X123190000Y-131445000D03*
X100330000Y-95885000D03*
X123190000Y-128905000D03*
X100330000Y-98425000D03*
X123190000Y-126365000D03*
X100330000Y-100965000D03*
X123190000Y-123825000D03*
X100330000Y-103505000D03*
X123190000Y-121285000D03*
X100330000Y-106045000D03*
X123190000Y-118745000D03*
X100330000Y-108585000D03*
X123190000Y-116205000D03*
X100330000Y-111125000D03*
X123190000Y-113665000D03*
X100330000Y-113665000D03*
X123190000Y-111125000D03*
X100330000Y-116205000D03*
X123190000Y-108585000D03*
X100330000Y-118745000D03*
X123190000Y-106045000D03*
X100330000Y-121285000D03*
X123190000Y-103505000D03*
X100330000Y-123825000D03*
X123190000Y-100965000D03*
X100330000Y-126365000D03*
X123190000Y-98425000D03*
X100330000Y-128905000D03*
X123190000Y-95885000D03*
X100330000Y-131445000D03*
X123190000Y-93345000D03*
X100330000Y-133985000D03*
X123190000Y-90805000D03*
X100330000Y-136525000D03*
X123190000Y-88265000D03*
X100330000Y-139065000D03*
X123190000Y-85725000D03*
X100330000Y-141605000D03*
X123190000Y-83185000D03*
X100330000Y-144145000D03*
X123190000Y-80645000D03*
X100330000Y-146685000D03*
X123190000Y-78105000D03*
X100330000Y-149225000D03*
X123190000Y-75565000D03*
X100330000Y-151765000D03*
X123190000Y-73025000D03*
D16*
X147549500Y-91832900D03*
X110059400Y-93685200D03*
X107693100Y-116564500D03*
X116329800Y-109689700D03*
X147560600Y-75973400D03*
X160046100Y-104122400D03*
X149460000Y-104775000D03*
X115828000Y-101480800D03*
D17*
X133647100Y-84620300D03*
X133664100Y-89049900D03*
X143478900Y-85525100D03*
X143586900Y-90820500D03*
X153908300Y-134945900D03*
X153882500Y-107144600D03*
X153949100Y-78608200D03*
X111760000Y-56272700D03*
X154544400Y-50837400D03*
X133820900Y-68616600D03*
X155345800Y-76190200D03*
X153889500Y-132255000D03*
X153891900Y-105543500D03*
X108817100Y-67227500D03*
X154756600Y-47139300D03*
X134637600Y-70995800D03*
X153261300Y-126303400D03*
X153878700Y-104655200D03*
X153700900Y-45722800D03*
X154798800Y-74977100D03*
X109078300Y-58946300D03*
X153885600Y-129702300D03*
X153717400Y-73067700D03*
X151084800Y-48781800D03*
X153878700Y-102156400D03*
X128370100Y-59663200D03*
X153197600Y-69037100D03*
X151145200Y-43931800D03*
X153225300Y-127461900D03*
X153878700Y-99990300D03*
X138224900Y-55484600D03*
X138744100Y-52727300D03*
X138839700Y-53771100D03*
X139034900Y-58382600D03*
X151171900Y-58138900D03*
X151143600Y-86446300D03*
X151176000Y-142456500D03*
X151148600Y-114074100D03*
X132545800Y-63753200D03*
X137950900Y-70395300D03*
X137276900Y-102846900D03*
X137800600Y-82691400D03*
X138746100Y-79388500D03*
X137204900Y-67500500D03*
X136930500Y-109022100D03*
X139725000Y-79405600D03*
X132044000Y-77806100D03*
X133069000Y-63144500D03*
X115691800Y-144341300D03*
X107517600Y-140022500D03*
X129693600Y-142779100D03*
X127735200Y-82265200D03*
X139472500Y-82195300D03*
X143488000Y-82578100D03*
X140713800Y-83331600D03*
X140739600Y-84913900D03*
X129559100Y-84959700D03*
X140553400Y-86981300D03*
X129097900Y-86758100D03*
X156713400Y-48979500D03*
X163110500Y-71771000D03*
X160763900Y-128924800D03*
X141305300Y-92010400D03*
X160355300Y-101814800D03*
X163094300Y-101621700D03*
X140645600Y-89561100D03*
X160756000Y-130192300D03*
X163110500Y-74311000D03*
X158378700Y-48353900D03*
X159328300Y-48176600D03*
X163285400Y-75271600D03*
X160744000Y-131480700D03*
X160741700Y-102882700D03*
X144418000Y-90851200D03*
X160712400Y-48227100D03*
X163310800Y-76548800D03*
X160712700Y-132769100D03*
X163094300Y-104146000D03*
X140223300Y-90761800D03*
X163631500Y-78756000D03*
X163083100Y-126693700D03*
X163094300Y-106685900D03*
X163806400Y-98735000D03*
X163231200Y-80661000D03*
X160554500Y-81456500D03*
X128397600Y-81044800D03*
X160760700Y-54632500D03*
X163279400Y-82295700D03*
X132018400Y-79413000D03*
X151161700Y-138585300D03*
X151346900Y-111766200D03*
X151059800Y-55309100D03*
X150995300Y-80549700D03*
X131981500Y-67092000D03*
X154306600Y-98673300D03*
X153701800Y-80660700D03*
X132512900Y-70184300D03*
X153693400Y-136526900D03*
X153878700Y-108187600D03*
X153899800Y-77807800D03*
X151008800Y-51448300D03*
X112743900Y-122775600D03*
X136187600Y-130266000D03*
X112891300Y-107775200D03*
X135725000Y-90806500D03*
X126224300Y-85129100D03*
X163083700Y-140347700D03*
X160637100Y-114419400D03*
X160715300Y-57210000D03*
X160568800Y-86070200D03*
X135125000Y-89685400D03*
X151175900Y-143709900D03*
X132535600Y-97247700D03*
X151111600Y-59821900D03*
X139330700Y-86212800D03*
X151167100Y-87450000D03*
X132080500Y-87960000D03*
X151154100Y-115082800D03*
X131063200Y-95453400D03*
X163317400Y-57449500D03*
X163297000Y-85349500D03*
X163283700Y-141179400D03*
X163463700Y-114325300D03*
X134018300Y-90330600D03*
X135151100Y-100849000D03*
D16*
X138926600Y-48216300D03*
D17*
X159407400Y-69009500D03*
X141824100Y-70074200D03*
X160463300Y-96082500D03*
X150284800Y-67234900D03*
X138516100Y-65620900D03*
X151164500Y-94174100D03*
X160567500Y-150918000D03*
X160742500Y-123222600D03*
X160083200Y-95038600D03*
X158873500Y-66263200D03*
X141811800Y-66230500D03*
X149609700Y-69107600D03*
X136888400Y-68770700D03*
X151167400Y-95266000D03*
X158969900Y-63594200D03*
X138194000Y-57907400D03*
X158483400Y-89854700D03*
X142635500Y-54012300D03*
X160281700Y-70663500D03*
X160550200Y-60234600D03*
X160438800Y-93028000D03*
X160155500Y-64063200D03*
X136905800Y-52705000D03*
X157828000Y-61800800D03*
X141825200Y-57689700D03*
X151139300Y-65230800D03*
X151131100Y-93290900D03*
X131287200Y-116079300D03*
X131326400Y-130339200D03*
X131420900Y-134060600D03*
X131486800Y-143491100D03*
X137028600Y-93513000D03*
X136432800Y-132681600D03*
X136252900Y-137130000D03*
X134943600Y-93504600D03*
X105672400Y-93500800D03*
X127090400Y-112192200D03*
X131497100Y-135238300D03*
X105060000Y-125399500D03*
X110600700Y-127032500D03*
X131410700Y-131547800D03*
X102441000Y-121896000D03*
X134272300Y-146363500D03*
X134338300Y-127510600D03*
X112758400Y-126729700D03*
X110680600Y-109990000D03*
X110603900Y-123156600D03*
X110566400Y-85710400D03*
X110571600Y-96520000D03*
X130892400Y-111492700D03*
X110571600Y-104140000D03*
X128082100Y-113558200D03*
X110613800Y-88261300D03*
X112741900Y-125223800D03*
X109944700Y-120483900D03*
X112742300Y-98425000D03*
D18*
X147560600Y-91832900D02*
X147560600Y-75973400D01*
X149460000Y-104775000D02*
X147560600Y-102875600D01*
X147560600Y-102875600D02*
X147560600Y-91832900D01*
X147560600Y-91832900D02*
X147549500Y-91832900D01*
X137795000Y-153035000D02*
X137795000Y-116440000D01*
X137795000Y-116440000D02*
X149460000Y-104775000D01*
X125730000Y-48260000D02*
X134874000Y-39116000D01*
X134874000Y-39116000D02*
X134874000Y-36131500D01*
D19*
X137414000Y-37281800D02*
X135887800Y-38808000D01*
X135887800Y-38808000D02*
X135887800Y-82379600D01*
X135887800Y-82379600D02*
X133647100Y-84620300D01*
X137414000Y-36131500D02*
X137414000Y-37281800D01*
X139954000Y-37281800D02*
X136288100Y-40947700D01*
X136288100Y-40947700D02*
X136288100Y-86425900D01*
X136288100Y-86425900D02*
X133664100Y-89049900D01*
X139954000Y-36131500D02*
X139954000Y-37281800D01*
X145034000Y-37281800D02*
X145034000Y-83970000D01*
X145034000Y-83970000D02*
X143478900Y-85525100D01*
X145034000Y-36131500D02*
X145034000Y-37281800D01*
X142494000Y-37281800D02*
X142025400Y-37750400D01*
X142025400Y-37750400D02*
X142025400Y-56733300D01*
X142025400Y-56733300D02*
X142458000Y-57165900D01*
X142458000Y-57165900D02*
X142458000Y-82467300D01*
X142458000Y-82467300D02*
X140611700Y-84313600D01*
X140611700Y-84313600D02*
X140375800Y-84313600D01*
X140375800Y-84313600D02*
X138701300Y-85988100D01*
X138701300Y-85988100D02*
X138701300Y-86487400D01*
X138701300Y-86487400D02*
X143034400Y-90820500D01*
X143034400Y-90820500D02*
X143586900Y-90820500D01*
X142494000Y-36131500D02*
X142494000Y-37281800D01*
X154544400Y-50837400D02*
X154761200Y-51054200D01*
X154761200Y-51054200D02*
X154761200Y-74165800D01*
X154761200Y-74165800D02*
X154158200Y-74768800D01*
X154158200Y-74768800D02*
X154158200Y-76417600D01*
X154158200Y-76417600D02*
X154518300Y-76777700D01*
X154518300Y-76777700D02*
X154518300Y-78039000D01*
X154518300Y-78039000D02*
X153949100Y-78608200D01*
X153882500Y-107144600D02*
X154498100Y-107760200D01*
X154498100Y-107760200D02*
X154498100Y-134356100D01*
X154498100Y-134356100D02*
X153908300Y-134945900D01*
X153949100Y-78608200D02*
X155316800Y-79975900D01*
X155316800Y-79975900D02*
X155316800Y-102133500D01*
X155316800Y-102133500D02*
X153278400Y-104171900D01*
X153278400Y-104171900D02*
X153278400Y-106540500D01*
X153278400Y-106540500D02*
X153882500Y-107144600D01*
X113030000Y-41651500D02*
X111760000Y-42921500D01*
X111760000Y-42921500D02*
X111760000Y-56272700D01*
X113030000Y-40640000D02*
X113030000Y-41651500D01*
X123190000Y-151765000D02*
X121689700Y-151765000D01*
X121689700Y-151765000D02*
X114300000Y-144375300D01*
X114300000Y-144375300D02*
X114300000Y-64770000D01*
X114300000Y-64770000D02*
X113030000Y-63500000D01*
X155345800Y-76190200D02*
X156120000Y-76964400D01*
X156120000Y-76964400D02*
X156120000Y-103315400D01*
X156120000Y-103315400D02*
X153891900Y-105543500D01*
X154756600Y-47139300D02*
X155611900Y-47994600D01*
X155611900Y-47994600D02*
X155611900Y-75924100D01*
X155611900Y-75924100D02*
X155345800Y-76190200D01*
X108817100Y-67227500D02*
X109220000Y-66824600D01*
X109220000Y-66824600D02*
X109220000Y-60503500D01*
X109220000Y-60503500D02*
X113030000Y-56693500D01*
X113030000Y-56693500D02*
X113030000Y-43180000D01*
X115570000Y-66040000D02*
X115570000Y-99910800D01*
X115570000Y-99910800D02*
X117030200Y-101371000D01*
X117030200Y-101371000D02*
X117030200Y-144565500D01*
X117030200Y-144565500D02*
X121689700Y-149225000D01*
X123190000Y-149225000D02*
X121689700Y-149225000D01*
X154798800Y-74977100D02*
X154698800Y-75077100D01*
X154698800Y-75077100D02*
X154698800Y-76392100D01*
X154698800Y-76392100D02*
X155719500Y-77412800D01*
X155719500Y-77412800D02*
X155719500Y-102814400D01*
X155719500Y-102814400D02*
X153878700Y-104655200D01*
X153700900Y-45722800D02*
X153700900Y-47355000D01*
X153700900Y-47355000D02*
X155199100Y-48853200D01*
X155199100Y-48853200D02*
X155199100Y-74576800D01*
X155199100Y-74576800D02*
X154798800Y-74977100D01*
X109078300Y-58946300D02*
X109078300Y-42051700D01*
X109078300Y-42051700D02*
X110490000Y-40640000D01*
X115570000Y-63500000D02*
X116840000Y-64770000D01*
X116840000Y-64770000D02*
X116840000Y-83607900D01*
X116840000Y-83607900D02*
X117464900Y-84232800D01*
X117464900Y-84232800D02*
X117464900Y-142460200D01*
X117464900Y-142460200D02*
X121689700Y-146685000D01*
X123190000Y-146685000D02*
X121689700Y-146685000D01*
X153717400Y-73067700D02*
X152948500Y-73836600D01*
X152948500Y-73836600D02*
X152948500Y-98190800D01*
X152948500Y-98190800D02*
X154504500Y-99746800D01*
X154504500Y-99746800D02*
X154504500Y-101530600D01*
X154504500Y-101530600D02*
X153878700Y-102156400D01*
X153885600Y-129702300D02*
X153885600Y-109715900D01*
X153885600Y-109715900D02*
X152465200Y-108295500D01*
X152465200Y-108295500D02*
X152465200Y-103569900D01*
X152465200Y-103569900D02*
X153878700Y-102156400D01*
X153717400Y-73067700D02*
X153810500Y-72974600D01*
X153810500Y-72974600D02*
X153810500Y-55329300D01*
X153810500Y-55329300D02*
X150408500Y-51927300D01*
X150408500Y-51927300D02*
X150408500Y-49458100D01*
X150408500Y-49458100D02*
X151084800Y-48781800D01*
X118110000Y-66040000D02*
X118014800Y-66135200D01*
X118014800Y-66135200D02*
X118014800Y-140470100D01*
X118014800Y-140470100D02*
X121689700Y-144145000D01*
X123190000Y-144145000D02*
X121689700Y-144145000D01*
X153878700Y-99990300D02*
X153878700Y-100586200D01*
X153878700Y-100586200D02*
X152049300Y-102415600D01*
X152049300Y-102415600D02*
X152049300Y-108646000D01*
X152049300Y-108646000D02*
X152215100Y-108811800D01*
X152215100Y-108811800D02*
X152215100Y-126451700D01*
X152215100Y-126451700D02*
X153225300Y-127461900D01*
X153197600Y-69037100D02*
X152546100Y-69688600D01*
X152546100Y-69688600D02*
X152546100Y-98657700D01*
X152546100Y-98657700D02*
X153878700Y-99990300D01*
X151145200Y-43931800D02*
X150008200Y-45068800D01*
X150008200Y-45068800D02*
X150008200Y-53398200D01*
X150008200Y-53398200D02*
X153197600Y-56587600D01*
X153197600Y-56587600D02*
X153197600Y-69037100D01*
X118110000Y-63500000D02*
X119125500Y-64515500D01*
X119125500Y-64515500D02*
X119125500Y-68669200D01*
X119125500Y-68669200D02*
X118415100Y-69379600D01*
X118415100Y-69379600D02*
X118415100Y-138330400D01*
X118415100Y-138330400D02*
X121689700Y-141605000D01*
X123190000Y-141605000D02*
X121689700Y-141605000D01*
X120650000Y-66040000D02*
X120638100Y-66051900D01*
X120638100Y-66051900D02*
X120638100Y-78675100D01*
X120638100Y-78675100D02*
X118815400Y-80497800D01*
X118815400Y-80497800D02*
X118815400Y-136190700D01*
X118815400Y-136190700D02*
X121689700Y-139065000D01*
X123190000Y-139065000D02*
X121689700Y-139065000D01*
X120650000Y-63500000D02*
X120650000Y-63530600D01*
X120650000Y-63530600D02*
X121689700Y-64570300D01*
X121689700Y-64570300D02*
X121689700Y-71100500D01*
X121689700Y-71100500D02*
X121038400Y-71751800D01*
X121038400Y-71751800D02*
X121038400Y-78840900D01*
X121038400Y-78840900D02*
X119215700Y-80663600D01*
X119215700Y-80663600D02*
X119215700Y-134051000D01*
X119215700Y-134051000D02*
X121689700Y-136525000D01*
X123190000Y-136525000D02*
X121689700Y-136525000D01*
X123190000Y-133985000D02*
X121689700Y-133985000D01*
X121689700Y-133985000D02*
X119616000Y-131911300D01*
X119616000Y-131911300D02*
X119616000Y-81029700D01*
X119616000Y-81029700D02*
X121670100Y-78975600D01*
X121670100Y-78975600D02*
X121670100Y-77637300D01*
X121670100Y-77637300D02*
X122472400Y-76835000D01*
X122472400Y-76835000D02*
X123902000Y-76835000D01*
X123902000Y-76835000D02*
X124690300Y-76046700D01*
X124690300Y-76046700D02*
X124690300Y-67540300D01*
X124690300Y-67540300D02*
X123190000Y-66040000D01*
X151171900Y-58138900D02*
X152145800Y-59112800D01*
X152145800Y-59112800D02*
X152145800Y-85444100D01*
X152145800Y-85444100D02*
X151143600Y-86446300D01*
X125730000Y-63500000D02*
X126291500Y-64061500D01*
X126291500Y-64061500D02*
X126291500Y-78637300D01*
X126291500Y-78637300D02*
X125091800Y-79837000D01*
X125091800Y-79837000D02*
X125091800Y-80717100D01*
X125091800Y-80717100D02*
X123724200Y-82084700D01*
X123724200Y-82084700D02*
X122330700Y-82084700D01*
X122330700Y-82084700D02*
X120432900Y-83982500D01*
X120432900Y-83982500D02*
X120432900Y-125598900D01*
X120432900Y-125598900D02*
X122638600Y-127804600D01*
X122638600Y-127804600D02*
X124052400Y-127804600D01*
X124052400Y-127804600D02*
X124690300Y-128442500D01*
X124690300Y-128442500D02*
X124690300Y-131445000D01*
X123190000Y-131445000D02*
X124690300Y-131445000D01*
X121689700Y-128905000D02*
X120032600Y-127247900D01*
X120032600Y-127247900D02*
X120032600Y-81839800D01*
X120032600Y-81839800D02*
X122327800Y-79544600D01*
X122327800Y-79544600D02*
X123859400Y-79544600D01*
X123859400Y-79544600D02*
X125490900Y-77913100D01*
X125490900Y-77913100D02*
X125490900Y-65800900D01*
X125490900Y-65800900D02*
X123190000Y-63500000D01*
X123190000Y-128905000D02*
X121689700Y-128905000D01*
X123190000Y-126365000D02*
X120882900Y-124057900D01*
X120882900Y-124057900D02*
X120882900Y-86068100D01*
X120882900Y-86068100D02*
X122440800Y-84510200D01*
X122440800Y-84510200D02*
X123931400Y-84510200D01*
X123931400Y-84510200D02*
X126092300Y-82349300D01*
X126092300Y-82349300D02*
X126092300Y-80251700D01*
X126092300Y-80251700D02*
X127151900Y-79192100D01*
X127151900Y-79192100D02*
X127151900Y-62381900D01*
X127151900Y-62381900D02*
X125730000Y-60960000D01*
X137276900Y-102846900D02*
X137800600Y-102323200D01*
X137800600Y-102323200D02*
X137800600Y-82691400D01*
X137950900Y-70395300D02*
X137950900Y-82541100D01*
X137950900Y-82541100D02*
X137800600Y-82691400D01*
X138718400Y-79388500D02*
X138718400Y-69014000D01*
X138718400Y-69014000D02*
X137204900Y-67500500D01*
X136930500Y-109022100D02*
X138301000Y-107651600D01*
X138301000Y-107651600D02*
X138301000Y-83108700D01*
X138301000Y-83108700D02*
X138718400Y-82691300D01*
X138718400Y-82691300D02*
X138718400Y-79388500D01*
X138718400Y-79388500D02*
X138746100Y-79388500D01*
X132044000Y-77806100D02*
X131911600Y-77673700D01*
X131911600Y-77673700D02*
X131911600Y-68025200D01*
X131911600Y-68025200D02*
X133153200Y-66783600D01*
X133153200Y-66783600D02*
X133153200Y-63228700D01*
X133153200Y-63228700D02*
X133069000Y-63144500D01*
X124690300Y-118745000D02*
X130292100Y-113143200D01*
X130292100Y-113143200D02*
X130292100Y-79558000D01*
X130292100Y-79558000D02*
X132044000Y-77806100D01*
X123190000Y-118745000D02*
X124690300Y-118745000D01*
X123190000Y-116205000D02*
X121689700Y-116205000D01*
X121689700Y-116205000D02*
X121283300Y-115798600D01*
X121283300Y-115798600D02*
X121283300Y-100899300D01*
X121283300Y-100899300D02*
X122487600Y-99695000D01*
X122487600Y-99695000D02*
X123907400Y-99695000D01*
X123907400Y-99695000D02*
X127735200Y-95867200D01*
X127735200Y-95867200D02*
X127735200Y-82265200D01*
X127735200Y-82265200D02*
X127735200Y-80673000D01*
X127735200Y-80673000D02*
X128355900Y-80052300D01*
X128355900Y-80052300D02*
X128355900Y-60498200D01*
X128355900Y-60498200D02*
X127417000Y-59559300D01*
X127417000Y-59559300D02*
X127417000Y-57567000D01*
X127417000Y-57567000D02*
X125730000Y-55880000D01*
X123190000Y-108585000D02*
X121689700Y-108585000D01*
X121689700Y-108585000D02*
X121689700Y-102998600D01*
X121689700Y-102998600D02*
X122453300Y-102235000D01*
X122453300Y-102235000D02*
X123962700Y-102235000D01*
X123962700Y-102235000D02*
X128306200Y-97891500D01*
X128306200Y-97891500D02*
X128306200Y-82671700D01*
X128306200Y-82671700D02*
X129017900Y-81960000D01*
X129017900Y-81960000D02*
X129017900Y-57702600D01*
X129017900Y-57702600D02*
X126125600Y-54810300D01*
X126125600Y-54810300D02*
X124660300Y-54810300D01*
X124660300Y-54810300D02*
X123190000Y-53340000D01*
X129559100Y-84959700D02*
X129818500Y-84700300D01*
X129818500Y-84700300D02*
X129818500Y-54888500D01*
X129818500Y-54888500D02*
X125730000Y-50800000D01*
X124690300Y-106045000D02*
X129730700Y-101004600D01*
X129730700Y-101004600D02*
X129730700Y-85131300D01*
X129730700Y-85131300D02*
X129559100Y-84959700D01*
X123190000Y-106045000D02*
X124690300Y-106045000D01*
X128943100Y-86758100D02*
X128943100Y-82800900D01*
X128943100Y-82800900D02*
X129418200Y-82325800D01*
X129418200Y-82325800D02*
X129418200Y-57536800D01*
X129418200Y-57536800D02*
X126233000Y-54351600D01*
X126233000Y-54351600D02*
X125307500Y-54351600D01*
X125307500Y-54351600D02*
X124460000Y-53504100D01*
X124460000Y-53504100D02*
X124460000Y-52070000D01*
X124460000Y-52070000D02*
X123190000Y-50800000D01*
X124690300Y-103505000D02*
X128943100Y-99252200D01*
X128943100Y-99252200D02*
X128943100Y-86758100D01*
X128943100Y-86758100D02*
X129097900Y-86758100D01*
X123190000Y-103505000D02*
X124690300Y-103505000D01*
X161380600Y-101814800D02*
X161752400Y-101443000D01*
X161752400Y-101443000D02*
X161752400Y-73129100D01*
X161752400Y-73129100D02*
X163110500Y-71771000D01*
X161380600Y-101814800D02*
X161380600Y-128308100D01*
X161380600Y-128308100D02*
X160763900Y-128924800D01*
X161380600Y-101814800D02*
X160355300Y-101814800D01*
X162180600Y-101621700D02*
X163094300Y-101621700D01*
X160756000Y-130192300D02*
X161818700Y-129129600D01*
X161818700Y-129129600D02*
X161818700Y-101983600D01*
X161818700Y-101983600D02*
X162180600Y-101621700D01*
X163110500Y-74311000D02*
X162180600Y-75240900D01*
X162180600Y-75240900D02*
X162180600Y-101621700D01*
X163110500Y-74311000D02*
X163747400Y-73674100D01*
X163747400Y-73674100D02*
X163747400Y-68673100D01*
X163747400Y-68673100D02*
X162710400Y-67636100D01*
X162710400Y-67636100D02*
X162710400Y-52685600D01*
X162710400Y-52685600D02*
X158378700Y-48353900D01*
X160712700Y-132769100D02*
X162219000Y-131262800D01*
X162219000Y-131262800D02*
X162219000Y-105021300D01*
X162219000Y-105021300D02*
X163094300Y-104146000D01*
X163094300Y-104146000D02*
X164412400Y-102827900D01*
X164412400Y-102827900D02*
X164412400Y-77650400D01*
X164412400Y-77650400D02*
X163310800Y-76548800D01*
X124690300Y-88265000D02*
X127094200Y-85861100D01*
X127094200Y-85861100D02*
X127094200Y-80747900D01*
X127094200Y-80747900D02*
X127952700Y-79889400D01*
X127952700Y-79889400D02*
X127952700Y-60944000D01*
X127952700Y-60944000D02*
X127016600Y-60007900D01*
X127016600Y-60007900D02*
X127016600Y-58231000D01*
X127016600Y-58231000D02*
X125677200Y-56891600D01*
X125677200Y-56891600D02*
X125296700Y-56891600D01*
X125296700Y-56891600D02*
X124201600Y-55796500D01*
X124201600Y-55796500D02*
X124201600Y-55425600D01*
X124201600Y-55425600D02*
X123386000Y-54610000D01*
X123386000Y-54610000D02*
X123008500Y-54610000D01*
X123008500Y-54610000D02*
X122123400Y-53724900D01*
X122123400Y-53724900D02*
X122123400Y-44246600D01*
X122123400Y-44246600D02*
X123190000Y-43180000D01*
X123190000Y-88265000D02*
X124690300Y-88265000D01*
X163094300Y-106685900D02*
X162854200Y-106926000D01*
X162854200Y-106926000D02*
X162854200Y-126464800D01*
X162854200Y-126464800D02*
X163083100Y-126693700D01*
X124690300Y-85725000D02*
X126675600Y-83739700D01*
X126675600Y-83739700D02*
X126675600Y-80600400D01*
X126675600Y-80600400D02*
X127552300Y-79723700D01*
X127552300Y-79723700D02*
X127552300Y-61311500D01*
X127552300Y-61311500D02*
X125672400Y-59431600D01*
X125672400Y-59431600D02*
X125293400Y-59431600D01*
X125293400Y-59431600D02*
X124201600Y-58339800D01*
X124201600Y-58339800D02*
X124201600Y-57967900D01*
X124201600Y-57967900D02*
X123383700Y-57150000D01*
X123383700Y-57150000D02*
X123006900Y-57150000D01*
X123006900Y-57150000D02*
X121723000Y-55866100D01*
X121723000Y-55866100D02*
X121723000Y-41713000D01*
X121723000Y-41713000D02*
X120650000Y-40640000D01*
X123190000Y-85725000D02*
X124690300Y-85725000D01*
X163806400Y-98735000D02*
X163949700Y-98591700D01*
X163949700Y-98591700D02*
X163949700Y-81379500D01*
X163949700Y-81379500D02*
X163231200Y-80661000D01*
X120650000Y-43180000D02*
X120650000Y-57345400D01*
X120650000Y-57345400D02*
X122994600Y-59690000D01*
X122994600Y-59690000D02*
X123365800Y-59690000D01*
X123365800Y-59690000D02*
X124201600Y-60525800D01*
X124201600Y-60525800D02*
X124201600Y-60905800D01*
X124201600Y-60905800D02*
X125267400Y-61971600D01*
X125267400Y-61971600D02*
X125634500Y-61971600D01*
X125634500Y-61971600D02*
X126743300Y-63080400D01*
X126743300Y-63080400D02*
X126743300Y-78751600D01*
X126743300Y-78751600D02*
X125692000Y-79802900D01*
X125692000Y-79802900D02*
X125692000Y-82183300D01*
X125692000Y-82183300D02*
X124690300Y-83185000D01*
X123190000Y-83185000D02*
X124690300Y-83185000D01*
X107950000Y-63500000D02*
X106908600Y-64541400D01*
X106908600Y-64541400D02*
X106908600Y-68441800D01*
X106908600Y-68441800D02*
X107099900Y-68633100D01*
X107099900Y-68633100D02*
X107099900Y-95974700D01*
X107099900Y-95974700D02*
X106461100Y-96613500D01*
X106461100Y-96613500D02*
X106461100Y-138013900D01*
X106461100Y-138013900D02*
X101830300Y-142644700D01*
X101830300Y-142644700D02*
X101830300Y-144145000D01*
X100330000Y-144145000D02*
X101830300Y-144145000D01*
X123190000Y-80645000D02*
X123325300Y-80645000D01*
X123325300Y-80645000D02*
X125891200Y-78079100D01*
X125891200Y-78079100D02*
X125891200Y-65563600D01*
X125891200Y-65563600D02*
X124201600Y-63874000D01*
X124201600Y-63874000D02*
X124201600Y-63077500D01*
X124201600Y-63077500D02*
X123354100Y-62230000D01*
X123354100Y-62230000D02*
X122974200Y-62230000D01*
X122974200Y-62230000D02*
X119380000Y-58635800D01*
X119380000Y-58635800D02*
X119380000Y-41910000D01*
X119380000Y-41910000D02*
X118110000Y-40640000D01*
X110490000Y-66040000D02*
X110490000Y-68277300D01*
X110490000Y-68277300D02*
X107704300Y-71063000D01*
X107704300Y-71063000D02*
X107704300Y-115557300D01*
X107704300Y-115557300D02*
X106928200Y-116333400D01*
X106928200Y-116333400D02*
X106928200Y-139047100D01*
X106928200Y-139047100D02*
X102376700Y-143598600D01*
X102376700Y-143598600D02*
X102376700Y-146138600D01*
X102376700Y-146138600D02*
X101830300Y-146685000D01*
X100330000Y-146685000D02*
X101830300Y-146685000D01*
X124690300Y-78105000D02*
X125090600Y-77704700D01*
X125090600Y-77704700D02*
X125090600Y-66510100D01*
X125090600Y-66510100D02*
X123492200Y-64911700D01*
X123492200Y-64911700D02*
X123165400Y-64911700D01*
X123165400Y-64911700D02*
X122155300Y-63901600D01*
X122155300Y-63901600D02*
X122155300Y-62391500D01*
X122155300Y-62391500D02*
X118110000Y-58346200D01*
X118110000Y-58346200D02*
X118110000Y-43180000D01*
X150995300Y-80549700D02*
X150528000Y-81017000D01*
X150528000Y-81017000D02*
X150528000Y-90261400D01*
X150528000Y-90261400D02*
X151771600Y-91505000D01*
X151771600Y-91505000D02*
X151771600Y-102127200D01*
X151771600Y-102127200D02*
X151346900Y-102551900D01*
X151346900Y-102551900D02*
X151346900Y-111766200D01*
X151346900Y-111766200D02*
X151756200Y-112175500D01*
X151756200Y-112175500D02*
X151756200Y-137990800D01*
X151756200Y-137990800D02*
X151161700Y-138585300D01*
X151059800Y-55309100D02*
X150562400Y-55806500D01*
X150562400Y-55806500D02*
X150562400Y-58378400D01*
X150562400Y-58378400D02*
X151745500Y-59561500D01*
X151745500Y-59561500D02*
X151745500Y-79799500D01*
X151745500Y-79799500D02*
X150995300Y-80549700D01*
X123190000Y-78105000D02*
X124690300Y-78105000D01*
X110490000Y-63500000D02*
X111521900Y-64531900D01*
X111521900Y-64531900D02*
X111521900Y-82252900D01*
X111521900Y-82252900D02*
X108395800Y-85379000D01*
X108395800Y-85379000D02*
X108395800Y-142659500D01*
X108395800Y-142659500D02*
X101830300Y-149225000D01*
X100330000Y-149225000D02*
X101830300Y-149225000D01*
X123190000Y-75565000D02*
X121689700Y-75565000D01*
X121689700Y-75565000D02*
X121689700Y-71949600D01*
X121689700Y-71949600D02*
X122090100Y-71549200D01*
X122090100Y-71549200D02*
X122090100Y-64404600D01*
X122090100Y-64404600D02*
X121754900Y-64069400D01*
X121754900Y-64069400D02*
X121754900Y-63124500D01*
X121754900Y-63124500D02*
X116840000Y-58209600D01*
X116840000Y-58209600D02*
X116840000Y-41910000D01*
X116840000Y-41910000D02*
X115570000Y-40640000D01*
X153701800Y-80660700D02*
X153701800Y-98068500D01*
X153701800Y-98068500D02*
X154306600Y-98673300D01*
X100330000Y-151765000D02*
X101830300Y-151765000D01*
X101830300Y-151765000D02*
X108917700Y-144677600D01*
X108917700Y-144677600D02*
X108917700Y-86510000D01*
X108917700Y-86510000D02*
X113030000Y-82397700D01*
X113030000Y-82397700D02*
X113030000Y-66040000D01*
X153899800Y-77807800D02*
X153348800Y-78358800D01*
X153348800Y-78358800D02*
X153348800Y-79422800D01*
X153348800Y-79422800D02*
X154914000Y-80988000D01*
X154914000Y-80988000D02*
X154914000Y-101970200D01*
X154914000Y-101970200D02*
X152878100Y-104006100D01*
X152878100Y-104006100D02*
X152878100Y-107187000D01*
X152878100Y-107187000D02*
X153878700Y-108187600D01*
X151008800Y-51448300D02*
X154317700Y-54757200D01*
X154317700Y-54757200D02*
X154317700Y-74043200D01*
X154317700Y-74043200D02*
X153711600Y-74649300D01*
X153711600Y-74649300D02*
X153711600Y-77619600D01*
X153711600Y-77619600D02*
X153899800Y-77807800D01*
X112891300Y-107775200D02*
X112743900Y-107922600D01*
X112743900Y-107922600D02*
X112743900Y-122775600D01*
X100330000Y-88265000D02*
X98829700Y-88265000D01*
X98829700Y-88265000D02*
X98034900Y-87470200D01*
X98034900Y-87470200D02*
X98034900Y-54149200D01*
X98034900Y-54149200D02*
X100372500Y-51811600D01*
X100372500Y-51811600D02*
X100756200Y-51811600D01*
X100756200Y-51811600D02*
X101858400Y-50709400D01*
X101858400Y-50709400D02*
X101858400Y-50340700D01*
X101858400Y-50340700D02*
X102669100Y-49530000D01*
X102669100Y-49530000D02*
X103044000Y-49530000D01*
X103044000Y-49530000D02*
X104333700Y-48240300D01*
X104333700Y-48240300D02*
X104333700Y-41716300D01*
X104333700Y-41716300D02*
X105410000Y-40640000D01*
X160568800Y-86070200D02*
X161124700Y-86626100D01*
X161124700Y-86626100D02*
X161124700Y-96364900D01*
X161124700Y-96364900D02*
X159297600Y-98192000D01*
X159297600Y-98192000D02*
X159297600Y-113079900D01*
X159297600Y-113079900D02*
X160637100Y-114419400D01*
X160568800Y-86070200D02*
X161184900Y-85454100D01*
X161184900Y-85454100D02*
X161184900Y-57679600D01*
X161184900Y-57679600D02*
X160715300Y-57210000D01*
X139330700Y-86212800D02*
X143640200Y-86212800D01*
X143640200Y-86212800D02*
X145470900Y-84382100D01*
X145470900Y-84382100D02*
X145470900Y-65462600D01*
X145470900Y-65462600D02*
X151111600Y-59821900D01*
X163297000Y-85349500D02*
X162596600Y-84649100D01*
X162596600Y-84649100D02*
X162596600Y-76414100D01*
X162596600Y-76414100D02*
X163138800Y-75871900D01*
X163138800Y-75871900D02*
X163538500Y-75871900D01*
X163538500Y-75871900D02*
X164195900Y-75214500D01*
X164195900Y-75214500D02*
X164195900Y-58328000D01*
X164195900Y-58328000D02*
X163317400Y-57449500D01*
X163283700Y-141179400D02*
X163684000Y-140779100D01*
X163684000Y-140779100D02*
X163684000Y-114545600D01*
X163684000Y-114545600D02*
X163463700Y-114325300D01*
X100330000Y-116205000D02*
X101830300Y-116205000D01*
X101830300Y-116205000D02*
X102244700Y-115790600D01*
X102244700Y-115790600D02*
X102244700Y-71915700D01*
X102244700Y-71915700D02*
X98895900Y-68566900D01*
X98895900Y-68566900D02*
X98895900Y-57314100D01*
X98895900Y-57314100D02*
X100330000Y-55880000D01*
D18*
X132715000Y-153035000D02*
X132715000Y-151794200D01*
X123190000Y-111125000D02*
X124780800Y-111125000D01*
X124780800Y-111125000D02*
X124780800Y-116713700D01*
X124780800Y-116713700D02*
X124019500Y-117475000D01*
X124019500Y-117475000D02*
X122307100Y-117475000D01*
X122307100Y-117475000D02*
X121564800Y-118217300D01*
X121564800Y-118217300D02*
X121564800Y-119274800D01*
X121564800Y-119274800D02*
X122305000Y-120015000D01*
X122305000Y-120015000D02*
X124007200Y-120015000D01*
X124007200Y-120015000D02*
X132715000Y-128722800D01*
X132715000Y-128722800D02*
X132715000Y-151794200D01*
D19*
X160463300Y-96082500D02*
X160688000Y-95857800D01*
X160688000Y-95857800D02*
X160688000Y-94407100D01*
X160688000Y-94407100D02*
X159484000Y-93203100D01*
X159484000Y-93203100D02*
X159484000Y-78234400D01*
X159484000Y-78234400D02*
X159238200Y-77988600D01*
X159238200Y-77988600D02*
X159238200Y-69178700D01*
X159238200Y-69178700D02*
X159407400Y-69009500D01*
X150284800Y-67234900D02*
X150284800Y-79017200D01*
X150284800Y-79017200D02*
X149688600Y-79613400D01*
X149688600Y-79613400D02*
X149688600Y-92698200D01*
X149688600Y-92698200D02*
X151164500Y-94174100D01*
X160083200Y-95038600D02*
X159083700Y-94039100D01*
X159083700Y-94039100D02*
X159083700Y-78400200D01*
X159083700Y-78400200D02*
X158806000Y-78122500D01*
X158806000Y-78122500D02*
X158806000Y-66330700D01*
X158806000Y-66330700D02*
X158873500Y-66263200D01*
X160083200Y-95038600D02*
X158895100Y-96226700D01*
X158895100Y-96226700D02*
X158895100Y-122028000D01*
X158895100Y-122028000D02*
X160089700Y-123222600D01*
X160089700Y-123222600D02*
X160089700Y-150440200D01*
X160089700Y-150440200D02*
X160567500Y-150918000D01*
X160089700Y-123222600D02*
X160742500Y-123222600D01*
X149609700Y-69107600D02*
X149263300Y-69454000D01*
X149263300Y-69454000D02*
X149263300Y-93361900D01*
X149263300Y-93361900D02*
X151167400Y-95266000D01*
X158483400Y-89854700D02*
X158259700Y-89631000D01*
X158259700Y-89631000D02*
X158259700Y-64304400D01*
X158259700Y-64304400D02*
X158969900Y-63594200D01*
X160438800Y-93028000D02*
X159884300Y-92473500D01*
X159884300Y-92473500D02*
X159884300Y-78068600D01*
X159884300Y-78068600D02*
X159660000Y-77844300D01*
X159660000Y-77844300D02*
X159660000Y-70186900D01*
X159660000Y-70186900D02*
X160155500Y-69691400D01*
X160155500Y-69691400D02*
X160155500Y-64063200D01*
X151139300Y-65230800D02*
X151139300Y-79011800D01*
X151139300Y-79011800D02*
X150089000Y-80062100D01*
X150089000Y-80062100D02*
X150089000Y-92248800D01*
X150089000Y-92248800D02*
X151131100Y-93290900D01*
X102870000Y-43180000D02*
X103889800Y-44199800D01*
X103889800Y-44199800D02*
X103889800Y-46149400D01*
X103889800Y-46149400D02*
X103049200Y-46990000D01*
X103049200Y-46990000D02*
X102685400Y-46990000D01*
X102685400Y-46990000D02*
X101858400Y-47817000D01*
X101858400Y-47817000D02*
X101858400Y-48193100D01*
X101858400Y-48193100D02*
X100779900Y-49271600D01*
X100779900Y-49271600D02*
X100407000Y-49271600D01*
X100407000Y-49271600D02*
X97634600Y-52044000D01*
X97634600Y-52044000D02*
X97634600Y-97229900D01*
X97634600Y-97229900D02*
X98829700Y-98425000D01*
X100330000Y-98425000D02*
X98829700Y-98425000D01*
X98829700Y-100965000D02*
X97234300Y-99369600D01*
X97234300Y-99369600D02*
X97234300Y-48815700D01*
X97234300Y-48815700D02*
X100330000Y-45720000D01*
X100330000Y-100965000D02*
X98829700Y-100965000D01*
X100330000Y-103505000D02*
X98829700Y-103505000D01*
X98829700Y-103505000D02*
X96830400Y-101505700D01*
X96830400Y-101505700D02*
X96830400Y-47756100D01*
X96830400Y-47756100D02*
X99898400Y-44688100D01*
X99898400Y-44688100D02*
X101838100Y-44688100D01*
X101838100Y-44688100D02*
X102870000Y-45720000D01*
X100330000Y-113665000D02*
X101830300Y-113665000D01*
X101830300Y-113665000D02*
X101830300Y-72067700D01*
X101830300Y-72067700D02*
X98487900Y-68725300D01*
X98487900Y-68725300D02*
X98487900Y-56242100D01*
X98487900Y-56242100D02*
X100120000Y-54610000D01*
X100120000Y-54610000D02*
X101600000Y-54610000D01*
X101600000Y-54610000D02*
X102870000Y-53340000D01*
X101830300Y-126365000D02*
X101830300Y-126082000D01*
X101830300Y-126082000D02*
X103445800Y-124466500D01*
X103445800Y-124466500D02*
X103445800Y-70826100D01*
X103445800Y-70826100D02*
X101037500Y-68417800D01*
X101037500Y-68417800D02*
X101037500Y-64896900D01*
X101037500Y-64896900D02*
X101387600Y-64546800D01*
X101387600Y-64546800D02*
X101387600Y-62017600D01*
X101387600Y-62017600D02*
X100330000Y-60960000D01*
X100330000Y-126365000D02*
X101830300Y-126365000D01*
X101830300Y-128905000D02*
X103258800Y-127476500D01*
X103258800Y-127476500D02*
X103258800Y-125219600D01*
X103258800Y-125219600D02*
X103846100Y-124632300D01*
X103846100Y-124632300D02*
X103846100Y-70660300D01*
X103846100Y-70660300D02*
X101437800Y-68252000D01*
X101437800Y-68252000D02*
X101437800Y-65062700D01*
X101437800Y-65062700D02*
X101838100Y-64662400D01*
X101838100Y-64662400D02*
X101838100Y-61991900D01*
X101838100Y-61991900D02*
X102870000Y-60960000D01*
X100330000Y-128905000D02*
X101830300Y-128905000D01*
X98829700Y-131445000D02*
X98829700Y-125840500D01*
X98829700Y-125840500D02*
X99405600Y-125264600D01*
X99405600Y-125264600D02*
X100848800Y-125264600D01*
X100848800Y-125264600D02*
X103045500Y-123067900D01*
X103045500Y-123067900D02*
X103045500Y-70992100D01*
X103045500Y-70992100D02*
X100330000Y-68276600D01*
X100330000Y-68276600D02*
X100330000Y-63500000D01*
X100330000Y-131445000D02*
X98829700Y-131445000D01*
X102870000Y-66040000D02*
X102870000Y-68036600D01*
X102870000Y-68036600D02*
X104646700Y-69813300D01*
X104646700Y-69813300D02*
X104646700Y-124963900D01*
X104646700Y-124963900D02*
X104059400Y-125551200D01*
X104059400Y-125551200D02*
X104059400Y-131755900D01*
X104059400Y-131755900D02*
X101830300Y-133985000D01*
X100330000Y-133985000D02*
X101830300Y-133985000D01*
X102870000Y-63500000D02*
X102870000Y-64396900D01*
X102870000Y-64396900D02*
X101838100Y-65428800D01*
X101838100Y-65428800D02*
X101838100Y-67854000D01*
X101838100Y-67854000D02*
X104246400Y-70262300D01*
X104246400Y-70262300D02*
X104246400Y-124798100D01*
X104246400Y-124798100D02*
X103659100Y-125385400D01*
X103659100Y-125385400D02*
X103659100Y-130072600D01*
X103659100Y-130072600D02*
X101016700Y-132715000D01*
X101016700Y-132715000D02*
X99570500Y-132715000D01*
X99570500Y-132715000D02*
X98829700Y-133455800D01*
X98829700Y-133455800D02*
X98829700Y-136525000D01*
X100330000Y-136525000D02*
X98829700Y-136525000D01*
X105410000Y-66040000D02*
X106107800Y-66737800D01*
X106107800Y-66737800D02*
X106107800Y-84651000D01*
X106107800Y-84651000D02*
X106272800Y-84816000D01*
X106272800Y-84816000D02*
X106272800Y-94298600D01*
X106272800Y-94298600D02*
X105660300Y-94911100D01*
X105660300Y-94911100D02*
X105660300Y-135235000D01*
X105660300Y-135235000D02*
X101830300Y-139065000D01*
X100330000Y-139065000D02*
X101830300Y-139065000D01*
X100330000Y-141605000D02*
X101830300Y-141605000D01*
X101830300Y-141605000D02*
X106060700Y-137374600D01*
X106060700Y-137374600D02*
X106060700Y-95962600D01*
X106060700Y-95962600D02*
X106673200Y-95350100D01*
X106673200Y-95350100D02*
X106673200Y-76911700D01*
X106673200Y-76911700D02*
X106508200Y-76746700D01*
X106508200Y-76746700D02*
X106508200Y-64598200D01*
X106508200Y-64598200D02*
X105410000Y-63500000D01*
X136500200Y-93661400D02*
X133046800Y-90208000D01*
X133046800Y-90208000D02*
X133046800Y-84371600D01*
X133046800Y-84371600D02*
X133220600Y-84197800D01*
X133220600Y-84197800D02*
X133220600Y-68358300D01*
X133220600Y-68358300D02*
X133669300Y-67909600D01*
X133669300Y-67909600D02*
X133669300Y-57233600D01*
X133669300Y-57233600D02*
X125707300Y-49271600D01*
X125707300Y-49271600D02*
X125307500Y-49271600D01*
X125307500Y-49271600D02*
X124201600Y-48165700D01*
X124201600Y-48165700D02*
X124201600Y-42757500D01*
X124201600Y-42757500D02*
X123097600Y-41653500D01*
X123097600Y-41653500D02*
X122738300Y-41653500D01*
X122738300Y-41653500D02*
X121919800Y-40835000D01*
X121919800Y-40835000D02*
X121919800Y-40457800D01*
X121919800Y-40457800D02*
X121063300Y-39601300D01*
X121063300Y-39601300D02*
X110098100Y-39601300D01*
X110098100Y-39601300D02*
X109361700Y-40337700D01*
X109361700Y-40337700D02*
X109361700Y-40989900D01*
X109361700Y-40989900D02*
X107950000Y-42401600D01*
X107950000Y-42401600D02*
X107950000Y-43180000D01*
X136500200Y-93661400D02*
X136648600Y-93513000D01*
X136648600Y-93513000D02*
X137028600Y-93513000D01*
X136500200Y-93661400D02*
X136326900Y-93834700D01*
X136326900Y-93834700D02*
X136326900Y-128204500D01*
X136326900Y-128204500D02*
X136787900Y-128665500D01*
X136787900Y-128665500D02*
X136787900Y-132326500D01*
X136787900Y-132326500D02*
X136432800Y-132681600D01*
X134943600Y-93504600D02*
X135752100Y-94313100D01*
X135752100Y-94313100D02*
X135752100Y-129152000D01*
X135752100Y-129152000D02*
X135578800Y-129325300D01*
X135578800Y-129325300D02*
X135578800Y-136455900D01*
X135578800Y-136455900D02*
X136252900Y-137130000D01*
X102870000Y-55880000D02*
X104391100Y-57401100D01*
X104391100Y-57401100D02*
X104391100Y-68142500D01*
X104391100Y-68142500D02*
X105672400Y-69423800D01*
X105672400Y-69423800D02*
X105672400Y-93500800D01*
X102870000Y-58420000D02*
X103890700Y-59440700D01*
X103890700Y-59440700D02*
X103890700Y-68208300D01*
X103890700Y-68208300D02*
X105060000Y-69377600D01*
X105060000Y-69377600D02*
X105060000Y-125399500D01*
X102441000Y-121896000D02*
X102645100Y-121691900D01*
X102645100Y-121691900D02*
X102645100Y-71723900D01*
X102645100Y-71723900D02*
X99317800Y-68396600D01*
X99317800Y-68396600D02*
X99317800Y-59432200D01*
X99317800Y-59432200D02*
X100330000Y-58420000D01*
X134272300Y-146363500D02*
X134272300Y-127576600D01*
X134272300Y-127576600D02*
X134338300Y-127510600D01*
X112758400Y-126729700D02*
X111852900Y-125824200D01*
X111852900Y-125824200D02*
X111852900Y-111162300D01*
X111852900Y-111162300D02*
X110680600Y-109990000D01*
X110603900Y-123156600D02*
X109344300Y-121897000D01*
X109344300Y-121897000D02*
X109344300Y-86932500D01*
X109344300Y-86932500D02*
X110566400Y-85710400D01*
X110613800Y-88261300D02*
X112742300Y-90389800D01*
X112742300Y-90389800D02*
X112742300Y-98425000D01*
X109944700Y-120483900D02*
X109944700Y-101222600D01*
X109944700Y-101222600D02*
X112742300Y-98425000D01*
M02*
