M48
; DRILL file {KiCad (5.1.2-1)-1} date Wednesday, 12 June 2019 at 21:47:31
; FORMAT={3:3/ absolute / metric / suppress leading zeros}
; #@! TF.CreationDate,2019-06-12T21:47:31+01:00
; #@! TF.GenerationSoftware,Kicad,Pcbnew,(5.1.2-1)-1
FMAT,2
METRIC,TZ
T1C0.300
T2C0.400
T3C0.800
T4C1.000
%
G90
G05
T1
X102441Y-121896
X105060Y-125399
X105672Y-93501
X107518Y-140023
X108817Y-67227
X109078Y-58946
X109945Y-120484
X110566Y-85710
X110572Y-96520
X110572Y-104140
X110601Y-127033
X110604Y-123157
X110614Y-88261
X110681Y-109990
X111760Y-56273
X112742Y-125224
X112742Y-98425
X112744Y-122776
X112758Y-126730
X112891Y-107775
X115692Y-144341
X126224Y-85129
X127090Y-112192
X127735Y-82265
X128082Y-113558
X128370Y-59663
X128398Y-81045
X129098Y-86758
X129559Y-84960
X129694Y-142779
X130892Y-111493
X131063Y-95453
X131287Y-116079
X131326Y-130339
X131411Y-131548
X131421Y-134061
X131487Y-143491
X131497Y-135238
X131981Y-67092
X132018Y-79413
X132044Y-77806
X132081Y-87960
X132513Y-70184
X132536Y-97248
X132546Y-63753
X133069Y-63144
X133647Y-84620
X133664Y-89050
X133821Y-68617
X134018Y-90331
X134272Y-146364
X134338Y-127511
X134638Y-70996
X134944Y-93505
X135125Y-89685
X135151Y-100849
X135725Y-90807
X136188Y-130266
X136253Y-137130
X136433Y-132682
X136888Y-68771
X136906Y-52705
X136931Y-109022
X137029Y-93513
X137205Y-67501
X137277Y-102847
X137801Y-82691
X137951Y-70395
X138194Y-57907
X138225Y-55485
X138516Y-65621
X138744Y-52727
X138746Y-79389
X138840Y-53771
X139035Y-58383
X139331Y-86213
X139473Y-82195
X139725Y-79406
X140223Y-90762
X140553Y-86981
X140646Y-89561
X140714Y-83332
X140740Y-84914
X141305Y-92010
X141812Y-66231
X141824Y-70074
X141825Y-57690
X142636Y-54012
X143479Y-85525
X143488Y-82578
X143587Y-90821
X144418Y-90851
X149610Y-69108
X150285Y-67235
X150995Y-80550
X151009Y-51448
X151060Y-55309
X151085Y-48782
X151112Y-59822
X151131Y-93291
X151139Y-65231
X151144Y-86446
X151145Y-43932
X151149Y-114074
X151154Y-115083
X151162Y-138585
X151165Y-94174
X151167Y-87450
X151167Y-95266
X151172Y-58139
X151176Y-143710
X151176Y-142457
X151347Y-111766
X153198Y-69037
X153225Y-127462
X153261Y-126303
X153693Y-136527
X153701Y-45723
X153702Y-80661
X153717Y-73068
X153879Y-99990
X153879Y-102156
X153879Y-104655
X153879Y-108188
X153882Y-107145
X153886Y-129702
X153890Y-132255
X153892Y-105543
X153900Y-77808
X153908Y-134946
X153949Y-78608
X154307Y-98673
X154544Y-50837
X154757Y-47139
X154799Y-74977
X155346Y-76190
X156713Y-48980
X157828Y-61801
X158379Y-48354
X158483Y-89855
X158873Y-66263
X158970Y-63594
X159328Y-48177
X159407Y-69010
X160083Y-95039
X160156Y-64063
X160282Y-70664
X160355Y-101815
X160439Y-93028
X160463Y-96083
X160550Y-60235
X160555Y-81457
X160568Y-150918
X160569Y-86070
X160637Y-114419
X160712Y-48227
X160713Y-132769
X160715Y-57210
X160742Y-102883
X160743Y-123223
X160744Y-131481
X160756Y-130192
X160761Y-54633
X160764Y-128925
X163083Y-126694
X163084Y-140348
X163094Y-101622
X163094Y-104146
X163094Y-106686
X163111Y-71771
X163111Y-74311
X163231Y-80661
X163279Y-82296
X163284Y-141179
X163285Y-75272
X163297Y-85349
X163311Y-76549
X163317Y-57450
X163464Y-114325
X163631Y-78756
X163806Y-98735
T2
X107693Y-116565
X110059Y-93685
X115828Y-101481
X116330Y-109690
X138927Y-48216
X147550Y-91833
X147561Y-75973
X149460Y-104775
X160046Y-104122
T3
X100330Y-43180
X100330Y-45720
X100330Y-48260
X100330Y-50800
X100330Y-53340
X100330Y-55880
X100330Y-58420
X100330Y-60960
X100330Y-63500
X102870Y-40640
X102870Y-43180
X102870Y-45720
X102870Y-48260
X102870Y-50800
X102870Y-53340
X102870Y-55880
X102870Y-58420
X102870Y-60960
X102870Y-63500
X102870Y-66040
X105410Y-40640
X105410Y-43180
X105410Y-63500
X105410Y-66040
X107950Y-40640
X107950Y-43180
X107950Y-63500
X107950Y-66040
X110490Y-40640
X110490Y-43180
X110490Y-63500
X110490Y-66040
X113030Y-40640
X113030Y-43180
X113030Y-63500
X113030Y-66040
X115570Y-40640
X115570Y-43180
X115570Y-63500
X115570Y-66040
X118110Y-40640
X118110Y-43180
X118110Y-63500
X118110Y-66040
X120650Y-40640
X120650Y-43180
X120650Y-63500
X120650Y-66040
X123190Y-40640
X123190Y-43180
X123190Y-45720
X123190Y-48260
X123190Y-50800
X123190Y-53340
X123190Y-55880
X123190Y-58420
X123190Y-60960
X123190Y-63500
X123190Y-66040
X125730Y-43180
X125730Y-45720
X125730Y-48260
X125730Y-50800
X125730Y-53340
X125730Y-55880
X125730Y-58420
X125730Y-60960
X125730Y-63500
X100330Y-73025
X100330Y-75565
X100330Y-78105
X100330Y-80645
X100330Y-83185
X100330Y-85725
X100330Y-88265
X100330Y-90805
X100330Y-93345
X100330Y-95885
X100330Y-98425
X100330Y-100965
X100330Y-103505
X100330Y-106045
X100330Y-108585
X100330Y-111125
X100330Y-113665
X100330Y-116205
X100330Y-118745
X100330Y-121285
X100330Y-123825
X100330Y-126365
X100330Y-128905
X100330Y-131445
X100330Y-133985
X100330Y-136525
X100330Y-139065
X100330Y-141605
X100330Y-144145
X100330Y-146685
X100330Y-149225
X100330Y-151765
X123190Y-73025
X123190Y-75565
X123190Y-78105
X123190Y-80645
X123190Y-83185
X123190Y-85725
X123190Y-88265
X123190Y-90805
X123190Y-93345
X123190Y-95885
X123190Y-98425
X123190Y-100965
X123190Y-103505
X123190Y-106045
X123190Y-108585
X123190Y-111125
X123190Y-113665
X123190Y-116205
X123190Y-118745
X123190Y-121285
X123190Y-123825
X123190Y-126365
X123190Y-128905
X123190Y-131445
X123190Y-133985
X123190Y-136525
X123190Y-139065
X123190Y-141605
X123190Y-144145
X123190Y-146685
X123190Y-149225
X123190Y-151765
T4
X132715Y-153035
X135255Y-153035
X137795Y-153035
X132334Y-36132
X134874Y-36132
X137414Y-36132
X139954Y-36132
X142494Y-36132
X145034Y-36132
T0
M30
