M48
; DRILL file {KiCad (5.1.2-1)-1} date Monday, 03 June 2019 at 00:06:26
; FORMAT={3:3/ absolute / metric / suppress leading zeros}
; #@! TF.CreationDate,2019-06-03T00:06:26+01:00
; #@! TF.GenerationSoftware,Kicad,Pcbnew,(5.1.2-1)-1
FMAT,2
METRIC,TZ
T1C0.400
T2C0.762
T3C0.800
T4C1.000
%
G90
G05
T1
X123544Y-74571
X125621Y-72364
X128413Y-60744
X130555Y-81189
X132482Y-56828
X134648Y-55141
X137939Y-70270
X142400Y-79129
X142546Y-77641
X142619Y-37957
X142814Y-62101
X143399Y-47582
X143507Y-65510
X143570Y-61420
X144344Y-67165
X148405Y-85184
X148504Y-73398
X148741Y-75505
X149657Y-80092
X149998Y-62010
X150725Y-66524
X151311Y-63194
X152886Y-67167
X153119Y-88698
X154261Y-80726
X155334Y-36335
X155760Y-72441
X157609Y-77641
X158382Y-76182
X158822Y-83455
X158838Y-75087
X159123Y-70577
X159818Y-69816
X161748Y-34591
X162220Y-72469
X162882Y-92482
X162902Y-34740
X163146Y-71293
X163333Y-95412
X163504Y-80547
X163586Y-91709
X165123Y-66322
X165661Y-68559
X166855Y-77623
X166934Y-66627
X167486Y-55840
X167913Y-76965
X167930Y-93134
X167934Y-74026
X168180Y-86829
X168582Y-48231
X168932Y-86167
X169593Y-57978
X170713Y-72215
X170897Y-65066
X171057Y-81804
X171381Y-97269
X171656Y-70068
X172662Y-70811
X172947Y-82820
X172976Y-68122
X172984Y-77712
X172994Y-95402
X175337Y-63111
X175942Y-71919
X176074Y-80182
X176235Y-91866
X176258Y-81391
X176699Y-78581
X177120Y-75262
X177172Y-80113
X177605Y-96910
X177848Y-60379
X178566Y-38119
X178590Y-63330
X178639Y-65674
X178747Y-53588
X178799Y-58140
X179070Y-43974
X179197Y-56621
X179294Y-55489
X180001Y-38385
X180093Y-36459
X180132Y-69883
X180153Y-49342
X180752Y-81685
X180833Y-93134
X180835Y-80232
X180986Y-78645
X181240Y-74997
X181383Y-75997
X181426Y-83336
X181483Y-73546
X181664Y-66577
X182381Y-80350
X182876Y-83106
X183067Y-87900
X183107Y-91705
X184236Y-76828
X184626Y-95312
X184887Y-44969
X185021Y-40450
X185280Y-42850
X185533Y-93886
X185567Y-55194
X186211Y-90980
X186466Y-45722
X186602Y-43968
X186630Y-63800
X186688Y-61507
X187019Y-95411
X187554Y-58411
X187965Y-51825
X189012Y-51943
X189308Y-66414
X189885Y-68662
X189925Y-71415
X189925Y-73355
X190159Y-76157
X190229Y-87786
X190272Y-93772
X190395Y-77763
X190687Y-51594
X190744Y-63003
X190773Y-64136
X190819Y-44487
X190883Y-45758
X190943Y-41250
X190985Y-94885
X191124Y-72147
X191137Y-61463
X191438Y-91577
X191490Y-77894
X192107Y-45616
X192211Y-47703
X192439Y-56918
X192646Y-57918
X192808Y-70472
X193212Y-47743
X193572Y-43741
X193908Y-66696
X194451Y-96099
X194508Y-91242
X194692Y-37675
X194692Y-87336
X194997Y-94799
X195418Y-88782
X196053Y-49509
X196155Y-63781
X196201Y-80923
X196384Y-44450
X196879Y-55722
X196927Y-92487
X197221Y-61595
X198163Y-89805
X198481Y-71297
X198824Y-66343
X200059Y-68509
X200396Y-72343
X200930Y-59055
X200996Y-64320
X201055Y-70784
T2
X120650Y-35560
X120650Y-38100
X120650Y-40640
X120650Y-43180
X120650Y-45720
X120650Y-48260
X120650Y-50800
X120650Y-53340
X120650Y-55880
X120650Y-58420
X120650Y-60960
X120650Y-63500
X120650Y-66040
X120650Y-68580
X120650Y-71120
X120650Y-73660
X120650Y-76200
X120650Y-78740
X120650Y-81280
X120650Y-83820
X120650Y-86360
X120650Y-88900
X120650Y-91440
X120650Y-93980
X120650Y-96520
X120650Y-99060
X120650Y-101600
X120650Y-104140
X120650Y-106680
X120650Y-109220
X120650Y-111760
X120650Y-114300
X146050Y-35560
X146050Y-38100
X146050Y-40640
X146050Y-43180
X146050Y-45720
X146050Y-48260
X146050Y-50800
X146050Y-53340
X146050Y-55880
X146050Y-58420
X146050Y-60960
X146050Y-63500
X146050Y-66040
X146050Y-68580
X146050Y-71120
X146050Y-73660
X146050Y-76200
X146050Y-78740
X146050Y-81280
X146050Y-83820
X146050Y-86360
X146050Y-88900
X146050Y-91440
X146050Y-93980
X146050Y-96520
X146050Y-99060
X146050Y-101600
X146050Y-104140
X146050Y-106680
X146050Y-109220
X146050Y-111760
X146050Y-114300
T3
X151130Y-40640
X151130Y-43180
X151130Y-45720
X151130Y-48260
X151130Y-50800
X151130Y-53340
X151130Y-55880
X151130Y-58420
X151130Y-60960
X153670Y-38100
X153670Y-40640
X153670Y-43180
X153670Y-45720
X153670Y-48260
X153670Y-50800
X153670Y-53340
X153670Y-55880
X153670Y-58420
X153670Y-60960
X153670Y-63500
X156210Y-38100
X156210Y-40640
X156210Y-60960
X156210Y-63500
X158750Y-38100
X158750Y-40640
X158750Y-60960
X158750Y-63500
X161290Y-38100
X161290Y-40640
X161290Y-60960
X161290Y-63500
X163830Y-38100
X163830Y-40640
X163830Y-60960
X163830Y-63500
X166370Y-38100
X166370Y-40640
X166370Y-60960
X166370Y-63500
X168910Y-38100
X168910Y-40640
X168910Y-60960
X168910Y-63500
X171450Y-38100
X171450Y-40640
X171450Y-60960
X171450Y-63500
X173990Y-38100
X173990Y-40640
X173990Y-43180
X173990Y-45720
X173990Y-48260
X173990Y-50800
X173990Y-53340
X173990Y-55880
X173990Y-58420
X173990Y-60960
X173990Y-63500
X176530Y-40640
X176530Y-43180
X176530Y-45720
X176530Y-48260
X176530Y-50800
X176530Y-53340
X176530Y-55880
X176530Y-58420
X176530Y-60960
T4
X184150Y-33020
X186690Y-33020
X189230Y-33020
X191770Y-33020
X194310Y-33020
X196850Y-33020
T0
M30
