G04 #@! TF.GenerationSoftware,KiCad,Pcbnew,(5.1.2-1)-1*
G04 #@! TF.CreationDate,2019-06-08T18:38:44+01:00*
G04 #@! TF.ProjectId,A500 FastRAM,41353030-2046-4617-9374-52414d2e6b69,rev?*
G04 #@! TF.SameCoordinates,Original*
G04 #@! TF.FileFunction,Legend,Top*
G04 #@! TF.FilePolarity,Positive*
%FSLAX46Y46*%
G04 Gerber Fmt 4.6, Leading zero omitted, Abs format (unit mm)*
G04 Created by KiCad (PCBNEW (5.1.2-1)-1) date 2019-06-08 18:38:44*
%MOMM*%
%LPD*%
G04 APERTURE LIST*
%ADD10C,0.125000*%
%ADD11C,0.150000*%
%ADD12C,0.075000*%
%ADD13C,0.120000*%
G04 APERTURE END LIST*
D10*
X111956904Y-91433333D02*
X111956904Y-90900000D01*
X112756904Y-91242857D01*
X112223571Y-90252380D02*
X112756904Y-90252380D01*
X111918809Y-90442857D02*
X112490238Y-90633333D01*
X112490238Y-90138095D01*
X112756904Y-89833333D02*
X111956904Y-89833333D01*
X112337857Y-89833333D02*
X112337857Y-89376190D01*
X112756904Y-89376190D02*
X111956904Y-89376190D01*
X112680714Y-88538095D02*
X112718809Y-88576190D01*
X112756904Y-88690476D01*
X112756904Y-88766666D01*
X112718809Y-88880952D01*
X112642619Y-88957142D01*
X112566428Y-88995238D01*
X112414047Y-89033333D01*
X112299761Y-89033333D01*
X112147380Y-88995238D01*
X112071190Y-88957142D01*
X111995000Y-88880952D01*
X111956904Y-88766666D01*
X111956904Y-88690476D01*
X111995000Y-88576190D01*
X112033095Y-88538095D01*
X111956904Y-88309523D02*
X111956904Y-87852380D01*
X112756904Y-88080952D02*
X111956904Y-88080952D01*
X111956904Y-87433333D02*
X111956904Y-87357142D01*
X111995000Y-87280952D01*
X112033095Y-87242857D01*
X112109285Y-87204761D01*
X112261666Y-87166666D01*
X112452142Y-87166666D01*
X112604523Y-87204761D01*
X112680714Y-87242857D01*
X112718809Y-87280952D01*
X112756904Y-87357142D01*
X112756904Y-87433333D01*
X112718809Y-87509523D01*
X112680714Y-87547619D01*
X112604523Y-87585714D01*
X112452142Y-87623809D01*
X112261666Y-87623809D01*
X112109285Y-87585714D01*
X112033095Y-87547619D01*
X111995000Y-87509523D01*
X111956904Y-87433333D01*
X112223571Y-86480952D02*
X112756904Y-86480952D01*
X111918809Y-86671428D02*
X112490238Y-86861904D01*
X112490238Y-86366666D01*
X111956904Y-104514285D02*
X111956904Y-103980952D01*
X112756904Y-104323809D01*
X112223571Y-103333333D02*
X112756904Y-103333333D01*
X111918809Y-103523809D02*
X112490238Y-103714285D01*
X112490238Y-103219047D01*
X112756904Y-102914285D02*
X111956904Y-102914285D01*
X112337857Y-102914285D02*
X112337857Y-102457142D01*
X112756904Y-102457142D02*
X111956904Y-102457142D01*
X112680714Y-101619047D02*
X112718809Y-101657142D01*
X112756904Y-101771428D01*
X112756904Y-101847619D01*
X112718809Y-101961904D01*
X112642619Y-102038095D01*
X112566428Y-102076190D01*
X112414047Y-102114285D01*
X112299761Y-102114285D01*
X112147380Y-102076190D01*
X112071190Y-102038095D01*
X111995000Y-101961904D01*
X111956904Y-101847619D01*
X111956904Y-101771428D01*
X111995000Y-101657142D01*
X112033095Y-101619047D01*
X111956904Y-101390476D02*
X111956904Y-100933333D01*
X112756904Y-101161904D02*
X111956904Y-101161904D01*
X112756904Y-100247619D02*
X112756904Y-100704761D01*
X112756904Y-100476190D02*
X111956904Y-100476190D01*
X112071190Y-100552380D01*
X112147380Y-100628571D01*
X112185476Y-100704761D01*
X112756904Y-99485714D02*
X112756904Y-99942857D01*
X112756904Y-99714285D02*
X111956904Y-99714285D01*
X112071190Y-99790476D01*
X112147380Y-99866666D01*
X112185476Y-99942857D01*
X112033095Y-99180952D02*
X111995000Y-99142857D01*
X111956904Y-99066666D01*
X111956904Y-98876190D01*
X111995000Y-98800000D01*
X112033095Y-98761904D01*
X112109285Y-98723809D01*
X112185476Y-98723809D01*
X112299761Y-98761904D01*
X112756904Y-99219047D01*
X112756904Y-98723809D01*
X111956904Y-116833333D02*
X111956904Y-116300000D01*
X112756904Y-116642857D01*
X112223571Y-115652380D02*
X112756904Y-115652380D01*
X111918809Y-115842857D02*
X112490238Y-116033333D01*
X112490238Y-115538095D01*
X112756904Y-115233333D02*
X111956904Y-115233333D01*
X112337857Y-115233333D02*
X112337857Y-114776190D01*
X112756904Y-114776190D02*
X111956904Y-114776190D01*
X112680714Y-113938095D02*
X112718809Y-113976190D01*
X112756904Y-114090476D01*
X112756904Y-114166666D01*
X112718809Y-114280952D01*
X112642619Y-114357142D01*
X112566428Y-114395238D01*
X112414047Y-114433333D01*
X112299761Y-114433333D01*
X112147380Y-114395238D01*
X112071190Y-114357142D01*
X111995000Y-114280952D01*
X111956904Y-114166666D01*
X111956904Y-114090476D01*
X111995000Y-113976190D01*
X112033095Y-113938095D01*
X111956904Y-113709523D02*
X111956904Y-113252380D01*
X112756904Y-113480952D02*
X111956904Y-113480952D01*
X112033095Y-113023809D02*
X111995000Y-112985714D01*
X111956904Y-112909523D01*
X111956904Y-112719047D01*
X111995000Y-112642857D01*
X112033095Y-112604761D01*
X112109285Y-112566666D01*
X112185476Y-112566666D01*
X112299761Y-112604761D01*
X112756904Y-113061904D01*
X112756904Y-112566666D01*
X111956904Y-112300000D02*
X111956904Y-111766666D01*
X112756904Y-112109523D01*
X111956904Y-128898333D02*
X111956904Y-128365000D01*
X112756904Y-128707857D01*
X112223571Y-127717380D02*
X112756904Y-127717380D01*
X111918809Y-127907857D02*
X112490238Y-128098333D01*
X112490238Y-127603095D01*
X112756904Y-127298333D02*
X111956904Y-127298333D01*
X112337857Y-127298333D02*
X112337857Y-126841190D01*
X112756904Y-126841190D02*
X111956904Y-126841190D01*
X112680714Y-126003095D02*
X112718809Y-126041190D01*
X112756904Y-126155476D01*
X112756904Y-126231666D01*
X112718809Y-126345952D01*
X112642619Y-126422142D01*
X112566428Y-126460238D01*
X112414047Y-126498333D01*
X112299761Y-126498333D01*
X112147380Y-126460238D01*
X112071190Y-126422142D01*
X111995000Y-126345952D01*
X111956904Y-126231666D01*
X111956904Y-126155476D01*
X111995000Y-126041190D01*
X112033095Y-126003095D01*
X111956904Y-125774523D02*
X111956904Y-125317380D01*
X112756904Y-125545952D02*
X111956904Y-125545952D01*
X111956904Y-125126904D02*
X111956904Y-124593571D01*
X112756904Y-124936428D01*
X112223571Y-123945952D02*
X112756904Y-123945952D01*
X111918809Y-124136428D02*
X112490238Y-124326904D01*
X112490238Y-123831666D01*
X111956904Y-146043333D02*
X111956904Y-145510000D01*
X112756904Y-145852857D01*
X112223571Y-144862380D02*
X112756904Y-144862380D01*
X111918809Y-145052857D02*
X112490238Y-145243333D01*
X112490238Y-144748095D01*
X112756904Y-144443333D02*
X111956904Y-144443333D01*
X112337857Y-144443333D02*
X112337857Y-143986190D01*
X112756904Y-143986190D02*
X111956904Y-143986190D01*
X112680714Y-143148095D02*
X112718809Y-143186190D01*
X112756904Y-143300476D01*
X112756904Y-143376666D01*
X112718809Y-143490952D01*
X112642619Y-143567142D01*
X112566428Y-143605238D01*
X112414047Y-143643333D01*
X112299761Y-143643333D01*
X112147380Y-143605238D01*
X112071190Y-143567142D01*
X111995000Y-143490952D01*
X111956904Y-143376666D01*
X111956904Y-143300476D01*
X111995000Y-143186190D01*
X112033095Y-143148095D01*
X111956904Y-142919523D02*
X111956904Y-142462380D01*
X112756904Y-142690952D02*
X111956904Y-142690952D01*
X112299761Y-142081428D02*
X112261666Y-142157619D01*
X112223571Y-142195714D01*
X112147380Y-142233809D01*
X112109285Y-142233809D01*
X112033095Y-142195714D01*
X111995000Y-142157619D01*
X111956904Y-142081428D01*
X111956904Y-141929047D01*
X111995000Y-141852857D01*
X112033095Y-141814761D01*
X112109285Y-141776666D01*
X112147380Y-141776666D01*
X112223571Y-141814761D01*
X112261666Y-141852857D01*
X112299761Y-141929047D01*
X112299761Y-142081428D01*
X112337857Y-142157619D01*
X112375952Y-142195714D01*
X112452142Y-142233809D01*
X112604523Y-142233809D01*
X112680714Y-142195714D01*
X112718809Y-142157619D01*
X112756904Y-142081428D01*
X112756904Y-141929047D01*
X112718809Y-141852857D01*
X112680714Y-141814761D01*
X112604523Y-141776666D01*
X112452142Y-141776666D01*
X112375952Y-141814761D01*
X112337857Y-141852857D01*
X112299761Y-141929047D01*
X111956904Y-141090952D02*
X111956904Y-141243333D01*
X111995000Y-141319523D01*
X112033095Y-141357619D01*
X112147380Y-141433809D01*
X112299761Y-141471904D01*
X112604523Y-141471904D01*
X112680714Y-141433809D01*
X112718809Y-141395714D01*
X112756904Y-141319523D01*
X112756904Y-141167142D01*
X112718809Y-141090952D01*
X112680714Y-141052857D01*
X112604523Y-141014761D01*
X112414047Y-141014761D01*
X112337857Y-141052857D01*
X112299761Y-141090952D01*
X112261666Y-141167142D01*
X112261666Y-141319523D01*
X112299761Y-141395714D01*
X112337857Y-141433809D01*
X112414047Y-141471904D01*
X136086904Y-122294285D02*
X136086904Y-121760952D01*
X136886904Y-122103809D01*
X136353571Y-121113333D02*
X136886904Y-121113333D01*
X136048809Y-121303809D02*
X136620238Y-121494285D01*
X136620238Y-120999047D01*
X136886904Y-120694285D02*
X136086904Y-120694285D01*
X136467857Y-120694285D02*
X136467857Y-120237142D01*
X136886904Y-120237142D02*
X136086904Y-120237142D01*
X136810714Y-119399047D02*
X136848809Y-119437142D01*
X136886904Y-119551428D01*
X136886904Y-119627619D01*
X136848809Y-119741904D01*
X136772619Y-119818095D01*
X136696428Y-119856190D01*
X136544047Y-119894285D01*
X136429761Y-119894285D01*
X136277380Y-119856190D01*
X136201190Y-119818095D01*
X136125000Y-119741904D01*
X136086904Y-119627619D01*
X136086904Y-119551428D01*
X136125000Y-119437142D01*
X136163095Y-119399047D01*
X136086904Y-119170476D02*
X136086904Y-118713333D01*
X136886904Y-118941904D02*
X136086904Y-118941904D01*
X136886904Y-118027619D02*
X136886904Y-118484761D01*
X136886904Y-118256190D02*
X136086904Y-118256190D01*
X136201190Y-118332380D01*
X136277380Y-118408571D01*
X136315476Y-118484761D01*
X136086904Y-117303809D02*
X136086904Y-117684761D01*
X136467857Y-117722857D01*
X136429761Y-117684761D01*
X136391666Y-117608571D01*
X136391666Y-117418095D01*
X136429761Y-117341904D01*
X136467857Y-117303809D01*
X136544047Y-117265714D01*
X136734523Y-117265714D01*
X136810714Y-117303809D01*
X136848809Y-117341904D01*
X136886904Y-117418095D01*
X136886904Y-117608571D01*
X136848809Y-117684761D01*
X136810714Y-117722857D01*
X136086904Y-116999047D02*
X136086904Y-116465714D01*
X136886904Y-116808571D01*
X136086904Y-135629285D02*
X136086904Y-135095952D01*
X136886904Y-135438809D01*
X136353571Y-134448333D02*
X136886904Y-134448333D01*
X136048809Y-134638809D02*
X136620238Y-134829285D01*
X136620238Y-134334047D01*
X136886904Y-134029285D02*
X136086904Y-134029285D01*
X136467857Y-134029285D02*
X136467857Y-133572142D01*
X136886904Y-133572142D02*
X136086904Y-133572142D01*
X136810714Y-132734047D02*
X136848809Y-132772142D01*
X136886904Y-132886428D01*
X136886904Y-132962619D01*
X136848809Y-133076904D01*
X136772619Y-133153095D01*
X136696428Y-133191190D01*
X136544047Y-133229285D01*
X136429761Y-133229285D01*
X136277380Y-133191190D01*
X136201190Y-133153095D01*
X136125000Y-133076904D01*
X136086904Y-132962619D01*
X136086904Y-132886428D01*
X136125000Y-132772142D01*
X136163095Y-132734047D01*
X136086904Y-132505476D02*
X136086904Y-132048333D01*
X136886904Y-132276904D02*
X136086904Y-132276904D01*
X136886904Y-131362619D02*
X136886904Y-131819761D01*
X136886904Y-131591190D02*
X136086904Y-131591190D01*
X136201190Y-131667380D01*
X136277380Y-131743571D01*
X136315476Y-131819761D01*
X136086904Y-130638809D02*
X136086904Y-131019761D01*
X136467857Y-131057857D01*
X136429761Y-131019761D01*
X136391666Y-130943571D01*
X136391666Y-130753095D01*
X136429761Y-130676904D01*
X136467857Y-130638809D01*
X136544047Y-130600714D01*
X136734523Y-130600714D01*
X136810714Y-130638809D01*
X136848809Y-130676904D01*
X136886904Y-130753095D01*
X136886904Y-130943571D01*
X136848809Y-131019761D01*
X136810714Y-131057857D01*
X136086904Y-130334047D02*
X136086904Y-129800714D01*
X136886904Y-130143571D01*
X136086904Y-147948333D02*
X136086904Y-147415000D01*
X136886904Y-147757857D01*
X136353571Y-146767380D02*
X136886904Y-146767380D01*
X136048809Y-146957857D02*
X136620238Y-147148333D01*
X136620238Y-146653095D01*
X136886904Y-146348333D02*
X136086904Y-146348333D01*
X136467857Y-146348333D02*
X136467857Y-145891190D01*
X136886904Y-145891190D02*
X136086904Y-145891190D01*
X136810714Y-145053095D02*
X136848809Y-145091190D01*
X136886904Y-145205476D01*
X136886904Y-145281666D01*
X136848809Y-145395952D01*
X136772619Y-145472142D01*
X136696428Y-145510238D01*
X136544047Y-145548333D01*
X136429761Y-145548333D01*
X136277380Y-145510238D01*
X136201190Y-145472142D01*
X136125000Y-145395952D01*
X136086904Y-145281666D01*
X136086904Y-145205476D01*
X136125000Y-145091190D01*
X136163095Y-145053095D01*
X136086904Y-144824523D02*
X136086904Y-144367380D01*
X136886904Y-144595952D02*
X136086904Y-144595952D01*
X136086904Y-144176904D02*
X136086904Y-143643571D01*
X136886904Y-143986428D01*
X136353571Y-142995952D02*
X136886904Y-142995952D01*
X136048809Y-143186428D02*
X136620238Y-143376904D01*
X136620238Y-142881666D01*
D11*
X157297380Y-60387857D02*
X156297380Y-60387857D01*
X157249761Y-59959285D02*
X157297380Y-59816428D01*
X157297380Y-59578333D01*
X157249761Y-59483095D01*
X157202142Y-59435476D01*
X157106904Y-59387857D01*
X157011666Y-59387857D01*
X156916428Y-59435476D01*
X156868809Y-59483095D01*
X156821190Y-59578333D01*
X156773571Y-59768809D01*
X156725952Y-59864047D01*
X156678333Y-59911666D01*
X156583095Y-59959285D01*
X156487857Y-59959285D01*
X156392619Y-59911666D01*
X156345000Y-59864047D01*
X156297380Y-59768809D01*
X156297380Y-59530714D01*
X156345000Y-59387857D01*
X156630714Y-58530714D02*
X157297380Y-58530714D01*
X156249761Y-58768809D02*
X156964047Y-59006904D01*
X156964047Y-58387857D01*
X157297380Y-57483095D02*
X157297380Y-58054523D01*
X157297380Y-57768809D02*
X156297380Y-57768809D01*
X156440238Y-57864047D01*
X156535476Y-57959285D01*
X156583095Y-58054523D01*
X157297380Y-56578333D02*
X157297380Y-57054523D01*
X156297380Y-57054523D01*
X156297380Y-56387857D02*
X157297380Y-56054523D01*
X156297380Y-55721190D01*
X157297380Y-54864047D02*
X157297380Y-55435476D01*
X157297380Y-55149761D02*
X156297380Y-55149761D01*
X156440238Y-55245000D01*
X156535476Y-55340238D01*
X156583095Y-55435476D01*
X156297380Y-54006904D02*
X156297380Y-54197380D01*
X156345000Y-54292619D01*
X156392619Y-54340238D01*
X156535476Y-54435476D01*
X156725952Y-54483095D01*
X157106904Y-54483095D01*
X157202142Y-54435476D01*
X157249761Y-54387857D01*
X157297380Y-54292619D01*
X157297380Y-54102142D01*
X157249761Y-54006904D01*
X157202142Y-53959285D01*
X157106904Y-53911666D01*
X156868809Y-53911666D01*
X156773571Y-53959285D01*
X156725952Y-54006904D01*
X156678333Y-54102142D01*
X156678333Y-54292619D01*
X156725952Y-54387857D01*
X156773571Y-54435476D01*
X156868809Y-54483095D01*
X157297380Y-52959285D02*
X157297380Y-53530714D01*
X157297380Y-53245000D02*
X156297380Y-53245000D01*
X156440238Y-53340238D01*
X156535476Y-53435476D01*
X156583095Y-53530714D01*
X156297380Y-52340238D02*
X156297380Y-52245000D01*
X156345000Y-52149761D01*
X156392619Y-52102142D01*
X156487857Y-52054523D01*
X156678333Y-52006904D01*
X156916428Y-52006904D01*
X157106904Y-52054523D01*
X157202142Y-52102142D01*
X157249761Y-52149761D01*
X157297380Y-52245000D01*
X157297380Y-52340238D01*
X157249761Y-52435476D01*
X157202142Y-52483095D01*
X157106904Y-52530714D01*
X156916428Y-52578333D01*
X156678333Y-52578333D01*
X156487857Y-52530714D01*
X156392619Y-52483095D01*
X156345000Y-52435476D01*
X156297380Y-52340238D01*
X156297380Y-51387857D02*
X156297380Y-51292619D01*
X156345000Y-51197380D01*
X156392619Y-51149761D01*
X156487857Y-51102142D01*
X156678333Y-51054523D01*
X156916428Y-51054523D01*
X157106904Y-51102142D01*
X157202142Y-51149761D01*
X157249761Y-51197380D01*
X157297380Y-51292619D01*
X157297380Y-51387857D01*
X157249761Y-51483095D01*
X157202142Y-51530714D01*
X157106904Y-51578333D01*
X156916428Y-51625952D01*
X156678333Y-51625952D01*
X156487857Y-51578333D01*
X156392619Y-51530714D01*
X156345000Y-51483095D01*
X156297380Y-51387857D01*
X157297380Y-50625952D02*
X156297380Y-50625952D01*
X156297380Y-50387857D01*
X156345000Y-50245000D01*
X156440238Y-50149761D01*
X156535476Y-50102142D01*
X156725952Y-50054523D01*
X156868809Y-50054523D01*
X157059285Y-50102142D01*
X157154523Y-50149761D01*
X157249761Y-50245000D01*
X157297380Y-50387857D01*
X157297380Y-50625952D01*
X157297380Y-88962857D02*
X156297380Y-88962857D01*
X157249761Y-88534285D02*
X157297380Y-88391428D01*
X157297380Y-88153333D01*
X157249761Y-88058095D01*
X157202142Y-88010476D01*
X157106904Y-87962857D01*
X157011666Y-87962857D01*
X156916428Y-88010476D01*
X156868809Y-88058095D01*
X156821190Y-88153333D01*
X156773571Y-88343809D01*
X156725952Y-88439047D01*
X156678333Y-88486666D01*
X156583095Y-88534285D01*
X156487857Y-88534285D01*
X156392619Y-88486666D01*
X156345000Y-88439047D01*
X156297380Y-88343809D01*
X156297380Y-88105714D01*
X156345000Y-87962857D01*
X156630714Y-87105714D02*
X157297380Y-87105714D01*
X156249761Y-87343809D02*
X156964047Y-87581904D01*
X156964047Y-86962857D01*
X157297380Y-86058095D02*
X157297380Y-86629523D01*
X157297380Y-86343809D02*
X156297380Y-86343809D01*
X156440238Y-86439047D01*
X156535476Y-86534285D01*
X156583095Y-86629523D01*
X157297380Y-85153333D02*
X157297380Y-85629523D01*
X156297380Y-85629523D01*
X156297380Y-84962857D02*
X157297380Y-84629523D01*
X156297380Y-84296190D01*
X157297380Y-83439047D02*
X157297380Y-84010476D01*
X157297380Y-83724761D02*
X156297380Y-83724761D01*
X156440238Y-83820000D01*
X156535476Y-83915238D01*
X156583095Y-84010476D01*
X156297380Y-82581904D02*
X156297380Y-82772380D01*
X156345000Y-82867619D01*
X156392619Y-82915238D01*
X156535476Y-83010476D01*
X156725952Y-83058095D01*
X157106904Y-83058095D01*
X157202142Y-83010476D01*
X157249761Y-82962857D01*
X157297380Y-82867619D01*
X157297380Y-82677142D01*
X157249761Y-82581904D01*
X157202142Y-82534285D01*
X157106904Y-82486666D01*
X156868809Y-82486666D01*
X156773571Y-82534285D01*
X156725952Y-82581904D01*
X156678333Y-82677142D01*
X156678333Y-82867619D01*
X156725952Y-82962857D01*
X156773571Y-83010476D01*
X156868809Y-83058095D01*
X157297380Y-81534285D02*
X157297380Y-82105714D01*
X157297380Y-81820000D02*
X156297380Y-81820000D01*
X156440238Y-81915238D01*
X156535476Y-82010476D01*
X156583095Y-82105714D01*
X156297380Y-80915238D02*
X156297380Y-80820000D01*
X156345000Y-80724761D01*
X156392619Y-80677142D01*
X156487857Y-80629523D01*
X156678333Y-80581904D01*
X156916428Y-80581904D01*
X157106904Y-80629523D01*
X157202142Y-80677142D01*
X157249761Y-80724761D01*
X157297380Y-80820000D01*
X157297380Y-80915238D01*
X157249761Y-81010476D01*
X157202142Y-81058095D01*
X157106904Y-81105714D01*
X156916428Y-81153333D01*
X156678333Y-81153333D01*
X156487857Y-81105714D01*
X156392619Y-81058095D01*
X156345000Y-81010476D01*
X156297380Y-80915238D01*
X156297380Y-79962857D02*
X156297380Y-79867619D01*
X156345000Y-79772380D01*
X156392619Y-79724761D01*
X156487857Y-79677142D01*
X156678333Y-79629523D01*
X156916428Y-79629523D01*
X157106904Y-79677142D01*
X157202142Y-79724761D01*
X157249761Y-79772380D01*
X157297380Y-79867619D01*
X157297380Y-79962857D01*
X157249761Y-80058095D01*
X157202142Y-80105714D01*
X157106904Y-80153333D01*
X156916428Y-80200952D01*
X156678333Y-80200952D01*
X156487857Y-80153333D01*
X156392619Y-80105714D01*
X156345000Y-80058095D01*
X156297380Y-79962857D01*
X157297380Y-79200952D02*
X156297380Y-79200952D01*
X156297380Y-78962857D01*
X156345000Y-78820000D01*
X156440238Y-78724761D01*
X156535476Y-78677142D01*
X156725952Y-78629523D01*
X156868809Y-78629523D01*
X157059285Y-78677142D01*
X157154523Y-78724761D01*
X157249761Y-78820000D01*
X157297380Y-78962857D01*
X157297380Y-79200952D01*
X157297380Y-146112857D02*
X156297380Y-146112857D01*
X157249761Y-145684285D02*
X157297380Y-145541428D01*
X157297380Y-145303333D01*
X157249761Y-145208095D01*
X157202142Y-145160476D01*
X157106904Y-145112857D01*
X157011666Y-145112857D01*
X156916428Y-145160476D01*
X156868809Y-145208095D01*
X156821190Y-145303333D01*
X156773571Y-145493809D01*
X156725952Y-145589047D01*
X156678333Y-145636666D01*
X156583095Y-145684285D01*
X156487857Y-145684285D01*
X156392619Y-145636666D01*
X156345000Y-145589047D01*
X156297380Y-145493809D01*
X156297380Y-145255714D01*
X156345000Y-145112857D01*
X156630714Y-144255714D02*
X157297380Y-144255714D01*
X156249761Y-144493809D02*
X156964047Y-144731904D01*
X156964047Y-144112857D01*
X157297380Y-143208095D02*
X157297380Y-143779523D01*
X157297380Y-143493809D02*
X156297380Y-143493809D01*
X156440238Y-143589047D01*
X156535476Y-143684285D01*
X156583095Y-143779523D01*
X157297380Y-142303333D02*
X157297380Y-142779523D01*
X156297380Y-142779523D01*
X156297380Y-142112857D02*
X157297380Y-141779523D01*
X156297380Y-141446190D01*
X157297380Y-140589047D02*
X157297380Y-141160476D01*
X157297380Y-140874761D02*
X156297380Y-140874761D01*
X156440238Y-140970000D01*
X156535476Y-141065238D01*
X156583095Y-141160476D01*
X156297380Y-139731904D02*
X156297380Y-139922380D01*
X156345000Y-140017619D01*
X156392619Y-140065238D01*
X156535476Y-140160476D01*
X156725952Y-140208095D01*
X157106904Y-140208095D01*
X157202142Y-140160476D01*
X157249761Y-140112857D01*
X157297380Y-140017619D01*
X157297380Y-139827142D01*
X157249761Y-139731904D01*
X157202142Y-139684285D01*
X157106904Y-139636666D01*
X156868809Y-139636666D01*
X156773571Y-139684285D01*
X156725952Y-139731904D01*
X156678333Y-139827142D01*
X156678333Y-140017619D01*
X156725952Y-140112857D01*
X156773571Y-140160476D01*
X156868809Y-140208095D01*
X157297380Y-138684285D02*
X157297380Y-139255714D01*
X157297380Y-138970000D02*
X156297380Y-138970000D01*
X156440238Y-139065238D01*
X156535476Y-139160476D01*
X156583095Y-139255714D01*
X156297380Y-138065238D02*
X156297380Y-137970000D01*
X156345000Y-137874761D01*
X156392619Y-137827142D01*
X156487857Y-137779523D01*
X156678333Y-137731904D01*
X156916428Y-137731904D01*
X157106904Y-137779523D01*
X157202142Y-137827142D01*
X157249761Y-137874761D01*
X157297380Y-137970000D01*
X157297380Y-138065238D01*
X157249761Y-138160476D01*
X157202142Y-138208095D01*
X157106904Y-138255714D01*
X156916428Y-138303333D01*
X156678333Y-138303333D01*
X156487857Y-138255714D01*
X156392619Y-138208095D01*
X156345000Y-138160476D01*
X156297380Y-138065238D01*
X156297380Y-137112857D02*
X156297380Y-137017619D01*
X156345000Y-136922380D01*
X156392619Y-136874761D01*
X156487857Y-136827142D01*
X156678333Y-136779523D01*
X156916428Y-136779523D01*
X157106904Y-136827142D01*
X157202142Y-136874761D01*
X157249761Y-136922380D01*
X157297380Y-137017619D01*
X157297380Y-137112857D01*
X157249761Y-137208095D01*
X157202142Y-137255714D01*
X157106904Y-137303333D01*
X156916428Y-137350952D01*
X156678333Y-137350952D01*
X156487857Y-137303333D01*
X156392619Y-137255714D01*
X156345000Y-137208095D01*
X156297380Y-137112857D01*
X157297380Y-136350952D02*
X156297380Y-136350952D01*
X156297380Y-136112857D01*
X156345000Y-135970000D01*
X156440238Y-135874761D01*
X156535476Y-135827142D01*
X156725952Y-135779523D01*
X156868809Y-135779523D01*
X157059285Y-135827142D01*
X157154523Y-135874761D01*
X157249761Y-135970000D01*
X157297380Y-136112857D01*
X157297380Y-136350952D01*
X157297380Y-117537857D02*
X156297380Y-117537857D01*
X157249761Y-117109285D02*
X157297380Y-116966428D01*
X157297380Y-116728333D01*
X157249761Y-116633095D01*
X157202142Y-116585476D01*
X157106904Y-116537857D01*
X157011666Y-116537857D01*
X156916428Y-116585476D01*
X156868809Y-116633095D01*
X156821190Y-116728333D01*
X156773571Y-116918809D01*
X156725952Y-117014047D01*
X156678333Y-117061666D01*
X156583095Y-117109285D01*
X156487857Y-117109285D01*
X156392619Y-117061666D01*
X156345000Y-117014047D01*
X156297380Y-116918809D01*
X156297380Y-116680714D01*
X156345000Y-116537857D01*
X156630714Y-115680714D02*
X157297380Y-115680714D01*
X156249761Y-115918809D02*
X156964047Y-116156904D01*
X156964047Y-115537857D01*
X157297380Y-114633095D02*
X157297380Y-115204523D01*
X157297380Y-114918809D02*
X156297380Y-114918809D01*
X156440238Y-115014047D01*
X156535476Y-115109285D01*
X156583095Y-115204523D01*
X157297380Y-113728333D02*
X157297380Y-114204523D01*
X156297380Y-114204523D01*
X156297380Y-113537857D02*
X157297380Y-113204523D01*
X156297380Y-112871190D01*
X157297380Y-112014047D02*
X157297380Y-112585476D01*
X157297380Y-112299761D02*
X156297380Y-112299761D01*
X156440238Y-112395000D01*
X156535476Y-112490238D01*
X156583095Y-112585476D01*
X156297380Y-111156904D02*
X156297380Y-111347380D01*
X156345000Y-111442619D01*
X156392619Y-111490238D01*
X156535476Y-111585476D01*
X156725952Y-111633095D01*
X157106904Y-111633095D01*
X157202142Y-111585476D01*
X157249761Y-111537857D01*
X157297380Y-111442619D01*
X157297380Y-111252142D01*
X157249761Y-111156904D01*
X157202142Y-111109285D01*
X157106904Y-111061666D01*
X156868809Y-111061666D01*
X156773571Y-111109285D01*
X156725952Y-111156904D01*
X156678333Y-111252142D01*
X156678333Y-111442619D01*
X156725952Y-111537857D01*
X156773571Y-111585476D01*
X156868809Y-111633095D01*
X157297380Y-110109285D02*
X157297380Y-110680714D01*
X157297380Y-110395000D02*
X156297380Y-110395000D01*
X156440238Y-110490238D01*
X156535476Y-110585476D01*
X156583095Y-110680714D01*
X156297380Y-109490238D02*
X156297380Y-109395000D01*
X156345000Y-109299761D01*
X156392619Y-109252142D01*
X156487857Y-109204523D01*
X156678333Y-109156904D01*
X156916428Y-109156904D01*
X157106904Y-109204523D01*
X157202142Y-109252142D01*
X157249761Y-109299761D01*
X157297380Y-109395000D01*
X157297380Y-109490238D01*
X157249761Y-109585476D01*
X157202142Y-109633095D01*
X157106904Y-109680714D01*
X156916428Y-109728333D01*
X156678333Y-109728333D01*
X156487857Y-109680714D01*
X156392619Y-109633095D01*
X156345000Y-109585476D01*
X156297380Y-109490238D01*
X156297380Y-108537857D02*
X156297380Y-108442619D01*
X156345000Y-108347380D01*
X156392619Y-108299761D01*
X156487857Y-108252142D01*
X156678333Y-108204523D01*
X156916428Y-108204523D01*
X157106904Y-108252142D01*
X157202142Y-108299761D01*
X157249761Y-108347380D01*
X157297380Y-108442619D01*
X157297380Y-108537857D01*
X157249761Y-108633095D01*
X157202142Y-108680714D01*
X157106904Y-108728333D01*
X156916428Y-108775952D01*
X156678333Y-108775952D01*
X156487857Y-108728333D01*
X156392619Y-108680714D01*
X156345000Y-108633095D01*
X156297380Y-108537857D01*
X157297380Y-107775952D02*
X156297380Y-107775952D01*
X156297380Y-107537857D01*
X156345000Y-107395000D01*
X156440238Y-107299761D01*
X156535476Y-107252142D01*
X156725952Y-107204523D01*
X156868809Y-107204523D01*
X157059285Y-107252142D01*
X157154523Y-107299761D01*
X157249761Y-107395000D01*
X157297380Y-107537857D01*
X157297380Y-107775952D01*
X109744523Y-53792380D02*
X109744523Y-52792380D01*
X110077857Y-53506666D01*
X110411190Y-52792380D01*
X110411190Y-53792380D01*
X111458809Y-53697142D02*
X111411190Y-53744761D01*
X111268333Y-53792380D01*
X111173095Y-53792380D01*
X111030238Y-53744761D01*
X110935000Y-53649523D01*
X110887380Y-53554285D01*
X110839761Y-53363809D01*
X110839761Y-53220952D01*
X110887380Y-53030476D01*
X110935000Y-52935238D01*
X111030238Y-52840000D01*
X111173095Y-52792380D01*
X111268333Y-52792380D01*
X111411190Y-52840000D01*
X111458809Y-52887619D01*
X112315952Y-52792380D02*
X112125476Y-52792380D01*
X112030238Y-52840000D01*
X111982619Y-52887619D01*
X111887380Y-53030476D01*
X111839761Y-53220952D01*
X111839761Y-53601904D01*
X111887380Y-53697142D01*
X111935000Y-53744761D01*
X112030238Y-53792380D01*
X112220714Y-53792380D01*
X112315952Y-53744761D01*
X112363571Y-53697142D01*
X112411190Y-53601904D01*
X112411190Y-53363809D01*
X112363571Y-53268571D01*
X112315952Y-53220952D01*
X112220714Y-53173333D01*
X112030238Y-53173333D01*
X111935000Y-53220952D01*
X111887380Y-53268571D01*
X111839761Y-53363809D01*
X112982619Y-53220952D02*
X112887380Y-53173333D01*
X112839761Y-53125714D01*
X112792142Y-53030476D01*
X112792142Y-52982857D01*
X112839761Y-52887619D01*
X112887380Y-52840000D01*
X112982619Y-52792380D01*
X113173095Y-52792380D01*
X113268333Y-52840000D01*
X113315952Y-52887619D01*
X113363571Y-52982857D01*
X113363571Y-53030476D01*
X113315952Y-53125714D01*
X113268333Y-53173333D01*
X113173095Y-53220952D01*
X112982619Y-53220952D01*
X112887380Y-53268571D01*
X112839761Y-53316190D01*
X112792142Y-53411428D01*
X112792142Y-53601904D01*
X112839761Y-53697142D01*
X112887380Y-53744761D01*
X112982619Y-53792380D01*
X113173095Y-53792380D01*
X113268333Y-53744761D01*
X113315952Y-53697142D01*
X113363571Y-53601904D01*
X113363571Y-53411428D01*
X113315952Y-53316190D01*
X113268333Y-53268571D01*
X113173095Y-53220952D01*
X113792142Y-53792380D02*
X113792142Y-52792380D01*
X113792142Y-53268571D02*
X114363571Y-53268571D01*
X114363571Y-53792380D02*
X114363571Y-52792380D01*
X115411190Y-53697142D02*
X115363571Y-53744761D01*
X115220714Y-53792380D01*
X115125476Y-53792380D01*
X114982619Y-53744761D01*
X114887380Y-53649523D01*
X114839761Y-53554285D01*
X114792142Y-53363809D01*
X114792142Y-53220952D01*
X114839761Y-53030476D01*
X114887380Y-52935238D01*
X114982619Y-52840000D01*
X115125476Y-52792380D01*
X115220714Y-52792380D01*
X115363571Y-52840000D01*
X115411190Y-52887619D01*
X116030238Y-52792380D02*
X116125476Y-52792380D01*
X116220714Y-52840000D01*
X116268333Y-52887619D01*
X116315952Y-52982857D01*
X116363571Y-53173333D01*
X116363571Y-53411428D01*
X116315952Y-53601904D01*
X116268333Y-53697142D01*
X116220714Y-53744761D01*
X116125476Y-53792380D01*
X116030238Y-53792380D01*
X115935000Y-53744761D01*
X115887380Y-53697142D01*
X115839761Y-53601904D01*
X115792142Y-53411428D01*
X115792142Y-53173333D01*
X115839761Y-52982857D01*
X115887380Y-52887619D01*
X115935000Y-52840000D01*
X116030238Y-52792380D01*
X116982619Y-52792380D02*
X117077857Y-52792380D01*
X117173095Y-52840000D01*
X117220714Y-52887619D01*
X117268333Y-52982857D01*
X117315952Y-53173333D01*
X117315952Y-53411428D01*
X117268333Y-53601904D01*
X117220714Y-53697142D01*
X117173095Y-53744761D01*
X117077857Y-53792380D01*
X116982619Y-53792380D01*
X116887380Y-53744761D01*
X116839761Y-53697142D01*
X116792142Y-53601904D01*
X116744523Y-53411428D01*
X116744523Y-53173333D01*
X116792142Y-52982857D01*
X116839761Y-52887619D01*
X116887380Y-52840000D01*
X116982619Y-52792380D01*
X117935000Y-52792380D02*
X118030238Y-52792380D01*
X118125476Y-52840000D01*
X118173095Y-52887619D01*
X118220714Y-52982857D01*
X118268333Y-53173333D01*
X118268333Y-53411428D01*
X118220714Y-53601904D01*
X118173095Y-53697142D01*
X118125476Y-53744761D01*
X118030238Y-53792380D01*
X117935000Y-53792380D01*
X117839761Y-53744761D01*
X117792142Y-53697142D01*
X117744523Y-53601904D01*
X117696904Y-53411428D01*
X117696904Y-53173333D01*
X117744523Y-52982857D01*
X117792142Y-52887619D01*
X117839761Y-52840000D01*
X117935000Y-52792380D01*
X119030238Y-53268571D02*
X118696904Y-53268571D01*
X118696904Y-53792380D02*
X118696904Y-52792380D01*
X119173095Y-52792380D01*
X119554047Y-53792380D02*
X119554047Y-52792380D01*
X120125476Y-53792380D01*
X120125476Y-52792380D01*
D12*
X134344285Y-88365000D02*
X134630000Y-88365000D01*
X134287142Y-88536428D02*
X134487142Y-87936428D01*
X134687142Y-88536428D01*
X134801428Y-87936428D02*
X135144285Y-87936428D01*
X134972857Y-88536428D02*
X134972857Y-87936428D01*
X135544285Y-88222142D02*
X135344285Y-88222142D01*
X135344285Y-88536428D02*
X135344285Y-87936428D01*
X135630000Y-87936428D01*
X136172857Y-88536428D02*
X135830000Y-88536428D01*
X136001428Y-88536428D02*
X136001428Y-87936428D01*
X135944285Y-88022142D01*
X135887142Y-88079285D01*
X135830000Y-88107857D01*
X136715714Y-87936428D02*
X136430000Y-87936428D01*
X136401428Y-88222142D01*
X136430000Y-88193571D01*
X136487142Y-88165000D01*
X136630000Y-88165000D01*
X136687142Y-88193571D01*
X136715714Y-88222142D01*
X136744285Y-88279285D01*
X136744285Y-88422142D01*
X136715714Y-88479285D01*
X136687142Y-88507857D01*
X136630000Y-88536428D01*
X136487142Y-88536428D01*
X136430000Y-88507857D01*
X136401428Y-88479285D01*
X137115714Y-87936428D02*
X137172857Y-87936428D01*
X137230000Y-87965000D01*
X137258571Y-87993571D01*
X137287142Y-88050714D01*
X137315714Y-88165000D01*
X137315714Y-88307857D01*
X137287142Y-88422142D01*
X137258571Y-88479285D01*
X137230000Y-88507857D01*
X137172857Y-88536428D01*
X137115714Y-88536428D01*
X137058571Y-88507857D01*
X137030000Y-88479285D01*
X137001428Y-88422142D01*
X136972857Y-88307857D01*
X136972857Y-88165000D01*
X137001428Y-88050714D01*
X137030000Y-87993571D01*
X137058571Y-87965000D01*
X137115714Y-87936428D01*
X137544285Y-87993571D02*
X137572857Y-87965000D01*
X137630000Y-87936428D01*
X137772857Y-87936428D01*
X137830000Y-87965000D01*
X137858571Y-87993571D01*
X137887142Y-88050714D01*
X137887142Y-88107857D01*
X137858571Y-88193571D01*
X137515714Y-88536428D01*
X137887142Y-88536428D01*
X138115714Y-88365000D02*
X138401428Y-88365000D01*
X138058571Y-88536428D02*
X138258571Y-87936428D01*
X138458571Y-88536428D01*
X138630000Y-88507857D02*
X138715714Y-88536428D01*
X138858571Y-88536428D01*
X138915714Y-88507857D01*
X138944285Y-88479285D01*
X138972857Y-88422142D01*
X138972857Y-88365000D01*
X138944285Y-88307857D01*
X138915714Y-88279285D01*
X138858571Y-88250714D01*
X138744285Y-88222142D01*
X138687142Y-88193571D01*
X138658571Y-88165000D01*
X138630000Y-88107857D01*
X138630000Y-88050714D01*
X138658571Y-87993571D01*
X138687142Y-87965000D01*
X138744285Y-87936428D01*
X138887142Y-87936428D01*
X138972857Y-87965000D01*
X139230000Y-88307857D02*
X139687142Y-88307857D01*
X139915714Y-87936428D02*
X140315714Y-87936428D01*
X140058571Y-88536428D01*
X140515714Y-88365000D02*
X140801428Y-88365000D01*
X140458571Y-88536428D02*
X140658571Y-87936428D01*
X140858571Y-88536428D01*
X141001428Y-87936428D02*
X141401428Y-88536428D01*
X141401428Y-87936428D02*
X141001428Y-88536428D01*
X141887142Y-88136428D02*
X141887142Y-88536428D01*
X141744285Y-87907857D02*
X141601428Y-88336428D01*
X141972857Y-88336428D01*
X142458571Y-88136428D02*
X142458571Y-88536428D01*
X142315714Y-87907857D02*
X142172857Y-88336428D01*
X142544285Y-88336428D01*
D10*
X138753904Y-68490180D02*
X138753904Y-67956846D01*
X139553904Y-68399703D01*
X139020571Y-67342561D02*
X139553904Y-67409227D01*
X138715809Y-67494941D02*
X139287238Y-67756846D01*
X139287238Y-67261608D01*
X139553904Y-66990180D02*
X138753904Y-66890180D01*
X139134857Y-66937799D02*
X139134857Y-66480656D01*
X139553904Y-66533037D02*
X138753904Y-66433037D01*
X139477714Y-65685418D02*
X139515809Y-65728275D01*
X139553904Y-65847322D01*
X139553904Y-65923513D01*
X139515809Y-66033037D01*
X139439619Y-66099703D01*
X139363428Y-66128275D01*
X139211047Y-66147322D01*
X139096761Y-66133037D01*
X138944380Y-66075894D01*
X138868190Y-66028275D01*
X138792000Y-65942561D01*
X138753904Y-65823513D01*
X138753904Y-65747322D01*
X138792000Y-65637799D01*
X138830095Y-65604465D01*
X138753904Y-65366370D02*
X138753904Y-64909227D01*
X139553904Y-65237799D02*
X138753904Y-65137799D01*
X139553904Y-64323513D02*
X139553904Y-64780656D01*
X139553904Y-64552084D02*
X138753904Y-64452084D01*
X138868190Y-64542561D01*
X138944380Y-64628275D01*
X138982476Y-64709227D01*
X138753904Y-63499703D02*
X138753904Y-63880656D01*
X139134857Y-63966370D01*
X139096761Y-63923513D01*
X139058666Y-63842561D01*
X139058666Y-63652084D01*
X139096761Y-63580656D01*
X139134857Y-63547322D01*
X139211047Y-63518751D01*
X139401523Y-63542561D01*
X139477714Y-63590180D01*
X139515809Y-63633037D01*
X139553904Y-63713989D01*
X139553904Y-63904465D01*
X139515809Y-63975894D01*
X139477714Y-64009227D01*
X138753904Y-63194941D02*
X138753904Y-62661608D01*
X139553904Y-63104465D01*
X138690404Y-56234680D02*
X138690404Y-55701346D01*
X139490404Y-56144203D01*
X138957071Y-55087061D02*
X139490404Y-55153727D01*
X138652309Y-55239441D02*
X139223738Y-55501346D01*
X139223738Y-55006108D01*
X139490404Y-54734680D02*
X138690404Y-54634680D01*
X139071357Y-54682299D02*
X139071357Y-54225156D01*
X139490404Y-54277537D02*
X138690404Y-54177537D01*
X139414214Y-53429918D02*
X139452309Y-53472775D01*
X139490404Y-53591822D01*
X139490404Y-53668013D01*
X139452309Y-53777537D01*
X139376119Y-53844203D01*
X139299928Y-53872775D01*
X139147547Y-53891822D01*
X139033261Y-53877537D01*
X138880880Y-53820394D01*
X138804690Y-53772775D01*
X138728500Y-53687061D01*
X138690404Y-53568013D01*
X138690404Y-53491822D01*
X138728500Y-53382299D01*
X138766595Y-53348965D01*
X138690404Y-53110870D02*
X138690404Y-52653727D01*
X139490404Y-52982299D02*
X138690404Y-52882299D01*
X139490404Y-52068013D02*
X139490404Y-52525156D01*
X139490404Y-52296584D02*
X138690404Y-52196584D01*
X138804690Y-52287061D01*
X138880880Y-52372775D01*
X138918976Y-52453727D01*
X138690404Y-51244203D02*
X138690404Y-51625156D01*
X139071357Y-51710870D01*
X139033261Y-51668013D01*
X138995166Y-51587061D01*
X138995166Y-51396584D01*
X139033261Y-51325156D01*
X139071357Y-51291822D01*
X139147547Y-51263251D01*
X139338023Y-51287061D01*
X139414214Y-51334680D01*
X139452309Y-51377537D01*
X139490404Y-51458489D01*
X139490404Y-51648965D01*
X139452309Y-51720394D01*
X139414214Y-51753727D01*
X138690404Y-50939441D02*
X138690404Y-50406108D01*
X139490404Y-50848965D01*
D12*
X136566941Y-107875428D02*
X136909799Y-107875428D01*
X136663370Y-108475428D02*
X136738370Y-107875428D01*
X137034799Y-108475428D02*
X137109799Y-107875428D01*
X137338370Y-107875428D01*
X137391941Y-107904000D01*
X137416941Y-107932571D01*
X137438370Y-107989714D01*
X137427656Y-108075428D01*
X137391941Y-108132571D01*
X137359799Y-108161142D01*
X137299084Y-108189714D01*
X137070513Y-108189714D01*
X137609799Y-108446857D02*
X137691941Y-108475428D01*
X137834799Y-108475428D01*
X137895513Y-108446857D01*
X137927656Y-108418285D01*
X137963370Y-108361142D01*
X137970513Y-108304000D01*
X137949084Y-108246857D01*
X137924084Y-108218285D01*
X137870513Y-108189714D01*
X137759799Y-108161142D01*
X137706227Y-108132571D01*
X137681227Y-108104000D01*
X137659799Y-108046857D01*
X137666941Y-107989714D01*
X137702656Y-107932571D01*
X137734799Y-107904000D01*
X137795513Y-107875428D01*
X137938370Y-107875428D01*
X138020513Y-107904000D01*
X138224084Y-107875428D02*
X138624084Y-107875428D01*
X138291941Y-108475428D01*
X138795513Y-107875428D02*
X139166941Y-107875428D01*
X138938370Y-108104000D01*
X139024084Y-108104000D01*
X139077656Y-108132571D01*
X139102656Y-108161142D01*
X139124084Y-108218285D01*
X139106227Y-108361142D01*
X139070513Y-108418285D01*
X139038370Y-108446857D01*
X138977656Y-108475428D01*
X138806227Y-108475428D01*
X138752656Y-108446857D01*
X138727656Y-108418285D01*
X139366941Y-107875428D02*
X139738370Y-107875428D01*
X139509799Y-108104000D01*
X139595513Y-108104000D01*
X139649084Y-108132571D01*
X139674084Y-108161142D01*
X139695513Y-108218285D01*
X139677656Y-108361142D01*
X139641941Y-108418285D01*
X139609799Y-108446857D01*
X139549084Y-108475428D01*
X139377656Y-108475428D01*
X139324084Y-108446857D01*
X139299084Y-108418285D01*
X139938370Y-107875428D02*
X140309799Y-107875428D01*
X140081227Y-108104000D01*
X140166941Y-108104000D01*
X140220513Y-108132571D01*
X140245513Y-108161142D01*
X140266941Y-108218285D01*
X140249084Y-108361142D01*
X140213370Y-108418285D01*
X140181227Y-108446857D01*
X140120513Y-108475428D01*
X139949084Y-108475428D01*
X139895513Y-108446857D01*
X139870513Y-108418285D01*
X140884799Y-108532571D02*
X140831227Y-108504000D01*
X140781227Y-108446857D01*
X140706227Y-108361142D01*
X140652656Y-108332571D01*
X140595513Y-108332571D01*
X140606227Y-108475428D02*
X140552656Y-108446857D01*
X140502656Y-108389714D01*
X140488370Y-108275428D01*
X140513370Y-108075428D01*
X140556227Y-107961142D01*
X140620513Y-107904000D01*
X140681227Y-107875428D01*
X140795513Y-107875428D01*
X140849084Y-107904000D01*
X140899084Y-107961142D01*
X140913370Y-108075428D01*
X140888370Y-108275428D01*
X140845513Y-108389714D01*
X140781227Y-108446857D01*
X140720513Y-108475428D01*
X140606227Y-108475428D01*
X141120513Y-108475428D02*
X141195513Y-107875428D01*
X141338370Y-107875428D01*
X141420513Y-107904000D01*
X141470513Y-107961142D01*
X141491941Y-108018285D01*
X141506227Y-108132571D01*
X141495513Y-108218285D01*
X141452656Y-108332571D01*
X141416941Y-108389714D01*
X141352656Y-108446857D01*
X141263370Y-108475428D01*
X141120513Y-108475428D01*
D11*
X104823571Y-155392380D02*
X104823571Y-154392380D01*
X104823571Y-154868571D02*
X105395000Y-154868571D01*
X105395000Y-155392380D02*
X105395000Y-154392380D01*
X106252142Y-155344761D02*
X106156904Y-155392380D01*
X105966428Y-155392380D01*
X105871190Y-155344761D01*
X105823571Y-155249523D01*
X105823571Y-154868571D01*
X105871190Y-154773333D01*
X105966428Y-154725714D01*
X106156904Y-154725714D01*
X106252142Y-154773333D01*
X106299761Y-154868571D01*
X106299761Y-154963809D01*
X105823571Y-155059047D01*
X106871190Y-155392380D02*
X106775952Y-155344761D01*
X106728333Y-155249523D01*
X106728333Y-154392380D01*
X107395000Y-155392380D02*
X107299761Y-155344761D01*
X107252142Y-155249523D01*
X107252142Y-154392380D01*
X107918809Y-155392380D02*
X107823571Y-155344761D01*
X107775952Y-155297142D01*
X107728333Y-155201904D01*
X107728333Y-154916190D01*
X107775952Y-154820952D01*
X107823571Y-154773333D01*
X107918809Y-154725714D01*
X108061666Y-154725714D01*
X108156904Y-154773333D01*
X108204523Y-154820952D01*
X108252142Y-154916190D01*
X108252142Y-155201904D01*
X108204523Y-155297142D01*
X108156904Y-155344761D01*
X108061666Y-155392380D01*
X107918809Y-155392380D01*
X110014047Y-155297142D02*
X109966428Y-155344761D01*
X109823571Y-155392380D01*
X109728333Y-155392380D01*
X109585476Y-155344761D01*
X109490238Y-155249523D01*
X109442619Y-155154285D01*
X109395000Y-154963809D01*
X109395000Y-154820952D01*
X109442619Y-154630476D01*
X109490238Y-154535238D01*
X109585476Y-154440000D01*
X109728333Y-154392380D01*
X109823571Y-154392380D01*
X109966428Y-154440000D01*
X110014047Y-154487619D01*
X110871190Y-155392380D02*
X110871190Y-154868571D01*
X110823571Y-154773333D01*
X110728333Y-154725714D01*
X110537857Y-154725714D01*
X110442619Y-154773333D01*
X110871190Y-155344761D02*
X110775952Y-155392380D01*
X110537857Y-155392380D01*
X110442619Y-155344761D01*
X110395000Y-155249523D01*
X110395000Y-155154285D01*
X110442619Y-155059047D01*
X110537857Y-155011428D01*
X110775952Y-155011428D01*
X110871190Y-154963809D01*
X111252142Y-154725714D02*
X111490238Y-155392380D01*
X111728333Y-154725714D01*
X112490238Y-155344761D02*
X112395000Y-155392380D01*
X112204523Y-155392380D01*
X112109285Y-155344761D01*
X112061666Y-155249523D01*
X112061666Y-154868571D01*
X112109285Y-154773333D01*
X112204523Y-154725714D01*
X112395000Y-154725714D01*
X112490238Y-154773333D01*
X112537857Y-154868571D01*
X112537857Y-154963809D01*
X112061666Y-155059047D01*
X113728333Y-155392380D02*
X113728333Y-154392380D01*
X113966428Y-154392380D01*
X114109285Y-154440000D01*
X114204523Y-154535238D01*
X114252142Y-154630476D01*
X114299761Y-154820952D01*
X114299761Y-154963809D01*
X114252142Y-155154285D01*
X114204523Y-155249523D01*
X114109285Y-155344761D01*
X113966428Y-155392380D01*
X113728333Y-155392380D01*
X114633095Y-154725714D02*
X114823571Y-155392380D01*
X115014047Y-154916190D01*
X115204523Y-155392380D01*
X115395000Y-154725714D01*
X116156904Y-155344761D02*
X116061666Y-155392380D01*
X115871190Y-155392380D01*
X115775952Y-155344761D01*
X115728333Y-155249523D01*
X115728333Y-154868571D01*
X115775952Y-154773333D01*
X115871190Y-154725714D01*
X116061666Y-154725714D01*
X116156904Y-154773333D01*
X116204523Y-154868571D01*
X116204523Y-154963809D01*
X115728333Y-155059047D01*
X116775952Y-155392380D02*
X116680714Y-155344761D01*
X116633095Y-155249523D01*
X116633095Y-154392380D01*
X117299761Y-155392380D02*
X117204523Y-155344761D01*
X117156904Y-155249523D01*
X117156904Y-154392380D01*
X118061666Y-155344761D02*
X117966428Y-155392380D01*
X117775952Y-155392380D01*
X117680714Y-155344761D01*
X117633095Y-155249523D01*
X117633095Y-154868571D01*
X117680714Y-154773333D01*
X117775952Y-154725714D01*
X117966428Y-154725714D01*
X118061666Y-154773333D01*
X118109285Y-154868571D01*
X118109285Y-154963809D01*
X117633095Y-155059047D01*
X118537857Y-155392380D02*
X118537857Y-154725714D01*
X118537857Y-154916190D02*
X118585476Y-154820952D01*
X118633095Y-154773333D01*
X118728333Y-154725714D01*
X118823571Y-154725714D01*
X119109285Y-155344761D02*
X119204523Y-155392380D01*
X119395000Y-155392380D01*
X119490238Y-155344761D01*
X119537857Y-155249523D01*
X119537857Y-155201904D01*
X119490238Y-155106666D01*
X119395000Y-155059047D01*
X119252142Y-155059047D01*
X119156904Y-155011428D01*
X119109285Y-154916190D01*
X119109285Y-154868571D01*
X119156904Y-154773333D01*
X119252142Y-154725714D01*
X119395000Y-154725714D01*
X119490238Y-154773333D01*
X119966428Y-155297142D02*
X120014047Y-155344761D01*
X119966428Y-155392380D01*
X119918809Y-155344761D01*
X119966428Y-155297142D01*
X119966428Y-155392380D01*
X119966428Y-155011428D02*
X119918809Y-154440000D01*
X119966428Y-154392380D01*
X120014047Y-154440000D01*
X119966428Y-155011428D01*
X119966428Y-154392380D01*
X164917380Y-82655461D02*
X163917380Y-82530461D01*
X163917380Y-82149508D01*
X163965000Y-82060223D01*
X164012619Y-82018556D01*
X164107857Y-81982842D01*
X164250714Y-82000699D01*
X164345952Y-82060223D01*
X164393571Y-82113794D01*
X164441190Y-82214985D01*
X164441190Y-82595937D01*
X164250714Y-81143556D02*
X164917380Y-81226889D01*
X164250714Y-81572127D02*
X164774523Y-81637604D01*
X164869761Y-81601889D01*
X164917380Y-81512604D01*
X164917380Y-81369747D01*
X164869761Y-81268556D01*
X164822142Y-81214985D01*
X164917380Y-80750699D02*
X163917380Y-80625699D01*
X164298333Y-80673318D02*
X164250714Y-80572127D01*
X164250714Y-80381651D01*
X164298333Y-80292366D01*
X164345952Y-80250699D01*
X164441190Y-80214985D01*
X164726904Y-80250699D01*
X164822142Y-80310223D01*
X164869761Y-80363794D01*
X164917380Y-80464985D01*
X164917380Y-80655461D01*
X164869761Y-80744747D01*
X164917380Y-79703080D02*
X164869761Y-79792366D01*
X164774523Y-79828080D01*
X163917380Y-79720937D01*
X164917380Y-79322127D02*
X164250714Y-79238794D01*
X163917380Y-79197127D02*
X163965000Y-79250699D01*
X164012619Y-79209032D01*
X163965000Y-79155461D01*
X163917380Y-79197127D01*
X164012619Y-79209032D01*
X164869761Y-78887604D02*
X164917380Y-78798318D01*
X164917380Y-78607842D01*
X164869761Y-78506651D01*
X164774523Y-78447127D01*
X164726904Y-78441175D01*
X164631666Y-78476889D01*
X164584047Y-78566175D01*
X164584047Y-78709032D01*
X164536428Y-78798318D01*
X164441190Y-78834032D01*
X164393571Y-78828080D01*
X164298333Y-78768556D01*
X164250714Y-78667366D01*
X164250714Y-78524508D01*
X164298333Y-78435223D01*
X164917380Y-78036413D02*
X163917380Y-77911413D01*
X164917380Y-77607842D02*
X164393571Y-77542366D01*
X164298333Y-77578080D01*
X164250714Y-77667366D01*
X164250714Y-77810223D01*
X164298333Y-77911413D01*
X164345952Y-77964985D01*
X164869761Y-76744747D02*
X164917380Y-76845937D01*
X164917380Y-77036413D01*
X164869761Y-77125699D01*
X164774523Y-77161413D01*
X164393571Y-77113794D01*
X164298333Y-77054270D01*
X164250714Y-76953080D01*
X164250714Y-76762604D01*
X164298333Y-76673318D01*
X164393571Y-76637604D01*
X164488809Y-76649508D01*
X164584047Y-77137604D01*
X164917380Y-75845937D02*
X163917380Y-75720937D01*
X164869761Y-75839985D02*
X164917380Y-75941175D01*
X164917380Y-76131651D01*
X164869761Y-76220937D01*
X164822142Y-76262604D01*
X164726904Y-76298318D01*
X164441190Y-76262604D01*
X164345952Y-76203080D01*
X164298333Y-76149508D01*
X164250714Y-76048318D01*
X164250714Y-75857842D01*
X164298333Y-75768556D01*
X164250714Y-74095937D02*
X164917380Y-74179270D01*
X164250714Y-74524508D02*
X164774523Y-74589985D01*
X164869761Y-74554270D01*
X164917380Y-74464985D01*
X164917380Y-74322127D01*
X164869761Y-74220937D01*
X164822142Y-74167366D01*
X164250714Y-73619747D02*
X164917380Y-73703080D01*
X164345952Y-73631651D02*
X164298333Y-73578080D01*
X164250714Y-73476889D01*
X164250714Y-73334032D01*
X164298333Y-73244747D01*
X164393571Y-73209032D01*
X164917380Y-73274508D01*
X164917380Y-72369747D02*
X163917380Y-72244747D01*
X164869761Y-72363794D02*
X164917380Y-72464985D01*
X164917380Y-72655461D01*
X164869761Y-72744747D01*
X164822142Y-72786413D01*
X164726904Y-72822127D01*
X164441190Y-72786413D01*
X164345952Y-72726889D01*
X164298333Y-72673318D01*
X164250714Y-72572127D01*
X164250714Y-72381651D01*
X164298333Y-72292366D01*
X164869761Y-71506651D02*
X164917380Y-71607842D01*
X164917380Y-71798318D01*
X164869761Y-71887604D01*
X164774523Y-71923318D01*
X164393571Y-71875699D01*
X164298333Y-71816175D01*
X164250714Y-71714985D01*
X164250714Y-71524508D01*
X164298333Y-71435223D01*
X164393571Y-71399508D01*
X164488809Y-71411413D01*
X164584047Y-71899508D01*
X164917380Y-71036413D02*
X164250714Y-70953080D01*
X164441190Y-70976889D02*
X164345952Y-70917366D01*
X164298333Y-70863794D01*
X164250714Y-70762604D01*
X164250714Y-70667366D01*
X164250714Y-69714985D02*
X164250714Y-69334032D01*
X163917380Y-69530461D02*
X164774523Y-69637604D01*
X164869761Y-69601889D01*
X164917380Y-69512604D01*
X164917380Y-69417366D01*
X164917380Y-69084032D02*
X163917380Y-68959032D01*
X164917380Y-68655461D02*
X164393571Y-68589985D01*
X164298333Y-68625699D01*
X164250714Y-68714985D01*
X164250714Y-68857842D01*
X164298333Y-68959032D01*
X164345952Y-69012604D01*
X164869761Y-67792366D02*
X164917380Y-67893556D01*
X164917380Y-68084032D01*
X164869761Y-68173318D01*
X164774523Y-68209032D01*
X164393571Y-68161413D01*
X164298333Y-68101889D01*
X164250714Y-68000699D01*
X164250714Y-67810223D01*
X164298333Y-67720937D01*
X164393571Y-67685223D01*
X164488809Y-67697127D01*
X164584047Y-68185223D01*
X163965000Y-65917366D02*
X163917380Y-66006651D01*
X163917380Y-66149508D01*
X163965000Y-66298318D01*
X164060238Y-66405461D01*
X164155476Y-66464985D01*
X164345952Y-66536413D01*
X164488809Y-66554270D01*
X164679285Y-66530461D01*
X164774523Y-66494747D01*
X164869761Y-66411413D01*
X164917380Y-66274508D01*
X164917380Y-66179270D01*
X164869761Y-66030461D01*
X164822142Y-65976889D01*
X164488809Y-65935223D01*
X164488809Y-66125699D01*
X164917380Y-65560223D02*
X163917380Y-65435223D01*
X164917380Y-64988794D01*
X163917380Y-64863794D01*
X163917380Y-64387604D02*
X164726904Y-64488794D01*
X164822142Y-64453080D01*
X164869761Y-64411413D01*
X164917380Y-64322127D01*
X164917380Y-64131651D01*
X164869761Y-64030461D01*
X164822142Y-63976889D01*
X164726904Y-63917366D01*
X163917380Y-63816175D01*
X163965000Y-62060223D02*
X163917380Y-62149508D01*
X163917380Y-62292366D01*
X163965000Y-62441175D01*
X164060238Y-62548318D01*
X164155476Y-62607842D01*
X164345952Y-62679270D01*
X164488809Y-62697127D01*
X164679285Y-62673318D01*
X164774523Y-62637604D01*
X164869761Y-62554270D01*
X164917380Y-62417366D01*
X164917380Y-62322127D01*
X164869761Y-62173318D01*
X164822142Y-62119747D01*
X164488809Y-62078080D01*
X164488809Y-62268556D01*
X164869761Y-61316175D02*
X164917380Y-61417366D01*
X164917380Y-61607842D01*
X164869761Y-61697127D01*
X164774523Y-61732842D01*
X164393571Y-61685223D01*
X164298333Y-61625699D01*
X164250714Y-61524508D01*
X164250714Y-61334032D01*
X164298333Y-61244747D01*
X164393571Y-61209032D01*
X164488809Y-61220937D01*
X164584047Y-61709032D01*
X164250714Y-60762604D02*
X164917380Y-60845937D01*
X164345952Y-60774508D02*
X164298333Y-60720937D01*
X164250714Y-60619747D01*
X164250714Y-60476889D01*
X164298333Y-60387604D01*
X164393571Y-60351889D01*
X164917380Y-60417366D01*
X164869761Y-59554270D02*
X164917380Y-59655461D01*
X164917380Y-59845937D01*
X164869761Y-59935223D01*
X164774523Y-59970937D01*
X164393571Y-59923318D01*
X164298333Y-59863794D01*
X164250714Y-59762604D01*
X164250714Y-59572127D01*
X164298333Y-59482842D01*
X164393571Y-59447127D01*
X164488809Y-59459032D01*
X164584047Y-59947127D01*
X164917380Y-59084032D02*
X164250714Y-59000699D01*
X164441190Y-59024508D02*
X164345952Y-58964985D01*
X164298333Y-58911413D01*
X164250714Y-58810223D01*
X164250714Y-58714985D01*
X164917380Y-58036413D02*
X164393571Y-57970937D01*
X164298333Y-58006651D01*
X164250714Y-58095937D01*
X164250714Y-58286413D01*
X164298333Y-58387604D01*
X164869761Y-58030461D02*
X164917380Y-58131651D01*
X164917380Y-58369747D01*
X164869761Y-58459032D01*
X164774523Y-58494747D01*
X164679285Y-58482842D01*
X164584047Y-58423318D01*
X164536428Y-58322127D01*
X164536428Y-58084032D01*
X164488809Y-57982842D01*
X164917380Y-57417366D02*
X164869761Y-57506651D01*
X164774523Y-57542366D01*
X163917380Y-57435223D01*
X164917380Y-56274508D02*
X163917380Y-56149508D01*
X163917380Y-55768556D01*
X163965000Y-55679270D01*
X164012619Y-55637604D01*
X164107857Y-55601889D01*
X164250714Y-55619747D01*
X164345952Y-55679270D01*
X164393571Y-55732842D01*
X164441190Y-55834032D01*
X164441190Y-56214985D01*
X164250714Y-54762604D02*
X164917380Y-54845937D01*
X164250714Y-55191175D02*
X164774523Y-55256651D01*
X164869761Y-55220937D01*
X164917380Y-55131651D01*
X164917380Y-54988794D01*
X164869761Y-54887604D01*
X164822142Y-54834032D01*
X164917380Y-54369747D02*
X163917380Y-54244747D01*
X164298333Y-54292366D02*
X164250714Y-54191175D01*
X164250714Y-54000699D01*
X164298333Y-53911413D01*
X164345952Y-53869747D01*
X164441190Y-53834032D01*
X164726904Y-53869747D01*
X164822142Y-53929270D01*
X164869761Y-53982842D01*
X164917380Y-54084032D01*
X164917380Y-54274508D01*
X164869761Y-54363794D01*
X164917380Y-53322127D02*
X164869761Y-53411413D01*
X164774523Y-53447127D01*
X163917380Y-53339985D01*
X164917380Y-52941175D02*
X164250714Y-52857842D01*
X163917380Y-52816175D02*
X163965000Y-52869747D01*
X164012619Y-52828080D01*
X163965000Y-52774508D01*
X163917380Y-52816175D01*
X164012619Y-52828080D01*
X164869761Y-52030461D02*
X164917380Y-52131651D01*
X164917380Y-52322127D01*
X164869761Y-52411413D01*
X164822142Y-52453080D01*
X164726904Y-52488794D01*
X164441190Y-52453080D01*
X164345952Y-52393556D01*
X164298333Y-52339985D01*
X164250714Y-52238794D01*
X164250714Y-52048318D01*
X164298333Y-51959032D01*
X164917380Y-50369747D02*
X164917380Y-50845937D01*
X163917380Y-50720937D01*
X164917380Y-50036413D02*
X164250714Y-49953080D01*
X163917380Y-49911413D02*
X163965000Y-49964985D01*
X164012619Y-49923318D01*
X163965000Y-49869747D01*
X163917380Y-49911413D01*
X164012619Y-49923318D01*
X164869761Y-49125699D02*
X164917380Y-49226889D01*
X164917380Y-49417366D01*
X164869761Y-49506651D01*
X164822142Y-49548318D01*
X164726904Y-49584032D01*
X164441190Y-49548318D01*
X164345952Y-49488794D01*
X164298333Y-49435223D01*
X164250714Y-49334032D01*
X164250714Y-49143556D01*
X164298333Y-49054270D01*
X164869761Y-48316175D02*
X164917380Y-48417366D01*
X164917380Y-48607842D01*
X164869761Y-48697127D01*
X164774523Y-48732842D01*
X164393571Y-48685223D01*
X164298333Y-48625699D01*
X164250714Y-48524508D01*
X164250714Y-48334032D01*
X164298333Y-48244747D01*
X164393571Y-48209032D01*
X164488809Y-48220937D01*
X164584047Y-48709032D01*
X164250714Y-47762604D02*
X164917380Y-47845937D01*
X164345952Y-47774508D02*
X164298333Y-47720937D01*
X164250714Y-47619747D01*
X164250714Y-47476889D01*
X164298333Y-47387604D01*
X164393571Y-47351889D01*
X164917380Y-47417366D01*
X164869761Y-46982842D02*
X164917380Y-46893556D01*
X164917380Y-46703080D01*
X164869761Y-46601889D01*
X164774523Y-46542366D01*
X164726904Y-46536413D01*
X164631666Y-46572127D01*
X164584047Y-46661413D01*
X164584047Y-46804270D01*
X164536428Y-46893556D01*
X164441190Y-46929270D01*
X164393571Y-46923318D01*
X164298333Y-46863794D01*
X164250714Y-46762604D01*
X164250714Y-46619747D01*
X164298333Y-46530461D01*
X164869761Y-45744747D02*
X164917380Y-45845937D01*
X164917380Y-46036413D01*
X164869761Y-46125699D01*
X164774523Y-46161413D01*
X164393571Y-46113794D01*
X164298333Y-46054270D01*
X164250714Y-45953080D01*
X164250714Y-45762604D01*
X164298333Y-45673318D01*
X164393571Y-45637604D01*
X164488809Y-45649508D01*
X164584047Y-46137604D01*
X164250714Y-44524508D02*
X164917380Y-44369747D01*
X164250714Y-44048318D01*
X164012619Y-43685223D02*
X163965000Y-43631651D01*
X163917380Y-43530461D01*
X163917380Y-43292366D01*
X163965000Y-43203080D01*
X164012619Y-43161413D01*
X164107857Y-43125699D01*
X164203095Y-43137604D01*
X164345952Y-43203080D01*
X164917380Y-43845937D01*
X164917380Y-43226889D01*
X165298333Y-112573318D02*
X165250714Y-112614985D01*
X165107857Y-112692366D01*
X165012619Y-112728080D01*
X164869761Y-112757842D01*
X164631666Y-112775699D01*
X164441190Y-112751889D01*
X164203095Y-112674508D01*
X164060238Y-112609032D01*
X163965000Y-112549508D01*
X163822142Y-112436413D01*
X163774523Y-112382842D01*
X164822142Y-111561413D02*
X164869761Y-111614985D01*
X164917380Y-111763794D01*
X164917380Y-111859032D01*
X164869761Y-111995937D01*
X164774523Y-112079270D01*
X164679285Y-112114985D01*
X164488809Y-112138794D01*
X164345952Y-112120937D01*
X164155476Y-112049508D01*
X164060238Y-111989985D01*
X163965000Y-111882842D01*
X163917380Y-111734032D01*
X163917380Y-111638794D01*
X163965000Y-111501889D01*
X164012619Y-111460223D01*
X165298333Y-111287604D02*
X165250714Y-111234032D01*
X165107857Y-111120937D01*
X165012619Y-111061413D01*
X164869761Y-110995937D01*
X164631666Y-110918556D01*
X164441190Y-110894747D01*
X164203095Y-110912604D01*
X164060238Y-110942366D01*
X163965000Y-110978080D01*
X163822142Y-111055461D01*
X163774523Y-111097127D01*
X164012619Y-109650699D02*
X163965000Y-109597127D01*
X163917380Y-109495937D01*
X163917380Y-109257842D01*
X163965000Y-109168556D01*
X164012619Y-109126889D01*
X164107857Y-109091175D01*
X164203095Y-109103080D01*
X164345952Y-109168556D01*
X164917380Y-109811413D01*
X164917380Y-109192366D01*
X163917380Y-108448318D02*
X163917380Y-108353080D01*
X163965000Y-108263794D01*
X164012619Y-108222127D01*
X164107857Y-108186413D01*
X164298333Y-108162604D01*
X164536428Y-108192366D01*
X164726904Y-108263794D01*
X164822142Y-108323318D01*
X164869761Y-108376889D01*
X164917380Y-108478080D01*
X164917380Y-108573318D01*
X164869761Y-108662604D01*
X164822142Y-108704270D01*
X164726904Y-108739985D01*
X164536428Y-108763794D01*
X164298333Y-108734032D01*
X164107857Y-108662604D01*
X164012619Y-108603080D01*
X163965000Y-108549508D01*
X163917380Y-108448318D01*
X164917380Y-107287604D02*
X164917380Y-107859032D01*
X164917380Y-107573318D02*
X163917380Y-107448318D01*
X164060238Y-107561413D01*
X164155476Y-107668556D01*
X164203095Y-107769747D01*
X164917380Y-106811413D02*
X164917380Y-106620937D01*
X164869761Y-106519747D01*
X164822142Y-106466175D01*
X164679285Y-106353080D01*
X164488809Y-106281651D01*
X164107857Y-106234032D01*
X164012619Y-106269747D01*
X163965000Y-106311413D01*
X163917380Y-106400699D01*
X163917380Y-106591175D01*
X163965000Y-106692366D01*
X164012619Y-106745937D01*
X164107857Y-106805461D01*
X164345952Y-106835223D01*
X164441190Y-106799508D01*
X164488809Y-106757842D01*
X164536428Y-106668556D01*
X164536428Y-106478080D01*
X164488809Y-106376889D01*
X164441190Y-106323318D01*
X164345952Y-106263794D01*
X164917380Y-105144747D02*
X163917380Y-105019747D01*
X164917380Y-104573318D02*
X164345952Y-104930461D01*
X163917380Y-104448318D02*
X164488809Y-105091175D01*
X164917380Y-103716175D02*
X164393571Y-103650699D01*
X164298333Y-103686413D01*
X164250714Y-103775699D01*
X164250714Y-103966175D01*
X164298333Y-104067366D01*
X164869761Y-103710223D02*
X164917380Y-103811413D01*
X164917380Y-104049508D01*
X164869761Y-104138794D01*
X164774523Y-104174508D01*
X164679285Y-104162604D01*
X164584047Y-104103080D01*
X164536428Y-104001889D01*
X164536428Y-103763794D01*
X164488809Y-103662604D01*
X164917380Y-103239985D02*
X164250714Y-103156651D01*
X163917380Y-103114985D02*
X163965000Y-103168556D01*
X164012619Y-103126889D01*
X163965000Y-103073318D01*
X163917380Y-103114985D01*
X164012619Y-103126889D01*
X164917380Y-101430461D02*
X164441190Y-101704270D01*
X164917380Y-102001889D02*
X163917380Y-101876889D01*
X163917380Y-101495937D01*
X163965000Y-101406651D01*
X164012619Y-101364985D01*
X164107857Y-101329270D01*
X164250714Y-101347127D01*
X164345952Y-101406651D01*
X164393571Y-101460223D01*
X164441190Y-101561413D01*
X164441190Y-101942366D01*
X164917380Y-100859032D02*
X164869761Y-100948318D01*
X164822142Y-100989985D01*
X164726904Y-101025699D01*
X164441190Y-100989985D01*
X164345952Y-100930461D01*
X164298333Y-100876889D01*
X164250714Y-100775699D01*
X164250714Y-100632842D01*
X164298333Y-100543556D01*
X164345952Y-100501889D01*
X164441190Y-100466175D01*
X164726904Y-100501889D01*
X164822142Y-100561413D01*
X164869761Y-100614985D01*
X164917380Y-100716175D01*
X164917380Y-100859032D01*
X164917380Y-100097127D02*
X163917380Y-99972127D01*
X164298333Y-100019747D02*
X164250714Y-99918556D01*
X164250714Y-99728080D01*
X164298333Y-99638794D01*
X164345952Y-99597127D01*
X164441190Y-99561413D01*
X164726904Y-99597127D01*
X164822142Y-99656651D01*
X164869761Y-99710223D01*
X164917380Y-99811413D01*
X164917380Y-100001889D01*
X164869761Y-100091175D01*
X164917380Y-99192366D02*
X164250714Y-99109032D01*
X163917380Y-99067366D02*
X163965000Y-99120937D01*
X164012619Y-99079270D01*
X163965000Y-99025699D01*
X163917380Y-99067366D01*
X164012619Y-99079270D01*
X164250714Y-98632842D02*
X164917380Y-98716175D01*
X164345952Y-98644747D02*
X164298333Y-98591175D01*
X164250714Y-98489985D01*
X164250714Y-98347127D01*
X164298333Y-98257842D01*
X164393571Y-98222127D01*
X164917380Y-98287604D01*
X164869761Y-97853080D02*
X164917380Y-97763794D01*
X164917380Y-97573318D01*
X164869761Y-97472127D01*
X164774523Y-97412604D01*
X164726904Y-97406651D01*
X164631666Y-97442366D01*
X164584047Y-97531651D01*
X164584047Y-97674508D01*
X164536428Y-97763794D01*
X164441190Y-97799508D01*
X164393571Y-97793556D01*
X164298333Y-97734032D01*
X164250714Y-97632842D01*
X164250714Y-97489985D01*
X164298333Y-97400699D01*
X164917380Y-96859032D02*
X164869761Y-96948318D01*
X164822142Y-96989985D01*
X164726904Y-97025699D01*
X164441190Y-96989985D01*
X164345952Y-96930461D01*
X164298333Y-96876889D01*
X164250714Y-96775699D01*
X164250714Y-96632842D01*
X164298333Y-96543556D01*
X164345952Y-96501889D01*
X164441190Y-96466175D01*
X164726904Y-96501889D01*
X164822142Y-96561413D01*
X164869761Y-96614985D01*
X164917380Y-96716175D01*
X164917380Y-96859032D01*
X164250714Y-96013794D02*
X164917380Y-96097127D01*
X164345952Y-96025699D02*
X164298333Y-95972127D01*
X164250714Y-95870937D01*
X164250714Y-95728080D01*
X164298333Y-95638794D01*
X164393571Y-95603080D01*
X164917380Y-95668556D01*
X164631666Y-152708080D02*
X164631666Y-152231889D01*
X164917380Y-152839032D02*
X163917380Y-152380699D01*
X164917380Y-152172366D01*
X163917380Y-151237842D02*
X163917380Y-151714032D01*
X164393571Y-151821175D01*
X164345952Y-151767604D01*
X164298333Y-151666413D01*
X164298333Y-151428318D01*
X164345952Y-151339032D01*
X164393571Y-151297366D01*
X164488809Y-151261651D01*
X164726904Y-151291413D01*
X164822142Y-151350937D01*
X164869761Y-151404508D01*
X164917380Y-151505699D01*
X164917380Y-151743794D01*
X164869761Y-151833080D01*
X164822142Y-151874747D01*
X163917380Y-150571175D02*
X163917380Y-150475937D01*
X163965000Y-150386651D01*
X164012619Y-150344985D01*
X164107857Y-150309270D01*
X164298333Y-150285461D01*
X164536428Y-150315223D01*
X164726904Y-150386651D01*
X164822142Y-150446175D01*
X164869761Y-150499747D01*
X164917380Y-150600937D01*
X164917380Y-150696175D01*
X164869761Y-150785461D01*
X164822142Y-150827127D01*
X164726904Y-150862842D01*
X164536428Y-150886651D01*
X164298333Y-150856889D01*
X164107857Y-150785461D01*
X164012619Y-150725937D01*
X163965000Y-150672366D01*
X163917380Y-150571175D01*
X163917380Y-149618794D02*
X163917380Y-149523556D01*
X163965000Y-149434270D01*
X164012619Y-149392604D01*
X164107857Y-149356889D01*
X164298333Y-149333080D01*
X164536428Y-149362842D01*
X164726904Y-149434270D01*
X164822142Y-149493794D01*
X164869761Y-149547366D01*
X164917380Y-149648556D01*
X164917380Y-149743794D01*
X164869761Y-149833080D01*
X164822142Y-149874747D01*
X164726904Y-149910461D01*
X164536428Y-149934270D01*
X164298333Y-149904508D01*
X164107857Y-149833080D01*
X164012619Y-149773556D01*
X163965000Y-149719985D01*
X163917380Y-149618794D01*
X164345952Y-148005699D02*
X164298333Y-148094985D01*
X164250714Y-148136651D01*
X164155476Y-148172366D01*
X164107857Y-148166413D01*
X164012619Y-148106889D01*
X163965000Y-148053318D01*
X163917380Y-147952127D01*
X163917380Y-147761651D01*
X163965000Y-147672366D01*
X164012619Y-147630699D01*
X164107857Y-147594985D01*
X164155476Y-147600937D01*
X164250714Y-147660461D01*
X164298333Y-147714032D01*
X164345952Y-147815223D01*
X164345952Y-148005699D01*
X164393571Y-148106889D01*
X164441190Y-148160461D01*
X164536428Y-148219985D01*
X164726904Y-148243794D01*
X164822142Y-148208080D01*
X164869761Y-148166413D01*
X164917380Y-148077127D01*
X164917380Y-147886651D01*
X164869761Y-147785461D01*
X164822142Y-147731889D01*
X164726904Y-147672366D01*
X164536428Y-147648556D01*
X164441190Y-147684270D01*
X164393571Y-147725937D01*
X164345952Y-147815223D01*
X164917380Y-147267604D02*
X163917380Y-147142604D01*
X164631666Y-146898556D01*
X163917380Y-146475937D01*
X164917380Y-146600937D01*
X164393571Y-145725937D02*
X164441190Y-145589032D01*
X164488809Y-145547366D01*
X164584047Y-145511651D01*
X164726904Y-145529508D01*
X164822142Y-145589032D01*
X164869761Y-145642604D01*
X164917380Y-145743794D01*
X164917380Y-146124747D01*
X163917380Y-145999747D01*
X163917380Y-145666413D01*
X163965000Y-145577127D01*
X164012619Y-145535461D01*
X164107857Y-145499747D01*
X164203095Y-145511651D01*
X164298333Y-145571175D01*
X164345952Y-145624747D01*
X164393571Y-145725937D01*
X164393571Y-146059270D01*
X164393571Y-143964032D02*
X164393571Y-144297366D01*
X164917380Y-144362842D02*
X163917380Y-144237842D01*
X163917380Y-143761651D01*
X164917380Y-143077127D02*
X164393571Y-143011651D01*
X164298333Y-143047366D01*
X164250714Y-143136651D01*
X164250714Y-143327127D01*
X164298333Y-143428318D01*
X164869761Y-143071175D02*
X164917380Y-143172366D01*
X164917380Y-143410461D01*
X164869761Y-143499747D01*
X164774523Y-143535461D01*
X164679285Y-143523556D01*
X164584047Y-143464032D01*
X164536428Y-143362842D01*
X164536428Y-143124747D01*
X164488809Y-143023556D01*
X164869761Y-142642604D02*
X164917380Y-142553318D01*
X164917380Y-142362842D01*
X164869761Y-142261651D01*
X164774523Y-142202127D01*
X164726904Y-142196175D01*
X164631666Y-142231889D01*
X164584047Y-142321175D01*
X164584047Y-142464032D01*
X164536428Y-142553318D01*
X164441190Y-142589032D01*
X164393571Y-142583080D01*
X164298333Y-142523556D01*
X164250714Y-142422366D01*
X164250714Y-142279508D01*
X164298333Y-142190223D01*
X164250714Y-141850937D02*
X164250714Y-141469985D01*
X163917380Y-141666413D02*
X164774523Y-141773556D01*
X164869761Y-141737842D01*
X164917380Y-141648556D01*
X164917380Y-141553318D01*
X164917380Y-140648556D02*
X164441190Y-140922366D01*
X164917380Y-141219985D02*
X163917380Y-141094985D01*
X163917380Y-140714032D01*
X163965000Y-140624747D01*
X164012619Y-140583080D01*
X164107857Y-140547366D01*
X164250714Y-140565223D01*
X164345952Y-140624747D01*
X164393571Y-140678318D01*
X164441190Y-140779508D01*
X164441190Y-141160461D01*
X164631666Y-140231889D02*
X164631666Y-139755699D01*
X164917380Y-140362842D02*
X163917380Y-139904508D01*
X164917380Y-139696175D01*
X164917380Y-139362842D02*
X163917380Y-139237842D01*
X164631666Y-138993794D01*
X163917380Y-138571175D01*
X164917380Y-138696175D01*
X164917380Y-136648556D02*
X164917380Y-136696175D01*
X164869761Y-136785461D01*
X164726904Y-136910461D01*
X164441190Y-137112842D01*
X164298333Y-137190223D01*
X164155476Y-137219985D01*
X164060238Y-137208080D01*
X163965000Y-137148556D01*
X163917380Y-137047366D01*
X163917380Y-136999747D01*
X163965000Y-136910461D01*
X164060238Y-136874747D01*
X164107857Y-136880699D01*
X164203095Y-136940223D01*
X164250714Y-136993794D01*
X164441190Y-137303318D01*
X164488809Y-137356889D01*
X164584047Y-137416413D01*
X164726904Y-137434270D01*
X164822142Y-137398556D01*
X164869761Y-137356889D01*
X164917380Y-137267604D01*
X164917380Y-137124747D01*
X164869761Y-137023556D01*
X164822142Y-136969985D01*
X164631666Y-136803318D01*
X164488809Y-136737842D01*
X164393571Y-136725937D01*
X164917380Y-134934270D02*
X164917380Y-135505699D01*
X164917380Y-135219985D02*
X163917380Y-135094985D01*
X164060238Y-135208080D01*
X164155476Y-135315223D01*
X164203095Y-135416413D01*
X164250714Y-133993794D02*
X164917380Y-134077127D01*
X163869761Y-134184270D02*
X164584047Y-134511651D01*
X164584047Y-133892604D01*
X164917380Y-133553318D02*
X163917380Y-133428318D01*
X164631666Y-133184270D01*
X163917380Y-132761651D01*
X164917380Y-132886651D01*
X164917380Y-132410461D02*
X163917380Y-132285461D01*
X164393571Y-132344985D02*
X164393571Y-131773556D01*
X164917380Y-131839032D02*
X163917380Y-131714032D01*
X164250714Y-131374747D02*
X164250714Y-130850937D01*
X164917380Y-131458080D01*
X164917380Y-130934270D01*
X164631666Y-129803318D02*
X164631666Y-129327127D01*
X164917380Y-129934270D02*
X163917380Y-129475937D01*
X164917380Y-129267604D01*
X164869761Y-128499747D02*
X164917380Y-128600937D01*
X164917380Y-128791413D01*
X164869761Y-128880699D01*
X164822142Y-128922366D01*
X164726904Y-128958080D01*
X164441190Y-128922366D01*
X164345952Y-128862842D01*
X164298333Y-128809270D01*
X164250714Y-128708080D01*
X164250714Y-128517604D01*
X164298333Y-128428318D01*
X164869761Y-127642604D02*
X164917380Y-127743794D01*
X164917380Y-127934270D01*
X164869761Y-128023556D01*
X164822142Y-128065223D01*
X164726904Y-128100937D01*
X164441190Y-128065223D01*
X164345952Y-128005699D01*
X164298333Y-127952127D01*
X164250714Y-127850937D01*
X164250714Y-127660461D01*
X164298333Y-127571175D01*
X164869761Y-126833080D02*
X164917380Y-126934270D01*
X164917380Y-127124747D01*
X164869761Y-127214032D01*
X164774523Y-127249747D01*
X164393571Y-127202127D01*
X164298333Y-127142604D01*
X164250714Y-127041413D01*
X164250714Y-126850937D01*
X164298333Y-126761651D01*
X164393571Y-126725937D01*
X164488809Y-126737842D01*
X164584047Y-127225937D01*
X164917380Y-126219985D02*
X164869761Y-126309270D01*
X164774523Y-126344985D01*
X163917380Y-126237842D01*
X164869761Y-125452127D02*
X164917380Y-125553318D01*
X164917380Y-125743794D01*
X164869761Y-125833080D01*
X164774523Y-125868794D01*
X164393571Y-125821175D01*
X164298333Y-125761651D01*
X164250714Y-125660461D01*
X164250714Y-125469985D01*
X164298333Y-125380699D01*
X164393571Y-125344985D01*
X164488809Y-125356889D01*
X164584047Y-125844985D01*
X164917380Y-124981889D02*
X164250714Y-124898556D01*
X164441190Y-124922366D02*
X164345952Y-124862842D01*
X164298333Y-124809270D01*
X164250714Y-124708080D01*
X164250714Y-124612842D01*
X164917380Y-123934270D02*
X164393571Y-123868794D01*
X164298333Y-123904508D01*
X164250714Y-123993794D01*
X164250714Y-124184270D01*
X164298333Y-124285461D01*
X164869761Y-123928318D02*
X164917380Y-124029508D01*
X164917380Y-124267604D01*
X164869761Y-124356889D01*
X164774523Y-124392604D01*
X164679285Y-124380699D01*
X164584047Y-124321175D01*
X164536428Y-124219985D01*
X164536428Y-123981889D01*
X164488809Y-123880699D01*
X164250714Y-123517604D02*
X164250714Y-123136651D01*
X163917380Y-123333080D02*
X164774523Y-123440223D01*
X164869761Y-123404508D01*
X164917380Y-123315223D01*
X164917380Y-123219985D01*
X164917380Y-122743794D02*
X164869761Y-122833080D01*
X164822142Y-122874747D01*
X164726904Y-122910461D01*
X164441190Y-122874747D01*
X164345952Y-122815223D01*
X164298333Y-122761651D01*
X164250714Y-122660461D01*
X164250714Y-122517604D01*
X164298333Y-122428318D01*
X164345952Y-122386651D01*
X164441190Y-122350937D01*
X164726904Y-122386651D01*
X164822142Y-122446175D01*
X164869761Y-122499747D01*
X164917380Y-122600937D01*
X164917380Y-122743794D01*
X164917380Y-121981889D02*
X164250714Y-121898556D01*
X164441190Y-121922366D02*
X164345952Y-121862842D01*
X164298333Y-121809270D01*
X164250714Y-121708080D01*
X164250714Y-121612842D01*
X164393571Y-120202127D02*
X164441190Y-120065223D01*
X164488809Y-120023556D01*
X164584047Y-119987842D01*
X164726904Y-120005699D01*
X164822142Y-120065223D01*
X164869761Y-120118794D01*
X164917380Y-120219985D01*
X164917380Y-120600937D01*
X163917380Y-120475937D01*
X163917380Y-120142604D01*
X163965000Y-120053318D01*
X164012619Y-120011651D01*
X164107857Y-119975937D01*
X164203095Y-119987842D01*
X164298333Y-120047366D01*
X164345952Y-120100937D01*
X164393571Y-120202127D01*
X164393571Y-120535461D01*
X164917380Y-119458080D02*
X164869761Y-119547366D01*
X164822142Y-119589032D01*
X164726904Y-119624747D01*
X164441190Y-119589032D01*
X164345952Y-119529508D01*
X164298333Y-119475937D01*
X164250714Y-119374747D01*
X164250714Y-119231889D01*
X164298333Y-119142604D01*
X164345952Y-119100937D01*
X164441190Y-119065223D01*
X164726904Y-119100937D01*
X164822142Y-119160461D01*
X164869761Y-119214032D01*
X164917380Y-119315223D01*
X164917380Y-119458080D01*
X164917380Y-118267604D02*
X164393571Y-118202127D01*
X164298333Y-118237842D01*
X164250714Y-118327127D01*
X164250714Y-118517604D01*
X164298333Y-118618794D01*
X164869761Y-118261651D02*
X164917380Y-118362842D01*
X164917380Y-118600937D01*
X164869761Y-118690223D01*
X164774523Y-118725937D01*
X164679285Y-118714032D01*
X164584047Y-118654508D01*
X164536428Y-118553318D01*
X164536428Y-118315223D01*
X164488809Y-118214032D01*
X164917380Y-117791413D02*
X164250714Y-117708080D01*
X164441190Y-117731889D02*
X164345952Y-117672366D01*
X164298333Y-117618794D01*
X164250714Y-117517604D01*
X164250714Y-117422366D01*
X164917380Y-116743794D02*
X163917380Y-116618794D01*
X164869761Y-116737842D02*
X164917380Y-116839032D01*
X164917380Y-117029508D01*
X164869761Y-117118794D01*
X164822142Y-117160461D01*
X164726904Y-117196175D01*
X164441190Y-117160461D01*
X164345952Y-117100937D01*
X164298333Y-117047366D01*
X164250714Y-116946175D01*
X164250714Y-116755699D01*
X164298333Y-116666413D01*
D13*
X153289000Y-42053000D02*
X160655000Y-42053000D01*
X160655000Y-42053000D02*
X160655000Y-68469000D01*
X160655000Y-68469000D02*
X153289000Y-68469000D01*
X153289000Y-68469000D02*
X153289000Y-42053000D01*
X153289000Y-97044000D02*
X153289000Y-70628000D01*
X160655000Y-97044000D02*
X153289000Y-97044000D01*
X160655000Y-70628000D02*
X160655000Y-97044000D01*
X153289000Y-70628000D02*
X160655000Y-70628000D01*
X153289000Y-125619000D02*
X153289000Y-99203000D01*
X160655000Y-125619000D02*
X153289000Y-125619000D01*
X160655000Y-99203000D02*
X160655000Y-125619000D01*
X153289000Y-99203000D02*
X160655000Y-99203000D01*
X134260000Y-104996064D02*
X134260000Y-103791936D01*
X132440000Y-104996064D02*
X132440000Y-103791936D01*
X103472064Y-35285000D02*
X102267936Y-35285000D01*
X103472064Y-37105000D02*
X102267936Y-37105000D01*
X131170000Y-49562936D02*
X131170000Y-50767064D01*
X132990000Y-49562936D02*
X132990000Y-50767064D01*
X130450000Y-86392936D02*
X130450000Y-87597064D01*
X128630000Y-86392936D02*
X128630000Y-87597064D01*
X137127064Y-96795000D02*
X135922936Y-96795000D01*
X137127064Y-94975000D02*
X135922936Y-94975000D01*
X148230000Y-88867064D02*
X148230000Y-87662936D01*
X146410000Y-88867064D02*
X146410000Y-87662936D01*
X139032064Y-79015000D02*
X137827936Y-79015000D01*
X139032064Y-77195000D02*
X137827936Y-77195000D01*
X150135000Y-43847936D02*
X150135000Y-45052064D01*
X148315000Y-43847936D02*
X148315000Y-45052064D01*
X148315000Y-50197936D02*
X148315000Y-51402064D01*
X150135000Y-50197936D02*
X150135000Y-51402064D01*
X147680000Y-66642064D02*
X147680000Y-65437936D01*
X149500000Y-66642064D02*
X149500000Y-65437936D01*
X147680000Y-72422936D02*
X147680000Y-73627064D01*
X149500000Y-72422936D02*
X149500000Y-73627064D01*
X149500000Y-78772936D02*
X149500000Y-79977064D01*
X147680000Y-78772936D02*
X147680000Y-79977064D01*
X149500000Y-95217064D02*
X149500000Y-94012936D01*
X147680000Y-95217064D02*
X147680000Y-94012936D01*
X149500000Y-100997936D02*
X149500000Y-102202064D01*
X147680000Y-100997936D02*
X147680000Y-102202064D01*
X147680000Y-107347936D02*
X147680000Y-108552064D01*
X149500000Y-107347936D02*
X149500000Y-108552064D01*
X147680000Y-123792064D02*
X147680000Y-122587936D01*
X149500000Y-123792064D02*
X149500000Y-122587936D01*
X149500000Y-135922936D02*
X149500000Y-137127064D01*
X147680000Y-135922936D02*
X147680000Y-137127064D01*
X145013000Y-42067564D02*
X145013000Y-40863436D01*
X146833000Y-42067564D02*
X146833000Y-40863436D01*
X144293000Y-42067564D02*
X144293000Y-40863436D01*
X142473000Y-42067564D02*
X142473000Y-40863436D01*
X137393000Y-42067564D02*
X137393000Y-40863436D01*
X139213000Y-42067564D02*
X139213000Y-40863436D01*
X131766000Y-36198500D02*
X131766000Y-38858500D01*
X144526000Y-36198500D02*
X131766000Y-36198500D01*
X144526000Y-38858500D02*
X131766000Y-38858500D01*
X144526000Y-36198500D02*
X144526000Y-38858500D01*
X145796000Y-36198500D02*
X147126000Y-36198500D01*
X147126000Y-36198500D02*
X147126000Y-37528500D01*
X149500000Y-129572936D02*
X149500000Y-130777064D01*
X147680000Y-129572936D02*
X147680000Y-130777064D01*
X140395000Y-154365000D02*
X140395000Y-151705000D01*
X135255000Y-154365000D02*
X140395000Y-154365000D01*
X135255000Y-151705000D02*
X140395000Y-151705000D01*
X135255000Y-154365000D02*
X135255000Y-151705000D01*
X133985000Y-154365000D02*
X132655000Y-154365000D01*
X132655000Y-154365000D02*
X132655000Y-153035000D01*
X112395000Y-147945000D02*
X114345000Y-147945000D01*
X112395000Y-147945000D02*
X110445000Y-147945000D01*
X112395000Y-139075000D02*
X114345000Y-139075000D01*
X112395000Y-139075000D02*
X108945000Y-139075000D01*
X112395000Y-130800000D02*
X114345000Y-130800000D01*
X112395000Y-130800000D02*
X110445000Y-130800000D01*
X112395000Y-121930000D02*
X114345000Y-121930000D01*
X112395000Y-121930000D02*
X108945000Y-121930000D01*
X112395000Y-118735000D02*
X114345000Y-118735000D01*
X112395000Y-118735000D02*
X110445000Y-118735000D01*
X112395000Y-109865000D02*
X114345000Y-109865000D01*
X112395000Y-109865000D02*
X108945000Y-109865000D01*
X112395000Y-106660000D02*
X114345000Y-106660000D01*
X112395000Y-106660000D02*
X110445000Y-106660000D01*
X112395000Y-96540000D02*
X114345000Y-96540000D01*
X112395000Y-96540000D02*
X108945000Y-96540000D01*
X112395000Y-84465000D02*
X108945000Y-84465000D01*
X112395000Y-84465000D02*
X114345000Y-84465000D01*
X112395000Y-93335000D02*
X110445000Y-93335000D01*
X112395000Y-93335000D02*
X114345000Y-93335000D01*
X136525000Y-140980000D02*
X133075000Y-140980000D01*
X136525000Y-140980000D02*
X138475000Y-140980000D01*
X136525000Y-149850000D02*
X134575000Y-149850000D01*
X136525000Y-149850000D02*
X138475000Y-149850000D01*
X136525000Y-127655000D02*
X133075000Y-127655000D01*
X136525000Y-127655000D02*
X138475000Y-127655000D01*
X136525000Y-137775000D02*
X134575000Y-137775000D01*
X136525000Y-137775000D02*
X138475000Y-137775000D01*
X136525000Y-124440000D02*
X138475000Y-124440000D01*
X136525000Y-124440000D02*
X134575000Y-124440000D01*
X136525000Y-114320000D02*
X138475000Y-114320000D01*
X136525000Y-114320000D02*
X133075000Y-114320000D01*
X149500000Y-151162936D02*
X149500000Y-152367064D01*
X147680000Y-151162936D02*
X147680000Y-152367064D01*
X105135000Y-135287936D02*
X105135000Y-136492064D01*
X106955000Y-135287936D02*
X106955000Y-136492064D01*
X105135000Y-147287064D02*
X105135000Y-146082936D01*
X106955000Y-147287064D02*
X106955000Y-146082936D01*
X119655000Y-123222936D02*
X119655000Y-124427064D01*
X117835000Y-123222936D02*
X117835000Y-124427064D01*
X117835000Y-111157936D02*
X117835000Y-112362064D01*
X119655000Y-111157936D02*
X119655000Y-112362064D01*
X117835000Y-98457936D02*
X117835000Y-99662064D01*
X119655000Y-98457936D02*
X119655000Y-99662064D01*
X119655000Y-85757936D02*
X119655000Y-86962064D01*
X117835000Y-85757936D02*
X117835000Y-86962064D01*
X141965000Y-142907936D02*
X141965000Y-144112064D01*
X143785000Y-142907936D02*
X143785000Y-144112064D01*
X143785000Y-129572936D02*
X143785000Y-130777064D01*
X141965000Y-129572936D02*
X141965000Y-130777064D01*
X141965000Y-116237936D02*
X141965000Y-117442064D01*
X143785000Y-116237936D02*
X143785000Y-117442064D01*
X145754000Y-50197936D02*
X145754000Y-51402064D01*
X143934000Y-50197936D02*
X143934000Y-51402064D01*
X143934000Y-62453436D02*
X143934000Y-63657564D01*
X145754000Y-62453436D02*
X145754000Y-63657564D01*
X106955000Y-140367936D02*
X106955000Y-141572064D01*
X105135000Y-140367936D02*
X105135000Y-141572064D01*
X119655000Y-145447936D02*
X119655000Y-146652064D01*
X117835000Y-145447936D02*
X117835000Y-146652064D01*
X112997064Y-134980000D02*
X111792936Y-134980000D01*
X112997064Y-136800000D02*
X111792936Y-136800000D01*
X139128000Y-60535500D02*
X135678000Y-60535500D01*
X139128000Y-60535500D02*
X141078000Y-60535500D01*
X139128000Y-70655500D02*
X137178000Y-70655500D01*
X139128000Y-70655500D02*
X141078000Y-70655500D01*
X153289000Y-154194000D02*
X153289000Y-127778000D01*
X160655000Y-154194000D02*
X153289000Y-154194000D01*
X160655000Y-127778000D02*
X160655000Y-154194000D01*
X153289000Y-127778000D02*
X160655000Y-127778000D01*
X100965000Y-72390000D02*
X123825000Y-72390000D01*
X123825000Y-72390000D02*
X123825000Y-153670000D01*
X123825000Y-153670000D02*
X100965000Y-153670000D01*
X100965000Y-153670000D02*
X100965000Y-72390000D01*
X113935000Y-37715000D02*
X100310000Y-37715000D01*
X100310000Y-37715000D02*
X99310000Y-38715000D01*
X99310000Y-38715000D02*
X99310000Y-68965000D01*
X99310000Y-68965000D02*
X130560000Y-68965000D01*
X130560000Y-68965000D02*
X130560000Y-37715000D01*
X130560000Y-37715000D02*
X115935000Y-37715000D01*
X139128000Y-58400000D02*
X141078000Y-58400000D01*
X139128000Y-58400000D02*
X137178000Y-58400000D01*
X139128000Y-48280000D02*
X141078000Y-48280000D01*
X139128000Y-48280000D02*
X135678000Y-48280000D01*
D11*
X133255000Y-81820000D02*
X133255000Y-82395000D01*
X143605000Y-81820000D02*
X143605000Y-82495000D01*
X143605000Y-92170000D02*
X143605000Y-91495000D01*
X133255000Y-92170000D02*
X133255000Y-91495000D01*
X133255000Y-81820000D02*
X133930000Y-81820000D01*
X133255000Y-92170000D02*
X133930000Y-92170000D01*
X143605000Y-92170000D02*
X142930000Y-92170000D01*
X143605000Y-81820000D02*
X142930000Y-81820000D01*
X133255000Y-82395000D02*
X131980000Y-82395000D01*
D13*
X139065000Y-106954000D02*
X141015000Y-106954000D01*
X139065000Y-106954000D02*
X137115000Y-106954000D01*
X139065000Y-101834000D02*
X141015000Y-101834000D01*
X139065000Y-101834000D02*
X135615000Y-101834000D01*
D11*
X156591095Y-40727380D02*
X156591095Y-41536904D01*
X156638714Y-41632142D01*
X156686333Y-41679761D01*
X156781571Y-41727380D01*
X156972047Y-41727380D01*
X157067285Y-41679761D01*
X157114904Y-41632142D01*
X157162523Y-41536904D01*
X157162523Y-40727380D01*
X157543476Y-40727380D02*
X158210142Y-40727380D01*
X157781571Y-41727380D01*
X156591095Y-69302380D02*
X156591095Y-70111904D01*
X156638714Y-70207142D01*
X156686333Y-70254761D01*
X156781571Y-70302380D01*
X156972047Y-70302380D01*
X157067285Y-70254761D01*
X157114904Y-70207142D01*
X157162523Y-70111904D01*
X157162523Y-69302380D01*
X157781571Y-69730952D02*
X157686333Y-69683333D01*
X157638714Y-69635714D01*
X157591095Y-69540476D01*
X157591095Y-69492857D01*
X157638714Y-69397619D01*
X157686333Y-69350000D01*
X157781571Y-69302380D01*
X157972047Y-69302380D01*
X158067285Y-69350000D01*
X158114904Y-69397619D01*
X158162523Y-69492857D01*
X158162523Y-69540476D01*
X158114904Y-69635714D01*
X158067285Y-69683333D01*
X157972047Y-69730952D01*
X157781571Y-69730952D01*
X157686333Y-69778571D01*
X157638714Y-69826190D01*
X157591095Y-69921428D01*
X157591095Y-70111904D01*
X157638714Y-70207142D01*
X157686333Y-70254761D01*
X157781571Y-70302380D01*
X157972047Y-70302380D01*
X158067285Y-70254761D01*
X158114904Y-70207142D01*
X158162523Y-70111904D01*
X158162523Y-69921428D01*
X158114904Y-69826190D01*
X158067285Y-69778571D01*
X157972047Y-69730952D01*
X156591095Y-97877380D02*
X156591095Y-98686904D01*
X156638714Y-98782142D01*
X156686333Y-98829761D01*
X156781571Y-98877380D01*
X156972047Y-98877380D01*
X157067285Y-98829761D01*
X157114904Y-98782142D01*
X157162523Y-98686904D01*
X157162523Y-97877380D01*
X157686333Y-98877380D02*
X157876809Y-98877380D01*
X157972047Y-98829761D01*
X158019666Y-98782142D01*
X158114904Y-98639285D01*
X158162523Y-98448809D01*
X158162523Y-98067857D01*
X158114904Y-97972619D01*
X158067285Y-97925000D01*
X157972047Y-97877380D01*
X157781571Y-97877380D01*
X157686333Y-97925000D01*
X157638714Y-97972619D01*
X157591095Y-98067857D01*
X157591095Y-98305952D01*
X157638714Y-98401190D01*
X157686333Y-98448809D01*
X157781571Y-98496428D01*
X157972047Y-98496428D01*
X158067285Y-98448809D01*
X158114904Y-98401190D01*
X158162523Y-98305952D01*
D12*
X133250000Y-104608285D02*
X133221428Y-104636857D01*
X133135714Y-104665428D01*
X133078571Y-104665428D01*
X132992857Y-104636857D01*
X132935714Y-104579714D01*
X132907142Y-104522571D01*
X132878571Y-104408285D01*
X132878571Y-104322571D01*
X132907142Y-104208285D01*
X132935714Y-104151142D01*
X132992857Y-104094000D01*
X133078571Y-104065428D01*
X133135714Y-104065428D01*
X133221428Y-104094000D01*
X133250000Y-104122571D01*
X133821428Y-104665428D02*
X133478571Y-104665428D01*
X133650000Y-104665428D02*
X133650000Y-104065428D01*
X133592857Y-104151142D01*
X133535714Y-104208285D01*
X133478571Y-104236857D01*
X103084285Y-36295000D02*
X103112857Y-36323571D01*
X103141428Y-36409285D01*
X103141428Y-36466428D01*
X103112857Y-36552142D01*
X103055714Y-36609285D01*
X102998571Y-36637857D01*
X102884285Y-36666428D01*
X102798571Y-36666428D01*
X102684285Y-36637857D01*
X102627142Y-36609285D01*
X102570000Y-36552142D01*
X102541428Y-36466428D01*
X102541428Y-36409285D01*
X102570000Y-36323571D01*
X102598571Y-36295000D01*
X102598571Y-36066428D02*
X102570000Y-36037857D01*
X102541428Y-35980714D01*
X102541428Y-35837857D01*
X102570000Y-35780714D01*
X102598571Y-35752142D01*
X102655714Y-35723571D01*
X102712857Y-35723571D01*
X102798571Y-35752142D01*
X103141428Y-36095000D01*
X103141428Y-35723571D01*
X131980000Y-50379285D02*
X131951428Y-50407857D01*
X131865714Y-50436428D01*
X131808571Y-50436428D01*
X131722857Y-50407857D01*
X131665714Y-50350714D01*
X131637142Y-50293571D01*
X131608571Y-50179285D01*
X131608571Y-50093571D01*
X131637142Y-49979285D01*
X131665714Y-49922142D01*
X131722857Y-49865000D01*
X131808571Y-49836428D01*
X131865714Y-49836428D01*
X131951428Y-49865000D01*
X131980000Y-49893571D01*
X132180000Y-49836428D02*
X132551428Y-49836428D01*
X132351428Y-50065000D01*
X132437142Y-50065000D01*
X132494285Y-50093571D01*
X132522857Y-50122142D01*
X132551428Y-50179285D01*
X132551428Y-50322142D01*
X132522857Y-50379285D01*
X132494285Y-50407857D01*
X132437142Y-50436428D01*
X132265714Y-50436428D01*
X132208571Y-50407857D01*
X132180000Y-50379285D01*
X129440000Y-87209285D02*
X129411428Y-87237857D01*
X129325714Y-87266428D01*
X129268571Y-87266428D01*
X129182857Y-87237857D01*
X129125714Y-87180714D01*
X129097142Y-87123571D01*
X129068571Y-87009285D01*
X129068571Y-86923571D01*
X129097142Y-86809285D01*
X129125714Y-86752142D01*
X129182857Y-86695000D01*
X129268571Y-86666428D01*
X129325714Y-86666428D01*
X129411428Y-86695000D01*
X129440000Y-86723571D01*
X129954285Y-86866428D02*
X129954285Y-87266428D01*
X129811428Y-86637857D02*
X129668571Y-87066428D01*
X130040000Y-87066428D01*
X136675785Y-95985000D02*
X136704357Y-96013571D01*
X136732928Y-96099285D01*
X136732928Y-96156428D01*
X136704357Y-96242142D01*
X136647214Y-96299285D01*
X136590071Y-96327857D01*
X136475785Y-96356428D01*
X136390071Y-96356428D01*
X136275785Y-96327857D01*
X136218642Y-96299285D01*
X136161500Y-96242142D01*
X136132928Y-96156428D01*
X136132928Y-96099285D01*
X136161500Y-96013571D01*
X136190071Y-95985000D01*
X136132928Y-95442142D02*
X136132928Y-95727857D01*
X136418642Y-95756428D01*
X136390071Y-95727857D01*
X136361500Y-95670714D01*
X136361500Y-95527857D01*
X136390071Y-95470714D01*
X136418642Y-95442142D01*
X136475785Y-95413571D01*
X136618642Y-95413571D01*
X136675785Y-95442142D01*
X136704357Y-95470714D01*
X136732928Y-95527857D01*
X136732928Y-95670714D01*
X136704357Y-95727857D01*
X136675785Y-95756428D01*
X147220000Y-88415785D02*
X147191428Y-88444357D01*
X147105714Y-88472928D01*
X147048571Y-88472928D01*
X146962857Y-88444357D01*
X146905714Y-88387214D01*
X146877142Y-88330071D01*
X146848571Y-88215785D01*
X146848571Y-88130071D01*
X146877142Y-88015785D01*
X146905714Y-87958642D01*
X146962857Y-87901500D01*
X147048571Y-87872928D01*
X147105714Y-87872928D01*
X147191428Y-87901500D01*
X147220000Y-87930071D01*
X147734285Y-87872928D02*
X147620000Y-87872928D01*
X147562857Y-87901500D01*
X147534285Y-87930071D01*
X147477142Y-88015785D01*
X147448571Y-88130071D01*
X147448571Y-88358642D01*
X147477142Y-88415785D01*
X147505714Y-88444357D01*
X147562857Y-88472928D01*
X147677142Y-88472928D01*
X147734285Y-88444357D01*
X147762857Y-88415785D01*
X147791428Y-88358642D01*
X147791428Y-88215785D01*
X147762857Y-88158642D01*
X147734285Y-88130071D01*
X147677142Y-88101500D01*
X147562857Y-88101500D01*
X147505714Y-88130071D01*
X147477142Y-88158642D01*
X147448571Y-88215785D01*
X138580785Y-78205000D02*
X138609357Y-78233571D01*
X138637928Y-78319285D01*
X138637928Y-78376428D01*
X138609357Y-78462142D01*
X138552214Y-78519285D01*
X138495071Y-78547857D01*
X138380785Y-78576428D01*
X138295071Y-78576428D01*
X138180785Y-78547857D01*
X138123642Y-78519285D01*
X138066500Y-78462142D01*
X138037928Y-78376428D01*
X138037928Y-78319285D01*
X138066500Y-78233571D01*
X138095071Y-78205000D01*
X138037928Y-78005000D02*
X138037928Y-77605000D01*
X138637928Y-77862142D01*
X149125000Y-44664285D02*
X149096428Y-44692857D01*
X149010714Y-44721428D01*
X148953571Y-44721428D01*
X148867857Y-44692857D01*
X148810714Y-44635714D01*
X148782142Y-44578571D01*
X148753571Y-44464285D01*
X148753571Y-44378571D01*
X148782142Y-44264285D01*
X148810714Y-44207142D01*
X148867857Y-44150000D01*
X148953571Y-44121428D01*
X149010714Y-44121428D01*
X149096428Y-44150000D01*
X149125000Y-44178571D01*
X149467857Y-44378571D02*
X149410714Y-44350000D01*
X149382142Y-44321428D01*
X149353571Y-44264285D01*
X149353571Y-44235714D01*
X149382142Y-44178571D01*
X149410714Y-44150000D01*
X149467857Y-44121428D01*
X149582142Y-44121428D01*
X149639285Y-44150000D01*
X149667857Y-44178571D01*
X149696428Y-44235714D01*
X149696428Y-44264285D01*
X149667857Y-44321428D01*
X149639285Y-44350000D01*
X149582142Y-44378571D01*
X149467857Y-44378571D01*
X149410714Y-44407142D01*
X149382142Y-44435714D01*
X149353571Y-44492857D01*
X149353571Y-44607142D01*
X149382142Y-44664285D01*
X149410714Y-44692857D01*
X149467857Y-44721428D01*
X149582142Y-44721428D01*
X149639285Y-44692857D01*
X149667857Y-44664285D01*
X149696428Y-44607142D01*
X149696428Y-44492857D01*
X149667857Y-44435714D01*
X149639285Y-44407142D01*
X149582142Y-44378571D01*
X149125000Y-51014285D02*
X149096428Y-51042857D01*
X149010714Y-51071428D01*
X148953571Y-51071428D01*
X148867857Y-51042857D01*
X148810714Y-50985714D01*
X148782142Y-50928571D01*
X148753571Y-50814285D01*
X148753571Y-50728571D01*
X148782142Y-50614285D01*
X148810714Y-50557142D01*
X148867857Y-50500000D01*
X148953571Y-50471428D01*
X149010714Y-50471428D01*
X149096428Y-50500000D01*
X149125000Y-50528571D01*
X149410714Y-51071428D02*
X149525000Y-51071428D01*
X149582142Y-51042857D01*
X149610714Y-51014285D01*
X149667857Y-50928571D01*
X149696428Y-50814285D01*
X149696428Y-50585714D01*
X149667857Y-50528571D01*
X149639285Y-50500000D01*
X149582142Y-50471428D01*
X149467857Y-50471428D01*
X149410714Y-50500000D01*
X149382142Y-50528571D01*
X149353571Y-50585714D01*
X149353571Y-50728571D01*
X149382142Y-50785714D01*
X149410714Y-50814285D01*
X149467857Y-50842857D01*
X149582142Y-50842857D01*
X149639285Y-50814285D01*
X149667857Y-50785714D01*
X149696428Y-50728571D01*
X148204285Y-66254285D02*
X148175714Y-66282857D01*
X148090000Y-66311428D01*
X148032857Y-66311428D01*
X147947142Y-66282857D01*
X147890000Y-66225714D01*
X147861428Y-66168571D01*
X147832857Y-66054285D01*
X147832857Y-65968571D01*
X147861428Y-65854285D01*
X147890000Y-65797142D01*
X147947142Y-65740000D01*
X148032857Y-65711428D01*
X148090000Y-65711428D01*
X148175714Y-65740000D01*
X148204285Y-65768571D01*
X148775714Y-66311428D02*
X148432857Y-66311428D01*
X148604285Y-66311428D02*
X148604285Y-65711428D01*
X148547142Y-65797142D01*
X148490000Y-65854285D01*
X148432857Y-65882857D01*
X149147142Y-65711428D02*
X149204285Y-65711428D01*
X149261428Y-65740000D01*
X149290000Y-65768571D01*
X149318571Y-65825714D01*
X149347142Y-65940000D01*
X149347142Y-66082857D01*
X149318571Y-66197142D01*
X149290000Y-66254285D01*
X149261428Y-66282857D01*
X149204285Y-66311428D01*
X149147142Y-66311428D01*
X149090000Y-66282857D01*
X149061428Y-66254285D01*
X149032857Y-66197142D01*
X149004285Y-66082857D01*
X149004285Y-65940000D01*
X149032857Y-65825714D01*
X149061428Y-65768571D01*
X149090000Y-65740000D01*
X149147142Y-65711428D01*
X148204285Y-73239285D02*
X148175714Y-73267857D01*
X148090000Y-73296428D01*
X148032857Y-73296428D01*
X147947142Y-73267857D01*
X147890000Y-73210714D01*
X147861428Y-73153571D01*
X147832857Y-73039285D01*
X147832857Y-72953571D01*
X147861428Y-72839285D01*
X147890000Y-72782142D01*
X147947142Y-72725000D01*
X148032857Y-72696428D01*
X148090000Y-72696428D01*
X148175714Y-72725000D01*
X148204285Y-72753571D01*
X148775714Y-73296428D02*
X148432857Y-73296428D01*
X148604285Y-73296428D02*
X148604285Y-72696428D01*
X148547142Y-72782142D01*
X148490000Y-72839285D01*
X148432857Y-72867857D01*
X149347142Y-73296428D02*
X149004285Y-73296428D01*
X149175714Y-73296428D02*
X149175714Y-72696428D01*
X149118571Y-72782142D01*
X149061428Y-72839285D01*
X149004285Y-72867857D01*
X148204285Y-79589285D02*
X148175714Y-79617857D01*
X148090000Y-79646428D01*
X148032857Y-79646428D01*
X147947142Y-79617857D01*
X147890000Y-79560714D01*
X147861428Y-79503571D01*
X147832857Y-79389285D01*
X147832857Y-79303571D01*
X147861428Y-79189285D01*
X147890000Y-79132142D01*
X147947142Y-79075000D01*
X148032857Y-79046428D01*
X148090000Y-79046428D01*
X148175714Y-79075000D01*
X148204285Y-79103571D01*
X148775714Y-79646428D02*
X148432857Y-79646428D01*
X148604285Y-79646428D02*
X148604285Y-79046428D01*
X148547142Y-79132142D01*
X148490000Y-79189285D01*
X148432857Y-79217857D01*
X149004285Y-79103571D02*
X149032857Y-79075000D01*
X149090000Y-79046428D01*
X149232857Y-79046428D01*
X149290000Y-79075000D01*
X149318571Y-79103571D01*
X149347142Y-79160714D01*
X149347142Y-79217857D01*
X149318571Y-79303571D01*
X148975714Y-79646428D01*
X149347142Y-79646428D01*
X148204285Y-94829285D02*
X148175714Y-94857857D01*
X148090000Y-94886428D01*
X148032857Y-94886428D01*
X147947142Y-94857857D01*
X147890000Y-94800714D01*
X147861428Y-94743571D01*
X147832857Y-94629285D01*
X147832857Y-94543571D01*
X147861428Y-94429285D01*
X147890000Y-94372142D01*
X147947142Y-94315000D01*
X148032857Y-94286428D01*
X148090000Y-94286428D01*
X148175714Y-94315000D01*
X148204285Y-94343571D01*
X148775714Y-94886428D02*
X148432857Y-94886428D01*
X148604285Y-94886428D02*
X148604285Y-94286428D01*
X148547142Y-94372142D01*
X148490000Y-94429285D01*
X148432857Y-94457857D01*
X148975714Y-94286428D02*
X149347142Y-94286428D01*
X149147142Y-94515000D01*
X149232857Y-94515000D01*
X149290000Y-94543571D01*
X149318571Y-94572142D01*
X149347142Y-94629285D01*
X149347142Y-94772142D01*
X149318571Y-94829285D01*
X149290000Y-94857857D01*
X149232857Y-94886428D01*
X149061428Y-94886428D01*
X149004285Y-94857857D01*
X148975714Y-94829285D01*
X148204285Y-101814285D02*
X148175714Y-101842857D01*
X148090000Y-101871428D01*
X148032857Y-101871428D01*
X147947142Y-101842857D01*
X147890000Y-101785714D01*
X147861428Y-101728571D01*
X147832857Y-101614285D01*
X147832857Y-101528571D01*
X147861428Y-101414285D01*
X147890000Y-101357142D01*
X147947142Y-101300000D01*
X148032857Y-101271428D01*
X148090000Y-101271428D01*
X148175714Y-101300000D01*
X148204285Y-101328571D01*
X148775714Y-101871428D02*
X148432857Y-101871428D01*
X148604285Y-101871428D02*
X148604285Y-101271428D01*
X148547142Y-101357142D01*
X148490000Y-101414285D01*
X148432857Y-101442857D01*
X149290000Y-101471428D02*
X149290000Y-101871428D01*
X149147142Y-101242857D02*
X149004285Y-101671428D01*
X149375714Y-101671428D01*
X148204285Y-108164285D02*
X148175714Y-108192857D01*
X148090000Y-108221428D01*
X148032857Y-108221428D01*
X147947142Y-108192857D01*
X147890000Y-108135714D01*
X147861428Y-108078571D01*
X147832857Y-107964285D01*
X147832857Y-107878571D01*
X147861428Y-107764285D01*
X147890000Y-107707142D01*
X147947142Y-107650000D01*
X148032857Y-107621428D01*
X148090000Y-107621428D01*
X148175714Y-107650000D01*
X148204285Y-107678571D01*
X148775714Y-108221428D02*
X148432857Y-108221428D01*
X148604285Y-108221428D02*
X148604285Y-107621428D01*
X148547142Y-107707142D01*
X148490000Y-107764285D01*
X148432857Y-107792857D01*
X149318571Y-107621428D02*
X149032857Y-107621428D01*
X149004285Y-107907142D01*
X149032857Y-107878571D01*
X149090000Y-107850000D01*
X149232857Y-107850000D01*
X149290000Y-107878571D01*
X149318571Y-107907142D01*
X149347142Y-107964285D01*
X149347142Y-108107142D01*
X149318571Y-108164285D01*
X149290000Y-108192857D01*
X149232857Y-108221428D01*
X149090000Y-108221428D01*
X149032857Y-108192857D01*
X149004285Y-108164285D01*
X148204285Y-123404285D02*
X148175714Y-123432857D01*
X148090000Y-123461428D01*
X148032857Y-123461428D01*
X147947142Y-123432857D01*
X147890000Y-123375714D01*
X147861428Y-123318571D01*
X147832857Y-123204285D01*
X147832857Y-123118571D01*
X147861428Y-123004285D01*
X147890000Y-122947142D01*
X147947142Y-122890000D01*
X148032857Y-122861428D01*
X148090000Y-122861428D01*
X148175714Y-122890000D01*
X148204285Y-122918571D01*
X148775714Y-123461428D02*
X148432857Y-123461428D01*
X148604285Y-123461428D02*
X148604285Y-122861428D01*
X148547142Y-122947142D01*
X148490000Y-123004285D01*
X148432857Y-123032857D01*
X149290000Y-122861428D02*
X149175714Y-122861428D01*
X149118571Y-122890000D01*
X149090000Y-122918571D01*
X149032857Y-123004285D01*
X149004285Y-123118571D01*
X149004285Y-123347142D01*
X149032857Y-123404285D01*
X149061428Y-123432857D01*
X149118571Y-123461428D01*
X149232857Y-123461428D01*
X149290000Y-123432857D01*
X149318571Y-123404285D01*
X149347142Y-123347142D01*
X149347142Y-123204285D01*
X149318571Y-123147142D01*
X149290000Y-123118571D01*
X149232857Y-123090000D01*
X149118571Y-123090000D01*
X149061428Y-123118571D01*
X149032857Y-123147142D01*
X149004285Y-123204285D01*
X148204285Y-136739285D02*
X148175714Y-136767857D01*
X148090000Y-136796428D01*
X148032857Y-136796428D01*
X147947142Y-136767857D01*
X147890000Y-136710714D01*
X147861428Y-136653571D01*
X147832857Y-136539285D01*
X147832857Y-136453571D01*
X147861428Y-136339285D01*
X147890000Y-136282142D01*
X147947142Y-136225000D01*
X148032857Y-136196428D01*
X148090000Y-136196428D01*
X148175714Y-136225000D01*
X148204285Y-136253571D01*
X148775714Y-136796428D02*
X148432857Y-136796428D01*
X148604285Y-136796428D02*
X148604285Y-136196428D01*
X148547142Y-136282142D01*
X148490000Y-136339285D01*
X148432857Y-136367857D01*
X149118571Y-136453571D02*
X149061428Y-136425000D01*
X149032857Y-136396428D01*
X149004285Y-136339285D01*
X149004285Y-136310714D01*
X149032857Y-136253571D01*
X149061428Y-136225000D01*
X149118571Y-136196428D01*
X149232857Y-136196428D01*
X149290000Y-136225000D01*
X149318571Y-136253571D01*
X149347142Y-136310714D01*
X149347142Y-136339285D01*
X149318571Y-136396428D01*
X149290000Y-136425000D01*
X149232857Y-136453571D01*
X149118571Y-136453571D01*
X149061428Y-136482142D01*
X149032857Y-136510714D01*
X149004285Y-136567857D01*
X149004285Y-136682142D01*
X149032857Y-136739285D01*
X149061428Y-136767857D01*
X149118571Y-136796428D01*
X149232857Y-136796428D01*
X149290000Y-136767857D01*
X149318571Y-136739285D01*
X149347142Y-136682142D01*
X149347142Y-136567857D01*
X149318571Y-136510714D01*
X149290000Y-136482142D01*
X149232857Y-136453571D01*
X145823000Y-41736928D02*
X145623000Y-41451214D01*
X145480142Y-41736928D02*
X145480142Y-41136928D01*
X145708714Y-41136928D01*
X145765857Y-41165500D01*
X145794428Y-41194071D01*
X145823000Y-41251214D01*
X145823000Y-41336928D01*
X145794428Y-41394071D01*
X145765857Y-41422642D01*
X145708714Y-41451214D01*
X145480142Y-41451214D01*
X146394428Y-41736928D02*
X146051571Y-41736928D01*
X146223000Y-41736928D02*
X146223000Y-41136928D01*
X146165857Y-41222642D01*
X146108714Y-41279785D01*
X146051571Y-41308357D01*
X143283000Y-41736928D02*
X143083000Y-41451214D01*
X142940142Y-41736928D02*
X142940142Y-41136928D01*
X143168714Y-41136928D01*
X143225857Y-41165500D01*
X143254428Y-41194071D01*
X143283000Y-41251214D01*
X143283000Y-41336928D01*
X143254428Y-41394071D01*
X143225857Y-41422642D01*
X143168714Y-41451214D01*
X142940142Y-41451214D01*
X143511571Y-41194071D02*
X143540142Y-41165500D01*
X143597285Y-41136928D01*
X143740142Y-41136928D01*
X143797285Y-41165500D01*
X143825857Y-41194071D01*
X143854428Y-41251214D01*
X143854428Y-41308357D01*
X143825857Y-41394071D01*
X143483000Y-41736928D01*
X143854428Y-41736928D01*
X138203000Y-41736928D02*
X138003000Y-41451214D01*
X137860142Y-41736928D02*
X137860142Y-41136928D01*
X138088714Y-41136928D01*
X138145857Y-41165500D01*
X138174428Y-41194071D01*
X138203000Y-41251214D01*
X138203000Y-41336928D01*
X138174428Y-41394071D01*
X138145857Y-41422642D01*
X138088714Y-41451214D01*
X137860142Y-41451214D01*
X138403000Y-41136928D02*
X138774428Y-41136928D01*
X138574428Y-41365500D01*
X138660142Y-41365500D01*
X138717285Y-41394071D01*
X138745857Y-41422642D01*
X138774428Y-41479785D01*
X138774428Y-41622642D01*
X138745857Y-41679785D01*
X138717285Y-41708357D01*
X138660142Y-41736928D01*
X138488714Y-41736928D01*
X138431571Y-41708357D01*
X138403000Y-41679785D01*
D11*
X147578380Y-37861833D02*
X148292666Y-37861833D01*
X148435523Y-37909452D01*
X148530761Y-38004690D01*
X148578380Y-38147547D01*
X148578380Y-38242785D01*
X148578380Y-36861833D02*
X148578380Y-37433261D01*
X148578380Y-37147547D02*
X147578380Y-37147547D01*
X147721238Y-37242785D01*
X147816476Y-37338023D01*
X147864095Y-37433261D01*
D12*
X148204285Y-130389285D02*
X148175714Y-130417857D01*
X148090000Y-130446428D01*
X148032857Y-130446428D01*
X147947142Y-130417857D01*
X147890000Y-130360714D01*
X147861428Y-130303571D01*
X147832857Y-130189285D01*
X147832857Y-130103571D01*
X147861428Y-129989285D01*
X147890000Y-129932142D01*
X147947142Y-129875000D01*
X148032857Y-129846428D01*
X148090000Y-129846428D01*
X148175714Y-129875000D01*
X148204285Y-129903571D01*
X148775714Y-130446428D02*
X148432857Y-130446428D01*
X148604285Y-130446428D02*
X148604285Y-129846428D01*
X148547142Y-129932142D01*
X148490000Y-129989285D01*
X148432857Y-130017857D01*
X148975714Y-129846428D02*
X149375714Y-129846428D01*
X149118571Y-130446428D01*
D11*
X131107380Y-153368333D02*
X131821666Y-153368333D01*
X131964523Y-153415952D01*
X132059761Y-153511190D01*
X132107380Y-153654047D01*
X132107380Y-153749285D01*
X131202619Y-152939761D02*
X131155000Y-152892142D01*
X131107380Y-152796904D01*
X131107380Y-152558809D01*
X131155000Y-152463571D01*
X131202619Y-152415952D01*
X131297857Y-152368333D01*
X131393095Y-152368333D01*
X131535952Y-152415952D01*
X132107380Y-152987380D01*
X132107380Y-152368333D01*
X111156904Y-137682380D02*
X111156904Y-138491904D01*
X111204523Y-138587142D01*
X111252142Y-138634761D01*
X111347380Y-138682380D01*
X111537857Y-138682380D01*
X111633095Y-138634761D01*
X111680714Y-138587142D01*
X111728333Y-138491904D01*
X111728333Y-137682380D01*
X112728333Y-138682380D02*
X112156904Y-138682380D01*
X112442619Y-138682380D02*
X112442619Y-137682380D01*
X112347380Y-137825238D01*
X112252142Y-137920476D01*
X112156904Y-137968095D01*
X113680714Y-138682380D02*
X113109285Y-138682380D01*
X113395000Y-138682380D02*
X113395000Y-137682380D01*
X113299761Y-137825238D01*
X113204523Y-137920476D01*
X113109285Y-137968095D01*
X111156904Y-120537380D02*
X111156904Y-121346904D01*
X111204523Y-121442142D01*
X111252142Y-121489761D01*
X111347380Y-121537380D01*
X111537857Y-121537380D01*
X111633095Y-121489761D01*
X111680714Y-121442142D01*
X111728333Y-121346904D01*
X111728333Y-120537380D01*
X112728333Y-121537380D02*
X112156904Y-121537380D01*
X112442619Y-121537380D02*
X112442619Y-120537380D01*
X112347380Y-120680238D01*
X112252142Y-120775476D01*
X112156904Y-120823095D01*
X113109285Y-120632619D02*
X113156904Y-120585000D01*
X113252142Y-120537380D01*
X113490238Y-120537380D01*
X113585476Y-120585000D01*
X113633095Y-120632619D01*
X113680714Y-120727857D01*
X113680714Y-120823095D01*
X113633095Y-120965952D01*
X113061666Y-121537380D01*
X113680714Y-121537380D01*
X111156904Y-108472380D02*
X111156904Y-109281904D01*
X111204523Y-109377142D01*
X111252142Y-109424761D01*
X111347380Y-109472380D01*
X111537857Y-109472380D01*
X111633095Y-109424761D01*
X111680714Y-109377142D01*
X111728333Y-109281904D01*
X111728333Y-108472380D01*
X112728333Y-109472380D02*
X112156904Y-109472380D01*
X112442619Y-109472380D02*
X112442619Y-108472380D01*
X112347380Y-108615238D01*
X112252142Y-108710476D01*
X112156904Y-108758095D01*
X113061666Y-108472380D02*
X113680714Y-108472380D01*
X113347380Y-108853333D01*
X113490238Y-108853333D01*
X113585476Y-108900952D01*
X113633095Y-108948571D01*
X113680714Y-109043809D01*
X113680714Y-109281904D01*
X113633095Y-109377142D01*
X113585476Y-109424761D01*
X113490238Y-109472380D01*
X113204523Y-109472380D01*
X113109285Y-109424761D01*
X113061666Y-109377142D01*
X111156904Y-95152380D02*
X111156904Y-95961904D01*
X111204523Y-96057142D01*
X111252142Y-96104761D01*
X111347380Y-96152380D01*
X111537857Y-96152380D01*
X111633095Y-96104761D01*
X111680714Y-96057142D01*
X111728333Y-95961904D01*
X111728333Y-95152380D01*
X112728333Y-96152380D02*
X112156904Y-96152380D01*
X112442619Y-96152380D02*
X112442619Y-95152380D01*
X112347380Y-95295238D01*
X112252142Y-95390476D01*
X112156904Y-95438095D01*
X113585476Y-95485714D02*
X113585476Y-96152380D01*
X113347380Y-95104761D02*
X113109285Y-95819047D01*
X113728333Y-95819047D01*
X111156904Y-83072380D02*
X111156904Y-83881904D01*
X111204523Y-83977142D01*
X111252142Y-84024761D01*
X111347380Y-84072380D01*
X111537857Y-84072380D01*
X111633095Y-84024761D01*
X111680714Y-83977142D01*
X111728333Y-83881904D01*
X111728333Y-83072380D01*
X112728333Y-84072380D02*
X112156904Y-84072380D01*
X112442619Y-84072380D02*
X112442619Y-83072380D01*
X112347380Y-83215238D01*
X112252142Y-83310476D01*
X112156904Y-83358095D01*
X113633095Y-83072380D02*
X113156904Y-83072380D01*
X113109285Y-83548571D01*
X113156904Y-83500952D01*
X113252142Y-83453333D01*
X113490238Y-83453333D01*
X113585476Y-83500952D01*
X113633095Y-83548571D01*
X113680714Y-83643809D01*
X113680714Y-83881904D01*
X113633095Y-83977142D01*
X113585476Y-84024761D01*
X113490238Y-84072380D01*
X113252142Y-84072380D01*
X113156904Y-84024761D01*
X113109285Y-83977142D01*
X135286904Y-139587380D02*
X135286904Y-140396904D01*
X135334523Y-140492142D01*
X135382142Y-140539761D01*
X135477380Y-140587380D01*
X135667857Y-140587380D01*
X135763095Y-140539761D01*
X135810714Y-140492142D01*
X135858333Y-140396904D01*
X135858333Y-139587380D01*
X136858333Y-140587380D02*
X136286904Y-140587380D01*
X136572619Y-140587380D02*
X136572619Y-139587380D01*
X136477380Y-139730238D01*
X136382142Y-139825476D01*
X136286904Y-139873095D01*
X137715476Y-139587380D02*
X137525000Y-139587380D01*
X137429761Y-139635000D01*
X137382142Y-139682619D01*
X137286904Y-139825476D01*
X137239285Y-140015952D01*
X137239285Y-140396904D01*
X137286904Y-140492142D01*
X137334523Y-140539761D01*
X137429761Y-140587380D01*
X137620238Y-140587380D01*
X137715476Y-140539761D01*
X137763095Y-140492142D01*
X137810714Y-140396904D01*
X137810714Y-140158809D01*
X137763095Y-140063571D01*
X137715476Y-140015952D01*
X137620238Y-139968333D01*
X137429761Y-139968333D01*
X137334523Y-140015952D01*
X137286904Y-140063571D01*
X137239285Y-140158809D01*
X135286904Y-126267380D02*
X135286904Y-127076904D01*
X135334523Y-127172142D01*
X135382142Y-127219761D01*
X135477380Y-127267380D01*
X135667857Y-127267380D01*
X135763095Y-127219761D01*
X135810714Y-127172142D01*
X135858333Y-127076904D01*
X135858333Y-126267380D01*
X136858333Y-127267380D02*
X136286904Y-127267380D01*
X136572619Y-127267380D02*
X136572619Y-126267380D01*
X136477380Y-126410238D01*
X136382142Y-126505476D01*
X136286904Y-126553095D01*
X137191666Y-126267380D02*
X137858333Y-126267380D01*
X137429761Y-127267380D01*
X135286904Y-112932380D02*
X135286904Y-113741904D01*
X135334523Y-113837142D01*
X135382142Y-113884761D01*
X135477380Y-113932380D01*
X135667857Y-113932380D01*
X135763095Y-113884761D01*
X135810714Y-113837142D01*
X135858333Y-113741904D01*
X135858333Y-112932380D01*
X136858333Y-113932380D02*
X136286904Y-113932380D01*
X136572619Y-113932380D02*
X136572619Y-112932380D01*
X136477380Y-113075238D01*
X136382142Y-113170476D01*
X136286904Y-113218095D01*
X137429761Y-113360952D02*
X137334523Y-113313333D01*
X137286904Y-113265714D01*
X137239285Y-113170476D01*
X137239285Y-113122857D01*
X137286904Y-113027619D01*
X137334523Y-112980000D01*
X137429761Y-112932380D01*
X137620238Y-112932380D01*
X137715476Y-112980000D01*
X137763095Y-113027619D01*
X137810714Y-113122857D01*
X137810714Y-113170476D01*
X137763095Y-113265714D01*
X137715476Y-113313333D01*
X137620238Y-113360952D01*
X137429761Y-113360952D01*
X137334523Y-113408571D01*
X137286904Y-113456190D01*
X137239285Y-113551428D01*
X137239285Y-113741904D01*
X137286904Y-113837142D01*
X137334523Y-113884761D01*
X137429761Y-113932380D01*
X137620238Y-113932380D01*
X137715476Y-113884761D01*
X137763095Y-113837142D01*
X137810714Y-113741904D01*
X137810714Y-113551428D01*
X137763095Y-113456190D01*
X137715476Y-113408571D01*
X137620238Y-113360952D01*
D12*
X148204285Y-151979285D02*
X148175714Y-152007857D01*
X148090000Y-152036428D01*
X148032857Y-152036428D01*
X147947142Y-152007857D01*
X147890000Y-151950714D01*
X147861428Y-151893571D01*
X147832857Y-151779285D01*
X147832857Y-151693571D01*
X147861428Y-151579285D01*
X147890000Y-151522142D01*
X147947142Y-151465000D01*
X148032857Y-151436428D01*
X148090000Y-151436428D01*
X148175714Y-151465000D01*
X148204285Y-151493571D01*
X148775714Y-152036428D02*
X148432857Y-152036428D01*
X148604285Y-152036428D02*
X148604285Y-151436428D01*
X148547142Y-151522142D01*
X148490000Y-151579285D01*
X148432857Y-151607857D01*
X149061428Y-152036428D02*
X149175714Y-152036428D01*
X149232857Y-152007857D01*
X149261428Y-151979285D01*
X149318571Y-151893571D01*
X149347142Y-151779285D01*
X149347142Y-151550714D01*
X149318571Y-151493571D01*
X149290000Y-151465000D01*
X149232857Y-151436428D01*
X149118571Y-151436428D01*
X149061428Y-151465000D01*
X149032857Y-151493571D01*
X149004285Y-151550714D01*
X149004285Y-151693571D01*
X149032857Y-151750714D01*
X149061428Y-151779285D01*
X149118571Y-151807857D01*
X149232857Y-151807857D01*
X149290000Y-151779285D01*
X149318571Y-151750714D01*
X149347142Y-151693571D01*
X105659285Y-136104285D02*
X105630714Y-136132857D01*
X105545000Y-136161428D01*
X105487857Y-136161428D01*
X105402142Y-136132857D01*
X105345000Y-136075714D01*
X105316428Y-136018571D01*
X105287857Y-135904285D01*
X105287857Y-135818571D01*
X105316428Y-135704285D01*
X105345000Y-135647142D01*
X105402142Y-135590000D01*
X105487857Y-135561428D01*
X105545000Y-135561428D01*
X105630714Y-135590000D01*
X105659285Y-135618571D01*
X105887857Y-135618571D02*
X105916428Y-135590000D01*
X105973571Y-135561428D01*
X106116428Y-135561428D01*
X106173571Y-135590000D01*
X106202142Y-135618571D01*
X106230714Y-135675714D01*
X106230714Y-135732857D01*
X106202142Y-135818571D01*
X105859285Y-136161428D01*
X106230714Y-136161428D01*
X106602142Y-135561428D02*
X106659285Y-135561428D01*
X106716428Y-135590000D01*
X106745000Y-135618571D01*
X106773571Y-135675714D01*
X106802142Y-135790000D01*
X106802142Y-135932857D01*
X106773571Y-136047142D01*
X106745000Y-136104285D01*
X106716428Y-136132857D01*
X106659285Y-136161428D01*
X106602142Y-136161428D01*
X106545000Y-136132857D01*
X106516428Y-136104285D01*
X106487857Y-136047142D01*
X106459285Y-135932857D01*
X106459285Y-135790000D01*
X106487857Y-135675714D01*
X106516428Y-135618571D01*
X106545000Y-135590000D01*
X106602142Y-135561428D01*
X105659285Y-146899285D02*
X105630714Y-146927857D01*
X105545000Y-146956428D01*
X105487857Y-146956428D01*
X105402142Y-146927857D01*
X105345000Y-146870714D01*
X105316428Y-146813571D01*
X105287857Y-146699285D01*
X105287857Y-146613571D01*
X105316428Y-146499285D01*
X105345000Y-146442142D01*
X105402142Y-146385000D01*
X105487857Y-146356428D01*
X105545000Y-146356428D01*
X105630714Y-146385000D01*
X105659285Y-146413571D01*
X105887857Y-146413571D02*
X105916428Y-146385000D01*
X105973571Y-146356428D01*
X106116428Y-146356428D01*
X106173571Y-146385000D01*
X106202142Y-146413571D01*
X106230714Y-146470714D01*
X106230714Y-146527857D01*
X106202142Y-146613571D01*
X105859285Y-146956428D01*
X106230714Y-146956428D01*
X106802142Y-146956428D02*
X106459285Y-146956428D01*
X106630714Y-146956428D02*
X106630714Y-146356428D01*
X106573571Y-146442142D01*
X106516428Y-146499285D01*
X106459285Y-146527857D01*
X118359285Y-124039285D02*
X118330714Y-124067857D01*
X118245000Y-124096428D01*
X118187857Y-124096428D01*
X118102142Y-124067857D01*
X118045000Y-124010714D01*
X118016428Y-123953571D01*
X117987857Y-123839285D01*
X117987857Y-123753571D01*
X118016428Y-123639285D01*
X118045000Y-123582142D01*
X118102142Y-123525000D01*
X118187857Y-123496428D01*
X118245000Y-123496428D01*
X118330714Y-123525000D01*
X118359285Y-123553571D01*
X118587857Y-123553571D02*
X118616428Y-123525000D01*
X118673571Y-123496428D01*
X118816428Y-123496428D01*
X118873571Y-123525000D01*
X118902142Y-123553571D01*
X118930714Y-123610714D01*
X118930714Y-123667857D01*
X118902142Y-123753571D01*
X118559285Y-124096428D01*
X118930714Y-124096428D01*
X119159285Y-123553571D02*
X119187857Y-123525000D01*
X119245000Y-123496428D01*
X119387857Y-123496428D01*
X119445000Y-123525000D01*
X119473571Y-123553571D01*
X119502142Y-123610714D01*
X119502142Y-123667857D01*
X119473571Y-123753571D01*
X119130714Y-124096428D01*
X119502142Y-124096428D01*
X118359285Y-111974285D02*
X118330714Y-112002857D01*
X118245000Y-112031428D01*
X118187857Y-112031428D01*
X118102142Y-112002857D01*
X118045000Y-111945714D01*
X118016428Y-111888571D01*
X117987857Y-111774285D01*
X117987857Y-111688571D01*
X118016428Y-111574285D01*
X118045000Y-111517142D01*
X118102142Y-111460000D01*
X118187857Y-111431428D01*
X118245000Y-111431428D01*
X118330714Y-111460000D01*
X118359285Y-111488571D01*
X118587857Y-111488571D02*
X118616428Y-111460000D01*
X118673571Y-111431428D01*
X118816428Y-111431428D01*
X118873571Y-111460000D01*
X118902142Y-111488571D01*
X118930714Y-111545714D01*
X118930714Y-111602857D01*
X118902142Y-111688571D01*
X118559285Y-112031428D01*
X118930714Y-112031428D01*
X119130714Y-111431428D02*
X119502142Y-111431428D01*
X119302142Y-111660000D01*
X119387857Y-111660000D01*
X119445000Y-111688571D01*
X119473571Y-111717142D01*
X119502142Y-111774285D01*
X119502142Y-111917142D01*
X119473571Y-111974285D01*
X119445000Y-112002857D01*
X119387857Y-112031428D01*
X119216428Y-112031428D01*
X119159285Y-112002857D01*
X119130714Y-111974285D01*
X118359285Y-99274285D02*
X118330714Y-99302857D01*
X118245000Y-99331428D01*
X118187857Y-99331428D01*
X118102142Y-99302857D01*
X118045000Y-99245714D01*
X118016428Y-99188571D01*
X117987857Y-99074285D01*
X117987857Y-98988571D01*
X118016428Y-98874285D01*
X118045000Y-98817142D01*
X118102142Y-98760000D01*
X118187857Y-98731428D01*
X118245000Y-98731428D01*
X118330714Y-98760000D01*
X118359285Y-98788571D01*
X118587857Y-98788571D02*
X118616428Y-98760000D01*
X118673571Y-98731428D01*
X118816428Y-98731428D01*
X118873571Y-98760000D01*
X118902142Y-98788571D01*
X118930714Y-98845714D01*
X118930714Y-98902857D01*
X118902142Y-98988571D01*
X118559285Y-99331428D01*
X118930714Y-99331428D01*
X119445000Y-98931428D02*
X119445000Y-99331428D01*
X119302142Y-98702857D02*
X119159285Y-99131428D01*
X119530714Y-99131428D01*
X118359285Y-86574285D02*
X118330714Y-86602857D01*
X118245000Y-86631428D01*
X118187857Y-86631428D01*
X118102142Y-86602857D01*
X118045000Y-86545714D01*
X118016428Y-86488571D01*
X117987857Y-86374285D01*
X117987857Y-86288571D01*
X118016428Y-86174285D01*
X118045000Y-86117142D01*
X118102142Y-86060000D01*
X118187857Y-86031428D01*
X118245000Y-86031428D01*
X118330714Y-86060000D01*
X118359285Y-86088571D01*
X118587857Y-86088571D02*
X118616428Y-86060000D01*
X118673571Y-86031428D01*
X118816428Y-86031428D01*
X118873571Y-86060000D01*
X118902142Y-86088571D01*
X118930714Y-86145714D01*
X118930714Y-86202857D01*
X118902142Y-86288571D01*
X118559285Y-86631428D01*
X118930714Y-86631428D01*
X119473571Y-86031428D02*
X119187857Y-86031428D01*
X119159285Y-86317142D01*
X119187857Y-86288571D01*
X119245000Y-86260000D01*
X119387857Y-86260000D01*
X119445000Y-86288571D01*
X119473571Y-86317142D01*
X119502142Y-86374285D01*
X119502142Y-86517142D01*
X119473571Y-86574285D01*
X119445000Y-86602857D01*
X119387857Y-86631428D01*
X119245000Y-86631428D01*
X119187857Y-86602857D01*
X119159285Y-86574285D01*
X142489285Y-143724285D02*
X142460714Y-143752857D01*
X142375000Y-143781428D01*
X142317857Y-143781428D01*
X142232142Y-143752857D01*
X142175000Y-143695714D01*
X142146428Y-143638571D01*
X142117857Y-143524285D01*
X142117857Y-143438571D01*
X142146428Y-143324285D01*
X142175000Y-143267142D01*
X142232142Y-143210000D01*
X142317857Y-143181428D01*
X142375000Y-143181428D01*
X142460714Y-143210000D01*
X142489285Y-143238571D01*
X142717857Y-143238571D02*
X142746428Y-143210000D01*
X142803571Y-143181428D01*
X142946428Y-143181428D01*
X143003571Y-143210000D01*
X143032142Y-143238571D01*
X143060714Y-143295714D01*
X143060714Y-143352857D01*
X143032142Y-143438571D01*
X142689285Y-143781428D01*
X143060714Y-143781428D01*
X143575000Y-143181428D02*
X143460714Y-143181428D01*
X143403571Y-143210000D01*
X143375000Y-143238571D01*
X143317857Y-143324285D01*
X143289285Y-143438571D01*
X143289285Y-143667142D01*
X143317857Y-143724285D01*
X143346428Y-143752857D01*
X143403571Y-143781428D01*
X143517857Y-143781428D01*
X143575000Y-143752857D01*
X143603571Y-143724285D01*
X143632142Y-143667142D01*
X143632142Y-143524285D01*
X143603571Y-143467142D01*
X143575000Y-143438571D01*
X143517857Y-143410000D01*
X143403571Y-143410000D01*
X143346428Y-143438571D01*
X143317857Y-143467142D01*
X143289285Y-143524285D01*
X142489285Y-130389285D02*
X142460714Y-130417857D01*
X142375000Y-130446428D01*
X142317857Y-130446428D01*
X142232142Y-130417857D01*
X142175000Y-130360714D01*
X142146428Y-130303571D01*
X142117857Y-130189285D01*
X142117857Y-130103571D01*
X142146428Y-129989285D01*
X142175000Y-129932142D01*
X142232142Y-129875000D01*
X142317857Y-129846428D01*
X142375000Y-129846428D01*
X142460714Y-129875000D01*
X142489285Y-129903571D01*
X142717857Y-129903571D02*
X142746428Y-129875000D01*
X142803571Y-129846428D01*
X142946428Y-129846428D01*
X143003571Y-129875000D01*
X143032142Y-129903571D01*
X143060714Y-129960714D01*
X143060714Y-130017857D01*
X143032142Y-130103571D01*
X142689285Y-130446428D01*
X143060714Y-130446428D01*
X143260714Y-129846428D02*
X143660714Y-129846428D01*
X143403571Y-130446428D01*
X142489285Y-117054285D02*
X142460714Y-117082857D01*
X142375000Y-117111428D01*
X142317857Y-117111428D01*
X142232142Y-117082857D01*
X142175000Y-117025714D01*
X142146428Y-116968571D01*
X142117857Y-116854285D01*
X142117857Y-116768571D01*
X142146428Y-116654285D01*
X142175000Y-116597142D01*
X142232142Y-116540000D01*
X142317857Y-116511428D01*
X142375000Y-116511428D01*
X142460714Y-116540000D01*
X142489285Y-116568571D01*
X142717857Y-116568571D02*
X142746428Y-116540000D01*
X142803571Y-116511428D01*
X142946428Y-116511428D01*
X143003571Y-116540000D01*
X143032142Y-116568571D01*
X143060714Y-116625714D01*
X143060714Y-116682857D01*
X143032142Y-116768571D01*
X142689285Y-117111428D01*
X143060714Y-117111428D01*
X143403571Y-116768571D02*
X143346428Y-116740000D01*
X143317857Y-116711428D01*
X143289285Y-116654285D01*
X143289285Y-116625714D01*
X143317857Y-116568571D01*
X143346428Y-116540000D01*
X143403571Y-116511428D01*
X143517857Y-116511428D01*
X143575000Y-116540000D01*
X143603571Y-116568571D01*
X143632142Y-116625714D01*
X143632142Y-116654285D01*
X143603571Y-116711428D01*
X143575000Y-116740000D01*
X143517857Y-116768571D01*
X143403571Y-116768571D01*
X143346428Y-116797142D01*
X143317857Y-116825714D01*
X143289285Y-116882857D01*
X143289285Y-116997142D01*
X143317857Y-117054285D01*
X143346428Y-117082857D01*
X143403571Y-117111428D01*
X143517857Y-117111428D01*
X143575000Y-117082857D01*
X143603571Y-117054285D01*
X143632142Y-116997142D01*
X143632142Y-116882857D01*
X143603571Y-116825714D01*
X143575000Y-116797142D01*
X143517857Y-116768571D01*
X144458285Y-51014285D02*
X144429714Y-51042857D01*
X144344000Y-51071428D01*
X144286857Y-51071428D01*
X144201142Y-51042857D01*
X144144000Y-50985714D01*
X144115428Y-50928571D01*
X144086857Y-50814285D01*
X144086857Y-50728571D01*
X144115428Y-50614285D01*
X144144000Y-50557142D01*
X144201142Y-50500000D01*
X144286857Y-50471428D01*
X144344000Y-50471428D01*
X144429714Y-50500000D01*
X144458285Y-50528571D01*
X144686857Y-50528571D02*
X144715428Y-50500000D01*
X144772571Y-50471428D01*
X144915428Y-50471428D01*
X144972571Y-50500000D01*
X145001142Y-50528571D01*
X145029714Y-50585714D01*
X145029714Y-50642857D01*
X145001142Y-50728571D01*
X144658285Y-51071428D01*
X145029714Y-51071428D01*
X145315428Y-51071428D02*
X145429714Y-51071428D01*
X145486857Y-51042857D01*
X145515428Y-51014285D01*
X145572571Y-50928571D01*
X145601142Y-50814285D01*
X145601142Y-50585714D01*
X145572571Y-50528571D01*
X145544000Y-50500000D01*
X145486857Y-50471428D01*
X145372571Y-50471428D01*
X145315428Y-50500000D01*
X145286857Y-50528571D01*
X145258285Y-50585714D01*
X145258285Y-50728571D01*
X145286857Y-50785714D01*
X145315428Y-50814285D01*
X145372571Y-50842857D01*
X145486857Y-50842857D01*
X145544000Y-50814285D01*
X145572571Y-50785714D01*
X145601142Y-50728571D01*
X144458285Y-63269785D02*
X144429714Y-63298357D01*
X144344000Y-63326928D01*
X144286857Y-63326928D01*
X144201142Y-63298357D01*
X144144000Y-63241214D01*
X144115428Y-63184071D01*
X144086857Y-63069785D01*
X144086857Y-62984071D01*
X144115428Y-62869785D01*
X144144000Y-62812642D01*
X144201142Y-62755500D01*
X144286857Y-62726928D01*
X144344000Y-62726928D01*
X144429714Y-62755500D01*
X144458285Y-62784071D01*
X144658285Y-62726928D02*
X145029714Y-62726928D01*
X144829714Y-62955500D01*
X144915428Y-62955500D01*
X144972571Y-62984071D01*
X145001142Y-63012642D01*
X145029714Y-63069785D01*
X145029714Y-63212642D01*
X145001142Y-63269785D01*
X144972571Y-63298357D01*
X144915428Y-63326928D01*
X144744000Y-63326928D01*
X144686857Y-63298357D01*
X144658285Y-63269785D01*
X145401142Y-62726928D02*
X145458285Y-62726928D01*
X145515428Y-62755500D01*
X145544000Y-62784071D01*
X145572571Y-62841214D01*
X145601142Y-62955500D01*
X145601142Y-63098357D01*
X145572571Y-63212642D01*
X145544000Y-63269785D01*
X145515428Y-63298357D01*
X145458285Y-63326928D01*
X145401142Y-63326928D01*
X145344000Y-63298357D01*
X145315428Y-63269785D01*
X145286857Y-63212642D01*
X145258285Y-63098357D01*
X145258285Y-62955500D01*
X145286857Y-62841214D01*
X145315428Y-62784071D01*
X145344000Y-62755500D01*
X145401142Y-62726928D01*
X105945000Y-141241428D02*
X105745000Y-140955714D01*
X105602142Y-141241428D02*
X105602142Y-140641428D01*
X105830714Y-140641428D01*
X105887857Y-140670000D01*
X105916428Y-140698571D01*
X105945000Y-140755714D01*
X105945000Y-140841428D01*
X105916428Y-140898571D01*
X105887857Y-140927142D01*
X105830714Y-140955714D01*
X105602142Y-140955714D01*
X106459285Y-140841428D02*
X106459285Y-141241428D01*
X106316428Y-140612857D02*
X106173571Y-141041428D01*
X106545000Y-141041428D01*
X118645000Y-146321428D02*
X118445000Y-146035714D01*
X118302142Y-146321428D02*
X118302142Y-145721428D01*
X118530714Y-145721428D01*
X118587857Y-145750000D01*
X118616428Y-145778571D01*
X118645000Y-145835714D01*
X118645000Y-145921428D01*
X118616428Y-145978571D01*
X118587857Y-146007142D01*
X118530714Y-146035714D01*
X118302142Y-146035714D01*
X119187857Y-145721428D02*
X118902142Y-145721428D01*
X118873571Y-146007142D01*
X118902142Y-145978571D01*
X118959285Y-145950000D01*
X119102142Y-145950000D01*
X119159285Y-145978571D01*
X119187857Y-146007142D01*
X119216428Y-146064285D01*
X119216428Y-146207142D01*
X119187857Y-146264285D01*
X119159285Y-146292857D01*
X119102142Y-146321428D01*
X118959285Y-146321428D01*
X118902142Y-146292857D01*
X118873571Y-146264285D01*
X112666428Y-135990000D02*
X112380714Y-136190000D01*
X112666428Y-136332857D02*
X112066428Y-136332857D01*
X112066428Y-136104285D01*
X112095000Y-136047142D01*
X112123571Y-136018571D01*
X112180714Y-135990000D01*
X112266428Y-135990000D01*
X112323571Y-136018571D01*
X112352142Y-136047142D01*
X112380714Y-136104285D01*
X112380714Y-136332857D01*
X112066428Y-135475714D02*
X112066428Y-135590000D01*
X112095000Y-135647142D01*
X112123571Y-135675714D01*
X112209285Y-135732857D01*
X112323571Y-135761428D01*
X112552142Y-135761428D01*
X112609285Y-135732857D01*
X112637857Y-135704285D01*
X112666428Y-135647142D01*
X112666428Y-135532857D01*
X112637857Y-135475714D01*
X112609285Y-135447142D01*
X112552142Y-135418571D01*
X112409285Y-135418571D01*
X112352142Y-135447142D01*
X112323571Y-135475714D01*
X112295000Y-135532857D01*
X112295000Y-135647142D01*
X112323571Y-135704285D01*
X112352142Y-135732857D01*
X112409285Y-135761428D01*
D11*
X138366095Y-59147880D02*
X138366095Y-59957404D01*
X138413714Y-60052642D01*
X138461333Y-60100261D01*
X138556571Y-60147880D01*
X138747047Y-60147880D01*
X138842285Y-60100261D01*
X138889904Y-60052642D01*
X138937523Y-59957404D01*
X138937523Y-59147880D01*
X139318476Y-59147880D02*
X139937523Y-59147880D01*
X139604190Y-59528833D01*
X139747047Y-59528833D01*
X139842285Y-59576452D01*
X139889904Y-59624071D01*
X139937523Y-59719309D01*
X139937523Y-59957404D01*
X139889904Y-60052642D01*
X139842285Y-60100261D01*
X139747047Y-60147880D01*
X139461333Y-60147880D01*
X139366095Y-60100261D01*
X139318476Y-60052642D01*
X156114904Y-126198380D02*
X156114904Y-127007904D01*
X156162523Y-127103142D01*
X156210142Y-127150761D01*
X156305380Y-127198380D01*
X156495857Y-127198380D01*
X156591095Y-127150761D01*
X156638714Y-127103142D01*
X156686333Y-127007904D01*
X156686333Y-126198380D01*
X157686333Y-127198380D02*
X157114904Y-127198380D01*
X157400619Y-127198380D02*
X157400619Y-126198380D01*
X157305380Y-126341238D01*
X157210142Y-126436476D01*
X157114904Y-126484095D01*
X158305380Y-126198380D02*
X158400619Y-126198380D01*
X158495857Y-126246000D01*
X158543476Y-126293619D01*
X158591095Y-126388857D01*
X158638714Y-126579333D01*
X158638714Y-126817428D01*
X158591095Y-127007904D01*
X158543476Y-127103142D01*
X158495857Y-127150761D01*
X158400619Y-127198380D01*
X158305380Y-127198380D01*
X158210142Y-127150761D01*
X158162523Y-127103142D01*
X158114904Y-127007904D01*
X158067285Y-126817428D01*
X158067285Y-126579333D01*
X158114904Y-126388857D01*
X158162523Y-126293619D01*
X158210142Y-126246000D01*
X158305380Y-126198380D01*
X111633095Y-70572380D02*
X111633095Y-71381904D01*
X111680714Y-71477142D01*
X111728333Y-71524761D01*
X111823571Y-71572380D01*
X112014047Y-71572380D01*
X112109285Y-71524761D01*
X112156904Y-71477142D01*
X112204523Y-71381904D01*
X112204523Y-70572380D01*
X113204523Y-71572380D02*
X112633095Y-71572380D01*
X112918809Y-71572380D02*
X112918809Y-70572380D01*
X112823571Y-70715238D01*
X112728333Y-70810476D01*
X112633095Y-70858095D01*
X102420729Y-74112380D02*
X101849300Y-74112380D01*
X102135014Y-74112380D02*
X102260014Y-73112380D01*
X102146919Y-73255238D01*
X102039776Y-73350476D01*
X101938586Y-73398095D01*
X122294300Y-73112380D02*
X122103824Y-73112380D01*
X122002633Y-73160000D01*
X121949062Y-73207619D01*
X121835967Y-73350476D01*
X121764538Y-73540952D01*
X121716919Y-73921904D01*
X121752633Y-74017142D01*
X121794300Y-74064761D01*
X121883586Y-74112380D01*
X122074062Y-74112380D01*
X122175252Y-74064761D01*
X122228824Y-74017142D01*
X122288348Y-73921904D01*
X122318110Y-73683809D01*
X122282395Y-73588571D01*
X122240729Y-73540952D01*
X122151443Y-73493333D01*
X121960967Y-73493333D01*
X121859776Y-73540952D01*
X121806205Y-73588571D01*
X121746681Y-73683809D01*
X123205014Y-73445714D02*
X123121681Y-74112380D01*
X123014538Y-73064761D02*
X122687157Y-73779047D01*
X123306205Y-73779047D01*
X114173095Y-36267380D02*
X114173095Y-37076904D01*
X114220714Y-37172142D01*
X114268333Y-37219761D01*
X114363571Y-37267380D01*
X114554047Y-37267380D01*
X114649285Y-37219761D01*
X114696904Y-37172142D01*
X114744523Y-37076904D01*
X114744523Y-36267380D01*
X115173095Y-36362619D02*
X115220714Y-36315000D01*
X115315952Y-36267380D01*
X115554047Y-36267380D01*
X115649285Y-36315000D01*
X115696904Y-36362619D01*
X115744523Y-36457857D01*
X115744523Y-36553095D01*
X115696904Y-36695952D01*
X115125476Y-37267380D01*
X115744523Y-37267380D01*
X138366095Y-46892380D02*
X138366095Y-47701904D01*
X138413714Y-47797142D01*
X138461333Y-47844761D01*
X138556571Y-47892380D01*
X138747047Y-47892380D01*
X138842285Y-47844761D01*
X138889904Y-47797142D01*
X138937523Y-47701904D01*
X138937523Y-46892380D01*
X139842285Y-47225714D02*
X139842285Y-47892380D01*
X139604190Y-46844761D02*
X139366095Y-47559047D01*
X139985142Y-47559047D01*
X137668095Y-86193380D02*
X137668095Y-87002904D01*
X137715714Y-87098142D01*
X137763333Y-87145761D01*
X137858571Y-87193380D01*
X138049047Y-87193380D01*
X138144285Y-87145761D01*
X138191904Y-87098142D01*
X138239523Y-87002904D01*
X138239523Y-86193380D01*
X139191904Y-86193380D02*
X138715714Y-86193380D01*
X138668095Y-86669571D01*
X138715714Y-86621952D01*
X138810952Y-86574333D01*
X139049047Y-86574333D01*
X139144285Y-86621952D01*
X139191904Y-86669571D01*
X139239523Y-86764809D01*
X139239523Y-87002904D01*
X139191904Y-87098142D01*
X139144285Y-87145761D01*
X139049047Y-87193380D01*
X138810952Y-87193380D01*
X138715714Y-87145761D01*
X138668095Y-87098142D01*
X138303095Y-100446380D02*
X138303095Y-101255904D01*
X138350714Y-101351142D01*
X138398333Y-101398761D01*
X138493571Y-101446380D01*
X138684047Y-101446380D01*
X138779285Y-101398761D01*
X138826904Y-101351142D01*
X138874523Y-101255904D01*
X138874523Y-100446380D01*
X139779285Y-100446380D02*
X139588809Y-100446380D01*
X139493571Y-100494000D01*
X139445952Y-100541619D01*
X139350714Y-100684476D01*
X139303095Y-100874952D01*
X139303095Y-101255904D01*
X139350714Y-101351142D01*
X139398333Y-101398761D01*
X139493571Y-101446380D01*
X139684047Y-101446380D01*
X139779285Y-101398761D01*
X139826904Y-101351142D01*
X139874523Y-101255904D01*
X139874523Y-101017809D01*
X139826904Y-100922571D01*
X139779285Y-100874952D01*
X139684047Y-100827333D01*
X139493571Y-100827333D01*
X139398333Y-100874952D01*
X139350714Y-100922571D01*
X139303095Y-101017809D01*
M02*
