M48
; DRILL file {KiCad (5.1.2-1)-1} date Thursday, 09 May 2019 at 14:45:52
; FORMAT={3:3/ absolute / metric / suppress leading zeros}
; #@! TF.CreationDate,2019-05-09T14:45:52+01:00
; #@! TF.GenerationSoftware,Kicad,Pcbnew,(5.1.2-1)-1
FMAT,2
METRIC,TZ
T1C0.400
T2C0.762
T3C0.800
T4C1.016
%
G90
G05
T1
X146739Y-116624
X148308Y-85090
X148308Y-89644
X153350Y-107408
X156611Y-52858
X158180Y-51369
X158273Y-47974
X159986Y-55695
X160848Y-61068
X160963Y-80846
X161603Y-47551
X161603Y-56951
X161651Y-72187
X162607Y-87161
X162749Y-72178
X162830Y-56965
X163076Y-104002
X163191Y-35508
X163237Y-45061
X163725Y-83039
X164202Y-56964
X164202Y-72158
X164462Y-83926
X164598Y-47079
X164635Y-77495
X165298Y-46217
X165362Y-56955
X165362Y-72177
X166020Y-81854
X166450Y-87161
X166591Y-47381
X167275Y-62960
X167910Y-60655
X167913Y-71771
X167918Y-50546
X167991Y-78024
X168254Y-41386
X168536Y-40305
X168555Y-52570
X169326Y-87434
X169361Y-59996
X169976Y-41512
X170345Y-44701
X170459Y-55607
X171612Y-72185
X171822Y-87426
X172045Y-45190
X174734Y-100061
X175253Y-101593
X175633Y-75161
X175633Y-87424
X175930Y-91514
X175942Y-93753
X176836Y-44657
X177176Y-60232
X177281Y-83580
X177898Y-35301
X178991Y-81315
X179696Y-68306
X180511Y-56050
X180610Y-44651
X181024Y-92145
X181254Y-35143
X181314Y-87207
X181888Y-85626
X182849Y-60831
X183041Y-44803
X183270Y-68421
X183306Y-95474
X184171Y-72197
X184420Y-59902
X184568Y-69345
X185329Y-66451
X185482Y-105318
X187209Y-70112
X187883Y-83574
X191949Y-99454
X195946Y-96810
X196997Y-77496
X197474Y-65348
X198362Y-91529
X209268Y-58500
T2
X120650Y-35560
X120650Y-38100
X120650Y-40640
X120650Y-43180
X120650Y-45720
X120650Y-48260
X120650Y-50800
X120650Y-53340
X120650Y-55880
X120650Y-58420
X120650Y-60960
X120650Y-63500
X120650Y-66040
X120650Y-68580
X120650Y-71120
X120650Y-73660
X120650Y-76200
X120650Y-78740
X120650Y-81280
X120650Y-83820
X120650Y-86360
X120650Y-88900
X120650Y-91440
X120650Y-93980
X120650Y-96520
X120650Y-99060
X120650Y-101600
X120650Y-104140
X120650Y-106680
X120650Y-109220
X120650Y-111760
X120650Y-114300
X146050Y-35560
X146050Y-38100
X146050Y-40640
X146050Y-43180
X146050Y-45720
X146050Y-48260
X146050Y-50800
X146050Y-53340
X146050Y-55880
X146050Y-58420
X146050Y-60960
X146050Y-63500
X146050Y-66040
X146050Y-68580
X146050Y-71120
X146050Y-73660
X146050Y-76200
X146050Y-78740
X146050Y-81280
X146050Y-83820
X146050Y-86360
X146050Y-88900
X146050Y-91440
X146050Y-93980
X146050Y-96520
X146050Y-99060
X146050Y-101600
X146050Y-104140
X146050Y-106680
X146050Y-109220
X146050Y-111760
X146050Y-114300
T3
X194310Y-95250
X194310Y-102870
X156210Y-95250
X156210Y-102750
X195326Y-50920
X195326Y-58420
X203200Y-34290
X203200Y-36830
X203200Y-39370
X203200Y-41910
X210820Y-34290
X210820Y-36830
X210820Y-39370
X210820Y-41910
X195580Y-35680
X195580Y-43180
X195580Y-66160
X195580Y-73660
X163830Y-97790
X163830Y-100330
X163830Y-102870
X163830Y-105410
X163830Y-107950
X163830Y-110490
X166370Y-95250
X166370Y-97790
X166370Y-100330
X166370Y-102870
X166370Y-105410
X166370Y-107950
X166370Y-110490
X166370Y-113030
X168910Y-95250
X168910Y-97790
X168910Y-110490
X168910Y-113030
X171450Y-95250
X171450Y-97790
X171450Y-110490
X171450Y-113030
X173990Y-95250
X173990Y-97790
X173990Y-110490
X173990Y-113030
X176530Y-95250
X176530Y-97790
X176530Y-110490
X176530Y-113030
X179070Y-95250
X179070Y-97790
X179070Y-100330
X179070Y-102870
X179070Y-105410
X179070Y-107950
X179070Y-110490
X179070Y-113030
X181610Y-97790
X181610Y-100330
X181610Y-102870
X181610Y-105410
X181610Y-107950
X181610Y-110490
X156210Y-105530
X156210Y-113030
X156210Y-81400
X156210Y-88900
X190500Y-35680
X190500Y-43180
X156210Y-50920
X156210Y-58420
X156210Y-66160
X156210Y-73660
X195580Y-81400
X195580Y-88900
X190500Y-66160
X190500Y-73660
X194310Y-105410
X194310Y-113030
X190500Y-46990
X198000Y-46990
X125730Y-35560
X125730Y-38100
X125730Y-40640
X125730Y-43180
X125730Y-45720
X125730Y-48260
X125730Y-50800
X125730Y-53340
X125730Y-55880
X125730Y-58420
X125730Y-60960
X125730Y-63500
X125730Y-66040
X125730Y-68580
X125730Y-71120
X125730Y-73660
X125730Y-76200
X125730Y-78740
X125730Y-81280
X125730Y-83820
X125730Y-86360
X125730Y-88900
X125730Y-91440
X125730Y-93980
X125730Y-96520
X125730Y-99060
X125730Y-101600
X125730Y-104140
X125730Y-106680
X125730Y-109220
X125730Y-111760
X125730Y-114300
X151130Y-35560
X151130Y-38100
X151130Y-40640
X151130Y-43180
X151130Y-45720
X151130Y-48260
X151130Y-50800
X151130Y-53340
X151130Y-55880
X151130Y-58420
X151130Y-60960
X151130Y-63500
X151130Y-66040
X151130Y-68580
X151130Y-71120
X151130Y-73660
X151130Y-76200
X151130Y-78740
X151130Y-81280
X151130Y-83820
X151130Y-86360
X151130Y-88900
X151130Y-91440
X151130Y-93980
X151130Y-96520
X151130Y-99060
X151130Y-101600
X151130Y-104140
X151130Y-106680
X151130Y-109220
X151130Y-111760
X151130Y-114300
X190500Y-50920
X190500Y-58420
X199390Y-100330
X199390Y-107950
X189230Y-95370
X189230Y-102870
X203200Y-71120
X203200Y-73660
X203200Y-76200
X203200Y-78740
X203200Y-81280
X203200Y-83820
X203200Y-86360
X203200Y-88900
X210820Y-71120
X210820Y-73660
X210820Y-76200
X210820Y-78740
X210820Y-81280
X210820Y-83820
X210820Y-86360
X210820Y-88900
X156210Y-35680
X156210Y-43180
X189230Y-105530
X189230Y-113030
X190500Y-81400
X190500Y-88900
X203200Y-46990
X203200Y-49530
X203200Y-52070
X203200Y-54610
X203200Y-57150
X203200Y-59690
X203200Y-62230
X203200Y-64770
X210820Y-46990
X210820Y-49530
X210820Y-52070
X210820Y-54610
X210820Y-57150
X210820Y-59690
X210820Y-62230
X210820Y-64770
T4
X205740Y-100330
X205740Y-102870
X205740Y-105410
X205740Y-107950
X205740Y-110490
X208280Y-100330
X208280Y-102870
X208280Y-105410
X208280Y-107950
X208280Y-110490
T0
M30
