M48
; DRILL file {KiCad (5.1.2-1)-1} date Tuesday, 11 June 2019 at 23:27:46
; FORMAT={3:3/ absolute / metric / suppress leading zeros}
; #@! TF.CreationDate,2019-06-11T23:27:46+01:00
; #@! TF.GenerationSoftware,Kicad,Pcbnew,(5.1.2-1)-1
FMAT,2
METRIC,TZ
T1C0.300
T2C0.400
T3C0.800
T4C1.016
%
G90
G05
T1
X146133Y-61996
X151390Y-97458
X151904Y-41358
X153262Y-63182
X153967Y-51287
X154263Y-75499
X154382Y-41041
X155749Y-91403
X156802Y-72510
X158608Y-48522
X159180Y-62366
X159529Y-50188
X159538Y-78209
X159601Y-40121
X160403Y-66851
X160503Y-39921
X160896Y-50320
X161002Y-77716
X161108Y-44865
X161573Y-40392
X161738Y-90876
X161856Y-66759
X162108Y-48300
X162246Y-76872
X162391Y-86998
X162415Y-40706
X162457Y-62330
X162749Y-49426
X163402Y-40988
X163469Y-75981
X163469Y-87739
X163511Y-62206
X164113Y-66971
X164113Y-78137
X164790Y-58192
X165096Y-41452
X165399Y-50208
X166623Y-64022
X166623Y-78146
X166638Y-50208
X167184Y-42843
X167225Y-62449
X167225Y-73077
X168123Y-76438
X168130Y-64022
X168279Y-50179
X171728Y-58722
X172094Y-77963
X173286Y-92665
X173799Y-80983
X174236Y-76829
X174240Y-62317
X174259Y-49327
X174843Y-87598
X175197Y-84441
X177451Y-86489
X177588Y-63911
X178119Y-66798
X179010Y-62881
X179145Y-77936
X179334Y-53799
X180610Y-38963
X180610Y-50171
X181880Y-62333
X182666Y-101388
X183097Y-56515
X183418Y-73001
X183418Y-87337
X183972Y-64841
X184514Y-51562
X185172Y-64507
X186963Y-92705
X187902Y-94961
X188225Y-97527
X188571Y-91415
X190041Y-94395
X190608Y-78284
X195475Y-90419
T2
X161035Y-71778
X170561Y-107963
X173454Y-86191
X174941Y-63644
X175256Y-53079
T3
X188976Y-80384
X188976Y-87884
X157861Y-106807
X157861Y-114307
X194310Y-35560
X194310Y-38100
X194310Y-40640
X194310Y-43180
X201930Y-35560
X201930Y-38100
X201930Y-40640
X201930Y-43180
X185801Y-38474
X185801Y-45974
X185801Y-106680
X185801Y-114300
X154686Y-106807
X154686Y-114307
X185801Y-52444
X185801Y-59944
X185801Y-66414
X185801Y-73914
X188976Y-101600
X188976Y-109220
X154686Y-38474
X154686Y-45974
X185801Y-80384
X185801Y-87884
X154686Y-96647
X154686Y-104147
X162941Y-99060
X162941Y-101600
X162941Y-104140
X162941Y-106680
X162941Y-109220
X162941Y-111760
X165481Y-96520
X165481Y-99060
X165481Y-101600
X165481Y-104140
X165481Y-106680
X165481Y-109220
X165481Y-111760
X165481Y-114300
X168021Y-96520
X168021Y-99060
X168021Y-111760
X168021Y-114300
X170561Y-96520
X170561Y-99060
X170561Y-111760
X170561Y-114300
X173101Y-96520
X173101Y-99060
X173101Y-111760
X173101Y-114300
X175641Y-96520
X175641Y-99060
X175641Y-111760
X175641Y-114300
X178181Y-96520
X178181Y-99060
X178181Y-101600
X178181Y-104140
X178181Y-106680
X178181Y-109220
X178181Y-111760
X178181Y-114300
X180721Y-99060
X180721Y-101600
X180721Y-104140
X180721Y-106680
X180721Y-109220
X180721Y-111760
X154686Y-52444
X154686Y-59944
X194310Y-48895
X194310Y-51435
X194310Y-53975
X194310Y-56515
X194310Y-59055
X194310Y-61595
X194310Y-64135
X194310Y-66675
X201930Y-48895
X201930Y-51435
X201930Y-53975
X201930Y-56515
X201930Y-59055
X201930Y-61595
X201930Y-64135
X201930Y-66675
X154686Y-80384
X154686Y-87884
X188976Y-38474
X188976Y-45974
X121920Y-35560
X121920Y-38100
X121920Y-40640
X121920Y-43180
X121920Y-45720
X121920Y-48260
X121920Y-50800
X121920Y-53340
X121920Y-55880
X121920Y-58420
X121920Y-60960
X121920Y-63500
X121920Y-66040
X121920Y-68580
X121920Y-71120
X121920Y-73660
X121920Y-76200
X121920Y-78740
X121920Y-81280
X121920Y-83820
X121920Y-86360
X121920Y-88900
X121920Y-91440
X121920Y-93980
X121920Y-96520
X121920Y-99060
X121920Y-101600
X121920Y-104140
X121920Y-106680
X121920Y-109220
X121920Y-111760
X121920Y-114300
X144780Y-35560
X144780Y-38100
X144780Y-40640
X144780Y-43180
X144780Y-45720
X144780Y-48260
X144780Y-50800
X144780Y-53340
X144780Y-55880
X144780Y-58420
X144780Y-60960
X144780Y-63500
X144780Y-66040
X144780Y-68580
X144780Y-71120
X144780Y-73660
X144780Y-76200
X144780Y-78740
X144780Y-81280
X144780Y-83820
X144780Y-86360
X144780Y-88900
X144780Y-91440
X144780Y-93980
X144780Y-96520
X144780Y-99060
X144780Y-101600
X144780Y-104140
X144780Y-106680
X144780Y-109220
X144780Y-111760
X144780Y-114300
X154686Y-66414
X154686Y-73914
X185801Y-96520
X185801Y-104140
X126365Y-35560
X126365Y-38100
X126365Y-40640
X126365Y-43180
X126365Y-45720
X126365Y-48260
X126365Y-50800
X126365Y-53340
X126365Y-55880
X126365Y-58420
X126365Y-60960
X126365Y-63500
X126365Y-66040
X126365Y-68580
X126365Y-71120
X126365Y-73660
X126365Y-76200
X126365Y-78740
X126365Y-81280
X126365Y-83820
X126365Y-86360
X126365Y-88900
X126365Y-91440
X126365Y-93980
X126365Y-96520
X126365Y-99060
X126365Y-101600
X126365Y-104140
X126365Y-106680
X126365Y-109220
X126365Y-111760
X126365Y-114300
X149225Y-35560
X149225Y-38100
X149225Y-40640
X149225Y-43180
X149225Y-45720
X149225Y-48260
X149225Y-50800
X149225Y-53340
X149225Y-55880
X149225Y-58420
X149225Y-60960
X149225Y-63500
X149225Y-66040
X149225Y-68580
X149225Y-71120
X149225Y-73660
X149225Y-76200
X149225Y-78740
X149225Y-81280
X149225Y-83820
X149225Y-86360
X149225Y-88900
X149225Y-91440
X149225Y-93980
X149225Y-96520
X149225Y-99060
X149225Y-101600
X149225Y-104140
X149225Y-106680
X149225Y-109220
X149225Y-111760
X149225Y-114300
X188976Y-52444
X188976Y-59944
X157861Y-96647
X157861Y-104147
X194310Y-70104
X194310Y-72644
X194310Y-75184
X194310Y-77724
X194310Y-80264
X194310Y-82804
X194310Y-85344
X194310Y-87884
X201930Y-70104
X201930Y-72644
X201930Y-75184
X201930Y-77724
X201930Y-80264
X201930Y-82804
X201930Y-85344
X201930Y-87884
X188976Y-66414
X188976Y-73914
X181483Y-33020
X188983Y-33020
T4
X196850Y-101600
X196850Y-104140
X196850Y-106680
X196850Y-109220
X196850Y-111760
X199390Y-101600
X199390Y-104140
X199390Y-106680
X199390Y-109220
X199390Y-111760
T0
M30
