G04 #@! TF.GenerationSoftware,KiCad,Pcbnew,(5.1.2-1)-1*
G04 #@! TF.CreationDate,2019-06-08T16:08:17+01:00*
G04 #@! TF.ProjectId,A500 FastRAM,41353030-2046-4617-9374-52414d2e6b69,rev?*
G04 #@! TF.SameCoordinates,Original*
G04 #@! TF.FileFunction,Copper,L3,Inr*
G04 #@! TF.FilePolarity,Positive*
%FSLAX46Y46*%
G04 Gerber Fmt 4.6, Leading zero omitted, Abs format (unit mm)*
G04 Created by KiCad (PCBNEW (5.1.2-1)-1) date 2019-06-08 16:08:17*
%MOMM*%
%LPD*%
G04 APERTURE LIST*
%ADD10R,1.700000X1.700000*%
%ADD11O,1.700000X1.700000*%
%ADD12R,2.400000X1.600000*%
%ADD13O,2.400000X1.600000*%
%ADD14C,1.422400*%
%ADD15R,1.422400X1.422400*%
%ADD16C,0.800000*%
%ADD17C,0.600000*%
%ADD18C,0.381000*%
%ADD19C,0.250000*%
G04 APERTURE END LIST*
D10*
X145796000Y-37528500D03*
D11*
X143256000Y-37528500D03*
X140716000Y-37528500D03*
X138176000Y-37528500D03*
X135636000Y-37528500D03*
X133096000Y-37528500D03*
D10*
X133985000Y-153035000D03*
D11*
X136525000Y-153035000D03*
X139065000Y-153035000D03*
D12*
X99695000Y-73660000D03*
D13*
X99695000Y-76200000D03*
X99695000Y-78740000D03*
X99695000Y-81280000D03*
X99695000Y-83820000D03*
X99695000Y-86360000D03*
X99695000Y-88900000D03*
X99695000Y-91440000D03*
X99695000Y-93980000D03*
X99695000Y-96520000D03*
X99695000Y-99060000D03*
X99695000Y-101600000D03*
X99695000Y-104140000D03*
X99695000Y-106680000D03*
X99695000Y-109220000D03*
X99695000Y-111760000D03*
X99695000Y-114300000D03*
X99695000Y-116840000D03*
X99695000Y-119380000D03*
X99695000Y-121920000D03*
X99695000Y-124460000D03*
X99695000Y-127000000D03*
X99695000Y-129540000D03*
X99695000Y-132080000D03*
X99695000Y-134620000D03*
X99695000Y-137160000D03*
X99695000Y-139700000D03*
X99695000Y-142240000D03*
X99695000Y-144780000D03*
X99695000Y-147320000D03*
X99695000Y-149860000D03*
X99695000Y-152400000D03*
X125095000Y-152400000D03*
X125095000Y-149860000D03*
X125095000Y-147320000D03*
X125095000Y-144780000D03*
X125095000Y-142240000D03*
X125095000Y-139700000D03*
X125095000Y-137160000D03*
X125095000Y-134620000D03*
X125095000Y-132080000D03*
X125095000Y-129540000D03*
X125095000Y-127000000D03*
X125095000Y-124460000D03*
X125095000Y-121920000D03*
X125095000Y-119380000D03*
X125095000Y-116840000D03*
X125095000Y-114300000D03*
X125095000Y-111760000D03*
X125095000Y-109220000D03*
X125095000Y-106680000D03*
X125095000Y-104140000D03*
X125095000Y-101600000D03*
X125095000Y-99060000D03*
X125095000Y-96520000D03*
X125095000Y-93980000D03*
X125095000Y-91440000D03*
X125095000Y-88900000D03*
X125095000Y-86360000D03*
X125095000Y-83820000D03*
X125095000Y-81280000D03*
X125095000Y-78740000D03*
X125095000Y-76200000D03*
X125095000Y-73660000D03*
D14*
X114935000Y-43180000D03*
X112395000Y-43180000D03*
X109855000Y-43180000D03*
X107315000Y-43180000D03*
X117475000Y-43180000D03*
X120015000Y-43180000D03*
X122555000Y-43180000D03*
X125095000Y-43180000D03*
D15*
X114935000Y-40640000D03*
D14*
X112395000Y-40640000D03*
X109855000Y-40640000D03*
X107315000Y-40640000D03*
X104775000Y-40640000D03*
X117475000Y-40640000D03*
X120015000Y-40640000D03*
X122555000Y-40640000D03*
X104775000Y-43180000D03*
X104775000Y-45720000D03*
X104775000Y-48260000D03*
X104775000Y-50800000D03*
X104775000Y-53340000D03*
X104775000Y-55880000D03*
X104775000Y-58420000D03*
X104775000Y-60960000D03*
X102235000Y-43180000D03*
X102235000Y-45720000D03*
X102235000Y-48260000D03*
X102235000Y-50800000D03*
X102235000Y-53340000D03*
X102235000Y-55880000D03*
X102235000Y-58420000D03*
X102235000Y-60960000D03*
X102235000Y-63500000D03*
X104775000Y-63500000D03*
X107315000Y-63500000D03*
X109855000Y-63500000D03*
X112395000Y-63500000D03*
X114935000Y-63500000D03*
X117475000Y-63500000D03*
X120015000Y-63500000D03*
X122555000Y-63500000D03*
X127635000Y-63500000D03*
X104775000Y-66040000D03*
X107315000Y-66040000D03*
X109855000Y-66040000D03*
X112395000Y-66040000D03*
X114935000Y-66040000D03*
X117475000Y-66040000D03*
X120015000Y-66040000D03*
X122555000Y-66040000D03*
X125095000Y-66040000D03*
X125095000Y-63500000D03*
X125095000Y-60960000D03*
X125095000Y-58420000D03*
X125095000Y-55880000D03*
X125095000Y-53340000D03*
X125095000Y-50800000D03*
X125095000Y-48260000D03*
X125095000Y-45720000D03*
X125095000Y-40640000D03*
X127635000Y-60960000D03*
X127635000Y-58420000D03*
X127635000Y-55880000D03*
X127635000Y-53340000D03*
X127635000Y-50800000D03*
X127635000Y-48260000D03*
X127635000Y-45720000D03*
X127635000Y-43180000D03*
D16*
X133646900Y-101567000D03*
X108275400Y-118009100D03*
X108288500Y-105524100D03*
X147788900Y-76261900D03*
X138027400Y-76889800D03*
X148184600Y-107950000D03*
X148590000Y-123335300D03*
D17*
X141608400Y-89862600D03*
X145383700Y-83669600D03*
X136523400Y-88200000D03*
X138220700Y-71724000D03*
X153794300Y-51341000D03*
X115979200Y-52641800D03*
X153645800Y-134867600D03*
X153643500Y-107023700D03*
X153808100Y-77548300D03*
X140176000Y-93965000D03*
X140124700Y-67500500D03*
X150912400Y-76073800D03*
X149989100Y-44470400D03*
X153648000Y-132297500D03*
X150915300Y-103705300D03*
X114707600Y-54864600D03*
X140193400Y-64324400D03*
X141265300Y-83631900D03*
X153624400Y-75065800D03*
X153643000Y-46897000D03*
X153645200Y-131129100D03*
X153643500Y-103521000D03*
X135176600Y-51257900D03*
X150898600Y-102400300D03*
X150921400Y-129759800D03*
X151070500Y-74262300D03*
X150891600Y-44271500D03*
X135167100Y-54267400D03*
X153494900Y-72997500D03*
X150945000Y-43343800D03*
X153448900Y-127650200D03*
X153641100Y-99970900D03*
X140109100Y-55513000D03*
X121403000Y-78745900D03*
X140333600Y-52063500D03*
X139684400Y-53251400D03*
X140097000Y-56566000D03*
X150893600Y-142423700D03*
X150567700Y-113994200D03*
X148895400Y-94839900D03*
X135083700Y-56511000D03*
X134627500Y-58799600D03*
X130183600Y-61380300D03*
X135061900Y-69503400D03*
X134022200Y-67500500D03*
X135228500Y-90970400D03*
X133413400Y-63690500D03*
X134514800Y-91431300D03*
X113360100Y-146050000D03*
X138453100Y-78835200D03*
X109920000Y-84254200D03*
X108332300Y-139653900D03*
X132179000Y-91931500D03*
X134776200Y-88706000D03*
X160120300Y-128319800D03*
X158337000Y-100571900D03*
X134822400Y-87455300D03*
X158199900Y-72354100D03*
X157820600Y-46968900D03*
X159291000Y-73359300D03*
X134822400Y-86654900D03*
X159421400Y-46971800D03*
X160293300Y-129755400D03*
X159237600Y-101642900D03*
X128257400Y-83765400D03*
X160083000Y-131414800D03*
X158734400Y-102574700D03*
X158621000Y-47101900D03*
X158650200Y-74755500D03*
X159603000Y-76046500D03*
X134820200Y-80030100D03*
X160505600Y-132719100D03*
X160294900Y-105068900D03*
X159421400Y-48222500D03*
X159805700Y-78290300D03*
X157810900Y-96705900D03*
X160325400Y-49702100D03*
X160315200Y-134850200D03*
X160361700Y-50964700D03*
X159967300Y-83201000D03*
X159999000Y-81991800D03*
X160440000Y-52162700D03*
X109764500Y-93694800D03*
X142853100Y-91132900D03*
X159910200Y-80978900D03*
X114353400Y-93812700D03*
X142430000Y-93965000D03*
X148417600Y-57492600D03*
X150898900Y-139576400D03*
X150543100Y-111543600D03*
X148594300Y-84350300D03*
X141630000Y-91443000D03*
X139345000Y-62944300D03*
X150905900Y-137456900D03*
X150892100Y-110033700D03*
X150140700Y-54414300D03*
X150314200Y-83164800D03*
X138838800Y-68142900D03*
X140728200Y-86110500D03*
X149177000Y-54376300D03*
X149805300Y-78888000D03*
X149990400Y-109931700D03*
X138692700Y-61283700D03*
X145534600Y-89265400D03*
X137663400Y-131373800D03*
X115721900Y-119832200D03*
X137952800Y-82584500D03*
X137930700Y-84314700D03*
X141591600Y-89062200D03*
X113242300Y-88109400D03*
X160312300Y-86339600D03*
X159147600Y-67844900D03*
X143098700Y-80219700D03*
X163027300Y-114951000D03*
X160458500Y-142951400D03*
X151101500Y-144179900D03*
X142713600Y-83063200D03*
X154284500Y-60776000D03*
X153957600Y-83517800D03*
X150439200Y-87290600D03*
X145413000Y-85395000D03*
X150559000Y-114943400D03*
X145388800Y-84532300D03*
X160394500Y-57040800D03*
X160302400Y-113729500D03*
X160321700Y-141174600D03*
X160258600Y-84488000D03*
X147030200Y-83063200D03*
X138123400Y-79995500D03*
X102651300Y-71426300D03*
D16*
X139430200Y-127351700D03*
X139000000Y-140689100D03*
X119089100Y-107971300D03*
D17*
X157311500Y-70541800D03*
X143103700Y-70040500D03*
X157886700Y-95528800D03*
X160309200Y-151500200D03*
X160064000Y-124005500D03*
X150182500Y-65600100D03*
X150669600Y-89686700D03*
X160120400Y-122339300D03*
X159593600Y-140053600D03*
X159687900Y-93894700D03*
X160462500Y-66002800D03*
X143123200Y-66230500D03*
X153530800Y-95920800D03*
X152641400Y-69747500D03*
X159776000Y-144769500D03*
X162872200Y-119437900D03*
X163026800Y-91049400D03*
X140801500Y-58611000D03*
X160296300Y-62881000D03*
X160291600Y-145792300D03*
X163052400Y-117491000D03*
X163034100Y-89044500D03*
X160317700Y-60877800D03*
X143104400Y-54260200D03*
X163035300Y-92680300D03*
X139096700Y-57197700D03*
X160314700Y-64057000D03*
X160503200Y-149241900D03*
X163164400Y-120964100D03*
X160465000Y-146733000D03*
X163038000Y-118590000D03*
X160284400Y-61678200D03*
X143098100Y-57785000D03*
X163028200Y-90141700D03*
X153626000Y-147659500D03*
X150881000Y-91829500D03*
X136511600Y-84908200D03*
X153648400Y-91620800D03*
X155033200Y-84782400D03*
X136577500Y-83406000D03*
X97062200Y-49417100D03*
X132251500Y-116469600D03*
X132556400Y-130530000D03*
X132528600Y-134620000D03*
X107592300Y-140750200D03*
X107444400Y-142348300D03*
X137502500Y-132416700D03*
X138684400Y-137965900D03*
X137756700Y-73072800D03*
X132739900Y-118095800D03*
X116793300Y-102978100D03*
X115579700Y-67470400D03*
X117913800Y-129406500D03*
X109855500Y-57866900D03*
X106883300Y-126253600D03*
X103117800Y-122632600D03*
X132530500Y-132080000D03*
X116348600Y-147425300D03*
X137687200Y-135221600D03*
X135334700Y-146026900D03*
X135533400Y-129358700D03*
X113029900Y-127741000D03*
X111252700Y-111184500D03*
X111627200Y-123999900D03*
X112175200Y-98854400D03*
X111574600Y-113417300D03*
X115490200Y-107611000D03*
X111847400Y-97690800D03*
X113378900Y-102498600D03*
X132570300Y-128467000D03*
X111328000Y-105264200D03*
X131078600Y-117305700D03*
X112872400Y-100225000D03*
X110588200Y-93782800D03*
X110348700Y-120249500D03*
X112165100Y-96409000D03*
X116175100Y-99067900D03*
D18*
X133096000Y-38769300D02*
X136653300Y-42326600D01*
X136653300Y-42326600D02*
X136653300Y-75515700D01*
X136653300Y-75515700D02*
X138027400Y-76889800D01*
X133096000Y-37528500D02*
X133096000Y-38769300D01*
D19*
X138176000Y-38703800D02*
X137585900Y-39293900D01*
X137585900Y-39293900D02*
X137585900Y-71977500D01*
X137585900Y-71977500D02*
X139580700Y-73972300D01*
X139580700Y-73972300D02*
X139580700Y-87935600D01*
X139580700Y-87935600D02*
X141507700Y-89862600D01*
X141507700Y-89862600D02*
X141608400Y-89862600D01*
X138176000Y-37528500D02*
X138176000Y-38703800D01*
X140716000Y-37528500D02*
X140716000Y-38703800D01*
X140716000Y-38703800D02*
X145383700Y-43371500D01*
X145383700Y-43371500D02*
X145383700Y-83669600D01*
X136523400Y-88200000D02*
X136523400Y-85979800D01*
X136523400Y-85979800D02*
X135886300Y-85342700D01*
X135886300Y-85342700D02*
X135886300Y-81448000D01*
X135886300Y-81448000D02*
X136404700Y-80929600D01*
X136404700Y-80929600D02*
X136404700Y-78831400D01*
X136404700Y-78831400D02*
X136137500Y-78564200D01*
X136137500Y-78564200D02*
X136137500Y-61949400D01*
X136137500Y-61949400D02*
X131920600Y-57732500D01*
X131920600Y-57732500D02*
X131920600Y-37030900D01*
X131920600Y-37030900D02*
X133123500Y-35828000D01*
X133123500Y-35828000D02*
X143217800Y-35828000D01*
X143217800Y-35828000D02*
X144620700Y-37230900D01*
X144620700Y-37230900D02*
X144620700Y-37528500D01*
X145796000Y-37528500D02*
X144620700Y-37528500D01*
X143256000Y-37528500D02*
X142080700Y-37528500D01*
X142080700Y-37528500D02*
X142080700Y-37161200D01*
X142080700Y-37161200D02*
X141250500Y-36331000D01*
X141250500Y-36331000D02*
X140235000Y-36331000D01*
X140235000Y-36331000D02*
X139446000Y-37120000D01*
X139446000Y-37120000D02*
X139446000Y-38158700D01*
X139446000Y-38158700D02*
X138042200Y-39562500D01*
X138042200Y-39562500D02*
X138042200Y-71545500D01*
X138042200Y-71545500D02*
X138220700Y-71724000D01*
X153794300Y-51341000D02*
X153624900Y-51510400D01*
X153624900Y-51510400D02*
X153624900Y-66262500D01*
X153624900Y-66262500D02*
X154580900Y-67218500D01*
X154580900Y-67218500D02*
X154580900Y-76775500D01*
X154580900Y-76775500D02*
X153808100Y-77548300D01*
X153643500Y-107023700D02*
X154800800Y-105866400D01*
X154800800Y-105866400D02*
X154800800Y-85612600D01*
X154800800Y-85612600D02*
X153332200Y-84144000D01*
X153332200Y-84144000D02*
X153332200Y-78024200D01*
X153332200Y-78024200D02*
X153808100Y-77548300D01*
X114935000Y-41676500D02*
X115979200Y-42720700D01*
X115979200Y-42720700D02*
X115979200Y-52641800D01*
X114935000Y-40640000D02*
X114935000Y-41676500D01*
X140124700Y-67500500D02*
X140613800Y-67989600D01*
X140613800Y-67989600D02*
X140613800Y-84256400D01*
X140613800Y-84256400D02*
X142239600Y-85882200D01*
X142239600Y-85882200D02*
X142239600Y-90115800D01*
X142239600Y-90115800D02*
X141867500Y-90487900D01*
X141867500Y-90487900D02*
X141636400Y-90487900D01*
X141636400Y-90487900D02*
X140176000Y-91948300D01*
X140176000Y-91948300D02*
X140176000Y-93965000D01*
X126620300Y-152400000D02*
X128430700Y-154210400D01*
X128430700Y-154210400D02*
X135053500Y-154210400D01*
X135053500Y-154210400D02*
X135160400Y-154103500D01*
X135160400Y-154103500D02*
X135160400Y-152499400D01*
X135160400Y-152499400D02*
X140176000Y-147483800D01*
X140176000Y-147483800D02*
X140176000Y-93965000D01*
X125095000Y-152400000D02*
X126620300Y-152400000D01*
X114935000Y-43180000D02*
X114707600Y-43407400D01*
X114707600Y-43407400D02*
X114707600Y-54864600D01*
X150912400Y-76073800D02*
X150445100Y-75606500D01*
X150445100Y-75606500D02*
X150445100Y-73974900D01*
X150445100Y-73974900D02*
X150811200Y-73608800D01*
X150811200Y-73608800D02*
X150811200Y-45292500D01*
X150811200Y-45292500D02*
X149989100Y-44470400D01*
X150915300Y-103705300D02*
X150255500Y-103045500D01*
X150255500Y-103045500D02*
X150255500Y-102088300D01*
X150255500Y-102088300D02*
X151530900Y-100812900D01*
X151530900Y-100812900D02*
X151530900Y-76692300D01*
X151530900Y-76692300D02*
X150912400Y-76073800D01*
X153648000Y-132297500D02*
X152557300Y-131206800D01*
X152557300Y-131206800D02*
X152557300Y-113151100D01*
X152557300Y-113151100D02*
X152488600Y-113082400D01*
X152488600Y-113082400D02*
X152488600Y-105278600D01*
X152488600Y-105278600D02*
X150915300Y-103705300D01*
X140193400Y-64324400D02*
X141064100Y-65195100D01*
X141064100Y-65195100D02*
X141064100Y-83430700D01*
X141064100Y-83430700D02*
X141265300Y-83631900D01*
X125095000Y-149860000D02*
X123569700Y-149860000D01*
X117475000Y-66040000D02*
X118003800Y-66568800D01*
X118003800Y-66568800D02*
X118003800Y-127986800D01*
X118003800Y-127986800D02*
X118557200Y-128540200D01*
X118557200Y-128540200D02*
X118557200Y-144847500D01*
X118557200Y-144847500D02*
X123569700Y-149860000D01*
X153624400Y-75065800D02*
X154123400Y-74566800D01*
X154123400Y-74566800D02*
X154123400Y-69466600D01*
X154123400Y-69466600D02*
X153140300Y-68483500D01*
X153140300Y-68483500D02*
X153140300Y-47399700D01*
X153140300Y-47399700D02*
X153643000Y-46897000D01*
X125095000Y-147320000D02*
X123569700Y-147320000D01*
X117475000Y-63500000D02*
X118519500Y-64544500D01*
X118519500Y-64544500D02*
X118519500Y-77832600D01*
X118519500Y-77832600D02*
X119868600Y-79181700D01*
X119868600Y-79181700D02*
X119868600Y-143618900D01*
X119868600Y-143618900D02*
X123569700Y-147320000D01*
X151070500Y-74262300D02*
X151276300Y-74056500D01*
X151276300Y-74056500D02*
X151276300Y-44656200D01*
X151276300Y-44656200D02*
X150891600Y-44271500D01*
X150898600Y-102400300D02*
X151981300Y-101317600D01*
X151981300Y-101317600D02*
X151981300Y-75173100D01*
X151981300Y-75173100D02*
X151070500Y-74262300D01*
X123569700Y-144780000D02*
X120408500Y-141618800D01*
X120408500Y-141618800D02*
X120408500Y-78820500D01*
X120408500Y-78820500D02*
X124372900Y-74856100D01*
X124372900Y-74856100D02*
X125890500Y-74856100D01*
X125890500Y-74856100D02*
X126621600Y-74125000D01*
X126621600Y-74125000D02*
X126621600Y-73181500D01*
X126621600Y-73181500D02*
X120015000Y-66574900D01*
X120015000Y-66574900D02*
X120015000Y-66040000D01*
X125095000Y-144780000D02*
X123569700Y-144780000D01*
X153641100Y-99970900D02*
X154298200Y-99313800D01*
X154298200Y-99313800D02*
X154298200Y-85846400D01*
X154298200Y-85846400D02*
X152881900Y-84430100D01*
X152881900Y-84430100D02*
X152881900Y-73456300D01*
X152881900Y-73456300D02*
X153340700Y-72997500D01*
X153448900Y-127650200D02*
X153448900Y-113405800D01*
X153448900Y-113405800D02*
X152969500Y-112926400D01*
X152969500Y-112926400D02*
X152969500Y-100642500D01*
X152969500Y-100642500D02*
X153641100Y-99970900D01*
X150945000Y-43343800D02*
X152522300Y-44921100D01*
X152522300Y-44921100D02*
X152522300Y-68744000D01*
X152522300Y-68744000D02*
X153340700Y-69562400D01*
X153340700Y-69562400D02*
X153340700Y-72997500D01*
X153340700Y-72997500D02*
X153494900Y-72997500D01*
X121403000Y-78745900D02*
X120858800Y-79290100D01*
X120858800Y-79290100D02*
X120858800Y-139529100D01*
X120858800Y-139529100D02*
X123569700Y-142240000D01*
X125095000Y-142240000D02*
X123569700Y-142240000D01*
X122555000Y-66040000D02*
X122555000Y-66612300D01*
X122555000Y-66612300D02*
X127982200Y-72039500D01*
X127982200Y-72039500D02*
X127982200Y-82519400D01*
X127982200Y-82519400D02*
X127181800Y-83319800D01*
X127181800Y-83319800D02*
X127181800Y-83724800D01*
X127181800Y-83724800D02*
X125816600Y-85090000D01*
X125816600Y-85090000D02*
X124368400Y-85090000D01*
X124368400Y-85090000D02*
X121309100Y-88149300D01*
X121309100Y-88149300D02*
X121309100Y-137439400D01*
X121309100Y-137439400D02*
X123569700Y-139700000D01*
X125095000Y-139700000D02*
X123569700Y-139700000D01*
X122555000Y-63500000D02*
X123825000Y-64770000D01*
X123825000Y-64770000D02*
X123825000Y-67207000D01*
X123825000Y-67207000D02*
X128432500Y-71814500D01*
X128432500Y-71814500D02*
X128432500Y-82706000D01*
X128432500Y-82706000D02*
X127632100Y-83506400D01*
X127632100Y-83506400D02*
X127632100Y-88367200D01*
X127632100Y-88367200D02*
X125829300Y-90170000D01*
X125829300Y-90170000D02*
X124372800Y-90170000D01*
X124372800Y-90170000D02*
X121759400Y-92783400D01*
X121759400Y-92783400D02*
X121759400Y-135349700D01*
X121759400Y-135349700D02*
X123569700Y-137160000D01*
X125095000Y-137160000D02*
X123569700Y-137160000D01*
X125095000Y-66040000D02*
X128882800Y-69827800D01*
X128882800Y-69827800D02*
X128882800Y-99877600D01*
X128882800Y-99877600D02*
X125890400Y-102870000D01*
X125890400Y-102870000D02*
X124353800Y-102870000D01*
X124353800Y-102870000D02*
X122209700Y-105014100D01*
X122209700Y-105014100D02*
X122209700Y-133260000D01*
X122209700Y-133260000D02*
X123569700Y-134620000D01*
X125095000Y-134620000D02*
X123569700Y-134620000D01*
X104775000Y-40640000D02*
X102593000Y-40640000D01*
X102593000Y-40640000D02*
X97708300Y-45524700D01*
X97708300Y-45524700D02*
X97708300Y-93518600D01*
X97708300Y-93518600D02*
X98169700Y-93980000D01*
X99695000Y-93980000D02*
X98169700Y-93980000D01*
X126620300Y-132080000D02*
X126620300Y-129033700D01*
X126620300Y-129033700D02*
X125856600Y-128270000D01*
X125856600Y-128270000D02*
X124366100Y-128270000D01*
X124366100Y-128270000D02*
X123113700Y-127017600D01*
X123113700Y-127017600D02*
X123113700Y-114286000D01*
X123113700Y-114286000D02*
X124369700Y-113030000D01*
X124369700Y-113030000D02*
X125820600Y-113030000D01*
X125820600Y-113030000D02*
X130755700Y-108094900D01*
X130755700Y-108094900D02*
X130755700Y-66620700D01*
X130755700Y-66620700D02*
X127635000Y-63500000D01*
X125095000Y-132080000D02*
X126620300Y-132080000D01*
X125095000Y-129540000D02*
X123569700Y-129540000D01*
X125095000Y-63500000D02*
X125095000Y-63678600D01*
X125095000Y-63678600D02*
X129814000Y-68397600D01*
X129814000Y-68397600D02*
X129814000Y-103993400D01*
X129814000Y-103993400D02*
X125857400Y-107950000D01*
X125857400Y-107950000D02*
X124356000Y-107950000D01*
X124356000Y-107950000D02*
X122660100Y-109645900D01*
X122660100Y-109645900D02*
X122660100Y-128630400D01*
X122660100Y-128630400D02*
X123569700Y-129540000D01*
X130183600Y-61380300D02*
X132349600Y-63546300D01*
X132349600Y-63546300D02*
X132349600Y-90221400D01*
X132349600Y-90221400D02*
X132804400Y-90676200D01*
X132804400Y-90676200D02*
X132804400Y-111303400D01*
X132804400Y-111303400D02*
X126071700Y-118036100D01*
X126071700Y-118036100D02*
X124418700Y-118036100D01*
X124418700Y-118036100D02*
X123564100Y-118890700D01*
X123564100Y-118890700D02*
X123564100Y-125469100D01*
X123564100Y-125469100D02*
X125095000Y-127000000D01*
X126620300Y-124460000D02*
X126620300Y-123327800D01*
X126620300Y-123327800D02*
X135864100Y-114084000D01*
X135864100Y-114084000D02*
X135864100Y-90455700D01*
X135864100Y-90455700D02*
X135447700Y-90039300D01*
X135447700Y-90039300D02*
X135447700Y-86177900D01*
X135447700Y-86177900D02*
X134985700Y-85715900D01*
X134985700Y-85715900D02*
X134985700Y-81074800D01*
X134985700Y-81074800D02*
X135449900Y-80610600D01*
X135449900Y-80610600D02*
X135449900Y-79449700D01*
X135449900Y-79449700D02*
X135061900Y-79061700D01*
X135061900Y-79061700D02*
X135061900Y-69503400D01*
X125095000Y-124460000D02*
X126620300Y-124460000D01*
X135140200Y-90970400D02*
X135140200Y-111874800D01*
X135140200Y-111874800D02*
X126620300Y-120394700D01*
X126620300Y-120394700D02*
X126620300Y-121920000D01*
X134022200Y-67500500D02*
X133700600Y-67822100D01*
X133700600Y-67822100D02*
X133700600Y-89530800D01*
X133700600Y-89530800D02*
X135140200Y-90970400D01*
X135228500Y-90970400D02*
X135140200Y-90970400D01*
X125095000Y-121920000D02*
X126620300Y-121920000D01*
X134514800Y-91431300D02*
X134514800Y-111485500D01*
X134514800Y-111485500D02*
X126620300Y-119380000D01*
X133413400Y-63690500D02*
X133232700Y-63871200D01*
X133232700Y-63871200D02*
X133232700Y-90149200D01*
X133232700Y-90149200D02*
X134514800Y-91431300D01*
X125095000Y-119380000D02*
X126620300Y-119380000D01*
X126620300Y-116840000D02*
X131216000Y-112244300D01*
X131216000Y-112244300D02*
X131216000Y-66444100D01*
X131216000Y-66444100D02*
X129063400Y-64291500D01*
X129063400Y-64291500D02*
X129063400Y-57308400D01*
X129063400Y-57308400D02*
X127635000Y-55880000D01*
X125095000Y-116840000D02*
X126620300Y-116840000D01*
X132179000Y-91931500D02*
X131809800Y-91562300D01*
X131809800Y-91562300D02*
X131809800Y-65527600D01*
X131809800Y-65527600D02*
X129558300Y-63276100D01*
X129558300Y-63276100D02*
X129558300Y-53711900D01*
X129558300Y-53711900D02*
X128068400Y-52222000D01*
X128068400Y-52222000D02*
X127535100Y-52222000D01*
X127535100Y-52222000D02*
X126131600Y-50818500D01*
X126131600Y-50818500D02*
X126131600Y-50309200D01*
X126131600Y-50309200D02*
X125547200Y-49724800D01*
X125547200Y-49724800D02*
X124689900Y-49724800D01*
X124689900Y-49724800D02*
X123542100Y-50872600D01*
X123542100Y-50872600D02*
X123542100Y-54327100D01*
X123542100Y-54327100D02*
X125095000Y-55880000D01*
X126620300Y-109220000D02*
X130279000Y-105561300D01*
X130279000Y-105561300D02*
X130279000Y-68225700D01*
X130279000Y-68225700D02*
X126594300Y-64541000D01*
X126594300Y-64541000D02*
X126594300Y-54839300D01*
X126594300Y-54839300D02*
X125095000Y-53340000D01*
X125095000Y-109220000D02*
X126620300Y-109220000D01*
X134776200Y-88706000D02*
X134601100Y-88530900D01*
X134601100Y-88530900D02*
X134601100Y-88118200D01*
X134601100Y-88118200D02*
X134601000Y-88118200D01*
X134601000Y-88118200D02*
X134160800Y-87678000D01*
X134160800Y-87678000D02*
X134160800Y-68449000D01*
X134160800Y-68449000D02*
X134647500Y-67962300D01*
X134647500Y-67962300D02*
X134647500Y-63998700D01*
X134647500Y-63998700D02*
X130597100Y-59948300D01*
X130597100Y-59948300D02*
X130597100Y-53762100D01*
X130597100Y-53762100D02*
X127635000Y-50800000D01*
X125095000Y-50800000D02*
X124048100Y-51846900D01*
X124048100Y-51846900D02*
X124048100Y-53776700D01*
X124048100Y-53776700D02*
X124881400Y-54610000D01*
X124881400Y-54610000D02*
X125300900Y-54610000D01*
X125300900Y-54610000D02*
X126143900Y-55453000D01*
X126143900Y-55453000D02*
X126143900Y-61413400D01*
X126143900Y-61413400D02*
X125327300Y-62230000D01*
X125327300Y-62230000D02*
X124844600Y-62230000D01*
X124844600Y-62230000D02*
X124058400Y-63016200D01*
X124058400Y-63016200D02*
X124058400Y-63951900D01*
X124058400Y-63951900D02*
X124961700Y-64855200D01*
X124961700Y-64855200D02*
X125376200Y-64855200D01*
X125376200Y-64855200D02*
X129333200Y-68812200D01*
X129333200Y-68812200D02*
X129333200Y-101427100D01*
X129333200Y-101427100D02*
X126620300Y-104140000D01*
X125095000Y-104140000D02*
X126620300Y-104140000D01*
X158199900Y-72354100D02*
X157829500Y-72724500D01*
X157829500Y-72724500D02*
X157829500Y-94194400D01*
X157829500Y-94194400D02*
X158512100Y-94877000D01*
X158512100Y-94877000D02*
X158512100Y-100396800D01*
X158512100Y-100396800D02*
X158337000Y-100571900D01*
X157820600Y-46968900D02*
X157497500Y-47292000D01*
X157497500Y-47292000D02*
X157497500Y-68999800D01*
X157497500Y-68999800D02*
X158199900Y-69702200D01*
X158199900Y-69702200D02*
X158199900Y-72354100D01*
X158337000Y-100571900D02*
X158106800Y-100802100D01*
X158106800Y-100802100D02*
X158106800Y-121266800D01*
X158106800Y-121266800D02*
X160093100Y-123253100D01*
X160093100Y-123253100D02*
X160210700Y-123253100D01*
X160210700Y-123253100D02*
X160689400Y-123731800D01*
X160689400Y-123731800D02*
X160689400Y-127750700D01*
X160689400Y-127750700D02*
X160120300Y-128319800D01*
X159275600Y-73359300D02*
X159275600Y-75043700D01*
X159275600Y-75043700D02*
X158730100Y-75589200D01*
X158730100Y-75589200D02*
X158730100Y-93821200D01*
X158730100Y-93821200D02*
X159412700Y-94503800D01*
X159412700Y-94503800D02*
X159412700Y-101467800D01*
X159412700Y-101467800D02*
X159237600Y-101642900D01*
X159421400Y-46971800D02*
X159421400Y-47272600D01*
X159421400Y-47272600D02*
X158490300Y-48203700D01*
X158490300Y-48203700D02*
X158490300Y-68443000D01*
X158490300Y-68443000D02*
X159275600Y-69228300D01*
X159275600Y-69228300D02*
X159275600Y-73359300D01*
X159275600Y-73359300D02*
X159291000Y-73359300D01*
X158650200Y-74755500D02*
X158279800Y-75125900D01*
X158279800Y-75125900D02*
X158279800Y-94007800D01*
X158279800Y-94007800D02*
X158962400Y-94690400D01*
X158962400Y-94690400D02*
X158962400Y-101033800D01*
X158962400Y-101033800D02*
X158612300Y-101383900D01*
X158612300Y-101383900D02*
X158612300Y-102452600D01*
X158612300Y-102452600D02*
X158734400Y-102574700D01*
X128257400Y-83765400D02*
X128257400Y-92342900D01*
X128257400Y-92342900D02*
X126620300Y-93980000D01*
X125095000Y-93980000D02*
X126620300Y-93980000D01*
X158621000Y-47101900D02*
X157962300Y-47760600D01*
X157962300Y-47760600D02*
X157962300Y-68552000D01*
X157962300Y-68552000D02*
X158825300Y-69415000D01*
X158825300Y-69415000D02*
X158825300Y-72730000D01*
X158825300Y-72730000D02*
X158650200Y-72905100D01*
X158650200Y-72905100D02*
X158650200Y-74755500D01*
X159603000Y-76046500D02*
X159180400Y-76469100D01*
X159180400Y-76469100D02*
X159180400Y-86942800D01*
X159180400Y-86942800D02*
X160358700Y-88121100D01*
X160358700Y-88121100D02*
X160358700Y-105005100D01*
X160358700Y-105005100D02*
X160294900Y-105068900D01*
X159421400Y-48222500D02*
X159140000Y-48503900D01*
X159140000Y-48503900D02*
X159140000Y-66942000D01*
X159140000Y-66942000D02*
X159916300Y-67718300D01*
X159916300Y-67718300D02*
X159916300Y-75733200D01*
X159916300Y-75733200D02*
X159603000Y-76046500D01*
X159421400Y-48222500D02*
X160100100Y-47543800D01*
X160100100Y-47543800D02*
X160100100Y-46721900D01*
X160100100Y-46721900D02*
X148755900Y-35377700D01*
X148755900Y-35377700D02*
X130357300Y-35377700D01*
X130357300Y-35377700D02*
X125095000Y-40640000D01*
X109764500Y-93694800D02*
X109503200Y-93956100D01*
X109503200Y-93956100D02*
X109503200Y-118718300D01*
X109503200Y-118718300D02*
X108822800Y-119398700D01*
X108822800Y-119398700D02*
X108822800Y-135652200D01*
X108822800Y-135652200D02*
X99695000Y-144780000D01*
X109855000Y-63500000D02*
X108801900Y-64553100D01*
X108801900Y-64553100D02*
X108801900Y-92732200D01*
X108801900Y-92732200D02*
X109764500Y-93694800D01*
X120015000Y-40640000D02*
X121062900Y-41687900D01*
X121062900Y-41687900D02*
X121062900Y-43943200D01*
X121062900Y-43943200D02*
X121513200Y-44393500D01*
X121513200Y-44393500D02*
X121513200Y-66786100D01*
X121513200Y-66786100D02*
X127531900Y-72804800D01*
X127531900Y-72804800D02*
X127531900Y-80368400D01*
X127531900Y-80368400D02*
X126620300Y-81280000D01*
X125095000Y-81280000D02*
X126620300Y-81280000D01*
X114353400Y-93812700D02*
X114353400Y-107226500D01*
X114353400Y-107226500D02*
X113655600Y-107924300D01*
X113655600Y-107924300D02*
X113655600Y-133136600D01*
X113655600Y-133136600D02*
X102218000Y-144574200D01*
X102218000Y-144574200D02*
X102218000Y-146322300D01*
X102218000Y-146322300D02*
X101220300Y-147320000D01*
X112395000Y-66040000D02*
X112395000Y-91854300D01*
X112395000Y-91854300D02*
X114353400Y-93812700D01*
X99695000Y-147320000D02*
X101220300Y-147320000D01*
X125095000Y-78740000D02*
X126620300Y-78740000D01*
X120015000Y-43180000D02*
X120015000Y-52557800D01*
X120015000Y-52557800D02*
X121057100Y-53599900D01*
X121057100Y-53599900D02*
X121057100Y-66966900D01*
X121057100Y-66966900D02*
X127081500Y-72991300D01*
X127081500Y-72991300D02*
X127081500Y-78278800D01*
X127081500Y-78278800D02*
X126620300Y-78740000D01*
X148514300Y-84350300D02*
X148514300Y-57589300D01*
X148514300Y-57589300D02*
X148417600Y-57492600D01*
X150543100Y-111543600D02*
X149241100Y-110241600D01*
X149241100Y-110241600D02*
X149241100Y-107980600D01*
X149241100Y-107980600D02*
X148265200Y-107004700D01*
X148265200Y-107004700D02*
X148265200Y-84599400D01*
X148265200Y-84599400D02*
X148514300Y-84350300D01*
X148594300Y-84350300D02*
X148514300Y-84350300D01*
X150898900Y-139576400D02*
X150239800Y-138917300D01*
X150239800Y-138917300D02*
X150239800Y-116418300D01*
X150239800Y-116418300D02*
X151206400Y-115451700D01*
X151206400Y-115451700D02*
X151206400Y-113711000D01*
X151206400Y-113711000D02*
X150543100Y-113047700D01*
X150543100Y-113047700D02*
X150543100Y-111543600D01*
X139345000Y-62944300D02*
X139722500Y-62944300D01*
X139722500Y-62944300D02*
X141514400Y-64736200D01*
X141514400Y-64736200D02*
X141514400Y-76894800D01*
X141514400Y-76894800D02*
X142009600Y-77390000D01*
X142009600Y-77390000D02*
X142009600Y-83850400D01*
X142009600Y-83850400D02*
X142689900Y-84530700D01*
X142689900Y-84530700D02*
X142689900Y-90383100D01*
X142689900Y-90383100D02*
X141630000Y-91443000D01*
X112395000Y-63500000D02*
X111213500Y-64681500D01*
X111213500Y-64681500D02*
X111213500Y-94041900D01*
X111213500Y-94041900D02*
X109959400Y-95296000D01*
X109959400Y-95296000D02*
X109959400Y-119754500D01*
X109959400Y-119754500D02*
X109723400Y-119990500D01*
X109723400Y-119990500D02*
X109723400Y-136113600D01*
X109723400Y-136113600D02*
X101608400Y-144228600D01*
X101608400Y-144228600D02*
X101608400Y-144865500D01*
X101608400Y-144865500D02*
X100320500Y-146153400D01*
X100320500Y-146153400D02*
X98803800Y-146153400D01*
X98803800Y-146153400D02*
X98169700Y-146787500D01*
X98169700Y-146787500D02*
X98169700Y-149860000D01*
X99695000Y-149860000D02*
X98169700Y-149860000D01*
X150314200Y-83164800D02*
X150464900Y-83014100D01*
X150464900Y-83014100D02*
X150464900Y-77832300D01*
X150464900Y-77832300D02*
X149560000Y-76927400D01*
X149560000Y-76927400D02*
X149560000Y-75588200D01*
X149560000Y-75588200D02*
X149520600Y-75548800D01*
X149520600Y-75548800D02*
X149520600Y-55034400D01*
X149520600Y-55034400D02*
X150140700Y-54414300D01*
X150314200Y-83164800D02*
X149774600Y-83704400D01*
X149774600Y-83704400D02*
X149774600Y-94197800D01*
X149774600Y-94197800D02*
X149971000Y-94394200D01*
X149971000Y-94394200D02*
X149971000Y-99233700D01*
X149971000Y-99233700D02*
X149337100Y-99867600D01*
X149337100Y-99867600D02*
X149337100Y-104165500D01*
X149337100Y-104165500D02*
X150892100Y-105720500D01*
X150892100Y-105720500D02*
X150892100Y-110033700D01*
X150905900Y-137456900D02*
X151656700Y-136706100D01*
X151656700Y-136706100D02*
X151656700Y-113524300D01*
X151656700Y-113524300D02*
X151207500Y-113075100D01*
X151207500Y-113075100D02*
X151207500Y-110349100D01*
X151207500Y-110349100D02*
X150892100Y-110033700D01*
X138838800Y-68142900D02*
X140163500Y-69467600D01*
X140163500Y-69467600D02*
X140163500Y-85545800D01*
X140163500Y-85545800D02*
X140728200Y-86110500D01*
X114935000Y-66040000D02*
X114935000Y-93491900D01*
X114935000Y-93491900D02*
X115006700Y-93563600D01*
X115006700Y-93563600D02*
X115006700Y-107210100D01*
X115006700Y-107210100D02*
X114105900Y-108110900D01*
X114105900Y-108110900D02*
X114105900Y-139514400D01*
X114105900Y-139514400D02*
X101220300Y-152400000D01*
X99695000Y-152400000D02*
X101220300Y-152400000D01*
X149805300Y-78888000D02*
X149109700Y-78192400D01*
X149109700Y-78192400D02*
X149109700Y-75774800D01*
X149109700Y-75774800D02*
X149070200Y-75735300D01*
X149070200Y-75735300D02*
X149070200Y-54483100D01*
X149070200Y-54483100D02*
X149177000Y-54376300D01*
X149805300Y-78888000D02*
X149324300Y-79369000D01*
X149324300Y-79369000D02*
X149324300Y-94384400D01*
X149324300Y-94384400D02*
X149520700Y-94580800D01*
X149520700Y-94580800D02*
X149520700Y-99047100D01*
X149520700Y-99047100D02*
X148886800Y-99681000D01*
X148886800Y-99681000D02*
X148886800Y-106352700D01*
X148886800Y-106352700D02*
X149990400Y-107456300D01*
X149990400Y-107456300D02*
X149990400Y-109931700D01*
X123569700Y-73660000D02*
X118970000Y-69060300D01*
X118970000Y-69060300D02*
X118970000Y-44675000D01*
X118970000Y-44675000D02*
X117475000Y-43180000D01*
X125095000Y-73660000D02*
X123569700Y-73660000D01*
X138692700Y-61283700D02*
X138825900Y-61416900D01*
X138825900Y-61416900D02*
X138825900Y-61417000D01*
X138825900Y-61417000D02*
X138832100Y-61417000D01*
X138832100Y-61417000D02*
X142283100Y-64868000D01*
X142283100Y-64868000D02*
X142283100Y-75612100D01*
X142283100Y-75612100D02*
X144725300Y-78054300D01*
X144725300Y-78054300D02*
X144725300Y-88456100D01*
X144725300Y-88456100D02*
X145534600Y-89265400D01*
X137952800Y-82584500D02*
X138003500Y-82635200D01*
X138003500Y-82635200D02*
X138003500Y-83503200D01*
X138003500Y-83503200D02*
X138003600Y-83503200D01*
X138003600Y-83503200D02*
X138556000Y-84055600D01*
X138556000Y-84055600D02*
X138556000Y-84573800D01*
X138556000Y-84573800D02*
X137663400Y-85466400D01*
X137663400Y-85466400D02*
X137663400Y-131373800D01*
X99695000Y-88900000D02*
X98169700Y-88900000D01*
X98169700Y-88900000D02*
X98169700Y-45700200D01*
X98169700Y-45700200D02*
X101959900Y-41910000D01*
X101959900Y-41910000D02*
X106045000Y-41910000D01*
X106045000Y-41910000D02*
X107315000Y-40640000D01*
X107315000Y-43180000D02*
X107315000Y-56624700D01*
X107315000Y-56624700D02*
X113453600Y-62763300D01*
X113453600Y-62763300D02*
X113453600Y-87898100D01*
X113453600Y-87898100D02*
X113242300Y-88109400D01*
X151101500Y-144179900D02*
X143505500Y-136583900D01*
X143505500Y-136583900D02*
X143505500Y-83855100D01*
X143505500Y-83855100D02*
X142713600Y-83063200D01*
X153957600Y-83517800D02*
X155034600Y-82440800D01*
X155034600Y-82440800D02*
X155034600Y-61526100D01*
X155034600Y-61526100D02*
X154284500Y-60776000D01*
X150559000Y-114943400D02*
X146197700Y-110582100D01*
X146197700Y-110582100D02*
X146197700Y-85270200D01*
X146197700Y-85270200D02*
X145459800Y-84532300D01*
X145459800Y-84532300D02*
X145388800Y-84532300D01*
X160626400Y-84488000D02*
X160626400Y-67791500D01*
X160626400Y-67791500D02*
X159655800Y-66820900D01*
X159655800Y-66820900D02*
X159655800Y-57779500D01*
X159655800Y-57779500D02*
X160394500Y-57040800D01*
X160626400Y-84488000D02*
X160973100Y-84834700D01*
X160973100Y-84834700D02*
X160973100Y-113729500D01*
X160258600Y-84488000D02*
X160626400Y-84488000D01*
X160973100Y-113729500D02*
X160973100Y-117916300D01*
X160973100Y-117916300D02*
X161590000Y-118533200D01*
X161590000Y-118533200D02*
X161590000Y-139906300D01*
X161590000Y-139906300D02*
X160321700Y-141174600D01*
X160973100Y-113729500D02*
X160302400Y-113729500D01*
X99695000Y-116840000D02*
X101220300Y-116840000D01*
X102651300Y-71426300D02*
X102651300Y-115409000D01*
X102651300Y-115409000D02*
X101220300Y-116840000D01*
D18*
X139430200Y-127351700D02*
X139430200Y-140258900D01*
X139430200Y-140258900D02*
X139000000Y-140689100D01*
X133985000Y-151794200D02*
X139000000Y-146779200D01*
X139000000Y-146779200D02*
X139000000Y-140689100D01*
X133985000Y-153035000D02*
X133985000Y-151794200D01*
D19*
X157782000Y-95528800D02*
X157185600Y-96125200D01*
X157185600Y-96125200D02*
X157185600Y-121504400D01*
X157185600Y-121504400D02*
X159686700Y-124005500D01*
X157311500Y-70541800D02*
X157311500Y-95058300D01*
X157311500Y-95058300D02*
X157782000Y-95528800D01*
X159686700Y-124005500D02*
X160064000Y-124005500D01*
X157782000Y-95528800D02*
X157886700Y-95528800D01*
X159686700Y-124005500D02*
X158960900Y-124731300D01*
X158960900Y-124731300D02*
X158960900Y-150151900D01*
X158960900Y-150151900D02*
X160309200Y-151500200D01*
X160120400Y-122339300D02*
X161139700Y-123358600D01*
X161139700Y-123358600D02*
X161139700Y-138507500D01*
X161139700Y-138507500D02*
X159593600Y-140053600D01*
X159687900Y-93894700D02*
X159863100Y-94069900D01*
X159863100Y-94069900D02*
X159863100Y-103879300D01*
X159863100Y-103879300D02*
X159668300Y-104074100D01*
X159668300Y-104074100D02*
X159668300Y-121887200D01*
X159668300Y-121887200D02*
X160120400Y-122339300D01*
X153530800Y-95920800D02*
X152431600Y-94821600D01*
X152431600Y-94821600D02*
X152431600Y-69957300D01*
X152431600Y-69957300D02*
X152641400Y-69747500D01*
X162396400Y-91049400D02*
X161905600Y-91540200D01*
X161905600Y-91540200D02*
X161905600Y-118211800D01*
X161905600Y-118211800D02*
X162299600Y-118605800D01*
X162299600Y-118605800D02*
X162299600Y-118865300D01*
X162299600Y-118865300D02*
X162872200Y-119437900D01*
X162872200Y-119437900D02*
X162040300Y-120269800D01*
X162040300Y-120269800D02*
X162040300Y-142505200D01*
X162040300Y-142505200D02*
X159776000Y-144769500D01*
X160296300Y-62881000D02*
X161604700Y-64189400D01*
X161604700Y-64189400D02*
X161604700Y-90257700D01*
X161604700Y-90257700D02*
X162396400Y-91049400D01*
X162396400Y-91049400D02*
X163026800Y-91049400D01*
X163034100Y-89044500D02*
X164143600Y-90154000D01*
X164143600Y-90154000D02*
X164143600Y-116399800D01*
X164143600Y-116399800D02*
X163052400Y-117491000D01*
X160317700Y-60877800D02*
X160388600Y-60877800D01*
X160388600Y-60877800D02*
X162505300Y-62994500D01*
X162505300Y-62994500D02*
X162505300Y-88515700D01*
X162505300Y-88515700D02*
X163034100Y-89044500D01*
X163038000Y-118590000D02*
X162391900Y-117943900D01*
X162391900Y-117943900D02*
X162391900Y-97287200D01*
X162391900Y-97287200D02*
X163693300Y-95985800D01*
X163693300Y-95985800D02*
X163693300Y-90806800D01*
X163693300Y-90806800D02*
X163028200Y-90141700D01*
X163038000Y-118590000D02*
X163529000Y-119081000D01*
X163529000Y-119081000D02*
X163529000Y-119747100D01*
X163529000Y-119747100D02*
X162937400Y-120338700D01*
X162937400Y-120338700D02*
X162828300Y-120338700D01*
X162828300Y-120338700D02*
X162490600Y-120676400D01*
X162490600Y-120676400D02*
X162490600Y-144707400D01*
X162490600Y-144707400D02*
X160465000Y-146733000D01*
X160284400Y-61678200D02*
X162055000Y-63448800D01*
X162055000Y-63448800D02*
X162055000Y-89168500D01*
X162055000Y-89168500D02*
X163028200Y-90141700D01*
X150881000Y-91829500D02*
X150881000Y-100719800D01*
X150881000Y-100719800D02*
X149787400Y-101813400D01*
X149787400Y-101813400D02*
X149787400Y-103955000D01*
X149787400Y-103955000D02*
X152038300Y-106205900D01*
X152038300Y-106205900D02*
X152038300Y-113269000D01*
X152038300Y-113269000D02*
X152107000Y-113337700D01*
X152107000Y-113337700D02*
X152107000Y-146140500D01*
X152107000Y-146140500D02*
X153626000Y-147659500D01*
X99695000Y-99060000D02*
X98169700Y-99060000D01*
X98169700Y-99060000D02*
X97062200Y-97952500D01*
X97062200Y-97952500D02*
X97062200Y-49417100D01*
X102235000Y-45720000D02*
X98876900Y-49078100D01*
X98876900Y-49078100D02*
X98876900Y-70371800D01*
X98876900Y-70371800D02*
X101220300Y-72715200D01*
X101220300Y-72715200D02*
X101220300Y-101600000D01*
X99695000Y-101600000D02*
X101220300Y-101600000D01*
X104775000Y-45720000D02*
X103271600Y-47223400D01*
X103271600Y-47223400D02*
X103271600Y-48743900D01*
X103271600Y-48743900D02*
X102485500Y-49530000D01*
X102485500Y-49530000D02*
X102002700Y-49530000D01*
X102002700Y-49530000D02*
X99327200Y-52205500D01*
X99327200Y-52205500D02*
X99327200Y-70066500D01*
X99327200Y-70066500D02*
X101675400Y-72414700D01*
X101675400Y-72414700D02*
X101675400Y-103684900D01*
X101675400Y-103684900D02*
X101220300Y-104140000D01*
X99695000Y-104140000D02*
X101220300Y-104140000D01*
X104775000Y-53340000D02*
X103271600Y-54843400D01*
X103271600Y-54843400D02*
X103271600Y-56363900D01*
X103271600Y-56363900D02*
X102485500Y-57150000D01*
X102485500Y-57150000D02*
X102002800Y-57150000D01*
X102002800Y-57150000D02*
X99792400Y-59360400D01*
X99792400Y-59360400D02*
X99792400Y-69894800D01*
X99792400Y-69894800D02*
X102125800Y-72228200D01*
X102125800Y-72228200D02*
X102125800Y-113394500D01*
X102125800Y-113394500D02*
X101220300Y-114300000D01*
X99695000Y-114300000D02*
X101220300Y-114300000D01*
X102235000Y-60960000D02*
X100747300Y-62447700D01*
X100747300Y-62447700D02*
X100747300Y-67749200D01*
X100747300Y-67749200D02*
X103747000Y-70748900D01*
X103747000Y-70748900D02*
X103747000Y-124473300D01*
X103747000Y-124473300D02*
X101220300Y-127000000D01*
X99695000Y-127000000D02*
X101220300Y-127000000D01*
X99695000Y-129540000D02*
X101220300Y-129540000D01*
X104775000Y-60960000D02*
X103505000Y-62230000D01*
X103505000Y-62230000D02*
X101968100Y-62230000D01*
X101968100Y-62230000D02*
X101197700Y-63000400D01*
X101197700Y-63000400D02*
X101197700Y-65735600D01*
X101197700Y-65735600D02*
X104201200Y-68739100D01*
X104201200Y-68739100D02*
X104201200Y-126559100D01*
X104201200Y-126559100D02*
X101220300Y-129540000D01*
X101220300Y-132080000D02*
X104651600Y-128648700D01*
X104651600Y-128648700D02*
X104651600Y-68552600D01*
X104651600Y-68552600D02*
X102235000Y-66136000D01*
X102235000Y-66136000D02*
X102235000Y-63500000D01*
X99695000Y-132080000D02*
X101220300Y-132080000D01*
X101220300Y-134620000D02*
X105120100Y-130720200D01*
X105120100Y-130720200D02*
X105120100Y-66385100D01*
X105120100Y-66385100D02*
X104775000Y-66040000D01*
X99695000Y-134620000D02*
X101220300Y-134620000D01*
X99695000Y-137160000D02*
X101220300Y-137160000D01*
X104775000Y-63500000D02*
X105827900Y-64552900D01*
X105827900Y-64552900D02*
X105827900Y-132552400D01*
X105827900Y-132552400D02*
X101220300Y-137160000D01*
X101220300Y-139700000D02*
X107511900Y-133408400D01*
X107511900Y-133408400D02*
X107511900Y-66236900D01*
X107511900Y-66236900D02*
X107315000Y-66040000D01*
X99695000Y-139700000D02*
X101220300Y-139700000D01*
X107315000Y-63500000D02*
X108351500Y-64536500D01*
X108351500Y-64536500D02*
X108351500Y-102188200D01*
X108351500Y-102188200D02*
X109036300Y-102873000D01*
X109036300Y-102873000D02*
X109036300Y-118548300D01*
X109036300Y-118548300D02*
X108372500Y-119212100D01*
X108372500Y-119212100D02*
X108372500Y-135087800D01*
X108372500Y-135087800D02*
X101220300Y-142240000D01*
X99695000Y-142240000D02*
X101220300Y-142240000D01*
X109855000Y-43180000D02*
X111125000Y-41910000D01*
X111125000Y-41910000D02*
X112632000Y-41910000D01*
X112632000Y-41910000D02*
X113824300Y-40717700D01*
X113824300Y-40717700D02*
X113824300Y-39864600D01*
X113824300Y-39864600D02*
X114097100Y-39591800D01*
X114097100Y-39591800D02*
X120455000Y-39591800D01*
X120455000Y-39591800D02*
X121513300Y-40650100D01*
X121513300Y-40650100D02*
X121513300Y-43604200D01*
X121513300Y-43604200D02*
X125132500Y-47223400D01*
X125132500Y-47223400D02*
X125594800Y-47223400D01*
X125594800Y-47223400D02*
X126598400Y-48227000D01*
X126598400Y-48227000D02*
X126598400Y-48743800D01*
X126598400Y-48743800D02*
X127384600Y-49530000D01*
X127384600Y-49530000D02*
X127867200Y-49530000D01*
X127867200Y-49530000D02*
X131272500Y-52935300D01*
X131272500Y-52935300D02*
X131272500Y-58580900D01*
X131272500Y-58580900D02*
X135687200Y-62995600D01*
X135687200Y-62995600D02*
X135687200Y-79050000D01*
X135687200Y-79050000D02*
X135954400Y-79317200D01*
X135954400Y-79317200D02*
X135954400Y-80743000D01*
X135954400Y-80743000D02*
X135436000Y-81261400D01*
X135436000Y-81261400D02*
X135436000Y-85529300D01*
X135436000Y-85529300D02*
X135898000Y-85991300D01*
X135898000Y-85991300D02*
X135898000Y-89852700D01*
X135898000Y-89852700D02*
X137026100Y-90980800D01*
X137026100Y-90980800D02*
X137026100Y-131940300D01*
X137026100Y-131940300D02*
X137502500Y-132416700D01*
X137756700Y-73072800D02*
X139088600Y-74404700D01*
X139088600Y-74404700D02*
X139088600Y-86023700D01*
X139088600Y-86023700D02*
X138684400Y-86427900D01*
X138684400Y-86427900D02*
X138684400Y-137965900D01*
X115579700Y-67470400D02*
X115516900Y-67533200D01*
X115516900Y-67533200D02*
X115516900Y-101701700D01*
X115516900Y-101701700D02*
X116793300Y-102978100D01*
X109855500Y-57866900D02*
X110772400Y-57866900D01*
X110772400Y-57866900D02*
X116205000Y-63299500D01*
X116205000Y-63299500D02*
X116205000Y-77752400D01*
X116205000Y-77752400D02*
X117512000Y-79059400D01*
X117512000Y-79059400D02*
X117512000Y-129004700D01*
X117512000Y-129004700D02*
X117913800Y-129406500D01*
X106883300Y-126253600D02*
X106278300Y-125648600D01*
X106278300Y-125648600D02*
X106278300Y-45680300D01*
X106278300Y-45680300D02*
X104917100Y-44319100D01*
X104917100Y-44319100D02*
X103374100Y-44319100D01*
X103374100Y-44319100D02*
X102235000Y-43180000D01*
X103117800Y-122632600D02*
X103276600Y-122473800D01*
X103276600Y-122473800D02*
X103276600Y-71167200D01*
X103276600Y-71167200D02*
X100242800Y-68133400D01*
X100242800Y-68133400D02*
X100242800Y-60412200D01*
X100242800Y-60412200D02*
X102235000Y-58420000D01*
X135334700Y-146026900D02*
X135533400Y-145828200D01*
X135533400Y-145828200D02*
X135533400Y-129358700D01*
X111252700Y-111184500D02*
X110949300Y-111487900D01*
X110949300Y-111487900D02*
X110949300Y-113676300D01*
X110949300Y-113676300D02*
X110974000Y-113701000D01*
X110974000Y-113701000D02*
X110974000Y-125685100D01*
X110974000Y-125685100D02*
X113029900Y-127741000D01*
X111627200Y-123999900D02*
X112199900Y-123427200D01*
X112199900Y-123427200D02*
X112199900Y-98879100D01*
X112199900Y-98879100D02*
X112175200Y-98854400D01*
X111847400Y-97690800D02*
X111914300Y-97690800D01*
X111914300Y-97690800D02*
X113497700Y-99274200D01*
X113497700Y-99274200D02*
X113497700Y-102379800D01*
X113497700Y-102379800D02*
X113378900Y-102498600D01*
X112165100Y-96409000D02*
X110499000Y-98075100D01*
X110499000Y-98075100D02*
X110499000Y-120099200D01*
X110499000Y-120099200D02*
X110348700Y-120249500D01*
M02*
