G04 #@! TF.GenerationSoftware,KiCad,Pcbnew,(5.1.2-1)-1*
G04 #@! TF.CreationDate,2019-06-12T21:47:26+01:00*
G04 #@! TF.ProjectId,A500 FastRAM,41353030-2046-4617-9374-52414d2e6b69,rev?*
G04 #@! TF.SameCoordinates,Original*
G04 #@! TF.FileFunction,Legend,Bot*
G04 #@! TF.FilePolarity,Positive*
%FSLAX46Y46*%
G04 Gerber Fmt 4.6, Leading zero omitted, Abs format (unit mm)*
G04 Created by KiCad (PCBNEW (5.1.2-1)-1) date 2019-06-12 21:47:26*
%MOMM*%
%LPD*%
G04 APERTURE LIST*
%ADD10C,0.150000*%
%ADD11C,0.120000*%
%ADD12C,0.125000*%
G04 APERTURE END LIST*
D10*
X116133571Y-87386904D02*
X116133571Y-87053571D01*
X116657380Y-87053571D02*
X115657380Y-87053571D01*
X115657380Y-87529761D01*
X116657380Y-87910714D02*
X115990714Y-87910714D01*
X115657380Y-87910714D02*
X115705000Y-87863095D01*
X115752619Y-87910714D01*
X115705000Y-87958333D01*
X115657380Y-87910714D01*
X115752619Y-87910714D01*
X115990714Y-88386904D02*
X116657380Y-88386904D01*
X116085952Y-88386904D02*
X116038333Y-88434523D01*
X115990714Y-88529761D01*
X115990714Y-88672619D01*
X116038333Y-88767857D01*
X116133571Y-88815476D01*
X116657380Y-88815476D01*
X116657380Y-89720238D02*
X115657380Y-89720238D01*
X116609761Y-89720238D02*
X116657380Y-89625000D01*
X116657380Y-89434523D01*
X116609761Y-89339285D01*
X116562142Y-89291666D01*
X116466904Y-89244047D01*
X116181190Y-89244047D01*
X116085952Y-89291666D01*
X116038333Y-89339285D01*
X115990714Y-89434523D01*
X115990714Y-89625000D01*
X116038333Y-89720238D01*
X116657380Y-90958333D02*
X115990714Y-90958333D01*
X116085952Y-90958333D02*
X116038333Y-91005952D01*
X115990714Y-91101190D01*
X115990714Y-91244047D01*
X116038333Y-91339285D01*
X116133571Y-91386904D01*
X116657380Y-91386904D01*
X116133571Y-91386904D02*
X116038333Y-91434523D01*
X115990714Y-91529761D01*
X115990714Y-91672619D01*
X116038333Y-91767857D01*
X116133571Y-91815476D01*
X116657380Y-91815476D01*
X116657380Y-92434523D02*
X116609761Y-92339285D01*
X116562142Y-92291666D01*
X116466904Y-92244047D01*
X116181190Y-92244047D01*
X116085952Y-92291666D01*
X116038333Y-92339285D01*
X115990714Y-92434523D01*
X115990714Y-92577380D01*
X116038333Y-92672619D01*
X116085952Y-92720238D01*
X116181190Y-92767857D01*
X116466904Y-92767857D01*
X116562142Y-92720238D01*
X116609761Y-92672619D01*
X116657380Y-92577380D01*
X116657380Y-92434523D01*
X116657380Y-93196428D02*
X115990714Y-93196428D01*
X116181190Y-93196428D02*
X116085952Y-93244047D01*
X116038333Y-93291666D01*
X115990714Y-93386904D01*
X115990714Y-93482142D01*
X116609761Y-94196428D02*
X116657380Y-94101190D01*
X116657380Y-93910714D01*
X116609761Y-93815476D01*
X116514523Y-93767857D01*
X116133571Y-93767857D01*
X116038333Y-93815476D01*
X115990714Y-93910714D01*
X115990714Y-94101190D01*
X116038333Y-94196428D01*
X116133571Y-94244047D01*
X116228809Y-94244047D01*
X116324047Y-93767857D01*
X115990714Y-95434523D02*
X116990714Y-95434523D01*
X116038333Y-95434523D02*
X115990714Y-95529761D01*
X115990714Y-95720238D01*
X116038333Y-95815476D01*
X116085952Y-95863095D01*
X116181190Y-95910714D01*
X116466904Y-95910714D01*
X116562142Y-95863095D01*
X116609761Y-95815476D01*
X116657380Y-95720238D01*
X116657380Y-95529761D01*
X116609761Y-95434523D01*
X116657380Y-96339285D02*
X115990714Y-96339285D01*
X116181190Y-96339285D02*
X116085952Y-96386904D01*
X116038333Y-96434523D01*
X115990714Y-96529761D01*
X115990714Y-96625000D01*
X116657380Y-97101190D02*
X116609761Y-97005952D01*
X116562142Y-96958333D01*
X116466904Y-96910714D01*
X116181190Y-96910714D01*
X116085952Y-96958333D01*
X116038333Y-97005952D01*
X115990714Y-97101190D01*
X115990714Y-97244047D01*
X116038333Y-97339285D01*
X116085952Y-97386904D01*
X116181190Y-97434523D01*
X116466904Y-97434523D01*
X116562142Y-97386904D01*
X116609761Y-97339285D01*
X116657380Y-97244047D01*
X116657380Y-97101190D01*
X115990714Y-97863095D02*
X116847857Y-97863095D01*
X116943095Y-97815476D01*
X116990714Y-97720238D01*
X116990714Y-97672619D01*
X115657380Y-97863095D02*
X115705000Y-97815476D01*
X115752619Y-97863095D01*
X115705000Y-97910714D01*
X115657380Y-97863095D01*
X115752619Y-97863095D01*
X116609761Y-98720238D02*
X116657380Y-98625000D01*
X116657380Y-98434523D01*
X116609761Y-98339285D01*
X116514523Y-98291666D01*
X116133571Y-98291666D01*
X116038333Y-98339285D01*
X115990714Y-98434523D01*
X115990714Y-98625000D01*
X116038333Y-98720238D01*
X116133571Y-98767857D01*
X116228809Y-98767857D01*
X116324047Y-98291666D01*
X116609761Y-99625000D02*
X116657380Y-99529761D01*
X116657380Y-99339285D01*
X116609761Y-99244047D01*
X116562142Y-99196428D01*
X116466904Y-99148809D01*
X116181190Y-99148809D01*
X116085952Y-99196428D01*
X116038333Y-99244047D01*
X115990714Y-99339285D01*
X115990714Y-99529761D01*
X116038333Y-99625000D01*
X115990714Y-99910714D02*
X115990714Y-100291666D01*
X115657380Y-100053571D02*
X116514523Y-100053571D01*
X116609761Y-100101190D01*
X116657380Y-100196428D01*
X116657380Y-100291666D01*
X116609761Y-100577380D02*
X116657380Y-100672619D01*
X116657380Y-100863095D01*
X116609761Y-100958333D01*
X116514523Y-101005952D01*
X116466904Y-101005952D01*
X116371666Y-100958333D01*
X116324047Y-100863095D01*
X116324047Y-100720238D01*
X116276428Y-100625000D01*
X116181190Y-100577380D01*
X116133571Y-100577380D01*
X116038333Y-100625000D01*
X115990714Y-100720238D01*
X115990714Y-100863095D01*
X116038333Y-100958333D01*
X116657380Y-102339285D02*
X116609761Y-102244047D01*
X116514523Y-102196428D01*
X115657380Y-102196428D01*
X116657380Y-102720238D02*
X115990714Y-102720238D01*
X115657380Y-102720238D02*
X115705000Y-102672619D01*
X115752619Y-102720238D01*
X115705000Y-102767857D01*
X115657380Y-102720238D01*
X115752619Y-102720238D01*
X116657380Y-103196428D02*
X115657380Y-103196428D01*
X116276428Y-103291666D02*
X116657380Y-103577380D01*
X115990714Y-103577380D02*
X116371666Y-103196428D01*
X116609761Y-104386904D02*
X116657380Y-104291666D01*
X116657380Y-104101190D01*
X116609761Y-104005952D01*
X116514523Y-103958333D01*
X116133571Y-103958333D01*
X116038333Y-104005952D01*
X115990714Y-104101190D01*
X115990714Y-104291666D01*
X116038333Y-104386904D01*
X116133571Y-104434523D01*
X116228809Y-104434523D01*
X116324047Y-103958333D01*
X115990714Y-105482142D02*
X115990714Y-105863095D01*
X115657380Y-105625000D02*
X116514523Y-105625000D01*
X116609761Y-105672619D01*
X116657380Y-105767857D01*
X116657380Y-105863095D01*
X116657380Y-106196428D02*
X115657380Y-106196428D01*
X116657380Y-106625000D02*
X116133571Y-106625000D01*
X116038333Y-106577380D01*
X115990714Y-106482142D01*
X115990714Y-106339285D01*
X116038333Y-106244047D01*
X116085952Y-106196428D01*
X116657380Y-107101190D02*
X115990714Y-107101190D01*
X115657380Y-107101190D02*
X115705000Y-107053571D01*
X115752619Y-107101190D01*
X115705000Y-107148809D01*
X115657380Y-107101190D01*
X115752619Y-107101190D01*
X116609761Y-107529761D02*
X116657380Y-107625000D01*
X116657380Y-107815476D01*
X116609761Y-107910714D01*
X116514523Y-107958333D01*
X116466904Y-107958333D01*
X116371666Y-107910714D01*
X116324047Y-107815476D01*
X116324047Y-107672619D01*
X116276428Y-107577380D01*
X116181190Y-107529761D01*
X116133571Y-107529761D01*
X116038333Y-107577380D01*
X115990714Y-107672619D01*
X115990714Y-107815476D01*
X116038333Y-107910714D01*
X116657380Y-109291666D02*
X116609761Y-109196428D01*
X116562142Y-109148809D01*
X116466904Y-109101190D01*
X116181190Y-109101190D01*
X116085952Y-109148809D01*
X116038333Y-109196428D01*
X115990714Y-109291666D01*
X115990714Y-109434523D01*
X116038333Y-109529761D01*
X116085952Y-109577380D01*
X116181190Y-109625000D01*
X116466904Y-109625000D01*
X116562142Y-109577380D01*
X116609761Y-109529761D01*
X116657380Y-109434523D01*
X116657380Y-109291666D01*
X115990714Y-109958333D02*
X116657380Y-110196428D01*
X115990714Y-110434523D01*
X116609761Y-111196428D02*
X116657380Y-111101190D01*
X116657380Y-110910714D01*
X116609761Y-110815476D01*
X116514523Y-110767857D01*
X116133571Y-110767857D01*
X116038333Y-110815476D01*
X115990714Y-110910714D01*
X115990714Y-111101190D01*
X116038333Y-111196428D01*
X116133571Y-111244047D01*
X116228809Y-111244047D01*
X116324047Y-110767857D01*
X116657380Y-111672619D02*
X115990714Y-111672619D01*
X116181190Y-111672619D02*
X116085952Y-111720238D01*
X116038333Y-111767857D01*
X115990714Y-111863095D01*
X115990714Y-111958333D01*
X116657380Y-113482142D02*
X116133571Y-113482142D01*
X116038333Y-113434523D01*
X115990714Y-113339285D01*
X115990714Y-113148809D01*
X116038333Y-113053571D01*
X116609761Y-113482142D02*
X116657380Y-113386904D01*
X116657380Y-113148809D01*
X116609761Y-113053571D01*
X116514523Y-113005952D01*
X116419285Y-113005952D01*
X116324047Y-113053571D01*
X116276428Y-113148809D01*
X116276428Y-113386904D01*
X116228809Y-113482142D01*
X115990714Y-113815476D02*
X115990714Y-114196428D01*
X115657380Y-113958333D02*
X116514523Y-113958333D01*
X116609761Y-114005952D01*
X116657380Y-114101190D01*
X116657380Y-114196428D01*
X116562142Y-114529761D02*
X116609761Y-114577380D01*
X116657380Y-114529761D01*
X116609761Y-114482142D01*
X116562142Y-114529761D01*
X116657380Y-114529761D01*
X116038333Y-114529761D02*
X116085952Y-114577380D01*
X116133571Y-114529761D01*
X116085952Y-114482142D01*
X116038333Y-114529761D01*
X116133571Y-114529761D01*
X116657380Y-115767857D02*
X115657380Y-115767857D01*
X116657380Y-116196428D02*
X116133571Y-116196428D01*
X116038333Y-116148809D01*
X115990714Y-116053571D01*
X115990714Y-115910714D01*
X116038333Y-115815476D01*
X116085952Y-115767857D01*
X115990714Y-116529761D02*
X115990714Y-116910714D01*
X115657380Y-116672619D02*
X116514523Y-116672619D01*
X116609761Y-116720238D01*
X116657380Y-116815476D01*
X116657380Y-116910714D01*
X115990714Y-117101190D02*
X115990714Y-117482142D01*
X115657380Y-117244047D02*
X116514523Y-117244047D01*
X116609761Y-117291666D01*
X116657380Y-117386904D01*
X116657380Y-117482142D01*
X115990714Y-117815476D02*
X116990714Y-117815476D01*
X116038333Y-117815476D02*
X115990714Y-117910714D01*
X115990714Y-118101190D01*
X116038333Y-118196428D01*
X116085952Y-118244047D01*
X116181190Y-118291666D01*
X116466904Y-118291666D01*
X116562142Y-118244047D01*
X116609761Y-118196428D01*
X116657380Y-118101190D01*
X116657380Y-117910714D01*
X116609761Y-117815476D01*
X116609761Y-118672619D02*
X116657380Y-118767857D01*
X116657380Y-118958333D01*
X116609761Y-119053571D01*
X116514523Y-119101190D01*
X116466904Y-119101190D01*
X116371666Y-119053571D01*
X116324047Y-118958333D01*
X116324047Y-118815476D01*
X116276428Y-118720238D01*
X116181190Y-118672619D01*
X116133571Y-118672619D01*
X116038333Y-118720238D01*
X115990714Y-118815476D01*
X115990714Y-118958333D01*
X116038333Y-119053571D01*
X116562142Y-119529761D02*
X116609761Y-119577380D01*
X116657380Y-119529761D01*
X116609761Y-119482142D01*
X116562142Y-119529761D01*
X116657380Y-119529761D01*
X116038333Y-119529761D02*
X116085952Y-119577380D01*
X116133571Y-119529761D01*
X116085952Y-119482142D01*
X116038333Y-119529761D01*
X116133571Y-119529761D01*
X115609761Y-120720238D02*
X116895476Y-119863095D01*
X115609761Y-121767857D02*
X116895476Y-120910714D01*
X115990714Y-122529761D02*
X116800238Y-122529761D01*
X116895476Y-122482142D01*
X116943095Y-122434523D01*
X116990714Y-122339285D01*
X116990714Y-122196428D01*
X116943095Y-122101190D01*
X116609761Y-122529761D02*
X116657380Y-122434523D01*
X116657380Y-122244047D01*
X116609761Y-122148809D01*
X116562142Y-122101190D01*
X116466904Y-122053571D01*
X116181190Y-122053571D01*
X116085952Y-122101190D01*
X116038333Y-122148809D01*
X115990714Y-122244047D01*
X115990714Y-122434523D01*
X116038333Y-122529761D01*
X116657380Y-123005952D02*
X115990714Y-123005952D01*
X115657380Y-123005952D02*
X115705000Y-122958333D01*
X115752619Y-123005952D01*
X115705000Y-123053571D01*
X115657380Y-123005952D01*
X115752619Y-123005952D01*
X115990714Y-123339285D02*
X115990714Y-123720238D01*
X115657380Y-123482142D02*
X116514523Y-123482142D01*
X116609761Y-123529761D01*
X116657380Y-123624999D01*
X116657380Y-123720238D01*
X116657380Y-124053571D02*
X115657380Y-124053571D01*
X116657380Y-124482142D02*
X116133571Y-124482142D01*
X116038333Y-124434523D01*
X115990714Y-124339285D01*
X115990714Y-124196428D01*
X116038333Y-124101190D01*
X116085952Y-124053571D01*
X115990714Y-125386904D02*
X116657380Y-125386904D01*
X115990714Y-124958333D02*
X116514523Y-124958333D01*
X116609761Y-125005952D01*
X116657380Y-125101190D01*
X116657380Y-125244047D01*
X116609761Y-125339285D01*
X116562142Y-125386904D01*
X116657380Y-125863095D02*
X115657380Y-125863095D01*
X116038333Y-125863095D02*
X115990714Y-125958333D01*
X115990714Y-126148809D01*
X116038333Y-126244047D01*
X116085952Y-126291666D01*
X116181190Y-126339285D01*
X116466904Y-126339285D01*
X116562142Y-126291666D01*
X116609761Y-126244047D01*
X116657380Y-126148809D01*
X116657380Y-125958333D01*
X116609761Y-125863095D01*
X116562142Y-126767857D02*
X116609761Y-126815476D01*
X116657380Y-126767857D01*
X116609761Y-126720238D01*
X116562142Y-126767857D01*
X116657380Y-126767857D01*
X116609761Y-127672619D02*
X116657380Y-127577380D01*
X116657380Y-127386904D01*
X116609761Y-127291666D01*
X116562142Y-127244047D01*
X116466904Y-127196428D01*
X116181190Y-127196428D01*
X116085952Y-127244047D01*
X116038333Y-127291666D01*
X115990714Y-127386904D01*
X115990714Y-127577380D01*
X116038333Y-127672619D01*
X116657380Y-128244047D02*
X116609761Y-128148809D01*
X116562142Y-128101190D01*
X116466904Y-128053571D01*
X116181190Y-128053571D01*
X116085952Y-128101190D01*
X116038333Y-128148809D01*
X115990714Y-128244047D01*
X115990714Y-128386904D01*
X116038333Y-128482142D01*
X116085952Y-128529761D01*
X116181190Y-128577380D01*
X116466904Y-128577380D01*
X116562142Y-128529761D01*
X116609761Y-128482142D01*
X116657380Y-128386904D01*
X116657380Y-128244047D01*
X116657380Y-129005952D02*
X115990714Y-129005952D01*
X116085952Y-129005952D02*
X116038333Y-129053571D01*
X115990714Y-129148809D01*
X115990714Y-129291666D01*
X116038333Y-129386904D01*
X116133571Y-129434523D01*
X116657380Y-129434523D01*
X116133571Y-129434523D02*
X116038333Y-129482142D01*
X115990714Y-129577380D01*
X115990714Y-129720238D01*
X116038333Y-129815476D01*
X116133571Y-129863095D01*
X116657380Y-129863095D01*
X115609761Y-131053571D02*
X116895476Y-130196428D01*
X116657380Y-131386904D02*
X115657380Y-131386904D01*
X116276428Y-131482142D02*
X116657380Y-131767857D01*
X115990714Y-131767857D02*
X116371666Y-131386904D01*
X116657380Y-132196428D02*
X115990714Y-132196428D01*
X116181190Y-132196428D02*
X116085952Y-132244047D01*
X116038333Y-132291666D01*
X115990714Y-132386904D01*
X115990714Y-132482142D01*
X115752619Y-132767857D02*
X115705000Y-132815476D01*
X115657380Y-132910714D01*
X115657380Y-133148809D01*
X115705000Y-133244047D01*
X115752619Y-133291666D01*
X115847857Y-133339285D01*
X115943095Y-133339285D01*
X116085952Y-133291666D01*
X116657380Y-132720238D01*
X116657380Y-133339285D01*
X115657380Y-133672619D02*
X115657380Y-134291666D01*
X116038333Y-133958333D01*
X116038333Y-134101190D01*
X116085952Y-134196428D01*
X116133571Y-134244047D01*
X116228809Y-134291666D01*
X116466904Y-134291666D01*
X116562142Y-134244047D01*
X116609761Y-134196428D01*
X116657380Y-134101190D01*
X116657380Y-133815476D01*
X116609761Y-133720238D01*
X116562142Y-133672619D01*
X116657380Y-134767857D02*
X116657380Y-134958333D01*
X116609761Y-135053571D01*
X116562142Y-135101190D01*
X116419285Y-135196428D01*
X116228809Y-135244047D01*
X115847857Y-135244047D01*
X115752619Y-135196428D01*
X115705000Y-135148809D01*
X115657380Y-135053571D01*
X115657380Y-134863095D01*
X115705000Y-134767857D01*
X115752619Y-134720238D01*
X115847857Y-134672619D01*
X116085952Y-134672619D01*
X116181190Y-134720238D01*
X116228809Y-134767857D01*
X116276428Y-134863095D01*
X116276428Y-135053571D01*
X116228809Y-135148809D01*
X116181190Y-135196428D01*
X116085952Y-135244047D01*
D11*
X132080000Y-151384000D02*
X132080000Y-103124000D01*
X153035000Y-151384000D02*
X132080000Y-151384000D01*
X153035000Y-103124000D02*
X153035000Y-151384000D01*
X132080000Y-103124000D02*
X153035000Y-103124000D01*
D12*
X133570404Y-105101666D02*
X133570404Y-105558809D01*
X134370404Y-105330238D02*
X133570404Y-105330238D01*
X134370404Y-105825476D02*
X133570404Y-105825476D01*
X134370404Y-106168333D02*
X133951357Y-106168333D01*
X133875166Y-106130238D01*
X133837071Y-106054047D01*
X133837071Y-105939761D01*
X133875166Y-105863571D01*
X133913261Y-105825476D01*
X134370404Y-106549285D02*
X133837071Y-106549285D01*
X133570404Y-106549285D02*
X133608500Y-106511190D01*
X133646595Y-106549285D01*
X133608500Y-106587380D01*
X133570404Y-106549285D01*
X133646595Y-106549285D01*
X134332309Y-106892142D02*
X134370404Y-106968333D01*
X134370404Y-107120714D01*
X134332309Y-107196904D01*
X134256119Y-107235000D01*
X134218023Y-107235000D01*
X134141833Y-107196904D01*
X134103738Y-107120714D01*
X134103738Y-107006428D01*
X134065642Y-106930238D01*
X133989452Y-106892142D01*
X133951357Y-106892142D01*
X133875166Y-106930238D01*
X133837071Y-107006428D01*
X133837071Y-107120714D01*
X133875166Y-107196904D01*
X134370404Y-108187380D02*
X133570404Y-108187380D01*
X133875166Y-108187380D02*
X133837071Y-108263571D01*
X133837071Y-108415952D01*
X133875166Y-108492142D01*
X133913261Y-108530238D01*
X133989452Y-108568333D01*
X134218023Y-108568333D01*
X134294214Y-108530238D01*
X134332309Y-108492142D01*
X134370404Y-108415952D01*
X134370404Y-108263571D01*
X134332309Y-108187380D01*
X134370404Y-109025476D02*
X134332309Y-108949285D01*
X134294214Y-108911190D01*
X134218023Y-108873095D01*
X133989452Y-108873095D01*
X133913261Y-108911190D01*
X133875166Y-108949285D01*
X133837071Y-109025476D01*
X133837071Y-109139761D01*
X133875166Y-109215952D01*
X133913261Y-109254047D01*
X133989452Y-109292142D01*
X134218023Y-109292142D01*
X134294214Y-109254047D01*
X134332309Y-109215952D01*
X134370404Y-109139761D01*
X134370404Y-109025476D01*
X134370404Y-109977857D02*
X133951357Y-109977857D01*
X133875166Y-109939761D01*
X133837071Y-109863571D01*
X133837071Y-109711190D01*
X133875166Y-109635000D01*
X134332309Y-109977857D02*
X134370404Y-109901666D01*
X134370404Y-109711190D01*
X134332309Y-109635000D01*
X134256119Y-109596904D01*
X134179928Y-109596904D01*
X134103738Y-109635000D01*
X134065642Y-109711190D01*
X134065642Y-109901666D01*
X134027547Y-109977857D01*
X134370404Y-110358809D02*
X133837071Y-110358809D01*
X133989452Y-110358809D02*
X133913261Y-110396904D01*
X133875166Y-110435000D01*
X133837071Y-110511190D01*
X133837071Y-110587380D01*
X134370404Y-111196904D02*
X133570404Y-111196904D01*
X134332309Y-111196904D02*
X134370404Y-111120714D01*
X134370404Y-110968333D01*
X134332309Y-110892142D01*
X134294214Y-110854047D01*
X134218023Y-110815952D01*
X133989452Y-110815952D01*
X133913261Y-110854047D01*
X133875166Y-110892142D01*
X133837071Y-110968333D01*
X133837071Y-111120714D01*
X133875166Y-111196904D01*
X134370404Y-112187380D02*
X133570404Y-112187380D01*
X134370404Y-112530238D02*
X133951357Y-112530238D01*
X133875166Y-112492142D01*
X133837071Y-112415952D01*
X133837071Y-112301666D01*
X133875166Y-112225476D01*
X133913261Y-112187380D01*
X134370404Y-113254047D02*
X133951357Y-113254047D01*
X133875166Y-113215952D01*
X133837071Y-113139761D01*
X133837071Y-112987380D01*
X133875166Y-112911190D01*
X134332309Y-113254047D02*
X134370404Y-113177857D01*
X134370404Y-112987380D01*
X134332309Y-112911190D01*
X134256119Y-112873095D01*
X134179928Y-112873095D01*
X134103738Y-112911190D01*
X134065642Y-112987380D01*
X134065642Y-113177857D01*
X134027547Y-113254047D01*
X134332309Y-113596904D02*
X134370404Y-113673095D01*
X134370404Y-113825476D01*
X134332309Y-113901666D01*
X134256119Y-113939761D01*
X134218023Y-113939761D01*
X134141833Y-113901666D01*
X134103738Y-113825476D01*
X134103738Y-113711190D01*
X134065642Y-113635000D01*
X133989452Y-113596904D01*
X133951357Y-113596904D01*
X133875166Y-113635000D01*
X133837071Y-113711190D01*
X133837071Y-113825476D01*
X133875166Y-113901666D01*
X134370404Y-114892142D02*
X133570404Y-114892142D01*
X133875166Y-114892142D02*
X133837071Y-114968333D01*
X133837071Y-115120714D01*
X133875166Y-115196904D01*
X133913261Y-115234999D01*
X133989452Y-115273095D01*
X134218023Y-115273095D01*
X134294214Y-115234999D01*
X134332309Y-115196904D01*
X134370404Y-115120714D01*
X134370404Y-114968333D01*
X134332309Y-114892142D01*
X134332309Y-115920714D02*
X134370404Y-115844523D01*
X134370404Y-115692142D01*
X134332309Y-115615952D01*
X134256119Y-115577857D01*
X133951357Y-115577857D01*
X133875166Y-115615952D01*
X133837071Y-115692142D01*
X133837071Y-115844523D01*
X133875166Y-115920714D01*
X133951357Y-115958809D01*
X134027547Y-115958809D01*
X134103738Y-115577857D01*
X134332309Y-116606428D02*
X134370404Y-116530238D01*
X134370404Y-116377857D01*
X134332309Y-116301666D01*
X134256119Y-116263571D01*
X133951357Y-116263571D01*
X133875166Y-116301666D01*
X133837071Y-116377857D01*
X133837071Y-116530238D01*
X133875166Y-116606428D01*
X133951357Y-116644523D01*
X134027547Y-116644523D01*
X134103738Y-116263571D01*
X133837071Y-116987380D02*
X134370404Y-116987380D01*
X133913261Y-116987380D02*
X133875166Y-117025476D01*
X133837071Y-117101666D01*
X133837071Y-117215952D01*
X133875166Y-117292142D01*
X133951357Y-117330238D01*
X134370404Y-117330238D01*
X134370404Y-118663571D02*
X133570404Y-118663571D01*
X134332309Y-118663571D02*
X134370404Y-118587380D01*
X134370404Y-118434999D01*
X134332309Y-118358809D01*
X134294214Y-118320714D01*
X134218023Y-118282619D01*
X133989452Y-118282619D01*
X133913261Y-118320714D01*
X133875166Y-118358809D01*
X133837071Y-118434999D01*
X133837071Y-118587380D01*
X133875166Y-118663571D01*
X134332309Y-119349285D02*
X134370404Y-119273095D01*
X134370404Y-119120714D01*
X134332309Y-119044523D01*
X134256119Y-119006428D01*
X133951357Y-119006428D01*
X133875166Y-119044523D01*
X133837071Y-119120714D01*
X133837071Y-119273095D01*
X133875166Y-119349285D01*
X133951357Y-119387380D01*
X134027547Y-119387380D01*
X134103738Y-119006428D01*
X134332309Y-119692142D02*
X134370404Y-119768333D01*
X134370404Y-119920714D01*
X134332309Y-119996904D01*
X134256119Y-120034999D01*
X134218023Y-120034999D01*
X134141833Y-119996904D01*
X134103738Y-119920714D01*
X134103738Y-119806428D01*
X134065642Y-119730238D01*
X133989452Y-119692142D01*
X133951357Y-119692142D01*
X133875166Y-119730238D01*
X133837071Y-119806428D01*
X133837071Y-119920714D01*
X133875166Y-119996904D01*
X134370404Y-120377857D02*
X133837071Y-120377857D01*
X133570404Y-120377857D02*
X133608500Y-120339761D01*
X133646595Y-120377857D01*
X133608500Y-120415952D01*
X133570404Y-120377857D01*
X133646595Y-120377857D01*
X133837071Y-121101666D02*
X134484690Y-121101666D01*
X134560880Y-121063571D01*
X134598976Y-121025476D01*
X134637071Y-120949285D01*
X134637071Y-120834999D01*
X134598976Y-120758809D01*
X134332309Y-121101666D02*
X134370404Y-121025476D01*
X134370404Y-120873095D01*
X134332309Y-120796904D01*
X134294214Y-120758809D01*
X134218023Y-120720714D01*
X133989452Y-120720714D01*
X133913261Y-120758809D01*
X133875166Y-120796904D01*
X133837071Y-120873095D01*
X133837071Y-121025476D01*
X133875166Y-121101666D01*
X133837071Y-121482619D02*
X134370404Y-121482619D01*
X133913261Y-121482619D02*
X133875166Y-121520714D01*
X133837071Y-121596904D01*
X133837071Y-121711190D01*
X133875166Y-121787380D01*
X133951357Y-121825476D01*
X134370404Y-121825476D01*
X134332309Y-122511190D02*
X134370404Y-122434999D01*
X134370404Y-122282619D01*
X134332309Y-122206428D01*
X134256119Y-122168333D01*
X133951357Y-122168333D01*
X133875166Y-122206428D01*
X133837071Y-122282619D01*
X133837071Y-122434999D01*
X133875166Y-122511190D01*
X133951357Y-122549285D01*
X134027547Y-122549285D01*
X134103738Y-122168333D01*
X134370404Y-123234999D02*
X133570404Y-123234999D01*
X134332309Y-123234999D02*
X134370404Y-123158809D01*
X134370404Y-123006428D01*
X134332309Y-122930238D01*
X134294214Y-122892142D01*
X134218023Y-122854047D01*
X133989452Y-122854047D01*
X133913261Y-122892142D01*
X133875166Y-122930238D01*
X133837071Y-123006428D01*
X133837071Y-123158809D01*
X133875166Y-123234999D01*
X133837071Y-124111190D02*
X133837071Y-124415952D01*
X133570404Y-124225476D02*
X134256119Y-124225476D01*
X134332309Y-124263571D01*
X134370404Y-124339761D01*
X134370404Y-124415952D01*
X134370404Y-124796904D02*
X134332309Y-124720714D01*
X134294214Y-124682619D01*
X134218023Y-124644523D01*
X133989452Y-124644523D01*
X133913261Y-124682619D01*
X133875166Y-124720714D01*
X133837071Y-124796904D01*
X133837071Y-124911190D01*
X133875166Y-124987380D01*
X133913261Y-125025476D01*
X133989452Y-125063571D01*
X134218023Y-125063571D01*
X134294214Y-125025476D01*
X134332309Y-124987380D01*
X134370404Y-124911190D01*
X134370404Y-124796904D01*
X134370404Y-126015952D02*
X133570404Y-126015952D01*
X133875166Y-126015952D02*
X133837071Y-126092142D01*
X133837071Y-126244523D01*
X133875166Y-126320714D01*
X133913261Y-126358809D01*
X133989452Y-126396904D01*
X134218023Y-126396904D01*
X134294214Y-126358809D01*
X134332309Y-126320714D01*
X134370404Y-126244523D01*
X134370404Y-126092142D01*
X134332309Y-126015952D01*
X134332309Y-127044523D02*
X134370404Y-126968333D01*
X134370404Y-126815952D01*
X134332309Y-126739761D01*
X134256119Y-126701666D01*
X133951357Y-126701666D01*
X133875166Y-126739761D01*
X133837071Y-126815952D01*
X133837071Y-126968333D01*
X133875166Y-127044523D01*
X133951357Y-127082619D01*
X134027547Y-127082619D01*
X134103738Y-126701666D01*
X134370404Y-128377857D02*
X133951357Y-128377857D01*
X133875166Y-128339761D01*
X133837071Y-128263571D01*
X133837071Y-128111190D01*
X133875166Y-128034999D01*
X134332309Y-128377857D02*
X134370404Y-128301666D01*
X134370404Y-128111190D01*
X134332309Y-128034999D01*
X134256119Y-127996904D01*
X134179928Y-127996904D01*
X134103738Y-128034999D01*
X134065642Y-128111190D01*
X134065642Y-128301666D01*
X134027547Y-128377857D01*
X134332309Y-128720714D02*
X134370404Y-128796904D01*
X134370404Y-128949285D01*
X134332309Y-129025476D01*
X134256119Y-129063571D01*
X134218023Y-129063571D01*
X134141833Y-129025476D01*
X134103738Y-128949285D01*
X134103738Y-128834999D01*
X134065642Y-128758809D01*
X133989452Y-128720714D01*
X133951357Y-128720714D01*
X133875166Y-128758809D01*
X133837071Y-128834999D01*
X133837071Y-128949285D01*
X133875166Y-129025476D01*
X134332309Y-130320714D02*
X134370404Y-130244523D01*
X134370404Y-130092142D01*
X134332309Y-130015952D01*
X134256119Y-129977857D01*
X133951357Y-129977857D01*
X133875166Y-130015952D01*
X133837071Y-130092142D01*
X133837071Y-130244523D01*
X133875166Y-130320714D01*
X133951357Y-130358809D01*
X134027547Y-130358809D01*
X134103738Y-129977857D01*
X134370404Y-131044523D02*
X133951357Y-131044523D01*
X133875166Y-131006428D01*
X133837071Y-130930238D01*
X133837071Y-130777857D01*
X133875166Y-130701666D01*
X134332309Y-131044523D02*
X134370404Y-130968333D01*
X134370404Y-130777857D01*
X134332309Y-130701666D01*
X134256119Y-130663571D01*
X134179928Y-130663571D01*
X134103738Y-130701666D01*
X134065642Y-130777857D01*
X134065642Y-130968333D01*
X134027547Y-131044523D01*
X134332309Y-131387380D02*
X134370404Y-131463571D01*
X134370404Y-131615952D01*
X134332309Y-131692142D01*
X134256119Y-131730238D01*
X134218023Y-131730238D01*
X134141833Y-131692142D01*
X134103738Y-131615952D01*
X134103738Y-131501666D01*
X134065642Y-131425476D01*
X133989452Y-131387380D01*
X133951357Y-131387380D01*
X133875166Y-131425476D01*
X133837071Y-131501666D01*
X133837071Y-131615952D01*
X133875166Y-131692142D01*
X133837071Y-131996904D02*
X134370404Y-132187380D01*
X133837071Y-132377857D02*
X134370404Y-132187380D01*
X134560880Y-132111190D01*
X134598976Y-132073095D01*
X134637071Y-131996904D01*
X133837071Y-133177857D02*
X133837071Y-133482619D01*
X133570404Y-133292142D02*
X134256119Y-133292142D01*
X134332309Y-133330238D01*
X134370404Y-133406428D01*
X134370404Y-133482619D01*
X134370404Y-133863571D02*
X134332309Y-133787380D01*
X134294214Y-133749285D01*
X134218023Y-133711190D01*
X133989452Y-133711190D01*
X133913261Y-133749285D01*
X133875166Y-133787380D01*
X133837071Y-133863571D01*
X133837071Y-133977857D01*
X133875166Y-134054047D01*
X133913261Y-134092142D01*
X133989452Y-134130238D01*
X134218023Y-134130238D01*
X134294214Y-134092142D01*
X134332309Y-134054047D01*
X134370404Y-133977857D01*
X134370404Y-133863571D01*
X134370404Y-135425476D02*
X133951357Y-135425476D01*
X133875166Y-135387380D01*
X133837071Y-135311190D01*
X133837071Y-135158809D01*
X133875166Y-135082619D01*
X134332309Y-135425476D02*
X134370404Y-135349285D01*
X134370404Y-135158809D01*
X134332309Y-135082619D01*
X134256119Y-135044523D01*
X134179928Y-135044523D01*
X134103738Y-135082619D01*
X134065642Y-135158809D01*
X134065642Y-135349285D01*
X134027547Y-135425476D01*
X134332309Y-135768333D02*
X134370404Y-135844523D01*
X134370404Y-135996904D01*
X134332309Y-136073095D01*
X134256119Y-136111190D01*
X134218023Y-136111190D01*
X134141833Y-136073095D01*
X134103738Y-135996904D01*
X134103738Y-135882619D01*
X134065642Y-135806428D01*
X133989452Y-135768333D01*
X133951357Y-135768333D01*
X133875166Y-135806428D01*
X133837071Y-135882619D01*
X133837071Y-135996904D01*
X133875166Y-136073095D01*
X134332309Y-136415952D02*
X134370404Y-136492142D01*
X134370404Y-136644523D01*
X134332309Y-136720714D01*
X134256119Y-136758809D01*
X134218023Y-136758809D01*
X134141833Y-136720714D01*
X134103738Y-136644523D01*
X134103738Y-136530238D01*
X134065642Y-136454047D01*
X133989452Y-136415952D01*
X133951357Y-136415952D01*
X133875166Y-136454047D01*
X133837071Y-136530238D01*
X133837071Y-136644523D01*
X133875166Y-136720714D01*
X134332309Y-137406428D02*
X134370404Y-137330238D01*
X134370404Y-137177857D01*
X134332309Y-137101666D01*
X134256119Y-137063571D01*
X133951357Y-137063571D01*
X133875166Y-137101666D01*
X133837071Y-137177857D01*
X133837071Y-137330238D01*
X133875166Y-137406428D01*
X133951357Y-137444523D01*
X134027547Y-137444523D01*
X134103738Y-137063571D01*
X134370404Y-137787380D02*
X133837071Y-137787380D01*
X133913261Y-137787380D02*
X133875166Y-137825476D01*
X133837071Y-137901666D01*
X133837071Y-138015952D01*
X133875166Y-138092142D01*
X133951357Y-138130238D01*
X134370404Y-138130238D01*
X133951357Y-138130238D02*
X133875166Y-138168333D01*
X133837071Y-138244523D01*
X133837071Y-138358809D01*
X133875166Y-138434999D01*
X133951357Y-138473095D01*
X134370404Y-138473095D01*
X134370404Y-138854047D02*
X133570404Y-138854047D01*
X133875166Y-138854047D02*
X133837071Y-138930238D01*
X133837071Y-139082619D01*
X133875166Y-139158809D01*
X133913261Y-139196904D01*
X133989452Y-139234999D01*
X134218023Y-139234999D01*
X134294214Y-139196904D01*
X134332309Y-139158809D01*
X134370404Y-139082619D01*
X134370404Y-138930238D01*
X134332309Y-138854047D01*
X134370404Y-139692142D02*
X134332309Y-139615952D01*
X134256119Y-139577857D01*
X133570404Y-139577857D01*
X134332309Y-140301666D02*
X134370404Y-140225476D01*
X134370404Y-140073095D01*
X134332309Y-139996904D01*
X134256119Y-139958809D01*
X133951357Y-139958809D01*
X133875166Y-139996904D01*
X133837071Y-140073095D01*
X133837071Y-140225476D01*
X133875166Y-140301666D01*
X133951357Y-140339761D01*
X134027547Y-140339761D01*
X134103738Y-139958809D01*
X134370404Y-141634999D02*
X133951357Y-141634999D01*
X133875166Y-141596904D01*
X133837071Y-141520714D01*
X133837071Y-141368333D01*
X133875166Y-141292142D01*
X134332309Y-141634999D02*
X134370404Y-141558809D01*
X134370404Y-141368333D01*
X134332309Y-141292142D01*
X134256119Y-141254047D01*
X134179928Y-141254047D01*
X134103738Y-141292142D01*
X134065642Y-141368333D01*
X134065642Y-141558809D01*
X134027547Y-141634999D01*
X134332309Y-141977857D02*
X134370404Y-142054047D01*
X134370404Y-142206428D01*
X134332309Y-142282619D01*
X134256119Y-142320714D01*
X134218023Y-142320714D01*
X134141833Y-142282619D01*
X134103738Y-142206428D01*
X134103738Y-142092142D01*
X134065642Y-142015952D01*
X133989452Y-141977857D01*
X133951357Y-141977857D01*
X133875166Y-142015952D01*
X133837071Y-142092142D01*
X133837071Y-142206428D01*
X133875166Y-142282619D01*
X133837071Y-143273095D02*
X134637071Y-143273095D01*
X133875166Y-143273095D02*
X133837071Y-143349285D01*
X133837071Y-143501666D01*
X133875166Y-143577857D01*
X133913261Y-143615952D01*
X133989452Y-143654047D01*
X134218023Y-143654047D01*
X134294214Y-143615952D01*
X134332309Y-143577857D01*
X134370404Y-143501666D01*
X134370404Y-143349285D01*
X134332309Y-143273095D01*
X134370404Y-144111190D02*
X134332309Y-144034999D01*
X134294214Y-143996904D01*
X134218023Y-143958809D01*
X133989452Y-143958809D01*
X133913261Y-143996904D01*
X133875166Y-144034999D01*
X133837071Y-144111190D01*
X133837071Y-144225476D01*
X133875166Y-144301666D01*
X133913261Y-144339761D01*
X133989452Y-144377857D01*
X134218023Y-144377857D01*
X134294214Y-144339761D01*
X134332309Y-144301666D01*
X134370404Y-144225476D01*
X134370404Y-144111190D01*
X134332309Y-144682619D02*
X134370404Y-144758809D01*
X134370404Y-144911190D01*
X134332309Y-144987380D01*
X134256119Y-145025476D01*
X134218023Y-145025476D01*
X134141833Y-144987380D01*
X134103738Y-144911190D01*
X134103738Y-144796904D01*
X134065642Y-144720714D01*
X133989452Y-144682619D01*
X133951357Y-144682619D01*
X133875166Y-144720714D01*
X133837071Y-144796904D01*
X133837071Y-144911190D01*
X133875166Y-144987380D01*
X134332309Y-145330238D02*
X134370404Y-145406428D01*
X134370404Y-145558809D01*
X134332309Y-145634999D01*
X134256119Y-145673095D01*
X134218023Y-145673095D01*
X134141833Y-145634999D01*
X134103738Y-145558809D01*
X134103738Y-145444523D01*
X134065642Y-145368333D01*
X133989452Y-145330238D01*
X133951357Y-145330238D01*
X133875166Y-145368333D01*
X133837071Y-145444523D01*
X133837071Y-145558809D01*
X133875166Y-145634999D01*
X134370404Y-146015952D02*
X133837071Y-146015952D01*
X133570404Y-146015952D02*
X133608500Y-145977857D01*
X133646595Y-146015952D01*
X133608500Y-146054047D01*
X133570404Y-146015952D01*
X133646595Y-146015952D01*
X134370404Y-146396904D02*
X133570404Y-146396904D01*
X133875166Y-146396904D02*
X133837071Y-146473095D01*
X133837071Y-146625476D01*
X133875166Y-146701666D01*
X133913261Y-146739761D01*
X133989452Y-146777857D01*
X134218023Y-146777857D01*
X134294214Y-146739761D01*
X134332309Y-146701666D01*
X134370404Y-146625476D01*
X134370404Y-146473095D01*
X134332309Y-146396904D01*
X134370404Y-147234999D02*
X134332309Y-147158809D01*
X134256119Y-147120714D01*
X133570404Y-147120714D01*
X134332309Y-147844523D02*
X134370404Y-147768333D01*
X134370404Y-147615952D01*
X134332309Y-147539761D01*
X134256119Y-147501666D01*
X133951357Y-147501666D01*
X133875166Y-147539761D01*
X133837071Y-147615952D01*
X133837071Y-147768333D01*
X133875166Y-147844523D01*
X133951357Y-147882619D01*
X134027547Y-147882619D01*
X134103738Y-147501666D01*
X134065642Y-148834999D02*
X134065642Y-149444523D01*
X135162071Y-105463571D02*
X135162071Y-105768333D01*
X135695404Y-105577857D02*
X135009690Y-105577857D01*
X134933500Y-105615952D01*
X134895404Y-105692142D01*
X134895404Y-105768333D01*
X135695404Y-106149285D02*
X135657309Y-106073095D01*
X135619214Y-106035000D01*
X135543023Y-105996904D01*
X135314452Y-105996904D01*
X135238261Y-106035000D01*
X135200166Y-106073095D01*
X135162071Y-106149285D01*
X135162071Y-106263571D01*
X135200166Y-106339761D01*
X135238261Y-106377857D01*
X135314452Y-106415952D01*
X135543023Y-106415952D01*
X135619214Y-106377857D01*
X135657309Y-106339761D01*
X135695404Y-106263571D01*
X135695404Y-106149285D01*
X135695404Y-106758809D02*
X135162071Y-106758809D01*
X135314452Y-106758809D02*
X135238261Y-106796904D01*
X135200166Y-106835000D01*
X135162071Y-106911190D01*
X135162071Y-106987380D01*
X135162071Y-107749285D02*
X135162071Y-108054047D01*
X135695404Y-107863571D02*
X135009690Y-107863571D01*
X134933500Y-107901666D01*
X134895404Y-107977857D01*
X134895404Y-108054047D01*
X135695404Y-108320714D02*
X135162071Y-108320714D01*
X134895404Y-108320714D02*
X134933500Y-108282619D01*
X134971595Y-108320714D01*
X134933500Y-108358809D01*
X134895404Y-108320714D01*
X134971595Y-108320714D01*
X135695404Y-108701666D02*
X135162071Y-108701666D01*
X135314452Y-108701666D02*
X135238261Y-108739761D01*
X135200166Y-108777857D01*
X135162071Y-108854047D01*
X135162071Y-108930238D01*
X135657309Y-109158809D02*
X135695404Y-109235000D01*
X135695404Y-109387380D01*
X135657309Y-109463571D01*
X135581119Y-109501666D01*
X135543023Y-109501666D01*
X135466833Y-109463571D01*
X135428738Y-109387380D01*
X135428738Y-109273095D01*
X135390642Y-109196904D01*
X135314452Y-109158809D01*
X135276357Y-109158809D01*
X135200166Y-109196904D01*
X135162071Y-109273095D01*
X135162071Y-109387380D01*
X135200166Y-109463571D01*
X135162071Y-109730238D02*
X135162071Y-110035000D01*
X134895404Y-109844523D02*
X135581119Y-109844523D01*
X135657309Y-109882619D01*
X135695404Y-109958809D01*
X135695404Y-110035000D01*
X135162071Y-110796904D02*
X135162071Y-111101666D01*
X134895404Y-110911190D02*
X135581119Y-110911190D01*
X135657309Y-110949285D01*
X135695404Y-111025476D01*
X135695404Y-111101666D01*
X135695404Y-111368333D02*
X135162071Y-111368333D01*
X134895404Y-111368333D02*
X134933500Y-111330238D01*
X134971595Y-111368333D01*
X134933500Y-111406428D01*
X134895404Y-111368333D01*
X134971595Y-111368333D01*
X135695404Y-111749285D02*
X135162071Y-111749285D01*
X135238261Y-111749285D02*
X135200166Y-111787380D01*
X135162071Y-111863571D01*
X135162071Y-111977857D01*
X135200166Y-112054047D01*
X135276357Y-112092142D01*
X135695404Y-112092142D01*
X135276357Y-112092142D02*
X135200166Y-112130238D01*
X135162071Y-112206428D01*
X135162071Y-112320714D01*
X135200166Y-112396904D01*
X135276357Y-112435000D01*
X135695404Y-112435000D01*
X135657309Y-113120714D02*
X135695404Y-113044523D01*
X135695404Y-112892142D01*
X135657309Y-112815952D01*
X135581119Y-112777857D01*
X135276357Y-112777857D01*
X135200166Y-112815952D01*
X135162071Y-112892142D01*
X135162071Y-113044523D01*
X135200166Y-113120714D01*
X135276357Y-113158809D01*
X135352547Y-113158809D01*
X135428738Y-112777857D01*
X135657309Y-114073095D02*
X135695404Y-114187380D01*
X135695404Y-114377857D01*
X135657309Y-114454047D01*
X135619214Y-114492142D01*
X135543023Y-114530238D01*
X135466833Y-114530238D01*
X135390642Y-114492142D01*
X135352547Y-114454047D01*
X135314452Y-114377857D01*
X135276357Y-114225476D01*
X135238261Y-114149285D01*
X135200166Y-114111190D01*
X135123976Y-114073095D01*
X135047785Y-114073095D01*
X134971595Y-114111190D01*
X134933500Y-114149285D01*
X134895404Y-114225476D01*
X134895404Y-114415952D01*
X134933500Y-114530238D01*
X135695404Y-114873095D02*
X134895404Y-114873095D01*
X135466833Y-115139761D01*
X134895404Y-115406428D01*
X135695404Y-115406428D01*
X134895404Y-115673095D02*
X134895404Y-116130238D01*
X135695404Y-115901666D02*
X134895404Y-115901666D01*
X135162071Y-116930238D02*
X135695404Y-117082619D01*
X135314452Y-117235000D01*
X135695404Y-117387380D01*
X135162071Y-117539761D01*
X135695404Y-117958809D02*
X135657309Y-117882619D01*
X135619214Y-117844523D01*
X135543023Y-117806428D01*
X135314452Y-117806428D01*
X135238261Y-117844523D01*
X135200166Y-117882619D01*
X135162071Y-117958809D01*
X135162071Y-118073095D01*
X135200166Y-118149285D01*
X135238261Y-118187380D01*
X135314452Y-118225476D01*
X135543023Y-118225476D01*
X135619214Y-118187380D01*
X135657309Y-118149285D01*
X135695404Y-118073095D01*
X135695404Y-117958809D01*
X135695404Y-118568333D02*
X135162071Y-118568333D01*
X135314452Y-118568333D02*
X135238261Y-118606428D01*
X135200166Y-118644523D01*
X135162071Y-118720714D01*
X135162071Y-118796904D01*
X135695404Y-119063571D02*
X134895404Y-119063571D01*
X135390642Y-119139761D02*
X135695404Y-119368333D01*
X135162071Y-119368333D02*
X135466833Y-119063571D01*
X135619214Y-119711190D02*
X135657309Y-119749285D01*
X135695404Y-119711190D01*
X135657309Y-119673095D01*
X135619214Y-119711190D01*
X135695404Y-119711190D01*
X135695404Y-120701666D02*
X134895404Y-120701666D01*
X135162071Y-120968333D02*
X135162071Y-121273095D01*
X135695404Y-121082619D02*
X135009690Y-121082619D01*
X134933500Y-121120714D01*
X134895404Y-121196904D01*
X134895404Y-121273095D01*
X135162071Y-122073095D02*
X135695404Y-122263571D01*
X135162071Y-122454047D02*
X135695404Y-122263571D01*
X135885880Y-122187380D01*
X135923976Y-122149285D01*
X135962071Y-122073095D01*
X135695404Y-122873095D02*
X135657309Y-122796904D01*
X135619214Y-122758809D01*
X135543023Y-122720714D01*
X135314452Y-122720714D01*
X135238261Y-122758809D01*
X135200166Y-122796904D01*
X135162071Y-122873095D01*
X135162071Y-122987380D01*
X135200166Y-123063571D01*
X135238261Y-123101666D01*
X135314452Y-123139761D01*
X135543023Y-123139761D01*
X135619214Y-123101666D01*
X135657309Y-123063571D01*
X135695404Y-122987380D01*
X135695404Y-122873095D01*
X135162071Y-123825476D02*
X135695404Y-123825476D01*
X135162071Y-123482619D02*
X135581119Y-123482619D01*
X135657309Y-123520714D01*
X135695404Y-123596904D01*
X135695404Y-123711190D01*
X135657309Y-123787380D01*
X135619214Y-123825476D01*
X134895404Y-124244523D02*
X134933500Y-124244523D01*
X135009690Y-124206428D01*
X135047785Y-124168333D01*
X135162071Y-124511190D02*
X135695404Y-124701666D01*
X135162071Y-124892142D01*
X135657309Y-125501666D02*
X135695404Y-125425476D01*
X135695404Y-125273095D01*
X135657309Y-125196904D01*
X135581119Y-125158809D01*
X135276357Y-125158809D01*
X135200166Y-125196904D01*
X135162071Y-125273095D01*
X135162071Y-125425476D01*
X135200166Y-125501666D01*
X135276357Y-125539761D01*
X135352547Y-125539761D01*
X135428738Y-125158809D01*
X135695404Y-126492142D02*
X134895404Y-126492142D01*
X135200166Y-126492142D02*
X135162071Y-126568333D01*
X135162071Y-126720714D01*
X135200166Y-126796904D01*
X135238261Y-126835000D01*
X135314452Y-126873095D01*
X135543023Y-126873095D01*
X135619214Y-126835000D01*
X135657309Y-126796904D01*
X135695404Y-126720714D01*
X135695404Y-126568333D01*
X135657309Y-126492142D01*
X135162071Y-127558809D02*
X135695404Y-127558809D01*
X135162071Y-127215952D02*
X135581119Y-127215952D01*
X135657309Y-127254047D01*
X135695404Y-127330238D01*
X135695404Y-127444523D01*
X135657309Y-127520714D01*
X135619214Y-127558809D01*
X135695404Y-127939761D02*
X135162071Y-127939761D01*
X134895404Y-127939761D02*
X134933500Y-127901666D01*
X134971595Y-127939761D01*
X134933500Y-127977857D01*
X134895404Y-127939761D01*
X134971595Y-127939761D01*
X135695404Y-128435000D02*
X135657309Y-128358809D01*
X135581119Y-128320714D01*
X134895404Y-128320714D01*
X135162071Y-128625476D02*
X135162071Y-128930238D01*
X134895404Y-128739761D02*
X135581119Y-128739761D01*
X135657309Y-128777857D01*
X135695404Y-128854047D01*
X135695404Y-128930238D01*
X135695404Y-129806428D02*
X135162071Y-129806428D01*
X135238261Y-129806428D02*
X135200166Y-129844523D01*
X135162071Y-129920714D01*
X135162071Y-130035000D01*
X135200166Y-130111190D01*
X135276357Y-130149285D01*
X135695404Y-130149285D01*
X135276357Y-130149285D02*
X135200166Y-130187380D01*
X135162071Y-130263571D01*
X135162071Y-130377857D01*
X135200166Y-130454047D01*
X135276357Y-130492142D01*
X135695404Y-130492142D01*
X135162071Y-130796904D02*
X135695404Y-130987380D01*
X135162071Y-131177857D02*
X135695404Y-130987380D01*
X135885880Y-130911190D01*
X135923976Y-130873095D01*
X135962071Y-130796904D01*
X135695404Y-132206428D02*
X135657309Y-132130238D01*
X135619214Y-132092142D01*
X135543023Y-132054047D01*
X135314452Y-132054047D01*
X135238261Y-132092142D01*
X135200166Y-132130238D01*
X135162071Y-132206428D01*
X135162071Y-132320714D01*
X135200166Y-132396904D01*
X135238261Y-132435000D01*
X135314452Y-132473095D01*
X135543023Y-132473095D01*
X135619214Y-132435000D01*
X135657309Y-132396904D01*
X135695404Y-132320714D01*
X135695404Y-132206428D01*
X135162071Y-132701666D02*
X135162071Y-133006428D01*
X134895404Y-132815952D02*
X135581119Y-132815952D01*
X135657309Y-132854047D01*
X135695404Y-132930238D01*
X135695404Y-133006428D01*
X135695404Y-133273095D02*
X134895404Y-133273095D01*
X135695404Y-133615952D02*
X135276357Y-133615952D01*
X135200166Y-133577857D01*
X135162071Y-133501666D01*
X135162071Y-133387380D01*
X135200166Y-133311190D01*
X135238261Y-133273095D01*
X135657309Y-134301666D02*
X135695404Y-134225476D01*
X135695404Y-134073095D01*
X135657309Y-133996904D01*
X135581119Y-133958809D01*
X135276357Y-133958809D01*
X135200166Y-133996904D01*
X135162071Y-134073095D01*
X135162071Y-134225476D01*
X135200166Y-134301666D01*
X135276357Y-134339761D01*
X135352547Y-134339761D01*
X135428738Y-133958809D01*
X135695404Y-134682619D02*
X135162071Y-134682619D01*
X135314452Y-134682619D02*
X135238261Y-134720714D01*
X135200166Y-134758809D01*
X135162071Y-134835000D01*
X135162071Y-134911190D01*
X135695404Y-135787380D02*
X134895404Y-135787380D01*
X135200166Y-135787380D02*
X135162071Y-135863571D01*
X135162071Y-136015952D01*
X135200166Y-136092142D01*
X135238261Y-136130238D01*
X135314452Y-136168333D01*
X135543023Y-136168333D01*
X135619214Y-136130238D01*
X135657309Y-136092142D01*
X135695404Y-136015952D01*
X135695404Y-135863571D01*
X135657309Y-135787380D01*
X135695404Y-136625476D02*
X135657309Y-136549285D01*
X135619214Y-136511190D01*
X135543023Y-136473095D01*
X135314452Y-136473095D01*
X135238261Y-136511190D01*
X135200166Y-136549285D01*
X135162071Y-136625476D01*
X135162071Y-136739761D01*
X135200166Y-136815952D01*
X135238261Y-136854047D01*
X135314452Y-136892142D01*
X135543023Y-136892142D01*
X135619214Y-136854047D01*
X135657309Y-136815952D01*
X135695404Y-136739761D01*
X135695404Y-136625476D01*
X135695404Y-137577857D02*
X135276357Y-137577857D01*
X135200166Y-137539761D01*
X135162071Y-137463571D01*
X135162071Y-137311190D01*
X135200166Y-137235000D01*
X135657309Y-137577857D02*
X135695404Y-137501666D01*
X135695404Y-137311190D01*
X135657309Y-137235000D01*
X135581119Y-137196904D01*
X135504928Y-137196904D01*
X135428738Y-137235000D01*
X135390642Y-137311190D01*
X135390642Y-137501666D01*
X135352547Y-137577857D01*
X135695404Y-137958809D02*
X135162071Y-137958809D01*
X135314452Y-137958809D02*
X135238261Y-137996904D01*
X135200166Y-138035000D01*
X135162071Y-138111190D01*
X135162071Y-138187380D01*
X135695404Y-138796904D02*
X134895404Y-138796904D01*
X135657309Y-138796904D02*
X135695404Y-138720714D01*
X135695404Y-138568333D01*
X135657309Y-138492142D01*
X135619214Y-138454047D01*
X135543023Y-138415952D01*
X135314452Y-138415952D01*
X135238261Y-138454047D01*
X135200166Y-138492142D01*
X135162071Y-138568333D01*
X135162071Y-138720714D01*
X135200166Y-138796904D01*
X135657309Y-139139761D02*
X135695404Y-139215952D01*
X135695404Y-139368333D01*
X135657309Y-139444523D01*
X135581119Y-139482619D01*
X135543023Y-139482619D01*
X135466833Y-139444523D01*
X135428738Y-139368333D01*
X135428738Y-139254047D01*
X135390642Y-139177857D01*
X135314452Y-139139761D01*
X135276357Y-139139761D01*
X135200166Y-139177857D01*
X135162071Y-139254047D01*
X135162071Y-139368333D01*
X135200166Y-139444523D01*
X135657309Y-139863571D02*
X135695404Y-139863571D01*
X135771595Y-139825476D01*
X135809690Y-139787380D01*
X135162071Y-140739761D02*
X135695404Y-140930238D01*
X135162071Y-141120714D02*
X135695404Y-140930238D01*
X135885880Y-140854047D01*
X135923976Y-140815952D01*
X135962071Y-140739761D01*
X135695404Y-141539761D02*
X135657309Y-141463571D01*
X135619214Y-141425476D01*
X135543023Y-141387380D01*
X135314452Y-141387380D01*
X135238261Y-141425476D01*
X135200166Y-141463571D01*
X135162071Y-141539761D01*
X135162071Y-141654047D01*
X135200166Y-141730238D01*
X135238261Y-141768333D01*
X135314452Y-141806428D01*
X135543023Y-141806428D01*
X135619214Y-141768333D01*
X135657309Y-141730238D01*
X135695404Y-141654047D01*
X135695404Y-141539761D01*
X135162071Y-142492142D02*
X135695404Y-142492142D01*
X135162071Y-142149285D02*
X135581119Y-142149285D01*
X135657309Y-142187380D01*
X135695404Y-142263571D01*
X135695404Y-142377857D01*
X135657309Y-142454047D01*
X135619214Y-142492142D01*
X135657309Y-143444523D02*
X135695404Y-143520714D01*
X135695404Y-143673095D01*
X135657309Y-143749285D01*
X135581119Y-143787380D01*
X135543023Y-143787380D01*
X135466833Y-143749285D01*
X135428738Y-143673095D01*
X135428738Y-143558809D01*
X135390642Y-143482619D01*
X135314452Y-143444523D01*
X135276357Y-143444523D01*
X135200166Y-143482619D01*
X135162071Y-143558809D01*
X135162071Y-143673095D01*
X135200166Y-143749285D01*
X135695404Y-144130238D02*
X134895404Y-144130238D01*
X135695404Y-144473095D02*
X135276357Y-144473095D01*
X135200166Y-144435000D01*
X135162071Y-144358809D01*
X135162071Y-144244523D01*
X135200166Y-144168333D01*
X135238261Y-144130238D01*
X135695404Y-144968333D02*
X135657309Y-144892142D01*
X135619214Y-144854047D01*
X135543023Y-144815952D01*
X135314452Y-144815952D01*
X135238261Y-144854047D01*
X135200166Y-144892142D01*
X135162071Y-144968333D01*
X135162071Y-145082619D01*
X135200166Y-145158809D01*
X135238261Y-145196904D01*
X135314452Y-145235000D01*
X135543023Y-145235000D01*
X135619214Y-145196904D01*
X135657309Y-145158809D01*
X135695404Y-145082619D01*
X135695404Y-144968333D01*
X135162071Y-145920714D02*
X135695404Y-145920714D01*
X135162071Y-145577857D02*
X135581119Y-145577857D01*
X135657309Y-145615952D01*
X135695404Y-145692142D01*
X135695404Y-145806428D01*
X135657309Y-145882619D01*
X135619214Y-145920714D01*
X135695404Y-146415952D02*
X135657309Y-146339761D01*
X135581119Y-146301666D01*
X134895404Y-146301666D01*
X135695404Y-147063571D02*
X134895404Y-147063571D01*
X135657309Y-147063571D02*
X135695404Y-146987380D01*
X135695404Y-146835000D01*
X135657309Y-146758809D01*
X135619214Y-146720714D01*
X135543023Y-146682619D01*
X135314452Y-146682619D01*
X135238261Y-146720714D01*
X135200166Y-146758809D01*
X135162071Y-146835000D01*
X135162071Y-146987380D01*
X135200166Y-147063571D01*
X135695404Y-148054047D02*
X134895404Y-148054047D01*
X135200166Y-148054047D02*
X135162071Y-148130238D01*
X135162071Y-148282619D01*
X135200166Y-148358809D01*
X135238261Y-148396904D01*
X135314452Y-148435000D01*
X135543023Y-148435000D01*
X135619214Y-148396904D01*
X135657309Y-148358809D01*
X135695404Y-148282619D01*
X135695404Y-148130238D01*
X135657309Y-148054047D01*
X135657309Y-149082619D02*
X135695404Y-149006428D01*
X135695404Y-148854047D01*
X135657309Y-148777857D01*
X135581119Y-148739761D01*
X135276357Y-148739761D01*
X135200166Y-148777857D01*
X135162071Y-148854047D01*
X135162071Y-149006428D01*
X135200166Y-149082619D01*
X135276357Y-149120714D01*
X135352547Y-149120714D01*
X135428738Y-148739761D01*
X137020404Y-111768333D02*
X136601357Y-111768333D01*
X136525166Y-111730238D01*
X136487071Y-111654047D01*
X136487071Y-111501666D01*
X136525166Y-111425476D01*
X136982309Y-111768333D02*
X137020404Y-111692142D01*
X137020404Y-111501666D01*
X136982309Y-111425476D01*
X136906119Y-111387380D01*
X136829928Y-111387380D01*
X136753738Y-111425476D01*
X136715642Y-111501666D01*
X136715642Y-111692142D01*
X136677547Y-111768333D01*
X137020404Y-112149285D02*
X136220404Y-112149285D01*
X136525166Y-112149285D02*
X136487071Y-112225476D01*
X136487071Y-112377857D01*
X136525166Y-112454047D01*
X136563261Y-112492142D01*
X136639452Y-112530238D01*
X136868023Y-112530238D01*
X136944214Y-112492142D01*
X136982309Y-112454047D01*
X137020404Y-112377857D01*
X137020404Y-112225476D01*
X136982309Y-112149285D01*
X137020404Y-112987380D02*
X136982309Y-112911190D01*
X136906119Y-112873095D01*
X136220404Y-112873095D01*
X136982309Y-113596904D02*
X137020404Y-113520714D01*
X137020404Y-113368333D01*
X136982309Y-113292142D01*
X136906119Y-113254047D01*
X136601357Y-113254047D01*
X136525166Y-113292142D01*
X136487071Y-113368333D01*
X136487071Y-113520714D01*
X136525166Y-113596904D01*
X136601357Y-113635000D01*
X136677547Y-113635000D01*
X136753738Y-113254047D01*
X136487071Y-114473095D02*
X136487071Y-114777857D01*
X136220404Y-114587380D02*
X136906119Y-114587380D01*
X136982309Y-114625476D01*
X137020404Y-114701666D01*
X137020404Y-114777857D01*
X137020404Y-115158809D02*
X136982309Y-115082619D01*
X136944214Y-115044523D01*
X136868023Y-115006428D01*
X136639452Y-115006428D01*
X136563261Y-115044523D01*
X136525166Y-115082619D01*
X136487071Y-115158809D01*
X136487071Y-115273095D01*
X136525166Y-115349285D01*
X136563261Y-115387380D01*
X136639452Y-115425476D01*
X136868023Y-115425476D01*
X136944214Y-115387380D01*
X136982309Y-115349285D01*
X137020404Y-115273095D01*
X137020404Y-115158809D01*
X137020404Y-116377857D02*
X136220404Y-116377857D01*
X137020404Y-116720714D02*
X136601357Y-116720714D01*
X136525166Y-116682619D01*
X136487071Y-116606428D01*
X136487071Y-116492142D01*
X136525166Y-116415952D01*
X136563261Y-116377857D01*
X137020404Y-117444523D02*
X136601357Y-117444523D01*
X136525166Y-117406428D01*
X136487071Y-117330238D01*
X136487071Y-117177857D01*
X136525166Y-117101666D01*
X136982309Y-117444523D02*
X137020404Y-117368333D01*
X137020404Y-117177857D01*
X136982309Y-117101666D01*
X136906119Y-117063571D01*
X136829928Y-117063571D01*
X136753738Y-117101666D01*
X136715642Y-117177857D01*
X136715642Y-117368333D01*
X136677547Y-117444523D01*
X136487071Y-117825476D02*
X137020404Y-117825476D01*
X136563261Y-117825476D02*
X136525166Y-117863571D01*
X136487071Y-117939761D01*
X136487071Y-118054047D01*
X136525166Y-118130238D01*
X136601357Y-118168333D01*
X137020404Y-118168333D01*
X137020404Y-118892142D02*
X136220404Y-118892142D01*
X136982309Y-118892142D02*
X137020404Y-118815952D01*
X137020404Y-118663571D01*
X136982309Y-118587380D01*
X136944214Y-118549285D01*
X136868023Y-118511190D01*
X136639452Y-118511190D01*
X136563261Y-118549285D01*
X136525166Y-118587380D01*
X136487071Y-118663571D01*
X136487071Y-118815952D01*
X136525166Y-118892142D01*
X137020404Y-119387380D02*
X136982309Y-119311190D01*
X136906119Y-119273095D01*
X136220404Y-119273095D01*
X136982309Y-119996904D02*
X137020404Y-119920714D01*
X137020404Y-119768333D01*
X136982309Y-119692142D01*
X136906119Y-119654047D01*
X136601357Y-119654047D01*
X136525166Y-119692142D01*
X136487071Y-119768333D01*
X136487071Y-119920714D01*
X136525166Y-119996904D01*
X136601357Y-120035000D01*
X136677547Y-120035000D01*
X136753738Y-119654047D01*
X136487071Y-120873095D02*
X136487071Y-121177857D01*
X136220404Y-120987380D02*
X136906119Y-120987380D01*
X136982309Y-121025476D01*
X137020404Y-121101666D01*
X137020404Y-121177857D01*
X137020404Y-121444523D02*
X136220404Y-121444523D01*
X137020404Y-121787380D02*
X136601357Y-121787380D01*
X136525166Y-121749285D01*
X136487071Y-121673095D01*
X136487071Y-121558809D01*
X136525166Y-121482619D01*
X136563261Y-121444523D01*
X137020404Y-122168333D02*
X136487071Y-122168333D01*
X136220404Y-122168333D02*
X136258500Y-122130238D01*
X136296595Y-122168333D01*
X136258500Y-122206428D01*
X136220404Y-122168333D01*
X136296595Y-122168333D01*
X136982309Y-122511190D02*
X137020404Y-122587380D01*
X137020404Y-122739761D01*
X136982309Y-122815952D01*
X136906119Y-122854047D01*
X136868023Y-122854047D01*
X136791833Y-122815952D01*
X136753738Y-122739761D01*
X136753738Y-122625476D01*
X136715642Y-122549285D01*
X136639452Y-122511190D01*
X136601357Y-122511190D01*
X136525166Y-122549285D01*
X136487071Y-122625476D01*
X136487071Y-122739761D01*
X136525166Y-122815952D01*
X136715642Y-123806428D02*
X136715642Y-124415952D01*
X137020404Y-125749285D02*
X136220404Y-125749285D01*
X136982309Y-125749285D02*
X137020404Y-125673095D01*
X137020404Y-125520714D01*
X136982309Y-125444523D01*
X136944214Y-125406428D01*
X136868023Y-125368333D01*
X136639452Y-125368333D01*
X136563261Y-125406428D01*
X136525166Y-125444523D01*
X136487071Y-125520714D01*
X136487071Y-125673095D01*
X136525166Y-125749285D01*
X137020404Y-126244523D02*
X136982309Y-126168333D01*
X136944214Y-126130238D01*
X136868023Y-126092142D01*
X136639452Y-126092142D01*
X136563261Y-126130238D01*
X136525166Y-126168333D01*
X136487071Y-126244523D01*
X136487071Y-126358809D01*
X136525166Y-126435000D01*
X136563261Y-126473095D01*
X136639452Y-126511190D01*
X136868023Y-126511190D01*
X136944214Y-126473095D01*
X136982309Y-126435000D01*
X137020404Y-126358809D01*
X137020404Y-126244523D01*
X136487071Y-126854047D02*
X137020404Y-126854047D01*
X136563261Y-126854047D02*
X136525166Y-126892142D01*
X136487071Y-126968333D01*
X136487071Y-127082619D01*
X136525166Y-127158809D01*
X136601357Y-127196904D01*
X137020404Y-127196904D01*
X136220404Y-127615952D02*
X136258500Y-127615952D01*
X136334690Y-127577857D01*
X136372785Y-127539761D01*
X136487071Y-127844523D02*
X136487071Y-128149285D01*
X136220404Y-127958809D02*
X136906119Y-127958809D01*
X136982309Y-127996904D01*
X137020404Y-128073095D01*
X137020404Y-128149285D01*
X137020404Y-129368333D02*
X136220404Y-129368333D01*
X136982309Y-129368333D02*
X137020404Y-129292142D01*
X137020404Y-129139761D01*
X136982309Y-129063571D01*
X136944214Y-129025476D01*
X136868023Y-128987380D01*
X136639452Y-128987380D01*
X136563261Y-129025476D01*
X136525166Y-129063571D01*
X136487071Y-129139761D01*
X136487071Y-129292142D01*
X136525166Y-129368333D01*
X137020404Y-129863571D02*
X136982309Y-129787380D01*
X136944214Y-129749285D01*
X136868023Y-129711190D01*
X136639452Y-129711190D01*
X136563261Y-129749285D01*
X136525166Y-129787380D01*
X136487071Y-129863571D01*
X136487071Y-129977857D01*
X136525166Y-130054047D01*
X136563261Y-130092142D01*
X136639452Y-130130238D01*
X136868023Y-130130238D01*
X136944214Y-130092142D01*
X136982309Y-130054047D01*
X137020404Y-129977857D01*
X137020404Y-129863571D01*
X136487071Y-130815952D02*
X137020404Y-130815952D01*
X136487071Y-130473095D02*
X136906119Y-130473095D01*
X136982309Y-130511190D01*
X137020404Y-130587380D01*
X137020404Y-130701666D01*
X136982309Y-130777857D01*
X136944214Y-130815952D01*
X137020404Y-131196904D02*
X136220404Y-131196904D01*
X136525166Y-131196904D02*
X136487071Y-131273095D01*
X136487071Y-131425476D01*
X136525166Y-131501666D01*
X136563261Y-131539761D01*
X136639452Y-131577857D01*
X136868023Y-131577857D01*
X136944214Y-131539761D01*
X136982309Y-131501666D01*
X137020404Y-131425476D01*
X137020404Y-131273095D01*
X136982309Y-131196904D01*
X136487071Y-131806428D02*
X136487071Y-132111190D01*
X136220404Y-131920714D02*
X136906119Y-131920714D01*
X136982309Y-131958809D01*
X137020404Y-132035000D01*
X137020404Y-132111190D01*
X136487071Y-132911190D02*
X137020404Y-133101666D01*
X136487071Y-133292142D02*
X137020404Y-133101666D01*
X137210880Y-133025476D01*
X137248976Y-132987380D01*
X137287071Y-132911190D01*
X137020404Y-133711190D02*
X136982309Y-133635000D01*
X136944214Y-133596904D01*
X136868023Y-133558809D01*
X136639452Y-133558809D01*
X136563261Y-133596904D01*
X136525166Y-133635000D01*
X136487071Y-133711190D01*
X136487071Y-133825476D01*
X136525166Y-133901666D01*
X136563261Y-133939761D01*
X136639452Y-133977857D01*
X136868023Y-133977857D01*
X136944214Y-133939761D01*
X136982309Y-133901666D01*
X137020404Y-133825476D01*
X137020404Y-133711190D01*
X136487071Y-134663571D02*
X137020404Y-134663571D01*
X136487071Y-134320714D02*
X136906119Y-134320714D01*
X136982309Y-134358809D01*
X137020404Y-134435000D01*
X137020404Y-134549285D01*
X136982309Y-134625476D01*
X136944214Y-134663571D01*
X137020404Y-135044523D02*
X136487071Y-135044523D01*
X136639452Y-135044523D02*
X136563261Y-135082619D01*
X136525166Y-135120714D01*
X136487071Y-135196904D01*
X136487071Y-135273095D01*
X137020404Y-136263571D02*
X136982309Y-136187380D01*
X136944214Y-136149285D01*
X136868023Y-136111190D01*
X136639452Y-136111190D01*
X136563261Y-136149285D01*
X136525166Y-136187380D01*
X136487071Y-136263571D01*
X136487071Y-136377857D01*
X136525166Y-136454047D01*
X136563261Y-136492142D01*
X136639452Y-136530238D01*
X136868023Y-136530238D01*
X136944214Y-136492142D01*
X136982309Y-136454047D01*
X137020404Y-136377857D01*
X137020404Y-136263571D01*
X136487071Y-136796904D02*
X137020404Y-136949285D01*
X136639452Y-137101666D01*
X137020404Y-137254047D01*
X136487071Y-137406428D01*
X136487071Y-137711190D02*
X137020404Y-137711190D01*
X136563261Y-137711190D02*
X136525166Y-137749285D01*
X136487071Y-137825476D01*
X136487071Y-137939761D01*
X136525166Y-138015952D01*
X136601357Y-138054047D01*
X137020404Y-138054047D01*
X137020404Y-139387380D02*
X136601357Y-139387380D01*
X136525166Y-139349285D01*
X136487071Y-139273095D01*
X136487071Y-139120714D01*
X136525166Y-139044523D01*
X136982309Y-139387380D02*
X137020404Y-139311190D01*
X137020404Y-139120714D01*
X136982309Y-139044523D01*
X136906119Y-139006428D01*
X136829928Y-139006428D01*
X136753738Y-139044523D01*
X136715642Y-139120714D01*
X136715642Y-139311190D01*
X136677547Y-139387380D01*
X137020404Y-139768333D02*
X136220404Y-139768333D01*
X136525166Y-139768333D02*
X136487071Y-139844523D01*
X136487071Y-139996904D01*
X136525166Y-140073095D01*
X136563261Y-140111190D01*
X136639452Y-140149285D01*
X136868023Y-140149285D01*
X136944214Y-140111190D01*
X136982309Y-140073095D01*
X137020404Y-139996904D01*
X137020404Y-139844523D01*
X136982309Y-139768333D01*
X137020404Y-140492142D02*
X136487071Y-140492142D01*
X136220404Y-140492142D02*
X136258500Y-140454047D01*
X136296595Y-140492142D01*
X136258500Y-140530238D01*
X136220404Y-140492142D01*
X136296595Y-140492142D01*
X137020404Y-140987380D02*
X136982309Y-140911190D01*
X136906119Y-140873095D01*
X136220404Y-140873095D01*
X137020404Y-141292142D02*
X136487071Y-141292142D01*
X136220404Y-141292142D02*
X136258500Y-141254047D01*
X136296595Y-141292142D01*
X136258500Y-141330238D01*
X136220404Y-141292142D01*
X136296595Y-141292142D01*
X136487071Y-141558809D02*
X136487071Y-141863571D01*
X136220404Y-141673095D02*
X136906119Y-141673095D01*
X136982309Y-141711190D01*
X137020404Y-141787380D01*
X137020404Y-141863571D01*
X137020404Y-142130238D02*
X136487071Y-142130238D01*
X136220404Y-142130238D02*
X136258500Y-142092142D01*
X136296595Y-142130238D01*
X136258500Y-142168333D01*
X136220404Y-142130238D01*
X136296595Y-142130238D01*
X136982309Y-142815952D02*
X137020404Y-142739761D01*
X137020404Y-142587380D01*
X136982309Y-142511190D01*
X136906119Y-142473095D01*
X136601357Y-142473095D01*
X136525166Y-142511190D01*
X136487071Y-142587380D01*
X136487071Y-142739761D01*
X136525166Y-142815952D01*
X136601357Y-142854047D01*
X136677547Y-142854047D01*
X136753738Y-142473095D01*
X136982309Y-143158809D02*
X137020404Y-143235000D01*
X137020404Y-143387380D01*
X136982309Y-143463571D01*
X136906119Y-143501666D01*
X136868023Y-143501666D01*
X136791833Y-143463571D01*
X136753738Y-143387380D01*
X136753738Y-143273095D01*
X136715642Y-143196904D01*
X136639452Y-143158809D01*
X136601357Y-143158809D01*
X136525166Y-143196904D01*
X136487071Y-143273095D01*
X136487071Y-143387380D01*
X136525166Y-143463571D01*
X136944214Y-143844523D02*
X136982309Y-143882619D01*
X137020404Y-143844523D01*
X136982309Y-143806428D01*
X136944214Y-143844523D01*
X137020404Y-143844523D01*
X136715642Y-143844523D02*
X136258500Y-143806428D01*
X136220404Y-143844523D01*
X136258500Y-143882619D01*
X136715642Y-143844523D01*
X136220404Y-143844523D01*
X138870404Y-106835000D02*
X138870404Y-107292142D01*
X139670404Y-107063571D02*
X138870404Y-107063571D01*
X139670404Y-107558809D02*
X138870404Y-107558809D01*
X139670404Y-107901666D02*
X139251357Y-107901666D01*
X139175166Y-107863571D01*
X139137071Y-107787380D01*
X139137071Y-107673095D01*
X139175166Y-107596904D01*
X139213261Y-107558809D01*
X139670404Y-108282619D02*
X139137071Y-108282619D01*
X138870404Y-108282619D02*
X138908500Y-108244523D01*
X138946595Y-108282619D01*
X138908500Y-108320714D01*
X138870404Y-108282619D01*
X138946595Y-108282619D01*
X139632309Y-108625476D02*
X139670404Y-108701666D01*
X139670404Y-108854047D01*
X139632309Y-108930238D01*
X139556119Y-108968333D01*
X139518023Y-108968333D01*
X139441833Y-108930238D01*
X139403738Y-108854047D01*
X139403738Y-108739761D01*
X139365642Y-108663571D01*
X139289452Y-108625476D01*
X139251357Y-108625476D01*
X139175166Y-108663571D01*
X139137071Y-108739761D01*
X139137071Y-108854047D01*
X139175166Y-108930238D01*
X139670404Y-109920714D02*
X138870404Y-109920714D01*
X139670404Y-110263571D02*
X139251357Y-110263571D01*
X139175166Y-110225476D01*
X139137071Y-110149285D01*
X139137071Y-110035000D01*
X139175166Y-109958809D01*
X139213261Y-109920714D01*
X139670404Y-110987380D02*
X139251357Y-110987380D01*
X139175166Y-110949285D01*
X139137071Y-110873095D01*
X139137071Y-110720714D01*
X139175166Y-110644523D01*
X139632309Y-110987380D02*
X139670404Y-110911190D01*
X139670404Y-110720714D01*
X139632309Y-110644523D01*
X139556119Y-110606428D01*
X139479928Y-110606428D01*
X139403738Y-110644523D01*
X139365642Y-110720714D01*
X139365642Y-110911190D01*
X139327547Y-110987380D01*
X139670404Y-111368333D02*
X139137071Y-111368333D01*
X139289452Y-111368333D02*
X139213261Y-111406428D01*
X139175166Y-111444523D01*
X139137071Y-111520714D01*
X139137071Y-111596904D01*
X139670404Y-112206428D02*
X138870404Y-112206428D01*
X139632309Y-112206428D02*
X139670404Y-112130238D01*
X139670404Y-111977857D01*
X139632309Y-111901666D01*
X139594214Y-111863571D01*
X139518023Y-111825476D01*
X139289452Y-111825476D01*
X139213261Y-111863571D01*
X139175166Y-111901666D01*
X139137071Y-111977857D01*
X139137071Y-112130238D01*
X139175166Y-112206428D01*
X139137071Y-112511190D02*
X139670404Y-112663571D01*
X139289452Y-112815952D01*
X139670404Y-112968333D01*
X139137071Y-113120714D01*
X139670404Y-113768333D02*
X139251357Y-113768333D01*
X139175166Y-113730238D01*
X139137071Y-113654047D01*
X139137071Y-113501666D01*
X139175166Y-113425476D01*
X139632309Y-113768333D02*
X139670404Y-113692142D01*
X139670404Y-113501666D01*
X139632309Y-113425476D01*
X139556119Y-113387380D01*
X139479928Y-113387380D01*
X139403738Y-113425476D01*
X139365642Y-113501666D01*
X139365642Y-113692142D01*
X139327547Y-113768333D01*
X139670404Y-114149285D02*
X139137071Y-114149285D01*
X139289452Y-114149285D02*
X139213261Y-114187380D01*
X139175166Y-114225476D01*
X139137071Y-114301666D01*
X139137071Y-114377857D01*
X139632309Y-114949285D02*
X139670404Y-114873095D01*
X139670404Y-114720714D01*
X139632309Y-114644523D01*
X139556119Y-114606428D01*
X139251357Y-114606428D01*
X139175166Y-114644523D01*
X139137071Y-114720714D01*
X139137071Y-114873095D01*
X139175166Y-114949285D01*
X139251357Y-114987380D01*
X139327547Y-114987380D01*
X139403738Y-114606428D01*
X139670404Y-115939761D02*
X138870404Y-115939761D01*
X139670404Y-116282619D02*
X139251357Y-116282619D01*
X139175166Y-116244523D01*
X139137071Y-116168333D01*
X139137071Y-116054047D01*
X139175166Y-115977857D01*
X139213261Y-115939761D01*
X139670404Y-117006428D02*
X139251357Y-117006428D01*
X139175166Y-116968333D01*
X139137071Y-116892142D01*
X139137071Y-116739761D01*
X139175166Y-116663571D01*
X139632309Y-117006428D02*
X139670404Y-116930238D01*
X139670404Y-116739761D01*
X139632309Y-116663571D01*
X139556119Y-116625476D01*
X139479928Y-116625476D01*
X139403738Y-116663571D01*
X139365642Y-116739761D01*
X139365642Y-116930238D01*
X139327547Y-117006428D01*
X139632309Y-117349285D02*
X139670404Y-117425476D01*
X139670404Y-117577857D01*
X139632309Y-117654047D01*
X139556119Y-117692142D01*
X139518023Y-117692142D01*
X139441833Y-117654047D01*
X139403738Y-117577857D01*
X139403738Y-117463571D01*
X139365642Y-117387380D01*
X139289452Y-117349285D01*
X139251357Y-117349285D01*
X139175166Y-117387380D01*
X139137071Y-117463571D01*
X139137071Y-117577857D01*
X139175166Y-117654047D01*
X139670404Y-118644523D02*
X138870404Y-118644523D01*
X139175166Y-118644523D02*
X139137071Y-118720714D01*
X139137071Y-118873095D01*
X139175166Y-118949285D01*
X139213261Y-118987380D01*
X139289452Y-119025476D01*
X139518023Y-119025476D01*
X139594214Y-118987380D01*
X139632309Y-118949285D01*
X139670404Y-118873095D01*
X139670404Y-118720714D01*
X139632309Y-118644523D01*
X139632309Y-119673095D02*
X139670404Y-119596904D01*
X139670404Y-119444523D01*
X139632309Y-119368333D01*
X139556119Y-119330238D01*
X139251357Y-119330238D01*
X139175166Y-119368333D01*
X139137071Y-119444523D01*
X139137071Y-119596904D01*
X139175166Y-119673095D01*
X139251357Y-119711190D01*
X139327547Y-119711190D01*
X139403738Y-119330238D01*
X139632309Y-120358809D02*
X139670404Y-120282619D01*
X139670404Y-120130238D01*
X139632309Y-120054047D01*
X139556119Y-120015952D01*
X139251357Y-120015952D01*
X139175166Y-120054047D01*
X139137071Y-120130238D01*
X139137071Y-120282619D01*
X139175166Y-120358809D01*
X139251357Y-120396904D01*
X139327547Y-120396904D01*
X139403738Y-120015952D01*
X139137071Y-120739761D02*
X139670404Y-120739761D01*
X139213261Y-120739761D02*
X139175166Y-120777857D01*
X139137071Y-120854047D01*
X139137071Y-120968333D01*
X139175166Y-121044523D01*
X139251357Y-121082619D01*
X139670404Y-121082619D01*
X139670404Y-122187380D02*
X139632309Y-122111190D01*
X139594214Y-122073095D01*
X139518023Y-122035000D01*
X139289452Y-122035000D01*
X139213261Y-122073095D01*
X139175166Y-122111190D01*
X139137071Y-122187380D01*
X139137071Y-122301666D01*
X139175166Y-122377857D01*
X139213261Y-122415952D01*
X139289452Y-122454047D01*
X139518023Y-122454047D01*
X139594214Y-122415952D01*
X139632309Y-122377857D01*
X139670404Y-122301666D01*
X139670404Y-122187380D01*
X139137071Y-122796904D02*
X139937071Y-122796904D01*
X139175166Y-122796904D02*
X139137071Y-122873095D01*
X139137071Y-123025476D01*
X139175166Y-123101666D01*
X139213261Y-123139761D01*
X139289452Y-123177857D01*
X139518023Y-123177857D01*
X139594214Y-123139761D01*
X139632309Y-123101666D01*
X139670404Y-123025476D01*
X139670404Y-122873095D01*
X139632309Y-122796904D01*
X139632309Y-123825476D02*
X139670404Y-123749285D01*
X139670404Y-123596904D01*
X139632309Y-123520714D01*
X139556119Y-123482619D01*
X139251357Y-123482619D01*
X139175166Y-123520714D01*
X139137071Y-123596904D01*
X139137071Y-123749285D01*
X139175166Y-123825476D01*
X139251357Y-123863571D01*
X139327547Y-123863571D01*
X139403738Y-123482619D01*
X139137071Y-124206428D02*
X139670404Y-124206428D01*
X139213261Y-124206428D02*
X139175166Y-124244523D01*
X139137071Y-124320714D01*
X139137071Y-124435000D01*
X139175166Y-124511190D01*
X139251357Y-124549285D01*
X139670404Y-124549285D01*
X139632309Y-125501666D02*
X139670404Y-125577857D01*
X139670404Y-125730238D01*
X139632309Y-125806428D01*
X139556119Y-125844523D01*
X139518023Y-125844523D01*
X139441833Y-125806428D01*
X139403738Y-125730238D01*
X139403738Y-125615952D01*
X139365642Y-125539761D01*
X139289452Y-125501666D01*
X139251357Y-125501666D01*
X139175166Y-125539761D01*
X139137071Y-125615952D01*
X139137071Y-125730238D01*
X139175166Y-125806428D01*
X139670404Y-126301666D02*
X139632309Y-126225476D01*
X139594214Y-126187380D01*
X139518023Y-126149285D01*
X139289452Y-126149285D01*
X139213261Y-126187380D01*
X139175166Y-126225476D01*
X139137071Y-126301666D01*
X139137071Y-126415952D01*
X139175166Y-126492142D01*
X139213261Y-126530238D01*
X139289452Y-126568333D01*
X139518023Y-126568333D01*
X139594214Y-126530238D01*
X139632309Y-126492142D01*
X139670404Y-126415952D01*
X139670404Y-126301666D01*
X139137071Y-127254047D02*
X139670404Y-127254047D01*
X139137071Y-126911190D02*
X139556119Y-126911190D01*
X139632309Y-126949285D01*
X139670404Y-127025476D01*
X139670404Y-127139761D01*
X139632309Y-127215952D01*
X139594214Y-127254047D01*
X139670404Y-127635000D02*
X139137071Y-127635000D01*
X139289452Y-127635000D02*
X139213261Y-127673095D01*
X139175166Y-127711190D01*
X139137071Y-127787380D01*
X139137071Y-127863571D01*
X139632309Y-128473095D02*
X139670404Y-128396904D01*
X139670404Y-128244523D01*
X139632309Y-128168333D01*
X139594214Y-128130238D01*
X139518023Y-128092142D01*
X139289452Y-128092142D01*
X139213261Y-128130238D01*
X139175166Y-128168333D01*
X139137071Y-128244523D01*
X139137071Y-128396904D01*
X139175166Y-128473095D01*
X139632309Y-129120714D02*
X139670404Y-129044523D01*
X139670404Y-128892142D01*
X139632309Y-128815952D01*
X139556119Y-128777857D01*
X139251357Y-128777857D01*
X139175166Y-128815952D01*
X139137071Y-128892142D01*
X139137071Y-129044523D01*
X139175166Y-129120714D01*
X139251357Y-129158809D01*
X139327547Y-129158809D01*
X139403738Y-128777857D01*
X139670404Y-129844523D02*
X138870404Y-129844523D01*
X139632309Y-129844523D02*
X139670404Y-129768333D01*
X139670404Y-129615952D01*
X139632309Y-129539761D01*
X139594214Y-129501666D01*
X139518023Y-129463571D01*
X139289452Y-129463571D01*
X139213261Y-129501666D01*
X139175166Y-129539761D01*
X139137071Y-129615952D01*
X139137071Y-129768333D01*
X139175166Y-129844523D01*
X139670404Y-130835000D02*
X138870404Y-130835000D01*
X139175166Y-130835000D02*
X139137071Y-130911190D01*
X139137071Y-131063571D01*
X139175166Y-131139761D01*
X139213261Y-131177857D01*
X139289452Y-131215952D01*
X139518023Y-131215952D01*
X139594214Y-131177857D01*
X139632309Y-131139761D01*
X139670404Y-131063571D01*
X139670404Y-130911190D01*
X139632309Y-130835000D01*
X139632309Y-131863571D02*
X139670404Y-131787380D01*
X139670404Y-131635000D01*
X139632309Y-131558809D01*
X139556119Y-131520714D01*
X139251357Y-131520714D01*
X139175166Y-131558809D01*
X139137071Y-131635000D01*
X139137071Y-131787380D01*
X139175166Y-131863571D01*
X139251357Y-131901666D01*
X139327547Y-131901666D01*
X139403738Y-131520714D01*
X139632309Y-132587380D02*
X139670404Y-132511190D01*
X139670404Y-132358809D01*
X139632309Y-132282619D01*
X139594214Y-132244523D01*
X139518023Y-132206428D01*
X139289452Y-132206428D01*
X139213261Y-132244523D01*
X139175166Y-132282619D01*
X139137071Y-132358809D01*
X139137071Y-132511190D01*
X139175166Y-132587380D01*
X139670404Y-133273095D02*
X139251357Y-133273095D01*
X139175166Y-133234999D01*
X139137071Y-133158809D01*
X139137071Y-133006428D01*
X139175166Y-132930238D01*
X139632309Y-133273095D02*
X139670404Y-133196904D01*
X139670404Y-133006428D01*
X139632309Y-132930238D01*
X139556119Y-132892142D01*
X139479928Y-132892142D01*
X139403738Y-132930238D01*
X139365642Y-133006428D01*
X139365642Y-133196904D01*
X139327547Y-133273095D01*
X139137071Y-133996904D02*
X139670404Y-133996904D01*
X139137071Y-133654047D02*
X139556119Y-133654047D01*
X139632309Y-133692142D01*
X139670404Y-133768333D01*
X139670404Y-133882619D01*
X139632309Y-133958809D01*
X139594214Y-133996904D01*
X139632309Y-134339761D02*
X139670404Y-134415952D01*
X139670404Y-134568333D01*
X139632309Y-134644523D01*
X139556119Y-134682619D01*
X139518023Y-134682619D01*
X139441833Y-134644523D01*
X139403738Y-134568333D01*
X139403738Y-134454047D01*
X139365642Y-134377857D01*
X139289452Y-134339761D01*
X139251357Y-134339761D01*
X139175166Y-134377857D01*
X139137071Y-134454047D01*
X139137071Y-134568333D01*
X139175166Y-134644523D01*
X139632309Y-135330238D02*
X139670404Y-135254047D01*
X139670404Y-135101666D01*
X139632309Y-135025476D01*
X139556119Y-134987380D01*
X139251357Y-134987380D01*
X139175166Y-135025476D01*
X139137071Y-135101666D01*
X139137071Y-135254047D01*
X139175166Y-135330238D01*
X139251357Y-135368333D01*
X139327547Y-135368333D01*
X139403738Y-134987380D01*
X139670404Y-136320714D02*
X138870404Y-136320714D01*
X139670404Y-137654047D02*
X138870404Y-137654047D01*
X139632309Y-137654047D02*
X139670404Y-137577857D01*
X139670404Y-137425476D01*
X139632309Y-137349285D01*
X139594214Y-137311190D01*
X139518023Y-137273095D01*
X139289452Y-137273095D01*
X139213261Y-137311190D01*
X139175166Y-137349285D01*
X139137071Y-137425476D01*
X139137071Y-137577857D01*
X139175166Y-137654047D01*
X139670404Y-138149285D02*
X139632309Y-138073095D01*
X139594214Y-138035000D01*
X139518023Y-137996904D01*
X139289452Y-137996904D01*
X139213261Y-138035000D01*
X139175166Y-138073095D01*
X139137071Y-138149285D01*
X139137071Y-138263571D01*
X139175166Y-138339761D01*
X139213261Y-138377857D01*
X139289452Y-138415952D01*
X139518023Y-138415952D01*
X139594214Y-138377857D01*
X139632309Y-138339761D01*
X139670404Y-138263571D01*
X139670404Y-138149285D01*
X139137071Y-138758809D02*
X139670404Y-138758809D01*
X139213261Y-138758809D02*
X139175166Y-138796904D01*
X139137071Y-138873095D01*
X139137071Y-138987380D01*
X139175166Y-139063571D01*
X139251357Y-139101666D01*
X139670404Y-139101666D01*
X138870404Y-139520714D02*
X138908500Y-139520714D01*
X138984690Y-139482619D01*
X139022785Y-139444523D01*
X139137071Y-139749285D02*
X139137071Y-140054047D01*
X138870404Y-139863571D02*
X139556119Y-139863571D01*
X139632309Y-139901666D01*
X139670404Y-139977857D01*
X139670404Y-140054047D01*
X139670404Y-140930238D02*
X138870404Y-140930238D01*
X139175166Y-140930238D02*
X139137071Y-141006428D01*
X139137071Y-141158809D01*
X139175166Y-141235000D01*
X139213261Y-141273095D01*
X139289452Y-141311190D01*
X139518023Y-141311190D01*
X139594214Y-141273095D01*
X139632309Y-141235000D01*
X139670404Y-141158809D01*
X139670404Y-141006428D01*
X139632309Y-140930238D01*
X139632309Y-141958809D02*
X139670404Y-141882619D01*
X139670404Y-141730238D01*
X139632309Y-141654047D01*
X139556119Y-141615952D01*
X139251357Y-141615952D01*
X139175166Y-141654047D01*
X139137071Y-141730238D01*
X139137071Y-141882619D01*
X139175166Y-141958809D01*
X139251357Y-141996904D01*
X139327547Y-141996904D01*
X139403738Y-141615952D01*
X139670404Y-142454047D02*
X139632309Y-142377857D01*
X139556119Y-142339761D01*
X138870404Y-142339761D01*
X139670404Y-142758809D02*
X139137071Y-142758809D01*
X138870404Y-142758809D02*
X138908500Y-142720714D01*
X138946595Y-142758809D01*
X138908500Y-142796904D01*
X138870404Y-142758809D01*
X138946595Y-142758809D01*
X139632309Y-143444523D02*
X139670404Y-143368333D01*
X139670404Y-143215952D01*
X139632309Y-143139761D01*
X139556119Y-143101666D01*
X139251357Y-143101666D01*
X139175166Y-143139761D01*
X139137071Y-143215952D01*
X139137071Y-143368333D01*
X139175166Y-143444523D01*
X139251357Y-143482619D01*
X139327547Y-143482619D01*
X139403738Y-143101666D01*
X139137071Y-143749285D02*
X139670404Y-143939761D01*
X139137071Y-144130238D01*
X139632309Y-144739761D02*
X139670404Y-144663571D01*
X139670404Y-144511190D01*
X139632309Y-144435000D01*
X139556119Y-144396904D01*
X139251357Y-144396904D01*
X139175166Y-144435000D01*
X139137071Y-144511190D01*
X139137071Y-144663571D01*
X139175166Y-144739761D01*
X139251357Y-144777857D01*
X139327547Y-144777857D01*
X139403738Y-144396904D01*
X139137071Y-145615952D02*
X139137071Y-145920714D01*
X138870404Y-145730238D02*
X139556119Y-145730238D01*
X139632309Y-145768333D01*
X139670404Y-145844523D01*
X139670404Y-145920714D01*
X139670404Y-146187380D02*
X138870404Y-146187380D01*
X139670404Y-146530238D02*
X139251357Y-146530238D01*
X139175166Y-146492142D01*
X139137071Y-146415952D01*
X139137071Y-146301666D01*
X139175166Y-146225476D01*
X139213261Y-146187380D01*
X139670404Y-147254047D02*
X139251357Y-147254047D01*
X139175166Y-147215952D01*
X139137071Y-147139761D01*
X139137071Y-146987380D01*
X139175166Y-146911190D01*
X139632309Y-147254047D02*
X139670404Y-147177857D01*
X139670404Y-146987380D01*
X139632309Y-146911190D01*
X139556119Y-146873095D01*
X139479928Y-146873095D01*
X139403738Y-146911190D01*
X139365642Y-146987380D01*
X139365642Y-147177857D01*
X139327547Y-147254047D01*
X139137071Y-147520714D02*
X139137071Y-147825476D01*
X138870404Y-147635000D02*
X139556119Y-147635000D01*
X139632309Y-147673095D01*
X139670404Y-147749285D01*
X139670404Y-147825476D01*
X140995404Y-105235000D02*
X140195404Y-105235000D01*
X140690642Y-105311190D02*
X140995404Y-105539761D01*
X140462071Y-105539761D02*
X140766833Y-105235000D01*
X140462071Y-105882619D02*
X140995404Y-105882619D01*
X140538261Y-105882619D02*
X140500166Y-105920714D01*
X140462071Y-105996904D01*
X140462071Y-106111190D01*
X140500166Y-106187380D01*
X140576357Y-106225476D01*
X140995404Y-106225476D01*
X140995404Y-106720714D02*
X140957309Y-106644523D01*
X140919214Y-106606428D01*
X140843023Y-106568333D01*
X140614452Y-106568333D01*
X140538261Y-106606428D01*
X140500166Y-106644523D01*
X140462071Y-106720714D01*
X140462071Y-106835000D01*
X140500166Y-106911190D01*
X140538261Y-106949285D01*
X140614452Y-106987380D01*
X140843023Y-106987380D01*
X140919214Y-106949285D01*
X140957309Y-106911190D01*
X140995404Y-106835000D01*
X140995404Y-106720714D01*
X140462071Y-107254047D02*
X140995404Y-107406428D01*
X140614452Y-107558809D01*
X140995404Y-107711190D01*
X140462071Y-107863571D01*
X140995404Y-108282619D02*
X140957309Y-108206428D01*
X140881119Y-108168333D01*
X140195404Y-108168333D01*
X140957309Y-108892142D02*
X140995404Y-108815952D01*
X140995404Y-108663571D01*
X140957309Y-108587380D01*
X140881119Y-108549285D01*
X140576357Y-108549285D01*
X140500166Y-108587380D01*
X140462071Y-108663571D01*
X140462071Y-108815952D01*
X140500166Y-108892142D01*
X140576357Y-108930238D01*
X140652547Y-108930238D01*
X140728738Y-108549285D01*
X140995404Y-109615952D02*
X140195404Y-109615952D01*
X140957309Y-109615952D02*
X140995404Y-109539761D01*
X140995404Y-109387380D01*
X140957309Y-109311190D01*
X140919214Y-109273095D01*
X140843023Y-109235000D01*
X140614452Y-109235000D01*
X140538261Y-109273095D01*
X140500166Y-109311190D01*
X140462071Y-109387380D01*
X140462071Y-109539761D01*
X140500166Y-109615952D01*
X140462071Y-110339761D02*
X141109690Y-110339761D01*
X141185880Y-110301666D01*
X141223976Y-110263571D01*
X141262071Y-110187380D01*
X141262071Y-110073095D01*
X141223976Y-109996904D01*
X140957309Y-110339761D02*
X140995404Y-110263571D01*
X140995404Y-110111190D01*
X140957309Y-110035000D01*
X140919214Y-109996904D01*
X140843023Y-109958809D01*
X140614452Y-109958809D01*
X140538261Y-109996904D01*
X140500166Y-110035000D01*
X140462071Y-110111190D01*
X140462071Y-110263571D01*
X140500166Y-110339761D01*
X140957309Y-111025476D02*
X140995404Y-110949285D01*
X140995404Y-110796904D01*
X140957309Y-110720714D01*
X140881119Y-110682619D01*
X140576357Y-110682619D01*
X140500166Y-110720714D01*
X140462071Y-110796904D01*
X140462071Y-110949285D01*
X140500166Y-111025476D01*
X140576357Y-111063571D01*
X140652547Y-111063571D01*
X140728738Y-110682619D01*
X140957309Y-111977857D02*
X140995404Y-112054047D01*
X140995404Y-112206428D01*
X140957309Y-112282619D01*
X140881119Y-112320714D01*
X140843023Y-112320714D01*
X140766833Y-112282619D01*
X140728738Y-112206428D01*
X140728738Y-112092142D01*
X140690642Y-112015952D01*
X140614452Y-111977857D01*
X140576357Y-111977857D01*
X140500166Y-112015952D01*
X140462071Y-112092142D01*
X140462071Y-112206428D01*
X140500166Y-112282619D01*
X140995404Y-112663571D02*
X140195404Y-112663571D01*
X140995404Y-113006428D02*
X140576357Y-113006428D01*
X140500166Y-112968333D01*
X140462071Y-112892142D01*
X140462071Y-112777857D01*
X140500166Y-112701666D01*
X140538261Y-112663571D01*
X140995404Y-113501666D02*
X140957309Y-113425476D01*
X140919214Y-113387380D01*
X140843023Y-113349285D01*
X140614452Y-113349285D01*
X140538261Y-113387380D01*
X140500166Y-113425476D01*
X140462071Y-113501666D01*
X140462071Y-113615952D01*
X140500166Y-113692142D01*
X140538261Y-113730238D01*
X140614452Y-113768333D01*
X140843023Y-113768333D01*
X140919214Y-113730238D01*
X140957309Y-113692142D01*
X140995404Y-113615952D01*
X140995404Y-113501666D01*
X140462071Y-114454047D02*
X140995404Y-114454047D01*
X140462071Y-114111190D02*
X140881119Y-114111190D01*
X140957309Y-114149285D01*
X140995404Y-114225476D01*
X140995404Y-114339761D01*
X140957309Y-114415952D01*
X140919214Y-114454047D01*
X140995404Y-114949285D02*
X140957309Y-114873095D01*
X140881119Y-114835000D01*
X140195404Y-114835000D01*
X140995404Y-115596904D02*
X140195404Y-115596904D01*
X140957309Y-115596904D02*
X140995404Y-115520714D01*
X140995404Y-115368333D01*
X140957309Y-115292142D01*
X140919214Y-115254047D01*
X140843023Y-115215952D01*
X140614452Y-115215952D01*
X140538261Y-115254047D01*
X140500166Y-115292142D01*
X140462071Y-115368333D01*
X140462071Y-115520714D01*
X140500166Y-115596904D01*
X140995404Y-116587380D02*
X140195404Y-116587380D01*
X140500166Y-116587380D02*
X140462071Y-116663571D01*
X140462071Y-116815952D01*
X140500166Y-116892142D01*
X140538261Y-116930238D01*
X140614452Y-116968333D01*
X140843023Y-116968333D01*
X140919214Y-116930238D01*
X140957309Y-116892142D01*
X140995404Y-116815952D01*
X140995404Y-116663571D01*
X140957309Y-116587380D01*
X140957309Y-117615952D02*
X140995404Y-117539761D01*
X140995404Y-117387380D01*
X140957309Y-117311190D01*
X140881119Y-117273095D01*
X140576357Y-117273095D01*
X140500166Y-117311190D01*
X140462071Y-117387380D01*
X140462071Y-117539761D01*
X140500166Y-117615952D01*
X140576357Y-117654047D01*
X140652547Y-117654047D01*
X140728738Y-117273095D01*
X140995404Y-118720714D02*
X140957309Y-118644523D01*
X140881119Y-118606428D01*
X140195404Y-118606428D01*
X140995404Y-119139761D02*
X140957309Y-119063571D01*
X140919214Y-119025476D01*
X140843023Y-118987380D01*
X140614452Y-118987380D01*
X140538261Y-119025476D01*
X140500166Y-119063571D01*
X140462071Y-119139761D01*
X140462071Y-119254047D01*
X140500166Y-119330238D01*
X140538261Y-119368333D01*
X140614452Y-119406428D01*
X140843023Y-119406428D01*
X140919214Y-119368333D01*
X140957309Y-119330238D01*
X140995404Y-119254047D01*
X140995404Y-119139761D01*
X140957309Y-120092142D02*
X140995404Y-120015952D01*
X140995404Y-119863571D01*
X140957309Y-119787380D01*
X140919214Y-119749285D01*
X140843023Y-119711190D01*
X140614452Y-119711190D01*
X140538261Y-119749285D01*
X140500166Y-119787380D01*
X140462071Y-119863571D01*
X140462071Y-120015952D01*
X140500166Y-120092142D01*
X140995404Y-120435000D02*
X140195404Y-120435000D01*
X140690642Y-120511190D02*
X140995404Y-120739761D01*
X140462071Y-120739761D02*
X140766833Y-120435000D01*
X140957309Y-121387380D02*
X140995404Y-121311190D01*
X140995404Y-121158809D01*
X140957309Y-121082619D01*
X140881119Y-121044523D01*
X140576357Y-121044523D01*
X140500166Y-121082619D01*
X140462071Y-121158809D01*
X140462071Y-121311190D01*
X140500166Y-121387380D01*
X140576357Y-121425476D01*
X140652547Y-121425476D01*
X140728738Y-121044523D01*
X140995404Y-122111190D02*
X140195404Y-122111190D01*
X140957309Y-122111190D02*
X140995404Y-122035000D01*
X140995404Y-121882619D01*
X140957309Y-121806428D01*
X140919214Y-121768333D01*
X140843023Y-121730238D01*
X140614452Y-121730238D01*
X140538261Y-121768333D01*
X140500166Y-121806428D01*
X140462071Y-121882619D01*
X140462071Y-122035000D01*
X140500166Y-122111190D01*
X140995404Y-123444523D02*
X140576357Y-123444523D01*
X140500166Y-123406428D01*
X140462071Y-123330238D01*
X140462071Y-123177857D01*
X140500166Y-123101666D01*
X140957309Y-123444523D02*
X140995404Y-123368333D01*
X140995404Y-123177857D01*
X140957309Y-123101666D01*
X140881119Y-123063571D01*
X140804928Y-123063571D01*
X140728738Y-123101666D01*
X140690642Y-123177857D01*
X140690642Y-123368333D01*
X140652547Y-123444523D01*
X140462071Y-123749285D02*
X140995404Y-123901666D01*
X140614452Y-124054047D01*
X140995404Y-124206428D01*
X140462071Y-124358809D01*
X140995404Y-125006428D02*
X140576357Y-125006428D01*
X140500166Y-124968333D01*
X140462071Y-124892142D01*
X140462071Y-124739761D01*
X140500166Y-124663571D01*
X140957309Y-125006428D02*
X140995404Y-124930238D01*
X140995404Y-124739761D01*
X140957309Y-124663571D01*
X140881119Y-124625476D01*
X140804928Y-124625476D01*
X140728738Y-124663571D01*
X140690642Y-124739761D01*
X140690642Y-124930238D01*
X140652547Y-125006428D01*
X140462071Y-125311190D02*
X140995404Y-125501666D01*
X140462071Y-125692142D02*
X140995404Y-125501666D01*
X141185880Y-125425476D01*
X141223976Y-125387380D01*
X141262071Y-125311190D01*
X140919214Y-125996904D02*
X140957309Y-126035000D01*
X140995404Y-125996904D01*
X140957309Y-125958809D01*
X140919214Y-125996904D01*
X140995404Y-125996904D01*
X140995404Y-126987380D02*
X140195404Y-126987380D01*
X140995404Y-127977857D02*
X140462071Y-127977857D01*
X140538261Y-127977857D02*
X140500166Y-128015952D01*
X140462071Y-128092142D01*
X140462071Y-128206428D01*
X140500166Y-128282619D01*
X140576357Y-128320714D01*
X140995404Y-128320714D01*
X140576357Y-128320714D02*
X140500166Y-128358809D01*
X140462071Y-128435000D01*
X140462071Y-128549285D01*
X140500166Y-128625476D01*
X140576357Y-128663571D01*
X140995404Y-128663571D01*
X140995404Y-129387380D02*
X140576357Y-129387380D01*
X140500166Y-129349285D01*
X140462071Y-129273095D01*
X140462071Y-129120714D01*
X140500166Y-129044523D01*
X140957309Y-129387380D02*
X140995404Y-129311190D01*
X140995404Y-129120714D01*
X140957309Y-129044523D01*
X140881119Y-129006428D01*
X140804928Y-129006428D01*
X140728738Y-129044523D01*
X140690642Y-129120714D01*
X140690642Y-129311190D01*
X140652547Y-129387380D01*
X140995404Y-129768333D02*
X140195404Y-129768333D01*
X140690642Y-129844523D02*
X140995404Y-130073095D01*
X140462071Y-130073095D02*
X140766833Y-129768333D01*
X140957309Y-130720714D02*
X140995404Y-130644523D01*
X140995404Y-130492142D01*
X140957309Y-130415952D01*
X140881119Y-130377857D01*
X140576357Y-130377857D01*
X140500166Y-130415952D01*
X140462071Y-130492142D01*
X140462071Y-130644523D01*
X140500166Y-130720714D01*
X140576357Y-130758809D01*
X140652547Y-130758809D01*
X140728738Y-130377857D01*
X140462071Y-131711190D02*
X140995404Y-131711190D01*
X140538261Y-131711190D02*
X140500166Y-131749285D01*
X140462071Y-131825476D01*
X140462071Y-131939761D01*
X140500166Y-132015952D01*
X140576357Y-132054047D01*
X140995404Y-132054047D01*
X140995404Y-132549285D02*
X140957309Y-132473095D01*
X140919214Y-132435000D01*
X140843023Y-132396904D01*
X140614452Y-132396904D01*
X140538261Y-132435000D01*
X140500166Y-132473095D01*
X140462071Y-132549285D01*
X140462071Y-132663571D01*
X140500166Y-132739761D01*
X140538261Y-132777857D01*
X140614452Y-132815952D01*
X140843023Y-132815952D01*
X140919214Y-132777857D01*
X140957309Y-132739761D01*
X140995404Y-132663571D01*
X140995404Y-132549285D01*
X140462071Y-133768333D02*
X141262071Y-133768333D01*
X140500166Y-133768333D02*
X140462071Y-133844523D01*
X140462071Y-133996904D01*
X140500166Y-134073095D01*
X140538261Y-134111190D01*
X140614452Y-134149285D01*
X140843023Y-134149285D01*
X140919214Y-134111190D01*
X140957309Y-134073095D01*
X140995404Y-133996904D01*
X140995404Y-133844523D01*
X140957309Y-133768333D01*
X140995404Y-134492142D02*
X140462071Y-134492142D01*
X140614452Y-134492142D02*
X140538261Y-134530238D01*
X140500166Y-134568333D01*
X140462071Y-134644523D01*
X140462071Y-134720714D01*
X140995404Y-135101666D02*
X140957309Y-135025476D01*
X140919214Y-134987380D01*
X140843023Y-134949285D01*
X140614452Y-134949285D01*
X140538261Y-134987380D01*
X140500166Y-135025476D01*
X140462071Y-135101666D01*
X140462071Y-135215952D01*
X140500166Y-135292142D01*
X140538261Y-135330238D01*
X140614452Y-135368333D01*
X140843023Y-135368333D01*
X140919214Y-135330238D01*
X140957309Y-135292142D01*
X140995404Y-135215952D01*
X140995404Y-135101666D01*
X140462071Y-135596904D02*
X140462071Y-135901666D01*
X140995404Y-135711190D02*
X140309690Y-135711190D01*
X140233500Y-135749285D01*
X140195404Y-135825476D01*
X140195404Y-135901666D01*
X140995404Y-136168333D02*
X140462071Y-136168333D01*
X140195404Y-136168333D02*
X140233500Y-136130238D01*
X140271595Y-136168333D01*
X140233500Y-136206428D01*
X140195404Y-136168333D01*
X140271595Y-136168333D01*
X140462071Y-136435000D02*
X140462071Y-136739761D01*
X140195404Y-136549285D02*
X140881119Y-136549285D01*
X140957309Y-136587380D01*
X140995404Y-136663571D01*
X140995404Y-136739761D01*
X140995404Y-137730238D02*
X140957309Y-137654047D01*
X140919214Y-137615952D01*
X140843023Y-137577857D01*
X140614452Y-137577857D01*
X140538261Y-137615952D01*
X140500166Y-137654047D01*
X140462071Y-137730238D01*
X140462071Y-137844523D01*
X140500166Y-137920714D01*
X140538261Y-137958809D01*
X140614452Y-137996904D01*
X140843023Y-137996904D01*
X140919214Y-137958809D01*
X140957309Y-137920714D01*
X140995404Y-137844523D01*
X140995404Y-137730238D01*
X140462071Y-138225476D02*
X140462071Y-138530238D01*
X140995404Y-138339761D02*
X140309690Y-138339761D01*
X140233500Y-138377857D01*
X140195404Y-138454047D01*
X140195404Y-138530238D01*
X140462071Y-138682619D02*
X140462071Y-138987380D01*
X140995404Y-138796904D02*
X140309690Y-138796904D01*
X140233500Y-138835000D01*
X140195404Y-138911190D01*
X140195404Y-138987380D01*
X140462071Y-139749285D02*
X140462071Y-140054047D01*
X140195404Y-139863571D02*
X140881119Y-139863571D01*
X140957309Y-139901666D01*
X140995404Y-139977857D01*
X140995404Y-140054047D01*
X140995404Y-140320714D02*
X140195404Y-140320714D01*
X140995404Y-140663571D02*
X140576357Y-140663571D01*
X140500166Y-140625476D01*
X140462071Y-140549285D01*
X140462071Y-140435000D01*
X140500166Y-140358809D01*
X140538261Y-140320714D01*
X140995404Y-141044523D02*
X140462071Y-141044523D01*
X140195404Y-141044523D02*
X140233500Y-141006428D01*
X140271595Y-141044523D01*
X140233500Y-141082619D01*
X140195404Y-141044523D01*
X140271595Y-141044523D01*
X140957309Y-141387380D02*
X140995404Y-141463571D01*
X140995404Y-141615952D01*
X140957309Y-141692142D01*
X140881119Y-141730238D01*
X140843023Y-141730238D01*
X140766833Y-141692142D01*
X140728738Y-141615952D01*
X140728738Y-141501666D01*
X140690642Y-141425476D01*
X140614452Y-141387380D01*
X140576357Y-141387380D01*
X140500166Y-141425476D01*
X140462071Y-141501666D01*
X140462071Y-141615952D01*
X140500166Y-141692142D01*
X140690642Y-142682619D02*
X140690642Y-143292142D01*
X140995404Y-144282619D02*
X140195404Y-144282619D01*
X140195404Y-144701666D02*
X140233500Y-144701666D01*
X140309690Y-144663571D01*
X140347785Y-144625476D01*
X140462071Y-144968333D02*
X140995404Y-145158809D01*
X140462071Y-145349285D01*
X140957309Y-145958809D02*
X140995404Y-145882619D01*
X140995404Y-145730238D01*
X140957309Y-145654047D01*
X140881119Y-145615952D01*
X140576357Y-145615952D01*
X140500166Y-145654047D01*
X140462071Y-145730238D01*
X140462071Y-145882619D01*
X140500166Y-145958809D01*
X140576357Y-145996904D01*
X140652547Y-145996904D01*
X140728738Y-145615952D01*
X140995404Y-147292142D02*
X140195404Y-147292142D01*
X140957309Y-147292142D02*
X140995404Y-147215952D01*
X140995404Y-147063571D01*
X140957309Y-146987380D01*
X140919214Y-146949285D01*
X140843023Y-146911190D01*
X140614452Y-146911190D01*
X140538261Y-146949285D01*
X140500166Y-146987380D01*
X140462071Y-147063571D01*
X140462071Y-147215952D01*
X140500166Y-147292142D01*
X140995404Y-147787380D02*
X140957309Y-147711190D01*
X140919214Y-147673095D01*
X140843023Y-147635000D01*
X140614452Y-147635000D01*
X140538261Y-147673095D01*
X140500166Y-147711190D01*
X140462071Y-147787380D01*
X140462071Y-147901666D01*
X140500166Y-147977857D01*
X140538261Y-148015952D01*
X140614452Y-148054047D01*
X140843023Y-148054047D01*
X140919214Y-148015952D01*
X140957309Y-147977857D01*
X140995404Y-147901666D01*
X140995404Y-147787380D01*
X140462071Y-148396904D02*
X140995404Y-148396904D01*
X140538261Y-148396904D02*
X140500166Y-148435000D01*
X140462071Y-148511190D01*
X140462071Y-148625476D01*
X140500166Y-148701666D01*
X140576357Y-148739761D01*
X140995404Y-148739761D01*
X140957309Y-149425476D02*
X140995404Y-149349285D01*
X140995404Y-149196904D01*
X140957309Y-149120714D01*
X140881119Y-149082619D01*
X140576357Y-149082619D01*
X140500166Y-149120714D01*
X140462071Y-149196904D01*
X140462071Y-149349285D01*
X140500166Y-149425476D01*
X140576357Y-149463571D01*
X140652547Y-149463571D01*
X140728738Y-149082619D01*
X142320404Y-115577857D02*
X141787071Y-115577857D01*
X141520404Y-115577857D02*
X141558500Y-115539761D01*
X141596595Y-115577857D01*
X141558500Y-115615952D01*
X141520404Y-115577857D01*
X141596595Y-115577857D01*
X141787071Y-115844523D02*
X141787071Y-116149285D01*
X141520404Y-115958809D02*
X142206119Y-115958809D01*
X142282309Y-115996904D01*
X142320404Y-116073095D01*
X142320404Y-116149285D01*
X142282309Y-116987380D02*
X142320404Y-117063571D01*
X142320404Y-117215952D01*
X142282309Y-117292142D01*
X142206119Y-117330238D01*
X142168023Y-117330238D01*
X142091833Y-117292142D01*
X142053738Y-117215952D01*
X142053738Y-117101666D01*
X142015642Y-117025476D01*
X141939452Y-116987380D01*
X141901357Y-116987380D01*
X141825166Y-117025476D01*
X141787071Y-117101666D01*
X141787071Y-117215952D01*
X141825166Y-117292142D01*
X142320404Y-117673095D02*
X141787071Y-117673095D01*
X141520404Y-117673095D02*
X141558500Y-117635000D01*
X141596595Y-117673095D01*
X141558500Y-117711190D01*
X141520404Y-117673095D01*
X141596595Y-117673095D01*
X142320404Y-118054047D02*
X141787071Y-118054047D01*
X141863261Y-118054047D02*
X141825166Y-118092142D01*
X141787071Y-118168333D01*
X141787071Y-118282619D01*
X141825166Y-118358809D01*
X141901357Y-118396904D01*
X142320404Y-118396904D01*
X141901357Y-118396904D02*
X141825166Y-118435000D01*
X141787071Y-118511190D01*
X141787071Y-118625476D01*
X141825166Y-118701666D01*
X141901357Y-118739761D01*
X142320404Y-118739761D01*
X141787071Y-119120714D02*
X142587071Y-119120714D01*
X141825166Y-119120714D02*
X141787071Y-119196904D01*
X141787071Y-119349285D01*
X141825166Y-119425476D01*
X141863261Y-119463571D01*
X141939452Y-119501666D01*
X142168023Y-119501666D01*
X142244214Y-119463571D01*
X142282309Y-119425476D01*
X142320404Y-119349285D01*
X142320404Y-119196904D01*
X142282309Y-119120714D01*
X142320404Y-119958809D02*
X142282309Y-119882619D01*
X142206119Y-119844523D01*
X141520404Y-119844523D01*
X141787071Y-120187380D02*
X142320404Y-120377857D01*
X141787071Y-120568333D02*
X142320404Y-120377857D01*
X142510880Y-120301666D01*
X142548976Y-120263571D01*
X142587071Y-120187380D01*
X141787071Y-121368333D02*
X141787071Y-121673095D01*
X141520404Y-121482619D02*
X142206119Y-121482619D01*
X142282309Y-121520714D01*
X142320404Y-121596904D01*
X142320404Y-121673095D01*
X142320404Y-122054047D02*
X142282309Y-121977857D01*
X142244214Y-121939761D01*
X142168023Y-121901666D01*
X141939452Y-121901666D01*
X141863261Y-121939761D01*
X141825166Y-121977857D01*
X141787071Y-122054047D01*
X141787071Y-122168333D01*
X141825166Y-122244523D01*
X141863261Y-122282619D01*
X141939452Y-122320714D01*
X142168023Y-122320714D01*
X142244214Y-122282619D01*
X142282309Y-122244523D01*
X142320404Y-122168333D01*
X142320404Y-122054047D01*
X142320404Y-123273095D02*
X141520404Y-123273095D01*
X142320404Y-123615952D02*
X141901357Y-123615952D01*
X141825166Y-123577857D01*
X141787071Y-123501666D01*
X141787071Y-123387380D01*
X141825166Y-123311190D01*
X141863261Y-123273095D01*
X142282309Y-124301666D02*
X142320404Y-124225476D01*
X142320404Y-124073095D01*
X142282309Y-123996904D01*
X142206119Y-123958809D01*
X141901357Y-123958809D01*
X141825166Y-123996904D01*
X141787071Y-124073095D01*
X141787071Y-124225476D01*
X141825166Y-124301666D01*
X141901357Y-124339761D01*
X141977547Y-124339761D01*
X142053738Y-123958809D01*
X142320404Y-124796904D02*
X142282309Y-124720714D01*
X142206119Y-124682619D01*
X141520404Y-124682619D01*
X141787071Y-125101666D02*
X142587071Y-125101666D01*
X141825166Y-125101666D02*
X141787071Y-125177857D01*
X141787071Y-125330238D01*
X141825166Y-125406428D01*
X141863261Y-125444523D01*
X141939452Y-125482619D01*
X142168023Y-125482619D01*
X142244214Y-125444523D01*
X142282309Y-125406428D01*
X142320404Y-125330238D01*
X142320404Y-125177857D01*
X142282309Y-125101666D01*
X141787071Y-126320714D02*
X141787071Y-126625476D01*
X141520404Y-126435000D02*
X142206119Y-126435000D01*
X142282309Y-126473095D01*
X142320404Y-126549285D01*
X142320404Y-126625476D01*
X142320404Y-126892142D02*
X141520404Y-126892142D01*
X142320404Y-127235000D02*
X141901357Y-127235000D01*
X141825166Y-127196904D01*
X141787071Y-127120714D01*
X141787071Y-127006428D01*
X141825166Y-126930238D01*
X141863261Y-126892142D01*
X142282309Y-127920714D02*
X142320404Y-127844523D01*
X142320404Y-127692142D01*
X142282309Y-127615952D01*
X142206119Y-127577857D01*
X141901357Y-127577857D01*
X141825166Y-127615952D01*
X141787071Y-127692142D01*
X141787071Y-127844523D01*
X141825166Y-127920714D01*
X141901357Y-127958809D01*
X141977547Y-127958809D01*
X142053738Y-127577857D01*
X141787071Y-128835000D02*
X142320404Y-128987380D01*
X141939452Y-129139761D01*
X142320404Y-129292142D01*
X141787071Y-129444523D01*
X142320404Y-129749285D02*
X141787071Y-129749285D01*
X141520404Y-129749285D02*
X141558500Y-129711190D01*
X141596595Y-129749285D01*
X141558500Y-129787380D01*
X141520404Y-129749285D01*
X141596595Y-129749285D01*
X142320404Y-130473095D02*
X141520404Y-130473095D01*
X142282309Y-130473095D02*
X142320404Y-130396904D01*
X142320404Y-130244523D01*
X142282309Y-130168333D01*
X142244214Y-130130238D01*
X142168023Y-130092142D01*
X141939452Y-130092142D01*
X141863261Y-130130238D01*
X141825166Y-130168333D01*
X141787071Y-130244523D01*
X141787071Y-130396904D01*
X141825166Y-130473095D01*
X142282309Y-131158809D02*
X142320404Y-131082619D01*
X142320404Y-130930238D01*
X142282309Y-130854047D01*
X142206119Y-130815952D01*
X141901357Y-130815952D01*
X141825166Y-130854047D01*
X141787071Y-130930238D01*
X141787071Y-131082619D01*
X141825166Y-131158809D01*
X141901357Y-131196904D01*
X141977547Y-131196904D01*
X142053738Y-130815952D01*
X142320404Y-131539761D02*
X141787071Y-131539761D01*
X141939452Y-131539761D02*
X141863261Y-131577857D01*
X141825166Y-131615952D01*
X141787071Y-131692142D01*
X141787071Y-131768333D01*
X142282309Y-132987380D02*
X142320404Y-132911190D01*
X142320404Y-132758809D01*
X142282309Y-132682619D01*
X142244214Y-132644523D01*
X142168023Y-132606428D01*
X141939452Y-132606428D01*
X141863261Y-132644523D01*
X141825166Y-132682619D01*
X141787071Y-132758809D01*
X141787071Y-132911190D01*
X141825166Y-132987380D01*
X142320404Y-133444523D02*
X142282309Y-133368333D01*
X142244214Y-133330238D01*
X142168023Y-133292142D01*
X141939452Y-133292142D01*
X141863261Y-133330238D01*
X141825166Y-133368333D01*
X141787071Y-133444523D01*
X141787071Y-133558809D01*
X141825166Y-133635000D01*
X141863261Y-133673095D01*
X141939452Y-133711190D01*
X142168023Y-133711190D01*
X142244214Y-133673095D01*
X142282309Y-133635000D01*
X142320404Y-133558809D01*
X142320404Y-133444523D01*
X142320404Y-134054047D02*
X141787071Y-134054047D01*
X141863261Y-134054047D02*
X141825166Y-134092142D01*
X141787071Y-134168333D01*
X141787071Y-134282619D01*
X141825166Y-134358809D01*
X141901357Y-134396904D01*
X142320404Y-134396904D01*
X141901357Y-134396904D02*
X141825166Y-134435000D01*
X141787071Y-134511190D01*
X141787071Y-134625476D01*
X141825166Y-134701666D01*
X141901357Y-134739761D01*
X142320404Y-134739761D01*
X142320404Y-135120714D02*
X141787071Y-135120714D01*
X141863261Y-135120714D02*
X141825166Y-135158809D01*
X141787071Y-135235000D01*
X141787071Y-135349285D01*
X141825166Y-135425476D01*
X141901357Y-135463571D01*
X142320404Y-135463571D01*
X141901357Y-135463571D02*
X141825166Y-135501666D01*
X141787071Y-135577857D01*
X141787071Y-135692142D01*
X141825166Y-135768333D01*
X141901357Y-135806428D01*
X142320404Y-135806428D01*
X141787071Y-136530238D02*
X142320404Y-136530238D01*
X141787071Y-136187380D02*
X142206119Y-136187380D01*
X142282309Y-136225476D01*
X142320404Y-136301666D01*
X142320404Y-136415952D01*
X142282309Y-136492142D01*
X142244214Y-136530238D01*
X141787071Y-136911190D02*
X142320404Y-136911190D01*
X141863261Y-136911190D02*
X141825166Y-136949285D01*
X141787071Y-137025476D01*
X141787071Y-137139761D01*
X141825166Y-137215952D01*
X141901357Y-137254047D01*
X142320404Y-137254047D01*
X142320404Y-137635000D02*
X141787071Y-137635000D01*
X141520404Y-137635000D02*
X141558500Y-137596904D01*
X141596595Y-137635000D01*
X141558500Y-137673095D01*
X141520404Y-137635000D01*
X141596595Y-137635000D01*
X141787071Y-137901666D02*
X141787071Y-138206428D01*
X141520404Y-138015952D02*
X142206119Y-138015952D01*
X142282309Y-138054047D01*
X142320404Y-138130238D01*
X142320404Y-138206428D01*
X141787071Y-138396904D02*
X142320404Y-138587380D01*
X141787071Y-138777857D02*
X142320404Y-138587380D01*
X142510880Y-138511190D01*
X142548976Y-138473095D01*
X142587071Y-138396904D01*
X142244214Y-139082619D02*
X142282309Y-139120714D01*
X142320404Y-139082619D01*
X142282309Y-139044523D01*
X142244214Y-139082619D01*
X142320404Y-139082619D01*
X144170404Y-105482619D02*
X144170404Y-105939761D01*
X144970404Y-105711190D02*
X144170404Y-105711190D01*
X144970404Y-106206428D02*
X144170404Y-106206428D01*
X144970404Y-106549285D02*
X144551357Y-106549285D01*
X144475166Y-106511190D01*
X144437071Y-106435000D01*
X144437071Y-106320714D01*
X144475166Y-106244523D01*
X144513261Y-106206428D01*
X144970404Y-106930238D02*
X144437071Y-106930238D01*
X144589452Y-106930238D02*
X144513261Y-106968333D01*
X144475166Y-107006428D01*
X144437071Y-107082619D01*
X144437071Y-107158809D01*
X144970404Y-107539761D02*
X144932309Y-107463571D01*
X144894214Y-107425476D01*
X144818023Y-107387380D01*
X144589452Y-107387380D01*
X144513261Y-107425476D01*
X144475166Y-107463571D01*
X144437071Y-107539761D01*
X144437071Y-107654047D01*
X144475166Y-107730238D01*
X144513261Y-107768333D01*
X144589452Y-107806428D01*
X144818023Y-107806428D01*
X144894214Y-107768333D01*
X144932309Y-107730238D01*
X144970404Y-107654047D01*
X144970404Y-107539761D01*
X144437071Y-108492142D02*
X144970404Y-108492142D01*
X144437071Y-108149285D02*
X144856119Y-108149285D01*
X144932309Y-108187380D01*
X144970404Y-108263571D01*
X144970404Y-108377857D01*
X144932309Y-108454047D01*
X144894214Y-108492142D01*
X144437071Y-109215952D02*
X145084690Y-109215952D01*
X145160880Y-109177857D01*
X145198976Y-109139761D01*
X145237071Y-109063571D01*
X145237071Y-108949285D01*
X145198976Y-108873095D01*
X144932309Y-109215952D02*
X144970404Y-109139761D01*
X144970404Y-108987380D01*
X144932309Y-108911190D01*
X144894214Y-108873095D01*
X144818023Y-108835000D01*
X144589452Y-108835000D01*
X144513261Y-108873095D01*
X144475166Y-108911190D01*
X144437071Y-108987380D01*
X144437071Y-109139761D01*
X144475166Y-109215952D01*
X144970404Y-109596904D02*
X144170404Y-109596904D01*
X144970404Y-109939761D02*
X144551357Y-109939761D01*
X144475166Y-109901666D01*
X144437071Y-109825476D01*
X144437071Y-109711190D01*
X144475166Y-109635000D01*
X144513261Y-109596904D01*
X144437071Y-110815952D02*
X144437071Y-111120714D01*
X144170404Y-110930238D02*
X144856119Y-110930238D01*
X144932309Y-110968333D01*
X144970404Y-111044523D01*
X144970404Y-111120714D01*
X144970404Y-111387380D02*
X144170404Y-111387380D01*
X144970404Y-111730238D02*
X144551357Y-111730238D01*
X144475166Y-111692142D01*
X144437071Y-111615952D01*
X144437071Y-111501666D01*
X144475166Y-111425476D01*
X144513261Y-111387380D01*
X144932309Y-112415952D02*
X144970404Y-112339761D01*
X144970404Y-112187380D01*
X144932309Y-112111190D01*
X144856119Y-112073095D01*
X144551357Y-112073095D01*
X144475166Y-112111190D01*
X144437071Y-112187380D01*
X144437071Y-112339761D01*
X144475166Y-112415952D01*
X144551357Y-112454047D01*
X144627547Y-112454047D01*
X144703738Y-112073095D01*
X144437071Y-113406428D02*
X145237071Y-113406428D01*
X144475166Y-113406428D02*
X144437071Y-113482619D01*
X144437071Y-113635000D01*
X144475166Y-113711190D01*
X144513261Y-113749285D01*
X144589452Y-113787380D01*
X144818023Y-113787380D01*
X144894214Y-113749285D01*
X144932309Y-113711190D01*
X144970404Y-113635000D01*
X144970404Y-113482619D01*
X144932309Y-113406428D01*
X144970404Y-114130238D02*
X144437071Y-114130238D01*
X144589452Y-114130238D02*
X144513261Y-114168333D01*
X144475166Y-114206428D01*
X144437071Y-114282619D01*
X144437071Y-114358809D01*
X144970404Y-114739761D02*
X144932309Y-114663571D01*
X144894214Y-114625476D01*
X144818023Y-114587380D01*
X144589452Y-114587380D01*
X144513261Y-114625476D01*
X144475166Y-114663571D01*
X144437071Y-114739761D01*
X144437071Y-114854047D01*
X144475166Y-114930238D01*
X144513261Y-114968333D01*
X144589452Y-115006428D01*
X144818023Y-115006428D01*
X144894214Y-114968333D01*
X144932309Y-114930238D01*
X144970404Y-114854047D01*
X144970404Y-114739761D01*
X144932309Y-115692142D02*
X144970404Y-115615952D01*
X144970404Y-115463571D01*
X144932309Y-115387380D01*
X144894214Y-115349285D01*
X144818023Y-115311190D01*
X144589452Y-115311190D01*
X144513261Y-115349285D01*
X144475166Y-115387380D01*
X144437071Y-115463571D01*
X144437071Y-115615952D01*
X144475166Y-115692142D01*
X144932309Y-116339761D02*
X144970404Y-116263571D01*
X144970404Y-116111190D01*
X144932309Y-116035000D01*
X144856119Y-115996904D01*
X144551357Y-115996904D01*
X144475166Y-116035000D01*
X144437071Y-116111190D01*
X144437071Y-116263571D01*
X144475166Y-116339761D01*
X144551357Y-116377857D01*
X144627547Y-116377857D01*
X144703738Y-115996904D01*
X144932309Y-116682619D02*
X144970404Y-116758809D01*
X144970404Y-116911190D01*
X144932309Y-116987380D01*
X144856119Y-117025476D01*
X144818023Y-117025476D01*
X144741833Y-116987380D01*
X144703738Y-116911190D01*
X144703738Y-116796904D01*
X144665642Y-116720714D01*
X144589452Y-116682619D01*
X144551357Y-116682619D01*
X144475166Y-116720714D01*
X144437071Y-116796904D01*
X144437071Y-116911190D01*
X144475166Y-116987380D01*
X144932309Y-117330238D02*
X144970404Y-117406428D01*
X144970404Y-117558809D01*
X144932309Y-117635000D01*
X144856119Y-117673095D01*
X144818023Y-117673095D01*
X144741833Y-117635000D01*
X144703738Y-117558809D01*
X144703738Y-117444523D01*
X144665642Y-117368333D01*
X144589452Y-117330238D01*
X144551357Y-117330238D01*
X144475166Y-117368333D01*
X144437071Y-117444523D01*
X144437071Y-117558809D01*
X144475166Y-117635000D01*
X144970404Y-118739761D02*
X144932309Y-118663571D01*
X144894214Y-118625476D01*
X144818023Y-118587380D01*
X144589452Y-118587380D01*
X144513261Y-118625476D01*
X144475166Y-118663571D01*
X144437071Y-118739761D01*
X144437071Y-118854047D01*
X144475166Y-118930238D01*
X144513261Y-118968333D01*
X144589452Y-119006428D01*
X144818023Y-119006428D01*
X144894214Y-118968333D01*
X144932309Y-118930238D01*
X144970404Y-118854047D01*
X144970404Y-118739761D01*
X144437071Y-119235000D02*
X144437071Y-119539761D01*
X144970404Y-119349285D02*
X144284690Y-119349285D01*
X144208500Y-119387380D01*
X144170404Y-119463571D01*
X144170404Y-119539761D01*
X144970404Y-120415952D02*
X144437071Y-120415952D01*
X144513261Y-120415952D02*
X144475166Y-120454047D01*
X144437071Y-120530238D01*
X144437071Y-120644523D01*
X144475166Y-120720714D01*
X144551357Y-120758809D01*
X144970404Y-120758809D01*
X144551357Y-120758809D02*
X144475166Y-120796904D01*
X144437071Y-120873095D01*
X144437071Y-120987380D01*
X144475166Y-121063571D01*
X144551357Y-121101666D01*
X144970404Y-121101666D01*
X144970404Y-121825476D02*
X144551357Y-121825476D01*
X144475166Y-121787380D01*
X144437071Y-121711190D01*
X144437071Y-121558809D01*
X144475166Y-121482619D01*
X144932309Y-121825476D02*
X144970404Y-121749285D01*
X144970404Y-121558809D01*
X144932309Y-121482619D01*
X144856119Y-121444523D01*
X144779928Y-121444523D01*
X144703738Y-121482619D01*
X144665642Y-121558809D01*
X144665642Y-121749285D01*
X144627547Y-121825476D01*
X144970404Y-122206428D02*
X144170404Y-122206428D01*
X144665642Y-122282619D02*
X144970404Y-122511190D01*
X144437071Y-122511190D02*
X144741833Y-122206428D01*
X144970404Y-122854047D02*
X144437071Y-122854047D01*
X144170404Y-122854047D02*
X144208500Y-122815952D01*
X144246595Y-122854047D01*
X144208500Y-122892142D01*
X144170404Y-122854047D01*
X144246595Y-122854047D01*
X144437071Y-123235000D02*
X144970404Y-123235000D01*
X144513261Y-123235000D02*
X144475166Y-123273095D01*
X144437071Y-123349285D01*
X144437071Y-123463571D01*
X144475166Y-123539761D01*
X144551357Y-123577857D01*
X144970404Y-123577857D01*
X144437071Y-124301666D02*
X145084690Y-124301666D01*
X145160880Y-124263571D01*
X145198976Y-124225476D01*
X145237071Y-124149285D01*
X145237071Y-124035000D01*
X145198976Y-123958809D01*
X144932309Y-124301666D02*
X144970404Y-124225476D01*
X144970404Y-124073095D01*
X144932309Y-123996904D01*
X144894214Y-123958809D01*
X144818023Y-123920714D01*
X144589452Y-123920714D01*
X144513261Y-123958809D01*
X144475166Y-123996904D01*
X144437071Y-124073095D01*
X144437071Y-124225476D01*
X144475166Y-124301666D01*
X144437071Y-125177857D02*
X144437071Y-125482619D01*
X144170404Y-125292142D02*
X144856119Y-125292142D01*
X144932309Y-125330238D01*
X144970404Y-125406428D01*
X144970404Y-125482619D01*
X144970404Y-125749285D02*
X144170404Y-125749285D01*
X144970404Y-126092142D02*
X144551357Y-126092142D01*
X144475166Y-126054047D01*
X144437071Y-125977857D01*
X144437071Y-125863571D01*
X144475166Y-125787380D01*
X144513261Y-125749285D01*
X144932309Y-126777857D02*
X144970404Y-126701666D01*
X144970404Y-126549285D01*
X144932309Y-126473095D01*
X144856119Y-126435000D01*
X144551357Y-126435000D01*
X144475166Y-126473095D01*
X144437071Y-126549285D01*
X144437071Y-126701666D01*
X144475166Y-126777857D01*
X144551357Y-126815952D01*
X144627547Y-126815952D01*
X144703738Y-126435000D01*
X144932309Y-127120714D02*
X144970404Y-127196904D01*
X144970404Y-127349285D01*
X144932309Y-127425476D01*
X144856119Y-127463571D01*
X144818023Y-127463571D01*
X144741833Y-127425476D01*
X144703738Y-127349285D01*
X144703738Y-127235000D01*
X144665642Y-127158809D01*
X144589452Y-127120714D01*
X144551357Y-127120714D01*
X144475166Y-127158809D01*
X144437071Y-127235000D01*
X144437071Y-127349285D01*
X144475166Y-127425476D01*
X144932309Y-128111190D02*
X144970404Y-128035000D01*
X144970404Y-127882619D01*
X144932309Y-127806428D01*
X144856119Y-127768333D01*
X144551357Y-127768333D01*
X144475166Y-127806428D01*
X144437071Y-127882619D01*
X144437071Y-128035000D01*
X144475166Y-128111190D01*
X144551357Y-128149285D01*
X144627547Y-128149285D01*
X144703738Y-127768333D01*
X144970404Y-129101666D02*
X144170404Y-129101666D01*
X144475166Y-129101666D02*
X144437071Y-129177857D01*
X144437071Y-129330238D01*
X144475166Y-129406428D01*
X144513261Y-129444523D01*
X144589452Y-129482619D01*
X144818023Y-129482619D01*
X144894214Y-129444523D01*
X144932309Y-129406428D01*
X144970404Y-129330238D01*
X144970404Y-129177857D01*
X144932309Y-129101666D01*
X144970404Y-129939761D02*
X144932309Y-129863571D01*
X144894214Y-129825476D01*
X144818023Y-129787380D01*
X144589452Y-129787380D01*
X144513261Y-129825476D01*
X144475166Y-129863571D01*
X144437071Y-129939761D01*
X144437071Y-130054047D01*
X144475166Y-130130238D01*
X144513261Y-130168333D01*
X144589452Y-130206428D01*
X144818023Y-130206428D01*
X144894214Y-130168333D01*
X144932309Y-130130238D01*
X144970404Y-130054047D01*
X144970404Y-129939761D01*
X144970404Y-130892142D02*
X144551357Y-130892142D01*
X144475166Y-130854047D01*
X144437071Y-130777857D01*
X144437071Y-130625476D01*
X144475166Y-130549285D01*
X144932309Y-130892142D02*
X144970404Y-130815952D01*
X144970404Y-130625476D01*
X144932309Y-130549285D01*
X144856119Y-130511190D01*
X144779928Y-130511190D01*
X144703738Y-130549285D01*
X144665642Y-130625476D01*
X144665642Y-130815952D01*
X144627547Y-130892142D01*
X144970404Y-131273095D02*
X144437071Y-131273095D01*
X144589452Y-131273095D02*
X144513261Y-131311190D01*
X144475166Y-131349285D01*
X144437071Y-131425476D01*
X144437071Y-131501666D01*
X144970404Y-132111190D02*
X144170404Y-132111190D01*
X144932309Y-132111190D02*
X144970404Y-132035000D01*
X144970404Y-131882619D01*
X144932309Y-131806428D01*
X144894214Y-131768333D01*
X144818023Y-131730238D01*
X144589452Y-131730238D01*
X144513261Y-131768333D01*
X144475166Y-131806428D01*
X144437071Y-131882619D01*
X144437071Y-132035000D01*
X144475166Y-132111190D01*
X144932309Y-132454047D02*
X144970404Y-132530238D01*
X144970404Y-132682619D01*
X144932309Y-132758809D01*
X144856119Y-132796904D01*
X144818023Y-132796904D01*
X144741833Y-132758809D01*
X144703738Y-132682619D01*
X144703738Y-132568333D01*
X144665642Y-132492142D01*
X144589452Y-132454047D01*
X144551357Y-132454047D01*
X144475166Y-132492142D01*
X144437071Y-132568333D01*
X144437071Y-132682619D01*
X144475166Y-132758809D01*
X144932309Y-133177857D02*
X144970404Y-133177857D01*
X145046595Y-133139761D01*
X145084690Y-133101666D01*
X144970404Y-134130238D02*
X144170404Y-134130238D01*
X144170404Y-134549285D02*
X144208500Y-134549285D01*
X144284690Y-134511190D01*
X144322785Y-134473095D01*
X144437071Y-134815952D02*
X144970404Y-135006428D01*
X144437071Y-135196904D01*
X144932309Y-135806428D02*
X144970404Y-135730238D01*
X144970404Y-135577857D01*
X144932309Y-135501666D01*
X144856119Y-135463571D01*
X144551357Y-135463571D01*
X144475166Y-135501666D01*
X144437071Y-135577857D01*
X144437071Y-135730238D01*
X144475166Y-135806428D01*
X144551357Y-135844523D01*
X144627547Y-135844523D01*
X144703738Y-135463571D01*
X144970404Y-136911190D02*
X144932309Y-136835000D01*
X144856119Y-136796904D01*
X144170404Y-136796904D01*
X144932309Y-137520714D02*
X144970404Y-137444523D01*
X144970404Y-137292142D01*
X144932309Y-137215952D01*
X144856119Y-137177857D01*
X144551357Y-137177857D01*
X144475166Y-137215952D01*
X144437071Y-137292142D01*
X144437071Y-137444523D01*
X144475166Y-137520714D01*
X144551357Y-137558809D01*
X144627547Y-137558809D01*
X144703738Y-137177857D01*
X144970404Y-138244523D02*
X144551357Y-138244523D01*
X144475166Y-138206428D01*
X144437071Y-138130238D01*
X144437071Y-137977857D01*
X144475166Y-137901666D01*
X144932309Y-138244523D02*
X144970404Y-138168333D01*
X144970404Y-137977857D01*
X144932309Y-137901666D01*
X144856119Y-137863571D01*
X144779928Y-137863571D01*
X144703738Y-137901666D01*
X144665642Y-137977857D01*
X144665642Y-138168333D01*
X144627547Y-138244523D01*
X144970404Y-138625476D02*
X144437071Y-138625476D01*
X144589452Y-138625476D02*
X144513261Y-138663571D01*
X144475166Y-138701666D01*
X144437071Y-138777857D01*
X144437071Y-138854047D01*
X144437071Y-139120714D02*
X144970404Y-139120714D01*
X144513261Y-139120714D02*
X144475166Y-139158809D01*
X144437071Y-139235000D01*
X144437071Y-139349285D01*
X144475166Y-139425476D01*
X144551357Y-139463571D01*
X144970404Y-139463571D01*
X144932309Y-140149285D02*
X144970404Y-140073095D01*
X144970404Y-139920714D01*
X144932309Y-139844523D01*
X144856119Y-139806428D01*
X144551357Y-139806428D01*
X144475166Y-139844523D01*
X144437071Y-139920714D01*
X144437071Y-140073095D01*
X144475166Y-140149285D01*
X144551357Y-140187380D01*
X144627547Y-140187380D01*
X144703738Y-139806428D01*
X144970404Y-140873095D02*
X144170404Y-140873095D01*
X144932309Y-140873095D02*
X144970404Y-140796904D01*
X144970404Y-140644523D01*
X144932309Y-140568333D01*
X144894214Y-140530238D01*
X144818023Y-140492142D01*
X144589452Y-140492142D01*
X144513261Y-140530238D01*
X144475166Y-140568333D01*
X144437071Y-140644523D01*
X144437071Y-140796904D01*
X144475166Y-140873095D01*
X144970404Y-142206428D02*
X144551357Y-142206428D01*
X144475166Y-142168333D01*
X144437071Y-142092142D01*
X144437071Y-141939761D01*
X144475166Y-141863571D01*
X144932309Y-142206428D02*
X144970404Y-142130238D01*
X144970404Y-141939761D01*
X144932309Y-141863571D01*
X144856119Y-141825476D01*
X144779928Y-141825476D01*
X144703738Y-141863571D01*
X144665642Y-141939761D01*
X144665642Y-142130238D01*
X144627547Y-142206428D01*
X144437071Y-143539761D02*
X145084690Y-143539761D01*
X145160880Y-143501666D01*
X145198976Y-143463571D01*
X145237071Y-143387380D01*
X145237071Y-143273095D01*
X145198976Y-143196904D01*
X144932309Y-143539761D02*
X144970404Y-143463571D01*
X144970404Y-143311190D01*
X144932309Y-143235000D01*
X144894214Y-143196904D01*
X144818023Y-143158809D01*
X144589452Y-143158809D01*
X144513261Y-143196904D01*
X144475166Y-143235000D01*
X144437071Y-143311190D01*
X144437071Y-143463571D01*
X144475166Y-143539761D01*
X144970404Y-143920714D02*
X144437071Y-143920714D01*
X144589452Y-143920714D02*
X144513261Y-143958809D01*
X144475166Y-143996904D01*
X144437071Y-144073095D01*
X144437071Y-144149285D01*
X144932309Y-144720714D02*
X144970404Y-144644523D01*
X144970404Y-144492142D01*
X144932309Y-144415952D01*
X144856119Y-144377857D01*
X144551357Y-144377857D01*
X144475166Y-144415952D01*
X144437071Y-144492142D01*
X144437071Y-144644523D01*
X144475166Y-144720714D01*
X144551357Y-144758809D01*
X144627547Y-144758809D01*
X144703738Y-144377857D01*
X144970404Y-145444523D02*
X144551357Y-145444523D01*
X144475166Y-145406428D01*
X144437071Y-145330238D01*
X144437071Y-145177857D01*
X144475166Y-145101666D01*
X144932309Y-145444523D02*
X144970404Y-145368333D01*
X144970404Y-145177857D01*
X144932309Y-145101666D01*
X144856119Y-145063571D01*
X144779928Y-145063571D01*
X144703738Y-145101666D01*
X144665642Y-145177857D01*
X144665642Y-145368333D01*
X144627547Y-145444523D01*
X144437071Y-145711190D02*
X144437071Y-146015952D01*
X144170404Y-145825476D02*
X144856119Y-145825476D01*
X144932309Y-145863571D01*
X144970404Y-145939761D01*
X144970404Y-146015952D01*
X144970404Y-147235000D02*
X144170404Y-147235000D01*
X144932309Y-147235000D02*
X144970404Y-147158809D01*
X144970404Y-147006428D01*
X144932309Y-146930238D01*
X144894214Y-146892142D01*
X144818023Y-146854047D01*
X144589452Y-146854047D01*
X144513261Y-146892142D01*
X144475166Y-146930238D01*
X144437071Y-147006428D01*
X144437071Y-147158809D01*
X144475166Y-147235000D01*
X144932309Y-147920714D02*
X144970404Y-147844523D01*
X144970404Y-147692142D01*
X144932309Y-147615952D01*
X144856119Y-147577857D01*
X144551357Y-147577857D01*
X144475166Y-147615952D01*
X144437071Y-147692142D01*
X144437071Y-147844523D01*
X144475166Y-147920714D01*
X144551357Y-147958809D01*
X144627547Y-147958809D01*
X144703738Y-147577857D01*
X144970404Y-148644523D02*
X144551357Y-148644523D01*
X144475166Y-148606428D01*
X144437071Y-148530238D01*
X144437071Y-148377857D01*
X144475166Y-148301666D01*
X144932309Y-148644523D02*
X144970404Y-148568333D01*
X144970404Y-148377857D01*
X144932309Y-148301666D01*
X144856119Y-148263571D01*
X144779928Y-148263571D01*
X144703738Y-148301666D01*
X144665642Y-148377857D01*
X144665642Y-148568333D01*
X144627547Y-148644523D01*
X144970404Y-149139761D02*
X144932309Y-149063571D01*
X144856119Y-149025476D01*
X144170404Y-149025476D01*
X146295404Y-106511190D02*
X145876357Y-106511190D01*
X145800166Y-106473095D01*
X145762071Y-106396904D01*
X145762071Y-106244523D01*
X145800166Y-106168333D01*
X146257309Y-106511190D02*
X146295404Y-106435000D01*
X146295404Y-106244523D01*
X146257309Y-106168333D01*
X146181119Y-106130238D01*
X146104928Y-106130238D01*
X146028738Y-106168333D01*
X145990642Y-106244523D01*
X145990642Y-106435000D01*
X145952547Y-106511190D01*
X146295404Y-106892142D02*
X145495404Y-106892142D01*
X145800166Y-106892142D02*
X145762071Y-106968333D01*
X145762071Y-107120714D01*
X145800166Y-107196904D01*
X145838261Y-107235000D01*
X145914452Y-107273095D01*
X146143023Y-107273095D01*
X146219214Y-107235000D01*
X146257309Y-107196904D01*
X146295404Y-107120714D01*
X146295404Y-106968333D01*
X146257309Y-106892142D01*
X146295404Y-107730238D02*
X146257309Y-107654047D01*
X146219214Y-107615952D01*
X146143023Y-107577857D01*
X145914452Y-107577857D01*
X145838261Y-107615952D01*
X145800166Y-107654047D01*
X145762071Y-107730238D01*
X145762071Y-107844523D01*
X145800166Y-107920714D01*
X145838261Y-107958809D01*
X145914452Y-107996904D01*
X146143023Y-107996904D01*
X146219214Y-107958809D01*
X146257309Y-107920714D01*
X146295404Y-107844523D01*
X146295404Y-107730238D01*
X145762071Y-108682619D02*
X146295404Y-108682619D01*
X145762071Y-108339761D02*
X146181119Y-108339761D01*
X146257309Y-108377857D01*
X146295404Y-108454047D01*
X146295404Y-108568333D01*
X146257309Y-108644523D01*
X146219214Y-108682619D01*
X145762071Y-108949285D02*
X145762071Y-109254047D01*
X145495404Y-109063571D02*
X146181119Y-109063571D01*
X146257309Y-109101666D01*
X146295404Y-109177857D01*
X146295404Y-109254047D01*
X146295404Y-110130238D02*
X145495404Y-110130238D01*
X146295404Y-110587380D02*
X145838261Y-110244523D01*
X145495404Y-110587380D02*
X145952547Y-110130238D01*
X146295404Y-110930238D02*
X145762071Y-110930238D01*
X145495404Y-110930238D02*
X145533500Y-110892142D01*
X145571595Y-110930238D01*
X145533500Y-110968333D01*
X145495404Y-110930238D01*
X145571595Y-110930238D01*
X146219214Y-111768333D02*
X146257309Y-111730238D01*
X146295404Y-111615952D01*
X146295404Y-111539761D01*
X146257309Y-111425476D01*
X146181119Y-111349285D01*
X146104928Y-111311190D01*
X145952547Y-111273095D01*
X145838261Y-111273095D01*
X145685880Y-111311190D01*
X145609690Y-111349285D01*
X145533500Y-111425476D01*
X145495404Y-111539761D01*
X145495404Y-111615952D01*
X145533500Y-111730238D01*
X145571595Y-111768333D01*
X146295404Y-112454047D02*
X145876357Y-112454047D01*
X145800166Y-112415952D01*
X145762071Y-112339761D01*
X145762071Y-112187380D01*
X145800166Y-112111190D01*
X146257309Y-112454047D02*
X146295404Y-112377857D01*
X146295404Y-112187380D01*
X146257309Y-112111190D01*
X146181119Y-112073095D01*
X146104928Y-112073095D01*
X146028738Y-112111190D01*
X145990642Y-112187380D01*
X145990642Y-112377857D01*
X145952547Y-112454047D01*
X146295404Y-113177857D02*
X145495404Y-113177857D01*
X146257309Y-113177857D02*
X146295404Y-113101666D01*
X146295404Y-112949285D01*
X146257309Y-112873095D01*
X146219214Y-112835000D01*
X146143023Y-112796904D01*
X145914452Y-112796904D01*
X145838261Y-112835000D01*
X145800166Y-112873095D01*
X145762071Y-112949285D01*
X145762071Y-113101666D01*
X145800166Y-113177857D01*
X146295404Y-114168333D02*
X145762071Y-114168333D01*
X145495404Y-114168333D02*
X145533500Y-114130238D01*
X145571595Y-114168333D01*
X145533500Y-114206428D01*
X145495404Y-114168333D01*
X145571595Y-114168333D01*
X145762071Y-114549285D02*
X146295404Y-114549285D01*
X145838261Y-114549285D02*
X145800166Y-114587380D01*
X145762071Y-114663571D01*
X145762071Y-114777857D01*
X145800166Y-114854047D01*
X145876357Y-114892142D01*
X146295404Y-114892142D01*
X145762071Y-115882619D02*
X146562071Y-115882619D01*
X145800166Y-115882619D02*
X145762071Y-115958809D01*
X145762071Y-116111190D01*
X145800166Y-116187380D01*
X145838261Y-116225476D01*
X145914452Y-116263571D01*
X146143023Y-116263571D01*
X146219214Y-116225476D01*
X146257309Y-116187380D01*
X146295404Y-116111190D01*
X146295404Y-115958809D01*
X146257309Y-115882619D01*
X146295404Y-116949285D02*
X145876357Y-116949285D01*
X145800166Y-116911190D01*
X145762071Y-116835000D01*
X145762071Y-116682619D01*
X145800166Y-116606428D01*
X146257309Y-116949285D02*
X146295404Y-116873095D01*
X146295404Y-116682619D01*
X146257309Y-116606428D01*
X146181119Y-116568333D01*
X146104928Y-116568333D01*
X146028738Y-116606428D01*
X145990642Y-116682619D01*
X145990642Y-116873095D01*
X145952547Y-116949285D01*
X146295404Y-117330238D02*
X145762071Y-117330238D01*
X145914452Y-117330238D02*
X145838261Y-117368333D01*
X145800166Y-117406428D01*
X145762071Y-117482619D01*
X145762071Y-117558809D01*
X145762071Y-117711190D02*
X145762071Y-118015952D01*
X145495404Y-117825476D02*
X146181119Y-117825476D01*
X146257309Y-117863571D01*
X146295404Y-117939761D01*
X146295404Y-118015952D01*
X146295404Y-118282619D02*
X145762071Y-118282619D01*
X145495404Y-118282619D02*
X145533500Y-118244523D01*
X145571595Y-118282619D01*
X145533500Y-118320714D01*
X145495404Y-118282619D01*
X145571595Y-118282619D01*
X146257309Y-119006428D02*
X146295404Y-118930238D01*
X146295404Y-118777857D01*
X146257309Y-118701666D01*
X146219214Y-118663571D01*
X146143023Y-118625476D01*
X145914452Y-118625476D01*
X145838261Y-118663571D01*
X145800166Y-118701666D01*
X145762071Y-118777857D01*
X145762071Y-118930238D01*
X145800166Y-119006428D01*
X145762071Y-119692142D02*
X146295404Y-119692142D01*
X145762071Y-119349285D02*
X146181119Y-119349285D01*
X146257309Y-119387380D01*
X146295404Y-119463571D01*
X146295404Y-119577857D01*
X146257309Y-119654047D01*
X146219214Y-119692142D01*
X146295404Y-120187380D02*
X146257309Y-120111190D01*
X146181119Y-120073095D01*
X145495404Y-120073095D01*
X146295404Y-120835000D02*
X145876357Y-120835000D01*
X145800166Y-120796904D01*
X145762071Y-120720714D01*
X145762071Y-120568333D01*
X145800166Y-120492142D01*
X146257309Y-120835000D02*
X146295404Y-120758809D01*
X146295404Y-120568333D01*
X146257309Y-120492142D01*
X146181119Y-120454047D01*
X146104928Y-120454047D01*
X146028738Y-120492142D01*
X145990642Y-120568333D01*
X145990642Y-120758809D01*
X145952547Y-120835000D01*
X146295404Y-121215952D02*
X145762071Y-121215952D01*
X145914452Y-121215952D02*
X145838261Y-121254047D01*
X145800166Y-121292142D01*
X145762071Y-121368333D01*
X145762071Y-121444523D01*
X146257309Y-121749285D02*
X146295404Y-121749285D01*
X146371595Y-121711190D01*
X146409690Y-121673095D01*
X146295404Y-122701666D02*
X145495404Y-122701666D01*
X145800166Y-122701666D02*
X145762071Y-122777857D01*
X145762071Y-122930238D01*
X145800166Y-123006428D01*
X145838261Y-123044523D01*
X145914452Y-123082619D01*
X146143023Y-123082619D01*
X146219214Y-123044523D01*
X146257309Y-123006428D01*
X146295404Y-122930238D01*
X146295404Y-122777857D01*
X146257309Y-122701666D01*
X145762071Y-123768333D02*
X146295404Y-123768333D01*
X145762071Y-123425476D02*
X146181119Y-123425476D01*
X146257309Y-123463571D01*
X146295404Y-123539761D01*
X146295404Y-123654047D01*
X146257309Y-123730238D01*
X146219214Y-123768333D01*
X145762071Y-124035000D02*
X145762071Y-124339761D01*
X145495404Y-124149285D02*
X146181119Y-124149285D01*
X146257309Y-124187380D01*
X146295404Y-124263571D01*
X146295404Y-124339761D01*
X146295404Y-125558809D02*
X145876357Y-125558809D01*
X145800166Y-125520714D01*
X145762071Y-125444523D01*
X145762071Y-125292142D01*
X145800166Y-125215952D01*
X146257309Y-125558809D02*
X146295404Y-125482619D01*
X146295404Y-125292142D01*
X146257309Y-125215952D01*
X146181119Y-125177857D01*
X146104928Y-125177857D01*
X146028738Y-125215952D01*
X145990642Y-125292142D01*
X145990642Y-125482619D01*
X145952547Y-125558809D01*
X146295404Y-126054047D02*
X146257309Y-125977857D01*
X146181119Y-125939761D01*
X145495404Y-125939761D01*
X146257309Y-126320714D02*
X146295404Y-126396904D01*
X146295404Y-126549285D01*
X146257309Y-126625476D01*
X146181119Y-126663571D01*
X146143023Y-126663571D01*
X146066833Y-126625476D01*
X146028738Y-126549285D01*
X146028738Y-126435000D01*
X145990642Y-126358809D01*
X145914452Y-126320714D01*
X145876357Y-126320714D01*
X145800166Y-126358809D01*
X145762071Y-126435000D01*
X145762071Y-126549285D01*
X145800166Y-126625476D01*
X146295404Y-127120714D02*
X146257309Y-127044523D01*
X146219214Y-127006428D01*
X146143023Y-126968333D01*
X145914452Y-126968333D01*
X145838261Y-127006428D01*
X145800166Y-127044523D01*
X145762071Y-127120714D01*
X145762071Y-127235000D01*
X145800166Y-127311190D01*
X145838261Y-127349285D01*
X145914452Y-127387380D01*
X146143023Y-127387380D01*
X146219214Y-127349285D01*
X146257309Y-127311190D01*
X146295404Y-127235000D01*
X146295404Y-127120714D01*
X145762071Y-128339761D02*
X146447785Y-128339761D01*
X146523976Y-128301666D01*
X146562071Y-128225476D01*
X146562071Y-128187380D01*
X145495404Y-128339761D02*
X145533500Y-128301666D01*
X145571595Y-128339761D01*
X145533500Y-128377857D01*
X145495404Y-128339761D01*
X145571595Y-128339761D01*
X145762071Y-129063571D02*
X146295404Y-129063571D01*
X145762071Y-128720714D02*
X146181119Y-128720714D01*
X146257309Y-128758809D01*
X146295404Y-128835000D01*
X146295404Y-128949285D01*
X146257309Y-129025476D01*
X146219214Y-129063571D01*
X146257309Y-129406428D02*
X146295404Y-129482619D01*
X146295404Y-129635000D01*
X146257309Y-129711190D01*
X146181119Y-129749285D01*
X146143023Y-129749285D01*
X146066833Y-129711190D01*
X146028738Y-129635000D01*
X146028738Y-129520714D01*
X145990642Y-129444523D01*
X145914452Y-129406428D01*
X145876357Y-129406428D01*
X145800166Y-129444523D01*
X145762071Y-129520714D01*
X145762071Y-129635000D01*
X145800166Y-129711190D01*
X145762071Y-129977857D02*
X145762071Y-130282619D01*
X145495404Y-130092142D02*
X146181119Y-130092142D01*
X146257309Y-130130238D01*
X146295404Y-130206428D01*
X146295404Y-130282619D01*
X145762071Y-131501666D02*
X146409690Y-131501666D01*
X146485880Y-131463571D01*
X146523976Y-131425476D01*
X146562071Y-131349285D01*
X146562071Y-131235000D01*
X146523976Y-131158809D01*
X146257309Y-131501666D02*
X146295404Y-131425476D01*
X146295404Y-131273095D01*
X146257309Y-131196904D01*
X146219214Y-131158809D01*
X146143023Y-131120714D01*
X145914452Y-131120714D01*
X145838261Y-131158809D01*
X145800166Y-131196904D01*
X145762071Y-131273095D01*
X145762071Y-131425476D01*
X145800166Y-131501666D01*
X146257309Y-132187380D02*
X146295404Y-132111190D01*
X146295404Y-131958809D01*
X146257309Y-131882619D01*
X146181119Y-131844523D01*
X145876357Y-131844523D01*
X145800166Y-131882619D01*
X145762071Y-131958809D01*
X145762071Y-132111190D01*
X145800166Y-132187380D01*
X145876357Y-132225476D01*
X145952547Y-132225476D01*
X146028738Y-131844523D01*
X145762071Y-132568333D02*
X146295404Y-132568333D01*
X145838261Y-132568333D02*
X145800166Y-132606428D01*
X145762071Y-132682619D01*
X145762071Y-132796904D01*
X145800166Y-132873095D01*
X145876357Y-132911190D01*
X146295404Y-132911190D01*
X146257309Y-133596904D02*
X146295404Y-133520714D01*
X146295404Y-133368333D01*
X146257309Y-133292142D01*
X146181119Y-133254047D01*
X145876357Y-133254047D01*
X145800166Y-133292142D01*
X145762071Y-133368333D01*
X145762071Y-133520714D01*
X145800166Y-133596904D01*
X145876357Y-133635000D01*
X145952547Y-133635000D01*
X146028738Y-133254047D01*
X146295404Y-133977857D02*
X145762071Y-133977857D01*
X145914452Y-133977857D02*
X145838261Y-134015952D01*
X145800166Y-134054047D01*
X145762071Y-134130238D01*
X145762071Y-134206428D01*
X146295404Y-134815952D02*
X145876357Y-134815952D01*
X145800166Y-134777857D01*
X145762071Y-134701666D01*
X145762071Y-134549285D01*
X145800166Y-134473095D01*
X146257309Y-134815952D02*
X146295404Y-134739761D01*
X146295404Y-134549285D01*
X146257309Y-134473095D01*
X146181119Y-134435000D01*
X146104928Y-134435000D01*
X146028738Y-134473095D01*
X145990642Y-134549285D01*
X145990642Y-134739761D01*
X145952547Y-134815952D01*
X146295404Y-135311190D02*
X146257309Y-135235000D01*
X146181119Y-135196904D01*
X145495404Y-135196904D01*
X146295404Y-136339761D02*
X146257309Y-136263571D01*
X146181119Y-136225476D01*
X145495404Y-136225476D01*
X146295404Y-136758809D02*
X146257309Y-136682619D01*
X146219214Y-136644523D01*
X146143023Y-136606428D01*
X145914452Y-136606428D01*
X145838261Y-136644523D01*
X145800166Y-136682619D01*
X145762071Y-136758809D01*
X145762071Y-136873095D01*
X145800166Y-136949285D01*
X145838261Y-136987380D01*
X145914452Y-137025476D01*
X146143023Y-137025476D01*
X146219214Y-136987380D01*
X146257309Y-136949285D01*
X146295404Y-136873095D01*
X146295404Y-136758809D01*
X145762071Y-137711190D02*
X146409690Y-137711190D01*
X146485880Y-137673095D01*
X146523976Y-137635000D01*
X146562071Y-137558809D01*
X146562071Y-137444523D01*
X146523976Y-137368333D01*
X146257309Y-137711190D02*
X146295404Y-137635000D01*
X146295404Y-137482619D01*
X146257309Y-137406428D01*
X146219214Y-137368333D01*
X146143023Y-137330238D01*
X145914452Y-137330238D01*
X145838261Y-137368333D01*
X145800166Y-137406428D01*
X145762071Y-137482619D01*
X145762071Y-137635000D01*
X145800166Y-137711190D01*
X146295404Y-138092142D02*
X145762071Y-138092142D01*
X145495404Y-138092142D02*
X145533500Y-138054047D01*
X145571595Y-138092142D01*
X145533500Y-138130238D01*
X145495404Y-138092142D01*
X145571595Y-138092142D01*
X146257309Y-138815952D02*
X146295404Y-138739761D01*
X146295404Y-138587380D01*
X146257309Y-138511190D01*
X146219214Y-138473095D01*
X146143023Y-138435000D01*
X145914452Y-138435000D01*
X145838261Y-138473095D01*
X145800166Y-138511190D01*
X145762071Y-138587380D01*
X145762071Y-138739761D01*
X145800166Y-138815952D01*
X145762071Y-139654047D02*
X145762071Y-139958809D01*
X145495404Y-139768333D02*
X146181119Y-139768333D01*
X146257309Y-139806428D01*
X146295404Y-139882619D01*
X146295404Y-139958809D01*
X146295404Y-140225476D02*
X145495404Y-140225476D01*
X146295404Y-140568333D02*
X145876357Y-140568333D01*
X145800166Y-140530238D01*
X145762071Y-140454047D01*
X145762071Y-140339761D01*
X145800166Y-140263571D01*
X145838261Y-140225476D01*
X146257309Y-141254047D02*
X146295404Y-141177857D01*
X146295404Y-141025476D01*
X146257309Y-140949285D01*
X146181119Y-140911190D01*
X145876357Y-140911190D01*
X145800166Y-140949285D01*
X145762071Y-141025476D01*
X145762071Y-141177857D01*
X145800166Y-141254047D01*
X145876357Y-141292142D01*
X145952547Y-141292142D01*
X146028738Y-140911190D01*
X146295404Y-141749285D02*
X146257309Y-141673095D01*
X146219214Y-141635000D01*
X146143023Y-141596904D01*
X145914452Y-141596904D01*
X145838261Y-141635000D01*
X145800166Y-141673095D01*
X145762071Y-141749285D01*
X145762071Y-141863571D01*
X145800166Y-141939761D01*
X145838261Y-141977857D01*
X145914452Y-142015952D01*
X146143023Y-142015952D01*
X146219214Y-141977857D01*
X146257309Y-141939761D01*
X146295404Y-141863571D01*
X146295404Y-141749285D01*
X146295404Y-142358809D02*
X145762071Y-142358809D01*
X145914452Y-142358809D02*
X145838261Y-142396904D01*
X145800166Y-142435000D01*
X145762071Y-142511190D01*
X145762071Y-142587380D01*
X145762071Y-142777857D02*
X146295404Y-142968333D01*
X145762071Y-143158809D02*
X146295404Y-142968333D01*
X146485880Y-142892142D01*
X146523976Y-142854047D01*
X146562071Y-142777857D01*
X146257309Y-143501666D02*
X146295404Y-143501666D01*
X146371595Y-143463571D01*
X146409690Y-143425476D01*
X145762071Y-144377857D02*
X146295404Y-144568333D01*
X145762071Y-144758809D01*
X146257309Y-145368333D02*
X146295404Y-145292142D01*
X146295404Y-145139761D01*
X146257309Y-145063571D01*
X146181119Y-145025476D01*
X145876357Y-145025476D01*
X145800166Y-145063571D01*
X145762071Y-145139761D01*
X145762071Y-145292142D01*
X145800166Y-145368333D01*
X145876357Y-145406428D01*
X145952547Y-145406428D01*
X146028738Y-145025476D01*
X146295404Y-145749285D02*
X145762071Y-145749285D01*
X145914452Y-145749285D02*
X145838261Y-145787380D01*
X145800166Y-145825476D01*
X145762071Y-145901666D01*
X145762071Y-145977857D01*
X146295404Y-146244523D02*
X145762071Y-146244523D01*
X145495404Y-146244523D02*
X145533500Y-146206428D01*
X145571595Y-146244523D01*
X145533500Y-146282619D01*
X145495404Y-146244523D01*
X145571595Y-146244523D01*
X146295404Y-146739761D02*
X146257309Y-146663571D01*
X146181119Y-146625476D01*
X145495404Y-146625476D01*
X146295404Y-147158809D02*
X146257309Y-147082619D01*
X146219214Y-147044523D01*
X146143023Y-147006428D01*
X145914452Y-147006428D01*
X145838261Y-147044523D01*
X145800166Y-147082619D01*
X145762071Y-147158809D01*
X145762071Y-147273095D01*
X145800166Y-147349285D01*
X145838261Y-147387380D01*
X145914452Y-147425476D01*
X146143023Y-147425476D01*
X146219214Y-147387380D01*
X146257309Y-147349285D01*
X146295404Y-147273095D01*
X146295404Y-147158809D01*
X145762071Y-148111190D02*
X146409690Y-148111190D01*
X146485880Y-148073095D01*
X146523976Y-148035000D01*
X146562071Y-147958809D01*
X146562071Y-147844523D01*
X146523976Y-147768333D01*
X146257309Y-148111190D02*
X146295404Y-148035000D01*
X146295404Y-147882619D01*
X146257309Y-147806428D01*
X146219214Y-147768333D01*
X146143023Y-147730238D01*
X145914452Y-147730238D01*
X145838261Y-147768333D01*
X145800166Y-147806428D01*
X145762071Y-147882619D01*
X145762071Y-148035000D01*
X145800166Y-148111190D01*
X146257309Y-148530238D02*
X146295404Y-148530238D01*
X146371595Y-148492142D01*
X146409690Y-148454047D01*
X147620404Y-112987380D02*
X147087071Y-112987380D01*
X146820404Y-112987380D02*
X146858500Y-112949285D01*
X146896595Y-112987380D01*
X146858500Y-113025476D01*
X146820404Y-112987380D01*
X146896595Y-112987380D01*
X147087071Y-113368333D02*
X147620404Y-113368333D01*
X147163261Y-113368333D02*
X147125166Y-113406428D01*
X147087071Y-113482619D01*
X147087071Y-113596904D01*
X147125166Y-113673095D01*
X147201357Y-113711190D01*
X147620404Y-113711190D01*
X147620404Y-114435000D02*
X146820404Y-114435000D01*
X147582309Y-114435000D02*
X147620404Y-114358809D01*
X147620404Y-114206428D01*
X147582309Y-114130238D01*
X147544214Y-114092142D01*
X147468023Y-114054047D01*
X147239452Y-114054047D01*
X147163261Y-114092142D01*
X147125166Y-114130238D01*
X147087071Y-114206428D01*
X147087071Y-114358809D01*
X147125166Y-114435000D01*
X147087071Y-115158809D02*
X147620404Y-115158809D01*
X147087071Y-114815952D02*
X147506119Y-114815952D01*
X147582309Y-114854047D01*
X147620404Y-114930238D01*
X147620404Y-115044523D01*
X147582309Y-115120714D01*
X147544214Y-115158809D01*
X147582309Y-115882619D02*
X147620404Y-115806428D01*
X147620404Y-115654047D01*
X147582309Y-115577857D01*
X147544214Y-115539761D01*
X147468023Y-115501666D01*
X147239452Y-115501666D01*
X147163261Y-115539761D01*
X147125166Y-115577857D01*
X147087071Y-115654047D01*
X147087071Y-115806428D01*
X147125166Y-115882619D01*
X147087071Y-116111190D02*
X147087071Y-116415952D01*
X146820404Y-116225476D02*
X147506119Y-116225476D01*
X147582309Y-116263571D01*
X147620404Y-116339761D01*
X147620404Y-116415952D01*
X147620404Y-117025476D02*
X147201357Y-117025476D01*
X147125166Y-116987380D01*
X147087071Y-116911190D01*
X147087071Y-116758809D01*
X147125166Y-116682619D01*
X147582309Y-117025476D02*
X147620404Y-116949285D01*
X147620404Y-116758809D01*
X147582309Y-116682619D01*
X147506119Y-116644523D01*
X147429928Y-116644523D01*
X147353738Y-116682619D01*
X147315642Y-116758809D01*
X147315642Y-116949285D01*
X147277547Y-117025476D01*
X147087071Y-117406428D02*
X147620404Y-117406428D01*
X147163261Y-117406428D02*
X147125166Y-117444523D01*
X147087071Y-117520714D01*
X147087071Y-117635000D01*
X147125166Y-117711190D01*
X147201357Y-117749285D01*
X147620404Y-117749285D01*
X147582309Y-118473095D02*
X147620404Y-118396904D01*
X147620404Y-118244523D01*
X147582309Y-118168333D01*
X147544214Y-118130238D01*
X147468023Y-118092142D01*
X147239452Y-118092142D01*
X147163261Y-118130238D01*
X147125166Y-118168333D01*
X147087071Y-118244523D01*
X147087071Y-118396904D01*
X147125166Y-118473095D01*
X147582309Y-119120714D02*
X147620404Y-119044523D01*
X147620404Y-118892142D01*
X147582309Y-118815952D01*
X147506119Y-118777857D01*
X147201357Y-118777857D01*
X147125166Y-118815952D01*
X147087071Y-118892142D01*
X147087071Y-119044523D01*
X147125166Y-119120714D01*
X147201357Y-119158809D01*
X147277547Y-119158809D01*
X147353738Y-118777857D01*
X147582309Y-119539761D02*
X147620404Y-119539761D01*
X147696595Y-119501666D01*
X147734690Y-119463571D01*
X147582309Y-120835000D02*
X147620404Y-120758809D01*
X147620404Y-120606428D01*
X147582309Y-120530238D01*
X147544214Y-120492142D01*
X147468023Y-120454047D01*
X147239452Y-120454047D01*
X147163261Y-120492142D01*
X147125166Y-120530238D01*
X147087071Y-120606428D01*
X147087071Y-120758809D01*
X147125166Y-120835000D01*
X147620404Y-121520714D02*
X147201357Y-121520714D01*
X147125166Y-121482619D01*
X147087071Y-121406428D01*
X147087071Y-121254047D01*
X147125166Y-121177857D01*
X147582309Y-121520714D02*
X147620404Y-121444523D01*
X147620404Y-121254047D01*
X147582309Y-121177857D01*
X147506119Y-121139761D01*
X147429928Y-121139761D01*
X147353738Y-121177857D01*
X147315642Y-121254047D01*
X147315642Y-121444523D01*
X147277547Y-121520714D01*
X147087071Y-121901666D02*
X147887071Y-121901666D01*
X147125166Y-121901666D02*
X147087071Y-121977857D01*
X147087071Y-122130238D01*
X147125166Y-122206428D01*
X147163261Y-122244523D01*
X147239452Y-122282619D01*
X147468023Y-122282619D01*
X147544214Y-122244523D01*
X147582309Y-122206428D01*
X147620404Y-122130238D01*
X147620404Y-121977857D01*
X147582309Y-121901666D01*
X147620404Y-122968333D02*
X147201357Y-122968333D01*
X147125166Y-122930238D01*
X147087071Y-122854047D01*
X147087071Y-122701666D01*
X147125166Y-122625476D01*
X147582309Y-122968333D02*
X147620404Y-122892142D01*
X147620404Y-122701666D01*
X147582309Y-122625476D01*
X147506119Y-122587380D01*
X147429928Y-122587380D01*
X147353738Y-122625476D01*
X147315642Y-122701666D01*
X147315642Y-122892142D01*
X147277547Y-122968333D01*
X147582309Y-123692142D02*
X147620404Y-123615952D01*
X147620404Y-123463571D01*
X147582309Y-123387380D01*
X147544214Y-123349285D01*
X147468023Y-123311190D01*
X147239452Y-123311190D01*
X147163261Y-123349285D01*
X147125166Y-123387380D01*
X147087071Y-123463571D01*
X147087071Y-123615952D01*
X147125166Y-123692142D01*
X147620404Y-124035000D02*
X147087071Y-124035000D01*
X146820404Y-124035000D02*
X146858500Y-123996904D01*
X146896595Y-124035000D01*
X146858500Y-124073095D01*
X146820404Y-124035000D01*
X146896595Y-124035000D01*
X147087071Y-124301666D02*
X147087071Y-124606428D01*
X146820404Y-124415952D02*
X147506119Y-124415952D01*
X147582309Y-124454047D01*
X147620404Y-124530238D01*
X147620404Y-124606428D01*
X147620404Y-125215952D02*
X147201357Y-125215952D01*
X147125166Y-125177857D01*
X147087071Y-125101666D01*
X147087071Y-124949285D01*
X147125166Y-124873095D01*
X147582309Y-125215952D02*
X147620404Y-125139761D01*
X147620404Y-124949285D01*
X147582309Y-124873095D01*
X147506119Y-124835000D01*
X147429928Y-124835000D01*
X147353738Y-124873095D01*
X147315642Y-124949285D01*
X147315642Y-125139761D01*
X147277547Y-125215952D01*
X147087071Y-125596904D02*
X147620404Y-125596904D01*
X147163261Y-125596904D02*
X147125166Y-125635000D01*
X147087071Y-125711190D01*
X147087071Y-125825476D01*
X147125166Y-125901666D01*
X147201357Y-125939761D01*
X147620404Y-125939761D01*
X147582309Y-126663571D02*
X147620404Y-126587380D01*
X147620404Y-126435000D01*
X147582309Y-126358809D01*
X147544214Y-126320714D01*
X147468023Y-126282619D01*
X147239452Y-126282619D01*
X147163261Y-126320714D01*
X147125166Y-126358809D01*
X147087071Y-126435000D01*
X147087071Y-126587380D01*
X147125166Y-126663571D01*
X147582309Y-127311190D02*
X147620404Y-127235000D01*
X147620404Y-127082619D01*
X147582309Y-127006428D01*
X147506119Y-126968333D01*
X147201357Y-126968333D01*
X147125166Y-127006428D01*
X147087071Y-127082619D01*
X147087071Y-127235000D01*
X147125166Y-127311190D01*
X147201357Y-127349285D01*
X147277547Y-127349285D01*
X147353738Y-126968333D01*
X147620404Y-128644523D02*
X147201357Y-128644523D01*
X147125166Y-128606428D01*
X147087071Y-128530238D01*
X147087071Y-128377857D01*
X147125166Y-128301666D01*
X147582309Y-128644523D02*
X147620404Y-128568333D01*
X147620404Y-128377857D01*
X147582309Y-128301666D01*
X147506119Y-128263571D01*
X147429928Y-128263571D01*
X147353738Y-128301666D01*
X147315642Y-128377857D01*
X147315642Y-128568333D01*
X147277547Y-128644523D01*
X147087071Y-129025476D02*
X147620404Y-129025476D01*
X147163261Y-129025476D02*
X147125166Y-129063571D01*
X147087071Y-129139761D01*
X147087071Y-129254047D01*
X147125166Y-129330238D01*
X147201357Y-129368333D01*
X147620404Y-129368333D01*
X147620404Y-130092142D02*
X146820404Y-130092142D01*
X147582309Y-130092142D02*
X147620404Y-130015952D01*
X147620404Y-129863571D01*
X147582309Y-129787380D01*
X147544214Y-129749285D01*
X147468023Y-129711190D01*
X147239452Y-129711190D01*
X147163261Y-129749285D01*
X147125166Y-129787380D01*
X147087071Y-129863571D01*
X147087071Y-130015952D01*
X147125166Y-130092142D01*
X147620404Y-131082619D02*
X147087071Y-131082619D01*
X147163261Y-131082619D02*
X147125166Y-131120714D01*
X147087071Y-131196904D01*
X147087071Y-131311190D01*
X147125166Y-131387380D01*
X147201357Y-131425476D01*
X147620404Y-131425476D01*
X147201357Y-131425476D02*
X147125166Y-131463571D01*
X147087071Y-131539761D01*
X147087071Y-131654047D01*
X147125166Y-131730238D01*
X147201357Y-131768333D01*
X147620404Y-131768333D01*
X147087071Y-132492142D02*
X147620404Y-132492142D01*
X147087071Y-132149285D02*
X147506119Y-132149285D01*
X147582309Y-132187380D01*
X147620404Y-132263571D01*
X147620404Y-132377857D01*
X147582309Y-132454047D01*
X147544214Y-132492142D01*
X147582309Y-133215952D02*
X147620404Y-133139761D01*
X147620404Y-132987380D01*
X147582309Y-132911190D01*
X147544214Y-132873095D01*
X147468023Y-132835000D01*
X147239452Y-132835000D01*
X147163261Y-132873095D01*
X147125166Y-132911190D01*
X147087071Y-132987380D01*
X147087071Y-133139761D01*
X147125166Y-133215952D01*
X147620404Y-133558809D02*
X146820404Y-133558809D01*
X147620404Y-133901666D02*
X147201357Y-133901666D01*
X147125166Y-133863571D01*
X147087071Y-133787380D01*
X147087071Y-133673095D01*
X147125166Y-133596904D01*
X147163261Y-133558809D01*
X147620404Y-134892142D02*
X147087071Y-134892142D01*
X147163261Y-134892142D02*
X147125166Y-134930238D01*
X147087071Y-135006428D01*
X147087071Y-135120714D01*
X147125166Y-135196904D01*
X147201357Y-135235000D01*
X147620404Y-135235000D01*
X147201357Y-135235000D02*
X147125166Y-135273095D01*
X147087071Y-135349285D01*
X147087071Y-135463571D01*
X147125166Y-135539761D01*
X147201357Y-135577857D01*
X147620404Y-135577857D01*
X147087071Y-136301666D02*
X147620404Y-136301666D01*
X147087071Y-135958809D02*
X147506119Y-135958809D01*
X147582309Y-135996904D01*
X147620404Y-136073095D01*
X147620404Y-136187380D01*
X147582309Y-136263571D01*
X147544214Y-136301666D01*
X147582309Y-137025476D02*
X147620404Y-136949285D01*
X147620404Y-136796904D01*
X147582309Y-136720714D01*
X147544214Y-136682619D01*
X147468023Y-136644523D01*
X147239452Y-136644523D01*
X147163261Y-136682619D01*
X147125166Y-136720714D01*
X147087071Y-136796904D01*
X147087071Y-136949285D01*
X147125166Y-137025476D01*
X147620404Y-137368333D02*
X146820404Y-137368333D01*
X147620404Y-137711190D02*
X147201357Y-137711190D01*
X147125166Y-137673095D01*
X147087071Y-137596904D01*
X147087071Y-137482619D01*
X147125166Y-137406428D01*
X147163261Y-137368333D01*
X147620404Y-138701666D02*
X147087071Y-138701666D01*
X147163261Y-138701666D02*
X147125166Y-138739761D01*
X147087071Y-138815952D01*
X147087071Y-138930238D01*
X147125166Y-139006428D01*
X147201357Y-139044523D01*
X147620404Y-139044523D01*
X147201357Y-139044523D02*
X147125166Y-139082619D01*
X147087071Y-139158809D01*
X147087071Y-139273095D01*
X147125166Y-139349285D01*
X147201357Y-139387380D01*
X147620404Y-139387380D01*
X147620404Y-139882619D02*
X147582309Y-139806428D01*
X147544214Y-139768333D01*
X147468023Y-139730238D01*
X147239452Y-139730238D01*
X147163261Y-139768333D01*
X147125166Y-139806428D01*
X147087071Y-139882619D01*
X147087071Y-139996904D01*
X147125166Y-140073095D01*
X147163261Y-140111190D01*
X147239452Y-140149285D01*
X147468023Y-140149285D01*
X147544214Y-140111190D01*
X147582309Y-140073095D01*
X147620404Y-139996904D01*
X147620404Y-139882619D01*
X147620404Y-140492142D02*
X147087071Y-140492142D01*
X147239452Y-140492142D02*
X147163261Y-140530238D01*
X147125166Y-140568333D01*
X147087071Y-140644523D01*
X147087071Y-140720714D01*
X147582309Y-141292142D02*
X147620404Y-141215952D01*
X147620404Y-141063571D01*
X147582309Y-140987380D01*
X147506119Y-140949285D01*
X147201357Y-140949285D01*
X147125166Y-140987380D01*
X147087071Y-141063571D01*
X147087071Y-141215952D01*
X147125166Y-141292142D01*
X147201357Y-141330238D01*
X147277547Y-141330238D01*
X147353738Y-140949285D01*
X147544214Y-141673095D02*
X147582309Y-141711190D01*
X147620404Y-141673095D01*
X147582309Y-141635000D01*
X147544214Y-141673095D01*
X147620404Y-141673095D01*
X150270404Y-106796904D02*
X149470404Y-106796904D01*
X149737071Y-107063571D02*
X149737071Y-107368333D01*
X150270404Y-107177857D02*
X149584690Y-107177857D01*
X149508500Y-107215952D01*
X149470404Y-107292142D01*
X149470404Y-107368333D01*
X149737071Y-108168333D02*
X150270404Y-108358809D01*
X149737071Y-108549285D02*
X150270404Y-108358809D01*
X150460880Y-108282619D01*
X150498976Y-108244523D01*
X150537071Y-108168333D01*
X150270404Y-108968333D02*
X150232309Y-108892142D01*
X150194214Y-108854047D01*
X150118023Y-108815952D01*
X149889452Y-108815952D01*
X149813261Y-108854047D01*
X149775166Y-108892142D01*
X149737071Y-108968333D01*
X149737071Y-109082619D01*
X149775166Y-109158809D01*
X149813261Y-109196904D01*
X149889452Y-109235000D01*
X150118023Y-109235000D01*
X150194214Y-109196904D01*
X150232309Y-109158809D01*
X150270404Y-109082619D01*
X150270404Y-108968333D01*
X149737071Y-109920714D02*
X150270404Y-109920714D01*
X149737071Y-109577857D02*
X150156119Y-109577857D01*
X150232309Y-109615952D01*
X150270404Y-109692142D01*
X150270404Y-109806428D01*
X150232309Y-109882619D01*
X150194214Y-109920714D01*
X149737071Y-110835000D02*
X150270404Y-110987380D01*
X149889452Y-111139761D01*
X150270404Y-111292142D01*
X149737071Y-111444523D01*
X150270404Y-112092142D02*
X149851357Y-112092142D01*
X149775166Y-112054047D01*
X149737071Y-111977857D01*
X149737071Y-111825476D01*
X149775166Y-111749285D01*
X150232309Y-112092142D02*
X150270404Y-112015952D01*
X150270404Y-111825476D01*
X150232309Y-111749285D01*
X150156119Y-111711190D01*
X150079928Y-111711190D01*
X150003738Y-111749285D01*
X149965642Y-111825476D01*
X149965642Y-112015952D01*
X149927547Y-112092142D01*
X149737071Y-112473095D02*
X150270404Y-112473095D01*
X149813261Y-112473095D02*
X149775166Y-112511190D01*
X149737071Y-112587380D01*
X149737071Y-112701666D01*
X149775166Y-112777857D01*
X149851357Y-112815952D01*
X150270404Y-112815952D01*
X149737071Y-113082619D02*
X149737071Y-113387380D01*
X149470404Y-113196904D02*
X150156119Y-113196904D01*
X150232309Y-113235000D01*
X150270404Y-113311190D01*
X150270404Y-113387380D01*
X149737071Y-114149285D02*
X149737071Y-114454047D01*
X149470404Y-114263571D02*
X150156119Y-114263571D01*
X150232309Y-114301666D01*
X150270404Y-114377857D01*
X150270404Y-114454047D01*
X150270404Y-114835000D02*
X150232309Y-114758809D01*
X150194214Y-114720714D01*
X150118023Y-114682619D01*
X149889452Y-114682619D01*
X149813261Y-114720714D01*
X149775166Y-114758809D01*
X149737071Y-114835000D01*
X149737071Y-114949285D01*
X149775166Y-115025476D01*
X149813261Y-115063571D01*
X149889452Y-115101666D01*
X150118023Y-115101666D01*
X150194214Y-115063571D01*
X150232309Y-115025476D01*
X150270404Y-114949285D01*
X150270404Y-114835000D01*
X150270404Y-116054047D02*
X149470404Y-116054047D01*
X150270404Y-116396904D02*
X149851357Y-116396904D01*
X149775166Y-116358809D01*
X149737071Y-116282619D01*
X149737071Y-116168333D01*
X149775166Y-116092142D01*
X149813261Y-116054047D01*
X150270404Y-117120714D02*
X149851357Y-117120714D01*
X149775166Y-117082619D01*
X149737071Y-117006428D01*
X149737071Y-116854047D01*
X149775166Y-116777857D01*
X150232309Y-117120714D02*
X150270404Y-117044523D01*
X150270404Y-116854047D01*
X150232309Y-116777857D01*
X150156119Y-116739761D01*
X150079928Y-116739761D01*
X150003738Y-116777857D01*
X149965642Y-116854047D01*
X149965642Y-117044523D01*
X149927547Y-117120714D01*
X149737071Y-117425476D02*
X150270404Y-117615952D01*
X149737071Y-117806428D01*
X150232309Y-118415952D02*
X150270404Y-118339761D01*
X150270404Y-118187380D01*
X150232309Y-118111190D01*
X150156119Y-118073095D01*
X149851357Y-118073095D01*
X149775166Y-118111190D01*
X149737071Y-118187380D01*
X149737071Y-118339761D01*
X149775166Y-118415952D01*
X149851357Y-118454047D01*
X149927547Y-118454047D01*
X150003738Y-118073095D01*
X150270404Y-119749285D02*
X149851357Y-119749285D01*
X149775166Y-119711190D01*
X149737071Y-119635000D01*
X149737071Y-119482619D01*
X149775166Y-119406428D01*
X150232309Y-119749285D02*
X150270404Y-119673095D01*
X150270404Y-119482619D01*
X150232309Y-119406428D01*
X150156119Y-119368333D01*
X150079928Y-119368333D01*
X150003738Y-119406428D01*
X149965642Y-119482619D01*
X149965642Y-119673095D01*
X149927547Y-119749285D01*
X149737071Y-121082619D02*
X150384690Y-121082619D01*
X150460880Y-121044523D01*
X150498976Y-121006428D01*
X150537071Y-120930238D01*
X150537071Y-120815952D01*
X150498976Y-120739761D01*
X150232309Y-121082619D02*
X150270404Y-121006428D01*
X150270404Y-120854047D01*
X150232309Y-120777857D01*
X150194214Y-120739761D01*
X150118023Y-120701666D01*
X149889452Y-120701666D01*
X149813261Y-120739761D01*
X149775166Y-120777857D01*
X149737071Y-120854047D01*
X149737071Y-121006428D01*
X149775166Y-121082619D01*
X150270404Y-121577857D02*
X150232309Y-121501666D01*
X150194214Y-121463571D01*
X150118023Y-121425476D01*
X149889452Y-121425476D01*
X149813261Y-121463571D01*
X149775166Y-121501666D01*
X149737071Y-121577857D01*
X149737071Y-121692142D01*
X149775166Y-121768333D01*
X149813261Y-121806428D01*
X149889452Y-121844523D01*
X150118023Y-121844523D01*
X150194214Y-121806428D01*
X150232309Y-121768333D01*
X150270404Y-121692142D01*
X150270404Y-121577857D01*
X150270404Y-123139761D02*
X149851357Y-123139761D01*
X149775166Y-123101666D01*
X149737071Y-123025476D01*
X149737071Y-122873095D01*
X149775166Y-122796904D01*
X150232309Y-123139761D02*
X150270404Y-123063571D01*
X150270404Y-122873095D01*
X150232309Y-122796904D01*
X150156119Y-122758809D01*
X150079928Y-122758809D01*
X150003738Y-122796904D01*
X149965642Y-122873095D01*
X149965642Y-123063571D01*
X149927547Y-123139761D01*
X149737071Y-123406428D02*
X149737071Y-123711190D01*
X149470404Y-123520714D02*
X150156119Y-123520714D01*
X150232309Y-123558809D01*
X150270404Y-123634999D01*
X150270404Y-123711190D01*
X150270404Y-124587380D02*
X149737071Y-124587380D01*
X149813261Y-124587380D02*
X149775166Y-124625476D01*
X149737071Y-124701666D01*
X149737071Y-124815952D01*
X149775166Y-124892142D01*
X149851357Y-124930238D01*
X150270404Y-124930238D01*
X149851357Y-124930238D02*
X149775166Y-124968333D01*
X149737071Y-125044523D01*
X149737071Y-125158809D01*
X149775166Y-125234999D01*
X149851357Y-125273095D01*
X150270404Y-125273095D01*
X150270404Y-125996904D02*
X149851357Y-125996904D01*
X149775166Y-125958809D01*
X149737071Y-125882619D01*
X149737071Y-125730238D01*
X149775166Y-125654047D01*
X150232309Y-125996904D02*
X150270404Y-125920714D01*
X150270404Y-125730238D01*
X150232309Y-125654047D01*
X150156119Y-125615952D01*
X150079928Y-125615952D01*
X150003738Y-125654047D01*
X149965642Y-125730238D01*
X149965642Y-125920714D01*
X149927547Y-125996904D01*
X150270404Y-126377857D02*
X149470404Y-126377857D01*
X149965642Y-126454047D02*
X150270404Y-126682619D01*
X149737071Y-126682619D02*
X150041833Y-126377857D01*
X150270404Y-127025476D02*
X149737071Y-127025476D01*
X149470404Y-127025476D02*
X149508500Y-126987380D01*
X149546595Y-127025476D01*
X149508500Y-127063571D01*
X149470404Y-127025476D01*
X149546595Y-127025476D01*
X149737071Y-127406428D02*
X150270404Y-127406428D01*
X149813261Y-127406428D02*
X149775166Y-127444523D01*
X149737071Y-127520714D01*
X149737071Y-127634999D01*
X149775166Y-127711190D01*
X149851357Y-127749285D01*
X150270404Y-127749285D01*
X149737071Y-128473095D02*
X150384690Y-128473095D01*
X150460880Y-128434999D01*
X150498976Y-128396904D01*
X150537071Y-128320714D01*
X150537071Y-128206428D01*
X150498976Y-128130238D01*
X150232309Y-128473095D02*
X150270404Y-128396904D01*
X150270404Y-128244523D01*
X150232309Y-128168333D01*
X150194214Y-128130238D01*
X150118023Y-128092142D01*
X149889452Y-128092142D01*
X149813261Y-128130238D01*
X149775166Y-128168333D01*
X149737071Y-128244523D01*
X149737071Y-128396904D01*
X149775166Y-128473095D01*
X150232309Y-129425476D02*
X150270404Y-129501666D01*
X150270404Y-129654047D01*
X150232309Y-129730238D01*
X150156119Y-129768333D01*
X150118023Y-129768333D01*
X150041833Y-129730238D01*
X150003738Y-129654047D01*
X150003738Y-129539761D01*
X149965642Y-129463571D01*
X149889452Y-129425476D01*
X149851357Y-129425476D01*
X149775166Y-129463571D01*
X149737071Y-129539761D01*
X149737071Y-129654047D01*
X149775166Y-129730238D01*
X150270404Y-130225476D02*
X150232309Y-130149285D01*
X150194214Y-130111190D01*
X150118023Y-130073095D01*
X149889452Y-130073095D01*
X149813261Y-130111190D01*
X149775166Y-130149285D01*
X149737071Y-130225476D01*
X149737071Y-130339761D01*
X149775166Y-130415952D01*
X149813261Y-130454047D01*
X149889452Y-130492142D01*
X150118023Y-130492142D01*
X150194214Y-130454047D01*
X150232309Y-130415952D01*
X150270404Y-130339761D01*
X150270404Y-130225476D01*
X150270404Y-130834999D02*
X149737071Y-130834999D01*
X149813261Y-130834999D02*
X149775166Y-130873095D01*
X149737071Y-130949285D01*
X149737071Y-131063571D01*
X149775166Y-131139761D01*
X149851357Y-131177857D01*
X150270404Y-131177857D01*
X149851357Y-131177857D02*
X149775166Y-131215952D01*
X149737071Y-131292142D01*
X149737071Y-131406428D01*
X149775166Y-131482619D01*
X149851357Y-131520714D01*
X150270404Y-131520714D01*
X150232309Y-132206428D02*
X150270404Y-132130238D01*
X150270404Y-131977857D01*
X150232309Y-131901666D01*
X150156119Y-131863571D01*
X149851357Y-131863571D01*
X149775166Y-131901666D01*
X149737071Y-131977857D01*
X149737071Y-132130238D01*
X149775166Y-132206428D01*
X149851357Y-132244523D01*
X149927547Y-132244523D01*
X150003738Y-131863571D01*
X150270404Y-133311190D02*
X150232309Y-133234999D01*
X150194214Y-133196904D01*
X150118023Y-133158809D01*
X149889452Y-133158809D01*
X149813261Y-133196904D01*
X149775166Y-133234999D01*
X149737071Y-133311190D01*
X149737071Y-133425476D01*
X149775166Y-133501666D01*
X149813261Y-133539761D01*
X149889452Y-133577857D01*
X150118023Y-133577857D01*
X150194214Y-133539761D01*
X150232309Y-133501666D01*
X150270404Y-133425476D01*
X150270404Y-133311190D01*
X149737071Y-133920714D02*
X150537071Y-133920714D01*
X149775166Y-133920714D02*
X149737071Y-133996904D01*
X149737071Y-134149285D01*
X149775166Y-134225476D01*
X149813261Y-134263571D01*
X149889452Y-134301666D01*
X150118023Y-134301666D01*
X150194214Y-134263571D01*
X150232309Y-134225476D01*
X150270404Y-134149285D01*
X150270404Y-133996904D01*
X150232309Y-133920714D01*
X150232309Y-134949285D02*
X150270404Y-134873095D01*
X150270404Y-134720714D01*
X150232309Y-134644523D01*
X150156119Y-134606428D01*
X149851357Y-134606428D01*
X149775166Y-134644523D01*
X149737071Y-134720714D01*
X149737071Y-134873095D01*
X149775166Y-134949285D01*
X149851357Y-134987380D01*
X149927547Y-134987380D01*
X150003738Y-134606428D01*
X149737071Y-135330238D02*
X150270404Y-135330238D01*
X149813261Y-135330238D02*
X149775166Y-135368333D01*
X149737071Y-135444523D01*
X149737071Y-135558809D01*
X149775166Y-135634999D01*
X149851357Y-135673095D01*
X150270404Y-135673095D01*
X150232309Y-136625476D02*
X150270404Y-136701666D01*
X150270404Y-136854047D01*
X150232309Y-136930238D01*
X150156119Y-136968333D01*
X150118023Y-136968333D01*
X150041833Y-136930238D01*
X150003738Y-136854047D01*
X150003738Y-136739761D01*
X149965642Y-136663571D01*
X149889452Y-136625476D01*
X149851357Y-136625476D01*
X149775166Y-136663571D01*
X149737071Y-136739761D01*
X149737071Y-136854047D01*
X149775166Y-136930238D01*
X150270404Y-137425476D02*
X150232309Y-137349285D01*
X150194214Y-137311190D01*
X150118023Y-137273095D01*
X149889452Y-137273095D01*
X149813261Y-137311190D01*
X149775166Y-137349285D01*
X149737071Y-137425476D01*
X149737071Y-137539761D01*
X149775166Y-137615952D01*
X149813261Y-137654047D01*
X149889452Y-137692142D01*
X150118023Y-137692142D01*
X150194214Y-137654047D01*
X150232309Y-137615952D01*
X150270404Y-137539761D01*
X150270404Y-137425476D01*
X149737071Y-138377857D02*
X150270404Y-138377857D01*
X149737071Y-138034999D02*
X150156119Y-138034999D01*
X150232309Y-138073095D01*
X150270404Y-138149285D01*
X150270404Y-138263571D01*
X150232309Y-138339761D01*
X150194214Y-138377857D01*
X150270404Y-138758809D02*
X149737071Y-138758809D01*
X149889452Y-138758809D02*
X149813261Y-138796904D01*
X149775166Y-138834999D01*
X149737071Y-138911190D01*
X149737071Y-138987380D01*
X150232309Y-139596904D02*
X150270404Y-139520714D01*
X150270404Y-139368333D01*
X150232309Y-139292142D01*
X150194214Y-139254047D01*
X150118023Y-139215952D01*
X149889452Y-139215952D01*
X149813261Y-139254047D01*
X149775166Y-139292142D01*
X149737071Y-139368333D01*
X149737071Y-139520714D01*
X149775166Y-139596904D01*
X150232309Y-140244523D02*
X150270404Y-140168333D01*
X150270404Y-140015952D01*
X150232309Y-139939761D01*
X150156119Y-139901666D01*
X149851357Y-139901666D01*
X149775166Y-139939761D01*
X149737071Y-140015952D01*
X149737071Y-140168333D01*
X149775166Y-140244523D01*
X149851357Y-140282619D01*
X149927547Y-140282619D01*
X150003738Y-139901666D01*
X150270404Y-141234999D02*
X149470404Y-141234999D01*
X150270404Y-141577857D02*
X149851357Y-141577857D01*
X149775166Y-141539761D01*
X149737071Y-141463571D01*
X149737071Y-141349285D01*
X149775166Y-141273095D01*
X149813261Y-141234999D01*
X150270404Y-142301666D02*
X149851357Y-142301666D01*
X149775166Y-142263571D01*
X149737071Y-142187380D01*
X149737071Y-142034999D01*
X149775166Y-141958809D01*
X150232309Y-142301666D02*
X150270404Y-142225476D01*
X150270404Y-142034999D01*
X150232309Y-141958809D01*
X150156119Y-141920714D01*
X150079928Y-141920714D01*
X150003738Y-141958809D01*
X149965642Y-142034999D01*
X149965642Y-142225476D01*
X149927547Y-142301666D01*
X150270404Y-142682619D02*
X149737071Y-142682619D01*
X149889452Y-142682619D02*
X149813261Y-142720714D01*
X149775166Y-142758809D01*
X149737071Y-142834999D01*
X149737071Y-142911190D01*
X150270404Y-143520714D02*
X149470404Y-143520714D01*
X150232309Y-143520714D02*
X150270404Y-143444523D01*
X150270404Y-143292142D01*
X150232309Y-143215952D01*
X150194214Y-143177857D01*
X150118023Y-143139761D01*
X149889452Y-143139761D01*
X149813261Y-143177857D01*
X149775166Y-143215952D01*
X149737071Y-143292142D01*
X149737071Y-143444523D01*
X149775166Y-143520714D01*
X149737071Y-143825476D02*
X150270404Y-143977857D01*
X149889452Y-144130238D01*
X150270404Y-144282619D01*
X149737071Y-144434999D01*
X150270404Y-145082619D02*
X149851357Y-145082619D01*
X149775166Y-145044523D01*
X149737071Y-144968333D01*
X149737071Y-144815952D01*
X149775166Y-144739761D01*
X150232309Y-145082619D02*
X150270404Y-145006428D01*
X150270404Y-144815952D01*
X150232309Y-144739761D01*
X150156119Y-144701666D01*
X150079928Y-144701666D01*
X150003738Y-144739761D01*
X149965642Y-144815952D01*
X149965642Y-145006428D01*
X149927547Y-145082619D01*
X150270404Y-145463571D02*
X149737071Y-145463571D01*
X149889452Y-145463571D02*
X149813261Y-145501666D01*
X149775166Y-145539761D01*
X149737071Y-145615952D01*
X149737071Y-145692142D01*
X150232309Y-146263571D02*
X150270404Y-146187380D01*
X150270404Y-146034999D01*
X150232309Y-145958809D01*
X150156119Y-145920714D01*
X149851357Y-145920714D01*
X149775166Y-145958809D01*
X149737071Y-146034999D01*
X149737071Y-146187380D01*
X149775166Y-146263571D01*
X149851357Y-146301666D01*
X149927547Y-146301666D01*
X150003738Y-145920714D01*
X149965642Y-147254047D02*
X149965642Y-147863571D01*
X151062071Y-110473095D02*
X151747785Y-110473095D01*
X151823976Y-110435000D01*
X151862071Y-110358809D01*
X151862071Y-110320714D01*
X150795404Y-110473095D02*
X150833500Y-110435000D01*
X150871595Y-110473095D01*
X150833500Y-110511190D01*
X150795404Y-110473095D01*
X150871595Y-110473095D01*
X151062071Y-111196904D02*
X151595404Y-111196904D01*
X151062071Y-110854047D02*
X151481119Y-110854047D01*
X151557309Y-110892142D01*
X151595404Y-110968333D01*
X151595404Y-111082619D01*
X151557309Y-111158809D01*
X151519214Y-111196904D01*
X151557309Y-111539761D02*
X151595404Y-111615952D01*
X151595404Y-111768333D01*
X151557309Y-111844523D01*
X151481119Y-111882619D01*
X151443023Y-111882619D01*
X151366833Y-111844523D01*
X151328738Y-111768333D01*
X151328738Y-111654047D01*
X151290642Y-111577857D01*
X151214452Y-111539761D01*
X151176357Y-111539761D01*
X151100166Y-111577857D01*
X151062071Y-111654047D01*
X151062071Y-111768333D01*
X151100166Y-111844523D01*
X151062071Y-112111190D02*
X151062071Y-112415952D01*
X150795404Y-112225476D02*
X151481119Y-112225476D01*
X151557309Y-112263571D01*
X151595404Y-112339761D01*
X151595404Y-112415952D01*
X151062071Y-113635000D02*
X151709690Y-113635000D01*
X151785880Y-113596904D01*
X151823976Y-113558809D01*
X151862071Y-113482619D01*
X151862071Y-113368333D01*
X151823976Y-113292142D01*
X151557309Y-113635000D02*
X151595404Y-113558809D01*
X151595404Y-113406428D01*
X151557309Y-113330238D01*
X151519214Y-113292142D01*
X151443023Y-113254047D01*
X151214452Y-113254047D01*
X151138261Y-113292142D01*
X151100166Y-113330238D01*
X151062071Y-113406428D01*
X151062071Y-113558809D01*
X151100166Y-113635000D01*
X151595404Y-114130238D02*
X151557309Y-114054047D01*
X151519214Y-114015952D01*
X151443023Y-113977857D01*
X151214452Y-113977857D01*
X151138261Y-114015952D01*
X151100166Y-114054047D01*
X151062071Y-114130238D01*
X151062071Y-114244523D01*
X151100166Y-114320714D01*
X151138261Y-114358809D01*
X151214452Y-114396904D01*
X151443023Y-114396904D01*
X151519214Y-114358809D01*
X151557309Y-114320714D01*
X151595404Y-114244523D01*
X151595404Y-114130238D01*
X151062071Y-115235000D02*
X151062071Y-115539761D01*
X151595404Y-115349285D02*
X150909690Y-115349285D01*
X150833500Y-115387380D01*
X150795404Y-115463571D01*
X150795404Y-115539761D01*
X151595404Y-115920714D02*
X151557309Y-115844523D01*
X151519214Y-115806428D01*
X151443023Y-115768333D01*
X151214452Y-115768333D01*
X151138261Y-115806428D01*
X151100166Y-115844523D01*
X151062071Y-115920714D01*
X151062071Y-116035000D01*
X151100166Y-116111190D01*
X151138261Y-116149285D01*
X151214452Y-116187380D01*
X151443023Y-116187380D01*
X151519214Y-116149285D01*
X151557309Y-116111190D01*
X151595404Y-116035000D01*
X151595404Y-115920714D01*
X151595404Y-116530238D02*
X151062071Y-116530238D01*
X151214452Y-116530238D02*
X151138261Y-116568333D01*
X151100166Y-116606428D01*
X151062071Y-116682619D01*
X151062071Y-116758809D01*
X151595404Y-117635000D02*
X151062071Y-117635000D01*
X150795404Y-117635000D02*
X150833500Y-117596904D01*
X150871595Y-117635000D01*
X150833500Y-117673095D01*
X150795404Y-117635000D01*
X150871595Y-117635000D01*
X151062071Y-117901666D02*
X151062071Y-118206428D01*
X150795404Y-118015952D02*
X151481119Y-118015952D01*
X151557309Y-118054047D01*
X151595404Y-118130238D01*
X151595404Y-118206428D01*
X151557309Y-118511190D02*
X151595404Y-118511190D01*
X151671595Y-118473095D01*
X151709690Y-118435000D01*
X151595404Y-119806428D02*
X151176357Y-119806428D01*
X151100166Y-119768333D01*
X151062071Y-119692142D01*
X151062071Y-119539761D01*
X151100166Y-119463571D01*
X151557309Y-119806428D02*
X151595404Y-119730238D01*
X151595404Y-119539761D01*
X151557309Y-119463571D01*
X151481119Y-119425476D01*
X151404928Y-119425476D01*
X151328738Y-119463571D01*
X151290642Y-119539761D01*
X151290642Y-119730238D01*
X151252547Y-119806428D01*
X151062071Y-120187380D02*
X151595404Y-120187380D01*
X151138261Y-120187380D02*
X151100166Y-120225476D01*
X151062071Y-120301666D01*
X151062071Y-120415952D01*
X151100166Y-120492142D01*
X151176357Y-120530238D01*
X151595404Y-120530238D01*
X151595404Y-121254047D02*
X150795404Y-121254047D01*
X151557309Y-121254047D02*
X151595404Y-121177857D01*
X151595404Y-121025476D01*
X151557309Y-120949285D01*
X151519214Y-120911190D01*
X151443023Y-120873095D01*
X151214452Y-120873095D01*
X151138261Y-120911190D01*
X151100166Y-120949285D01*
X151062071Y-121025476D01*
X151062071Y-121177857D01*
X151100166Y-121254047D01*
X151595404Y-122587380D02*
X150795404Y-122587380D01*
X151557309Y-122587380D02*
X151595404Y-122511190D01*
X151595404Y-122358809D01*
X151557309Y-122282619D01*
X151519214Y-122244523D01*
X151443023Y-122206428D01*
X151214452Y-122206428D01*
X151138261Y-122244523D01*
X151100166Y-122282619D01*
X151062071Y-122358809D01*
X151062071Y-122511190D01*
X151100166Y-122587380D01*
X151595404Y-123082619D02*
X151557309Y-123006428D01*
X151519214Y-122968333D01*
X151443023Y-122930238D01*
X151214452Y-122930238D01*
X151138261Y-122968333D01*
X151100166Y-123006428D01*
X151062071Y-123082619D01*
X151062071Y-123196904D01*
X151100166Y-123273095D01*
X151138261Y-123311190D01*
X151214452Y-123349285D01*
X151443023Y-123349285D01*
X151519214Y-123311190D01*
X151557309Y-123273095D01*
X151595404Y-123196904D01*
X151595404Y-123082619D01*
X151062071Y-123692142D02*
X151595404Y-123692142D01*
X151138261Y-123692142D02*
X151100166Y-123730238D01*
X151062071Y-123806428D01*
X151062071Y-123920714D01*
X151100166Y-123996904D01*
X151176357Y-124035000D01*
X151595404Y-124035000D01*
X150795404Y-124454047D02*
X150833500Y-124454047D01*
X150909690Y-124415952D01*
X150947785Y-124377857D01*
X151062071Y-124682619D02*
X151062071Y-124987380D01*
X150795404Y-124796904D02*
X151481119Y-124796904D01*
X151557309Y-124835000D01*
X151595404Y-124911190D01*
X151595404Y-124987380D01*
X151595404Y-125977857D02*
X151557309Y-125901666D01*
X151481119Y-125863571D01*
X150795404Y-125863571D01*
X151557309Y-126587380D02*
X151595404Y-126511190D01*
X151595404Y-126358809D01*
X151557309Y-126282619D01*
X151481119Y-126244523D01*
X151176357Y-126244523D01*
X151100166Y-126282619D01*
X151062071Y-126358809D01*
X151062071Y-126511190D01*
X151100166Y-126587380D01*
X151176357Y-126625476D01*
X151252547Y-126625476D01*
X151328738Y-126244523D01*
X151062071Y-126854047D02*
X151062071Y-127158809D01*
X150795404Y-126968333D02*
X151481119Y-126968333D01*
X151557309Y-127006428D01*
X151595404Y-127082619D01*
X151595404Y-127158809D01*
X151062071Y-127920714D02*
X151062071Y-128225476D01*
X150795404Y-128035000D02*
X151481119Y-128035000D01*
X151557309Y-128073095D01*
X151595404Y-128149285D01*
X151595404Y-128225476D01*
X151595404Y-128492142D02*
X150795404Y-128492142D01*
X151595404Y-128835000D02*
X151176357Y-128835000D01*
X151100166Y-128796904D01*
X151062071Y-128720714D01*
X151062071Y-128606428D01*
X151100166Y-128530238D01*
X151138261Y-128492142D01*
X151557309Y-129520714D02*
X151595404Y-129444523D01*
X151595404Y-129292142D01*
X151557309Y-129215952D01*
X151481119Y-129177857D01*
X151176357Y-129177857D01*
X151100166Y-129215952D01*
X151062071Y-129292142D01*
X151062071Y-129444523D01*
X151100166Y-129520714D01*
X151176357Y-129558809D01*
X151252547Y-129558809D01*
X151328738Y-129177857D01*
X151062071Y-130435000D02*
X151595404Y-130587380D01*
X151214452Y-130739761D01*
X151595404Y-130892142D01*
X151062071Y-131044523D01*
X151595404Y-131349285D02*
X150795404Y-131349285D01*
X151595404Y-131692142D02*
X151176357Y-131692142D01*
X151100166Y-131654047D01*
X151062071Y-131577857D01*
X151062071Y-131463571D01*
X151100166Y-131387380D01*
X151138261Y-131349285D01*
X151595404Y-132073095D02*
X151062071Y-132073095D01*
X150795404Y-132073095D02*
X150833500Y-132035000D01*
X150871595Y-132073095D01*
X150833500Y-132111190D01*
X150795404Y-132073095D01*
X150871595Y-132073095D01*
X151062071Y-132454047D02*
X151595404Y-132454047D01*
X151138261Y-132454047D02*
X151100166Y-132492142D01*
X151062071Y-132568333D01*
X151062071Y-132682619D01*
X151100166Y-132758809D01*
X151176357Y-132796904D01*
X151595404Y-132796904D01*
X151557309Y-133482619D02*
X151595404Y-133406428D01*
X151595404Y-133254047D01*
X151557309Y-133177857D01*
X151481119Y-133139761D01*
X151176357Y-133139761D01*
X151100166Y-133177857D01*
X151062071Y-133254047D01*
X151062071Y-133406428D01*
X151100166Y-133482619D01*
X151176357Y-133520714D01*
X151252547Y-133520714D01*
X151328738Y-133139761D01*
X151595404Y-133863571D02*
X151062071Y-133863571D01*
X151214452Y-133863571D02*
X151138261Y-133901666D01*
X151100166Y-133939761D01*
X151062071Y-134015952D01*
X151062071Y-134092142D01*
X151557309Y-134320714D02*
X151595404Y-134396904D01*
X151595404Y-134549285D01*
X151557309Y-134625476D01*
X151481119Y-134663571D01*
X151443023Y-134663571D01*
X151366833Y-134625476D01*
X151328738Y-134549285D01*
X151328738Y-134435000D01*
X151290642Y-134358809D01*
X151214452Y-134320714D01*
X151176357Y-134320714D01*
X151100166Y-134358809D01*
X151062071Y-134435000D01*
X151062071Y-134549285D01*
X151100166Y-134625476D01*
X151595404Y-135958809D02*
X150795404Y-135958809D01*
X151557309Y-135958809D02*
X151595404Y-135882619D01*
X151595404Y-135730238D01*
X151557309Y-135654047D01*
X151519214Y-135615952D01*
X151443023Y-135577857D01*
X151214452Y-135577857D01*
X151138261Y-135615952D01*
X151100166Y-135654047D01*
X151062071Y-135730238D01*
X151062071Y-135882619D01*
X151100166Y-135958809D01*
X151595404Y-136339761D02*
X151062071Y-136339761D01*
X150795404Y-136339761D02*
X150833500Y-136301666D01*
X150871595Y-136339761D01*
X150833500Y-136377857D01*
X150795404Y-136339761D01*
X150871595Y-136339761D01*
X151557309Y-136682619D02*
X151595404Y-136758809D01*
X151595404Y-136911190D01*
X151557309Y-136987380D01*
X151481119Y-137025476D01*
X151443023Y-137025476D01*
X151366833Y-136987380D01*
X151328738Y-136911190D01*
X151328738Y-136796904D01*
X151290642Y-136720714D01*
X151214452Y-136682619D01*
X151176357Y-136682619D01*
X151100166Y-136720714D01*
X151062071Y-136796904D01*
X151062071Y-136911190D01*
X151100166Y-136987380D01*
X151557309Y-137711190D02*
X151595404Y-137635000D01*
X151595404Y-137482619D01*
X151557309Y-137406428D01*
X151519214Y-137368333D01*
X151443023Y-137330238D01*
X151214452Y-137330238D01*
X151138261Y-137368333D01*
X151100166Y-137406428D01*
X151062071Y-137482619D01*
X151062071Y-137635000D01*
X151100166Y-137711190D01*
X151595404Y-138168333D02*
X151557309Y-138092142D01*
X151519214Y-138054047D01*
X151443023Y-138015952D01*
X151214452Y-138015952D01*
X151138261Y-138054047D01*
X151100166Y-138092142D01*
X151062071Y-138168333D01*
X151062071Y-138282619D01*
X151100166Y-138358809D01*
X151138261Y-138396904D01*
X151214452Y-138435000D01*
X151443023Y-138435000D01*
X151519214Y-138396904D01*
X151557309Y-138358809D01*
X151595404Y-138282619D01*
X151595404Y-138168333D01*
X151062071Y-139120714D02*
X151595404Y-139120714D01*
X151062071Y-138777857D02*
X151481119Y-138777857D01*
X151557309Y-138815952D01*
X151595404Y-138892142D01*
X151595404Y-139006428D01*
X151557309Y-139082619D01*
X151519214Y-139120714D01*
X151595404Y-139501666D02*
X151062071Y-139501666D01*
X151214452Y-139501666D02*
X151138261Y-139539761D01*
X151100166Y-139577857D01*
X151062071Y-139654047D01*
X151062071Y-139730238D01*
X151595404Y-140339761D02*
X151176357Y-140339761D01*
X151100166Y-140301666D01*
X151062071Y-140225476D01*
X151062071Y-140073095D01*
X151100166Y-139996904D01*
X151557309Y-140339761D02*
X151595404Y-140263571D01*
X151595404Y-140073095D01*
X151557309Y-139996904D01*
X151481119Y-139958809D01*
X151404928Y-139958809D01*
X151328738Y-139996904D01*
X151290642Y-140073095D01*
X151290642Y-140263571D01*
X151252547Y-140339761D01*
X151062071Y-141063571D02*
X151709690Y-141063571D01*
X151785880Y-141025476D01*
X151823976Y-140987380D01*
X151862071Y-140911190D01*
X151862071Y-140796904D01*
X151823976Y-140720714D01*
X151557309Y-141063571D02*
X151595404Y-140987380D01*
X151595404Y-140835000D01*
X151557309Y-140758809D01*
X151519214Y-140720714D01*
X151443023Y-140682619D01*
X151214452Y-140682619D01*
X151138261Y-140720714D01*
X151100166Y-140758809D01*
X151062071Y-140835000D01*
X151062071Y-140987380D01*
X151100166Y-141063571D01*
X151557309Y-141749285D02*
X151595404Y-141673095D01*
X151595404Y-141520714D01*
X151557309Y-141444523D01*
X151481119Y-141406428D01*
X151176357Y-141406428D01*
X151100166Y-141444523D01*
X151062071Y-141520714D01*
X151062071Y-141673095D01*
X151100166Y-141749285D01*
X151176357Y-141787380D01*
X151252547Y-141787380D01*
X151328738Y-141406428D01*
X151062071Y-142663571D02*
X151595404Y-142854047D01*
X151062071Y-143044523D02*
X151595404Y-142854047D01*
X151785880Y-142777857D01*
X151823976Y-142739761D01*
X151862071Y-142663571D01*
X151595404Y-143463571D02*
X151557309Y-143387380D01*
X151519214Y-143349285D01*
X151443023Y-143311190D01*
X151214452Y-143311190D01*
X151138261Y-143349285D01*
X151100166Y-143387380D01*
X151062071Y-143463571D01*
X151062071Y-143577857D01*
X151100166Y-143654047D01*
X151138261Y-143692142D01*
X151214452Y-143730238D01*
X151443023Y-143730238D01*
X151519214Y-143692142D01*
X151557309Y-143654047D01*
X151595404Y-143577857D01*
X151595404Y-143463571D01*
X151062071Y-144415952D02*
X151595404Y-144415952D01*
X151062071Y-144073095D02*
X151481119Y-144073095D01*
X151557309Y-144111190D01*
X151595404Y-144187380D01*
X151595404Y-144301666D01*
X151557309Y-144377857D01*
X151519214Y-144415952D01*
X151519214Y-144796904D02*
X151557309Y-144835000D01*
X151595404Y-144796904D01*
X151557309Y-144758809D01*
X151519214Y-144796904D01*
X151595404Y-144796904D01*
X151290642Y-144796904D02*
X150833500Y-144758809D01*
X150795404Y-144796904D01*
X150833500Y-144835000D01*
X151290642Y-144796904D01*
X150795404Y-144796904D01*
M02*
